<?xml version="1.0" encoding="UTF-8" standalone="no"?>
<!DOCTYPE svg PUBLIC "-//W3C//DTD SVG 1.1//EN"
 "http://www.w3.org/Graphics/SVG/1.1/DTD/svg11.dtd">
<!-- Generated by graphviz version 2.50.0 (0)
 -->
<!-- Title: G Pages: 1 -->
<svg width="309pt" height="620pt"
 viewBox="0.00 0.00 309.00 620.00" xmlns="http://www.w3.org/2000/svg" xmlns:xlink="http://www.w3.org/1999/xlink">
<g id="graph0" class="graph" transform="scale(1 1) rotate(0) translate(4 616)">
<title>G</title>
<polygon fill="white" stroke="transparent" points="-4,4 -4,-616 305,-616 305,4 -4,4"/>
<!-- z -->
<g id="node1" class="node">
<title>z</title>
<path fill="none" stroke="#268bd2" stroke-width="1.5" d="M93,-420C93,-420 12,-420 12,-420 6,-420 0,-414 0,-408 0,-408 0,-396 0,-396 0,-390 6,-384 12,-384 12,-384 93,-384 93,-384 99,-384 105,-390 105,-396 105,-396 105,-408 105,-408 105,-414 99,-420 93,-420"/>
<text text-anchor="start" x="49" y="-404.4" font-family="Liberation Sans,Helvetica,Arial,sans-serif" font-weight="bold" font-size="12.00" fill="#002b36">z</text>
<text text-anchor="start" x="8" y="-394" font-family="Liberation Sans,Helvetica,Arial,sans-serif" font-size="10.00" fill="#268bd2">1 values (1 sources)</text>
</g>
<!-- add -->
<g id="node8" class="node">
<title>add</title>
<path fill="none" stroke="#dc322f" stroke-width="1.5" d="M118.5,-326C118.5,-326 86.5,-326 86.5,-326 80.5,-326 74.5,-320 74.5,-314 74.5,-314 74.5,-298 74.5,-298 74.5,-292 80.5,-286 86.5,-286 86.5,-286 118.5,-286 118.5,-286 124.5,-286 130.5,-292 130.5,-298 130.5,-298 130.5,-314 130.5,-314 130.5,-320 124.5,-326 118.5,-326"/>
<text text-anchor="start" x="91.5" y="-313.4" font-family="Liberation Sans,Helvetica,Arial,sans-serif" font-weight="bold" font-size="12.00" fill="#002b36">add</text>
<text text-anchor="start" x="82.5" y="-303" font-family="Liberation Sans,Helvetica,Arial,sans-serif" font-size="10.00" fill="#002b36">@op:add</text>
<text text-anchor="start" x="88" y="-293" font-family="Liberation Sans,Helvetica,Arial,sans-serif" font-size="10.00" fill="#dc322f">5 calls</text>
</g>
<!-- z&#45;&gt;add -->
<g id="edge1" class="edge">
<title>z&#45;&gt;add</title>
<path fill="none" stroke="#002b36" d="M54.7,-383.95C56.76,-372.17 60.59,-356.43 67.5,-344 69.43,-340.53 71.75,-337.15 74.28,-333.92"/>
<polygon fill="#002b36" stroke="#002b36" points="77,-336.13 80.86,-326.26 71.69,-331.57 77,-336.13"/>
<text text-anchor="middle" x="89" y="-358" font-family="Liberation Sans,Helvetica,Arial,sans-serif" font-size="10.00" fill="#002b36">z</text>
<text text-anchor="middle" x="89" y="-347" font-family="Liberation Sans,Helvetica,Arial,sans-serif" font-size="10.00" fill="#002b36">(1 values)</text>
</g>
<!-- var_2 -->
<g id="node2" class="node">
<title>var_2</title>
<path fill="none" stroke="#268bd2" stroke-width="1.5" d="M120.5,-36C120.5,-36 50.5,-36 50.5,-36 44.5,-36 38.5,-30 38.5,-24 38.5,-24 38.5,-12 38.5,-12 38.5,-6 44.5,0 50.5,0 50.5,0 120.5,0 120.5,0 126.5,0 132.5,-6 132.5,-12 132.5,-12 132.5,-24 132.5,-24 132.5,-30 126.5,-36 120.5,-36"/>
<text text-anchor="start" x="69.5" y="-20.4" font-family="Liberation Sans,Helvetica,Arial,sans-serif" font-weight="bold" font-size="12.00" fill="#002b36">var_2</text>
<text text-anchor="start" x="46.5" y="-10" font-family="Liberation Sans,Helvetica,Arial,sans-serif" font-size="10.00" fill="#268bd2">5 values (5 sinks)</text>
</g>
<!-- var_0 -->
<g id="node3" class="node">
<title>var_0</title>
<path fill="none" stroke="#268bd2" stroke-width="1.5" d="M140,-228C140,-228 65,-228 65,-228 59,-228 53,-222 53,-216 53,-216 53,-204 53,-204 53,-198 59,-192 65,-192 65,-192 140,-192 140,-192 146,-192 152,-198 152,-204 152,-204 152,-216 152,-216 152,-222 146,-228 140,-228"/>
<text text-anchor="start" x="86.5" y="-212.4" font-family="Liberation Sans,Helvetica,Arial,sans-serif" font-weight="bold" font-size="12.00" fill="#002b36">var_0</text>
<text text-anchor="start" x="61" y="-202" font-family="Liberation Sans,Helvetica,Arial,sans-serif" font-size="10.00" fill="#268bd2">10 values (5 sinks)</text>
</g>
<!-- divmod_ -->
<g id="node9" class="node">
<title>divmod_</title>
<path fill="none" stroke="#dc322f" stroke-width="1.5" d="M168,-134C168,-134 115,-134 115,-134 109,-134 103,-128 103,-122 103,-122 103,-106 103,-106 103,-100 109,-94 115,-94 115,-94 168,-94 168,-94 174,-94 180,-100 180,-106 180,-106 180,-122 180,-122 180,-128 174,-134 168,-134"/>
<text text-anchor="start" x="116.5" y="-121.4" font-family="Liberation Sans,Helvetica,Arial,sans-serif" font-weight="bold" font-size="12.00" fill="#002b36">divmod_</text>
<text text-anchor="start" x="111" y="-111" font-family="Liberation Sans,Helvetica,Arial,sans-serif" font-size="10.00" fill="#002b36">@op:divmod_</text>
<text text-anchor="start" x="127" y="-101" font-family="Liberation Sans,Helvetica,Arial,sans-serif" font-size="10.00" fill="#dc322f">5 calls</text>
</g>
<!-- var_0&#45;&gt;divmod_ -->
<g id="edge3" class="edge">
<title>var_0&#45;&gt;divmod_</title>
<path fill="none" stroke="#002b36" d="M108.31,-191.87C112.3,-180.46 117.88,-165.19 123.5,-152 124.72,-149.14 126.05,-146.17 127.41,-143.23"/>
<polygon fill="#002b36" stroke="#002b36" points="130.65,-144.57 131.79,-134.04 124.33,-141.56 130.65,-144.57"/>
<text text-anchor="middle" x="145" y="-166" font-family="Liberation Sans,Helvetica,Arial,sans-serif" font-size="10.00" fill="#002b36">v</text>
<text text-anchor="middle" x="145" y="-155" font-family="Liberation Sans,Helvetica,Arial,sans-serif" font-size="10.00" fill="#002b36">(5 values)</text>
</g>
<!-- var_1 -->
<g id="node4" class="node">
<title>var_1</title>
<path fill="none" stroke="#268bd2" stroke-width="1.5" d="M232.5,-36C232.5,-36 162.5,-36 162.5,-36 156.5,-36 150.5,-30 150.5,-24 150.5,-24 150.5,-12 150.5,-12 150.5,-6 156.5,0 162.5,0 162.5,0 232.5,0 232.5,0 238.5,0 244.5,-6 244.5,-12 244.5,-12 244.5,-24 244.5,-24 244.5,-30 238.5,-36 232.5,-36"/>
<text text-anchor="start" x="181.5" y="-20.4" font-family="Liberation Sans,Helvetica,Arial,sans-serif" font-weight="bold" font-size="12.00" fill="#002b36">var_1</text>
<text text-anchor="start" x="158.5" y="-10" font-family="Liberation Sans,Helvetica,Arial,sans-serif" font-size="10.00" fill="#268bd2">5 values (5 sinks)</text>
</g>
<!-- y -->
<g id="node5" class="node">
<title>y</title>
<path fill="none" stroke="#268bd2" stroke-width="1.5" d="M165.5,-420C165.5,-420 135.5,-420 135.5,-420 129.5,-420 123.5,-414 123.5,-408 123.5,-408 123.5,-396 123.5,-396 123.5,-390 129.5,-384 135.5,-384 135.5,-384 165.5,-384 165.5,-384 171.5,-384 177.5,-390 177.5,-396 177.5,-396 177.5,-408 177.5,-408 177.5,-414 171.5,-420 165.5,-420"/>
<text text-anchor="start" x="147" y="-404.4" font-family="Liberation Sans,Helvetica,Arial,sans-serif" font-weight="bold" font-size="12.00" fill="#002b36">y</text>
<text text-anchor="start" x="132" y="-394" font-family="Liberation Sans,Helvetica,Arial,sans-serif" font-size="10.00" fill="#268bd2">5 values</text>
</g>
<!-- y&#45;&gt;add -->
<g id="edge4" class="edge">
<title>y&#45;&gt;add</title>
<path fill="none" stroke="#002b36" d="M135.62,-383.94C131.32,-378.46 126.88,-372.2 123.5,-366 118.4,-356.65 114.13,-345.82 110.79,-336"/>
<polygon fill="#002b36" stroke="#002b36" points="114.05,-334.71 107.67,-326.25 107.39,-336.84 114.05,-334.71"/>
<text text-anchor="middle" x="145" y="-358" font-family="Liberation Sans,Helvetica,Arial,sans-serif" font-size="10.00" fill="#002b36">y</text>
<text text-anchor="middle" x="145" y="-347" font-family="Liberation Sans,Helvetica,Arial,sans-serif" font-size="10.00" fill="#002b36">(5 values)</text>
</g>
<!-- y&#45;&gt;divmod_ -->
<g id="edge5" class="edge">
<title>y&#45;&gt;divmod_</title>
<path fill="none" stroke="#002b36" d="M160.18,-383.71C162.76,-378.22 165.19,-372.01 166.5,-366 176.62,-319.53 180.42,-197.47 166.5,-152 165.58,-148.98 164.32,-145.99 162.85,-143.09"/>
<polygon fill="#002b36" stroke="#002b36" points="165.71,-141.06 157.61,-134.23 159.68,-144.62 165.71,-141.06"/>
<text text-anchor="middle" x="198" y="-260" font-family="Liberation Sans,Helvetica,Arial,sans-serif" font-size="10.00" fill="#002b36">u</text>
<text text-anchor="middle" x="198" y="-249" font-family="Liberation Sans,Helvetica,Arial,sans-serif" font-size="10.00" fill="#002b36">(5 values)</text>
</g>
<!-- w -->
<g id="node6" class="node">
<title>w</title>
<path fill="none" stroke="#268bd2" stroke-width="1.5" d="M289,-420C289,-420 208,-420 208,-420 202,-420 196,-414 196,-408 196,-408 196,-396 196,-396 196,-390 202,-384 208,-384 208,-384 289,-384 289,-384 295,-384 301,-390 301,-396 301,-396 301,-408 301,-408 301,-414 295,-420 289,-420"/>
<text text-anchor="start" x="243.5" y="-404.4" font-family="Liberation Sans,Helvetica,Arial,sans-serif" font-weight="bold" font-size="12.00" fill="#002b36">w</text>
<text text-anchor="start" x="204" y="-394" font-family="Liberation Sans,Helvetica,Arial,sans-serif" font-size="10.00" fill="#268bd2">5 values (5 sources)</text>
</g>
<!-- square -->
<g id="node11" class="node">
<title>square</title>
<path fill="none" stroke="#dc322f" stroke-width="1.5" d="M270.5,-326C270.5,-326 224.5,-326 224.5,-326 218.5,-326 212.5,-320 212.5,-314 212.5,-314 212.5,-298 212.5,-298 212.5,-292 218.5,-286 224.5,-286 224.5,-286 270.5,-286 270.5,-286 276.5,-286 282.5,-292 282.5,-298 282.5,-298 282.5,-314 282.5,-314 282.5,-320 276.5,-326 270.5,-326"/>
<text text-anchor="start" x="227.5" y="-313.4" font-family="Liberation Sans,Helvetica,Arial,sans-serif" font-weight="bold" font-size="12.00" fill="#002b36">square</text>
<text text-anchor="start" x="220.5" y="-303" font-family="Liberation Sans,Helvetica,Arial,sans-serif" font-size="10.00" fill="#002b36">@op:square</text>
<text text-anchor="start" x="233" y="-293" font-family="Liberation Sans,Helvetica,Arial,sans-serif" font-size="10.00" fill="#dc322f">5 calls</text>
</g>
<!-- w&#45;&gt;square -->
<g id="edge7" class="edge">
<title>w&#45;&gt;square</title>
<path fill="none" stroke="#002b36" d="M248.32,-383.76C248.18,-370.5 247.98,-351.86 247.81,-336.27"/>
<polygon fill="#002b36" stroke="#002b36" points="251.31,-336.03 247.7,-326.07 244.31,-336.11 251.31,-336.03"/>
<text text-anchor="middle" x="269" y="-358" font-family="Liberation Sans,Helvetica,Arial,sans-serif" font-size="10.00" fill="#002b36">w</text>
<text text-anchor="middle" x="269" y="-347" font-family="Liberation Sans,Helvetica,Arial,sans-serif" font-size="10.00" fill="#002b36">(5 values)</text>
</g>
<!-- x -->
<g id="node7" class="node">
<title>x</title>
<path fill="none" stroke="#268bd2" stroke-width="1.5" d="M191,-612C191,-612 110,-612 110,-612 104,-612 98,-606 98,-600 98,-600 98,-588 98,-588 98,-582 104,-576 110,-576 110,-576 191,-576 191,-576 197,-576 203,-582 203,-588 203,-588 203,-600 203,-600 203,-606 197,-612 191,-612"/>
<text text-anchor="start" x="147" y="-596.4" font-family="Liberation Sans,Helvetica,Arial,sans-serif" font-weight="bold" font-size="12.00" fill="#002b36">x</text>
<text text-anchor="start" x="106" y="-586" font-family="Liberation Sans,Helvetica,Arial,sans-serif" font-size="10.00" fill="#268bd2">5 values (5 sources)</text>
</g>
<!-- inc -->
<g id="node10" class="node">
<title>inc</title>
<path fill="none" stroke="#dc322f" stroke-width="1.5" d="M165.5,-518C165.5,-518 135.5,-518 135.5,-518 129.5,-518 123.5,-512 123.5,-506 123.5,-506 123.5,-490 123.5,-490 123.5,-484 129.5,-478 135.5,-478 135.5,-478 165.5,-478 165.5,-478 171.5,-478 177.5,-484 177.5,-490 177.5,-490 177.5,-506 177.5,-506 177.5,-512 171.5,-518 165.5,-518"/>
<text text-anchor="start" x="141.5" y="-505.4" font-family="Liberation Sans,Helvetica,Arial,sans-serif" font-weight="bold" font-size="12.00" fill="#002b36">inc</text>
<text text-anchor="start" x="132" y="-495" font-family="Liberation Sans,Helvetica,Arial,sans-serif" font-size="10.00" fill="#002b36">@op:inc</text>
<text text-anchor="start" x="136" y="-485" font-family="Liberation Sans,Helvetica,Arial,sans-serif" font-size="10.00" fill="#dc322f">5 calls</text>
</g>
<!-- x&#45;&gt;inc -->
<g id="edge9" class="edge">
<title>x&#45;&gt;inc</title>
<path fill="none" stroke="#002b36" d="M150.5,-575.76C150.5,-562.5 150.5,-543.86 150.5,-528.27"/>
<polygon fill="#002b36" stroke="#002b36" points="154,-528.07 150.5,-518.07 147,-528.07 154,-528.07"/>
<text text-anchor="middle" x="172" y="-550" font-family="Liberation Sans,Helvetica,Arial,sans-serif" font-size="10.00" fill="#002b36">x</text>
<text text-anchor="middle" x="172" y="-539" font-family="Liberation Sans,Helvetica,Arial,sans-serif" font-size="10.00" fill="#002b36">(5 values)</text>
</g>
<!-- add&#45;&gt;var_0 -->
<g id="edge2" class="edge">
<title>add&#45;&gt;var_0</title>
<path fill="none" stroke="#002b36" d="M102.5,-285.98C102.5,-272.34 102.5,-253.75 102.5,-238.5"/>
<polygon fill="#002b36" stroke="#002b36" points="106,-238.1 102.5,-228.1 99,-238.1 106,-238.1"/>
<text text-anchor="middle" x="124" y="-260" font-family="Liberation Sans,Helvetica,Arial,sans-serif" font-size="10.00" fill="#002b36">output_0</text>
<text text-anchor="middle" x="124" y="-249" font-family="Liberation Sans,Helvetica,Arial,sans-serif" font-size="10.00" fill="#002b36">(5 values)</text>
</g>
<!-- divmod_&#45;&gt;var_2 -->
<g id="edge11" class="edge">
<title>divmod_&#45;&gt;var_2</title>
<path fill="none" stroke="#002b36" d="M128.81,-93.94C125.09,-88.22 121.06,-81.9 117.5,-76 111.45,-65.99 105.09,-54.8 99.64,-45"/>
<polygon fill="#002b36" stroke="#002b36" points="102.64,-43.19 94.74,-36.12 96.51,-46.57 102.64,-43.19"/>
<text text-anchor="middle" x="139" y="-68" font-family="Liberation Sans,Helvetica,Arial,sans-serif" font-size="10.00" fill="#002b36">output_1</text>
<text text-anchor="middle" x="139" y="-57" font-family="Liberation Sans,Helvetica,Arial,sans-serif" font-size="10.00" fill="#002b36">(5 values)</text>
</g>
<!-- divmod_&#45;&gt;var_1 -->
<g id="edge10" class="edge">
<title>divmod_&#45;&gt;var_1</title>
<path fill="none" stroke="#002b36" d="M152.83,-93.98C161.27,-79.81 172.9,-60.3 182.17,-44.74"/>
<polygon fill="#002b36" stroke="#002b36" points="185.2,-46.48 187.31,-36.1 179.19,-42.9 185.2,-46.48"/>
<text text-anchor="middle" x="198" y="-68" font-family="Liberation Sans,Helvetica,Arial,sans-serif" font-size="10.00" fill="#002b36">output_0</text>
<text text-anchor="middle" x="198" y="-57" font-family="Liberation Sans,Helvetica,Arial,sans-serif" font-size="10.00" fill="#002b36">(5 values)</text>
</g>
<!-- inc&#45;&gt;y -->
<g id="edge8" class="edge">
<title>inc&#45;&gt;y</title>
<path fill="none" stroke="#002b36" d="M150.5,-477.98C150.5,-464.34 150.5,-445.75 150.5,-430.5"/>
<polygon fill="#002b36" stroke="#002b36" points="154,-430.1 150.5,-420.1 147,-430.1 154,-430.1"/>
<text text-anchor="middle" x="172" y="-452" font-family="Liberation Sans,Helvetica,Arial,sans-serif" font-size="10.00" fill="#002b36">output_0</text>
<text text-anchor="middle" x="172" y="-441" font-family="Liberation Sans,Helvetica,Arial,sans-serif" font-size="10.00" fill="#002b36">(5 values)</text>
</g>
<!-- square&#45;&gt;var_0 -->
<g id="edge6" class="edge">
<title>square&#45;&gt;var_0</title>
<path fill="none" stroke="#002b36" d="M244.91,-285.75C242.19,-272.82 236.66,-256.31 225.5,-246 208.31,-230.13 184.44,-221.4 162.29,-216.61"/>
<polygon fill="#002b36" stroke="#002b36" points="162.75,-213.13 152.27,-214.68 161.42,-220.01 162.75,-213.13"/>
<text text-anchor="middle" x="260" y="-260" font-family="Liberation Sans,Helvetica,Arial,sans-serif" font-size="10.00" fill="#002b36">output_0</text>
<text text-anchor="middle" x="260" y="-249" font-family="Liberation Sans,Helvetica,Arial,sans-serif" font-size="10.00" fill="#002b36">(5 values)</text>
</g>
</g>
</svg>
