<?xml version="1.0" encoding="UTF-8" standalone="no"?>
<!DOCTYPE svg PUBLIC "-//W3C//DTD SVG 1.1//EN"
 "http://www.w3.org/Graphics/SVG/1.1/DTD/svg11.dtd">
<!-- Generated by graphviz version 2.50.0 (0)
 -->
<!-- Title: G Pages: 1 -->
<svg width="372pt" height="620pt"
 viewBox="0.00 0.00 371.50 620.00" xmlns="http://www.w3.org/2000/svg" xmlns:xlink="http://www.w3.org/1999/xlink">
<g id="graph0" class="graph" transform="scale(1 1) rotate(0) translate(4 616)">
<title>G</title>
<polygon fill="white" stroke="transparent" points="-4,4 -4,-616 367.5,-616 367.5,4 -4,4"/>
<!-- var_0 -->
<g id="node1" class="node">
<title>var_0</title>
<path fill="none" stroke="#268bd2" stroke-width="1.5" d="M236,-228C236,-228 161,-228 161,-228 155,-228 149,-222 149,-216 149,-216 149,-204 149,-204 149,-198 155,-192 161,-192 161,-192 236,-192 236,-192 242,-192 248,-198 248,-204 248,-204 248,-216 248,-216 248,-222 242,-228 236,-228"/>
<text text-anchor="start" x="182.5" y="-212.4" font-family="Liberation Sans,Helvetica,Arial,sans-serif" font-weight="bold" font-size="12.00" fill="#002b36">var_0</text>
<text text-anchor="start" x="157" y="-202" font-family="Liberation Sans,Helvetica,Arial,sans-serif" font-size="10.00" fill="#268bd2">10 values (5 sinks)</text>
</g>
<!-- divmod_ -->
<g id="node9" class="node">
<title>divmod_</title>
<path fill="none" stroke="#dc322f" stroke-width="1.5" d="M287,-134C287,-134 234,-134 234,-134 228,-134 222,-128 222,-122 222,-122 222,-106 222,-106 222,-100 228,-94 234,-94 234,-94 287,-94 287,-94 293,-94 299,-100 299,-106 299,-106 299,-122 299,-122 299,-128 293,-134 287,-134"/>
<text text-anchor="start" x="235.5" y="-121.4" font-family="Liberation Sans,Helvetica,Arial,sans-serif" font-weight="bold" font-size="12.00" fill="#002b36">divmod_</text>
<text text-anchor="start" x="230" y="-111" font-family="Liberation Sans,Helvetica,Arial,sans-serif" font-size="10.00" fill="#002b36">@op:divmod_</text>
<text text-anchor="start" x="246" y="-101" font-family="Liberation Sans,Helvetica,Arial,sans-serif" font-size="10.00" fill="#dc322f">5 calls</text>
</g>
<!-- var_0&#45;&gt;divmod_ -->
<g id="edge1" class="edge">
<title>var_0&#45;&gt;divmod_</title>
<path fill="none" stroke="#002b36" d="M209.87,-191.76C218.96,-177.99 231.86,-158.42 242.37,-142.49"/>
<polygon fill="#002b36" stroke="#002b36" points="245.34,-144.35 247.92,-134.07 239.49,-140.49 245.34,-144.35"/>
<text text-anchor="middle" x="257" y="-166" font-family="Liberation Sans,Helvetica,Arial,sans-serif" font-size="10.00" fill="#002b36">v</text>
<text text-anchor="middle" x="257" y="-155" font-family="Liberation Sans,Helvetica,Arial,sans-serif" font-size="10.00" fill="#002b36">(5 values)</text>
</g>
<!-- w -->
<g id="node2" class="node">
<title>w</title>
<path fill="none" stroke="#268bd2" stroke-width="1.5" d="M93,-420C93,-420 12,-420 12,-420 6,-420 0,-414 0,-408 0,-408 0,-396 0,-396 0,-390 6,-384 12,-384 12,-384 93,-384 93,-384 99,-384 105,-390 105,-396 105,-396 105,-408 105,-408 105,-414 99,-420 93,-420"/>
<text text-anchor="start" x="47.5" y="-404.4" font-family="Liberation Sans,Helvetica,Arial,sans-serif" font-weight="bold" font-size="12.00" fill="#002b36">w</text>
<text text-anchor="start" x="8" y="-394" font-family="Liberation Sans,Helvetica,Arial,sans-serif" font-size="10.00" fill="#268bd2">5 values (5 sources)</text>
</g>
<!-- square -->
<g id="node8" class="node">
<title>square</title>
<path fill="none" stroke="#dc322f" stroke-width="1.5" d="M108.5,-326C108.5,-326 62.5,-326 62.5,-326 56.5,-326 50.5,-320 50.5,-314 50.5,-314 50.5,-298 50.5,-298 50.5,-292 56.5,-286 62.5,-286 62.5,-286 108.5,-286 108.5,-286 114.5,-286 120.5,-292 120.5,-298 120.5,-298 120.5,-314 120.5,-314 120.5,-320 114.5,-326 108.5,-326"/>
<text text-anchor="start" x="65.5" y="-313.4" font-family="Liberation Sans,Helvetica,Arial,sans-serif" font-weight="bold" font-size="12.00" fill="#002b36">square</text>
<text text-anchor="start" x="58.5" y="-303" font-family="Liberation Sans,Helvetica,Arial,sans-serif" font-size="10.00" fill="#002b36">@op:square</text>
<text text-anchor="start" x="71" y="-293" font-family="Liberation Sans,Helvetica,Arial,sans-serif" font-size="10.00" fill="#dc322f">5 calls</text>
</g>
<!-- w&#45;&gt;square -->
<g id="edge3" class="edge">
<title>w&#45;&gt;square</title>
<path fill="none" stroke="#002b36" d="M58.55,-383.76C63.25,-370.37 69.88,-351.5 75.38,-335.82"/>
<polygon fill="#002b36" stroke="#002b36" points="78.79,-336.67 78.8,-326.07 72.19,-334.35 78.79,-336.67"/>
<text text-anchor="middle" x="94" y="-358" font-family="Liberation Sans,Helvetica,Arial,sans-serif" font-size="10.00" fill="#002b36">w</text>
<text text-anchor="middle" x="94" y="-347" font-family="Liberation Sans,Helvetica,Arial,sans-serif" font-size="10.00" fill="#002b36">(5 values)</text>
</g>
<!-- x -->
<g id="node3" class="node">
<title>x</title>
<path fill="none" stroke="#268bd2" stroke-width="1.5" d="M327,-612C327,-612 246,-612 246,-612 240,-612 234,-606 234,-600 234,-600 234,-588 234,-588 234,-582 240,-576 246,-576 246,-576 327,-576 327,-576 333,-576 339,-582 339,-588 339,-588 339,-600 339,-600 339,-606 333,-612 327,-612"/>
<text text-anchor="start" x="283" y="-596.4" font-family="Liberation Sans,Helvetica,Arial,sans-serif" font-weight="bold" font-size="12.00" fill="#002b36">x</text>
<text text-anchor="start" x="242" y="-586" font-family="Liberation Sans,Helvetica,Arial,sans-serif" font-size="10.00" fill="#268bd2">5 values (5 sources)</text>
</g>
<!-- inc -->
<g id="node10" class="node">
<title>inc</title>
<path fill="none" stroke="#dc322f" stroke-width="1.5" d="M301.5,-518C301.5,-518 271.5,-518 271.5,-518 265.5,-518 259.5,-512 259.5,-506 259.5,-506 259.5,-490 259.5,-490 259.5,-484 265.5,-478 271.5,-478 271.5,-478 301.5,-478 301.5,-478 307.5,-478 313.5,-484 313.5,-490 313.5,-490 313.5,-506 313.5,-506 313.5,-512 307.5,-518 301.5,-518"/>
<text text-anchor="start" x="277.5" y="-505.4" font-family="Liberation Sans,Helvetica,Arial,sans-serif" font-weight="bold" font-size="12.00" fill="#002b36">inc</text>
<text text-anchor="start" x="268" y="-495" font-family="Liberation Sans,Helvetica,Arial,sans-serif" font-size="10.00" fill="#002b36">@op:inc</text>
<text text-anchor="start" x="272" y="-485" font-family="Liberation Sans,Helvetica,Arial,sans-serif" font-size="10.00" fill="#dc322f">5 calls</text>
</g>
<!-- x&#45;&gt;inc -->
<g id="edge9" class="edge">
<title>x&#45;&gt;inc</title>
<path fill="none" stroke="#002b36" d="M286.5,-575.76C286.5,-562.5 286.5,-543.86 286.5,-528.27"/>
<polygon fill="#002b36" stroke="#002b36" points="290,-528.07 286.5,-518.07 283,-528.07 290,-528.07"/>
<text text-anchor="middle" x="308" y="-550" font-family="Liberation Sans,Helvetica,Arial,sans-serif" font-size="10.00" fill="#002b36">x</text>
<text text-anchor="middle" x="308" y="-539" font-family="Liberation Sans,Helvetica,Arial,sans-serif" font-size="10.00" fill="#002b36">(5 values)</text>
</g>
<!-- var_1 -->
<g id="node4" class="node">
<title>var_1</title>
<path fill="none" stroke="#268bd2" stroke-width="1.5" d="M239.5,-36C239.5,-36 169.5,-36 169.5,-36 163.5,-36 157.5,-30 157.5,-24 157.5,-24 157.5,-12 157.5,-12 157.5,-6 163.5,0 169.5,0 169.5,0 239.5,0 239.5,0 245.5,0 251.5,-6 251.5,-12 251.5,-12 251.5,-24 251.5,-24 251.5,-30 245.5,-36 239.5,-36"/>
<text text-anchor="start" x="188.5" y="-20.4" font-family="Liberation Sans,Helvetica,Arial,sans-serif" font-weight="bold" font-size="12.00" fill="#002b36">var_1</text>
<text text-anchor="start" x="165.5" y="-10" font-family="Liberation Sans,Helvetica,Arial,sans-serif" font-size="10.00" fill="#268bd2">5 values (5 sinks)</text>
</g>
<!-- y -->
<g id="node5" class="node">
<title>y</title>
<path fill="none" stroke="#268bd2" stroke-width="1.5" d="M301.5,-420C301.5,-420 271.5,-420 271.5,-420 265.5,-420 259.5,-414 259.5,-408 259.5,-408 259.5,-396 259.5,-396 259.5,-390 265.5,-384 271.5,-384 271.5,-384 301.5,-384 301.5,-384 307.5,-384 313.5,-390 313.5,-396 313.5,-396 313.5,-408 313.5,-408 313.5,-414 307.5,-420 301.5,-420"/>
<text text-anchor="start" x="283" y="-404.4" font-family="Liberation Sans,Helvetica,Arial,sans-serif" font-weight="bold" font-size="12.00" fill="#002b36">y</text>
<text text-anchor="start" x="268" y="-394" font-family="Liberation Sans,Helvetica,Arial,sans-serif" font-size="10.00" fill="#268bd2">5 values</text>
</g>
<!-- y&#45;&gt;divmod_ -->
<g id="edge5" class="edge">
<title>y&#45;&gt;divmod_</title>
<path fill="none" stroke="#002b36" d="M289.18,-383.96C294.98,-343.01 306.38,-236.23 282.5,-152 281.65,-149 280.5,-146 279.16,-143.08"/>
<polygon fill="#002b36" stroke="#002b36" points="282.17,-141.3 274.4,-134.1 275.99,-144.57 282.17,-141.3"/>
<text text-anchor="middle" x="318" y="-260" font-family="Liberation Sans,Helvetica,Arial,sans-serif" font-size="10.00" fill="#002b36">u</text>
<text text-anchor="middle" x="318" y="-249" font-family="Liberation Sans,Helvetica,Arial,sans-serif" font-size="10.00" fill="#002b36">(5 values)</text>
</g>
<!-- add -->
<g id="node11" class="node">
<title>add</title>
<path fill="none" stroke="#dc322f" stroke-width="1.5" d="M214.5,-326C214.5,-326 182.5,-326 182.5,-326 176.5,-326 170.5,-320 170.5,-314 170.5,-314 170.5,-298 170.5,-298 170.5,-292 176.5,-286 182.5,-286 182.5,-286 214.5,-286 214.5,-286 220.5,-286 226.5,-292 226.5,-298 226.5,-298 226.5,-314 226.5,-314 226.5,-320 220.5,-326 214.5,-326"/>
<text text-anchor="start" x="187.5" y="-313.4" font-family="Liberation Sans,Helvetica,Arial,sans-serif" font-weight="bold" font-size="12.00" fill="#002b36">add</text>
<text text-anchor="start" x="178.5" y="-303" font-family="Liberation Sans,Helvetica,Arial,sans-serif" font-size="10.00" fill="#002b36">@op:add</text>
<text text-anchor="start" x="184" y="-293" font-family="Liberation Sans,Helvetica,Arial,sans-serif" font-size="10.00" fill="#dc322f">5 calls</text>
</g>
<!-- y&#45;&gt;add -->
<g id="edge4" class="edge">
<title>y&#45;&gt;add</title>
<path fill="none" stroke="#002b36" d="M262.7,-383.89C255.87,-378.51 248.61,-372.31 242.5,-366 233.19,-356.39 224.14,-344.78 216.69,-334.4"/>
<polygon fill="#002b36" stroke="#002b36" points="219.44,-332.23 210.83,-326.05 213.71,-336.25 219.44,-332.23"/>
<text text-anchor="middle" x="264" y="-358" font-family="Liberation Sans,Helvetica,Arial,sans-serif" font-size="10.00" fill="#002b36">y</text>
<text text-anchor="middle" x="264" y="-347" font-family="Liberation Sans,Helvetica,Arial,sans-serif" font-size="10.00" fill="#002b36">(5 values)</text>
</g>
<!-- z -->
<g id="node6" class="node">
<title>z</title>
<path fill="none" stroke="#268bd2" stroke-width="1.5" d="M216,-420C216,-420 135,-420 135,-420 129,-420 123,-414 123,-408 123,-408 123,-396 123,-396 123,-390 129,-384 135,-384 135,-384 216,-384 216,-384 222,-384 228,-390 228,-396 228,-396 228,-408 228,-408 228,-414 222,-420 216,-420"/>
<text text-anchor="start" x="172" y="-404.4" font-family="Liberation Sans,Helvetica,Arial,sans-serif" font-weight="bold" font-size="12.00" fill="#002b36">z</text>
<text text-anchor="start" x="131" y="-394" font-family="Liberation Sans,Helvetica,Arial,sans-serif" font-size="10.00" fill="#268bd2">1 values (1 sources)</text>
</g>
<!-- z&#45;&gt;add -->
<g id="edge7" class="edge">
<title>z&#45;&gt;add</title>
<path fill="none" stroke="#002b36" d="M173.53,-383.7C172.77,-372.23 172.82,-356.95 176.5,-344 177.35,-341.01 178.51,-338.01 179.85,-335.08"/>
<polygon fill="#002b36" stroke="#002b36" points="183.02,-336.58 184.61,-326.1 176.83,-333.3 183.02,-336.58"/>
<text text-anchor="middle" x="198" y="-358" font-family="Liberation Sans,Helvetica,Arial,sans-serif" font-size="10.00" fill="#002b36">z</text>
<text text-anchor="middle" x="198" y="-347" font-family="Liberation Sans,Helvetica,Arial,sans-serif" font-size="10.00" fill="#002b36">(1 values)</text>
</g>
<!-- var_2 -->
<g id="node7" class="node">
<title>var_2</title>
<path fill="none" stroke="#268bd2" stroke-width="1.5" d="M351.5,-36C351.5,-36 281.5,-36 281.5,-36 275.5,-36 269.5,-30 269.5,-24 269.5,-24 269.5,-12 269.5,-12 269.5,-6 275.5,0 281.5,0 281.5,0 351.5,0 351.5,0 357.5,0 363.5,-6 363.5,-12 363.5,-12 363.5,-24 363.5,-24 363.5,-30 357.5,-36 351.5,-36"/>
<text text-anchor="start" x="300.5" y="-20.4" font-family="Liberation Sans,Helvetica,Arial,sans-serif" font-weight="bold" font-size="12.00" fill="#002b36">var_2</text>
<text text-anchor="start" x="277.5" y="-10" font-family="Liberation Sans,Helvetica,Arial,sans-serif" font-size="10.00" fill="#268bd2">5 values (5 sinks)</text>
</g>
<!-- square&#45;&gt;var_0 -->
<g id="edge2" class="edge">
<title>square&#45;&gt;var_0</title>
<path fill="none" stroke="#002b36" d="M105.89,-285.91C118.73,-274.12 135.79,-258.83 151.5,-246 156.25,-242.13 161.36,-238.14 166.4,-234.3"/>
<polygon fill="#002b36" stroke="#002b36" points="168.85,-236.84 174.76,-228.04 164.65,-231.24 168.85,-236.84"/>
<text text-anchor="middle" x="173" y="-260" font-family="Liberation Sans,Helvetica,Arial,sans-serif" font-size="10.00" fill="#002b36">output_0</text>
<text text-anchor="middle" x="173" y="-249" font-family="Liberation Sans,Helvetica,Arial,sans-serif" font-size="10.00" fill="#002b36">(5 values)</text>
</g>
<!-- divmod_&#45;&gt;var_1 -->
<g id="edge10" class="edge">
<title>divmod_&#45;&gt;var_1</title>
<path fill="none" stroke="#002b36" d="M249.17,-93.98C240.73,-79.81 229.1,-60.3 219.83,-44.74"/>
<polygon fill="#002b36" stroke="#002b36" points="222.81,-42.9 214.69,-36.1 216.8,-46.48 222.81,-42.9"/>
<text text-anchor="middle" x="260" y="-68" font-family="Liberation Sans,Helvetica,Arial,sans-serif" font-size="10.00" fill="#002b36">output_0</text>
<text text-anchor="middle" x="260" y="-57" font-family="Liberation Sans,Helvetica,Arial,sans-serif" font-size="10.00" fill="#002b36">(5 values)</text>
</g>
<!-- divmod_&#45;&gt;var_2 -->
<g id="edge11" class="edge">
<title>divmod_&#45;&gt;var_2</title>
<path fill="none" stroke="#002b36" d="M274.09,-93.64C277.9,-88.02 281.96,-81.83 285.5,-76 291.53,-66.08 297.73,-54.91 302.98,-45.1"/>
<polygon fill="#002b36" stroke="#002b36" points="306.11,-46.68 307.7,-36.2 299.92,-43.4 306.11,-46.68"/>
<text text-anchor="middle" x="319" y="-68" font-family="Liberation Sans,Helvetica,Arial,sans-serif" font-size="10.00" fill="#002b36">output_1</text>
<text text-anchor="middle" x="319" y="-57" font-family="Liberation Sans,Helvetica,Arial,sans-serif" font-size="10.00" fill="#002b36">(5 values)</text>
</g>
<!-- inc&#45;&gt;y -->
<g id="edge8" class="edge">
<title>inc&#45;&gt;y</title>
<path fill="none" stroke="#002b36" d="M286.5,-477.98C286.5,-464.34 286.5,-445.75 286.5,-430.5"/>
<polygon fill="#002b36" stroke="#002b36" points="290,-430.1 286.5,-420.1 283,-430.1 290,-430.1"/>
<text text-anchor="middle" x="308" y="-452" font-family="Liberation Sans,Helvetica,Arial,sans-serif" font-size="10.00" fill="#002b36">output_0</text>
<text text-anchor="middle" x="308" y="-441" font-family="Liberation Sans,Helvetica,Arial,sans-serif" font-size="10.00" fill="#002b36">(5 values)</text>
</g>
<!-- add&#45;&gt;var_0 -->
<g id="edge6" class="edge">
<title>add&#45;&gt;var_0</title>
<path fill="none" stroke="#002b36" d="M198.5,-285.98C198.5,-272.34 198.5,-253.75 198.5,-238.5"/>
<polygon fill="#002b36" stroke="#002b36" points="202,-238.1 198.5,-228.1 195,-238.1 202,-238.1"/>
<text text-anchor="middle" x="220" y="-260" font-family="Liberation Sans,Helvetica,Arial,sans-serif" font-size="10.00" fill="#002b36">output_0</text>
<text text-anchor="middle" x="220" y="-249" font-family="Liberation Sans,Helvetica,Arial,sans-serif" font-size="10.00" fill="#002b36">(5 values)</text>
</g>
</g>
</svg>
