<?xml version="1.0" encoding="UTF-8" standalone="no"?>
<!DOCTYPE svg PUBLIC "-//W3C//DTD SVG 1.1//EN"
 "http://www.w3.org/Graphics/SVG/1.1/DTD/svg11.dtd">
<!-- Generated by graphviz version 2.50.0 (0)
 -->
<!-- Title: G Pages: 1 -->
<svg width="309pt" height="526pt"
 viewBox="0.00 0.00 308.86 526.00" xmlns="http://www.w3.org/2000/svg" xmlns:xlink="http://www.w3.org/1999/xlink">
<g id="graph0" class="graph" transform="scale(1 1) rotate(0) translate(4 522)">
<title>G</title>
<polygon fill="white" stroke="transparent" points="-4,4 -4,-522 304.86,-522 304.86,4 -4,4"/>
<!-- X -->
<g id="node1" class="node">
<title>X</title>
<path fill="none" stroke="#268bd2" d="M51.36,-420C51.36,-420 21.36,-420 21.36,-420 15.36,-420 9.36,-414 9.36,-408 9.36,-408 9.36,-396 9.36,-396 9.36,-390 15.36,-384 21.36,-384 21.36,-384 51.36,-384 51.36,-384 57.36,-384 63.36,-390 63.36,-396 63.36,-396 63.36,-408 63.36,-408 63.36,-414 57.36,-420 51.36,-420"/>
<text text-anchor="start" x="31.86" y="-404.4" font-family="Liberation Sans,Helvetica,Arial,sans-serif" font-weight="bold" font-size="12.00" fill="#002b36">X</text>
<text text-anchor="start" x="17.86" y="-394" font-family="Liberation Sans,Helvetica,Arial,sans-serif" font-size="10.00" fill="#268bd2">2 values</text>
</g>
<!-- train_model -->
<g id="node6" class="node">
<title>train_model</title>
<path fill="none" stroke="#dc322f" d="M145.86,-326C145.86,-326 24.86,-326 24.86,-326 18.86,-326 12.86,-320 12.86,-314 12.86,-314 12.86,-298 12.86,-298 12.86,-292 18.86,-286 24.86,-286 24.86,-286 145.86,-286 145.86,-286 151.86,-286 157.86,-292 157.86,-298 157.86,-298 157.86,-314 157.86,-314 157.86,-320 151.86,-326 145.86,-326"/>
<text text-anchor="start" x="51.36" y="-313.4" font-family="Liberation Sans,Helvetica,Arial,sans-serif" font-weight="bold" font-size="12.00" fill="#002b36">train_model</text>
<text text-anchor="start" x="20.86" y="-303" font-family="Liberation Sans,Helvetica,Arial,sans-serif" font-size="10.00" fill="#002b36">@op:train_model (3 versions)</text>
<text text-anchor="start" x="70.86" y="-293" font-family="Liberation Sans,Helvetica,Arial,sans-serif" font-size="10.00" fill="#dc322f">4 calls</text>
</g>
<!-- X&#45;&gt;train_model -->
<g id="edge2" class="edge">
<title>X&#45;&gt;train_model</title>
<path fill="none" stroke="#002b36" d="M37.39,-383.91C38.7,-372.1 41.66,-356.36 48.36,-344 50.25,-340.51 52.58,-337.12 55.14,-333.92"/>
<polygon fill="#002b36" stroke="#002b36" points="57.83,-336.16 61.85,-326.36 52.59,-331.51 57.83,-336.16"/>
<text text-anchor="middle" x="69.86" y="-358" font-family="Liberation Sans,Helvetica,Arial,sans-serif" font-size="10.00" fill="#002b36">X</text>
<text text-anchor="middle" x="69.86" y="-347" font-family="Liberation Sans,Helvetica,Arial,sans-serif" font-size="10.00" fill="#002b36">(2 values)</text>
</g>
<!-- eval_model -->
<g id="node8" class="node">
<title>eval_model</title>
<path fill="none" stroke="#dc322f" d="M232.36,-134C232.36,-134 112.36,-134 112.36,-134 106.36,-134 100.36,-128 100.36,-122 100.36,-122 100.36,-106 100.36,-106 100.36,-100 106.36,-94 112.36,-94 112.36,-94 232.36,-94 232.36,-94 238.36,-94 244.36,-100 244.36,-106 244.36,-106 244.36,-122 244.36,-122 244.36,-128 238.36,-134 232.36,-134"/>
<text text-anchor="start" x="139.36" y="-121.4" font-family="Liberation Sans,Helvetica,Arial,sans-serif" font-weight="bold" font-size="12.00" fill="#002b36">eval_model</text>
<text text-anchor="start" x="108.36" y="-111" font-family="Liberation Sans,Helvetica,Arial,sans-serif" font-size="10.00" fill="#002b36">@op:eval_model (3 versions)</text>
<text text-anchor="start" x="157.86" y="-101" font-family="Liberation Sans,Helvetica,Arial,sans-serif" font-size="10.00" fill="#dc322f">4 calls</text>
</g>
<!-- X&#45;&gt;eval_model -->
<g id="edge3" class="edge">
<title>X&#45;&gt;eval_model</title>
<path fill="none" stroke="#002b36" d="M25.17,-383.82C11.95,-361.3 -7.03,-320.62 3.36,-286 25.42,-212.47 50.27,-197.16 112.36,-152 118.21,-147.74 124.56,-143.48 130.86,-139.44"/>
<polygon fill="#002b36" stroke="#002b36" points="132.78,-142.37 139.38,-134.09 129.05,-136.44 132.78,-142.37"/>
<text text-anchor="middle" x="39.86" y="-260" font-family="Liberation Sans,Helvetica,Arial,sans-serif" font-size="10.00" fill="#002b36">X</text>
<text text-anchor="middle" x="39.86" y="-249" font-family="Liberation Sans,Helvetica,Arial,sans-serif" font-size="10.00" fill="#002b36">(2 values)</text>
</g>
<!-- scale -->
<g id="node2" class="node">
<title>scale</title>
<path fill="none" stroke="#268bd2" d="M288.86,-420C288.86,-420 207.86,-420 207.86,-420 201.86,-420 195.86,-414 195.86,-408 195.86,-408 195.86,-396 195.86,-396 195.86,-390 201.86,-384 207.86,-384 207.86,-384 288.86,-384 288.86,-384 294.86,-384 300.86,-390 300.86,-396 300.86,-396 300.86,-408 300.86,-408 300.86,-414 294.86,-420 288.86,-420"/>
<text text-anchor="start" x="232.86" y="-404.4" font-family="Liberation Sans,Helvetica,Arial,sans-serif" font-weight="bold" font-size="12.00" fill="#002b36">scale</text>
<text text-anchor="start" x="203.86" y="-394" font-family="Liberation Sans,Helvetica,Arial,sans-serif" font-size="10.00" fill="#268bd2">2 values (2 sources)</text>
</g>
<!-- scale&#45;&gt;train_model -->
<g id="edge5" class="edge">
<title>scale&#45;&gt;train_model</title>
<path fill="none" stroke="#002b36" d="M218.84,-383.98C193.34,-369.27 156.2,-347.85 127.56,-331.34"/>
<polygon fill="#002b36" stroke="#002b36" points="129,-328.13 118.59,-326.16 125.5,-334.19 129,-328.13"/>
<text text-anchor="middle" x="206.86" y="-358" font-family="Liberation Sans,Helvetica,Arial,sans-serif" font-size="10.00" fill="#002b36">scale</text>
<text text-anchor="middle" x="206.86" y="-347" font-family="Liberation Sans,Helvetica,Arial,sans-serif" font-size="10.00" fill="#002b36">(2 values)</text>
</g>
<!-- scale&#45;&gt;eval_model -->
<g id="edge6" class="edge">
<title>scale&#45;&gt;eval_model</title>
<path fill="none" stroke="#002b36" d="M246.77,-383.58C243.89,-354.66 236.91,-295.07 224.36,-246 213.35,-202.96 207.66,-192.92 190.36,-152 189.15,-149.13 187.82,-146.17 186.47,-143.22"/>
<polygon fill="#002b36" stroke="#002b36" points="189.55,-141.55 182.09,-134.03 183.23,-144.56 189.55,-141.55"/>
<text text-anchor="middle" x="249.86" y="-260" font-family="Liberation Sans,Helvetica,Arial,sans-serif" font-size="10.00" fill="#002b36">scale</text>
<text text-anchor="middle" x="249.86" y="-249" font-family="Liberation Sans,Helvetica,Arial,sans-serif" font-size="10.00" fill="#002b36">(2 values)</text>
</g>
<!-- var_0 -->
<g id="node3" class="node">
<title>var_0</title>
<path fill="none" stroke="#268bd2" d="M207.36,-36C207.36,-36 137.36,-36 137.36,-36 131.36,-36 125.36,-30 125.36,-24 125.36,-24 125.36,-12 125.36,-12 125.36,-6 131.36,0 137.36,0 137.36,0 207.36,0 207.36,0 213.36,0 219.36,-6 219.36,-12 219.36,-12 219.36,-24 219.36,-24 219.36,-30 213.36,-36 207.36,-36"/>
<text text-anchor="start" x="156.36" y="-20.4" font-family="Liberation Sans,Helvetica,Arial,sans-serif" font-weight="bold" font-size="12.00" fill="#002b36">var_0</text>
<text text-anchor="start" x="133.36" y="-10" font-family="Liberation Sans,Helvetica,Arial,sans-serif" font-size="10.00" fill="#268bd2">4 values (4 sinks)</text>
</g>
<!-- y -->
<g id="node4" class="node">
<title>y</title>
<path fill="none" stroke="#268bd2" d="M123.36,-420C123.36,-420 93.36,-420 93.36,-420 87.36,-420 81.36,-414 81.36,-408 81.36,-408 81.36,-396 81.36,-396 81.36,-390 87.36,-384 93.36,-384 93.36,-384 123.36,-384 123.36,-384 129.36,-384 135.36,-390 135.36,-396 135.36,-396 135.36,-408 135.36,-408 135.36,-414 129.36,-420 123.36,-420"/>
<text text-anchor="start" x="104.86" y="-404.4" font-family="Liberation Sans,Helvetica,Arial,sans-serif" font-weight="bold" font-size="12.00" fill="#002b36">y</text>
<text text-anchor="start" x="89.86" y="-394" font-family="Liberation Sans,Helvetica,Arial,sans-serif" font-size="10.00" fill="#268bd2">2 values</text>
</g>
<!-- y&#45;&gt;train_model -->
<g id="edge7" class="edge">
<title>y&#45;&gt;train_model</title>
<path fill="none" stroke="#002b36" d="M104.14,-383.76C100.86,-370.37 96.25,-351.5 92.41,-335.82"/>
<polygon fill="#002b36" stroke="#002b36" points="95.8,-334.95 90.03,-326.07 89,-336.62 95.8,-334.95"/>
<text text-anchor="middle" x="121.86" y="-358" font-family="Liberation Sans,Helvetica,Arial,sans-serif" font-size="10.00" fill="#002b36">y</text>
<text text-anchor="middle" x="121.86" y="-347" font-family="Liberation Sans,Helvetica,Arial,sans-serif" font-size="10.00" fill="#002b36">(2 values)</text>
</g>
<!-- y&#45;&gt;eval_model -->
<g id="edge8" class="edge">
<title>y&#45;&gt;eval_model</title>
<path fill="none" stroke="#002b36" d="M130.43,-383.79C136.38,-378.49 142.5,-372.37 147.36,-366 159.41,-350.2 162.47,-345.27 167.36,-326 183.39,-262.75 179.54,-185.39 175.71,-144.16"/>
<polygon fill="#002b36" stroke="#002b36" points="179.17,-143.61 174.69,-134.01 172.2,-144.31 179.17,-143.61"/>
<text text-anchor="middle" x="198.86" y="-260" font-family="Liberation Sans,Helvetica,Arial,sans-serif" font-size="10.00" fill="#002b36">y</text>
<text text-anchor="middle" x="198.86" y="-249" font-family="Liberation Sans,Helvetica,Arial,sans-serif" font-size="10.00" fill="#002b36">(2 values)</text>
</g>
<!-- model -->
<g id="node5" class="node">
<title>model</title>
<path fill="none" stroke="#268bd2" d="M116.36,-228C116.36,-228 86.36,-228 86.36,-228 80.36,-228 74.36,-222 74.36,-216 74.36,-216 74.36,-204 74.36,-204 74.36,-198 80.36,-192 86.36,-192 86.36,-192 116.36,-192 116.36,-192 122.36,-192 128.36,-198 128.36,-204 128.36,-204 128.36,-216 128.36,-216 128.36,-222 122.36,-228 116.36,-228"/>
<text text-anchor="start" x="83.36" y="-212.4" font-family="Liberation Sans,Helvetica,Arial,sans-serif" font-weight="bold" font-size="12.00" fill="#002b36">model</text>
<text text-anchor="start" x="82.86" y="-202" font-family="Liberation Sans,Helvetica,Arial,sans-serif" font-size="10.00" fill="#268bd2">4 values</text>
</g>
<!-- model&#45;&gt;eval_model -->
<g id="edge4" class="edge">
<title>model&#45;&gt;eval_model</title>
<path fill="none" stroke="#002b36" d="M107.68,-191.76C112.53,-179.88 119.98,-164.12 129.36,-152 132.29,-148.21 135.67,-144.52 139.21,-141.03"/>
<polygon fill="#002b36" stroke="#002b36" points="141.64,-143.55 146.62,-134.19 136.89,-138.4 141.64,-143.55"/>
<text text-anchor="middle" x="150.86" y="-166" font-family="Liberation Sans,Helvetica,Arial,sans-serif" font-size="10.00" fill="#002b36">model</text>
<text text-anchor="middle" x="150.86" y="-155" font-family="Liberation Sans,Helvetica,Arial,sans-serif" font-size="10.00" fill="#002b36">(4 values)</text>
</g>
<!-- train_model&#45;&gt;model -->
<g id="edge11" class="edge">
<title>train_model&#45;&gt;model</title>
<path fill="none" stroke="#002b36" d="M88.6,-285.98C90.94,-272.2 94.14,-253.39 96.75,-238.05"/>
<polygon fill="#002b36" stroke="#002b36" points="100.22,-238.54 98.45,-228.1 93.32,-237.37 100.22,-238.54"/>
<text text-anchor="middle" x="116.86" y="-260" font-family="Liberation Sans,Helvetica,Arial,sans-serif" font-size="10.00" fill="#002b36">output_0</text>
<text text-anchor="middle" x="116.86" y="-249" font-family="Liberation Sans,Helvetica,Arial,sans-serif" font-size="10.00" fill="#002b36">(4 values)</text>
</g>
<!-- load_data -->
<g id="node7" class="node">
<title>load_data</title>
<path fill="none" stroke="#dc322f" d="M128.86,-518C128.86,-518 15.86,-518 15.86,-518 9.86,-518 3.86,-512 3.86,-506 3.86,-506 3.86,-490 3.86,-490 3.86,-484 9.86,-478 15.86,-478 15.86,-478 128.86,-478 128.86,-478 134.86,-478 140.86,-484 140.86,-490 140.86,-490 140.86,-506 140.86,-506 140.86,-512 134.86,-518 128.86,-518"/>
<text text-anchor="start" x="43.86" y="-505.4" font-family="Liberation Sans,Helvetica,Arial,sans-serif" font-weight="bold" font-size="12.00" fill="#002b36">load_data</text>
<text text-anchor="start" x="11.86" y="-495" font-family="Liberation Sans,Helvetica,Arial,sans-serif" font-size="10.00" fill="#002b36">@op:load_data (2 versions)</text>
<text text-anchor="start" x="57.86" y="-485" font-family="Liberation Sans,Helvetica,Arial,sans-serif" font-size="10.00" fill="#dc322f">2 calls</text>
</g>
<!-- load_data&#45;&gt;X -->
<g id="edge9" class="edge">
<title>load_data&#45;&gt;X</title>
<path fill="none" stroke="#002b36" d="M52.51,-477.76C48.11,-472.43 43.99,-466.35 41.36,-460 37.55,-450.8 35.96,-440.06 35.43,-430.4"/>
<polygon fill="#002b36" stroke="#002b36" points="38.92,-430.02 35.22,-420.09 31.92,-430.16 38.92,-430.02"/>
<text text-anchor="middle" x="62.86" y="-452" font-family="Liberation Sans,Helvetica,Arial,sans-serif" font-size="10.00" fill="#002b36">output_0</text>
<text text-anchor="middle" x="62.86" y="-441" font-family="Liberation Sans,Helvetica,Arial,sans-serif" font-size="10.00" fill="#002b36">(2 values)</text>
</g>
<!-- load_data&#45;&gt;y -->
<g id="edge10" class="edge">
<title>load_data&#45;&gt;y</title>
<path fill="none" stroke="#002b36" d="M79.64,-477.98C84.97,-464.07 92.26,-445.03 98.17,-429.61"/>
<polygon fill="#002b36" stroke="#002b36" points="101.5,-430.69 101.81,-420.1 94.97,-428.18 101.5,-430.69"/>
<text text-anchor="middle" x="116.86" y="-452" font-family="Liberation Sans,Helvetica,Arial,sans-serif" font-size="10.00" fill="#002b36">output_1</text>
<text text-anchor="middle" x="116.86" y="-441" font-family="Liberation Sans,Helvetica,Arial,sans-serif" font-size="10.00" fill="#002b36">(2 values)</text>
</g>
<!-- eval_model&#45;&gt;var_0 -->
<g id="edge1" class="edge">
<title>eval_model&#45;&gt;var_0</title>
<path fill="none" stroke="#002b36" d="M172.36,-93.98C172.36,-80.34 172.36,-61.75 172.36,-46.5"/>
<polygon fill="#002b36" stroke="#002b36" points="175.86,-46.1 172.36,-36.1 168.86,-46.1 175.86,-46.1"/>
<text text-anchor="middle" x="193.86" y="-68" font-family="Liberation Sans,Helvetica,Arial,sans-serif" font-size="10.00" fill="#002b36">output_0</text>
<text text-anchor="middle" x="193.86" y="-57" font-family="Liberation Sans,Helvetica,Arial,sans-serif" font-size="10.00" fill="#002b36">(4 values)</text>
</g>
</g>
</svg>
