<?xml version="1.0" encoding="UTF-8" standalone="no"?>
<!DOCTYPE svg PUBLIC "-//W3C//DTD SVG 1.1//EN"
 "http://www.w3.org/Graphics/SVG/1.1/DTD/svg11.dtd">
<!-- Generated by graphviz version 2.50.0 (0)
 -->
<!-- Title: G Pages: 1 -->
<svg width="348pt" height="526pt"
 viewBox="0.00 0.00 347.50 526.00" xmlns="http://www.w3.org/2000/svg" xmlns:xlink="http://www.w3.org/1999/xlink">
<g id="graph0" class="graph" transform="scale(1 1) rotate(0) translate(4 522)">
<title>G</title>
<polygon fill="white" stroke="transparent" points="-4,4 -4,-522 343.5,-522 343.5,4 -4,4"/>
<!-- scale -->
<g id="node1" class="node">
<title>scale</title>
<path fill="none" stroke="#268bd2" d="M93,-420C93,-420 12,-420 12,-420 6,-420 0,-414 0,-408 0,-408 0,-396 0,-396 0,-390 6,-384 12,-384 12,-384 93,-384 93,-384 99,-384 105,-390 105,-396 105,-396 105,-408 105,-408 105,-414 99,-420 93,-420"/>
<text text-anchor="start" x="37" y="-404.4" font-family="Liberation Sans,Helvetica,Arial,sans-serif" font-weight="bold" font-size="12.00" fill="#002b36">scale</text>
<text text-anchor="start" x="8" y="-394" font-family="Liberation Sans,Helvetica,Arial,sans-serif" font-size="10.00" fill="#268bd2">2 values (2 sources)</text>
</g>
<!-- train_model -->
<g id="node6" class="node">
<title>train_model</title>
<path fill="none" stroke="#dc322f" d="M281,-326C281,-326 160,-326 160,-326 154,-326 148,-320 148,-314 148,-314 148,-298 148,-298 148,-292 154,-286 160,-286 160,-286 281,-286 281,-286 287,-286 293,-292 293,-298 293,-298 293,-314 293,-314 293,-320 287,-326 281,-326"/>
<text text-anchor="start" x="186.5" y="-313.4" font-family="Liberation Sans,Helvetica,Arial,sans-serif" font-weight="bold" font-size="12.00" fill="#002b36">train_model</text>
<text text-anchor="start" x="156" y="-303" font-family="Liberation Sans,Helvetica,Arial,sans-serif" font-size="10.00" fill="#002b36">@op:train_model (3 versions)</text>
<text text-anchor="start" x="206" y="-293" font-family="Liberation Sans,Helvetica,Arial,sans-serif" font-size="10.00" fill="#dc322f">4 calls</text>
</g>
<!-- scale&#45;&gt;train_model -->
<g id="edge5" class="edge">
<title>scale&#45;&gt;train_model</title>
<path fill="none" stroke="#002b36" d="M70.61,-383.8C84.31,-371.48 104.03,-355.16 123.5,-344 132.51,-338.84 142.37,-334.13 152.25,-329.92"/>
<polygon fill="#002b36" stroke="#002b36" points="153.77,-333.08 161.7,-326.05 151.12,-326.6 153.77,-333.08"/>
<text text-anchor="middle" x="145" y="-358" font-family="Liberation Sans,Helvetica,Arial,sans-serif" font-size="10.00" fill="#002b36">scale</text>
<text text-anchor="middle" x="145" y="-347" font-family="Liberation Sans,Helvetica,Arial,sans-serif" font-size="10.00" fill="#002b36">(2 values)</text>
</g>
<!-- eval_model -->
<g id="node7" class="node">
<title>eval_model</title>
<path fill="none" stroke="#dc322f" d="M205.5,-134C205.5,-134 85.5,-134 85.5,-134 79.5,-134 73.5,-128 73.5,-122 73.5,-122 73.5,-106 73.5,-106 73.5,-100 79.5,-94 85.5,-94 85.5,-94 205.5,-94 205.5,-94 211.5,-94 217.5,-100 217.5,-106 217.5,-106 217.5,-122 217.5,-122 217.5,-128 211.5,-134 205.5,-134"/>
<text text-anchor="start" x="112.5" y="-121.4" font-family="Liberation Sans,Helvetica,Arial,sans-serif" font-weight="bold" font-size="12.00" fill="#002b36">eval_model</text>
<text text-anchor="start" x="81.5" y="-111" font-family="Liberation Sans,Helvetica,Arial,sans-serif" font-size="10.00" fill="#002b36">@op:eval_model (3 versions)</text>
<text text-anchor="start" x="131" y="-101" font-family="Liberation Sans,Helvetica,Arial,sans-serif" font-size="10.00" fill="#dc322f">4 calls</text>
</g>
<!-- scale&#45;&gt;eval_model -->
<g id="edge6" class="edge">
<title>scale&#45;&gt;eval_model</title>
<path fill="none" stroke="#002b36" d="M55.23,-383.96C60.09,-355.11 71.3,-294.98 87.5,-246 99.55,-209.57 118.14,-169.46 131.02,-143.35"/>
<polygon fill="#002b36" stroke="#002b36" points="134.32,-144.58 135.64,-134.06 128.05,-141.45 134.32,-144.58"/>
<text text-anchor="middle" x="109" y="-260" font-family="Liberation Sans,Helvetica,Arial,sans-serif" font-size="10.00" fill="#002b36">scale</text>
<text text-anchor="middle" x="109" y="-249" font-family="Liberation Sans,Helvetica,Arial,sans-serif" font-size="10.00" fill="#002b36">(2 values)</text>
</g>
<!-- var_0 -->
<g id="node2" class="node">
<title>var_0</title>
<path fill="none" stroke="#268bd2" d="M180.5,-36C180.5,-36 110.5,-36 110.5,-36 104.5,-36 98.5,-30 98.5,-24 98.5,-24 98.5,-12 98.5,-12 98.5,-6 104.5,0 110.5,0 110.5,0 180.5,0 180.5,0 186.5,0 192.5,-6 192.5,-12 192.5,-12 192.5,-24 192.5,-24 192.5,-30 186.5,-36 180.5,-36"/>
<text text-anchor="start" x="129.5" y="-20.4" font-family="Liberation Sans,Helvetica,Arial,sans-serif" font-weight="bold" font-size="12.00" fill="#002b36">var_0</text>
<text text-anchor="start" x="106.5" y="-10" font-family="Liberation Sans,Helvetica,Arial,sans-serif" font-size="10.00" fill="#268bd2">4 values (4 sinks)</text>
</g>
<!-- y -->
<g id="node3" class="node">
<title>y</title>
<path fill="none" stroke="#268bd2" d="M176.5,-420C176.5,-420 146.5,-420 146.5,-420 140.5,-420 134.5,-414 134.5,-408 134.5,-408 134.5,-396 134.5,-396 134.5,-390 140.5,-384 146.5,-384 146.5,-384 176.5,-384 176.5,-384 182.5,-384 188.5,-390 188.5,-396 188.5,-396 188.5,-408 188.5,-408 188.5,-414 182.5,-420 176.5,-420"/>
<text text-anchor="start" x="158" y="-404.4" font-family="Liberation Sans,Helvetica,Arial,sans-serif" font-weight="bold" font-size="12.00" fill="#002b36">y</text>
<text text-anchor="start" x="143" y="-394" font-family="Liberation Sans,Helvetica,Arial,sans-serif" font-size="10.00" fill="#268bd2">2 values</text>
</g>
<!-- y&#45;&gt;train_model -->
<g id="edge7" class="edge">
<title>y&#45;&gt;train_model</title>
<path fill="none" stroke="#002b36" d="M164.46,-383.77C167.06,-371.9 171.7,-356.13 179.5,-344 181.83,-340.37 184.61,-336.87 187.61,-333.58"/>
<polygon fill="#002b36" stroke="#002b36" points="190.31,-335.82 194.89,-326.27 185.35,-330.88 190.31,-335.82"/>
<text text-anchor="middle" x="201" y="-358" font-family="Liberation Sans,Helvetica,Arial,sans-serif" font-size="10.00" fill="#002b36">y</text>
<text text-anchor="middle" x="201" y="-347" font-family="Liberation Sans,Helvetica,Arial,sans-serif" font-size="10.00" fill="#002b36">(2 values)</text>
</g>
<!-- y&#45;&gt;eval_model -->
<g id="edge8" class="edge">
<title>y&#45;&gt;eval_model</title>
<path fill="none" stroke="#002b36" d="M154.6,-383.76C149,-368.78 141.55,-346.34 138.5,-326 128.85,-261.62 135.96,-185 141.22,-144.12"/>
<polygon fill="#002b36" stroke="#002b36" points="144.71,-144.42 142.57,-134.05 137.77,-143.49 144.71,-144.42"/>
<text text-anchor="middle" x="156" y="-260" font-family="Liberation Sans,Helvetica,Arial,sans-serif" font-size="10.00" fill="#002b36">y</text>
<text text-anchor="middle" x="156" y="-249" font-family="Liberation Sans,Helvetica,Arial,sans-serif" font-size="10.00" fill="#002b36">(2 values)</text>
</g>
<!-- model -->
<g id="node4" class="node">
<title>model</title>
<path fill="none" stroke="#268bd2" d="M204.5,-228C204.5,-228 174.5,-228 174.5,-228 168.5,-228 162.5,-222 162.5,-216 162.5,-216 162.5,-204 162.5,-204 162.5,-198 168.5,-192 174.5,-192 174.5,-192 204.5,-192 204.5,-192 210.5,-192 216.5,-198 216.5,-204 216.5,-204 216.5,-216 216.5,-216 216.5,-222 210.5,-228 204.5,-228"/>
<text text-anchor="start" x="171.5" y="-212.4" font-family="Liberation Sans,Helvetica,Arial,sans-serif" font-weight="bold" font-size="12.00" fill="#002b36">model</text>
<text text-anchor="start" x="171" y="-202" font-family="Liberation Sans,Helvetica,Arial,sans-serif" font-size="10.00" fill="#268bd2">4 values</text>
</g>
<!-- model&#45;&gt;eval_model -->
<g id="edge4" class="edge">
<title>model&#45;&gt;eval_model</title>
<path fill="none" stroke="#002b36" d="M181.43,-191.76C175.1,-178.24 166.16,-159.14 158.78,-143.38"/>
<polygon fill="#002b36" stroke="#002b36" points="161.84,-141.64 154.43,-134.07 155.5,-144.61 161.84,-141.64"/>
<text text-anchor="middle" x="195" y="-166" font-family="Liberation Sans,Helvetica,Arial,sans-serif" font-size="10.00" fill="#002b36">model</text>
<text text-anchor="middle" x="195" y="-155" font-family="Liberation Sans,Helvetica,Arial,sans-serif" font-size="10.00" fill="#002b36">(4 values)</text>
</g>
<!-- X -->
<g id="node5" class="node">
<title>X</title>
<path fill="none" stroke="#268bd2" d="M248.5,-420C248.5,-420 218.5,-420 218.5,-420 212.5,-420 206.5,-414 206.5,-408 206.5,-408 206.5,-396 206.5,-396 206.5,-390 212.5,-384 218.5,-384 218.5,-384 248.5,-384 248.5,-384 254.5,-384 260.5,-390 260.5,-396 260.5,-396 260.5,-408 260.5,-408 260.5,-414 254.5,-420 248.5,-420"/>
<text text-anchor="start" x="229" y="-404.4" font-family="Liberation Sans,Helvetica,Arial,sans-serif" font-weight="bold" font-size="12.00" fill="#002b36">X</text>
<text text-anchor="start" x="215" y="-394" font-family="Liberation Sans,Helvetica,Arial,sans-serif" font-size="10.00" fill="#268bd2">2 values</text>
</g>
<!-- X&#45;&gt;train_model -->
<g id="edge2" class="edge">
<title>X&#45;&gt;train_model</title>
<path fill="none" stroke="#002b36" d="M231.12,-383.76C229.28,-370.5 226.7,-351.86 224.55,-336.27"/>
<polygon fill="#002b36" stroke="#002b36" points="227.97,-335.5 223.14,-326.07 221.04,-336.46 227.97,-335.5"/>
<text text-anchor="middle" x="251" y="-358" font-family="Liberation Sans,Helvetica,Arial,sans-serif" font-size="10.00" fill="#002b36">X</text>
<text text-anchor="middle" x="251" y="-347" font-family="Liberation Sans,Helvetica,Arial,sans-serif" font-size="10.00" fill="#002b36">(2 values)</text>
</g>
<!-- X&#45;&gt;eval_model -->
<g id="edge3" class="edge">
<title>X&#45;&gt;eval_model</title>
<path fill="none" stroke="#002b36" d="M257.44,-383.7C263.99,-378.41 270.84,-372.3 276.5,-366 301.49,-338.19 312.64,-321.99 302.5,-286 283.57,-218.79 272.06,-199.08 220.5,-152 215.39,-147.33 209.57,-143.12 203.5,-139.35"/>
<polygon fill="#002b36" stroke="#002b36" points="204.88,-136.11 194.47,-134.15 201.39,-142.17 204.88,-136.11"/>
<text text-anchor="middle" x="318" y="-260" font-family="Liberation Sans,Helvetica,Arial,sans-serif" font-size="10.00" fill="#002b36">X</text>
<text text-anchor="middle" x="318" y="-249" font-family="Liberation Sans,Helvetica,Arial,sans-serif" font-size="10.00" fill="#002b36">(2 values)</text>
</g>
<!-- train_model&#45;&gt;model -->
<g id="edge11" class="edge">
<title>train_model&#45;&gt;model</title>
<path fill="none" stroke="#002b36" d="M214.23,-285.98C209.64,-272.07 203.36,-253.03 198.28,-237.61"/>
<polygon fill="#002b36" stroke="#002b36" points="201.59,-236.5 195.14,-228.1 194.95,-238.69 201.59,-236.5"/>
<text text-anchor="middle" x="230" y="-260" font-family="Liberation Sans,Helvetica,Arial,sans-serif" font-size="10.00" fill="#002b36">output_0</text>
<text text-anchor="middle" x="230" y="-249" font-family="Liberation Sans,Helvetica,Arial,sans-serif" font-size="10.00" fill="#002b36">(4 values)</text>
</g>
<!-- eval_model&#45;&gt;var_0 -->
<g id="edge1" class="edge">
<title>eval_model&#45;&gt;var_0</title>
<path fill="none" stroke="#002b36" d="M145.5,-93.98C145.5,-80.34 145.5,-61.75 145.5,-46.5"/>
<polygon fill="#002b36" stroke="#002b36" points="149,-46.1 145.5,-36.1 142,-46.1 149,-46.1"/>
<text text-anchor="middle" x="167" y="-68" font-family="Liberation Sans,Helvetica,Arial,sans-serif" font-size="10.00" fill="#002b36">output_0</text>
<text text-anchor="middle" x="167" y="-57" font-family="Liberation Sans,Helvetica,Arial,sans-serif" font-size="10.00" fill="#002b36">(4 values)</text>
</g>
<!-- load_data -->
<g id="node8" class="node">
<title>load_data</title>
<path fill="none" stroke="#dc322f" d="M254,-518C254,-518 141,-518 141,-518 135,-518 129,-512 129,-506 129,-506 129,-490 129,-490 129,-484 135,-478 141,-478 141,-478 254,-478 254,-478 260,-478 266,-484 266,-490 266,-490 266,-506 266,-506 266,-512 260,-518 254,-518"/>
<text text-anchor="start" x="169" y="-505.4" font-family="Liberation Sans,Helvetica,Arial,sans-serif" font-weight="bold" font-size="12.00" fill="#002b36">load_data</text>
<text text-anchor="start" x="137" y="-495" font-family="Liberation Sans,Helvetica,Arial,sans-serif" font-size="10.00" fill="#002b36">@op:load_data (2 versions)</text>
<text text-anchor="start" x="183" y="-485" font-family="Liberation Sans,Helvetica,Arial,sans-serif" font-size="10.00" fill="#dc322f">2 calls</text>
</g>
<!-- load_data&#45;&gt;y -->
<g id="edge10" class="edge">
<title>load_data&#45;&gt;y</title>
<path fill="none" stroke="#002b36" d="M176.93,-477.88C172.4,-472.55 168.16,-466.44 165.5,-460 161.7,-450.81 160.27,-440.07 159.93,-430.41"/>
<polygon fill="#002b36" stroke="#002b36" points="163.43,-430.11 159.94,-420.1 156.43,-430.1 163.43,-430.11"/>
<text text-anchor="middle" x="187" y="-452" font-family="Liberation Sans,Helvetica,Arial,sans-serif" font-size="10.00" fill="#002b36">output_1</text>
<text text-anchor="middle" x="187" y="-441" font-family="Liberation Sans,Helvetica,Arial,sans-serif" font-size="10.00" fill="#002b36">(2 values)</text>
</g>
<!-- load_data&#45;&gt;X -->
<g id="edge9" class="edge">
<title>load_data&#45;&gt;X</title>
<path fill="none" stroke="#002b36" d="M204.79,-477.98C210.11,-464.07 217.4,-445.03 223.31,-429.61"/>
<polygon fill="#002b36" stroke="#002b36" points="226.64,-430.69 226.95,-420.1 220.11,-428.18 226.64,-430.69"/>
<text text-anchor="middle" x="242" y="-452" font-family="Liberation Sans,Helvetica,Arial,sans-serif" font-size="10.00" fill="#002b36">output_0</text>
<text text-anchor="middle" x="242" y="-441" font-family="Liberation Sans,Helvetica,Arial,sans-serif" font-size="10.00" fill="#002b36">(2 values)</text>
</g>
</g>
</svg>
