<?xml version="1.0" encoding="UTF-8" standalone="no"?>
<!DOCTYPE svg PUBLIC "-//W3C//DTD SVG 1.1//EN"
 "http://www.w3.org/Graphics/SVG/1.1/DTD/svg11.dtd">
<!-- Generated by graphviz version 2.50.0 (0)
 -->
<!-- Title: G Pages: 1 -->
<svg width="530pt" height="432pt"
 viewBox="0.00 0.00 529.50 432.00" xmlns="http://www.w3.org/2000/svg" xmlns:xlink="http://www.w3.org/1999/xlink">
<g id="graph0" class="graph" transform="scale(1 1) rotate(0) translate(4 428)">
<title>G</title>
<polygon fill="white" stroke="transparent" points="-4,4 -4,-428 525.5,-428 525.5,4 -4,4"/>
<!-- param_1 -->
<g id="node1" class="node">
<title>param_1</title>
<path fill="none" stroke="#268bd2" stroke-width="1.5" d="M93,-326C93,-326 12,-326 12,-326 6,-326 0,-320 0,-314 0,-314 0,-302 0,-302 0,-296 6,-290 12,-290 12,-290 93,-290 93,-290 99,-290 105,-296 105,-302 105,-302 105,-314 105,-314 105,-320 99,-326 93,-326"/>
<text text-anchor="start" x="27.5" y="-310.4" font-family="Liberation Sans,Helvetica,Arial,sans-serif" font-weight="bold" font-size="12.00" fill="#002b36">param_1</text>
<text text-anchor="start" x="8" y="-300" font-family="Liberation Sans,Helvetica,Arial,sans-serif" font-size="10.00" fill="#268bd2">1 values (1 sources)</text>
</g>
<!-- train_model_1 -->
<g id="node6" class="node">
<title>train_model_1</title>
<path fill="none" stroke="#dc322f" stroke-width="1.5" d="M206,-232C206,-232 129,-232 129,-232 123,-232 117,-226 117,-220 117,-220 117,-204 117,-204 117,-198 123,-192 129,-192 129,-192 206,-192 206,-192 212,-192 218,-198 218,-204 218,-204 218,-220 218,-220 218,-226 212,-232 206,-232"/>
<text text-anchor="start" x="126.5" y="-219.4" font-family="Liberation Sans,Helvetica,Arial,sans-serif" font-weight="bold" font-size="12.00" fill="#002b36">train_model_1</text>
<text text-anchor="start" x="125" y="-209" font-family="Liberation Sans,Helvetica,Arial,sans-serif" font-size="10.00" fill="#002b36">@op:train_model_1</text>
<text text-anchor="start" x="153" y="-199" font-family="Liberation Sans,Helvetica,Arial,sans-serif" font-size="10.00" fill="#dc322f">2 calls</text>
</g>
<!-- param_1&#45;&gt;train_model_1 -->
<g id="edge9" class="edge">
<title>param_1&#45;&gt;train_model_1</title>
<path fill="none" stroke="#002b36" d="M73.33,-289.98C90.85,-275.66 116.17,-254.96 136.14,-238.63"/>
<polygon fill="#002b36" stroke="#002b36" points="138.53,-241.2 144.06,-232.16 134.1,-235.78 138.53,-241.2"/>
<text text-anchor="middle" x="142" y="-264" font-family="Liberation Sans,Helvetica,Arial,sans-serif" font-size="10.00" fill="#002b36">param_1</text>
<text text-anchor="middle" x="142" y="-253" font-family="Liberation Sans,Helvetica,Arial,sans-serif" font-size="10.00" fill="#002b36">(1 values)</text>
</g>
<!-- data -->
<g id="node2" class="node">
<title>data</title>
<path fill="none" stroke="#268bd2" stroke-width="1.5" d="M380.5,-326C380.5,-326 350.5,-326 350.5,-326 344.5,-326 338.5,-320 338.5,-314 338.5,-314 338.5,-302 338.5,-302 338.5,-296 344.5,-290 350.5,-290 350.5,-290 380.5,-290 380.5,-290 386.5,-290 392.5,-296 392.5,-302 392.5,-302 392.5,-314 392.5,-314 392.5,-320 386.5,-326 380.5,-326"/>
<text text-anchor="start" x="353" y="-310.4" font-family="Liberation Sans,Helvetica,Arial,sans-serif" font-weight="bold" font-size="12.00" fill="#002b36">data</text>
<text text-anchor="start" x="347" y="-300" font-family="Liberation Sans,Helvetica,Arial,sans-serif" font-size="10.00" fill="#268bd2">2 values</text>
</g>
<!-- eval_model -->
<g id="node5" class="node">
<title>eval_model</title>
<path fill="none" stroke="#dc322f" stroke-width="1.5" d="M359.5,-40C359.5,-40 293.5,-40 293.5,-40 287.5,-40 281.5,-34 281.5,-28 281.5,-28 281.5,-12 281.5,-12 281.5,-6 287.5,0 293.5,0 293.5,0 359.5,0 359.5,0 365.5,0 371.5,-6 371.5,-12 371.5,-12 371.5,-28 371.5,-28 371.5,-34 365.5,-40 359.5,-40"/>
<text text-anchor="start" x="293.5" y="-27.4" font-family="Liberation Sans,Helvetica,Arial,sans-serif" font-weight="bold" font-size="12.00" fill="#002b36">eval_model</text>
<text text-anchor="start" x="289.5" y="-17" font-family="Liberation Sans,Helvetica,Arial,sans-serif" font-size="10.00" fill="#002b36">@op:eval_model</text>
<text text-anchor="start" x="312" y="-7" font-family="Liberation Sans,Helvetica,Arial,sans-serif" font-size="10.00" fill="#dc322f">4 calls</text>
</g>
<!-- data&#45;&gt;eval_model -->
<g id="edge2" class="edge">
<title>data&#45;&gt;eval_model</title>
<path fill="none" stroke="#002b36" d="M367.59,-289.81C371.97,-248.53 379.51,-141.08 351.5,-58 350.49,-55.01 349.17,-52.04 347.67,-49.15"/>
<polygon fill="#002b36" stroke="#002b36" points="350.51,-47.09 342.37,-40.31 344.51,-50.68 350.51,-47.09"/>
<text text-anchor="middle" x="392" y="-166" font-family="Liberation Sans,Helvetica,Arial,sans-serif" font-size="10.00" fill="#002b36">data</text>
<text text-anchor="middle" x="392" y="-155" font-family="Liberation Sans,Helvetica,Arial,sans-serif" font-size="10.00" fill="#002b36">(2 values)</text>
</g>
<!-- data&#45;&gt;train_model_1 -->
<g id="edge4" class="edge">
<title>data&#45;&gt;train_model_1</title>
<path fill="none" stroke="#002b36" d="M338.26,-301.54C314.11,-296.07 278.3,-286.37 249.5,-272 234.71,-264.62 232.9,-259.68 219.5,-250 214.2,-246.17 208.57,-242.13 203.06,-238.2"/>
<polygon fill="#002b36" stroke="#002b36" points="204.72,-235.08 194.54,-232.13 200.65,-240.78 204.72,-235.08"/>
<text text-anchor="middle" x="271" y="-264" font-family="Liberation Sans,Helvetica,Arial,sans-serif" font-size="10.00" fill="#002b36">data</text>
<text text-anchor="middle" x="271" y="-253" font-family="Liberation Sans,Helvetica,Arial,sans-serif" font-size="10.00" fill="#002b36">(2 values)</text>
</g>
<!-- preprocess -->
<g id="node7" class="node">
<title>preprocess</title>
<path fill="none" stroke="#dc322f" stroke-width="1.5" d="M484,-232C484,-232 419,-232 419,-232 413,-232 407,-226 407,-220 407,-220 407,-204 407,-204 407,-198 413,-192 419,-192 419,-192 484,-192 484,-192 490,-192 496,-198 496,-204 496,-204 496,-220 496,-220 496,-226 490,-232 484,-232"/>
<text text-anchor="start" x="418.5" y="-219.4" font-family="Liberation Sans,Helvetica,Arial,sans-serif" font-weight="bold" font-size="12.00" fill="#002b36">preprocess</text>
<text text-anchor="start" x="415" y="-209" font-family="Liberation Sans,Helvetica,Arial,sans-serif" font-size="10.00" fill="#002b36">@op:preprocess</text>
<text text-anchor="start" x="437" y="-199" font-family="Liberation Sans,Helvetica,Arial,sans-serif" font-size="10.00" fill="#dc322f">1 calls</text>
</g>
<!-- data&#45;&gt;preprocess -->
<g id="edge1" class="edge">
<title>data&#45;&gt;preprocess</title>
<path fill="none" stroke="#002b36" d="M373.38,-289.8C379.42,-277.79 388.56,-261.86 399.5,-250 403.26,-245.93 407.53,-242.04 411.97,-238.41"/>
<polygon fill="#002b36" stroke="#002b36" points="414.28,-241.05 420.08,-232.18 410.02,-235.49 414.28,-241.05"/>
<text text-anchor="middle" x="421" y="-264" font-family="Liberation Sans,Helvetica,Arial,sans-serif" font-size="10.00" fill="#002b36">data</text>
<text text-anchor="middle" x="421" y="-253" font-family="Liberation Sans,Helvetica,Arial,sans-serif" font-size="10.00" fill="#002b36">(1 values)</text>
</g>
<!-- train_model_2 -->
<g id="node8" class="node">
<title>train_model_2</title>
<path fill="none" stroke="#dc322f" stroke-width="1.5" d="M325,-232C325,-232 248,-232 248,-232 242,-232 236,-226 236,-220 236,-220 236,-204 236,-204 236,-198 242,-192 248,-192 248,-192 325,-192 325,-192 331,-192 337,-198 337,-204 337,-204 337,-220 337,-220 337,-226 331,-232 325,-232"/>
<text text-anchor="start" x="245.5" y="-219.4" font-family="Liberation Sans,Helvetica,Arial,sans-serif" font-weight="bold" font-size="12.00" fill="#002b36">train_model_2</text>
<text text-anchor="start" x="244" y="-209" font-family="Liberation Sans,Helvetica,Arial,sans-serif" font-size="10.00" fill="#002b36">@op:train_model_2</text>
<text text-anchor="start" x="272" y="-199" font-family="Liberation Sans,Helvetica,Arial,sans-serif" font-size="10.00" fill="#dc322f">2 calls</text>
</g>
<!-- data&#45;&gt;train_model_2 -->
<g id="edge3" class="edge">
<title>data&#45;&gt;train_model_2</title>
<path fill="none" stroke="#002b36" d="M338.36,-295.14C327.86,-289.43 316.47,-281.68 308.5,-272 301.41,-263.39 296.48,-252.27 293.11,-242.02"/>
<polygon fill="#002b36" stroke="#002b36" points="296.4,-240.79 290.24,-232.17 289.68,-242.75 296.4,-240.79"/>
<text text-anchor="middle" x="330" y="-264" font-family="Liberation Sans,Helvetica,Arial,sans-serif" font-size="10.00" fill="#002b36">data</text>
<text text-anchor="middle" x="330" y="-253" font-family="Liberation Sans,Helvetica,Arial,sans-serif" font-size="10.00" fill="#002b36">(2 values)</text>
</g>
<!-- model -->
<g id="node3" class="node">
<title>model</title>
<path fill="none" stroke="#268bd2" stroke-width="1.5" d="M301.5,-134C301.5,-134 271.5,-134 271.5,-134 265.5,-134 259.5,-128 259.5,-122 259.5,-122 259.5,-110 259.5,-110 259.5,-104 265.5,-98 271.5,-98 271.5,-98 301.5,-98 301.5,-98 307.5,-98 313.5,-104 313.5,-110 313.5,-110 313.5,-122 313.5,-122 313.5,-128 307.5,-134 301.5,-134"/>
<text text-anchor="start" x="268.5" y="-118.4" font-family="Liberation Sans,Helvetica,Arial,sans-serif" font-weight="bold" font-size="12.00" fill="#002b36">model</text>
<text text-anchor="start" x="268" y="-108" font-family="Liberation Sans,Helvetica,Arial,sans-serif" font-size="10.00" fill="#268bd2">4 values</text>
</g>
<!-- model&#45;&gt;eval_model -->
<g id="edge5" class="edge">
<title>model&#45;&gt;eval_model</title>
<path fill="none" stroke="#002b36" d="M292.67,-97.89C296.89,-86.49 302.74,-71.23 308.5,-58 309.74,-55.14 311.08,-52.19 312.46,-49.25"/>
<polygon fill="#002b36" stroke="#002b36" points="315.69,-50.59 316.85,-40.06 309.38,-47.57 315.69,-50.59"/>
<text text-anchor="middle" x="330" y="-72" font-family="Liberation Sans,Helvetica,Arial,sans-serif" font-size="10.00" fill="#002b36">model</text>
<text text-anchor="middle" x="330" y="-61" font-family="Liberation Sans,Helvetica,Arial,sans-serif" font-size="10.00" fill="#002b36">(4 values)</text>
</g>
<!-- param_2 -->
<g id="node4" class="node">
<title>param_2</title>
<path fill="none" stroke="#268bd2" stroke-width="1.5" d="M216,-326C216,-326 135,-326 135,-326 129,-326 123,-320 123,-314 123,-314 123,-302 123,-302 123,-296 129,-290 135,-290 135,-290 216,-290 216,-290 222,-290 228,-296 228,-302 228,-302 228,-314 228,-314 228,-320 222,-326 216,-326"/>
<text text-anchor="start" x="150.5" y="-310.4" font-family="Liberation Sans,Helvetica,Arial,sans-serif" font-weight="bold" font-size="12.00" fill="#002b36">param_2</text>
<text text-anchor="start" x="131" y="-300" font-family="Liberation Sans,Helvetica,Arial,sans-serif" font-size="10.00" fill="#268bd2">1 values (1 sources)</text>
</g>
<!-- param_2&#45;&gt;train_model_2 -->
<g id="edge11" class="edge">
<title>param_2&#45;&gt;train_model_2</title>
<path fill="none" stroke="#002b36" d="M170.98,-289.9C168.8,-277.64 168.2,-261.34 176.5,-250 177.38,-248.8 200.97,-240.8 226.07,-232.54"/>
<polygon fill="#002b36" stroke="#002b36" points="227.31,-235.82 235.72,-229.38 225.13,-229.16 227.31,-235.82"/>
<text text-anchor="middle" x="198" y="-264" font-family="Liberation Sans,Helvetica,Arial,sans-serif" font-size="10.00" fill="#002b36">param_2</text>
<text text-anchor="middle" x="198" y="-253" font-family="Liberation Sans,Helvetica,Arial,sans-serif" font-size="10.00" fill="#002b36">(1 values)</text>
</g>
<!-- train_model_1&#45;&gt;model -->
<g id="edge8" class="edge">
<title>train_model_1&#45;&gt;model</title>
<path fill="none" stroke="#002b36" d="M190.3,-191.86C204.36,-180.18 222.82,-165.03 239.5,-152 244.33,-148.23 249.48,-144.29 254.55,-140.48"/>
<polygon fill="#002b36" stroke="#002b36" points="256.99,-143.02 262.91,-134.23 252.8,-137.42 256.99,-143.02"/>
<text text-anchor="middle" x="261" y="-166" font-family="Liberation Sans,Helvetica,Arial,sans-serif" font-size="10.00" fill="#002b36">model_1</text>
<text text-anchor="middle" x="261" y="-155" font-family="Liberation Sans,Helvetica,Arial,sans-serif" font-size="10.00" fill="#002b36">(2 values)</text>
</g>
<!-- preprocess&#45;&gt;data -->
<g id="edge7" class="edge">
<title>preprocess&#45;&gt;data</title>
<path fill="none" stroke="#002b36" d="M453.03,-232.06C453.04,-244.58 451.07,-260.68 442.5,-272 432.78,-284.84 417.25,-293.11 402.68,-298.36"/>
<polygon fill="#002b36" stroke="#002b36" points="401.27,-295.13 392.83,-301.53 403.42,-301.8 401.27,-295.13"/>
<text text-anchor="middle" x="486" y="-264" font-family="Liberation Sans,Helvetica,Arial,sans-serif" font-size="10.00" fill="#002b36">X_preprocessed</text>
<text text-anchor="middle" x="486" y="-253" font-family="Liberation Sans,Helvetica,Arial,sans-serif" font-size="10.00" fill="#002b36">(1 values)</text>
</g>
<!-- train_model_2&#45;&gt;model -->
<g id="edge10" class="edge">
<title>train_model_2&#45;&gt;model</title>
<path fill="none" stroke="#002b36" d="M286.5,-191.98C286.5,-178.34 286.5,-159.75 286.5,-144.5"/>
<polygon fill="#002b36" stroke="#002b36" points="290,-144.1 286.5,-134.1 283,-144.1 290,-144.1"/>
<text text-anchor="middle" x="308" y="-166" font-family="Liberation Sans,Helvetica,Arial,sans-serif" font-size="10.00" fill="#002b36">model_2</text>
<text text-anchor="middle" x="308" y="-155" font-family="Liberation Sans,Helvetica,Arial,sans-serif" font-size="10.00" fill="#002b36">(2 values)</text>
</g>
<!-- load_data -->
<g id="node9" class="node">
<title>load_data</title>
<path fill="none" stroke="#dc322f" stroke-width="1.5" d="M395,-424C395,-424 336,-424 336,-424 330,-424 324,-418 324,-412 324,-412 324,-396 324,-396 324,-390 330,-384 336,-384 336,-384 395,-384 395,-384 401,-384 407,-390 407,-396 407,-396 407,-412 407,-412 407,-418 401,-424 395,-424"/>
<text text-anchor="start" x="337" y="-411.4" font-family="Liberation Sans,Helvetica,Arial,sans-serif" font-weight="bold" font-size="12.00" fill="#002b36">load_data</text>
<text text-anchor="start" x="332" y="-401" font-family="Liberation Sans,Helvetica,Arial,sans-serif" font-size="10.00" fill="#002b36">@op:load_data</text>
<text text-anchor="start" x="351" y="-391" font-family="Liberation Sans,Helvetica,Arial,sans-serif" font-size="10.00" fill="#dc322f">1 calls</text>
</g>
<!-- load_data&#45;&gt;data -->
<g id="edge6" class="edge">
<title>load_data&#45;&gt;data</title>
<path fill="none" stroke="#002b36" d="M365.5,-383.98C365.5,-370.34 365.5,-351.75 365.5,-336.5"/>
<polygon fill="#002b36" stroke="#002b36" points="369,-336.1 365.5,-326.1 362,-336.1 369,-336.1"/>
<text text-anchor="middle" x="387" y="-358" font-family="Liberation Sans,Helvetica,Arial,sans-serif" font-size="10.00" fill="#002b36">X</text>
<text text-anchor="middle" x="387" y="-347" font-family="Liberation Sans,Helvetica,Arial,sans-serif" font-size="10.00" fill="#002b36">(1 values)</text>
</g>
</g>
</svg>
