<?xml version="1.0" encoding="UTF-8" standalone="no"?>
<!DOCTYPE svg PUBLIC "-//W3C//DTD SVG 1.1//EN"
 "http://www.w3.org/Graphics/SVG/1.1/DTD/svg11.dtd">
<!-- Generated by graphviz version 2.50.0 (0)
 -->
<!-- Title: G Pages: 1 -->
<svg width="371pt" height="634pt"
 viewBox="0.00 0.00 370.50 634.00" xmlns="http://www.w3.org/2000/svg" xmlns:xlink="http://www.w3.org/1999/xlink">
<g id="graph0" class="graph" transform="scale(1 1) rotate(0) translate(4 630)">
<title>G</title>
<polygon fill="white" stroke="transparent" points="-4,4 -4,-630 366.5,-630 366.5,4 -4,4"/>
<!-- v -->
<g id="node1" class="node">
<title>v</title>
<path fill="none" stroke="#268bd2" stroke-width="1.5" d="M266.5,-36C266.5,-36 196.5,-36 196.5,-36 190.5,-36 184.5,-30 184.5,-24 184.5,-24 184.5,-12 184.5,-12 184.5,-6 190.5,0 196.5,0 196.5,0 266.5,0 266.5,0 272.5,0 278.5,-6 278.5,-12 278.5,-12 278.5,-24 278.5,-24 278.5,-30 272.5,-36 266.5,-36"/>
<text text-anchor="start" x="228" y="-20.4" font-family="Liberation Sans,Helvetica,Arial,sans-serif" font-weight="bold" font-size="12.00" fill="#002b36">v</text>
<text text-anchor="start" x="192.5" y="-10" font-family="Liberation Sans,Helvetica,Arial,sans-serif" font-size="10.00" fill="#268bd2">1 values (1 sinks)</text>
</g>
<!-- y_test -->
<g id="node2" class="node">
<title>y_test</title>
<path fill="none" stroke="#268bd2" stroke-width="1.5" d="M174,-228C174,-228 93,-228 93,-228 87,-228 81,-222 81,-216 81,-216 81,-204 81,-204 81,-198 87,-192 93,-192 93,-192 174,-192 174,-192 180,-192 186,-198 186,-204 186,-204 186,-216 186,-216 186,-222 180,-228 174,-228"/>
<text text-anchor="start" x="116" y="-212.4" font-family="Liberation Sans,Helvetica,Arial,sans-serif" font-weight="bold" font-size="12.00" fill="#002b36">y_test</text>
<text text-anchor="start" x="89" y="-202" font-family="Liberation Sans,Helvetica,Arial,sans-serif" font-size="10.00" fill="#268bd2">1 values (1 sources)</text>
</g>
<!-- eval_model -->
<g id="node10" class="node">
<title>eval_model</title>
<path fill="none" stroke="#dc322f" stroke-width="1.5" d="M264.5,-134C264.5,-134 198.5,-134 198.5,-134 192.5,-134 186.5,-128 186.5,-122 186.5,-122 186.5,-106 186.5,-106 186.5,-100 192.5,-94 198.5,-94 198.5,-94 264.5,-94 264.5,-94 270.5,-94 276.5,-100 276.5,-106 276.5,-106 276.5,-122 276.5,-122 276.5,-128 270.5,-134 264.5,-134"/>
<text text-anchor="start" x="198.5" y="-121.4" font-family="Liberation Sans,Helvetica,Arial,sans-serif" font-weight="bold" font-size="12.00" fill="#002b36">eval_model</text>
<text text-anchor="start" x="194.5" y="-111" font-family="Liberation Sans,Helvetica,Arial,sans-serif" font-size="10.00" fill="#002b36">@op:eval_model</text>
<text text-anchor="start" x="217" y="-101" font-family="Liberation Sans,Helvetica,Arial,sans-serif" font-size="10.00" fill="#dc322f">1 calls</text>
</g>
<!-- y_test&#45;&gt;eval_model -->
<g id="edge4" class="edge">
<title>y_test&#45;&gt;eval_model</title>
<path fill="none" stroke="#002b36" d="M147.5,-191.83C157.36,-180.13 171.14,-164.54 184.5,-152 188.57,-148.18 193,-144.33 197.47,-140.64"/>
<polygon fill="#002b36" stroke="#002b36" points="199.87,-143.19 205.46,-134.19 195.48,-137.74 199.87,-143.19"/>
<text text-anchor="middle" x="206" y="-166" font-family="Liberation Sans,Helvetica,Arial,sans-serif" font-size="10.00" fill="#002b36">y_test</text>
<text text-anchor="middle" x="206" y="-155" font-family="Liberation Sans,Helvetica,Arial,sans-serif" font-size="10.00" fill="#002b36">(1 values)</text>
</g>
<!-- n_estimators -->
<g id="node3" class="node">
<title>n_estimators</title>
<path fill="none" stroke="#268bd2" stroke-width="1.5" d="M168,-434C168,-434 87,-434 87,-434 81,-434 75,-428 75,-422 75,-422 75,-410 75,-410 75,-404 81,-398 87,-398 87,-398 168,-398 168,-398 174,-398 180,-404 180,-410 180,-410 180,-422 180,-422 180,-428 174,-434 168,-434"/>
<text text-anchor="start" x="90" y="-418.4" font-family="Liberation Sans,Helvetica,Arial,sans-serif" font-weight="bold" font-size="12.00" fill="#002b36">n_estimators</text>
<text text-anchor="start" x="83" y="-408" font-family="Liberation Sans,Helvetica,Arial,sans-serif" font-size="10.00" fill="#268bd2">1 values (1 sources)</text>
</g>
<!-- train_model -->
<g id="node9" class="node">
<title>train_model</title>
<path fill="none" stroke="#dc322f" stroke-width="1.5" d="M222,-326C222,-326 155,-326 155,-326 149,-326 143,-320 143,-314 143,-314 143,-298 143,-298 143,-292 149,-286 155,-286 155,-286 222,-286 222,-286 228,-286 234,-292 234,-298 234,-298 234,-314 234,-314 234,-320 228,-326 222,-326"/>
<text text-anchor="start" x="154.5" y="-313.4" font-family="Liberation Sans,Helvetica,Arial,sans-serif" font-weight="bold" font-size="12.00" fill="#002b36">train_model</text>
<text text-anchor="start" x="151" y="-303" font-family="Liberation Sans,Helvetica,Arial,sans-serif" font-size="10.00" fill="#002b36">@op:train_model</text>
<text text-anchor="start" x="174" y="-293" font-family="Liberation Sans,Helvetica,Arial,sans-serif" font-size="10.00" fill="#dc322f">1 calls</text>
</g>
<!-- n_estimators&#45;&gt;train_model -->
<g id="edge10" class="edge">
<title>n_estimators&#45;&gt;train_model</title>
<path fill="none" stroke="#002b36" d="M137.3,-397.65C146.84,-380.76 161.48,-354.83 172.67,-335.02"/>
<polygon fill="#002b36" stroke="#002b36" points="175.82,-336.56 177.7,-326.13 169.73,-333.12 175.82,-336.56"/>
<text text-anchor="middle" x="195" y="-365" font-family="Liberation Sans,Helvetica,Arial,sans-serif" font-size="10.00" fill="#002b36">n_estimators</text>
<text text-anchor="middle" x="195" y="-354" font-family="Liberation Sans,Helvetica,Arial,sans-serif" font-size="10.00" fill="#002b36">(1 values)</text>
</g>
<!-- X_train -->
<g id="node4" class="node">
<title>X_train</title>
<path fill="none" stroke="#268bd2" stroke-width="1.5" d="M45,-434C45,-434 12,-434 12,-434 6,-434 0,-428 0,-422 0,-422 0,-410 0,-410 0,-404 6,-398 12,-398 12,-398 45,-398 45,-398 51,-398 57,-404 57,-410 57,-410 57,-422 57,-422 57,-428 51,-434 45,-434"/>
<text text-anchor="start" x="8" y="-418.4" font-family="Liberation Sans,Helvetica,Arial,sans-serif" font-weight="bold" font-size="12.00" fill="#002b36">X_train</text>
<text text-anchor="start" x="10" y="-408" font-family="Liberation Sans,Helvetica,Arial,sans-serif" font-size="10.00" fill="#268bd2">1 values</text>
</g>
<!-- X_train&#45;&gt;train_model -->
<g id="edge9" class="edge">
<title>X_train&#45;&gt;train_model</title>
<path fill="none" stroke="#002b36" d="M42.7,-397.95C56.45,-382.3 78.53,-359.27 101.5,-344 111.23,-337.53 122.27,-331.8 133.14,-326.9"/>
<polygon fill="#002b36" stroke="#002b36" points="134.82,-329.98 142.61,-322.8 132.05,-323.56 134.82,-329.98"/>
<text text-anchor="middle" x="123" y="-365" font-family="Liberation Sans,Helvetica,Arial,sans-serif" font-size="10.00" fill="#002b36">X_train</text>
<text text-anchor="middle" x="123" y="-354" font-family="Liberation Sans,Helvetica,Arial,sans-serif" font-size="10.00" fill="#002b36">(1 values)</text>
</g>
<!-- random_seed -->
<g id="node5" class="node">
<title>random_seed</title>
<path fill="none" stroke="#268bd2" stroke-width="1.5" d="M221,-626C221,-626 140,-626 140,-626 134,-626 128,-620 128,-614 128,-614 128,-602 128,-602 128,-596 134,-590 140,-590 140,-590 221,-590 221,-590 227,-590 233,-596 233,-602 233,-602 233,-614 233,-614 233,-620 227,-626 221,-626"/>
<text text-anchor="start" x="141" y="-610.4" font-family="Liberation Sans,Helvetica,Arial,sans-serif" font-weight="bold" font-size="12.00" fill="#002b36">random_seed</text>
<text text-anchor="start" x="136" y="-600" font-family="Liberation Sans,Helvetica,Arial,sans-serif" font-size="10.00" fill="#268bd2">1 values (1 sources)</text>
</g>
<!-- generate_dataset -->
<g id="node11" class="node">
<title>generate_dataset</title>
<path fill="none" stroke="#dc322f" stroke-width="1.5" d="M226.5,-532C226.5,-532 134.5,-532 134.5,-532 128.5,-532 122.5,-526 122.5,-520 122.5,-520 122.5,-504 122.5,-504 122.5,-498 128.5,-492 134.5,-492 134.5,-492 226.5,-492 226.5,-492 232.5,-492 238.5,-498 238.5,-504 238.5,-504 238.5,-520 238.5,-520 238.5,-526 232.5,-532 226.5,-532"/>
<text text-anchor="start" x="130.5" y="-519.4" font-family="Liberation Sans,Helvetica,Arial,sans-serif" font-weight="bold" font-size="12.00" fill="#002b36">generate_dataset</text>
<text text-anchor="start" x="130.5" y="-509" font-family="Liberation Sans,Helvetica,Arial,sans-serif" font-size="10.00" fill="#002b36">@op:generate_dataset</text>
<text text-anchor="start" x="166" y="-499" font-family="Liberation Sans,Helvetica,Arial,sans-serif" font-size="10.00" fill="#dc322f">1 calls</text>
</g>
<!-- random_seed&#45;&gt;generate_dataset -->
<g id="edge7" class="edge">
<title>random_seed&#45;&gt;generate_dataset</title>
<path fill="none" stroke="#002b36" d="M180.5,-589.76C180.5,-576.5 180.5,-557.86 180.5,-542.27"/>
<polygon fill="#002b36" stroke="#002b36" points="184,-542.07 180.5,-532.07 177,-542.07 184,-542.07"/>
<text text-anchor="middle" x="210" y="-564" font-family="Liberation Sans,Helvetica,Arial,sans-serif" font-size="10.00" fill="#002b36">random_seed</text>
<text text-anchor="middle" x="210" y="-553" font-family="Liberation Sans,Helvetica,Arial,sans-serif" font-size="10.00" fill="#002b36">(1 values)</text>
</g>
<!-- y_train -->
<g id="node6" class="node">
<title>y_train</title>
<path fill="none" stroke="#268bd2" stroke-width="1.5" d="M291,-434C291,-434 210,-434 210,-434 204,-434 198,-428 198,-422 198,-422 198,-410 198,-410 198,-404 204,-398 210,-398 210,-398 291,-398 291,-398 297,-398 303,-404 303,-410 303,-410 303,-422 303,-422 303,-428 297,-434 291,-434"/>
<text text-anchor="start" x="230.5" y="-418.4" font-family="Liberation Sans,Helvetica,Arial,sans-serif" font-weight="bold" font-size="12.00" fill="#002b36">y_train</text>
<text text-anchor="start" x="206" y="-408" font-family="Liberation Sans,Helvetica,Arial,sans-serif" font-size="10.00" fill="#268bd2">1 values (1 sources)</text>
</g>
<!-- y_train&#45;&gt;train_model -->
<g id="edge11" class="edge">
<title>y_train&#45;&gt;train_model</title>
<path fill="none" stroke="#002b36" d="M247.46,-397.91C244.22,-382.86 238.07,-360.77 227.5,-344 225.2,-340.36 222.47,-336.83 219.53,-333.49"/>
<polygon fill="#002b36" stroke="#002b36" points="221.86,-330.86 212.4,-326.07 216.81,-335.71 221.86,-330.86"/>
<text text-anchor="middle" x="264" y="-365" font-family="Liberation Sans,Helvetica,Arial,sans-serif" font-size="10.00" fill="#002b36">y_train</text>
<text text-anchor="middle" x="264" y="-354" font-family="Liberation Sans,Helvetica,Arial,sans-serif" font-size="10.00" fill="#002b36">(1 values)</text>
</g>
<!-- model -->
<g id="node7" class="node">
<title>model</title>
<path fill="none" stroke="#268bd2" stroke-width="1.5" d="M246.5,-228C246.5,-228 216.5,-228 216.5,-228 210.5,-228 204.5,-222 204.5,-216 204.5,-216 204.5,-204 204.5,-204 204.5,-198 210.5,-192 216.5,-192 216.5,-192 246.5,-192 246.5,-192 252.5,-192 258.5,-198 258.5,-204 258.5,-204 258.5,-216 258.5,-216 258.5,-222 252.5,-228 246.5,-228"/>
<text text-anchor="start" x="213.5" y="-212.4" font-family="Liberation Sans,Helvetica,Arial,sans-serif" font-weight="bold" font-size="12.00" fill="#002b36">model</text>
<text text-anchor="start" x="213" y="-202" font-family="Liberation Sans,Helvetica,Arial,sans-serif" font-size="10.00" fill="#268bd2">1 values</text>
</g>
<!-- model&#45;&gt;eval_model -->
<g id="edge3" class="edge">
<title>model&#45;&gt;eval_model</title>
<path fill="none" stroke="#002b36" d="M231.5,-191.76C231.5,-178.5 231.5,-159.86 231.5,-144.27"/>
<polygon fill="#002b36" stroke="#002b36" points="235,-144.07 231.5,-134.07 228,-144.07 235,-144.07"/>
<text text-anchor="middle" x="253" y="-166" font-family="Liberation Sans,Helvetica,Arial,sans-serif" font-size="10.00" fill="#002b36">model</text>
<text text-anchor="middle" x="253" y="-155" font-family="Liberation Sans,Helvetica,Arial,sans-serif" font-size="10.00" fill="#002b36">(1 values)</text>
</g>
<!-- X_test -->
<g id="node8" class="node">
<title>X_test</title>
<path fill="none" stroke="#268bd2" stroke-width="1.5" d="M343.5,-380C343.5,-380 313.5,-380 313.5,-380 307.5,-380 301.5,-374 301.5,-368 301.5,-368 301.5,-356 301.5,-356 301.5,-350 307.5,-344 313.5,-344 313.5,-344 343.5,-344 343.5,-344 349.5,-344 355.5,-350 355.5,-356 355.5,-356 355.5,-368 355.5,-368 355.5,-374 349.5,-380 343.5,-380"/>
<text text-anchor="start" x="310" y="-364.4" font-family="Liberation Sans,Helvetica,Arial,sans-serif" font-weight="bold" font-size="12.00" fill="#002b36">X_test</text>
<text text-anchor="start" x="310" y="-354" font-family="Liberation Sans,Helvetica,Arial,sans-serif" font-size="10.00" fill="#268bd2">1 values</text>
</g>
<!-- X_test&#45;&gt;eval_model -->
<g id="edge2" class="edge">
<title>X_test&#45;&gt;eval_model</title>
<path fill="none" stroke="#002b36" d="M328.12,-343.83C326.54,-306.14 318.52,-214.53 278.5,-152 276.04,-148.16 273.04,-144.54 269.76,-141.19"/>
<polygon fill="#002b36" stroke="#002b36" points="271.96,-138.47 262.22,-134.29 267.23,-143.63 271.96,-138.47"/>
<text text-anchor="middle" x="341" y="-260" font-family="Liberation Sans,Helvetica,Arial,sans-serif" font-size="10.00" fill="#002b36">X_test</text>
<text text-anchor="middle" x="341" y="-249" font-family="Liberation Sans,Helvetica,Arial,sans-serif" font-size="10.00" fill="#002b36">(1 values)</text>
</g>
<!-- train_model&#45;&gt;model -->
<g id="edge8" class="edge">
<title>train_model&#45;&gt;model</title>
<path fill="none" stroke="#002b36" d="M197.2,-285.98C203.56,-272.07 212.27,-253.03 219.33,-237.61"/>
<polygon fill="#002b36" stroke="#002b36" points="222.7,-238.65 223.68,-228.1 216.34,-235.74 222.7,-238.65"/>
<text text-anchor="middle" x="236" y="-260" font-family="Liberation Sans,Helvetica,Arial,sans-serif" font-size="10.00" fill="#002b36">output_0</text>
<text text-anchor="middle" x="236" y="-249" font-family="Liberation Sans,Helvetica,Arial,sans-serif" font-size="10.00" fill="#002b36">(1 values)</text>
</g>
<!-- eval_model&#45;&gt;v -->
<g id="edge1" class="edge">
<title>eval_model&#45;&gt;v</title>
<path fill="none" stroke="#002b36" d="M231.5,-93.98C231.5,-80.34 231.5,-61.75 231.5,-46.5"/>
<polygon fill="#002b36" stroke="#002b36" points="235,-46.1 231.5,-36.1 228,-46.1 235,-46.1"/>
<text text-anchor="middle" x="253" y="-68" font-family="Liberation Sans,Helvetica,Arial,sans-serif" font-size="10.00" fill="#002b36">output_0</text>
<text text-anchor="middle" x="253" y="-57" font-family="Liberation Sans,Helvetica,Arial,sans-serif" font-size="10.00" fill="#002b36">(1 values)</text>
</g>
<!-- generate_dataset&#45;&gt;X_train -->
<g id="edge6" class="edge">
<title>generate_dataset&#45;&gt;X_train</title>
<path fill="none" stroke="#002b36" d="M149.74,-491.98C125.22,-476.81 90.82,-455.54 64.92,-439.52"/>
<polygon fill="#002b36" stroke="#002b36" points="66.49,-436.38 56.15,-434.1 62.81,-442.33 66.49,-436.38"/>
<text text-anchor="middle" x="139" y="-466" font-family="Liberation Sans,Helvetica,Arial,sans-serif" font-size="10.00" fill="#002b36">output_0</text>
<text text-anchor="middle" x="139" y="-455" font-family="Liberation Sans,Helvetica,Arial,sans-serif" font-size="10.00" fill="#002b36">(1 values)</text>
</g>
<!-- generate_dataset&#45;&gt;X_test -->
<g id="edge5" class="edge">
<title>generate_dataset&#45;&gt;X_test</title>
<path fill="none" stroke="#002b36" d="M234.09,-491.86C261.48,-479.44 293.06,-460.54 312.5,-434 321.72,-421.41 325.77,-404.44 327.49,-390.25"/>
<polygon fill="#002b36" stroke="#002b36" points="331,-390.33 328.4,-380.06 324.02,-389.71 331,-390.33"/>
<text text-anchor="middle" x="316" y="-466" font-family="Liberation Sans,Helvetica,Arial,sans-serif" font-size="10.00" fill="#002b36">output_1</text>
<text text-anchor="middle" x="316" y="-455" font-family="Liberation Sans,Helvetica,Arial,sans-serif" font-size="10.00" fill="#002b36">(1 values)</text>
</g>
</g>
</svg>
