<?xml version="1.0" encoding="UTF-8" standalone="no"?>
<!DOCTYPE svg PUBLIC "-//W3C//DTD SVG 1.1//EN"
 "http://www.w3.org/Graphics/SVG/1.1/DTD/svg11.dtd">
<!-- Generated by graphviz version 2.50.0 (0)
 -->
<!-- Title: G Pages: 1 -->
<svg width="341pt" height="428pt"
 viewBox="0.00 0.00 340.50 428.00" xmlns="http://www.w3.org/2000/svg" xmlns:xlink="http://www.w3.org/1999/xlink">
<g id="graph0" class="graph" transform="scale(1 1) rotate(0) translate(4 424)">
<title>G</title>
<polygon fill="white" stroke="transparent" points="-4,4 -4,-424 336.5,-424 336.5,4 -4,4"/>
<!-- v -->
<g id="node1" class="node">
<title>v</title>
<path fill="none" stroke="#268bd2" stroke-width="1.5" d="M210.5,-36C210.5,-36 140.5,-36 140.5,-36 134.5,-36 128.5,-30 128.5,-24 128.5,-24 128.5,-12 128.5,-12 128.5,-6 134.5,0 140.5,0 140.5,0 210.5,0 210.5,0 216.5,0 222.5,-6 222.5,-12 222.5,-12 222.5,-24 222.5,-24 222.5,-30 216.5,-36 210.5,-36"/>
<text text-anchor="start" x="172" y="-20.4" font-family="Liberation Sans,Helvetica,Arial,sans-serif" font-weight="bold" font-size="12.00" fill="#002b36">v</text>
<text text-anchor="start" x="136.5" y="-10" font-family="Liberation Sans,Helvetica,Arial,sans-serif" font-size="10.00" fill="#268bd2">1 values (1 sinks)</text>
</g>
<!-- y_test -->
<g id="node2" class="node">
<title>y_test</title>
<path fill="none" stroke="#268bd2" stroke-width="1.5" d="M93,-228C93,-228 12,-228 12,-228 6,-228 0,-222 0,-216 0,-216 0,-204 0,-204 0,-198 6,-192 12,-192 12,-192 93,-192 93,-192 99,-192 105,-198 105,-204 105,-204 105,-216 105,-216 105,-222 99,-228 93,-228"/>
<text text-anchor="start" x="35" y="-212.4" font-family="Liberation Sans,Helvetica,Arial,sans-serif" font-weight="bold" font-size="12.00" fill="#002b36">y_test</text>
<text text-anchor="start" x="8" y="-202" font-family="Liberation Sans,Helvetica,Arial,sans-serif" font-size="10.00" fill="#268bd2">1 values (1 sources)</text>
</g>
<!-- eval_model -->
<g id="node6" class="node">
<title>eval_model</title>
<path fill="none" stroke="#dc322f" stroke-width="1.5" d="M208.5,-134C208.5,-134 142.5,-134 142.5,-134 136.5,-134 130.5,-128 130.5,-122 130.5,-122 130.5,-106 130.5,-106 130.5,-100 136.5,-94 142.5,-94 142.5,-94 208.5,-94 208.5,-94 214.5,-94 220.5,-100 220.5,-106 220.5,-106 220.5,-122 220.5,-122 220.5,-128 214.5,-134 208.5,-134"/>
<text text-anchor="start" x="142.5" y="-121.4" font-family="Liberation Sans,Helvetica,Arial,sans-serif" font-weight="bold" font-size="12.00" fill="#002b36">eval_model</text>
<text text-anchor="start" x="138.5" y="-111" font-family="Liberation Sans,Helvetica,Arial,sans-serif" font-size="10.00" fill="#002b36">@op:eval_model</text>
<text text-anchor="start" x="161" y="-101" font-family="Liberation Sans,Helvetica,Arial,sans-serif" font-size="10.00" fill="#dc322f">1 calls</text>
</g>
<!-- y_test&#45;&gt;eval_model -->
<g id="edge4" class="edge">
<title>y_test&#45;&gt;eval_model</title>
<path fill="none" stroke="#002b36" d="M74.77,-191.98C93.6,-177.59 120.84,-156.78 142.24,-140.42"/>
<polygon fill="#002b36" stroke="#002b36" points="144.61,-143.02 150.43,-134.16 140.36,-137.45 144.61,-143.02"/>
<text text-anchor="middle" x="147" y="-166" font-family="Liberation Sans,Helvetica,Arial,sans-serif" font-size="10.00" fill="#002b36">y_test</text>
<text text-anchor="middle" x="147" y="-155" font-family="Liberation Sans,Helvetica,Arial,sans-serif" font-size="10.00" fill="#002b36">(1 values)</text>
</g>
<!-- random_seed -->
<g id="node3" class="node">
<title>random_seed</title>
<path fill="none" stroke="#268bd2" stroke-width="1.5" d="M314,-420C314,-420 233,-420 233,-420 227,-420 221,-414 221,-408 221,-408 221,-396 221,-396 221,-390 227,-384 233,-384 233,-384 314,-384 314,-384 320,-384 326,-390 326,-396 326,-396 326,-408 326,-408 326,-414 320,-420 314,-420"/>
<text text-anchor="start" x="234" y="-404.4" font-family="Liberation Sans,Helvetica,Arial,sans-serif" font-weight="bold" font-size="12.00" fill="#002b36">random_seed</text>
<text text-anchor="start" x="229" y="-394" font-family="Liberation Sans,Helvetica,Arial,sans-serif" font-size="10.00" fill="#268bd2">1 values (1 sources)</text>
</g>
<!-- generate_dataset -->
<g id="node7" class="node">
<title>generate_dataset</title>
<path fill="none" stroke="#dc322f" stroke-width="1.5" d="M319.5,-326C319.5,-326 227.5,-326 227.5,-326 221.5,-326 215.5,-320 215.5,-314 215.5,-314 215.5,-298 215.5,-298 215.5,-292 221.5,-286 227.5,-286 227.5,-286 319.5,-286 319.5,-286 325.5,-286 331.5,-292 331.5,-298 331.5,-298 331.5,-314 331.5,-314 331.5,-320 325.5,-326 319.5,-326"/>
<text text-anchor="start" x="223.5" y="-313.4" font-family="Liberation Sans,Helvetica,Arial,sans-serif" font-weight="bold" font-size="12.00" fill="#002b36">generate_dataset</text>
<text text-anchor="start" x="223.5" y="-303" font-family="Liberation Sans,Helvetica,Arial,sans-serif" font-size="10.00" fill="#002b36">@op:generate_dataset</text>
<text text-anchor="start" x="259" y="-293" font-family="Liberation Sans,Helvetica,Arial,sans-serif" font-size="10.00" fill="#dc322f">1 calls</text>
</g>
<!-- random_seed&#45;&gt;generate_dataset -->
<g id="edge6" class="edge">
<title>random_seed&#45;&gt;generate_dataset</title>
<path fill="none" stroke="#002b36" d="M273.5,-383.76C273.5,-370.5 273.5,-351.86 273.5,-336.27"/>
<polygon fill="#002b36" stroke="#002b36" points="277,-336.07 273.5,-326.07 270,-336.07 277,-336.07"/>
<text text-anchor="middle" x="303" y="-358" font-family="Liberation Sans,Helvetica,Arial,sans-serif" font-size="10.00" fill="#002b36">random_seed</text>
<text text-anchor="middle" x="303" y="-347" font-family="Liberation Sans,Helvetica,Arial,sans-serif" font-size="10.00" fill="#002b36">(1 values)</text>
</g>
<!-- model -->
<g id="node4" class="node">
<title>model</title>
<path fill="none" stroke="#268bd2" stroke-width="1.5" d="M216,-228C216,-228 135,-228 135,-228 129,-228 123,-222 123,-216 123,-216 123,-204 123,-204 123,-198 129,-192 135,-192 135,-192 216,-192 216,-192 222,-192 228,-198 228,-204 228,-204 228,-216 228,-216 228,-222 222,-228 216,-228"/>
<text text-anchor="start" x="157.5" y="-212.4" font-family="Liberation Sans,Helvetica,Arial,sans-serif" font-weight="bold" font-size="12.00" fill="#002b36">model</text>
<text text-anchor="start" x="131" y="-202" font-family="Liberation Sans,Helvetica,Arial,sans-serif" font-size="10.00" fill="#268bd2">1 values (1 sources)</text>
</g>
<!-- model&#45;&gt;eval_model -->
<g id="edge3" class="edge">
<title>model&#45;&gt;eval_model</title>
<path fill="none" stroke="#002b36" d="M175.5,-191.76C175.5,-178.5 175.5,-159.86 175.5,-144.27"/>
<polygon fill="#002b36" stroke="#002b36" points="179,-144.07 175.5,-134.07 172,-144.07 179,-144.07"/>
<text text-anchor="middle" x="197" y="-166" font-family="Liberation Sans,Helvetica,Arial,sans-serif" font-size="10.00" fill="#002b36">model</text>
<text text-anchor="middle" x="197" y="-155" font-family="Liberation Sans,Helvetica,Arial,sans-serif" font-size="10.00" fill="#002b36">(1 values)</text>
</g>
<!-- X_test -->
<g id="node5" class="node">
<title>X_test</title>
<path fill="none" stroke="#268bd2" stroke-width="1.5" d="M288.5,-228C288.5,-228 258.5,-228 258.5,-228 252.5,-228 246.5,-222 246.5,-216 246.5,-216 246.5,-204 246.5,-204 246.5,-198 252.5,-192 258.5,-192 258.5,-192 288.5,-192 288.5,-192 294.5,-192 300.5,-198 300.5,-204 300.5,-204 300.5,-216 300.5,-216 300.5,-222 294.5,-228 288.5,-228"/>
<text text-anchor="start" x="255" y="-212.4" font-family="Liberation Sans,Helvetica,Arial,sans-serif" font-weight="bold" font-size="12.00" fill="#002b36">X_test</text>
<text text-anchor="start" x="255" y="-202" font-family="Liberation Sans,Helvetica,Arial,sans-serif" font-size="10.00" fill="#268bd2">1 values</text>
</g>
<!-- X_test&#45;&gt;eval_model -->
<g id="edge2" class="edge">
<title>X_test&#45;&gt;eval_model</title>
<path fill="none" stroke="#002b36" d="M259.5,-191.83C249.64,-180.13 235.86,-164.54 222.5,-152 218.43,-148.18 214,-144.33 209.53,-140.64"/>
<polygon fill="#002b36" stroke="#002b36" points="211.52,-137.74 201.54,-134.19 207.13,-143.19 211.52,-137.74"/>
<text text-anchor="middle" x="264" y="-166" font-family="Liberation Sans,Helvetica,Arial,sans-serif" font-size="10.00" fill="#002b36">X_test</text>
<text text-anchor="middle" x="264" y="-155" font-family="Liberation Sans,Helvetica,Arial,sans-serif" font-size="10.00" fill="#002b36">(1 values)</text>
</g>
<!-- eval_model&#45;&gt;v -->
<g id="edge1" class="edge">
<title>eval_model&#45;&gt;v</title>
<path fill="none" stroke="#002b36" d="M175.5,-93.98C175.5,-80.34 175.5,-61.75 175.5,-46.5"/>
<polygon fill="#002b36" stroke="#002b36" points="179,-46.1 175.5,-36.1 172,-46.1 179,-46.1"/>
<text text-anchor="middle" x="197" y="-68" font-family="Liberation Sans,Helvetica,Arial,sans-serif" font-size="10.00" fill="#002b36">output_0</text>
<text text-anchor="middle" x="197" y="-57" font-family="Liberation Sans,Helvetica,Arial,sans-serif" font-size="10.00" fill="#002b36">(1 values)</text>
</g>
<!-- generate_dataset&#45;&gt;X_test -->
<g id="edge5" class="edge">
<title>generate_dataset&#45;&gt;X_test</title>
<path fill="none" stroke="#002b36" d="M273.5,-285.98C273.5,-272.34 273.5,-253.75 273.5,-238.5"/>
<polygon fill="#002b36" stroke="#002b36" points="277,-238.1 273.5,-228.1 270,-238.1 277,-238.1"/>
<text text-anchor="middle" x="295" y="-260" font-family="Liberation Sans,Helvetica,Arial,sans-serif" font-size="10.00" fill="#002b36">output_1</text>
<text text-anchor="middle" x="295" y="-249" font-family="Liberation Sans,Helvetica,Arial,sans-serif" font-size="10.00" fill="#002b36">(1 values)</text>
</g>
</g>
</svg>
