<?xml version="1.0" encoding="UTF-8" standalone="no"?>
<!DOCTYPE svg PUBLIC "-//W3C//DTD SVG 1.1//EN"
 "http://www.w3.org/Graphics/SVG/1.1/DTD/svg11.dtd">
<!-- Generated by graphviz version 2.50.0 (0)
 -->
<!-- Title: G Pages: 1 -->
<svg width="375pt" height="620pt"
 viewBox="0.00 0.00 374.50 620.00" xmlns="http://www.w3.org/2000/svg" xmlns:xlink="http://www.w3.org/1999/xlink">
<g id="graph0" class="graph" transform="scale(1 1) rotate(0) translate(4 616)">
<title>G</title>
<polygon fill="white" stroke="transparent" points="-4,4 -4,-616 370.5,-616 370.5,4 -4,4"/>
<!-- output_0 -->
<g id="node1" class="node">
<title>output_0</title>
<path fill="none" stroke="#268bd2" d="M238.5,-228C238.5,-228 163.5,-228 163.5,-228 157.5,-228 151.5,-222 151.5,-216 151.5,-216 151.5,-204 151.5,-204 151.5,-198 157.5,-192 163.5,-192 163.5,-192 238.5,-192 238.5,-192 244.5,-192 250.5,-198 250.5,-204 250.5,-204 250.5,-216 250.5,-216 250.5,-222 244.5,-228 238.5,-228"/>
<text text-anchor="start" x="173.5" y="-212.4" font-family="RobotoMono" font-weight="bold" font-size="12.00" fill="#002b36">output_0</text>
<text text-anchor="start" x="159.5" y="-202" font-family="RobotoMono" font-size="10.00" fill="#268bd2">10 values (5 sinks)</text>
</g>
<!-- divmod_ -->
<g id="node10" class="node">
<title>divmod_</title>
<path fill="none" stroke="#dc322f" d="M292,-134C292,-134 236,-134 236,-134 230,-134 224,-128 224,-122 224,-122 224,-106 224,-106 224,-100 230,-94 236,-94 236,-94 292,-94 292,-94 298,-94 304,-100 304,-106 304,-106 304,-122 304,-122 304,-128 298,-134 292,-134"/>
<text text-anchor="start" x="238.5" y="-121.4" font-family="RobotoMono" font-weight="bold" font-size="12.00" fill="#002b36">divmod_</text>
<text text-anchor="start" x="232" y="-111" font-family="RobotoMono" font-size="10.00" fill="#002b36">@op:divmod_</text>
<text text-anchor="start" x="250" y="-101" font-family="RobotoMono" font-size="10.00" fill="#dc322f">5 calls</text>
</g>
<!-- output_0&#45;&gt;divmod_ -->
<g id="edge1" class="edge">
<title>output_0&#45;&gt;divmod_</title>
<path fill="none" stroke="#002b36" d="M212.56,-191.76C221.79,-177.99 234.9,-158.42 245.58,-142.49"/>
<polygon fill="#002b36" stroke="#002b36" points="248.56,-144.33 251.22,-134.07 242.74,-140.43 248.56,-144.33"/>
<text text-anchor="middle" x="261" y="-166" font-family="RobotoMono" font-size="10.00" fill="#002b36">v</text>
<text text-anchor="middle" x="261" y="-155" font-family="RobotoMono" font-size="10.00" fill="#002b36">(5 values)</text>
</g>
<!-- z -->
<g id="node2" class="node">
<title>z</title>
<path fill="none" stroke="#268bd2" d="M218,-420C218,-420 136,-420 136,-420 130,-420 124,-414 124,-408 124,-408 124,-396 124,-396 124,-390 130,-384 136,-384 136,-384 218,-384 218,-384 224,-384 230,-390 230,-396 230,-396 230,-408 230,-408 230,-414 224,-420 218,-420"/>
<text text-anchor="start" x="173.5" y="-404.4" font-family="RobotoMono" font-weight="bold" font-size="12.00" fill="#002b36">z</text>
<text text-anchor="start" x="132" y="-394" font-family="RobotoMono" font-size="10.00" fill="#268bd2">1 values (1 sources)</text>
</g>
<!-- add -->
<g id="node11" class="node">
<title>add</title>
<path fill="none" stroke="#dc322f" d="M218,-326C218,-326 184,-326 184,-326 178,-326 172,-320 172,-314 172,-314 172,-298 172,-298 172,-292 178,-286 184,-286 184,-286 218,-286 218,-286 224,-286 230,-292 230,-298 230,-298 230,-314 230,-314 230,-320 224,-326 218,-326"/>
<text text-anchor="start" x="189.5" y="-313.4" font-family="RobotoMono" font-weight="bold" font-size="12.00" fill="#002b36">add</text>
<text text-anchor="start" x="180" y="-303" font-family="RobotoMono" font-size="10.00" fill="#002b36">@op:add</text>
<text text-anchor="start" x="187" y="-293" font-family="RobotoMono" font-size="10.00" fill="#dc322f">5 calls</text>
</g>
<!-- z&#45;&gt;add -->
<g id="edge2" class="edge">
<title>z&#45;&gt;add</title>
<path fill="none" stroke="#002b36" d="M174.94,-383.68C174.15,-372.19 174.19,-356.91 178,-344 178.89,-340.98 180.1,-337.96 181.5,-335.02"/>
<polygon fill="#002b36" stroke="#002b36" points="184.7,-336.47 186.48,-326.03 178.58,-333.08 184.7,-336.47"/>
<text text-anchor="middle" x="200" y="-358" font-family="RobotoMono" font-size="10.00" fill="#002b36">z</text>
<text text-anchor="middle" x="200" y="-347" font-family="RobotoMono" font-size="10.00" fill="#002b36">(1 values)</text>
</g>
<!-- x -->
<g id="node3" class="node">
<title>x</title>
<path fill="none" stroke="#268bd2" d="M330,-612C330,-612 248,-612 248,-612 242,-612 236,-606 236,-600 236,-600 236,-588 236,-588 236,-582 242,-576 248,-576 248,-576 330,-576 330,-576 336,-576 342,-582 342,-588 342,-588 342,-600 342,-600 342,-606 336,-612 330,-612"/>
<text text-anchor="start" x="285.5" y="-596.4" font-family="RobotoMono" font-weight="bold" font-size="12.00" fill="#002b36">x</text>
<text text-anchor="start" x="244" y="-586" font-family="RobotoMono" font-size="10.00" fill="#268bd2">5 values (5 sources)</text>
</g>
<!-- inc -->
<g id="node9" class="node">
<title>inc</title>
<path fill="none" stroke="#dc322f" d="M304,-518C304,-518 274,-518 274,-518 268,-518 262,-512 262,-506 262,-506 262,-490 262,-490 262,-484 268,-478 274,-478 274,-478 304,-478 304,-478 310,-478 316,-484 316,-490 316,-490 316,-506 316,-506 316,-512 310,-518 304,-518"/>
<text text-anchor="start" x="279.5" y="-505.4" font-family="RobotoMono" font-weight="bold" font-size="12.00" fill="#002b36">inc</text>
<text text-anchor="start" x="270.5" y="-495" font-family="RobotoMono" font-size="10.00" fill="#002b36">@op:inc</text>
<text text-anchor="start" x="275" y="-485" font-family="RobotoMono" font-size="10.00" fill="#dc322f">5 calls</text>
</g>
<!-- x&#45;&gt;inc -->
<g id="edge9" class="edge">
<title>x&#45;&gt;inc</title>
<path fill="none" stroke="#002b36" d="M289,-575.76C289,-562.5 289,-543.86 289,-528.27"/>
<polygon fill="#002b36" stroke="#002b36" points="292.5,-528.07 289,-518.07 285.5,-528.07 292.5,-528.07"/>
<text text-anchor="middle" x="311" y="-550" font-family="RobotoMono" font-size="10.00" fill="#002b36">x</text>
<text text-anchor="middle" x="311" y="-539" font-family="RobotoMono" font-size="10.00" fill="#002b36">(5 values)</text>
</g>
<!-- w -->
<g id="node4" class="node">
<title>w</title>
<path fill="none" stroke="#268bd2" d="M94,-420C94,-420 12,-420 12,-420 6,-420 0,-414 0,-408 0,-408 0,-396 0,-396 0,-390 6,-384 12,-384 12,-384 94,-384 94,-384 100,-384 106,-390 106,-396 106,-396 106,-408 106,-408 106,-414 100,-420 94,-420"/>
<text text-anchor="start" x="47.5" y="-404.4" font-family="RobotoMono" font-weight="bold" font-size="12.00" fill="#002b36">w</text>
<text text-anchor="start" x="8" y="-394" font-family="RobotoMono" font-size="10.00" fill="#268bd2">5 values (5 sources)</text>
</g>
<!-- square -->
<g id="node8" class="node">
<title>square</title>
<path fill="none" stroke="#dc322f" d="M110,-326C110,-326 62,-326 62,-326 56,-326 50,-320 50,-314 50,-314 50,-298 50,-298 50,-292 56,-286 62,-286 62,-286 110,-286 110,-286 116,-286 122,-292 122,-298 122,-298 122,-314 122,-314 122,-320 116,-326 110,-326"/>
<text text-anchor="start" x="65" y="-313.4" font-family="RobotoMono" font-weight="bold" font-size="12.00" fill="#002b36">square</text>
<text text-anchor="start" x="58" y="-303" font-family="RobotoMono" font-size="10.00" fill="#002b36">@op:square</text>
<text text-anchor="start" x="72" y="-293" font-family="RobotoMono" font-size="10.00" fill="#dc322f">5 calls</text>
</g>
<!-- w&#45;&gt;square -->
<g id="edge4" class="edge">
<title>w&#45;&gt;square</title>
<path fill="none" stroke="#002b36" d="M59.05,-383.76C63.75,-370.37 70.38,-351.5 75.88,-335.82"/>
<polygon fill="#002b36" stroke="#002b36" points="79.29,-336.67 79.3,-326.07 72.69,-334.35 79.29,-336.67"/>
<text text-anchor="middle" x="95" y="-358" font-family="RobotoMono" font-size="10.00" fill="#002b36">w</text>
<text text-anchor="middle" x="95" y="-347" font-family="RobotoMono" font-size="10.00" fill="#002b36">(5 values)</text>
</g>
<!-- y -->
<g id="node5" class="node">
<title>y</title>
<path fill="none" stroke="#268bd2" d="M304,-420C304,-420 274,-420 274,-420 268,-420 262,-414 262,-408 262,-408 262,-396 262,-396 262,-390 268,-384 274,-384 274,-384 304,-384 304,-384 310,-384 316,-390 316,-396 316,-396 316,-408 316,-408 316,-414 310,-420 304,-420"/>
<text text-anchor="start" x="285.5" y="-404.4" font-family="RobotoMono" font-weight="bold" font-size="12.00" fill="#002b36">y</text>
<text text-anchor="start" x="270" y="-394" font-family="RobotoMono" font-size="10.00" fill="#268bd2">5 values</text>
</g>
<!-- y&#45;&gt;divmod_ -->
<g id="edge6" class="edge">
<title>y&#45;&gt;divmod_</title>
<path fill="none" stroke="#002b36" d="M291.98,-383.93C298.48,-342.93 311.47,-236.05 287,-152 286.12,-148.97 284.92,-145.95 283.52,-143.02"/>
<polygon fill="#002b36" stroke="#002b36" points="286.45,-141.08 278.55,-134.02 280.32,-144.46 286.45,-141.08"/>
<text text-anchor="middle" x="323" y="-260" font-family="RobotoMono" font-size="10.00" fill="#002b36">u</text>
<text text-anchor="middle" x="323" y="-249" font-family="RobotoMono" font-size="10.00" fill="#002b36">(5 values)</text>
</g>
<!-- y&#45;&gt;add -->
<g id="edge5" class="edge">
<title>y&#45;&gt;add</title>
<path fill="none" stroke="#002b36" d="M265.2,-383.89C258.37,-378.51 251.11,-372.31 245,-366 235.69,-356.39 226.64,-344.78 219.19,-334.4"/>
<polygon fill="#002b36" stroke="#002b36" points="221.94,-332.23 213.33,-326.05 216.21,-336.25 221.94,-332.23"/>
<text text-anchor="middle" x="267" y="-358" font-family="RobotoMono" font-size="10.00" fill="#002b36">y</text>
<text text-anchor="middle" x="267" y="-347" font-family="RobotoMono" font-size="10.00" fill="#002b36">(5 values)</text>
</g>
<!-- output_0_0 -->
<g id="node6" class="node">
<title>output_0_0</title>
<path fill="none" stroke="#268bd2" d="M243.5,-36C243.5,-36 174.5,-36 174.5,-36 168.5,-36 162.5,-30 162.5,-24 162.5,-24 162.5,-12 162.5,-12 162.5,-6 168.5,0 174.5,0 174.5,0 243.5,0 243.5,0 249.5,0 255.5,-6 255.5,-12 255.5,-12 255.5,-24 255.5,-24 255.5,-30 249.5,-36 243.5,-36"/>
<text text-anchor="start" x="175.5" y="-20.4" font-family="RobotoMono" font-weight="bold" font-size="12.00" fill="#002b36">output_0_0</text>
<text text-anchor="start" x="170.5" y="-10" font-family="RobotoMono" font-size="10.00" fill="#268bd2">5 values (5 sinks)</text>
</g>
<!-- output_1 -->
<g id="node7" class="node">
<title>output_1</title>
<path fill="none" stroke="#268bd2" d="M354.5,-36C354.5,-36 285.5,-36 285.5,-36 279.5,-36 273.5,-30 273.5,-24 273.5,-24 273.5,-12 273.5,-12 273.5,-6 279.5,0 285.5,0 285.5,0 354.5,0 354.5,0 360.5,0 366.5,-6 366.5,-12 366.5,-12 366.5,-24 366.5,-24 366.5,-30 360.5,-36 354.5,-36"/>
<text text-anchor="start" x="292.5" y="-20.4" font-family="RobotoMono" font-weight="bold" font-size="12.00" fill="#002b36">output_1</text>
<text text-anchor="start" x="281.5" y="-10" font-family="RobotoMono" font-size="10.00" fill="#268bd2">5 values (5 sinks)</text>
</g>
<!-- square&#45;&gt;output_0 -->
<g id="edge3" class="edge">
<title>square&#45;&gt;output_0</title>
<path fill="none" stroke="#002b36" d="M106.7,-285.89C119.73,-274.09 137.04,-258.8 153,-246 157.96,-242.02 163.32,-237.92 168.6,-234"/>
<polygon fill="#002b36" stroke="#002b36" points="170.76,-236.76 176.75,-228.02 166.61,-231.12 170.76,-236.76"/>
<text text-anchor="middle" x="175" y="-260" font-family="RobotoMono" font-size="10.00" fill="#002b36">output_0</text>
<text text-anchor="middle" x="175" y="-249" font-family="RobotoMono" font-size="10.00" fill="#002b36">(5 values)</text>
</g>
<!-- inc&#45;&gt;y -->
<g id="edge8" class="edge">
<title>inc&#45;&gt;y</title>
<path fill="none" stroke="#002b36" d="M289,-477.98C289,-464.34 289,-445.75 289,-430.5"/>
<polygon fill="#002b36" stroke="#002b36" points="292.5,-430.1 289,-420.1 285.5,-430.1 292.5,-430.1"/>
<text text-anchor="middle" x="311" y="-452" font-family="RobotoMono" font-size="10.00" fill="#002b36">output_0</text>
<text text-anchor="middle" x="311" y="-441" font-family="RobotoMono" font-size="10.00" fill="#002b36">(5 values)</text>
</g>
<!-- divmod_&#45;&gt;output_0_0 -->
<g id="edge10" class="edge">
<title>divmod_&#45;&gt;output_0_0</title>
<path fill="none" stroke="#002b36" d="M252.87,-93.98C244.58,-79.81 233.17,-60.3 224.06,-44.74"/>
<polygon fill="#002b36" stroke="#002b36" points="227.08,-42.96 219,-36.1 221.03,-46.5 227.08,-42.96"/>
<text text-anchor="middle" x="264" y="-68" font-family="RobotoMono" font-size="10.00" fill="#002b36">output_0</text>
<text text-anchor="middle" x="264" y="-57" font-family="RobotoMono" font-size="10.00" fill="#002b36">(5 values)</text>
</g>
<!-- divmod_&#45;&gt;output_1 -->
<g id="edge11" class="edge">
<title>divmod_&#45;&gt;output_1</title>
<path fill="none" stroke="#002b36" d="M278.24,-93.73C282.2,-88.11 286.4,-81.9 290,-76 295.95,-66.27 301.92,-55.24 306.95,-45.5"/>
<polygon fill="#002b36" stroke="#002b36" points="310.22,-46.78 311.63,-36.28 303.98,-43.61 310.22,-46.78"/>
<text text-anchor="middle" x="324" y="-68" font-family="RobotoMono" font-size="10.00" fill="#002b36">output_1</text>
<text text-anchor="middle" x="324" y="-57" font-family="RobotoMono" font-size="10.00" fill="#002b36">(5 values)</text>
</g>
<!-- add&#45;&gt;output_0 -->
<g id="edge7" class="edge">
<title>add&#45;&gt;output_0</title>
<path fill="none" stroke="#002b36" d="M201,-285.98C201,-272.34 201,-253.75 201,-238.5"/>
<polygon fill="#002b36" stroke="#002b36" points="204.5,-238.1 201,-228.1 197.5,-238.1 204.5,-238.1"/>
<text text-anchor="middle" x="223" y="-260" font-family="RobotoMono" font-size="10.00" fill="#002b36">output_0</text>
<text text-anchor="middle" x="223" y="-249" font-family="RobotoMono" font-size="10.00" fill="#002b36">(5 values)</text>
</g>
</g>
</svg>
