<?xml version="1.0" encoding="UTF-8" standalone="no"?>
<!DOCTYPE svg PUBLIC "-//W3C//DTD SVG 1.1//EN"
 "http://www.w3.org/Graphics/SVG/1.1/DTD/svg11.dtd">
<!-- Generated by graphviz version 2.50.0 (0)
 -->
<!-- Title: G Pages: 1 -->
<svg width="356pt" height="526pt"
 viewBox="0.00 0.00 356.00 526.00" xmlns="http://www.w3.org/2000/svg" xmlns:xlink="http://www.w3.org/1999/xlink">
<g id="graph0" class="graph" transform="scale(1 1) rotate(0) translate(4 522)">
<title>G</title>
<polygon fill="white" stroke="transparent" points="-4,4 -4,-522 352,-522 352,4 -4,4"/>
<!-- output_0 -->
<g id="node1" class="node">
<title>output_0</title>
<path fill="none" stroke="#268bd2" d="M181.5,-36C181.5,-36 112.5,-36 112.5,-36 106.5,-36 100.5,-30 100.5,-24 100.5,-24 100.5,-12 100.5,-12 100.5,-6 106.5,0 112.5,0 112.5,0 181.5,0 181.5,0 187.5,0 193.5,-6 193.5,-12 193.5,-12 193.5,-24 193.5,-24 193.5,-30 187.5,-36 181.5,-36"/>
<text text-anchor="start" x="119.5" y="-20.4" font-family="RobotoMono" font-weight="bold" font-size="12.00" fill="#002b36">output_0</text>
<text text-anchor="start" x="108.5" y="-10" font-family="RobotoMono" font-size="10.00" fill="#268bd2">4 values (4 sinks)</text>
</g>
<!-- scale -->
<g id="node2" class="node">
<title>scale</title>
<path fill="none" stroke="#268bd2" d="M94,-420C94,-420 12,-420 12,-420 6,-420 0,-414 0,-408 0,-408 0,-396 0,-396 0,-390 6,-384 12,-384 12,-384 94,-384 94,-384 100,-384 106,-390 106,-396 106,-396 106,-408 106,-408 106,-414 100,-420 94,-420"/>
<text text-anchor="start" x="37.5" y="-404.4" font-family="RobotoMono" font-weight="bold" font-size="12.00" fill="#002b36">scale</text>
<text text-anchor="start" x="8" y="-394" font-family="RobotoMono" font-size="10.00" fill="#268bd2">2 values (2 sources)</text>
</g>
<!-- eval_model -->
<g id="node7" class="node">
<title>eval_model</title>
<path fill="none" stroke="#dc322f" d="M209,-134C209,-134 85,-134 85,-134 79,-134 73,-128 73,-122 73,-122 73,-106 73,-106 73,-100 79,-94 85,-94 85,-94 209,-94 209,-94 215,-94 221,-100 221,-106 221,-106 221,-122 221,-122 221,-128 215,-134 209,-134"/>
<text text-anchor="start" x="113" y="-121.4" font-family="RobotoMono" font-weight="bold" font-size="12.00" fill="#002b36">eval_model</text>
<text text-anchor="start" x="81" y="-111" font-family="RobotoMono" font-size="10.00" fill="#002b36">@op:eval_model (3 versions)</text>
<text text-anchor="start" x="133" y="-101" font-family="RobotoMono" font-size="10.00" fill="#dc322f">4 calls</text>
</g>
<!-- scale&#45;&gt;eval_model -->
<g id="edge2" class="edge">
<title>scale&#45;&gt;eval_model</title>
<path fill="none" stroke="#002b36" d="M55.69,-383.95C60.51,-355.08 71.64,-294.93 88,-246 100.26,-209.34 119.29,-169.06 132.41,-142.98"/>
<polygon fill="#002b36" stroke="#002b36" points="135.54,-144.54 136.95,-134.04 129.3,-141.37 135.54,-144.54"/>
<text text-anchor="middle" x="110" y="-260" font-family="RobotoMono" font-size="10.00" fill="#002b36">scale</text>
<text text-anchor="middle" x="110" y="-249" font-family="RobotoMono" font-size="10.00" fill="#002b36">(2 values)</text>
</g>
<!-- train_model -->
<g id="node8" class="node">
<title>train_model</title>
<path fill="none" stroke="#dc322f" d="M288.5,-326C288.5,-326 161.5,-326 161.5,-326 155.5,-326 149.5,-320 149.5,-314 149.5,-314 149.5,-298 149.5,-298 149.5,-292 155.5,-286 161.5,-286 161.5,-286 288.5,-286 288.5,-286 294.5,-286 300.5,-292 300.5,-298 300.5,-298 300.5,-314 300.5,-314 300.5,-320 294.5,-326 288.5,-326"/>
<text text-anchor="start" x="188.5" y="-313.4" font-family="RobotoMono" font-weight="bold" font-size="12.00" fill="#002b36">train_model</text>
<text text-anchor="start" x="157.5" y="-303" font-family="RobotoMono" font-size="10.00" fill="#002b36">@op:train_model (3 versions)</text>
<text text-anchor="start" x="211" y="-293" font-family="RobotoMono" font-size="10.00" fill="#dc322f">4 calls</text>
</g>
<!-- scale&#45;&gt;train_model -->
<g id="edge3" class="edge">
<title>scale&#45;&gt;train_model</title>
<path fill="none" stroke="#002b36" d="M70.48,-383.95C83.95,-371.54 103.5,-355.05 123,-344 132.28,-338.74 142.46,-333.99 152.67,-329.79"/>
<polygon fill="#002b36" stroke="#002b36" points="154.02,-333.02 162.03,-326.09 151.44,-326.51 154.02,-333.02"/>
<text text-anchor="middle" x="145" y="-358" font-family="RobotoMono" font-size="10.00" fill="#002b36">scale</text>
<text text-anchor="middle" x="145" y="-347" font-family="RobotoMono" font-size="10.00" fill="#002b36">(2 values)</text>
</g>
<!-- X -->
<g id="node3" class="node">
<title>X</title>
<path fill="none" stroke="#268bd2" d="M179,-420C179,-420 149,-420 149,-420 143,-420 137,-414 137,-408 137,-408 137,-396 137,-396 137,-390 143,-384 149,-384 149,-384 179,-384 179,-384 185,-384 191,-390 191,-396 191,-396 191,-408 191,-408 191,-414 185,-420 179,-420"/>
<text text-anchor="start" x="159.5" y="-404.4" font-family="RobotoMono" font-weight="bold" font-size="12.00" fill="#002b36">X</text>
<text text-anchor="start" x="145" y="-394" font-family="RobotoMono" font-size="10.00" fill="#268bd2">2 values</text>
</g>
<!-- X&#45;&gt;eval_model -->
<g id="edge5" class="edge">
<title>X&#45;&gt;eval_model</title>
<path fill="none" stroke="#002b36" d="M157.1,-383.76C151.5,-368.78 144.05,-346.34 141,-326 131.35,-261.62 137.98,-185 142.94,-144.12"/>
<polygon fill="#002b36" stroke="#002b36" points="146.44,-144.41 144.22,-134.05 139.49,-143.53 146.44,-144.41"/>
<text text-anchor="middle" x="158" y="-260" font-family="RobotoMono" font-size="10.00" fill="#002b36">X</text>
<text text-anchor="middle" x="158" y="-249" font-family="RobotoMono" font-size="10.00" fill="#002b36">(2 values)</text>
</g>
<!-- X&#45;&gt;train_model -->
<g id="edge6" class="edge">
<title>X&#45;&gt;train_model</title>
<path fill="none" stroke="#002b36" d="M166.42,-383.94C168.73,-372 173.07,-356.09 181,-344 183.47,-340.24 186.43,-336.65 189.64,-333.3"/>
<polygon fill="#002b36" stroke="#002b36" points="192.12,-335.77 196.96,-326.35 187.3,-330.7 192.12,-335.77"/>
<text text-anchor="middle" x="203" y="-358" font-family="RobotoMono" font-size="10.00" fill="#002b36">X</text>
<text text-anchor="middle" x="203" y="-347" font-family="RobotoMono" font-size="10.00" fill="#002b36">(2 values)</text>
</g>
<!-- model -->
<g id="node4" class="node">
<title>model</title>
<path fill="none" stroke="#268bd2" d="M207,-228C207,-228 177,-228 177,-228 171,-228 165,-222 165,-216 165,-216 165,-204 165,-204 165,-198 171,-192 177,-192 177,-192 207,-192 207,-192 213,-192 219,-198 219,-204 219,-204 219,-216 219,-216 219,-222 213,-228 207,-228"/>
<text text-anchor="start" x="173" y="-212.4" font-family="RobotoMono" font-weight="bold" font-size="12.00" fill="#002b36">model</text>
<text text-anchor="start" x="173" y="-202" font-family="RobotoMono" font-size="10.00" fill="#268bd2">4 values</text>
</g>
<!-- model&#45;&gt;eval_model -->
<g id="edge4" class="edge">
<title>model&#45;&gt;eval_model</title>
<path fill="none" stroke="#002b36" d="M183.75,-191.76C177.27,-178.24 168.13,-159.14 160.58,-143.38"/>
<polygon fill="#002b36" stroke="#002b36" points="163.61,-141.58 156.13,-134.07 157.29,-144.6 163.61,-141.58"/>
<text text-anchor="middle" x="196" y="-166" font-family="RobotoMono" font-size="10.00" fill="#002b36">model</text>
<text text-anchor="middle" x="196" y="-155" font-family="RobotoMono" font-size="10.00" fill="#002b36">(4 values)</text>
</g>
<!-- y -->
<g id="node5" class="node">
<title>y</title>
<path fill="none" stroke="#268bd2" d="M251,-420C251,-420 221,-420 221,-420 215,-420 209,-414 209,-408 209,-408 209,-396 209,-396 209,-390 215,-384 221,-384 221,-384 251,-384 251,-384 257,-384 263,-390 263,-396 263,-396 263,-408 263,-408 263,-414 257,-420 251,-420"/>
<text text-anchor="start" x="232.5" y="-404.4" font-family="RobotoMono" font-weight="bold" font-size="12.00" fill="#002b36">y</text>
<text text-anchor="start" x="217" y="-394" font-family="RobotoMono" font-size="10.00" fill="#268bd2">2 values</text>
</g>
<!-- y&#45;&gt;eval_model -->
<g id="edge7" class="edge">
<title>y&#45;&gt;eval_model</title>
<path fill="none" stroke="#002b36" d="M259.16,-383.75C265.84,-378.36 272.95,-372.2 279,-366 305.64,-338.72 320.92,-322.53 310,-286 289.59,-217.74 275.38,-199.2 222,-152 216.62,-147.24 210.51,-142.94 204.16,-139.09"/>
<polygon fill="#002b36" stroke="#002b36" points="205.83,-136.01 195.4,-134.13 202.38,-142.11 205.83,-136.01"/>
<text text-anchor="middle" x="326" y="-260" font-family="RobotoMono" font-size="10.00" fill="#002b36">y</text>
<text text-anchor="middle" x="326" y="-249" font-family="RobotoMono" font-size="10.00" fill="#002b36">(2 values)</text>
</g>
<!-- y&#45;&gt;train_model -->
<g id="edge8" class="edge">
<title>y&#45;&gt;train_model</title>
<path fill="none" stroke="#002b36" d="M233.98,-383.76C232.43,-370.5 230.25,-351.86 228.43,-336.27"/>
<polygon fill="#002b36" stroke="#002b36" points="231.87,-335.6 227.23,-326.07 224.92,-336.41 231.87,-335.6"/>
<text text-anchor="middle" x="253" y="-358" font-family="RobotoMono" font-size="10.00" fill="#002b36">y</text>
<text text-anchor="middle" x="253" y="-347" font-family="RobotoMono" font-size="10.00" fill="#002b36">(2 values)</text>
</g>
<!-- load_data -->
<g id="node6" class="node">
<title>load_data</title>
<path fill="none" stroke="#dc322f" d="M257,-518C257,-518 141,-518 141,-518 135,-518 129,-512 129,-506 129,-506 129,-490 129,-490 129,-484 135,-478 141,-478 141,-478 257,-478 257,-478 263,-478 269,-484 269,-490 269,-490 269,-506 269,-506 269,-512 263,-518 257,-518"/>
<text text-anchor="start" x="169" y="-505.4" font-family="RobotoMono" font-weight="bold" font-size="12.00" fill="#002b36">load_data</text>
<text text-anchor="start" x="137" y="-495" font-family="RobotoMono" font-size="10.00" fill="#002b36">@op:load_data (2 versions)</text>
<text text-anchor="start" x="185" y="-485" font-family="RobotoMono" font-size="10.00" fill="#dc322f">2 calls</text>
</g>
<!-- load_data&#45;&gt;X -->
<g id="edge9" class="edge">
<title>load_data&#45;&gt;X</title>
<path fill="none" stroke="#002b36" d="M179.07,-477.79C174.68,-472.46 170.57,-466.37 168,-460 164.28,-450.78 162.86,-440.03 162.51,-430.38"/>
<polygon fill="#002b36" stroke="#002b36" points="166.01,-430.07 162.5,-420.08 159.01,-430.08 166.01,-430.07"/>
<text text-anchor="middle" x="190" y="-452" font-family="RobotoMono" font-size="10.00" fill="#002b36">output_0</text>
<text text-anchor="middle" x="190" y="-441" font-family="RobotoMono" font-size="10.00" fill="#002b36">(2 values)</text>
</g>
<!-- load_data&#45;&gt;y -->
<g id="edge10" class="edge">
<title>load_data&#45;&gt;y</title>
<path fill="none" stroke="#002b36" d="M206.49,-477.98C211.96,-464.07 219.46,-445.03 225.52,-429.61"/>
<polygon fill="#002b36" stroke="#002b36" points="228.86,-430.68 229.27,-420.1 222.35,-428.12 228.86,-430.68"/>
<text text-anchor="middle" x="243" y="-452" font-family="RobotoMono" font-size="10.00" fill="#002b36">output_1</text>
<text text-anchor="middle" x="243" y="-441" font-family="RobotoMono" font-size="10.00" fill="#002b36">(2 values)</text>
</g>
<!-- eval_model&#45;&gt;output_0 -->
<g id="edge1" class="edge">
<title>eval_model&#45;&gt;output_0</title>
<path fill="none" stroke="#002b36" d="M147,-93.98C147,-80.34 147,-61.75 147,-46.5"/>
<polygon fill="#002b36" stroke="#002b36" points="150.5,-46.1 147,-36.1 143.5,-46.1 150.5,-46.1"/>
<text text-anchor="middle" x="169" y="-68" font-family="RobotoMono" font-size="10.00" fill="#002b36">output_0</text>
<text text-anchor="middle" x="169" y="-57" font-family="RobotoMono" font-size="10.00" fill="#002b36">(4 values)</text>
</g>
<!-- train_model&#45;&gt;model -->
<g id="edge11" class="edge">
<title>train_model&#45;&gt;model</title>
<path fill="none" stroke="#002b36" d="M218.32,-285.98C213.44,-272.07 206.75,-253.03 201.34,-237.61"/>
<polygon fill="#002b36" stroke="#002b36" points="204.62,-236.37 198,-228.1 198.01,-238.69 204.62,-236.37"/>
<text text-anchor="middle" x="233" y="-260" font-family="RobotoMono" font-size="10.00" fill="#002b36">output_0</text>
<text text-anchor="middle" x="233" y="-249" font-family="RobotoMono" font-size="10.00" fill="#002b36">(4 values)</text>
</g>
</g>
</svg>
