<?xml version="1.0" encoding="UTF-8" standalone="no"?>
<!DOCTYPE svg PUBLIC "-//W3C//DTD SVG 1.1//EN"
 "http://www.w3.org/Graphics/SVG/1.1/DTD/svg11.dtd">
<!-- Generated by graphviz version 2.50.0 (0)
 -->
<!-- Title: G Pages: 1 -->
<svg width="285pt" height="526pt"
 viewBox="0.00 0.00 285.31 526.00" xmlns="http://www.w3.org/2000/svg" xmlns:xlink="http://www.w3.org/1999/xlink">
<g id="graph0" class="graph" transform="scale(1 1) rotate(0) translate(4 522)">
<title>G</title>
<polygon fill="white" stroke="transparent" points="-4,4 -4,-522 281.31,-522 281.31,4 -4,4"/>
<!-- y -->
<g id="node1" class="node">
<title>y</title>
<path fill="none" stroke="#268bd2" d="M48.31,-420C48.31,-420 18.31,-420 18.31,-420 12.31,-420 6.31,-414 6.31,-408 6.31,-408 6.31,-396 6.31,-396 6.31,-390 12.31,-384 18.31,-384 18.31,-384 48.31,-384 48.31,-384 54.31,-384 60.31,-390 60.31,-396 60.31,-396 60.31,-408 60.31,-408 60.31,-414 54.31,-420 48.31,-420"/>
<text text-anchor="start" x="29.81" y="-404.4" font-family="RobotoMono" font-weight="bold" font-size="12.00" fill="#002b36">y</text>
<text text-anchor="start" x="14.31" y="-394" font-family="RobotoMono" font-size="10.00" fill="#268bd2">2 values</text>
</g>
<!-- eval_model -->
<g id="node6" class="node">
<title>eval_model</title>
<path fill="none" stroke="#dc322f" d="M241.31,-134C241.31,-134 117.31,-134 117.31,-134 111.31,-134 105.31,-128 105.31,-122 105.31,-122 105.31,-106 105.31,-106 105.31,-100 111.31,-94 117.31,-94 117.31,-94 241.31,-94 241.31,-94 247.31,-94 253.31,-100 253.31,-106 253.31,-106 253.31,-122 253.31,-122 253.31,-128 247.31,-134 241.31,-134"/>
<text text-anchor="start" x="145.31" y="-121.4" font-family="RobotoMono" font-weight="bold" font-size="12.00" fill="#002b36">eval_model</text>
<text text-anchor="start" x="113.31" y="-111" font-family="RobotoMono" font-size="10.00" fill="#002b36">@op:eval_model (3 versions)</text>
<text text-anchor="start" x="165.31" y="-101" font-family="RobotoMono" font-size="10.00" fill="#dc322f">4 calls</text>
</g>
<!-- y&#45;&gt;eval_model -->
<g id="edge5" class="edge">
<title>y&#45;&gt;eval_model</title>
<path fill="none" stroke="#002b36" d="M22.7,-383.9C9.99,-361.14 -8.13,-319.82 4.31,-286 28.51,-220.22 94.22,-168.2 137.87,-139.53"/>
<polygon fill="#002b36" stroke="#002b36" points="139.77,-142.46 146.29,-134.1 135.98,-136.58 139.77,-142.46"/>
<text text-anchor="middle" x="46.31" y="-260" font-family="RobotoMono" font-size="10.00" fill="#002b36">y</text>
<text text-anchor="middle" x="46.31" y="-249" font-family="RobotoMono" font-size="10.00" fill="#002b36">(2 values)</text>
</g>
<!-- train_model -->
<g id="node7" class="node">
<title>train_model</title>
<path fill="none" stroke="#dc322f" d="M152.81,-326C152.81,-326 25.81,-326 25.81,-326 19.81,-326 13.81,-320 13.81,-314 13.81,-314 13.81,-298 13.81,-298 13.81,-292 19.81,-286 25.81,-286 25.81,-286 152.81,-286 152.81,-286 158.81,-286 164.81,-292 164.81,-298 164.81,-298 164.81,-314 164.81,-314 164.81,-320 158.81,-326 152.81,-326"/>
<text text-anchor="start" x="52.81" y="-313.4" font-family="RobotoMono" font-weight="bold" font-size="12.00" fill="#002b36">train_model</text>
<text text-anchor="start" x="21.81" y="-303" font-family="RobotoMono" font-size="10.00" fill="#002b36">@op:train_model (3 versions)</text>
<text text-anchor="start" x="75.31" y="-293" font-family="RobotoMono" font-size="10.00" fill="#dc322f">4 calls</text>
</g>
<!-- y&#45;&gt;train_model -->
<g id="edge6" class="edge">
<title>y&#45;&gt;train_model</title>
<path fill="none" stroke="#002b36" d="M39.34,-383.91C43.8,-372.24 50.45,-356.67 58.31,-344 60.39,-340.65 62.75,-337.28 65.22,-334.02"/>
<polygon fill="#002b36" stroke="#002b36" points="67.98,-336.17 71.48,-326.18 62.51,-331.81 67.98,-336.17"/>
<text text-anchor="middle" x="80.31" y="-358" font-family="RobotoMono" font-size="10.00" fill="#002b36">y</text>
<text text-anchor="middle" x="80.31" y="-347" font-family="RobotoMono" font-size="10.00" fill="#002b36">(2 values)</text>
</g>
<!-- X -->
<g id="node2" class="node">
<title>X</title>
<path fill="none" stroke="#268bd2" d="M244.31,-420C244.31,-420 214.31,-420 214.31,-420 208.31,-420 202.31,-414 202.31,-408 202.31,-408 202.31,-396 202.31,-396 202.31,-390 208.31,-384 214.31,-384 214.31,-384 244.31,-384 244.31,-384 250.31,-384 256.31,-390 256.31,-396 256.31,-396 256.31,-408 256.31,-408 256.31,-414 250.31,-420 244.31,-420"/>
<text text-anchor="start" x="224.81" y="-404.4" font-family="RobotoMono" font-weight="bold" font-size="12.00" fill="#002b36">X</text>
<text text-anchor="start" x="210.31" y="-394" font-family="RobotoMono" font-size="10.00" fill="#268bd2">2 values</text>
</g>
<!-- X&#45;&gt;eval_model -->
<g id="edge7" class="edge">
<title>X&#45;&gt;eval_model</title>
<path fill="none" stroke="#002b36" d="M234.67,-383.72C236.16,-378.12 237.57,-371.85 238.31,-366 239.54,-356.3 238.76,-353.77 238.31,-344 236.31,-300.31 238.83,-288.69 229.31,-246 219.65,-202.64 211.69,-193.3 195.31,-152 194.22,-149.26 193.06,-146.41 191.87,-143.57"/>
<polygon fill="#002b36" stroke="#002b36" points="194.98,-141.94 187.84,-134.11 188.54,-144.68 194.98,-141.94"/>
<text text-anchor="middle" x="255.31" y="-260" font-family="RobotoMono" font-size="10.00" fill="#002b36">X</text>
<text text-anchor="middle" x="255.31" y="-249" font-family="RobotoMono" font-size="10.00" fill="#002b36">(2 values)</text>
</g>
<!-- X&#45;&gt;train_model -->
<g id="edge8" class="edge">
<title>X&#45;&gt;train_model</title>
<path fill="none" stroke="#002b36" d="M211.47,-383.79C198.48,-371.78 180.11,-355.84 162.31,-344 155.34,-339.36 147.71,-334.9 140.09,-330.77"/>
<polygon fill="#002b36" stroke="#002b36" points="141.68,-327.65 131.2,-326.1 138.42,-333.85 141.68,-327.65"/>
<text text-anchor="middle" x="212.31" y="-358" font-family="RobotoMono" font-size="10.00" fill="#002b36">X</text>
<text text-anchor="middle" x="212.31" y="-347" font-family="RobotoMono" font-size="10.00" fill="#002b36">(2 values)</text>
</g>
<!-- output_0 -->
<g id="node3" class="node">
<title>output_0</title>
<path fill="none" stroke="#268bd2" d="M213.81,-36C213.81,-36 144.81,-36 144.81,-36 138.81,-36 132.81,-30 132.81,-24 132.81,-24 132.81,-12 132.81,-12 132.81,-6 138.81,0 144.81,0 144.81,0 213.81,0 213.81,0 219.81,0 225.81,-6 225.81,-12 225.81,-12 225.81,-24 225.81,-24 225.81,-30 219.81,-36 213.81,-36"/>
<text text-anchor="start" x="151.81" y="-20.4" font-family="RobotoMono" font-weight="bold" font-size="12.00" fill="#002b36">output_0</text>
<text text-anchor="start" x="140.81" y="-10" font-family="RobotoMono" font-size="10.00" fill="#268bd2">4 values (4 sinks)</text>
</g>
<!-- scale -->
<g id="node4" class="node">
<title>scale</title>
<path fill="none" stroke="#268bd2" d="M172.31,-420C172.31,-420 90.31,-420 90.31,-420 84.31,-420 78.31,-414 78.31,-408 78.31,-408 78.31,-396 78.31,-396 78.31,-390 84.31,-384 90.31,-384 90.31,-384 172.31,-384 172.31,-384 178.31,-384 184.31,-390 184.31,-396 184.31,-396 184.31,-408 184.31,-408 184.31,-414 178.31,-420 172.31,-420"/>
<text text-anchor="start" x="115.81" y="-404.4" font-family="RobotoMono" font-weight="bold" font-size="12.00" fill="#002b36">scale</text>
<text text-anchor="start" x="86.31" y="-394" font-family="RobotoMono" font-size="10.00" fill="#268bd2">2 values (2 sources)</text>
</g>
<!-- scale&#45;&gt;eval_model -->
<g id="edge3" class="edge">
<title>scale&#45;&gt;eval_model</title>
<path fill="none" stroke="#002b36" d="M149.03,-383.99C153.87,-378.6 158.76,-372.38 162.31,-366 171.34,-349.78 171.31,-344.32 174.31,-326 184.82,-261.77 183.15,-185.09 181.15,-144.16"/>
<polygon fill="#002b36" stroke="#002b36" points="184.64,-143.88 180.61,-134.08 177.65,-144.25 184.64,-143.88"/>
<text text-anchor="middle" x="203.31" y="-260" font-family="RobotoMono" font-size="10.00" fill="#002b36">scale</text>
<text text-anchor="middle" x="203.31" y="-249" font-family="RobotoMono" font-size="10.00" fill="#002b36">(2 values)</text>
</g>
<!-- scale&#45;&gt;train_model -->
<g id="edge4" class="edge">
<title>scale&#45;&gt;train_model</title>
<path fill="none" stroke="#002b36" d="M123.61,-383.76C117.57,-370.24 109.03,-351.14 101.99,-335.38"/>
<polygon fill="#002b36" stroke="#002b36" points="105.11,-333.77 97.83,-326.07 98.72,-336.63 105.11,-333.77"/>
<text text-anchor="middle" x="136.31" y="-358" font-family="RobotoMono" font-size="10.00" fill="#002b36">scale</text>
<text text-anchor="middle" x="136.31" y="-347" font-family="RobotoMono" font-size="10.00" fill="#002b36">(2 values)</text>
</g>
<!-- model -->
<g id="node5" class="node">
<title>model</title>
<path fill="none" stroke="#268bd2" d="M135.31,-228C135.31,-228 105.31,-228 105.31,-228 99.31,-228 93.31,-222 93.31,-216 93.31,-216 93.31,-204 93.31,-204 93.31,-198 99.31,-192 105.31,-192 105.31,-192 135.31,-192 135.31,-192 141.31,-192 147.31,-198 147.31,-204 147.31,-204 147.31,-216 147.31,-216 147.31,-222 141.31,-228 135.31,-228"/>
<text text-anchor="start" x="101.31" y="-212.4" font-family="RobotoMono" font-weight="bold" font-size="12.00" fill="#002b36">model</text>
<text text-anchor="start" x="101.31" y="-202" font-family="RobotoMono" font-size="10.00" fill="#268bd2">4 values</text>
</g>
<!-- model&#45;&gt;eval_model -->
<g id="edge2" class="edge">
<title>model&#45;&gt;eval_model</title>
<path fill="none" stroke="#002b36" d="M122.04,-191.95C123.88,-180.02 127.65,-164.1 135.31,-152 137.72,-148.2 140.64,-144.59 143.83,-141.22"/>
<polygon fill="#002b36" stroke="#002b36" points="146.31,-143.69 151.12,-134.25 141.47,-138.63 146.31,-143.69"/>
<text text-anchor="middle" x="157.31" y="-166" font-family="RobotoMono" font-size="10.00" fill="#002b36">model</text>
<text text-anchor="middle" x="157.31" y="-155" font-family="RobotoMono" font-size="10.00" fill="#002b36">(4 values)</text>
</g>
<!-- eval_model&#45;&gt;output_0 -->
<g id="edge1" class="edge">
<title>eval_model&#45;&gt;output_0</title>
<path fill="none" stroke="#002b36" d="M179.31,-93.98C179.31,-80.34 179.31,-61.75 179.31,-46.5"/>
<polygon fill="#002b36" stroke="#002b36" points="182.81,-46.1 179.31,-36.1 175.81,-46.1 182.81,-46.1"/>
<text text-anchor="middle" x="201.31" y="-68" font-family="RobotoMono" font-size="10.00" fill="#002b36">output_0</text>
<text text-anchor="middle" x="201.31" y="-57" font-family="RobotoMono" font-size="10.00" fill="#002b36">(4 values)</text>
</g>
<!-- train_model&#45;&gt;model -->
<g id="edge11" class="edge">
<title>train_model&#45;&gt;model</title>
<path fill="none" stroke="#002b36" d="M95.58,-285.98C100.17,-272.07 106.45,-253.03 111.53,-237.61"/>
<polygon fill="#002b36" stroke="#002b36" points="114.86,-238.69 114.67,-228.1 108.22,-236.5 114.86,-238.69"/>
<text text-anchor="middle" x="130.31" y="-260" font-family="RobotoMono" font-size="10.00" fill="#002b36">output_0</text>
<text text-anchor="middle" x="130.31" y="-249" font-family="RobotoMono" font-size="10.00" fill="#002b36">(4 values)</text>
</g>
<!-- load_data -->
<g id="node8" class="node">
<title>load_data</title>
<path fill="none" stroke="#dc322f" d="M188.31,-518C188.31,-518 72.31,-518 72.31,-518 66.31,-518 60.31,-512 60.31,-506 60.31,-506 60.31,-490 60.31,-490 60.31,-484 66.31,-478 72.31,-478 72.31,-478 188.31,-478 188.31,-478 194.31,-478 200.31,-484 200.31,-490 200.31,-490 200.31,-506 200.31,-506 200.31,-512 194.31,-518 188.31,-518"/>
<text text-anchor="start" x="100.31" y="-505.4" font-family="RobotoMono" font-weight="bold" font-size="12.00" fill="#002b36">load_data</text>
<text text-anchor="start" x="68.31" y="-495" font-family="RobotoMono" font-size="10.00" fill="#002b36">@op:load_data (2 versions)</text>
<text text-anchor="start" x="116.31" y="-485" font-family="RobotoMono" font-size="10.00" fill="#dc322f">2 calls</text>
</g>
<!-- load_data&#45;&gt;y -->
<g id="edge10" class="edge">
<title>load_data&#45;&gt;y</title>
<path fill="none" stroke="#002b36" d="M110.68,-477.98C95.65,-463.41 74.8,-443.2 58.53,-427.44"/>
<polygon fill="#002b36" stroke="#002b36" points="60.57,-424.54 50.95,-420.1 55.7,-429.57 60.57,-424.54"/>
<text text-anchor="middle" x="113.31" y="-452" font-family="RobotoMono" font-size="10.00" fill="#002b36">output_1</text>
<text text-anchor="middle" x="113.31" y="-441" font-family="RobotoMono" font-size="10.00" fill="#002b36">(2 values)</text>
</g>
<!-- load_data&#45;&gt;X -->
<g id="edge9" class="edge">
<title>load_data&#45;&gt;X</title>
<path fill="none" stroke="#002b36" d="M150.35,-477.98C165.83,-463.28 187.36,-442.83 204.03,-427.01"/>
<polygon fill="#002b36" stroke="#002b36" points="206.46,-429.52 211.3,-420.1 201.64,-424.45 206.46,-429.52"/>
<text text-anchor="middle" x="213.31" y="-452" font-family="RobotoMono" font-size="10.00" fill="#002b36">output_0</text>
<text text-anchor="middle" x="213.31" y="-441" font-family="RobotoMono" font-size="10.00" fill="#002b36">(2 values)</text>
</g>
</g>
</svg>
