<?xml version="1.0" encoding="UTF-8" standalone="no"?>
<!DOCTYPE svg PUBLIC "-//W3C//DTD SVG 1.1//EN"
 "http://www.w3.org/Graphics/SVG/1.1/DTD/svg11.dtd">
<!-- Generated by graphviz version 2.50.0 (0)
 -->
<!-- Title: G Pages: 1 -->
<svg width="737pt" height="746pt"
 viewBox="0.00 0.00 737.00 746.00" xmlns="http://www.w3.org/2000/svg" xmlns:xlink="http://www.w3.org/1999/xlink">
<g id="graph0" class="graph" transform="scale(1 1) rotate(0) translate(4 742)">
<title>G</title>
<polygon fill="white" stroke="transparent" points="-4,4 -4,-742 733,-742 733,4 -4,4"/>
<!-- y_test -->
<g id="node1" class="node">
<title>y_test</title>
<path fill="none" stroke="#268bd2" stroke-width="1.5" d="M42,-394C42,-394 12,-394 12,-394 6,-394 0,-388 0,-382 0,-382 0,-370 0,-370 0,-364 6,-358 12,-358 12,-358 42,-358 42,-358 48,-358 54,-364 54,-370 54,-370 54,-382 54,-382 54,-388 48,-394 42,-394"/>
<text text-anchor="start" x="9.5" y="-378.4" font-family="Liberation Sans,Helvetica,Arial,sans-serif" font-weight="bold" font-size="12.00" fill="#002b36">y_test</text>
<text text-anchor="start" x="8.5" y="-368" font-family="Liberation Sans,Helvetica,Arial,sans-serif" font-size="10.00" fill="#268bd2">2 values</text>
</g>
<!-- eval_model -->
<g id="node15" class="node">
<title>eval_model</title>
<path fill="none" stroke="#dc322f" stroke-width="1.5" d="M378,-134C378,-134 312,-134 312,-134 306,-134 300,-128 300,-122 300,-122 300,-106 300,-106 300,-100 306,-94 312,-94 312,-94 378,-94 378,-94 384,-94 390,-100 390,-106 390,-106 390,-122 390,-122 390,-128 384,-134 378,-134"/>
<text text-anchor="start" x="312" y="-121.4" font-family="Liberation Sans,Helvetica,Arial,sans-serif" font-weight="bold" font-size="12.00" fill="#002b36">eval_model</text>
<text text-anchor="start" x="308" y="-111" font-family="Liberation Sans,Helvetica,Arial,sans-serif" font-size="10.00" fill="#002b36">@op:eval_model</text>
<text text-anchor="start" x="330.5" y="-101" font-family="Liberation Sans,Helvetica,Arial,sans-serif" font-size="10.00" fill="#dc322f">4 calls</text>
</g>
<!-- y_test&#45;&gt;eval_model -->
<g id="edge4" class="edge">
<title>y_test&#45;&gt;eval_model</title>
<path fill="none" stroke="#002b36" d="M47.86,-357.94C102.33,-313.41 249.02,-193.47 313.67,-140.61"/>
<polygon fill="#002b36" stroke="#002b36" points="315.98,-143.25 321.5,-134.21 311.55,-137.83 315.98,-143.25"/>
<text text-anchor="middle" x="203.5" y="-267" font-family="Liberation Sans,Helvetica,Arial,sans-serif" font-size="10.00" fill="#002b36">y_test</text>
<text text-anchor="middle" x="203.5" y="-256" font-family="Liberation Sans,Helvetica,Arial,sans-serif" font-size="10.00" fill="#002b36">(2 values)</text>
</g>
<!-- X -->
<g id="node2" class="node">
<title>X</title>
<path fill="none" stroke="#268bd2" stroke-width="1.5" d="M448,-640C448,-640 418,-640 418,-640 412,-640 406,-634 406,-628 406,-628 406,-616 406,-616 406,-610 412,-604 418,-604 418,-604 448,-604 448,-604 454,-604 460,-610 460,-616 460,-616 460,-628 460,-628 460,-634 454,-640 448,-640"/>
<text text-anchor="start" x="428.5" y="-624.4" font-family="Liberation Sans,Helvetica,Arial,sans-serif" font-weight="bold" font-size="12.00" fill="#002b36">X</text>
<text text-anchor="start" x="414.5" y="-614" font-family="Liberation Sans,Helvetica,Arial,sans-serif" font-size="10.00" fill="#268bd2">2 values</text>
</g>
<!-- scale_data -->
<g id="node14" class="node">
<title>scale_data</title>
<path fill="none" stroke="#dc322f" stroke-width="1.5" d="M511,-546C511,-546 447,-546 447,-546 441,-546 435,-540 435,-534 435,-534 435,-518 435,-518 435,-512 441,-506 447,-506 447,-506 511,-506 511,-506 517,-506 523,-512 523,-518 523,-518 523,-534 523,-534 523,-540 517,-546 511,-546"/>
<text text-anchor="start" x="448" y="-533.4" font-family="Liberation Sans,Helvetica,Arial,sans-serif" font-weight="bold" font-size="12.00" fill="#002b36">scale_data</text>
<text text-anchor="start" x="443" y="-523" font-family="Liberation Sans,Helvetica,Arial,sans-serif" font-size="10.00" fill="#002b36">@op:scale_data</text>
<text text-anchor="start" x="464.5" y="-513" font-family="Liberation Sans,Helvetica,Arial,sans-serif" font-size="10.00" fill="#dc322f">1 calls</text>
</g>
<!-- X&#45;&gt;scale_data -->
<g id="edge9" class="edge">
<title>X&#45;&gt;scale_data</title>
<path fill="none" stroke="#002b36" d="M435.91,-603.86C438.34,-592.18 442.48,-576.6 449,-564 450.7,-560.72 452.71,-557.46 454.89,-554.32"/>
<polygon fill="#002b36" stroke="#002b36" points="457.69,-556.41 460.89,-546.31 452.09,-552.21 457.69,-556.41"/>
<text text-anchor="middle" x="470.5" y="-578" font-family="Liberation Sans,Helvetica,Arial,sans-serif" font-size="10.00" fill="#002b36">X</text>
<text text-anchor="middle" x="470.5" y="-567" font-family="Liberation Sans,Helvetica,Arial,sans-serif" font-size="10.00" fill="#002b36">(1 values)</text>
</g>
<!-- get_train_test_split -->
<g id="node18" class="node">
<title>get_train_test_split</title>
<path fill="none" stroke="#dc322f" stroke-width="1.5" d="M401.5,-546C401.5,-546 300.5,-546 300.5,-546 294.5,-546 288.5,-540 288.5,-534 288.5,-534 288.5,-518 288.5,-518 288.5,-512 294.5,-506 300.5,-506 300.5,-506 401.5,-506 401.5,-506 407.5,-506 413.5,-512 413.5,-518 413.5,-518 413.5,-534 413.5,-534 413.5,-540 407.5,-546 401.5,-546"/>
<text text-anchor="start" x="296.5" y="-533.4" font-family="Liberation Sans,Helvetica,Arial,sans-serif" font-weight="bold" font-size="12.00" fill="#002b36">get_train_test_split</text>
<text text-anchor="start" x="297.5" y="-523" font-family="Liberation Sans,Helvetica,Arial,sans-serif" font-size="10.00" fill="#002b36">@op:get_train_test_split</text>
<text text-anchor="start" x="336.5" y="-513" font-family="Liberation Sans,Helvetica,Arial,sans-serif" font-size="10.00" fill="#dc322f">2 calls</text>
</g>
<!-- X&#45;&gt;get_train_test_split -->
<g id="edge10" class="edge">
<title>X&#45;&gt;get_train_test_split</title>
<path fill="none" stroke="#002b36" d="M411.38,-603.71C405.17,-598.31 398.57,-592.16 393,-586 384.32,-576.41 375.84,-565 368.79,-554.78"/>
<polygon fill="#002b36" stroke="#002b36" points="371.49,-552.52 363,-546.18 365.69,-556.43 371.49,-552.52"/>
<text text-anchor="middle" x="414.5" y="-578" font-family="Liberation Sans,Helvetica,Arial,sans-serif" font-size="10.00" fill="#002b36">X</text>
<text text-anchor="middle" x="414.5" y="-567" font-family="Liberation Sans,Helvetica,Arial,sans-serif" font-size="10.00" fill="#002b36">(2 values)</text>
</g>
<!-- accuracy -->
<g id="node3" class="node">
<title>accuracy</title>
<path fill="none" stroke="#268bd2" stroke-width="1.5" d="M380,-36C380,-36 310,-36 310,-36 304,-36 298,-30 298,-24 298,-24 298,-12 298,-12 298,-6 304,0 310,0 310,0 380,0 380,0 386,0 392,-6 392,-12 392,-12 392,-24 392,-24 392,-30 386,-36 380,-36"/>
<text text-anchor="start" x="318.5" y="-20.4" font-family="Liberation Sans,Helvetica,Arial,sans-serif" font-weight="bold" font-size="12.00" fill="#002b36">accuracy</text>
<text text-anchor="start" x="306" y="-10" font-family="Liberation Sans,Helvetica,Arial,sans-serif" font-size="10.00" fill="#268bd2">4 values (4 sinks)</text>
</g>
<!-- model -->
<g id="node4" class="node">
<title>model</title>
<path fill="none" stroke="#268bd2" stroke-width="1.5" d="M360,-228C360,-228 330,-228 330,-228 324,-228 318,-222 318,-216 318,-216 318,-204 318,-204 318,-198 324,-192 330,-192 330,-192 360,-192 360,-192 366,-192 372,-198 372,-204 372,-204 372,-216 372,-216 372,-222 366,-228 360,-228"/>
<text text-anchor="start" x="327" y="-212.4" font-family="Liberation Sans,Helvetica,Arial,sans-serif" font-weight="bold" font-size="12.00" fill="#002b36">model</text>
<text text-anchor="start" x="326.5" y="-202" font-family="Liberation Sans,Helvetica,Arial,sans-serif" font-size="10.00" fill="#268bd2">4 values</text>
</g>
<!-- model&#45;&gt;eval_model -->
<g id="edge3" class="edge">
<title>model&#45;&gt;eval_model</title>
<path fill="none" stroke="#002b36" d="M345,-191.76C345,-178.5 345,-159.86 345,-144.27"/>
<polygon fill="#002b36" stroke="#002b36" points="348.5,-144.07 345,-134.07 341.5,-144.07 348.5,-144.07"/>
<text text-anchor="middle" x="366.5" y="-166" font-family="Liberation Sans,Helvetica,Arial,sans-serif" font-size="10.00" fill="#002b36">model</text>
<text text-anchor="middle" x="366.5" y="-155" font-family="Liberation Sans,Helvetica,Arial,sans-serif" font-size="10.00" fill="#002b36">(4 values)</text>
</g>
<!-- n_estimators -->
<g id="node5" class="node">
<title>n_estimators</title>
<path fill="none" stroke="#268bd2" stroke-width="1.5" d="M528.5,-448C528.5,-448 447.5,-448 447.5,-448 441.5,-448 435.5,-442 435.5,-436 435.5,-436 435.5,-424 435.5,-424 435.5,-418 441.5,-412 447.5,-412 447.5,-412 528.5,-412 528.5,-412 534.5,-412 540.5,-418 540.5,-424 540.5,-424 540.5,-436 540.5,-436 540.5,-442 534.5,-448 528.5,-448"/>
<text text-anchor="start" x="450.5" y="-432.4" font-family="Liberation Sans,Helvetica,Arial,sans-serif" font-weight="bold" font-size="12.00" fill="#002b36">n_estimators</text>
<text text-anchor="start" x="443.5" y="-422" font-family="Liberation Sans,Helvetica,Arial,sans-serif" font-size="10.00" fill="#268bd2">1 values (1 sources)</text>
</g>
<!-- train_random_forest -->
<g id="node17" class="node">
<title>train_random_forest</title>
<path fill="none" stroke="#dc322f" stroke-width="1.5" d="M498.5,-340C498.5,-340 389.5,-340 389.5,-340 383.5,-340 377.5,-334 377.5,-328 377.5,-328 377.5,-312 377.5,-312 377.5,-306 383.5,-300 389.5,-300 389.5,-300 498.5,-300 498.5,-300 504.5,-300 510.5,-306 510.5,-312 510.5,-312 510.5,-328 510.5,-328 510.5,-334 504.5,-340 498.5,-340"/>
<text text-anchor="start" x="385.5" y="-327.4" font-family="Liberation Sans,Helvetica,Arial,sans-serif" font-weight="bold" font-size="12.00" fill="#002b36">train_random_forest</text>
<text text-anchor="start" x="388.5" y="-317" font-family="Liberation Sans,Helvetica,Arial,sans-serif" font-size="10.00" fill="#002b36">@op:train_random_forest</text>
<text text-anchor="start" x="429.5" y="-307" font-family="Liberation Sans,Helvetica,Arial,sans-serif" font-size="10.00" fill="#dc322f">2 calls</text>
</g>
<!-- n_estimators&#45;&gt;train_random_forest -->
<g id="edge16" class="edge">
<title>n_estimators&#45;&gt;train_random_forest</title>
<path fill="none" stroke="#002b36" d="M491.92,-411.78C494.43,-396.83 495.91,-374.98 488,-358 486.29,-354.34 484.03,-350.91 481.42,-347.73"/>
<polygon fill="#002b36" stroke="#002b36" points="483.81,-345.17 474.37,-340.36 478.75,-350 483.81,-345.17"/>
<text text-anchor="middle" x="521.5" y="-379" font-family="Liberation Sans,Helvetica,Arial,sans-serif" font-size="10.00" fill="#002b36">n_estimators</text>
<text text-anchor="middle" x="521.5" y="-368" font-family="Liberation Sans,Helvetica,Arial,sans-serif" font-size="10.00" fill="#002b36">(1 values)</text>
</g>
<!-- X_test -->
<g id="node6" class="node">
<title>X_test</title>
<path fill="none" stroke="#268bd2" stroke-width="1.5" d="M614,-282C614,-282 584,-282 584,-282 578,-282 572,-276 572,-270 572,-270 572,-258 572,-258 572,-252 578,-246 584,-246 584,-246 614,-246 614,-246 620,-246 626,-252 626,-258 626,-258 626,-270 626,-270 626,-276 620,-282 614,-282"/>
<text text-anchor="start" x="580.5" y="-266.4" font-family="Liberation Sans,Helvetica,Arial,sans-serif" font-weight="bold" font-size="12.00" fill="#002b36">X_test</text>
<text text-anchor="start" x="580.5" y="-256" font-family="Liberation Sans,Helvetica,Arial,sans-serif" font-size="10.00" fill="#268bd2">2 values</text>
</g>
<!-- X_test&#45;&gt;eval_model -->
<g id="edge2" class="edge">
<title>X_test&#45;&gt;eval_model</title>
<path fill="none" stroke="#002b36" d="M571.82,-247.16C527.42,-221.29 439.05,-169.8 386.68,-139.29"/>
<polygon fill="#002b36" stroke="#002b36" points="388.37,-136.22 377.97,-134.21 384.85,-142.27 388.37,-136.22"/>
<text text-anchor="middle" x="555.5" y="-213" font-family="Liberation Sans,Helvetica,Arial,sans-serif" font-size="10.00" fill="#002b36">X_test</text>
<text text-anchor="middle" x="555.5" y="-202" font-family="Liberation Sans,Helvetica,Arial,sans-serif" font-size="10.00" fill="#002b36">(2 values)</text>
</g>
<!-- max_depth -->
<g id="node7" class="node">
<title>max_depth</title>
<path fill="none" stroke="#268bd2" stroke-width="1.5" d="M651.5,-448C651.5,-448 570.5,-448 570.5,-448 564.5,-448 558.5,-442 558.5,-436 558.5,-436 558.5,-424 558.5,-424 558.5,-418 564.5,-412 570.5,-412 570.5,-412 651.5,-412 651.5,-412 657.5,-412 663.5,-418 663.5,-424 663.5,-424 663.5,-436 663.5,-436 663.5,-442 657.5,-448 651.5,-448"/>
<text text-anchor="start" x="579" y="-432.4" font-family="Liberation Sans,Helvetica,Arial,sans-serif" font-weight="bold" font-size="12.00" fill="#002b36">max_depth</text>
<text text-anchor="start" x="566.5" y="-422" font-family="Liberation Sans,Helvetica,Arial,sans-serif" font-size="10.00" fill="#268bd2">1 values (1 sources)</text>
</g>
<!-- max_depth&#45;&gt;train_random_forest -->
<g id="edge15" class="edge">
<title>max_depth&#45;&gt;train_random_forest</title>
<path fill="none" stroke="#002b36" d="M601.15,-411.73C591.18,-395.69 574.35,-372.2 554,-358 543.77,-350.86 532.05,-345 520.16,-340.24"/>
<polygon fill="#002b36" stroke="#002b36" points="521.2,-336.89 510.61,-336.64 518.73,-343.44 521.2,-336.89"/>
<text text-anchor="middle" x="612.5" y="-379" font-family="Liberation Sans,Helvetica,Arial,sans-serif" font-size="10.00" fill="#002b36">max_depth</text>
<text text-anchor="middle" x="612.5" y="-368" font-family="Liberation Sans,Helvetica,Arial,sans-serif" font-size="10.00" fill="#002b36">(1 values)</text>
</g>
<!-- C -->
<g id="node8" class="node">
<title>C</title>
<path fill="none" stroke="#268bd2" stroke-width="1.5" d="M132.5,-448C132.5,-448 51.5,-448 51.5,-448 45.5,-448 39.5,-442 39.5,-436 39.5,-436 39.5,-424 39.5,-424 39.5,-418 45.5,-412 51.5,-412 51.5,-412 132.5,-412 132.5,-412 138.5,-412 144.5,-418 144.5,-424 144.5,-424 144.5,-436 144.5,-436 144.5,-442 138.5,-448 132.5,-448"/>
<text text-anchor="start" x="87" y="-432.4" font-family="Liberation Sans,Helvetica,Arial,sans-serif" font-weight="bold" font-size="12.00" fill="#002b36">C</text>
<text text-anchor="start" x="47.5" y="-422" font-family="Liberation Sans,Helvetica,Arial,sans-serif" font-size="10.00" fill="#268bd2">1 values (1 sources)</text>
</g>
<!-- train_svc -->
<g id="node16" class="node">
<title>train_svc</title>
<path fill="none" stroke="#dc322f" stroke-width="1.5" d="M274,-340C274,-340 218,-340 218,-340 212,-340 206,-334 206,-328 206,-328 206,-312 206,-312 206,-306 212,-300 218,-300 218,-300 274,-300 274,-300 280,-300 286,-306 286,-312 286,-312 286,-328 286,-328 286,-334 280,-340 274,-340"/>
<text text-anchor="start" x="219.5" y="-327.4" font-family="Liberation Sans,Helvetica,Arial,sans-serif" font-weight="bold" font-size="12.00" fill="#002b36">train_svc</text>
<text text-anchor="start" x="214" y="-317" font-family="Liberation Sans,Helvetica,Arial,sans-serif" font-size="10.00" fill="#002b36">@op:train_svc</text>
<text text-anchor="start" x="231.5" y="-307" font-family="Liberation Sans,Helvetica,Arial,sans-serif" font-size="10.00" fill="#dc322f">2 calls</text>
</g>
<!-- C&#45;&gt;train_svc -->
<g id="edge20" class="edge">
<title>C&#45;&gt;train_svc</title>
<path fill="none" stroke="#002b36" d="M96.72,-411.96C102.03,-395.86 112.18,-372.12 129,-358 147.82,-342.2 173.43,-333.13 195.89,-327.93"/>
<polygon fill="#002b36" stroke="#002b36" points="196.9,-331.29 205.96,-325.8 195.45,-324.44 196.9,-331.29"/>
<text text-anchor="middle" x="150.5" y="-379" font-family="Liberation Sans,Helvetica,Arial,sans-serif" font-size="10.00" fill="#002b36">C</text>
<text text-anchor="middle" x="150.5" y="-368" font-family="Liberation Sans,Helvetica,Arial,sans-serif" font-size="10.00" fill="#002b36">(1 values)</text>
</g>
<!-- y -->
<g id="node9" class="node">
<title>y</title>
<path fill="none" stroke="#268bd2" stroke-width="1.5" d="M361,-640C361,-640 331,-640 331,-640 325,-640 319,-634 319,-628 319,-628 319,-616 319,-616 319,-610 325,-604 331,-604 331,-604 361,-604 361,-604 367,-604 373,-610 373,-616 373,-616 373,-628 373,-628 373,-634 367,-640 361,-640"/>
<text text-anchor="start" x="342.5" y="-624.4" font-family="Liberation Sans,Helvetica,Arial,sans-serif" font-weight="bold" font-size="12.00" fill="#002b36">y</text>
<text text-anchor="start" x="327.5" y="-614" font-family="Liberation Sans,Helvetica,Arial,sans-serif" font-size="10.00" fill="#268bd2">1 values</text>
</g>
<!-- y&#45;&gt;get_train_test_split -->
<g id="edge11" class="edge">
<title>y&#45;&gt;get_train_test_split</title>
<path fill="none" stroke="#002b36" d="M327.66,-603.64C323.33,-598.43 319.3,-592.38 317,-586 313.68,-576.8 313.45,-573.11 317,-564 318.35,-560.55 320.18,-557.22 322.31,-554.07"/>
<polygon fill="#002b36" stroke="#002b36" points="325.07,-556.23 328.48,-546.2 319.56,-551.91 325.07,-556.23"/>
<text text-anchor="middle" x="338.5" y="-578" font-family="Liberation Sans,Helvetica,Arial,sans-serif" font-size="10.00" fill="#002b36">y</text>
<text text-anchor="middle" x="338.5" y="-567" font-family="Liberation Sans,Helvetica,Arial,sans-serif" font-size="10.00" fill="#002b36">(1 values)</text>
</g>
<!-- kernel -->
<g id="node10" class="node">
<title>kernel</title>
<path fill="none" stroke="#268bd2" stroke-width="1.5" d="M255.5,-448C255.5,-448 174.5,-448 174.5,-448 168.5,-448 162.5,-442 162.5,-436 162.5,-436 162.5,-424 162.5,-424 162.5,-418 168.5,-412 174.5,-412 174.5,-412 255.5,-412 255.5,-412 261.5,-412 267.5,-418 267.5,-424 267.5,-424 267.5,-436 267.5,-436 267.5,-442 261.5,-448 255.5,-448"/>
<text text-anchor="start" x="197" y="-432.4" font-family="Liberation Sans,Helvetica,Arial,sans-serif" font-weight="bold" font-size="12.00" fill="#002b36">kernel</text>
<text text-anchor="start" x="170.5" y="-422" font-family="Liberation Sans,Helvetica,Arial,sans-serif" font-size="10.00" fill="#268bd2">1 values (1 sources)</text>
</g>
<!-- kernel&#45;&gt;train_svc -->
<g id="edge21" class="edge">
<title>kernel&#45;&gt;train_svc</title>
<path fill="none" stroke="#002b36" d="M193.2,-411.76C188.26,-406.63 183.68,-400.59 181,-394 174.98,-379.17 172.96,-371.83 181,-358 184.99,-351.13 190.79,-345.44 197.3,-340.74"/>
<polygon fill="#002b36" stroke="#002b36" points="199.28,-343.63 205.84,-335.32 195.52,-337.72 199.28,-343.63"/>
<text text-anchor="middle" x="202.5" y="-379" font-family="Liberation Sans,Helvetica,Arial,sans-serif" font-size="10.00" fill="#002b36">kernel</text>
<text text-anchor="middle" x="202.5" y="-368" font-family="Liberation Sans,Helvetica,Arial,sans-serif" font-size="10.00" fill="#002b36">(1 values)</text>
</g>
<!-- X_train -->
<g id="node11" class="node">
<title>X_train</title>
<path fill="none" stroke="#268bd2" stroke-width="1.5" d="M330.5,-448C330.5,-448 297.5,-448 297.5,-448 291.5,-448 285.5,-442 285.5,-436 285.5,-436 285.5,-424 285.5,-424 285.5,-418 291.5,-412 297.5,-412 297.5,-412 330.5,-412 330.5,-412 336.5,-412 342.5,-418 342.5,-424 342.5,-424 342.5,-436 342.5,-436 342.5,-442 336.5,-448 330.5,-448"/>
<text text-anchor="start" x="293.5" y="-432.4" font-family="Liberation Sans,Helvetica,Arial,sans-serif" font-weight="bold" font-size="12.00" fill="#002b36">X_train</text>
<text text-anchor="start" x="295.5" y="-422" font-family="Liberation Sans,Helvetica,Arial,sans-serif" font-size="10.00" fill="#268bd2">2 values</text>
</g>
<!-- X_train&#45;&gt;train_svc -->
<g id="edge14" class="edge">
<title>X_train&#45;&gt;train_svc</title>
<path fill="none" stroke="#002b36" d="M285.18,-415.64C268.1,-407.44 249.34,-397.8 247,-394 239.11,-381.18 238.33,-364.55 239.75,-350.4"/>
<polygon fill="#002b36" stroke="#002b36" points="243.26,-350.56 241.19,-340.17 236.33,-349.58 243.26,-350.56"/>
<text text-anchor="middle" x="268.5" y="-379" font-family="Liberation Sans,Helvetica,Arial,sans-serif" font-size="10.00" fill="#002b36">X_train</text>
<text text-anchor="middle" x="268.5" y="-368" font-family="Liberation Sans,Helvetica,Arial,sans-serif" font-size="10.00" fill="#002b36">(2 values)</text>
</g>
<!-- X_train&#45;&gt;train_random_forest -->
<g id="edge13" class="edge">
<title>X_train&#45;&gt;train_random_forest</title>
<path fill="none" stroke="#002b36" d="M337.73,-411.95C344.14,-406.65 350.74,-400.49 356,-394 367.39,-379.94 362.25,-370.83 375,-358 379.53,-353.44 384.73,-349.31 390.21,-345.59"/>
<polygon fill="#002b36" stroke="#002b36" points="392.37,-348.37 398.99,-340.11 388.66,-342.44 392.37,-348.37"/>
<text text-anchor="middle" x="396.5" y="-379" font-family="Liberation Sans,Helvetica,Arial,sans-serif" font-size="10.00" fill="#002b36">X_train</text>
<text text-anchor="middle" x="396.5" y="-368" font-family="Liberation Sans,Helvetica,Arial,sans-serif" font-size="10.00" fill="#002b36">(2 values)</text>
</g>
<!-- y_train -->
<g id="node12" class="node">
<title>y_train</title>
<path fill="none" stroke="#268bd2" stroke-width="1.5" d="M405,-448C405,-448 373,-448 373,-448 367,-448 361,-442 361,-436 361,-436 361,-424 361,-424 361,-418 367,-412 373,-412 373,-412 405,-412 405,-412 411,-412 417,-418 417,-424 417,-424 417,-436 417,-436 417,-442 411,-448 405,-448"/>
<text text-anchor="start" x="369" y="-432.4" font-family="Liberation Sans,Helvetica,Arial,sans-serif" font-weight="bold" font-size="12.00" fill="#002b36">y_train</text>
<text text-anchor="start" x="370.5" y="-422" font-family="Liberation Sans,Helvetica,Arial,sans-serif" font-size="10.00" fill="#268bd2">2 values</text>
</g>
<!-- y_train&#45;&gt;train_svc -->
<g id="edge18" class="edge">
<title>y_train&#45;&gt;train_svc</title>
<path fill="none" stroke="#002b36" d="M360.8,-416.32C357.5,-414.86 354.18,-413.39 351,-412 332.4,-403.85 323.93,-407.77 309,-394 295.7,-381.73 301.36,-372.08 290,-358 286.95,-354.22 283.47,-350.54 279.83,-347.05"/>
<polygon fill="#002b36" stroke="#002b36" points="282,-344.3 272.23,-340.21 277.32,-349.5 282,-344.3"/>
<text text-anchor="middle" x="330.5" y="-379" font-family="Liberation Sans,Helvetica,Arial,sans-serif" font-size="10.00" fill="#002b36">y_train</text>
<text text-anchor="middle" x="330.5" y="-368" font-family="Liberation Sans,Helvetica,Arial,sans-serif" font-size="10.00" fill="#002b36">(2 values)</text>
</g>
<!-- y_train&#45;&gt;train_random_forest -->
<g id="edge17" class="edge">
<title>y_train&#45;&gt;train_random_forest</title>
<path fill="none" stroke="#002b36" d="M408.23,-411.78C413.27,-406.49 418.32,-400.36 422,-394 429.76,-380.58 435.03,-364.15 438.46,-350.29"/>
<polygon fill="#002b36" stroke="#002b36" points="441.93,-350.8 440.73,-340.27 435.1,-349.25 441.93,-350.8"/>
<text text-anchor="middle" x="457.5" y="-379" font-family="Liberation Sans,Helvetica,Arial,sans-serif" font-size="10.00" fill="#002b36">y_train</text>
<text text-anchor="middle" x="457.5" y="-368" font-family="Liberation Sans,Helvetica,Arial,sans-serif" font-size="10.00" fill="#002b36">(2 values)</text>
</g>
<!-- get_data -->
<g id="node13" class="node">
<title>get_data</title>
<path fill="none" stroke="#dc322f" stroke-width="1.5" d="M409,-738C409,-738 355,-738 355,-738 349,-738 343,-732 343,-726 343,-726 343,-710 343,-710 343,-704 349,-698 355,-698 355,-698 409,-698 409,-698 415,-698 421,-704 421,-710 421,-710 421,-726 421,-726 421,-732 415,-738 409,-738"/>
<text text-anchor="start" x="357" y="-725.4" font-family="Liberation Sans,Helvetica,Arial,sans-serif" font-weight="bold" font-size="12.00" fill="#002b36">get_data</text>
<text text-anchor="start" x="351" y="-715" font-family="Liberation Sans,Helvetica,Arial,sans-serif" font-size="10.00" fill="#002b36">@op:get_data</text>
<text text-anchor="start" x="367.5" y="-705" font-family="Liberation Sans,Helvetica,Arial,sans-serif" font-size="10.00" fill="#dc322f">1 calls</text>
</g>
<!-- get_data&#45;&gt;X -->
<g id="edge22" class="edge">
<title>get_data&#45;&gt;X</title>
<path fill="none" stroke="#002b36" d="M392.32,-697.98C399.94,-683.94 410.39,-664.66 418.8,-649.17"/>
<polygon fill="#002b36" stroke="#002b36" points="422.03,-650.56 423.72,-640.1 415.88,-647.22 422.03,-650.56"/>
<text text-anchor="middle" x="434.5" y="-672" font-family="Liberation Sans,Helvetica,Arial,sans-serif" font-size="10.00" fill="#002b36">X</text>
<text text-anchor="middle" x="434.5" y="-661" font-family="Liberation Sans,Helvetica,Arial,sans-serif" font-size="10.00" fill="#002b36">(1 values)</text>
</g>
<!-- get_data&#45;&gt;y -->
<g id="edge23" class="edge">
<title>get_data&#45;&gt;y</title>
<path fill="none" stroke="#002b36" d="M362.15,-697.76C357.75,-692.43 353.63,-686.35 351,-680 347.19,-670.8 345.6,-660.06 345.07,-650.4"/>
<polygon fill="#002b36" stroke="#002b36" points="348.56,-650.02 344.87,-640.09 341.57,-650.16 348.56,-650.02"/>
<text text-anchor="middle" x="372.5" y="-672" font-family="Liberation Sans,Helvetica,Arial,sans-serif" font-size="10.00" fill="#002b36">y</text>
<text text-anchor="middle" x="372.5" y="-661" font-family="Liberation Sans,Helvetica,Arial,sans-serif" font-size="10.00" fill="#002b36">(1 values)</text>
</g>
<!-- scale_data&#45;&gt;X -->
<g id="edge24" class="edge">
<title>scale_data&#45;&gt;X</title>
<path fill="none" stroke="#002b36" d="M489.78,-546.11C495.07,-558.19 498.96,-573.79 492,-586 486.83,-595.08 478.27,-602.05 469.25,-607.29"/>
<polygon fill="#002b36" stroke="#002b36" points="467.48,-604.26 460.19,-611.96 470.69,-610.49 467.48,-604.26"/>
<text text-anchor="middle" x="516.5" y="-578" font-family="Liberation Sans,Helvetica,Arial,sans-serif" font-size="10.00" fill="#002b36">X_scaled</text>
<text text-anchor="middle" x="516.5" y="-567" font-family="Liberation Sans,Helvetica,Arial,sans-serif" font-size="10.00" fill="#002b36">(1 values)</text>
</g>
<!-- eval_model&#45;&gt;accuracy -->
<g id="edge1" class="edge">
<title>eval_model&#45;&gt;accuracy</title>
<path fill="none" stroke="#002b36" d="M345,-93.98C345,-80.34 345,-61.75 345,-46.5"/>
<polygon fill="#002b36" stroke="#002b36" points="348.5,-46.1 345,-36.1 341.5,-46.1 348.5,-46.1"/>
<text text-anchor="middle" x="366.5" y="-68" font-family="Liberation Sans,Helvetica,Arial,sans-serif" font-size="10.00" fill="#002b36">accuracy</text>
<text text-anchor="middle" x="366.5" y="-57" font-family="Liberation Sans,Helvetica,Arial,sans-serif" font-size="10.00" fill="#002b36">(4 values)</text>
</g>
<!-- train_svc&#45;&gt;model -->
<g id="edge19" class="edge">
<title>train_svc&#45;&gt;model</title>
<path fill="none" stroke="#002b36" d="M263.47,-299.94C279.86,-282.06 304.47,-255.22 322.36,-235.7"/>
<polygon fill="#002b36" stroke="#002b36" points="325.16,-237.83 329.33,-228.09 320,-233.1 325.16,-237.83"/>
<text text-anchor="middle" x="335" y="-267" font-family="Liberation Sans,Helvetica,Arial,sans-serif" font-size="10.00" fill="#002b36">svc_model</text>
<text text-anchor="middle" x="335" y="-256" font-family="Liberation Sans,Helvetica,Arial,sans-serif" font-size="10.00" fill="#002b36">(2 values)</text>
</g>
<!-- train_random_forest&#45;&gt;model -->
<g id="edge12" class="edge">
<title>train_random_forest&#45;&gt;model</title>
<path fill="none" stroke="#002b36" d="M426.53,-299.94C410.14,-282.06 385.53,-255.22 367.64,-235.7"/>
<polygon fill="#002b36" stroke="#002b36" points="370,-233.1 360.67,-228.09 364.84,-237.83 370,-233.1"/>
<text text-anchor="middle" x="430.5" y="-267" font-family="Liberation Sans,Helvetica,Arial,sans-serif" font-size="10.00" fill="#002b36">rf_model</text>
<text text-anchor="middle" x="430.5" y="-256" font-family="Liberation Sans,Helvetica,Arial,sans-serif" font-size="10.00" fill="#002b36">(2 values)</text>
</g>
<!-- get_train_test_split&#45;&gt;y_test -->
<g id="edge6" class="edge">
<title>get_train_test_split&#45;&gt;y_test</title>
<path fill="none" stroke="#002b36" d="M288.44,-518.84C204.55,-509.16 62.37,-487.32 30,-448 20.16,-436.04 19.24,-418.74 20.87,-404.21"/>
<polygon fill="#002b36" stroke="#002b36" points="24.35,-404.65 22.42,-394.24 17.43,-403.58 24.35,-404.65"/>
<text text-anchor="middle" x="130.5" y="-480" font-family="Liberation Sans,Helvetica,Arial,sans-serif" font-size="10.00" fill="#002b36">y_test</text>
<text text-anchor="middle" x="130.5" y="-469" font-family="Liberation Sans,Helvetica,Arial,sans-serif" font-size="10.00" fill="#002b36">(2 values)</text>
</g>
<!-- get_train_test_split&#45;&gt;X_test -->
<g id="edge5" class="edge">
<title>get_train_test_split&#45;&gt;X_test</title>
<path fill="none" stroke="#002b36" d="M413.59,-509.06C417.79,-508.01 421.95,-506.99 426,-506 535.55,-479.26 602.97,-536.38 673,-448 711.85,-398.98 657.69,-326.84 623.39,-289.46"/>
<polygon fill="#002b36" stroke="#002b36" points="625.81,-286.93 616.42,-282.03 620.71,-291.72 625.81,-286.93"/>
<text text-anchor="middle" x="707.5" y="-433" font-family="Liberation Sans,Helvetica,Arial,sans-serif" font-size="10.00" fill="#002b36">X_test</text>
<text text-anchor="middle" x="707.5" y="-422" font-family="Liberation Sans,Helvetica,Arial,sans-serif" font-size="10.00" fill="#002b36">(2 values)</text>
</g>
<!-- get_train_test_split&#45;&gt;X_train -->
<g id="edge7" class="edge">
<title>get_train_test_split&#45;&gt;X_train</title>
<path fill="none" stroke="#002b36" d="M331.22,-505.72C326.83,-500.4 322.68,-494.33 320,-488 316.06,-478.72 314.3,-467.85 313.61,-458.11"/>
<polygon fill="#002b36" stroke="#002b36" points="317.11,-457.97 313.23,-448.11 310.11,-458.24 317.11,-457.97"/>
<text text-anchor="middle" x="341.5" y="-480" font-family="Liberation Sans,Helvetica,Arial,sans-serif" font-size="10.00" fill="#002b36">X_train</text>
<text text-anchor="middle" x="341.5" y="-469" font-family="Liberation Sans,Helvetica,Arial,sans-serif" font-size="10.00" fill="#002b36">(2 values)</text>
</g>
<!-- get_train_test_split&#45;&gt;y_train -->
<g id="edge8" class="edge">
<title>get_train_test_split&#45;&gt;y_train</title>
<path fill="none" stroke="#002b36" d="M358.69,-505.98C364.31,-492.07 372.01,-473.03 378.24,-457.61"/>
<polygon fill="#002b36" stroke="#002b36" points="381.59,-458.68 382.09,-448.1 375.1,-456.06 381.59,-458.68"/>
<text text-anchor="middle" x="396.5" y="-480" font-family="Liberation Sans,Helvetica,Arial,sans-serif" font-size="10.00" fill="#002b36">y_train</text>
<text text-anchor="middle" x="396.5" y="-469" font-family="Liberation Sans,Helvetica,Arial,sans-serif" font-size="10.00" fill="#002b36">(2 values)</text>
</g>
</g>
</svg>
