<?xml version="1.0" encoding="UTF-8" standalone="no"?>
<!DOCTYPE svg PUBLIC "-//W3C//DTD SVG 1.1//EN"
 "http://www.w3.org/Graphics/SVG/1.1/DTD/svg11.dtd">
<!-- Generated by graphviz version 2.50.0 (0)
 -->
<!-- Title: G Pages: 1 -->
<svg width="756pt" height="81pt"
 viewBox="0.00 0.00 756.00 81.00" xmlns="http://www.w3.org/2000/svg" xmlns:xlink="http://www.w3.org/1999/xlink">
<g id="graph0" class="graph" transform="scale(1 1) rotate(0) translate(4 77)">
<title>G</title>
<polygon fill="white" stroke="transparent" points="-4,4 -4,-77 752,-77 752,4 -4,4"/>
<!-- y -->
<g id="node1" class="node">
<title>y</title>
<path fill="none" stroke="#268bd2" stroke-width="1.5" d="M428,-68C428,-68 358,-68 358,-68 352,-68 346,-62 346,-56 346,-56 346,-44 346,-44 346,-38 352,-32 358,-32 358,-32 428,-32 428,-32 434,-32 440,-38 440,-44 440,-44 440,-56 440,-56 440,-62 434,-68 428,-68"/>
<text text-anchor="start" x="389.5" y="-52.4" font-family="Liberation Sans,Helvetica,Arial,sans-serif" font-weight="bold" font-size="12.00" fill="#002b36">y</text>
<text text-anchor="start" x="354" y="-42" font-family="Liberation Sans,Helvetica,Arial,sans-serif" font-size="10.00" fill="#268bd2">5 values (2 sinks)</text>
</g>
<!-- add -->
<g id="node5" class="node">
<title>add</title>
<path fill="none" stroke="#dc322f" stroke-width="1.5" d="M563,-40C563,-40 531,-40 531,-40 525,-40 519,-34 519,-28 519,-28 519,-12 519,-12 519,-6 525,0 531,0 531,0 563,0 563,0 569,0 575,-6 575,-12 575,-12 575,-28 575,-28 575,-34 569,-40 563,-40"/>
<text text-anchor="start" x="536" y="-27.4" font-family="Liberation Sans,Helvetica,Arial,sans-serif" font-weight="bold" font-size="12.00" fill="#002b36">add</text>
<text text-anchor="start" x="527" y="-17" font-family="Liberation Sans,Helvetica,Arial,sans-serif" font-size="10.00" fill="#002b36">@op:add</text>
<text text-anchor="start" x="532.5" y="-7" font-family="Liberation Sans,Helvetica,Arial,sans-serif" font-size="10.00" fill="#dc322f">3 calls</text>
</g>
<!-- y&#45;&gt;add -->
<g id="edge4" class="edge">
<title>y&#45;&gt;add</title>
<path fill="none" stroke="#002b36" d="M440.02,-40.92C461.99,-36.58 487.95,-31.46 508.68,-27.37"/>
<polygon fill="#002b36" stroke="#002b36" points="509.56,-30.76 518.69,-25.39 508.2,-23.89 509.56,-30.76"/>
<text text-anchor="middle" x="479.5" y="-50" font-family="Liberation Sans,Helvetica,Arial,sans-serif" font-size="10.00" fill="#002b36">y</text>
<text text-anchor="middle" x="479.5" y="-39" font-family="Liberation Sans,Helvetica,Arial,sans-serif" font-size="10.00" fill="#002b36">(3 values)</text>
</g>
<!-- x -->
<g id="node2" class="node">
<title>x</title>
<path fill="none" stroke="#268bd2" stroke-width="1.5" d="M93,-38C93,-38 12,-38 12,-38 6,-38 0,-32 0,-26 0,-26 0,-14 0,-14 0,-8 6,-2 12,-2 12,-2 93,-2 93,-2 99,-2 105,-8 105,-14 105,-14 105,-26 105,-26 105,-32 99,-38 93,-38"/>
<text text-anchor="start" x="49" y="-22.4" font-family="Liberation Sans,Helvetica,Arial,sans-serif" font-weight="bold" font-size="12.00" fill="#002b36">x</text>
<text text-anchor="start" x="8" y="-12" font-family="Liberation Sans,Helvetica,Arial,sans-serif" font-size="10.00" fill="#268bd2">5 values (5 sources)</text>
</g>
<!-- increment -->
<g id="node4" class="node">
<title>increment</title>
<path fill="none" stroke="#dc322f" stroke-width="1.5" d="M255,-72C255,-72 196,-72 196,-72 190,-72 184,-66 184,-60 184,-60 184,-44 184,-44 184,-38 190,-32 196,-32 196,-32 255,-32 255,-32 261,-32 267,-38 267,-44 267,-44 267,-60 267,-60 267,-66 261,-72 255,-72"/>
<text text-anchor="start" x="196.5" y="-59.4" font-family="Liberation Sans,Helvetica,Arial,sans-serif" font-weight="bold" font-size="12.00" fill="#002b36">increment</text>
<text text-anchor="start" x="192" y="-49" font-family="Liberation Sans,Helvetica,Arial,sans-serif" font-size="10.00" fill="#002b36">@op:increment</text>
<text text-anchor="start" x="211" y="-39" font-family="Liberation Sans,Helvetica,Arial,sans-serif" font-size="10.00" fill="#dc322f">5 calls</text>
</g>
<!-- x&#45;&gt;increment -->
<g id="edge2" class="edge">
<title>x&#45;&gt;increment</title>
<path fill="none" stroke="#002b36" d="M105.27,-29.69C126.99,-33.75 152.18,-38.47 173.79,-42.51"/>
<polygon fill="#002b36" stroke="#002b36" points="173.29,-45.98 183.76,-44.38 174.57,-39.1 173.29,-45.98"/>
<text text-anchor="middle" x="144.5" y="-54" font-family="Liberation Sans,Helvetica,Arial,sans-serif" font-size="10.00" fill="#002b36">x</text>
<text text-anchor="middle" x="144.5" y="-43" font-family="Liberation Sans,Helvetica,Arial,sans-serif" font-size="10.00" fill="#002b36">(5 values)</text>
</g>
<!-- x&#45;&gt;add -->
<g id="edge3" class="edge">
<title>x&#45;&gt;add</title>
<path fill="none" stroke="#002b36" d="M105.28,-20C204.97,-20 421.41,-20 508.54,-20"/>
<polygon fill="#002b36" stroke="#002b36" points="508.75,-23.5 518.75,-20 508.75,-16.5 508.75,-23.5"/>
<text text-anchor="middle" x="306.5" y="-34" font-family="Liberation Sans,Helvetica,Arial,sans-serif" font-size="10.00" fill="#002b36">z</text>
<text text-anchor="middle" x="306.5" y="-23" font-family="Liberation Sans,Helvetica,Arial,sans-serif" font-size="10.00" fill="#002b36">(3 values)</text>
</g>
<!-- w -->
<g id="node3" class="node">
<title>w</title>
<path fill="none" stroke="#268bd2" stroke-width="1.5" d="M736,-38C736,-38 666,-38 666,-38 660,-38 654,-32 654,-26 654,-26 654,-14 654,-14 654,-8 660,-2 666,-2 666,-2 736,-2 736,-2 742,-2 748,-8 748,-14 748,-14 748,-26 748,-26 748,-32 742,-38 736,-38"/>
<text text-anchor="start" x="696" y="-22.4" font-family="Liberation Sans,Helvetica,Arial,sans-serif" font-weight="bold" font-size="12.00" fill="#002b36">w</text>
<text text-anchor="start" x="662" y="-12" font-family="Liberation Sans,Helvetica,Arial,sans-serif" font-size="10.00" fill="#268bd2">3 values (3 sinks)</text>
</g>
<!-- increment&#45;&gt;y -->
<g id="edge1" class="edge">
<title>increment&#45;&gt;y</title>
<path fill="none" stroke="#002b36" d="M267.41,-51.51C288,-51.26 313.27,-50.95 335.66,-50.68"/>
<polygon fill="#002b36" stroke="#002b36" points="335.76,-54.18 345.72,-50.56 335.68,-47.18 335.76,-54.18"/>
<text text-anchor="middle" x="306.5" y="-65" font-family="Liberation Sans,Helvetica,Arial,sans-serif" font-size="10.00" fill="#002b36">y</text>
<text text-anchor="middle" x="306.5" y="-54" font-family="Liberation Sans,Helvetica,Arial,sans-serif" font-size="10.00" fill="#002b36">(5 values)</text>
</g>
<!-- add&#45;&gt;w -->
<g id="edge5" class="edge">
<title>add&#45;&gt;w</title>
<path fill="none" stroke="#002b36" d="M575.17,-20C594.22,-20 620.35,-20 643.79,-20"/>
<polygon fill="#002b36" stroke="#002b36" points="643.98,-23.5 653.98,-20 643.98,-16.5 643.98,-23.5"/>
<text text-anchor="middle" x="614.5" y="-34" font-family="Liberation Sans,Helvetica,Arial,sans-serif" font-size="10.00" fill="#002b36">w</text>
<text text-anchor="middle" x="614.5" y="-23" font-family="Liberation Sans,Helvetica,Arial,sans-serif" font-size="10.00" fill="#002b36">(3 values)</text>
</g>
</g>
</svg>
