<?xml version="1.0" encoding="UTF-8" standalone="no"?>
<!DOCTYPE svg PUBLIC "-//W3C//DTD SVG 1.1//EN"
 "http://www.w3.org/Graphics/SVG/1.1/DTD/svg11.dtd">
<!-- Generated by graphviz version 2.50.0 (0)
 -->
<!-- Title: G Pages: 1 -->
<svg width="494pt" height="236pt"
 viewBox="0.00 0.00 493.50 236.00" xmlns="http://www.w3.org/2000/svg" xmlns:xlink="http://www.w3.org/1999/xlink">
<g id="graph0" class="graph" transform="scale(1 1) rotate(0) translate(4 232)">
<title>G</title>
<polygon fill="white" stroke="transparent" points="-4,4 -4,-232 489.5,-232 489.5,4 -4,4"/>
<!-- accuracy -->
<g id="node1" class="node">
<title>accuracy</title>
<path fill="none" stroke="#268bd2" stroke-width="1.5" d="M289,-36C289,-36 209,-36 209,-36 203,-36 197,-30 197,-24 197,-24 197,-12 197,-12 197,-6 203,0 209,0 209,0 289,0 289,0 295,0 301,-6 301,-12 301,-12 301,-24 301,-24 301,-30 295,-36 289,-36"/>
<text text-anchor="start" x="222.5" y="-20.4" font-family="Liberation Sans,Helvetica,Arial,sans-serif" font-weight="bold" font-size="12.00" fill="#002b36">accuracy</text>
<text text-anchor="start" x="205" y="-10" font-family="Liberation Sans,Helvetica,Arial,sans-serif" font-size="10.00" fill="#268bd2">14 values (14 sinks)</text>
</g>
<!-- model -->
<g id="node2" class="node">
<title>model</title>
<path fill="none" stroke="#268bd2" stroke-width="1.5" d="M104,-228C104,-228 12,-228 12,-228 6,-228 0,-222 0,-216 0,-216 0,-204 0,-204 0,-198 6,-192 12,-192 12,-192 104,-192 104,-192 110,-192 116,-198 116,-204 116,-204 116,-216 116,-216 116,-222 110,-228 104,-228"/>
<text text-anchor="start" x="40" y="-212.4" font-family="Liberation Sans,Helvetica,Arial,sans-serif" font-weight="bold" font-size="12.00" fill="#002b36">model</text>
<text text-anchor="start" x="8" y="-202" font-family="Liberation Sans,Helvetica,Arial,sans-serif" font-size="10.00" fill="#268bd2">12 values (12 sources)</text>
</g>
<!-- eval_model -->
<g id="node6" class="node">
<title>eval_model</title>
<path fill="none" stroke="#dc322f" stroke-width="1.5" d="M224,-134C224,-134 158,-134 158,-134 152,-134 146,-128 146,-122 146,-122 146,-106 146,-106 146,-100 152,-94 158,-94 158,-94 224,-94 224,-94 230,-94 236,-100 236,-106 236,-106 236,-122 236,-122 236,-128 230,-134 224,-134"/>
<text text-anchor="start" x="158" y="-121.4" font-family="Liberation Sans,Helvetica,Arial,sans-serif" font-weight="bold" font-size="12.00" fill="#002b36">eval_model</text>
<text text-anchor="start" x="154" y="-111" font-family="Liberation Sans,Helvetica,Arial,sans-serif" font-size="10.00" fill="#002b36">@op:eval_model</text>
<text text-anchor="start" x="174" y="-101" font-family="Liberation Sans,Helvetica,Arial,sans-serif" font-size="10.00" fill="#dc322f">12 calls</text>
</g>
<!-- model&#45;&gt;eval_model -->
<g id="edge2" class="edge">
<title>model&#45;&gt;eval_model</title>
<path fill="none" stroke="#002b36" d="M65.79,-191.98C72.3,-179.42 82.65,-162.73 96,-152 107.77,-142.54 122.24,-135.28 136.32,-129.79"/>
<polygon fill="#002b36" stroke="#002b36" points="137.76,-132.99 145.95,-126.28 135.36,-126.42 137.76,-132.99"/>
<text text-anchor="middle" x="120.5" y="-166" font-family="Liberation Sans,Helvetica,Arial,sans-serif" font-size="10.00" fill="#002b36">model</text>
<text text-anchor="middle" x="120.5" y="-155" font-family="Liberation Sans,Helvetica,Arial,sans-serif" font-size="10.00" fill="#002b36">(12 values)</text>
</g>
<!-- X_test -->
<g id="node3" class="node">
<title>X_test</title>
<path fill="none" stroke="#268bd2" stroke-width="1.5" d="M350.5,-228C350.5,-228 269.5,-228 269.5,-228 263.5,-228 257.5,-222 257.5,-216 257.5,-216 257.5,-204 257.5,-204 257.5,-198 263.5,-192 269.5,-192 269.5,-192 350.5,-192 350.5,-192 356.5,-192 362.5,-198 362.5,-204 362.5,-204 362.5,-216 362.5,-216 362.5,-222 356.5,-228 350.5,-228"/>
<text text-anchor="start" x="291.5" y="-212.4" font-family="Liberation Sans,Helvetica,Arial,sans-serif" font-weight="bold" font-size="12.00" fill="#002b36">X_test</text>
<text text-anchor="start" x="265.5" y="-202" font-family="Liberation Sans,Helvetica,Arial,sans-serif" font-size="10.00" fill="#268bd2">2 values (2 sources)</text>
</g>
<!-- X_test&#45;&gt;eval_model -->
<g id="edge3" class="edge">
<title>X_test&#45;&gt;eval_model</title>
<path fill="none" stroke="#002b36" d="M294.82,-191.95C289.77,-186.25 284.13,-179.87 279,-174 270.49,-164.28 270.08,-160.08 260,-152 254.31,-147.44 247.98,-143.17 241.52,-139.27"/>
<polygon fill="#002b36" stroke="#002b36" points="243.1,-136.14 232.68,-134.18 239.6,-142.2 243.1,-136.14"/>
<text text-anchor="middle" x="300.5" y="-166" font-family="Liberation Sans,Helvetica,Arial,sans-serif" font-size="10.00" fill="#002b36">X_test</text>
<text text-anchor="middle" x="300.5" y="-155" font-family="Liberation Sans,Helvetica,Arial,sans-serif" font-size="10.00" fill="#002b36">(2 values)</text>
</g>
<!-- eval_ensemble -->
<g id="node7" class="node">
<title>eval_ensemble</title>
<path fill="none" stroke="#dc322f" stroke-width="1.5" d="M368,-134C368,-134 286,-134 286,-134 280,-134 274,-128 274,-122 274,-122 274,-106 274,-106 274,-100 280,-94 286,-94 286,-94 368,-94 368,-94 374,-94 380,-100 380,-106 380,-106 380,-122 380,-122 380,-128 374,-134 368,-134"/>
<text text-anchor="start" x="284" y="-121.4" font-family="Liberation Sans,Helvetica,Arial,sans-serif" font-weight="bold" font-size="12.00" fill="#002b36">eval_ensemble</text>
<text text-anchor="start" x="282" y="-111" font-family="Liberation Sans,Helvetica,Arial,sans-serif" font-size="10.00" fill="#002b36">@op:eval_ensemble</text>
<text text-anchor="start" x="312.5" y="-101" font-family="Liberation Sans,Helvetica,Arial,sans-serif" font-size="10.00" fill="#dc322f">2 calls</text>
</g>
<!-- X_test&#45;&gt;eval_ensemble -->
<g id="edge4" class="edge">
<title>X_test&#45;&gt;eval_ensemble</title>
<path fill="none" stroke="#002b36" d="M319.61,-191.69C322.19,-186.2 324.64,-179.99 326,-174 328.16,-164.49 328.85,-153.9 328.86,-144.34"/>
<polygon fill="#002b36" stroke="#002b36" points="332.36,-144.02 328.64,-134.1 325.36,-144.18 332.36,-144.02"/>
<text text-anchor="middle" x="349.5" y="-166" font-family="Liberation Sans,Helvetica,Arial,sans-serif" font-size="10.00" fill="#002b36">X_test</text>
<text text-anchor="middle" x="349.5" y="-155" font-family="Liberation Sans,Helvetica,Arial,sans-serif" font-size="10.00" fill="#002b36">(2 values)</text>
</g>
<!-- y_test -->
<g id="node4" class="node">
<title>y_test</title>
<path fill="none" stroke="#268bd2" stroke-width="1.5" d="M227.5,-228C227.5,-228 146.5,-228 146.5,-228 140.5,-228 134.5,-222 134.5,-216 134.5,-216 134.5,-204 134.5,-204 134.5,-198 140.5,-192 146.5,-192 146.5,-192 227.5,-192 227.5,-192 233.5,-192 239.5,-198 239.5,-204 239.5,-204 239.5,-216 239.5,-216 239.5,-222 233.5,-228 227.5,-228"/>
<text text-anchor="start" x="169.5" y="-212.4" font-family="Liberation Sans,Helvetica,Arial,sans-serif" font-weight="bold" font-size="12.00" fill="#002b36">y_test</text>
<text text-anchor="start" x="142.5" y="-202" font-family="Liberation Sans,Helvetica,Arial,sans-serif" font-size="10.00" fill="#268bd2">2 values (2 sources)</text>
</g>
<!-- y_test&#45;&gt;eval_model -->
<g id="edge6" class="edge">
<title>y_test&#45;&gt;eval_model</title>
<path fill="none" stroke="#002b36" d="M163.94,-191.97C158.71,-186.83 153.85,-180.74 151,-174 147.19,-164.99 147.08,-160.96 151,-152 152.53,-148.5 154.57,-145.18 156.93,-142.08"/>
<polygon fill="#002b36" stroke="#002b36" points="159.74,-144.19 163.75,-134.38 154.5,-139.54 159.74,-144.19"/>
<text text-anchor="middle" x="172.5" y="-166" font-family="Liberation Sans,Helvetica,Arial,sans-serif" font-size="10.00" fill="#002b36">y_test</text>
<text text-anchor="middle" x="172.5" y="-155" font-family="Liberation Sans,Helvetica,Arial,sans-serif" font-size="10.00" fill="#002b36">(2 values)</text>
</g>
<!-- y_test&#45;&gt;eval_ensemble -->
<g id="edge7" class="edge">
<title>y_test&#45;&gt;eval_ensemble</title>
<path fill="none" stroke="#002b36" d="M190.86,-191.8C194.55,-179.16 201.31,-162.43 213,-152 221.25,-144.64 242.3,-137.01 264.09,-130.61"/>
<polygon fill="#002b36" stroke="#002b36" points="265.12,-133.96 273.78,-127.86 263.2,-127.23 265.12,-133.96"/>
<text text-anchor="middle" x="234.5" y="-166" font-family="Liberation Sans,Helvetica,Arial,sans-serif" font-size="10.00" fill="#002b36">y_test</text>
<text text-anchor="middle" x="234.5" y="-155" font-family="Liberation Sans,Helvetica,Arial,sans-serif" font-size="10.00" fill="#002b36">(2 values)</text>
</g>
<!-- models -->
<g id="node5" class="node">
<title>models</title>
<path fill="none" stroke="#268bd2" stroke-width="1.5" d="M473.5,-228C473.5,-228 392.5,-228 392.5,-228 386.5,-228 380.5,-222 380.5,-216 380.5,-216 380.5,-204 380.5,-204 380.5,-198 386.5,-192 392.5,-192 392.5,-192 473.5,-192 473.5,-192 479.5,-192 485.5,-198 485.5,-204 485.5,-204 485.5,-216 485.5,-216 485.5,-222 479.5,-228 473.5,-228"/>
<text text-anchor="start" x="411.5" y="-212.4" font-family="Liberation Sans,Helvetica,Arial,sans-serif" font-weight="bold" font-size="12.00" fill="#002b36">models</text>
<text text-anchor="start" x="388.5" y="-202" font-family="Liberation Sans,Helvetica,Arial,sans-serif" font-size="10.00" fill="#268bd2">2 values (2 sources)</text>
</g>
<!-- models&#45;&gt;eval_ensemble -->
<g id="edge8" class="edge">
<title>models&#45;&gt;eval_ensemble</title>
<path fill="none" stroke="#002b36" d="M416.75,-191.99C405.4,-180.36 389.69,-164.8 375,-152 370.53,-148.1 365.7,-144.13 360.88,-140.3"/>
<polygon fill="#002b36" stroke="#002b36" points="362.9,-137.43 352.86,-134.03 358.59,-142.95 362.9,-137.43"/>
<text text-anchor="middle" x="418.5" y="-166" font-family="Liberation Sans,Helvetica,Arial,sans-serif" font-size="10.00" fill="#002b36">models</text>
<text text-anchor="middle" x="418.5" y="-155" font-family="Liberation Sans,Helvetica,Arial,sans-serif" font-size="10.00" fill="#002b36">(2 values)</text>
</g>
<!-- eval_model&#45;&gt;accuracy -->
<g id="edge1" class="edge">
<title>eval_model&#45;&gt;accuracy</title>
<path fill="none" stroke="#002b36" d="M201.5,-93.91C208.04,-82.25 216.75,-67.11 225,-54 226.9,-50.98 228.95,-47.85 231.01,-44.75"/>
<polygon fill="#002b36" stroke="#002b36" points="234.05,-46.51 236.76,-36.27 228.25,-42.58 234.05,-46.51"/>
<text text-anchor="middle" x="249.5" y="-68" font-family="Liberation Sans,Helvetica,Arial,sans-serif" font-size="10.00" fill="#002b36">accuracy</text>
<text text-anchor="middle" x="249.5" y="-57" font-family="Liberation Sans,Helvetica,Arial,sans-serif" font-size="10.00" fill="#002b36">(12 values)</text>
</g>
<!-- eval_ensemble&#45;&gt;accuracy -->
<g id="edge5" class="edge">
<title>eval_ensemble&#45;&gt;accuracy</title>
<path fill="none" stroke="#002b36" d="M311.22,-93.98C299.24,-79.54 282.66,-59.57 269.63,-43.87"/>
<polygon fill="#002b36" stroke="#002b36" points="272.27,-41.56 263.19,-36.1 266.88,-46.03 272.27,-41.56"/>
<text text-anchor="middle" x="315.5" y="-68" font-family="Liberation Sans,Helvetica,Arial,sans-serif" font-size="10.00" fill="#002b36">accuracy</text>
<text text-anchor="middle" x="315.5" y="-57" font-family="Liberation Sans,Helvetica,Arial,sans-serif" font-size="10.00" fill="#002b36">(2 values)</text>
</g>
</g>
</svg>
