<?xml version="1.0" encoding="UTF-8" standalone="no"?>
<!DOCTYPE svg PUBLIC "-//W3C//DTD SVG 1.1//EN"
 "http://www.w3.org/Graphics/SVG/1.1/DTD/svg11.dtd">
<!-- Generated by graphviz version 2.50.0 (0)
 -->
<!-- Title: G Pages: 1 -->
<svg width="807pt" height="746pt"
 viewBox="0.00 0.00 806.50 746.00" xmlns="http://www.w3.org/2000/svg" xmlns:xlink="http://www.w3.org/1999/xlink">
<g id="graph0" class="graph" transform="scale(1 1) rotate(0) translate(4 742)">
<title>G</title>
<polygon fill="white" stroke="transparent" points="-4,4 -4,-742 802.5,-742 802.5,4 -4,4"/>
<!-- accuracy -->
<g id="node1" class="node">
<title>accuracy</title>
<path fill="none" stroke="#268bd2" stroke-width="1.5" d="M705.5,-36C705.5,-36 635.5,-36 635.5,-36 629.5,-36 623.5,-30 623.5,-24 623.5,-24 623.5,-12 623.5,-12 623.5,-6 629.5,0 635.5,0 635.5,0 705.5,0 705.5,0 711.5,0 717.5,-6 717.5,-12 717.5,-12 717.5,-24 717.5,-24 717.5,-30 711.5,-36 705.5,-36"/>
<text text-anchor="start" x="644" y="-20.4" font-family="Liberation Sans,Helvetica,Arial,sans-serif" font-weight="bold" font-size="12.00" fill="#002b36">accuracy</text>
<text text-anchor="start" x="631.5" y="-10" font-family="Liberation Sans,Helvetica,Arial,sans-serif" font-size="10.00" fill="#268bd2">4 values (4 sinks)</text>
</g>
<!-- n_estimators -->
<g id="node2" class="node">
<title>n_estimators</title>
<path fill="none" stroke="#268bd2" stroke-width="1.5" d="M524,-448C524,-448 443,-448 443,-448 437,-448 431,-442 431,-436 431,-436 431,-424 431,-424 431,-418 437,-412 443,-412 443,-412 524,-412 524,-412 530,-412 536,-418 536,-424 536,-424 536,-436 536,-436 536,-442 530,-448 524,-448"/>
<text text-anchor="start" x="446" y="-432.4" font-family="Liberation Sans,Helvetica,Arial,sans-serif" font-weight="bold" font-size="12.00" fill="#002b36">n_estimators</text>
<text text-anchor="start" x="439" y="-422" font-family="Liberation Sans,Helvetica,Arial,sans-serif" font-size="10.00" fill="#268bd2">1 values (1 sources)</text>
</g>
<!-- train_random_forest -->
<g id="node18" class="node">
<title>train_random_forest</title>
<path fill="none" stroke="#dc322f" stroke-width="1.5" d="M527,-340C527,-340 418,-340 418,-340 412,-340 406,-334 406,-328 406,-328 406,-312 406,-312 406,-306 412,-300 418,-300 418,-300 527,-300 527,-300 533,-300 539,-306 539,-312 539,-312 539,-328 539,-328 539,-334 533,-340 527,-340"/>
<text text-anchor="start" x="414" y="-327.4" font-family="Liberation Sans,Helvetica,Arial,sans-serif" font-weight="bold" font-size="12.00" fill="#002b36">train_random_forest</text>
<text text-anchor="start" x="417" y="-317" font-family="Liberation Sans,Helvetica,Arial,sans-serif" font-size="10.00" fill="#002b36">@op:train_random_forest</text>
<text text-anchor="start" x="458" y="-307" font-family="Liberation Sans,Helvetica,Arial,sans-serif" font-size="10.00" fill="#dc322f">2 calls</text>
</g>
<!-- n_estimators&#45;&gt;train_random_forest -->
<g id="edge16" class="edge">
<title>n_estimators&#45;&gt;train_random_forest</title>
<path fill="none" stroke="#002b36" d="M484.87,-411.97C485.7,-397.53 486.16,-376.3 483.5,-358 483.13,-355.45 482.62,-352.82 482.02,-350.21"/>
<polygon fill="#002b36" stroke="#002b36" points="485.35,-349.11 479.4,-340.35 478.59,-350.91 485.35,-349.11"/>
<text text-anchor="middle" x="514" y="-379" font-family="Liberation Sans,Helvetica,Arial,sans-serif" font-size="10.00" fill="#002b36">n_estimators</text>
<text text-anchor="middle" x="514" y="-368" font-family="Liberation Sans,Helvetica,Arial,sans-serif" font-size="10.00" fill="#002b36">(1 values)</text>
</g>
<!-- model -->
<g id="node3" class="node">
<title>model</title>
<path fill="none" stroke="#268bd2" stroke-width="1.5" d="M487.5,-228C487.5,-228 457.5,-228 457.5,-228 451.5,-228 445.5,-222 445.5,-216 445.5,-216 445.5,-204 445.5,-204 445.5,-198 451.5,-192 457.5,-192 457.5,-192 487.5,-192 487.5,-192 493.5,-192 499.5,-198 499.5,-204 499.5,-204 499.5,-216 499.5,-216 499.5,-222 493.5,-228 487.5,-228"/>
<text text-anchor="start" x="454.5" y="-212.4" font-family="Liberation Sans,Helvetica,Arial,sans-serif" font-weight="bold" font-size="12.00" fill="#002b36">model</text>
<text text-anchor="start" x="454" y="-202" font-family="Liberation Sans,Helvetica,Arial,sans-serif" font-size="10.00" fill="#268bd2">4 values</text>
</g>
<!-- eval_model -->
<g id="node13" class="node">
<title>eval_model</title>
<path fill="none" stroke="#dc322f" stroke-width="1.5" d="M703.5,-134C703.5,-134 637.5,-134 637.5,-134 631.5,-134 625.5,-128 625.5,-122 625.5,-122 625.5,-106 625.5,-106 625.5,-100 631.5,-94 637.5,-94 637.5,-94 703.5,-94 703.5,-94 709.5,-94 715.5,-100 715.5,-106 715.5,-106 715.5,-122 715.5,-122 715.5,-128 709.5,-134 703.5,-134"/>
<text text-anchor="start" x="637.5" y="-121.4" font-family="Liberation Sans,Helvetica,Arial,sans-serif" font-weight="bold" font-size="12.00" fill="#002b36">eval_model</text>
<text text-anchor="start" x="633.5" y="-111" font-family="Liberation Sans,Helvetica,Arial,sans-serif" font-size="10.00" fill="#002b36">@op:eval_model</text>
<text text-anchor="start" x="656" y="-101" font-family="Liberation Sans,Helvetica,Arial,sans-serif" font-size="10.00" fill="#dc322f">4 calls</text>
</g>
<!-- model&#45;&gt;eval_model -->
<g id="edge3" class="edge">
<title>model&#45;&gt;eval_model</title>
<path fill="none" stroke="#002b36" d="M499.62,-196.13C530.76,-181.34 582.5,-156.78 620.91,-138.54"/>
<polygon fill="#002b36" stroke="#002b36" points="622.83,-141.51 630.36,-134.05 619.83,-135.18 622.83,-141.51"/>
<text text-anchor="middle" x="610" y="-166" font-family="Liberation Sans,Helvetica,Arial,sans-serif" font-size="10.00" fill="#002b36">model</text>
<text text-anchor="middle" x="610" y="-155" font-family="Liberation Sans,Helvetica,Arial,sans-serif" font-size="10.00" fill="#002b36">(4 values)</text>
</g>
<!-- X -->
<g id="node4" class="node">
<title>X</title>
<path fill="none" stroke="#268bd2" stroke-width="1.5" d="M708.5,-640C708.5,-640 678.5,-640 678.5,-640 672.5,-640 666.5,-634 666.5,-628 666.5,-628 666.5,-616 666.5,-616 666.5,-610 672.5,-604 678.5,-604 678.5,-604 708.5,-604 708.5,-604 714.5,-604 720.5,-610 720.5,-616 720.5,-616 720.5,-628 720.5,-628 720.5,-634 714.5,-640 708.5,-640"/>
<text text-anchor="start" x="689" y="-624.4" font-family="Liberation Sans,Helvetica,Arial,sans-serif" font-weight="bold" font-size="12.00" fill="#002b36">X</text>
<text text-anchor="start" x="675" y="-614" font-family="Liberation Sans,Helvetica,Arial,sans-serif" font-size="10.00" fill="#268bd2">2 values</text>
</g>
<!-- get_train_test_split -->
<g id="node14" class="node">
<title>get_train_test_split</title>
<path fill="none" stroke="#dc322f" stroke-width="1.5" d="M662,-546C662,-546 561,-546 561,-546 555,-546 549,-540 549,-534 549,-534 549,-518 549,-518 549,-512 555,-506 561,-506 561,-506 662,-506 662,-506 668,-506 674,-512 674,-518 674,-518 674,-534 674,-534 674,-540 668,-546 662,-546"/>
<text text-anchor="start" x="557" y="-533.4" font-family="Liberation Sans,Helvetica,Arial,sans-serif" font-weight="bold" font-size="12.00" fill="#002b36">get_train_test_split</text>
<text text-anchor="start" x="558" y="-523" font-family="Liberation Sans,Helvetica,Arial,sans-serif" font-size="10.00" fill="#002b36">@op:get_train_test_split</text>
<text text-anchor="start" x="597" y="-513" font-family="Liberation Sans,Helvetica,Arial,sans-serif" font-size="10.00" fill="#dc322f">2 calls</text>
</g>
<!-- X&#45;&gt;get_train_test_split -->
<g id="edge10" class="edge">
<title>X&#45;&gt;get_train_test_split</title>
<path fill="none" stroke="#002b36" d="M671.88,-603.71C665.67,-598.31 659.07,-592.16 653.5,-586 644.82,-576.41 636.34,-565 629.29,-554.78"/>
<polygon fill="#002b36" stroke="#002b36" points="631.99,-552.52 623.5,-546.18 626.19,-556.43 631.99,-552.52"/>
<text text-anchor="middle" x="675" y="-578" font-family="Liberation Sans,Helvetica,Arial,sans-serif" font-size="10.00" fill="#002b36">X</text>
<text text-anchor="middle" x="675" y="-567" font-family="Liberation Sans,Helvetica,Arial,sans-serif" font-size="10.00" fill="#002b36">(2 values)</text>
</g>
<!-- scale_data -->
<g id="node16" class="node">
<title>scale_data</title>
<path fill="none" stroke="#dc322f" stroke-width="1.5" d="M771.5,-546C771.5,-546 707.5,-546 707.5,-546 701.5,-546 695.5,-540 695.5,-534 695.5,-534 695.5,-518 695.5,-518 695.5,-512 701.5,-506 707.5,-506 707.5,-506 771.5,-506 771.5,-506 777.5,-506 783.5,-512 783.5,-518 783.5,-518 783.5,-534 783.5,-534 783.5,-540 777.5,-546 771.5,-546"/>
<text text-anchor="start" x="708.5" y="-533.4" font-family="Liberation Sans,Helvetica,Arial,sans-serif" font-weight="bold" font-size="12.00" fill="#002b36">scale_data</text>
<text text-anchor="start" x="703.5" y="-523" font-family="Liberation Sans,Helvetica,Arial,sans-serif" font-size="10.00" fill="#002b36">@op:scale_data</text>
<text text-anchor="start" x="725" y="-513" font-family="Liberation Sans,Helvetica,Arial,sans-serif" font-size="10.00" fill="#dc322f">1 calls</text>
</g>
<!-- X&#45;&gt;scale_data -->
<g id="edge9" class="edge">
<title>X&#45;&gt;scale_data</title>
<path fill="none" stroke="#002b36" d="M696.41,-603.86C698.84,-592.18 702.98,-576.6 709.5,-564 711.2,-560.72 713.21,-557.46 715.39,-554.32"/>
<polygon fill="#002b36" stroke="#002b36" points="718.19,-556.41 721.39,-546.31 712.59,-552.21 718.19,-556.41"/>
<text text-anchor="middle" x="731" y="-578" font-family="Liberation Sans,Helvetica,Arial,sans-serif" font-size="10.00" fill="#002b36">X</text>
<text text-anchor="middle" x="731" y="-567" font-family="Liberation Sans,Helvetica,Arial,sans-serif" font-size="10.00" fill="#002b36">(1 values)</text>
</g>
<!-- X_train -->
<g id="node5" class="node">
<title>X_train</title>
<path fill="none" stroke="#268bd2" stroke-width="1.5" d="M401,-448C401,-448 368,-448 368,-448 362,-448 356,-442 356,-436 356,-436 356,-424 356,-424 356,-418 362,-412 368,-412 368,-412 401,-412 401,-412 407,-412 413,-418 413,-424 413,-424 413,-436 413,-436 413,-442 407,-448 401,-448"/>
<text text-anchor="start" x="364" y="-432.4" font-family="Liberation Sans,Helvetica,Arial,sans-serif" font-weight="bold" font-size="12.00" fill="#002b36">X_train</text>
<text text-anchor="start" x="366" y="-422" font-family="Liberation Sans,Helvetica,Arial,sans-serif" font-size="10.00" fill="#268bd2">2 values</text>
</g>
<!-- train_svc -->
<g id="node17" class="node">
<title>train_svc</title>
<path fill="none" stroke="#dc322f" stroke-width="1.5" d="M269.5,-340C269.5,-340 213.5,-340 213.5,-340 207.5,-340 201.5,-334 201.5,-328 201.5,-328 201.5,-312 201.5,-312 201.5,-306 207.5,-300 213.5,-300 213.5,-300 269.5,-300 269.5,-300 275.5,-300 281.5,-306 281.5,-312 281.5,-312 281.5,-328 281.5,-328 281.5,-334 275.5,-340 269.5,-340"/>
<text text-anchor="start" x="215" y="-327.4" font-family="Liberation Sans,Helvetica,Arial,sans-serif" font-weight="bold" font-size="12.00" fill="#002b36">train_svc</text>
<text text-anchor="start" x="209.5" y="-317" font-family="Liberation Sans,Helvetica,Arial,sans-serif" font-size="10.00" fill="#002b36">@op:train_svc</text>
<text text-anchor="start" x="227" y="-307" font-family="Liberation Sans,Helvetica,Arial,sans-serif" font-size="10.00" fill="#dc322f">2 calls</text>
</g>
<!-- X_train&#45;&gt;train_svc -->
<g id="edge14" class="edge">
<title>X_train&#45;&gt;train_svc</title>
<path fill="none" stroke="#002b36" d="M355.87,-416.04C334.76,-406.44 309.51,-394.88 308.5,-394 294.19,-381.52 298.02,-372.27 285.5,-358 282.13,-354.16 278.35,-350.38 274.46,-346.78"/>
<polygon fill="#002b36" stroke="#002b36" points="276.73,-344.11 266.91,-340.13 272.1,-349.37 276.73,-344.11"/>
<text text-anchor="middle" x="330" y="-379" font-family="Liberation Sans,Helvetica,Arial,sans-serif" font-size="10.00" fill="#002b36">X_train</text>
<text text-anchor="middle" x="330" y="-368" font-family="Liberation Sans,Helvetica,Arial,sans-serif" font-size="10.00" fill="#002b36">(2 values)</text>
</g>
<!-- X_train&#45;&gt;train_random_forest -->
<g id="edge13" class="edge">
<title>X_train&#45;&gt;train_random_forest</title>
<path fill="none" stroke="#002b36" d="M402.62,-411.65C407.75,-406.25 413.13,-400.11 417.5,-394 428.02,-379.28 425.86,-372.63 436.5,-358 439.05,-354.49 441.92,-350.99 444.9,-347.62"/>
<polygon fill="#002b36" stroke="#002b36" points="447.71,-349.74 451.95,-340.03 442.58,-344.97 447.71,-349.74"/>
<text text-anchor="middle" x="458" y="-379" font-family="Liberation Sans,Helvetica,Arial,sans-serif" font-size="10.00" fill="#002b36">X_train</text>
<text text-anchor="middle" x="458" y="-368" font-family="Liberation Sans,Helvetica,Arial,sans-serif" font-size="10.00" fill="#002b36">(2 values)</text>
</g>
<!-- kernel -->
<g id="node6" class="node">
<title>kernel</title>
<path fill="none" stroke="#268bd2" stroke-width="1.5" d="M93,-448C93,-448 12,-448 12,-448 6,-448 0,-442 0,-436 0,-436 0,-424 0,-424 0,-418 6,-412 12,-412 12,-412 93,-412 93,-412 99,-412 105,-418 105,-424 105,-424 105,-436 105,-436 105,-442 99,-448 93,-448"/>
<text text-anchor="start" x="34.5" y="-432.4" font-family="Liberation Sans,Helvetica,Arial,sans-serif" font-weight="bold" font-size="12.00" fill="#002b36">kernel</text>
<text text-anchor="start" x="8" y="-422" font-family="Liberation Sans,Helvetica,Arial,sans-serif" font-size="10.00" fill="#268bd2">1 values (1 sources)</text>
</g>
<!-- kernel&#45;&gt;train_svc -->
<g id="edge21" class="edge">
<title>kernel&#45;&gt;train_svc</title>
<path fill="none" stroke="#002b36" d="M64.91,-411.99C77.48,-395.9 98.34,-372.18 121.5,-358 142.8,-344.96 169.06,-336.18 191.58,-330.46"/>
<polygon fill="#002b36" stroke="#002b36" points="192.41,-333.86 201.31,-328.12 190.77,-327.06 192.41,-333.86"/>
<text text-anchor="middle" x="143" y="-379" font-family="Liberation Sans,Helvetica,Arial,sans-serif" font-size="10.00" fill="#002b36">kernel</text>
<text text-anchor="middle" x="143" y="-368" font-family="Liberation Sans,Helvetica,Arial,sans-serif" font-size="10.00" fill="#002b36">(1 values)</text>
</g>
<!-- y_train -->
<g id="node7" class="node">
<title>y_train</title>
<path fill="none" stroke="#268bd2" stroke-width="1.5" d="M325.5,-448C325.5,-448 293.5,-448 293.5,-448 287.5,-448 281.5,-442 281.5,-436 281.5,-436 281.5,-424 281.5,-424 281.5,-418 287.5,-412 293.5,-412 293.5,-412 325.5,-412 325.5,-412 331.5,-412 337.5,-418 337.5,-424 337.5,-424 337.5,-436 337.5,-436 337.5,-442 331.5,-448 325.5,-448"/>
<text text-anchor="start" x="289.5" y="-432.4" font-family="Liberation Sans,Helvetica,Arial,sans-serif" font-weight="bold" font-size="12.00" fill="#002b36">y_train</text>
<text text-anchor="start" x="291" y="-422" font-family="Liberation Sans,Helvetica,Arial,sans-serif" font-size="10.00" fill="#268bd2">2 values</text>
</g>
<!-- y_train&#45;&gt;train_svc -->
<g id="edge18" class="edge">
<title>y_train&#45;&gt;train_svc</title>
<path fill="none" stroke="#002b36" d="M281.23,-421.73C267.01,-416.5 251.03,-407.86 242.5,-394 234.61,-381.18 233.83,-364.55 235.25,-350.4"/>
<polygon fill="#002b36" stroke="#002b36" points="238.76,-350.56 236.69,-340.17 231.83,-349.58 238.76,-350.56"/>
<text text-anchor="middle" x="264" y="-379" font-family="Liberation Sans,Helvetica,Arial,sans-serif" font-size="10.00" fill="#002b36">y_train</text>
<text text-anchor="middle" x="264" y="-368" font-family="Liberation Sans,Helvetica,Arial,sans-serif" font-size="10.00" fill="#002b36">(2 values)</text>
</g>
<!-- y_train&#45;&gt;train_random_forest -->
<g id="edge17" class="edge">
<title>y_train&#45;&gt;train_random_forest</title>
<path fill="none" stroke="#002b36" d="M333.23,-411.95C339.64,-406.65 346.24,-400.49 351.5,-394 362.89,-379.94 356.86,-369.88 370.5,-358 378.12,-351.37 387.02,-345.89 396.33,-341.37"/>
<polygon fill="#002b36" stroke="#002b36" points="398.04,-344.44 405.75,-337.17 395.19,-338.05 398.04,-344.44"/>
<text text-anchor="middle" x="392" y="-379" font-family="Liberation Sans,Helvetica,Arial,sans-serif" font-size="10.00" fill="#002b36">y_train</text>
<text text-anchor="middle" x="392" y="-368" font-family="Liberation Sans,Helvetica,Arial,sans-serif" font-size="10.00" fill="#002b36">(2 values)</text>
</g>
<!-- X_test -->
<g id="node8" class="node">
<title>X_test</title>
<path fill="none" stroke="#268bd2" stroke-width="1.5" d="M702.5,-394C702.5,-394 672.5,-394 672.5,-394 666.5,-394 660.5,-388 660.5,-382 660.5,-382 660.5,-370 660.5,-370 660.5,-364 666.5,-358 672.5,-358 672.5,-358 702.5,-358 702.5,-358 708.5,-358 714.5,-364 714.5,-370 714.5,-370 714.5,-382 714.5,-382 714.5,-388 708.5,-394 702.5,-394"/>
<text text-anchor="start" x="669" y="-378.4" font-family="Liberation Sans,Helvetica,Arial,sans-serif" font-weight="bold" font-size="12.00" fill="#002b36">X_test</text>
<text text-anchor="start" x="669" y="-368" font-family="Liberation Sans,Helvetica,Arial,sans-serif" font-size="10.00" fill="#268bd2">2 values</text>
</g>
<!-- X_test&#45;&gt;eval_model -->
<g id="edge2" class="edge">
<title>X_test&#45;&gt;eval_model</title>
<path fill="none" stroke="#002b36" d="M682.38,-357.71C677.19,-339.19 669.49,-308.81 666.5,-282 661.14,-233.89 664.47,-177.51 667.44,-144.11"/>
<polygon fill="#002b36" stroke="#002b36" points="670.92,-144.39 668.38,-134.11 663.96,-143.74 670.92,-144.39"/>
<text text-anchor="middle" x="688" y="-267" font-family="Liberation Sans,Helvetica,Arial,sans-serif" font-size="10.00" fill="#002b36">X_test</text>
<text text-anchor="middle" x="688" y="-256" font-family="Liberation Sans,Helvetica,Arial,sans-serif" font-size="10.00" fill="#002b36">(2 values)</text>
</g>
<!-- max_depth -->
<g id="node9" class="node">
<title>max_depth</title>
<path fill="none" stroke="#268bd2" stroke-width="1.5" d="M647,-448C647,-448 566,-448 566,-448 560,-448 554,-442 554,-436 554,-436 554,-424 554,-424 554,-418 560,-412 566,-412 566,-412 647,-412 647,-412 653,-412 659,-418 659,-424 659,-424 659,-436 659,-436 659,-442 653,-448 647,-448"/>
<text text-anchor="start" x="574.5" y="-432.4" font-family="Liberation Sans,Helvetica,Arial,sans-serif" font-weight="bold" font-size="12.00" fill="#002b36">max_depth</text>
<text text-anchor="start" x="562" y="-422" font-family="Liberation Sans,Helvetica,Arial,sans-serif" font-size="10.00" fill="#268bd2">1 values (1 sources)</text>
</g>
<!-- max_depth&#45;&gt;train_random_forest -->
<g id="edge15" class="edge">
<title>max_depth&#45;&gt;train_random_forest</title>
<path fill="none" stroke="#002b36" d="M595.03,-411.79C584.01,-396.23 566.16,-373.46 546.5,-358 540.6,-353.36 534.03,-349.07 527.3,-345.19"/>
<polygon fill="#002b36" stroke="#002b36" points="528.53,-341.87 518.08,-340.14 525.17,-348.01 528.53,-341.87"/>
<text text-anchor="middle" x="604" y="-379" font-family="Liberation Sans,Helvetica,Arial,sans-serif" font-size="10.00" fill="#002b36">max_depth</text>
<text text-anchor="middle" x="604" y="-368" font-family="Liberation Sans,Helvetica,Arial,sans-serif" font-size="10.00" fill="#002b36">(1 values)</text>
</g>
<!-- y_test -->
<g id="node10" class="node">
<title>y_test</title>
<path fill="none" stroke="#268bd2" stroke-width="1.5" d="M760.5,-282C760.5,-282 730.5,-282 730.5,-282 724.5,-282 718.5,-276 718.5,-270 718.5,-270 718.5,-258 718.5,-258 718.5,-252 724.5,-246 730.5,-246 730.5,-246 760.5,-246 760.5,-246 766.5,-246 772.5,-252 772.5,-258 772.5,-258 772.5,-270 772.5,-270 772.5,-276 766.5,-282 760.5,-282"/>
<text text-anchor="start" x="728" y="-266.4" font-family="Liberation Sans,Helvetica,Arial,sans-serif" font-weight="bold" font-size="12.00" fill="#002b36">y_test</text>
<text text-anchor="start" x="727" y="-256" font-family="Liberation Sans,Helvetica,Arial,sans-serif" font-size="10.00" fill="#268bd2">2 values</text>
</g>
<!-- y_test&#45;&gt;eval_model -->
<g id="edge4" class="edge">
<title>y_test&#45;&gt;eval_model</title>
<path fill="none" stroke="#002b36" d="M736.75,-245.73C723.99,-220.55 700.13,-173.46 684.79,-143.2"/>
<polygon fill="#002b36" stroke="#002b36" points="687.78,-141.36 680.14,-134.02 681.54,-144.52 687.78,-141.36"/>
<text text-anchor="middle" x="748" y="-213" font-family="Liberation Sans,Helvetica,Arial,sans-serif" font-size="10.00" fill="#002b36">y_test</text>
<text text-anchor="middle" x="748" y="-202" font-family="Liberation Sans,Helvetica,Arial,sans-serif" font-size="10.00" fill="#002b36">(2 values)</text>
</g>
<!-- y -->
<g id="node11" class="node">
<title>y</title>
<path fill="none" stroke="#268bd2" stroke-width="1.5" d="M621.5,-640C621.5,-640 591.5,-640 591.5,-640 585.5,-640 579.5,-634 579.5,-628 579.5,-628 579.5,-616 579.5,-616 579.5,-610 585.5,-604 591.5,-604 591.5,-604 621.5,-604 621.5,-604 627.5,-604 633.5,-610 633.5,-616 633.5,-616 633.5,-628 633.5,-628 633.5,-634 627.5,-640 621.5,-640"/>
<text text-anchor="start" x="603" y="-624.4" font-family="Liberation Sans,Helvetica,Arial,sans-serif" font-weight="bold" font-size="12.00" fill="#002b36">y</text>
<text text-anchor="start" x="588" y="-614" font-family="Liberation Sans,Helvetica,Arial,sans-serif" font-size="10.00" fill="#268bd2">1 values</text>
</g>
<!-- y&#45;&gt;get_train_test_split -->
<g id="edge11" class="edge">
<title>y&#45;&gt;get_train_test_split</title>
<path fill="none" stroke="#002b36" d="M588.16,-603.64C583.83,-598.43 579.8,-592.38 577.5,-586 574.18,-576.8 573.95,-573.11 577.5,-564 578.85,-560.55 580.68,-557.22 582.81,-554.07"/>
<polygon fill="#002b36" stroke="#002b36" points="585.57,-556.23 588.98,-546.2 580.06,-551.91 585.57,-556.23"/>
<text text-anchor="middle" x="599" y="-578" font-family="Liberation Sans,Helvetica,Arial,sans-serif" font-size="10.00" fill="#002b36">y</text>
<text text-anchor="middle" x="599" y="-567" font-family="Liberation Sans,Helvetica,Arial,sans-serif" font-size="10.00" fill="#002b36">(1 values)</text>
</g>
<!-- C -->
<g id="node12" class="node">
<title>C</title>
<path fill="none" stroke="#268bd2" stroke-width="1.5" d="M216,-448C216,-448 135,-448 135,-448 129,-448 123,-442 123,-436 123,-436 123,-424 123,-424 123,-418 129,-412 135,-412 135,-412 216,-412 216,-412 222,-412 228,-418 228,-424 228,-424 228,-436 228,-436 228,-442 222,-448 216,-448"/>
<text text-anchor="start" x="170.5" y="-432.4" font-family="Liberation Sans,Helvetica,Arial,sans-serif" font-weight="bold" font-size="12.00" fill="#002b36">C</text>
<text text-anchor="start" x="131" y="-422" font-family="Liberation Sans,Helvetica,Arial,sans-serif" font-size="10.00" fill="#268bd2">1 values (1 sources)</text>
</g>
<!-- C&#45;&gt;train_svc -->
<g id="edge20" class="edge">
<title>C&#45;&gt;train_svc</title>
<path fill="none" stroke="#002b36" d="M171.25,-411.95C168.44,-396.72 166.84,-374.34 176.5,-358 180.54,-351.16 186.36,-345.48 192.88,-340.79"/>
<polygon fill="#002b36" stroke="#002b36" points="194.86,-343.68 201.43,-335.37 191.11,-337.77 194.86,-343.68"/>
<text text-anchor="middle" x="198" y="-379" font-family="Liberation Sans,Helvetica,Arial,sans-serif" font-size="10.00" fill="#002b36">C</text>
<text text-anchor="middle" x="198" y="-368" font-family="Liberation Sans,Helvetica,Arial,sans-serif" font-size="10.00" fill="#002b36">(1 values)</text>
</g>
<!-- eval_model&#45;&gt;accuracy -->
<g id="edge1" class="edge">
<title>eval_model&#45;&gt;accuracy</title>
<path fill="none" stroke="#002b36" d="M670.5,-93.98C670.5,-80.34 670.5,-61.75 670.5,-46.5"/>
<polygon fill="#002b36" stroke="#002b36" points="674,-46.1 670.5,-36.1 667,-46.1 674,-46.1"/>
<text text-anchor="middle" x="692" y="-68" font-family="Liberation Sans,Helvetica,Arial,sans-serif" font-size="10.00" fill="#002b36">accuracy</text>
<text text-anchor="middle" x="692" y="-57" font-family="Liberation Sans,Helvetica,Arial,sans-serif" font-size="10.00" fill="#002b36">(4 values)</text>
</g>
<!-- get_train_test_split&#45;&gt;X_train -->
<g id="edge7" class="edge">
<title>get_train_test_split&#45;&gt;X_train</title>
<path fill="none" stroke="#002b36" d="M563.54,-505.98C525.23,-490.66 470.23,-468.39 422.5,-448 422.4,-447.96 422.31,-447.92 422.21,-447.88"/>
<polygon fill="#002b36" stroke="#002b36" points="423.65,-444.69 413.09,-443.91 420.87,-451.11 423.65,-444.69"/>
<text text-anchor="middle" x="536" y="-480" font-family="Liberation Sans,Helvetica,Arial,sans-serif" font-size="10.00" fill="#002b36">X_train</text>
<text text-anchor="middle" x="536" y="-469" font-family="Liberation Sans,Helvetica,Arial,sans-serif" font-size="10.00" fill="#002b36">(2 values)</text>
</g>
<!-- get_train_test_split&#45;&gt;y_train -->
<g id="edge8" class="edge">
<title>get_train_test_split&#45;&gt;y_train</title>
<path fill="none" stroke="#002b36" d="M548.75,-517.27C511.16,-511.54 462.81,-502.22 421.5,-488 395.33,-478.99 367.59,-464.91 346.26,-453"/>
<polygon fill="#002b36" stroke="#002b36" points="347.96,-449.94 337.54,-448.05 344.51,-456.03 347.96,-449.94"/>
<text text-anchor="middle" x="443" y="-480" font-family="Liberation Sans,Helvetica,Arial,sans-serif" font-size="10.00" fill="#002b36">y_train</text>
<text text-anchor="middle" x="443" y="-469" font-family="Liberation Sans,Helvetica,Arial,sans-serif" font-size="10.00" fill="#002b36">(2 values)</text>
</g>
<!-- get_train_test_split&#45;&gt;X_test -->
<g id="edge5" class="edge">
<title>get_train_test_split&#45;&gt;X_test</title>
<path fill="none" stroke="#002b36" d="M628.97,-505.76C641.59,-490.94 658.17,-469.42 668.5,-448 675.1,-434.31 679.68,-417.98 682.68,-404.44"/>
<polygon fill="#002b36" stroke="#002b36" points="686.18,-404.77 684.76,-394.28 679.32,-403.37 686.18,-404.77"/>
<text text-anchor="middle" x="679" y="-480" font-family="Liberation Sans,Helvetica,Arial,sans-serif" font-size="10.00" fill="#002b36">X_test</text>
<text text-anchor="middle" x="679" y="-469" font-family="Liberation Sans,Helvetica,Arial,sans-serif" font-size="10.00" fill="#002b36">(2 values)</text>
</g>
<!-- get_train_test_split&#45;&gt;y_test -->
<g id="edge6" class="edge">
<title>get_train_test_split&#45;&gt;y_test</title>
<path fill="none" stroke="#002b36" d="M674.14,-510.02C685.62,-504.73 696.48,-497.6 704.5,-488 751.8,-431.36 751.81,-338.09 748.43,-292.21"/>
<polygon fill="#002b36" stroke="#002b36" points="751.91,-291.8 747.57,-282.13 744.93,-292.39 751.91,-291.8"/>
<text text-anchor="middle" x="761" y="-433" font-family="Liberation Sans,Helvetica,Arial,sans-serif" font-size="10.00" fill="#002b36">y_test</text>
<text text-anchor="middle" x="761" y="-422" font-family="Liberation Sans,Helvetica,Arial,sans-serif" font-size="10.00" fill="#002b36">(2 values)</text>
</g>
<!-- get_data -->
<g id="node15" class="node">
<title>get_data</title>
<path fill="none" stroke="#dc322f" stroke-width="1.5" d="M669.5,-738C669.5,-738 615.5,-738 615.5,-738 609.5,-738 603.5,-732 603.5,-726 603.5,-726 603.5,-710 603.5,-710 603.5,-704 609.5,-698 615.5,-698 615.5,-698 669.5,-698 669.5,-698 675.5,-698 681.5,-704 681.5,-710 681.5,-710 681.5,-726 681.5,-726 681.5,-732 675.5,-738 669.5,-738"/>
<text text-anchor="start" x="617.5" y="-725.4" font-family="Liberation Sans,Helvetica,Arial,sans-serif" font-weight="bold" font-size="12.00" fill="#002b36">get_data</text>
<text text-anchor="start" x="611.5" y="-715" font-family="Liberation Sans,Helvetica,Arial,sans-serif" font-size="10.00" fill="#002b36">@op:get_data</text>
<text text-anchor="start" x="628" y="-705" font-family="Liberation Sans,Helvetica,Arial,sans-serif" font-size="10.00" fill="#dc322f">1 calls</text>
</g>
<!-- get_data&#45;&gt;X -->
<g id="edge22" class="edge">
<title>get_data&#45;&gt;X</title>
<path fill="none" stroke="#002b36" d="M652.82,-697.98C660.44,-683.94 670.89,-664.66 679.3,-649.17"/>
<polygon fill="#002b36" stroke="#002b36" points="682.53,-650.56 684.22,-640.1 676.38,-647.22 682.53,-650.56"/>
<text text-anchor="middle" x="695" y="-672" font-family="Liberation Sans,Helvetica,Arial,sans-serif" font-size="10.00" fill="#002b36">X</text>
<text text-anchor="middle" x="695" y="-661" font-family="Liberation Sans,Helvetica,Arial,sans-serif" font-size="10.00" fill="#002b36">(1 values)</text>
</g>
<!-- get_data&#45;&gt;y -->
<g id="edge23" class="edge">
<title>get_data&#45;&gt;y</title>
<path fill="none" stroke="#002b36" d="M622.65,-697.76C618.25,-692.43 614.13,-686.35 611.5,-680 607.69,-670.8 606.1,-660.06 605.57,-650.4"/>
<polygon fill="#002b36" stroke="#002b36" points="609.06,-650.02 605.37,-640.09 602.07,-650.16 609.06,-650.02"/>
<text text-anchor="middle" x="633" y="-672" font-family="Liberation Sans,Helvetica,Arial,sans-serif" font-size="10.00" fill="#002b36">y</text>
<text text-anchor="middle" x="633" y="-661" font-family="Liberation Sans,Helvetica,Arial,sans-serif" font-size="10.00" fill="#002b36">(1 values)</text>
</g>
<!-- scale_data&#45;&gt;X -->
<g id="edge24" class="edge">
<title>scale_data&#45;&gt;X</title>
<path fill="none" stroke="#002b36" d="M750.28,-546.11C755.57,-558.19 759.46,-573.79 752.5,-586 747.33,-595.08 738.77,-602.05 729.75,-607.29"/>
<polygon fill="#002b36" stroke="#002b36" points="727.98,-604.26 720.69,-611.96 731.19,-610.49 727.98,-604.26"/>
<text text-anchor="middle" x="777" y="-578" font-family="Liberation Sans,Helvetica,Arial,sans-serif" font-size="10.00" fill="#002b36">X_scaled</text>
<text text-anchor="middle" x="777" y="-567" font-family="Liberation Sans,Helvetica,Arial,sans-serif" font-size="10.00" fill="#002b36">(1 values)</text>
</g>
<!-- train_svc&#45;&gt;model -->
<g id="edge19" class="edge">
<title>train_svc&#45;&gt;model</title>
<path fill="none" stroke="#002b36" d="M281.74,-300.19C325.27,-279.84 394.07,-247.67 436.06,-228.04"/>
<polygon fill="#002b36" stroke="#002b36" points="437.78,-231.1 445.36,-223.69 434.82,-224.75 437.78,-231.1"/>
<text text-anchor="middle" x="414.5" y="-267" font-family="Liberation Sans,Helvetica,Arial,sans-serif" font-size="10.00" fill="#002b36">svc_model</text>
<text text-anchor="middle" x="414.5" y="-256" font-family="Liberation Sans,Helvetica,Arial,sans-serif" font-size="10.00" fill="#002b36">(2 values)</text>
</g>
<!-- train_random_forest&#45;&gt;model -->
<g id="edge12" class="edge">
<title>train_random_forest&#45;&gt;model</title>
<path fill="none" stroke="#002b36" d="M472.5,-299.94C472.5,-282.85 472.5,-257.58 472.5,-238.34"/>
<polygon fill="#002b36" stroke="#002b36" points="476,-238.09 472.5,-228.09 469,-238.09 476,-238.09"/>
<text text-anchor="middle" x="494" y="-267" font-family="Liberation Sans,Helvetica,Arial,sans-serif" font-size="10.00" fill="#002b36">rf_model</text>
<text text-anchor="middle" x="494" y="-256" font-family="Liberation Sans,Helvetica,Arial,sans-serif" font-size="10.00" fill="#002b36">(2 values)</text>
</g>
</g>
</svg>
