<?xml version="1.0" encoding="UTF-8" standalone="no"?>
<!DOCTYPE svg PUBLIC "-//W3C//DTD SVG 1.1//EN"
 "http://www.w3.org/Graphics/SVG/1.1/DTD/svg11.dtd">
<!-- Generated by graphviz version 2.50.0 (0)
 -->
<!-- Title: G Pages: 1 -->
<svg width="801pt" height="910pt"
 viewBox="0.00 0.00 800.50 910.00" xmlns="http://www.w3.org/2000/svg" xmlns:xlink="http://www.w3.org/1999/xlink">
<g id="graph0" class="graph" transform="scale(1 1) rotate(0) translate(4 906)">
<title>G</title>
<polygon fill="white" stroke="transparent" points="-4,4 -4,-906 796.5,-906 796.5,4 -4,4"/>
<!-- y_test -->
<g id="node1" class="node">
<title>y_test</title>
<path fill="none" stroke="#268bd2" stroke-width="1.5" d="M73,-612C73,-612 43,-612 43,-612 37,-612 31,-606 31,-600 31,-600 31,-588 31,-588 31,-582 37,-576 43,-576 43,-576 73,-576 73,-576 79,-576 85,-582 85,-588 85,-588 85,-600 85,-600 85,-606 79,-612 73,-612"/>
<text text-anchor="start" x="40.5" y="-596.4" font-family="Liberation Sans,Helvetica,Arial,sans-serif" font-weight="bold" font-size="12.00" fill="#002b36">y_test</text>
<text text-anchor="start" x="39.5" y="-586" font-family="Liberation Sans,Helvetica,Arial,sans-serif" font-size="10.00" fill="#268bd2">2 values</text>
</g>
<!-- eval_ensemble -->
<g id="node16" class="node">
<title>eval_ensemble</title>
<path fill="none" stroke="#dc322f" stroke-width="1.5" d="M214,-134C214,-134 132,-134 132,-134 126,-134 120,-128 120,-122 120,-122 120,-106 120,-106 120,-100 126,-94 132,-94 132,-94 214,-94 214,-94 220,-94 226,-100 226,-106 226,-106 226,-122 226,-122 226,-128 220,-134 214,-134"/>
<text text-anchor="start" x="130" y="-121.4" font-family="Liberation Sans,Helvetica,Arial,sans-serif" font-weight="bold" font-size="12.00" fill="#002b36">eval_ensemble</text>
<text text-anchor="start" x="128" y="-111" font-family="Liberation Sans,Helvetica,Arial,sans-serif" font-size="10.00" fill="#002b36">@op:eval_ensemble</text>
<text text-anchor="start" x="158.5" y="-101" font-family="Liberation Sans,Helvetica,Arial,sans-serif" font-size="10.00" fill="#dc322f">2 calls</text>
</g>
<!-- y_test&#45;&gt;eval_ensemble -->
<g id="edge5" class="edge">
<title>y_test&#45;&gt;eval_ensemble</title>
<path fill="none" stroke="#002b36" d="M39.33,-575.87C22.37,-558.37 0,-529.49 0,-499 0,-499 0,-499 0,-209 0,-157.35 60.26,-133.93 109.65,-123.4"/>
<polygon fill="#002b36" stroke="#002b36" points="110.56,-126.79 119.68,-121.4 109.19,-119.92 110.56,-126.79"/>
<text text-anchor="middle" x="21.5" y="-358" font-family="Liberation Sans,Helvetica,Arial,sans-serif" font-size="10.00" fill="#002b36">y_test</text>
<text text-anchor="middle" x="21.5" y="-347" font-family="Liberation Sans,Helvetica,Arial,sans-serif" font-size="10.00" fill="#002b36">(2 values)</text>
</g>
<!-- eval_model -->
<g id="node18" class="node">
<title>eval_model</title>
<path fill="none" stroke="#dc322f" stroke-width="1.5" d="M127,-326C127,-326 61,-326 61,-326 55,-326 49,-320 49,-314 49,-314 49,-298 49,-298 49,-292 55,-286 61,-286 61,-286 127,-286 127,-286 133,-286 139,-292 139,-298 139,-298 139,-314 139,-314 139,-320 133,-326 127,-326"/>
<text text-anchor="start" x="61" y="-313.4" font-family="Liberation Sans,Helvetica,Arial,sans-serif" font-weight="bold" font-size="12.00" fill="#002b36">eval_model</text>
<text text-anchor="start" x="57" y="-303" font-family="Liberation Sans,Helvetica,Arial,sans-serif" font-size="10.00" fill="#002b36">@op:eval_model</text>
<text text-anchor="start" x="77" y="-293" font-family="Liberation Sans,Helvetica,Arial,sans-serif" font-size="10.00" fill="#dc322f">12 calls</text>
</g>
<!-- y_test&#45;&gt;eval_model -->
<g id="edge4" class="edge">
<title>y_test&#45;&gt;eval_model</title>
<path fill="none" stroke="#002b36" d="M56.69,-575.7C54.82,-546.95 52.32,-487.61 59,-438 63.82,-402.16 75.46,-362.17 84,-335.91"/>
<polygon fill="#002b36" stroke="#002b36" points="87.38,-336.81 87.21,-326.22 80.74,-334.61 87.38,-336.81"/>
<text text-anchor="middle" x="80.5" y="-452" font-family="Liberation Sans,Helvetica,Arial,sans-serif" font-size="10.00" fill="#002b36">y_test</text>
<text text-anchor="middle" x="80.5" y="-441" font-family="Liberation Sans,Helvetica,Arial,sans-serif" font-size="10.00" fill="#002b36">(2 values)</text>
</g>
<!-- X -->
<g id="node2" class="node">
<title>X</title>
<path fill="none" stroke="#268bd2" stroke-width="1.5" d="M148,-804C148,-804 118,-804 118,-804 112,-804 106,-798 106,-792 106,-792 106,-780 106,-780 106,-774 112,-768 118,-768 118,-768 148,-768 148,-768 154,-768 160,-774 160,-780 160,-780 160,-792 160,-792 160,-798 154,-804 148,-804"/>
<text text-anchor="start" x="128.5" y="-788.4" font-family="Liberation Sans,Helvetica,Arial,sans-serif" font-weight="bold" font-size="12.00" fill="#002b36">X</text>
<text text-anchor="start" x="114.5" y="-778" font-family="Liberation Sans,Helvetica,Arial,sans-serif" font-size="10.00" fill="#268bd2">2 values</text>
</g>
<!-- scale_data -->
<g id="node15" class="node">
<title>scale_data</title>
<path fill="none" stroke="#dc322f" stroke-width="1.5" d="M104,-710C104,-710 40,-710 40,-710 34,-710 28,-704 28,-698 28,-698 28,-682 28,-682 28,-676 34,-670 40,-670 40,-670 104,-670 104,-670 110,-670 116,-676 116,-682 116,-682 116,-698 116,-698 116,-704 110,-710 104,-710"/>
<text text-anchor="start" x="41" y="-697.4" font-family="Liberation Sans,Helvetica,Arial,sans-serif" font-weight="bold" font-size="12.00" fill="#002b36">scale_data</text>
<text text-anchor="start" x="36" y="-687" font-family="Liberation Sans,Helvetica,Arial,sans-serif" font-size="10.00" fill="#002b36">@op:scale_data</text>
<text text-anchor="start" x="57.5" y="-677" font-family="Liberation Sans,Helvetica,Arial,sans-serif" font-size="10.00" fill="#dc322f">1 calls</text>
</g>
<!-- X&#45;&gt;scale_data -->
<g id="edge15" class="edge">
<title>X&#45;&gt;scale_data</title>
<path fill="none" stroke="#002b36" d="M105.83,-783.15C83.5,-780.04 53.18,-771.77 38,-750 30.96,-739.9 35.27,-728.25 42.87,-717.99"/>
<polygon fill="#002b36" stroke="#002b36" points="45.74,-720.01 49.51,-710.11 40.39,-715.5 45.74,-720.01"/>
<text text-anchor="middle" x="59.5" y="-742" font-family="Liberation Sans,Helvetica,Arial,sans-serif" font-size="10.00" fill="#002b36">X</text>
<text text-anchor="middle" x="59.5" y="-731" font-family="Liberation Sans,Helvetica,Arial,sans-serif" font-size="10.00" fill="#002b36">(1 values)</text>
</g>
<!-- get_train_test_split -->
<g id="node21" class="node">
<title>get_train_test_split</title>
<path fill="none" stroke="#dc322f" stroke-width="1.5" d="M250.5,-710C250.5,-710 149.5,-710 149.5,-710 143.5,-710 137.5,-704 137.5,-698 137.5,-698 137.5,-682 137.5,-682 137.5,-676 143.5,-670 149.5,-670 149.5,-670 250.5,-670 250.5,-670 256.5,-670 262.5,-676 262.5,-682 262.5,-682 262.5,-698 262.5,-698 262.5,-704 256.5,-710 250.5,-710"/>
<text text-anchor="start" x="145.5" y="-697.4" font-family="Liberation Sans,Helvetica,Arial,sans-serif" font-weight="bold" font-size="12.00" fill="#002b36">get_train_test_split</text>
<text text-anchor="start" x="146.5" y="-687" font-family="Liberation Sans,Helvetica,Arial,sans-serif" font-size="10.00" fill="#002b36">@op:get_train_test_split</text>
<text text-anchor="start" x="185.5" y="-677" font-family="Liberation Sans,Helvetica,Arial,sans-serif" font-size="10.00" fill="#dc322f">2 calls</text>
</g>
<!-- X&#45;&gt;get_train_test_split -->
<g id="edge16" class="edge">
<title>X&#45;&gt;get_train_test_split</title>
<path fill="none" stroke="#002b36" d="M141.61,-767.94C147.79,-756.28 156.65,-740.71 166,-728 168.5,-724.6 171.27,-721.16 174.12,-717.83"/>
<polygon fill="#002b36" stroke="#002b36" points="176.79,-720.08 180.81,-710.28 171.56,-715.44 176.79,-720.08"/>
<text text-anchor="middle" x="187.5" y="-742" font-family="Liberation Sans,Helvetica,Arial,sans-serif" font-size="10.00" fill="#002b36">X</text>
<text text-anchor="middle" x="187.5" y="-731" font-family="Liberation Sans,Helvetica,Arial,sans-serif" font-size="10.00" fill="#002b36">(2 values)</text>
</g>
<!-- accuracy -->
<g id="node3" class="node">
<title>accuracy</title>
<path fill="none" stroke="#268bd2" stroke-width="1.5" d="M148,-36C148,-36 68,-36 68,-36 62,-36 56,-30 56,-24 56,-24 56,-12 56,-12 56,-6 62,0 68,0 68,0 148,0 148,0 154,0 160,-6 160,-12 160,-12 160,-24 160,-24 160,-30 154,-36 148,-36"/>
<text text-anchor="start" x="81.5" y="-20.4" font-family="Liberation Sans,Helvetica,Arial,sans-serif" font-weight="bold" font-size="12.00" fill="#002b36">accuracy</text>
<text text-anchor="start" x="64" y="-10" font-family="Liberation Sans,Helvetica,Arial,sans-serif" font-size="10.00" fill="#268bd2">14 values (14 sinks)</text>
</g>
<!-- model -->
<g id="node4" class="node">
<title>model</title>
<path fill="none" stroke="#268bd2" stroke-width="1.5" d="M296.5,-420C296.5,-420 261.5,-420 261.5,-420 255.5,-420 249.5,-414 249.5,-408 249.5,-408 249.5,-396 249.5,-396 249.5,-390 255.5,-384 261.5,-384 261.5,-384 296.5,-384 296.5,-384 302.5,-384 308.5,-390 308.5,-396 308.5,-396 308.5,-408 308.5,-408 308.5,-414 302.5,-420 296.5,-420"/>
<text text-anchor="start" x="261" y="-404.4" font-family="Liberation Sans,Helvetica,Arial,sans-serif" font-weight="bold" font-size="12.00" fill="#002b36">model</text>
<text text-anchor="start" x="257.5" y="-394" font-family="Liberation Sans,Helvetica,Arial,sans-serif" font-size="10.00" fill="#268bd2">12 values</text>
</g>
<!-- __make_list__ -->
<g id="node17" class="node">
<title>__make_list__</title>
<path fill="none" stroke="#dc322f" stroke-width="1.5" d="M301,-326C301,-326 221,-326 221,-326 215,-326 209,-320 209,-314 209,-314 209,-298 209,-298 209,-292 215,-286 221,-286 221,-286 301,-286 301,-286 307,-286 313,-292 313,-298 313,-298 313,-314 313,-314 313,-320 307,-326 301,-326"/>
<text text-anchor="start" x="220" y="-313.4" font-family="Liberation Sans,Helvetica,Arial,sans-serif" font-weight="bold" font-size="12.00" fill="#002b36">__make_list__</text>
<text text-anchor="start" x="217" y="-303" font-family="Liberation Sans,Helvetica,Arial,sans-serif" font-size="10.00" fill="#002b36">@op:__make_list__</text>
<text text-anchor="start" x="246.5" y="-293" font-family="Liberation Sans,Helvetica,Arial,sans-serif" font-size="10.00" fill="#dc322f">2 calls</text>
</g>
<!-- model&#45;&gt;__make_list__ -->
<g id="edge8" class="edge">
<title>model&#45;&gt;__make_list__</title>
<path fill="none" stroke="#002b36" d="M275.7,-383.76C273.16,-370.5 269.59,-351.86 266.61,-336.27"/>
<polygon fill="#002b36" stroke="#002b36" points="269.97,-335.24 264.65,-326.07 263.1,-336.55 269.97,-335.24"/>
<text text-anchor="middle" x="296.5" y="-358" font-family="Liberation Sans,Helvetica,Arial,sans-serif" font-size="10.00" fill="#002b36">*elts</text>
<text text-anchor="middle" x="296.5" y="-347" font-family="Liberation Sans,Helvetica,Arial,sans-serif" font-size="10.00" fill="#002b36">(12 values)</text>
</g>
<!-- model&#45;&gt;eval_model -->
<g id="edge7" class="edge">
<title>model&#45;&gt;eval_model</title>
<path fill="none" stroke="#002b36" d="M249.28,-385.9C220.05,-371.05 175.01,-348.16 140.94,-330.85"/>
<polygon fill="#002b36" stroke="#002b36" points="142.15,-327.54 131.65,-326.13 138.98,-333.78 142.15,-327.54"/>
<text text-anchor="middle" x="232.5" y="-358" font-family="Liberation Sans,Helvetica,Arial,sans-serif" font-size="10.00" fill="#002b36">model</text>
<text text-anchor="middle" x="232.5" y="-347" font-family="Liberation Sans,Helvetica,Arial,sans-serif" font-size="10.00" fill="#002b36">(12 values)</text>
</g>
<!-- n_estimators -->
<g id="node5" class="node">
<title>n_estimators</title>
<path fill="none" stroke="#268bd2" stroke-width="1.5" d="M237.5,-612C237.5,-612 156.5,-612 156.5,-612 150.5,-612 144.5,-606 144.5,-600 144.5,-600 144.5,-588 144.5,-588 144.5,-582 150.5,-576 156.5,-576 156.5,-576 237.5,-576 237.5,-576 243.5,-576 249.5,-582 249.5,-588 249.5,-588 249.5,-600 249.5,-600 249.5,-606 243.5,-612 237.5,-612"/>
<text text-anchor="start" x="159.5" y="-596.4" font-family="Liberation Sans,Helvetica,Arial,sans-serif" font-weight="bold" font-size="12.00" fill="#002b36">n_estimators</text>
<text text-anchor="start" x="152.5" y="-586" font-family="Liberation Sans,Helvetica,Arial,sans-serif" font-size="10.00" fill="#268bd2">3 values (3 sources)</text>
</g>
<!-- train_random_forest -->
<g id="node20" class="node">
<title>train_random_forest</title>
<path fill="none" stroke="#dc322f" stroke-width="1.5" d="M335.5,-518C335.5,-518 226.5,-518 226.5,-518 220.5,-518 214.5,-512 214.5,-506 214.5,-506 214.5,-490 214.5,-490 214.5,-484 220.5,-478 226.5,-478 226.5,-478 335.5,-478 335.5,-478 341.5,-478 347.5,-484 347.5,-490 347.5,-490 347.5,-506 347.5,-506 347.5,-512 341.5,-518 335.5,-518"/>
<text text-anchor="start" x="222.5" y="-505.4" font-family="Liberation Sans,Helvetica,Arial,sans-serif" font-weight="bold" font-size="12.00" fill="#002b36">train_random_forest</text>
<text text-anchor="start" x="225.5" y="-495" font-family="Liberation Sans,Helvetica,Arial,sans-serif" font-size="10.00" fill="#002b36">@op:train_random_forest</text>
<text text-anchor="start" x="266.5" y="-485" font-family="Liberation Sans,Helvetica,Arial,sans-serif" font-size="10.00" fill="#dc322f">6 calls</text>
</g>
<!-- n_estimators&#45;&gt;train_random_forest -->
<g id="edge22" class="edge">
<title>n_estimators&#45;&gt;train_random_forest</title>
<path fill="none" stroke="#002b36" d="M199.36,-575.97C201.78,-563.73 206.6,-547.45 216,-536 219.7,-531.5 224.09,-527.44 228.83,-523.81"/>
<polygon fill="#002b36" stroke="#002b36" points="230.84,-526.67 237.06,-518.09 226.85,-520.92 230.84,-526.67"/>
<text text-anchor="middle" x="244.5" y="-550" font-family="Liberation Sans,Helvetica,Arial,sans-serif" font-size="10.00" fill="#002b36">n_estimators</text>
<text text-anchor="middle" x="244.5" y="-539" font-family="Liberation Sans,Helvetica,Arial,sans-serif" font-size="10.00" fill="#002b36">(3 values)</text>
</g>
<!-- X_test -->
<g id="node6" class="node">
<title>X_test</title>
<path fill="none" stroke="#268bd2" stroke-width="1.5" d="M131,-420C131,-420 101,-420 101,-420 95,-420 89,-414 89,-408 89,-408 89,-396 89,-396 89,-390 95,-384 101,-384 101,-384 131,-384 131,-384 137,-384 143,-390 143,-396 143,-396 143,-408 143,-408 143,-414 137,-420 131,-420"/>
<text text-anchor="start" x="97.5" y="-404.4" font-family="Liberation Sans,Helvetica,Arial,sans-serif" font-weight="bold" font-size="12.00" fill="#002b36">X_test</text>
<text text-anchor="start" x="97.5" y="-394" font-family="Liberation Sans,Helvetica,Arial,sans-serif" font-size="10.00" fill="#268bd2">2 values</text>
</g>
<!-- X_test&#45;&gt;eval_ensemble -->
<g id="edge2" class="edge">
<title>X_test&#45;&gt;eval_ensemble</title>
<path fill="none" stroke="#002b36" d="M141.01,-383.76C146.54,-378.7 151.72,-372.7 155,-366 190.82,-292.87 184.02,-193.16 177.68,-144.35"/>
<polygon fill="#002b36" stroke="#002b36" points="181.11,-143.61 176.26,-134.18 174.17,-144.57 181.11,-143.61"/>
<text text-anchor="middle" x="203.5" y="-260" font-family="Liberation Sans,Helvetica,Arial,sans-serif" font-size="10.00" fill="#002b36">X_test</text>
<text text-anchor="middle" x="203.5" y="-249" font-family="Liberation Sans,Helvetica,Arial,sans-serif" font-size="10.00" fill="#002b36">(2 values)</text>
</g>
<!-- X_test&#45;&gt;eval_model -->
<g id="edge1" class="edge">
<title>X_test&#45;&gt;eval_model</title>
<path fill="none" stroke="#002b36" d="M111.96,-383.76C108.83,-370.37 104.42,-351.5 100.75,-335.82"/>
<polygon fill="#002b36" stroke="#002b36" points="104.15,-335.01 98.46,-326.07 97.33,-336.61 104.15,-335.01"/>
<text text-anchor="middle" x="129.5" y="-358" font-family="Liberation Sans,Helvetica,Arial,sans-serif" font-size="10.00" fill="#002b36">X_test</text>
<text text-anchor="middle" x="129.5" y="-347" font-family="Liberation Sans,Helvetica,Arial,sans-serif" font-size="10.00" fill="#002b36">(2 values)</text>
</g>
<!-- models -->
<g id="node7" class="node">
<title>models</title>
<path fill="none" stroke="#268bd2" stroke-width="1.5" d="M252.5,-228C252.5,-228 217.5,-228 217.5,-228 211.5,-228 205.5,-222 205.5,-216 205.5,-216 205.5,-204 205.5,-204 205.5,-198 211.5,-192 217.5,-192 217.5,-192 252.5,-192 252.5,-192 258.5,-192 264.5,-198 264.5,-204 264.5,-204 264.5,-216 264.5,-216 264.5,-222 258.5,-228 252.5,-228"/>
<text text-anchor="start" x="213.5" y="-212.4" font-family="Liberation Sans,Helvetica,Arial,sans-serif" font-weight="bold" font-size="12.00" fill="#002b36">models</text>
<text text-anchor="start" x="216.5" y="-202" font-family="Liberation Sans,Helvetica,Arial,sans-serif" font-size="10.00" fill="#268bd2">2 values</text>
</g>
<!-- models&#45;&gt;eval_ensemble -->
<g id="edge3" class="edge">
<title>models&#45;&gt;eval_ensemble</title>
<path fill="none" stroke="#002b36" d="M223.63,-191.76C214.54,-177.99 201.64,-158.42 191.13,-142.49"/>
<polygon fill="#002b36" stroke="#002b36" points="194.01,-140.49 185.58,-134.07 188.16,-144.35 194.01,-140.49"/>
<text text-anchor="middle" x="232.5" y="-166" font-family="Liberation Sans,Helvetica,Arial,sans-serif" font-size="10.00" fill="#002b36">models</text>
<text text-anchor="middle" x="232.5" y="-155" font-family="Liberation Sans,Helvetica,Arial,sans-serif" font-size="10.00" fill="#002b36">(2 values)</text>
</g>
<!-- max_depth -->
<g id="node8" class="node">
<title>max_depth</title>
<path fill="none" stroke="#268bd2" stroke-width="1.5" d="M360.5,-612C360.5,-612 279.5,-612 279.5,-612 273.5,-612 267.5,-606 267.5,-600 267.5,-600 267.5,-588 267.5,-588 267.5,-582 273.5,-576 279.5,-576 279.5,-576 360.5,-576 360.5,-576 366.5,-576 372.5,-582 372.5,-588 372.5,-588 372.5,-600 372.5,-600 372.5,-606 366.5,-612 360.5,-612"/>
<text text-anchor="start" x="288" y="-596.4" font-family="Liberation Sans,Helvetica,Arial,sans-serif" font-weight="bold" font-size="12.00" fill="#002b36">max_depth</text>
<text text-anchor="start" x="275.5" y="-586" font-family="Liberation Sans,Helvetica,Arial,sans-serif" font-size="10.00" fill="#268bd2">1 values (1 sources)</text>
</g>
<!-- max_depth&#45;&gt;train_random_forest -->
<g id="edge21" class="edge">
<title>max_depth&#45;&gt;train_random_forest</title>
<path fill="none" stroke="#002b36" d="M295.37,-575.77C289.99,-570.71 285.01,-564.71 282,-558 277.9,-548.87 276.79,-538.12 276.97,-528.31"/>
<polygon fill="#002b36" stroke="#002b36" points="280.48,-528.36 277.61,-518.16 273.49,-527.93 280.48,-528.36"/>
<text text-anchor="middle" x="306.5" y="-550" font-family="Liberation Sans,Helvetica,Arial,sans-serif" font-size="10.00" fill="#002b36">max_depth</text>
<text text-anchor="middle" x="306.5" y="-539" font-family="Liberation Sans,Helvetica,Arial,sans-serif" font-size="10.00" fill="#002b36">(1 values)</text>
</g>
<!-- y -->
<g id="node9" class="node">
<title>y</title>
<path fill="none" stroke="#268bd2" stroke-width="1.5" d="M235,-804C235,-804 205,-804 205,-804 199,-804 193,-798 193,-792 193,-792 193,-780 193,-780 193,-774 199,-768 205,-768 205,-768 235,-768 235,-768 241,-768 247,-774 247,-780 247,-780 247,-792 247,-792 247,-798 241,-804 235,-804"/>
<text text-anchor="start" x="216.5" y="-788.4" font-family="Liberation Sans,Helvetica,Arial,sans-serif" font-weight="bold" font-size="12.00" fill="#002b36">y</text>
<text text-anchor="start" x="201.5" y="-778" font-family="Liberation Sans,Helvetica,Arial,sans-serif" font-size="10.00" fill="#268bd2">1 values</text>
</g>
<!-- y&#45;&gt;get_train_test_split -->
<g id="edge17" class="edge">
<title>y&#45;&gt;get_train_test_split</title>
<path fill="none" stroke="#002b36" d="M218.87,-767.87C217.87,-756.46 216.09,-741.2 213,-728 212.38,-725.36 211.64,-722.64 210.83,-719.93"/>
<polygon fill="#002b36" stroke="#002b36" points="214.13,-718.76 207.68,-710.35 207.48,-720.95 214.13,-718.76"/>
<text text-anchor="middle" x="237.5" y="-742" font-family="Liberation Sans,Helvetica,Arial,sans-serif" font-size="10.00" fill="#002b36">y</text>
<text text-anchor="middle" x="237.5" y="-731" font-family="Liberation Sans,Helvetica,Arial,sans-serif" font-size="10.00" fill="#002b36">(1 values)</text>
</g>
<!-- C -->
<g id="node10" class="node">
<title>C</title>
<path fill="none" stroke="#268bd2" stroke-width="1.5" d="M657.5,-612C657.5,-612 576.5,-612 576.5,-612 570.5,-612 564.5,-606 564.5,-600 564.5,-600 564.5,-588 564.5,-588 564.5,-582 570.5,-576 576.5,-576 576.5,-576 657.5,-576 657.5,-576 663.5,-576 669.5,-582 669.5,-588 669.5,-588 669.5,-600 669.5,-600 669.5,-606 663.5,-612 657.5,-612"/>
<text text-anchor="start" x="612" y="-596.4" font-family="Liberation Sans,Helvetica,Arial,sans-serif" font-weight="bold" font-size="12.00" fill="#002b36">C</text>
<text text-anchor="start" x="572.5" y="-586" font-family="Liberation Sans,Helvetica,Arial,sans-serif" font-size="10.00" fill="#268bd2">1 values (1 sources)</text>
</g>
<!-- train_svc -->
<g id="node19" class="node">
<title>train_svc</title>
<path fill="none" stroke="#dc322f" stroke-width="1.5" d="M579,-518C579,-518 523,-518 523,-518 517,-518 511,-512 511,-506 511,-506 511,-490 511,-490 511,-484 517,-478 523,-478 523,-478 579,-478 579,-478 585,-478 591,-484 591,-490 591,-490 591,-506 591,-506 591,-512 585,-518 579,-518"/>
<text text-anchor="start" x="524.5" y="-505.4" font-family="Liberation Sans,Helvetica,Arial,sans-serif" font-weight="bold" font-size="12.00" fill="#002b36">train_svc</text>
<text text-anchor="start" x="519" y="-495" font-family="Liberation Sans,Helvetica,Arial,sans-serif" font-size="10.00" fill="#002b36">@op:train_svc</text>
<text text-anchor="start" x="536.5" y="-485" font-family="Liberation Sans,Helvetica,Arial,sans-serif" font-size="10.00" fill="#dc322f">6 calls</text>
</g>
<!-- C&#45;&gt;train_svc -->
<g id="edge26" class="edge">
<title>C&#45;&gt;train_svc</title>
<path fill="none" stroke="#002b36" d="M609.13,-575.85C603.43,-564.16 595.13,-548.58 586,-536 583.49,-532.54 580.67,-529.06 577.76,-525.7"/>
<polygon fill="#002b36" stroke="#002b36" points="580.21,-523.19 570.89,-518.14 575.02,-527.89 580.21,-523.19"/>
<text text-anchor="middle" x="620.5" y="-550" font-family="Liberation Sans,Helvetica,Arial,sans-serif" font-size="10.00" fill="#002b36">C</text>
<text text-anchor="middle" x="620.5" y="-539" font-family="Liberation Sans,Helvetica,Arial,sans-serif" font-size="10.00" fill="#002b36">(1 values)</text>
</g>
<!-- kernel -->
<g id="node11" class="node">
<title>kernel</title>
<path fill="none" stroke="#268bd2" stroke-width="1.5" d="M780.5,-612C780.5,-612 699.5,-612 699.5,-612 693.5,-612 687.5,-606 687.5,-600 687.5,-600 687.5,-588 687.5,-588 687.5,-582 693.5,-576 699.5,-576 699.5,-576 780.5,-576 780.5,-576 786.5,-576 792.5,-582 792.5,-588 792.5,-588 792.5,-600 792.5,-600 792.5,-606 786.5,-612 780.5,-612"/>
<text text-anchor="start" x="722" y="-596.4" font-family="Liberation Sans,Helvetica,Arial,sans-serif" font-weight="bold" font-size="12.00" fill="#002b36">kernel</text>
<text text-anchor="start" x="695.5" y="-586" font-family="Liberation Sans,Helvetica,Arial,sans-serif" font-size="10.00" fill="#268bd2">3 values (3 sources)</text>
</g>
<!-- kernel&#45;&gt;train_svc -->
<g id="edge27" class="edge">
<title>kernel&#45;&gt;train_svc</title>
<path fill="none" stroke="#002b36" d="M714.35,-575.78C695.83,-563.76 669.96,-547.82 646,-536 631.68,-528.93 615.65,-522.25 600.89,-516.56"/>
<polygon fill="#002b36" stroke="#002b36" points="602.01,-513.24 591.42,-512.97 599.53,-519.79 602.01,-513.24"/>
<text text-anchor="middle" x="706.5" y="-550" font-family="Liberation Sans,Helvetica,Arial,sans-serif" font-size="10.00" fill="#002b36">kernel</text>
<text text-anchor="middle" x="706.5" y="-539" font-family="Liberation Sans,Helvetica,Arial,sans-serif" font-size="10.00" fill="#002b36">(3 values)</text>
</g>
<!-- X_train -->
<g id="node12" class="node">
<title>X_train</title>
<path fill="none" stroke="#268bd2" stroke-width="1.5" d="M510.5,-612C510.5,-612 477.5,-612 477.5,-612 471.5,-612 465.5,-606 465.5,-600 465.5,-600 465.5,-588 465.5,-588 465.5,-582 471.5,-576 477.5,-576 477.5,-576 510.5,-576 510.5,-576 516.5,-576 522.5,-582 522.5,-588 522.5,-588 522.5,-600 522.5,-600 522.5,-606 516.5,-612 510.5,-612"/>
<text text-anchor="start" x="473.5" y="-596.4" font-family="Liberation Sans,Helvetica,Arial,sans-serif" font-weight="bold" font-size="12.00" fill="#002b36">X_train</text>
<text text-anchor="start" x="475.5" y="-586" font-family="Liberation Sans,Helvetica,Arial,sans-serif" font-size="10.00" fill="#268bd2">2 values</text>
</g>
<!-- X_train&#45;&gt;train_svc -->
<g id="edge20" class="edge">
<title>X_train&#45;&gt;train_svc</title>
<path fill="none" stroke="#002b36" d="M514.15,-575.78C519.5,-570.49 524.91,-564.36 529,-558 534.94,-548.76 539.61,-537.68 543.08,-527.63"/>
<polygon fill="#002b36" stroke="#002b36" points="546.44,-528.62 546.17,-518.03 539.78,-526.48 546.44,-528.62"/>
<text text-anchor="middle" x="560.5" y="-550" font-family="Liberation Sans,Helvetica,Arial,sans-serif" font-size="10.00" fill="#002b36">X_train</text>
<text text-anchor="middle" x="560.5" y="-539" font-family="Liberation Sans,Helvetica,Arial,sans-serif" font-size="10.00" fill="#002b36">(2 values)</text>
</g>
<!-- X_train&#45;&gt;train_random_forest -->
<g id="edge19" class="edge">
<title>X_train&#45;&gt;train_random_forest</title>
<path fill="none" stroke="#002b36" d="M489.07,-575.89C484.45,-562.94 476.22,-545.78 463,-536 446.14,-523.53 399.43,-514.18 357.55,-508"/>
<polygon fill="#002b36" stroke="#002b36" points="357.98,-504.53 347.59,-506.58 356.99,-511.46 357.98,-504.53"/>
<text text-anchor="middle" x="501.5" y="-550" font-family="Liberation Sans,Helvetica,Arial,sans-serif" font-size="10.00" fill="#002b36">X_train</text>
<text text-anchor="middle" x="501.5" y="-539" font-family="Liberation Sans,Helvetica,Arial,sans-serif" font-size="10.00" fill="#002b36">(2 values)</text>
</g>
<!-- y_train -->
<g id="node13" class="node">
<title>y_train</title>
<path fill="none" stroke="#268bd2" stroke-width="1.5" d="M435,-612C435,-612 403,-612 403,-612 397,-612 391,-606 391,-600 391,-600 391,-588 391,-588 391,-582 397,-576 403,-576 403,-576 435,-576 435,-576 441,-576 447,-582 447,-588 447,-588 447,-600 447,-600 447,-606 441,-612 435,-612"/>
<text text-anchor="start" x="399" y="-596.4" font-family="Liberation Sans,Helvetica,Arial,sans-serif" font-weight="bold" font-size="12.00" fill="#002b36">y_train</text>
<text text-anchor="start" x="400.5" y="-586" font-family="Liberation Sans,Helvetica,Arial,sans-serif" font-size="10.00" fill="#268bd2">2 values</text>
</g>
<!-- y_train&#45;&gt;train_svc -->
<g id="edge24" class="edge">
<title>y_train&#45;&gt;train_svc</title>
<path fill="none" stroke="#002b36" d="M414.31,-575.78C412.05,-563.45 411.42,-547.13 420,-536 430.1,-522.89 468.34,-513.06 500.91,-506.83"/>
<polygon fill="#002b36" stroke="#002b36" points="501.6,-510.26 510.81,-505.02 500.34,-503.38 501.6,-510.26"/>
<text text-anchor="middle" x="441.5" y="-550" font-family="Liberation Sans,Helvetica,Arial,sans-serif" font-size="10.00" fill="#002b36">y_train</text>
<text text-anchor="middle" x="441.5" y="-539" font-family="Liberation Sans,Helvetica,Arial,sans-serif" font-size="10.00" fill="#002b36">(2 values)</text>
</g>
<!-- y_train&#45;&gt;train_random_forest -->
<g id="edge23" class="edge">
<title>y_train&#45;&gt;train_random_forest</title>
<path fill="none" stroke="#002b36" d="M392.23,-575.93C383.5,-570.29 373.8,-563.94 365,-558 348.82,-547.08 331.12,-534.71 316.15,-524.12"/>
<polygon fill="#002b36" stroke="#002b36" points="317.86,-521.05 307.68,-518.12 313.82,-526.76 317.86,-521.05"/>
<text text-anchor="middle" x="386.5" y="-550" font-family="Liberation Sans,Helvetica,Arial,sans-serif" font-size="10.00" fill="#002b36">y_train</text>
<text text-anchor="middle" x="386.5" y="-539" font-family="Liberation Sans,Helvetica,Arial,sans-serif" font-size="10.00" fill="#002b36">(2 values)</text>
</g>
<!-- get_data -->
<g id="node14" class="node">
<title>get_data</title>
<path fill="none" stroke="#dc322f" stroke-width="1.5" d="M196,-902C196,-902 142,-902 142,-902 136,-902 130,-896 130,-890 130,-890 130,-874 130,-874 130,-868 136,-862 142,-862 142,-862 196,-862 196,-862 202,-862 208,-868 208,-874 208,-874 208,-890 208,-890 208,-896 202,-902 196,-902"/>
<text text-anchor="start" x="144" y="-889.4" font-family="Liberation Sans,Helvetica,Arial,sans-serif" font-weight="bold" font-size="12.00" fill="#002b36">get_data</text>
<text text-anchor="start" x="138" y="-879" font-family="Liberation Sans,Helvetica,Arial,sans-serif" font-size="10.00" fill="#002b36">@op:get_data</text>
<text text-anchor="start" x="154.5" y="-869" font-family="Liberation Sans,Helvetica,Arial,sans-serif" font-size="10.00" fill="#dc322f">1 calls</text>
</g>
<!-- get_data&#45;&gt;X -->
<g id="edge28" class="edge">
<title>get_data&#45;&gt;X</title>
<path fill="none" stroke="#002b36" d="M155.32,-861.68C151.88,-856.17 148.47,-850.02 146,-844 142.12,-834.56 139.28,-823.73 137.26,-814.07"/>
<polygon fill="#002b36" stroke="#002b36" points="140.68,-813.34 135.39,-804.16 133.81,-814.64 140.68,-813.34"/>
<text text-anchor="middle" x="167.5" y="-836" font-family="Liberation Sans,Helvetica,Arial,sans-serif" font-size="10.00" fill="#002b36">X</text>
<text text-anchor="middle" x="167.5" y="-825" font-family="Liberation Sans,Helvetica,Arial,sans-serif" font-size="10.00" fill="#002b36">(1 values)</text>
</g>
<!-- get_data&#45;&gt;y -->
<g id="edge29" class="edge">
<title>get_data&#45;&gt;y</title>
<path fill="none" stroke="#002b36" d="M179.32,-861.98C186.94,-847.94 197.39,-828.66 205.8,-813.17"/>
<polygon fill="#002b36" stroke="#002b36" points="209.03,-814.56 210.72,-804.1 202.88,-811.22 209.03,-814.56"/>
<text text-anchor="middle" x="221.5" y="-836" font-family="Liberation Sans,Helvetica,Arial,sans-serif" font-size="10.00" fill="#002b36">y</text>
<text text-anchor="middle" x="221.5" y="-825" font-family="Liberation Sans,Helvetica,Arial,sans-serif" font-size="10.00" fill="#002b36">(1 values)</text>
</g>
<!-- scale_data&#45;&gt;X -->
<g id="edge30" class="edge">
<title>scale_data&#45;&gt;X</title>
<path fill="none" stroke="#002b36" d="M81.19,-710.15C87.15,-721.97 95.39,-737.26 104,-750 106.22,-753.29 108.69,-756.64 111.23,-759.89"/>
<polygon fill="#002b36" stroke="#002b36" points="108.54,-762.14 117.55,-767.72 113.99,-757.74 108.54,-762.14"/>
<text text-anchor="middle" x="125.5" y="-742" font-family="Liberation Sans,Helvetica,Arial,sans-serif" font-size="10.00" fill="#002b36">X_scaled</text>
<text text-anchor="middle" x="125.5" y="-731" font-family="Liberation Sans,Helvetica,Arial,sans-serif" font-size="10.00" fill="#002b36">(1 values)</text>
</g>
<!-- eval_ensemble&#45;&gt;accuracy -->
<g id="edge9" class="edge">
<title>eval_ensemble&#45;&gt;accuracy</title>
<path fill="none" stroke="#002b36" d="M159.85,-93.98C150.05,-79.81 136.56,-60.3 125.8,-44.74"/>
<polygon fill="#002b36" stroke="#002b36" points="128.39,-42.33 119.82,-36.1 122.63,-46.31 128.39,-42.33"/>
<text text-anchor="middle" x="168.5" y="-68" font-family="Liberation Sans,Helvetica,Arial,sans-serif" font-size="10.00" fill="#002b36">accuracy</text>
<text text-anchor="middle" x="168.5" y="-57" font-family="Liberation Sans,Helvetica,Arial,sans-serif" font-size="10.00" fill="#002b36">(2 values)</text>
</g>
<!-- __make_list__&#45;&gt;models -->
<g id="edge10" class="edge">
<title>__make_list__&#45;&gt;models</title>
<path fill="none" stroke="#002b36" d="M255.74,-285.98C251.93,-272.2 246.72,-253.39 242.48,-238.05"/>
<polygon fill="#002b36" stroke="#002b36" points="245.77,-236.8 239.73,-228.1 239.02,-238.67 245.77,-236.8"/>
<text text-anchor="middle" x="271.5" y="-260" font-family="Liberation Sans,Helvetica,Arial,sans-serif" font-size="10.00" fill="#002b36">list</text>
<text text-anchor="middle" x="271.5" y="-249" font-family="Liberation Sans,Helvetica,Arial,sans-serif" font-size="10.00" fill="#002b36">(2 values)</text>
</g>
<!-- eval_model&#45;&gt;accuracy -->
<g id="edge6" class="edge">
<title>eval_model&#45;&gt;accuracy</title>
<path fill="none" stroke="#002b36" d="M94.94,-285.79C97.37,-236.26 103.84,-104.05 106.66,-46.45"/>
<polygon fill="#002b36" stroke="#002b36" points="110.16,-46.45 107.15,-36.29 103.17,-46.11 110.16,-46.45"/>
<text text-anchor="middle" x="126.5" y="-166" font-family="Liberation Sans,Helvetica,Arial,sans-serif" font-size="10.00" fill="#002b36">accuracy</text>
<text text-anchor="middle" x="126.5" y="-155" font-family="Liberation Sans,Helvetica,Arial,sans-serif" font-size="10.00" fill="#002b36">(12 values)</text>
</g>
<!-- train_svc&#45;&gt;model -->
<g id="edge25" class="edge">
<title>train_svc&#45;&gt;model</title>
<path fill="none" stroke="#002b36" d="M510.87,-483.13C459.19,-465.27 369.94,-434.43 318.55,-416.67"/>
<polygon fill="#002b36" stroke="#002b36" points="319.4,-413.26 308.8,-413.3 317.11,-419.87 319.4,-413.26"/>
<text text-anchor="middle" x="463" y="-452" font-family="Liberation Sans,Helvetica,Arial,sans-serif" font-size="10.00" fill="#002b36">svc_model</text>
<text text-anchor="middle" x="463" y="-441" font-family="Liberation Sans,Helvetica,Arial,sans-serif" font-size="10.00" fill="#002b36">(6 values)</text>
</g>
<!-- train_random_forest&#45;&gt;model -->
<g id="edge18" class="edge">
<title>train_random_forest&#45;&gt;model</title>
<path fill="none" stroke="#002b36" d="M280.6,-477.98C280.31,-464.34 279.91,-445.75 279.59,-430.5"/>
<polygon fill="#002b36" stroke="#002b36" points="283.08,-430.02 279.36,-420.1 276.08,-430.17 283.08,-430.02"/>
<text text-anchor="middle" x="301.5" y="-452" font-family="Liberation Sans,Helvetica,Arial,sans-serif" font-size="10.00" fill="#002b36">rf_model</text>
<text text-anchor="middle" x="301.5" y="-441" font-family="Liberation Sans,Helvetica,Arial,sans-serif" font-size="10.00" fill="#002b36">(6 values)</text>
</g>
<!-- get_train_test_split&#45;&gt;y_test -->
<g id="edge12" class="edge">
<title>get_train_test_split&#45;&gt;y_test</title>
<path fill="none" stroke="#002b36" d="M137.36,-673C100,-663.39 59.67,-652.85 59,-652 52.51,-643.74 51.23,-632.53 51.96,-622.24"/>
<polygon fill="#002b36" stroke="#002b36" points="55.47,-622.38 53.3,-612.01 48.53,-621.47 55.47,-622.38"/>
<text text-anchor="middle" x="80.5" y="-644" font-family="Liberation Sans,Helvetica,Arial,sans-serif" font-size="10.00" fill="#002b36">y_test</text>
<text text-anchor="middle" x="80.5" y="-633" font-family="Liberation Sans,Helvetica,Arial,sans-serif" font-size="10.00" fill="#002b36">(2 values)</text>
</g>
<!-- get_train_test_split&#45;&gt;X_test -->
<g id="edge11" class="edge">
<title>get_train_test_split&#45;&gt;X_test</title>
<path fill="none" stroke="#002b36" d="M177.87,-669.82C163,-655.51 144.44,-634.6 135,-612 109.46,-550.9 110.61,-471.21 113.42,-430.12"/>
<polygon fill="#002b36" stroke="#002b36" points="116.92,-430.31 114.2,-420.07 109.94,-429.77 116.92,-430.31"/>
<text text-anchor="middle" x="141.5" y="-550" font-family="Liberation Sans,Helvetica,Arial,sans-serif" font-size="10.00" fill="#002b36">X_test</text>
<text text-anchor="middle" x="141.5" y="-539" font-family="Liberation Sans,Helvetica,Arial,sans-serif" font-size="10.00" fill="#002b36">(2 values)</text>
</g>
<!-- get_train_test_split&#45;&gt;X_train -->
<g id="edge13" class="edge">
<title>get_train_test_split&#45;&gt;X_train</title>
<path fill="none" stroke="#002b36" d="M262.92,-680.81C299.02,-675.02 344.81,-665.79 384,-652 409.63,-642.98 436.74,-628.99 457.64,-617.12"/>
<polygon fill="#002b36" stroke="#002b36" points="459.58,-620.05 466.49,-612.02 456.08,-613.99 459.58,-620.05"/>
<text text-anchor="middle" x="454.5" y="-644" font-family="Liberation Sans,Helvetica,Arial,sans-serif" font-size="10.00" fill="#002b36">X_train</text>
<text text-anchor="middle" x="454.5" y="-633" font-family="Liberation Sans,Helvetica,Arial,sans-serif" font-size="10.00" fill="#002b36">(2 values)</text>
</g>
<!-- get_train_test_split&#45;&gt;y_train -->
<g id="edge14" class="edge">
<title>get_train_test_split&#45;&gt;y_train</title>
<path fill="none" stroke="#002b36" d="M246.17,-669.92C280.97,-655.44 330.07,-634.79 381.48,-612.18"/>
<polygon fill="#002b36" stroke="#002b36" points="383.02,-615.32 390.76,-608.08 380.2,-608.92 383.02,-615.32"/>
<text text-anchor="middle" x="358.5" y="-644" font-family="Liberation Sans,Helvetica,Arial,sans-serif" font-size="10.00" fill="#002b36">y_train</text>
<text text-anchor="middle" x="358.5" y="-633" font-family="Liberation Sans,Helvetica,Arial,sans-serif" font-size="10.00" fill="#002b36">(2 values)</text>
</g>
</g>
</svg>
