<?xml version="1.0" encoding="UTF-8" standalone="no"?>
<!DOCTYPE svg PUBLIC "-//W3C//DTD SVG 1.1//EN"
 "http://www.w3.org/Graphics/SVG/1.1/DTD/svg11.dtd">
<!-- Generated by graphviz version 2.50.0 (0)
 -->
<!-- Title: G Pages: 1 -->
<svg width="438pt" height="334pt"
 viewBox="0.00 0.00 438.00 334.00" xmlns="http://www.w3.org/2000/svg" xmlns:xlink="http://www.w3.org/1999/xlink">
<g id="graph0" class="graph" transform="scale(1 1) rotate(0) translate(4 330)">
<title>G</title>
<polygon fill="white" stroke="transparent" points="-4,4 -4,-330 434,-330 434,4 -4,4"/>
<!-- X -->
<g id="node1" class="node">
<title>X</title>
<path fill="none" stroke="#268bd2" stroke-width="1.5" d="M163,-228C163,-228 133,-228 133,-228 127,-228 121,-222 121,-216 121,-216 121,-204 121,-204 121,-198 127,-192 133,-192 133,-192 163,-192 163,-192 169,-192 175,-198 175,-204 175,-204 175,-216 175,-216 175,-222 169,-228 163,-228"/>
<text text-anchor="start" x="143.5" y="-212.4" font-family="Liberation Sans,Helvetica,Arial,sans-serif" font-weight="bold" font-size="12.00" fill="#002b36">X</text>
<text text-anchor="start" x="129.5" y="-202" font-family="Liberation Sans,Helvetica,Arial,sans-serif" font-size="10.00" fill="#268bd2">2 values</text>
</g>
<!-- scale_data -->
<g id="node7" class="node">
<title>scale_data</title>
<path fill="none" stroke="#dc322f" stroke-width="1.5" d="M119,-134C119,-134 55,-134 55,-134 49,-134 43,-128 43,-122 43,-122 43,-106 43,-106 43,-100 49,-94 55,-94 55,-94 119,-94 119,-94 125,-94 131,-100 131,-106 131,-106 131,-122 131,-122 131,-128 125,-134 119,-134"/>
<text text-anchor="start" x="56" y="-121.4" font-family="Liberation Sans,Helvetica,Arial,sans-serif" font-weight="bold" font-size="12.00" fill="#002b36">scale_data</text>
<text text-anchor="start" x="51" y="-111" font-family="Liberation Sans,Helvetica,Arial,sans-serif" font-size="10.00" fill="#002b36">@op:scale_data</text>
<text text-anchor="start" x="72.5" y="-101" font-family="Liberation Sans,Helvetica,Arial,sans-serif" font-size="10.00" fill="#dc322f">1 calls</text>
</g>
<!-- X&#45;&gt;scale_data -->
<g id="edge5" class="edge">
<title>X&#45;&gt;scale_data</title>
<path fill="none" stroke="#002b36" d="M120.83,-207.15C98.5,-204.04 68.18,-195.77 53,-174 45.96,-163.9 50.27,-152.25 57.87,-141.99"/>
<polygon fill="#002b36" stroke="#002b36" points="60.74,-144.01 64.51,-134.11 55.39,-139.5 60.74,-144.01"/>
<text text-anchor="middle" x="74.5" y="-166" font-family="Liberation Sans,Helvetica,Arial,sans-serif" font-size="10.00" fill="#002b36">X</text>
<text text-anchor="middle" x="74.5" y="-155" font-family="Liberation Sans,Helvetica,Arial,sans-serif" font-size="10.00" fill="#002b36">(1 values)</text>
</g>
<!-- get_train_test_split -->
<g id="node8" class="node">
<title>get_train_test_split</title>
<path fill="none" stroke="#dc322f" stroke-width="1.5" d="M265.5,-134C265.5,-134 164.5,-134 164.5,-134 158.5,-134 152.5,-128 152.5,-122 152.5,-122 152.5,-106 152.5,-106 152.5,-100 158.5,-94 164.5,-94 164.5,-94 265.5,-94 265.5,-94 271.5,-94 277.5,-100 277.5,-106 277.5,-106 277.5,-122 277.5,-122 277.5,-128 271.5,-134 265.5,-134"/>
<text text-anchor="start" x="160.5" y="-121.4" font-family="Liberation Sans,Helvetica,Arial,sans-serif" font-weight="bold" font-size="12.00" fill="#002b36">get_train_test_split</text>
<text text-anchor="start" x="161.5" y="-111" font-family="Liberation Sans,Helvetica,Arial,sans-serif" font-size="10.00" fill="#002b36">@op:get_train_test_split</text>
<text text-anchor="start" x="200.5" y="-101" font-family="Liberation Sans,Helvetica,Arial,sans-serif" font-size="10.00" fill="#dc322f">2 calls</text>
</g>
<!-- X&#45;&gt;get_train_test_split -->
<g id="edge6" class="edge">
<title>X&#45;&gt;get_train_test_split</title>
<path fill="none" stroke="#002b36" d="M156.61,-191.94C162.79,-180.28 171.65,-164.71 181,-152 183.5,-148.6 186.27,-145.16 189.12,-141.83"/>
<polygon fill="#002b36" stroke="#002b36" points="191.79,-144.08 195.81,-134.28 186.56,-139.44 191.79,-144.08"/>
<text text-anchor="middle" x="202.5" y="-166" font-family="Liberation Sans,Helvetica,Arial,sans-serif" font-size="10.00" fill="#002b36">X</text>
<text text-anchor="middle" x="202.5" y="-155" font-family="Liberation Sans,Helvetica,Arial,sans-serif" font-size="10.00" fill="#002b36">(2 values)</text>
</g>
<!-- y -->
<g id="node2" class="node">
<title>y</title>
<path fill="none" stroke="#268bd2" stroke-width="1.5" d="M250,-228C250,-228 220,-228 220,-228 214,-228 208,-222 208,-216 208,-216 208,-204 208,-204 208,-198 214,-192 220,-192 220,-192 250,-192 250,-192 256,-192 262,-198 262,-204 262,-204 262,-216 262,-216 262,-222 256,-228 250,-228"/>
<text text-anchor="start" x="231.5" y="-212.4" font-family="Liberation Sans,Helvetica,Arial,sans-serif" font-weight="bold" font-size="12.00" fill="#002b36">y</text>
<text text-anchor="start" x="216.5" y="-202" font-family="Liberation Sans,Helvetica,Arial,sans-serif" font-size="10.00" fill="#268bd2">1 values</text>
</g>
<!-- y&#45;&gt;get_train_test_split -->
<g id="edge7" class="edge">
<title>y&#45;&gt;get_train_test_split</title>
<path fill="none" stroke="#002b36" d="M233.87,-191.87C232.87,-180.46 231.09,-165.2 228,-152 227.38,-149.36 226.64,-146.64 225.83,-143.93"/>
<polygon fill="#002b36" stroke="#002b36" points="229.13,-142.76 222.68,-134.35 222.48,-144.95 229.13,-142.76"/>
<text text-anchor="middle" x="252.5" y="-166" font-family="Liberation Sans,Helvetica,Arial,sans-serif" font-size="10.00" fill="#002b36">y</text>
<text text-anchor="middle" x="252.5" y="-155" font-family="Liberation Sans,Helvetica,Arial,sans-serif" font-size="10.00" fill="#002b36">(1 values)</text>
</g>
<!-- X_train -->
<g id="node3" class="node">
<title>X_train</title>
<path fill="none" stroke="#268bd2" stroke-width="1.5" d="M82,-36C82,-36 12,-36 12,-36 6,-36 0,-30 0,-24 0,-24 0,-12 0,-12 0,-6 6,0 12,0 12,0 82,0 82,0 88,0 94,-6 94,-12 94,-12 94,-24 94,-24 94,-30 88,-36 82,-36"/>
<text text-anchor="start" x="26.5" y="-20.4" font-family="Liberation Sans,Helvetica,Arial,sans-serif" font-weight="bold" font-size="12.00" fill="#002b36">X_train</text>
<text text-anchor="start" x="8" y="-10" font-family="Liberation Sans,Helvetica,Arial,sans-serif" font-size="10.00" fill="#268bd2">2 values (2 sinks)</text>
</g>
<!-- X_test -->
<g id="node4" class="node">
<title>X_test</title>
<path fill="none" stroke="#268bd2" stroke-width="1.5" d="M194,-36C194,-36 124,-36 124,-36 118,-36 112,-30 112,-24 112,-24 112,-12 112,-12 112,-6 118,0 124,0 124,0 194,0 194,0 200,0 206,-6 206,-12 206,-12 206,-24 206,-24 206,-30 200,-36 194,-36"/>
<text text-anchor="start" x="140.5" y="-20.4" font-family="Liberation Sans,Helvetica,Arial,sans-serif" font-weight="bold" font-size="12.00" fill="#002b36">X_test</text>
<text text-anchor="start" x="120" y="-10" font-family="Liberation Sans,Helvetica,Arial,sans-serif" font-size="10.00" fill="#268bd2">2 values (2 sinks)</text>
</g>
<!-- y_test -->
<g id="node5" class="node">
<title>y_test</title>
<path fill="none" stroke="#268bd2" stroke-width="1.5" d="M306,-36C306,-36 236,-36 236,-36 230,-36 224,-30 224,-24 224,-24 224,-12 224,-12 224,-6 230,0 236,0 236,0 306,0 306,0 312,0 318,-6 318,-12 318,-12 318,-24 318,-24 318,-30 312,-36 306,-36"/>
<text text-anchor="start" x="253.5" y="-20.4" font-family="Liberation Sans,Helvetica,Arial,sans-serif" font-weight="bold" font-size="12.00" fill="#002b36">y_test</text>
<text text-anchor="start" x="232" y="-10" font-family="Liberation Sans,Helvetica,Arial,sans-serif" font-size="10.00" fill="#268bd2">2 values (2 sinks)</text>
</g>
<!-- y_train -->
<g id="node6" class="node">
<title>y_train</title>
<path fill="none" stroke="#268bd2" stroke-width="1.5" d="M418,-36C418,-36 348,-36 348,-36 342,-36 336,-30 336,-24 336,-24 336,-12 336,-12 336,-6 342,0 348,0 348,0 418,0 418,0 424,0 430,-6 430,-12 430,-12 430,-24 430,-24 430,-30 424,-36 418,-36"/>
<text text-anchor="start" x="363" y="-20.4" font-family="Liberation Sans,Helvetica,Arial,sans-serif" font-weight="bold" font-size="12.00" fill="#002b36">y_train</text>
<text text-anchor="start" x="344" y="-10" font-family="Liberation Sans,Helvetica,Arial,sans-serif" font-size="10.00" fill="#268bd2">2 values (2 sinks)</text>
</g>
<!-- scale_data&#45;&gt;X -->
<g id="edge10" class="edge">
<title>scale_data&#45;&gt;X</title>
<path fill="none" stroke="#002b36" d="M96.19,-134.15C102.15,-145.97 110.39,-161.26 119,-174 121.22,-177.29 123.69,-180.64 126.23,-183.89"/>
<polygon fill="#002b36" stroke="#002b36" points="123.54,-186.14 132.55,-191.72 128.99,-181.74 123.54,-186.14"/>
<text text-anchor="middle" x="140.5" y="-166" font-family="Liberation Sans,Helvetica,Arial,sans-serif" font-size="10.00" fill="#002b36">X_scaled</text>
<text text-anchor="middle" x="140.5" y="-155" font-family="Liberation Sans,Helvetica,Arial,sans-serif" font-size="10.00" fill="#002b36">(1 values)</text>
</g>
<!-- get_train_test_split&#45;&gt;X_train -->
<g id="edge2" class="edge">
<title>get_train_test_split&#45;&gt;X_train</title>
<path fill="none" stroke="#002b36" d="M169.24,-93.93C157.26,-88.51 144.48,-82.34 133,-76 114.48,-65.77 94.74,-52.85 78.85,-41.89"/>
<polygon fill="#002b36" stroke="#002b36" points="80.65,-38.88 70.45,-36.04 76.65,-44.63 80.65,-38.88"/>
<text text-anchor="middle" x="154.5" y="-68" font-family="Liberation Sans,Helvetica,Arial,sans-serif" font-size="10.00" fill="#002b36">X_train</text>
<text text-anchor="middle" x="154.5" y="-57" font-family="Liberation Sans,Helvetica,Arial,sans-serif" font-size="10.00" fill="#002b36">(2 values)</text>
</g>
<!-- get_train_test_split&#45;&gt;X_test -->
<g id="edge1" class="edge">
<title>get_train_test_split&#45;&gt;X_test</title>
<path fill="none" stroke="#002b36" d="M203.67,-93.98C195.23,-79.81 183.6,-60.3 174.33,-44.74"/>
<polygon fill="#002b36" stroke="#002b36" points="177.31,-42.9 169.19,-36.1 171.3,-46.48 177.31,-42.9"/>
<text text-anchor="middle" x="213.5" y="-68" font-family="Liberation Sans,Helvetica,Arial,sans-serif" font-size="10.00" fill="#002b36">X_test</text>
<text text-anchor="middle" x="213.5" y="-57" font-family="Liberation Sans,Helvetica,Arial,sans-serif" font-size="10.00" fill="#002b36">(2 values)</text>
</g>
<!-- get_train_test_split&#45;&gt;y_test -->
<g id="edge3" class="edge">
<title>get_train_test_split&#45;&gt;y_test</title>
<path fill="none" stroke="#002b36" d="M227.69,-93.94C231.41,-88.22 235.44,-81.9 239,-76 245.05,-65.99 251.41,-54.8 256.86,-45"/>
<polygon fill="#002b36" stroke="#002b36" points="259.99,-46.57 261.76,-36.12 253.86,-43.19 259.99,-46.57"/>
<text text-anchor="middle" x="272.5" y="-68" font-family="Liberation Sans,Helvetica,Arial,sans-serif" font-size="10.00" fill="#002b36">y_test</text>
<text text-anchor="middle" x="272.5" y="-57" font-family="Liberation Sans,Helvetica,Arial,sans-serif" font-size="10.00" fill="#002b36">(2 values)</text>
</g>
<!-- get_train_test_split&#45;&gt;y_train -->
<g id="edge4" class="edge">
<title>get_train_test_split&#45;&gt;y_train</title>
<path fill="none" stroke="#002b36" d="M261.78,-93.83C273.79,-88.45 286.54,-82.34 298,-76 316.37,-65.85 335.88,-52.93 351.58,-41.96"/>
<polygon fill="#002b36" stroke="#002b36" points="353.72,-44.72 359.87,-36.09 349.68,-39.01 353.72,-44.72"/>
<text text-anchor="middle" x="352.5" y="-68" font-family="Liberation Sans,Helvetica,Arial,sans-serif" font-size="10.00" fill="#002b36">y_train</text>
<text text-anchor="middle" x="352.5" y="-57" font-family="Liberation Sans,Helvetica,Arial,sans-serif" font-size="10.00" fill="#002b36">(2 values)</text>
</g>
<!-- get_data -->
<g id="node9" class="node">
<title>get_data</title>
<path fill="none" stroke="#dc322f" stroke-width="1.5" d="M211,-326C211,-326 157,-326 157,-326 151,-326 145,-320 145,-314 145,-314 145,-298 145,-298 145,-292 151,-286 157,-286 157,-286 211,-286 211,-286 217,-286 223,-292 223,-298 223,-298 223,-314 223,-314 223,-320 217,-326 211,-326"/>
<text text-anchor="start" x="159" y="-313.4" font-family="Liberation Sans,Helvetica,Arial,sans-serif" font-weight="bold" font-size="12.00" fill="#002b36">get_data</text>
<text text-anchor="start" x="153" y="-303" font-family="Liberation Sans,Helvetica,Arial,sans-serif" font-size="10.00" fill="#002b36">@op:get_data</text>
<text text-anchor="start" x="169.5" y="-293" font-family="Liberation Sans,Helvetica,Arial,sans-serif" font-size="10.00" fill="#dc322f">1 calls</text>
</g>
<!-- get_data&#45;&gt;X -->
<g id="edge8" class="edge">
<title>get_data&#45;&gt;X</title>
<path fill="none" stroke="#002b36" d="M164.15,-285.76C159.75,-280.43 155.63,-274.35 153,-268 149.19,-258.8 147.6,-248.06 147.07,-238.4"/>
<polygon fill="#002b36" stroke="#002b36" points="150.56,-238.02 146.87,-228.09 143.57,-238.16 150.56,-238.02"/>
<text text-anchor="middle" x="174.5" y="-260" font-family="Liberation Sans,Helvetica,Arial,sans-serif" font-size="10.00" fill="#002b36">X</text>
<text text-anchor="middle" x="174.5" y="-249" font-family="Liberation Sans,Helvetica,Arial,sans-serif" font-size="10.00" fill="#002b36">(1 values)</text>
</g>
<!-- get_data&#45;&gt;y -->
<g id="edge9" class="edge">
<title>get_data&#45;&gt;y</title>
<path fill="none" stroke="#002b36" d="M194.32,-285.98C201.94,-271.94 212.39,-252.66 220.8,-237.17"/>
<polygon fill="#002b36" stroke="#002b36" points="224.03,-238.56 225.72,-228.1 217.88,-235.22 224.03,-238.56"/>
<text text-anchor="middle" x="236.5" y="-260" font-family="Liberation Sans,Helvetica,Arial,sans-serif" font-size="10.00" fill="#002b36">y</text>
<text text-anchor="middle" x="236.5" y="-249" font-family="Liberation Sans,Helvetica,Arial,sans-serif" font-size="10.00" fill="#002b36">(1 values)</text>
</g>
</g>
</svg>
