<?xml version="1.0" encoding="UTF-8" standalone="no"?>
<!DOCTYPE svg PUBLIC "-//W3C//DTD SVG 1.1//EN"
 "http://www.w3.org/Graphics/SVG/1.1/DTD/svg11.dtd">
<!-- Generated by graphviz version 2.50.0 (0)
 -->
<!-- Title: G Pages: 1 -->
<svg width="721pt" height="910pt"
 viewBox="0.00 0.00 720.86 910.00" xmlns="http://www.w3.org/2000/svg" xmlns:xlink="http://www.w3.org/1999/xlink">
<g id="graph0" class="graph" transform="scale(1 1) rotate(0) translate(4 906)">
<title>G</title>
<polygon fill="white" stroke="transparent" points="-4,4 -4,-906 716.86,-906 716.86,4 -4,4"/>
<!-- X -->
<g id="node1" class="node">
<title>X</title>
<path fill="none" stroke="#268bd2" stroke-width="1.5" d="M282.86,-804C282.86,-804 252.86,-804 252.86,-804 246.86,-804 240.86,-798 240.86,-792 240.86,-792 240.86,-780 240.86,-780 240.86,-774 246.86,-768 252.86,-768 252.86,-768 282.86,-768 282.86,-768 288.86,-768 294.86,-774 294.86,-780 294.86,-780 294.86,-792 294.86,-792 294.86,-798 288.86,-804 282.86,-804"/>
<text text-anchor="start" x="263.36" y="-788.4" font-family="Liberation Sans,Helvetica,Arial,sans-serif" font-weight="bold" font-size="12.00" fill="#002b36">X</text>
<text text-anchor="start" x="249.36" y="-778" font-family="Liberation Sans,Helvetica,Arial,sans-serif" font-size="10.00" fill="#268bd2">2 values</text>
</g>
<!-- scale_data -->
<g id="node16" class="node">
<title>scale_data</title>
<path fill="none" stroke="#dc322f" stroke-width="1.5" d="M238.86,-710C238.86,-710 174.86,-710 174.86,-710 168.86,-710 162.86,-704 162.86,-698 162.86,-698 162.86,-682 162.86,-682 162.86,-676 168.86,-670 174.86,-670 174.86,-670 238.86,-670 238.86,-670 244.86,-670 250.86,-676 250.86,-682 250.86,-682 250.86,-698 250.86,-698 250.86,-704 244.86,-710 238.86,-710"/>
<text text-anchor="start" x="175.86" y="-697.4" font-family="Liberation Sans,Helvetica,Arial,sans-serif" font-weight="bold" font-size="12.00" fill="#002b36">scale_data</text>
<text text-anchor="start" x="170.86" y="-687" font-family="Liberation Sans,Helvetica,Arial,sans-serif" font-size="10.00" fill="#002b36">@op:scale_data</text>
<text text-anchor="start" x="192.36" y="-677" font-family="Liberation Sans,Helvetica,Arial,sans-serif" font-size="10.00" fill="#dc322f">1 calls</text>
</g>
<!-- X&#45;&gt;scale_data -->
<g id="edge15" class="edge">
<title>X&#45;&gt;scale_data</title>
<path fill="none" stroke="#002b36" d="M252.41,-767.72C247.82,-762.23 242.93,-756.01 238.86,-750 232.33,-740.34 226.02,-729.22 220.75,-719.26"/>
<polygon fill="#002b36" stroke="#002b36" points="223.75,-717.43 216.05,-710.15 217.53,-720.64 223.75,-717.43"/>
<text text-anchor="middle" x="260.36" y="-742" font-family="Liberation Sans,Helvetica,Arial,sans-serif" font-size="10.00" fill="#002b36">X</text>
<text text-anchor="middle" x="260.36" y="-731" font-family="Liberation Sans,Helvetica,Arial,sans-serif" font-size="10.00" fill="#002b36">(1 values)</text>
</g>
<!-- get_train_test_split -->
<g id="node21" class="node">
<title>get_train_test_split</title>
<path fill="none" stroke="#dc322f" stroke-width="1.5" d="M385.36,-710C385.36,-710 284.36,-710 284.36,-710 278.36,-710 272.36,-704 272.36,-698 272.36,-698 272.36,-682 272.36,-682 272.36,-676 278.36,-670 284.36,-670 284.36,-670 385.36,-670 385.36,-670 391.36,-670 397.36,-676 397.36,-682 397.36,-682 397.36,-698 397.36,-698 397.36,-704 391.36,-710 385.36,-710"/>
<text text-anchor="start" x="280.36" y="-697.4" font-family="Liberation Sans,Helvetica,Arial,sans-serif" font-weight="bold" font-size="12.00" fill="#002b36">get_train_test_split</text>
<text text-anchor="start" x="281.36" y="-687" font-family="Liberation Sans,Helvetica,Arial,sans-serif" font-size="10.00" fill="#002b36">@op:get_train_test_split</text>
<text text-anchor="start" x="320.36" y="-677" font-family="Liberation Sans,Helvetica,Arial,sans-serif" font-size="10.00" fill="#dc322f">2 calls</text>
</g>
<!-- X&#45;&gt;get_train_test_split -->
<g id="edge16" class="edge">
<title>X&#45;&gt;get_train_test_split</title>
<path fill="none" stroke="#002b36" d="M276.47,-767.94C282.66,-756.28 291.52,-740.71 300.86,-728 303.36,-724.6 306.13,-721.16 308.98,-717.83"/>
<polygon fill="#002b36" stroke="#002b36" points="311.65,-720.08 315.67,-710.28 306.42,-715.44 311.65,-720.08"/>
<text text-anchor="middle" x="322.36" y="-742" font-family="Liberation Sans,Helvetica,Arial,sans-serif" font-size="10.00" fill="#002b36">X</text>
<text text-anchor="middle" x="322.36" y="-731" font-family="Liberation Sans,Helvetica,Arial,sans-serif" font-size="10.00" fill="#002b36">(2 values)</text>
</g>
<!-- y -->
<g id="node2" class="node">
<title>y</title>
<path fill="none" stroke="#268bd2" stroke-width="1.5" d="M369.86,-804C369.86,-804 339.86,-804 339.86,-804 333.86,-804 327.86,-798 327.86,-792 327.86,-792 327.86,-780 327.86,-780 327.86,-774 333.86,-768 339.86,-768 339.86,-768 369.86,-768 369.86,-768 375.86,-768 381.86,-774 381.86,-780 381.86,-780 381.86,-792 381.86,-792 381.86,-798 375.86,-804 369.86,-804"/>
<text text-anchor="start" x="351.36" y="-788.4" font-family="Liberation Sans,Helvetica,Arial,sans-serif" font-weight="bold" font-size="12.00" fill="#002b36">y</text>
<text text-anchor="start" x="336.36" y="-778" font-family="Liberation Sans,Helvetica,Arial,sans-serif" font-size="10.00" fill="#268bd2">1 values</text>
</g>
<!-- y&#45;&gt;get_train_test_split -->
<g id="edge17" class="edge">
<title>y&#45;&gt;get_train_test_split</title>
<path fill="none" stroke="#002b36" d="M353.73,-767.87C352.74,-756.46 350.95,-741.2 347.86,-728 347.24,-725.36 346.5,-722.64 345.69,-719.93"/>
<polygon fill="#002b36" stroke="#002b36" points="348.99,-718.76 342.55,-710.35 342.34,-720.95 348.99,-718.76"/>
<text text-anchor="middle" x="372.36" y="-742" font-family="Liberation Sans,Helvetica,Arial,sans-serif" font-size="10.00" fill="#002b36">y</text>
<text text-anchor="middle" x="372.36" y="-731" font-family="Liberation Sans,Helvetica,Arial,sans-serif" font-size="10.00" fill="#002b36">(1 values)</text>
</g>
<!-- model -->
<g id="node3" class="node">
<title>model</title>
<path fill="none" stroke="#268bd2" stroke-width="1.5" d="M379.36,-420C379.36,-420 344.36,-420 344.36,-420 338.36,-420 332.36,-414 332.36,-408 332.36,-408 332.36,-396 332.36,-396 332.36,-390 338.36,-384 344.36,-384 344.36,-384 379.36,-384 379.36,-384 385.36,-384 391.36,-390 391.36,-396 391.36,-396 391.36,-408 391.36,-408 391.36,-414 385.36,-420 379.36,-420"/>
<text text-anchor="start" x="343.86" y="-404.4" font-family="Liberation Sans,Helvetica,Arial,sans-serif" font-weight="bold" font-size="12.00" fill="#002b36">model</text>
<text text-anchor="start" x="340.36" y="-394" font-family="Liberation Sans,Helvetica,Arial,sans-serif" font-size="10.00" fill="#268bd2">12 values</text>
</g>
<!-- __make_list__ -->
<g id="node15" class="node">
<title>__make_list__</title>
<path fill="none" stroke="#dc322f" stroke-width="1.5" d="M367.86,-326C367.86,-326 287.86,-326 287.86,-326 281.86,-326 275.86,-320 275.86,-314 275.86,-314 275.86,-298 275.86,-298 275.86,-292 281.86,-286 287.86,-286 287.86,-286 367.86,-286 367.86,-286 373.86,-286 379.86,-292 379.86,-298 379.86,-298 379.86,-314 379.86,-314 379.86,-320 373.86,-326 367.86,-326"/>
<text text-anchor="start" x="286.86" y="-313.4" font-family="Liberation Sans,Helvetica,Arial,sans-serif" font-weight="bold" font-size="12.00" fill="#002b36">__make_list__</text>
<text text-anchor="start" x="283.86" y="-303" font-family="Liberation Sans,Helvetica,Arial,sans-serif" font-size="10.00" fill="#002b36">@op:__make_list__</text>
<text text-anchor="start" x="313.36" y="-293" font-family="Liberation Sans,Helvetica,Arial,sans-serif" font-size="10.00" fill="#dc322f">2 calls</text>
</g>
<!-- model&#45;&gt;__make_list__ -->
<g id="edge2" class="edge">
<title>model&#45;&gt;__make_list__</title>
<path fill="none" stroke="#002b36" d="M332.1,-397.87C311.7,-394 286.04,-385.35 272.86,-366 267.36,-357.92 268.27,-352.63 272.86,-344 275.02,-339.95 277.84,-336.26 281.07,-332.92"/>
<polygon fill="#002b36" stroke="#002b36" points="283.52,-335.42 288.67,-326.17 278.87,-330.19 283.52,-335.42"/>
<text text-anchor="middle" x="297.36" y="-358" font-family="Liberation Sans,Helvetica,Arial,sans-serif" font-size="10.00" fill="#002b36">*elts</text>
<text text-anchor="middle" x="297.36" y="-347" font-family="Liberation Sans,Helvetica,Arial,sans-serif" font-size="10.00" fill="#002b36">(12 values)</text>
</g>
<!-- eval_model -->
<g id="node17" class="node">
<title>eval_model</title>
<path fill="none" stroke="#dc322f" stroke-width="1.5" d="M483.86,-326C483.86,-326 417.86,-326 417.86,-326 411.86,-326 405.86,-320 405.86,-314 405.86,-314 405.86,-298 405.86,-298 405.86,-292 411.86,-286 417.86,-286 417.86,-286 483.86,-286 483.86,-286 489.86,-286 495.86,-292 495.86,-298 495.86,-298 495.86,-314 495.86,-314 495.86,-320 489.86,-326 483.86,-326"/>
<text text-anchor="start" x="417.86" y="-313.4" font-family="Liberation Sans,Helvetica,Arial,sans-serif" font-weight="bold" font-size="12.00" fill="#002b36">eval_model</text>
<text text-anchor="start" x="413.86" y="-303" font-family="Liberation Sans,Helvetica,Arial,sans-serif" font-size="10.00" fill="#002b36">@op:eval_model</text>
<text text-anchor="start" x="433.86" y="-293" font-family="Liberation Sans,Helvetica,Arial,sans-serif" font-size="10.00" fill="#dc322f">12 calls</text>
</g>
<!-- model&#45;&gt;eval_model -->
<g id="edge1" class="edge">
<title>model&#45;&gt;eval_model</title>
<path fill="none" stroke="#002b36" d="M375.74,-383.84C385.29,-372.29 398.45,-356.87 410.86,-344 414.29,-340.44 417.99,-336.79 421.7,-333.24"/>
<polygon fill="#002b36" stroke="#002b36" points="424.36,-335.54 429.26,-326.15 419.57,-330.44 424.36,-335.54"/>
<text text-anchor="middle" x="435.36" y="-358" font-family="Liberation Sans,Helvetica,Arial,sans-serif" font-size="10.00" fill="#002b36">model</text>
<text text-anchor="middle" x="435.36" y="-347" font-family="Liberation Sans,Helvetica,Arial,sans-serif" font-size="10.00" fill="#002b36">(12 values)</text>
</g>
<!-- C -->
<g id="node4" class="node">
<title>C</title>
<path fill="none" stroke="#268bd2" stroke-width="1.5" d="M636.36,-612C636.36,-612 555.36,-612 555.36,-612 549.36,-612 543.36,-606 543.36,-600 543.36,-600 543.36,-588 543.36,-588 543.36,-582 549.36,-576 555.36,-576 555.36,-576 636.36,-576 636.36,-576 642.36,-576 648.36,-582 648.36,-588 648.36,-588 648.36,-600 648.36,-600 648.36,-606 642.36,-612 636.36,-612"/>
<text text-anchor="start" x="590.86" y="-596.4" font-family="Liberation Sans,Helvetica,Arial,sans-serif" font-weight="bold" font-size="12.00" fill="#002b36">C</text>
<text text-anchor="start" x="551.36" y="-586" font-family="Liberation Sans,Helvetica,Arial,sans-serif" font-size="10.00" fill="#268bd2">1 values (1 sources)</text>
</g>
<!-- train_svc -->
<g id="node14" class="node">
<title>train_svc</title>
<path fill="none" stroke="#dc322f" stroke-width="1.5" d="M463.86,-518C463.86,-518 407.86,-518 407.86,-518 401.86,-518 395.86,-512 395.86,-506 395.86,-506 395.86,-490 395.86,-490 395.86,-484 401.86,-478 407.86,-478 407.86,-478 463.86,-478 463.86,-478 469.86,-478 475.86,-484 475.86,-490 475.86,-490 475.86,-506 475.86,-506 475.86,-512 469.86,-518 463.86,-518"/>
<text text-anchor="start" x="409.36" y="-505.4" font-family="Liberation Sans,Helvetica,Arial,sans-serif" font-weight="bold" font-size="12.00" fill="#002b36">train_svc</text>
<text text-anchor="start" x="403.86" y="-495" font-family="Liberation Sans,Helvetica,Arial,sans-serif" font-size="10.00" fill="#002b36">@op:train_svc</text>
<text text-anchor="start" x="421.36" y="-485" font-family="Liberation Sans,Helvetica,Arial,sans-serif" font-size="10.00" fill="#dc322f">6 calls</text>
</g>
<!-- C&#45;&gt;train_svc -->
<g id="edge26" class="edge">
<title>C&#45;&gt;train_svc</title>
<path fill="none" stroke="#002b36" d="M579.2,-575.77C566.56,-563.44 548.26,-547.12 529.86,-536 516.2,-527.74 500.36,-520.67 485.63,-515"/>
<polygon fill="#002b36" stroke="#002b36" points="486.73,-511.68 476.14,-511.47 484.29,-518.24 486.73,-511.68"/>
<text text-anchor="middle" x="579.36" y="-550" font-family="Liberation Sans,Helvetica,Arial,sans-serif" font-size="10.00" fill="#002b36">C</text>
<text text-anchor="middle" x="579.36" y="-539" font-family="Liberation Sans,Helvetica,Arial,sans-serif" font-size="10.00" fill="#002b36">(1 values)</text>
</g>
<!-- X_train -->
<g id="node5" class="node">
<title>X_train</title>
<path fill="none" stroke="#268bd2" stroke-width="1.5" d="M390.36,-612C390.36,-612 357.36,-612 357.36,-612 351.36,-612 345.36,-606 345.36,-600 345.36,-600 345.36,-588 345.36,-588 345.36,-582 351.36,-576 357.36,-576 357.36,-576 390.36,-576 390.36,-576 396.36,-576 402.36,-582 402.36,-588 402.36,-588 402.36,-600 402.36,-600 402.36,-606 396.36,-612 390.36,-612"/>
<text text-anchor="start" x="353.36" y="-596.4" font-family="Liberation Sans,Helvetica,Arial,sans-serif" font-weight="bold" font-size="12.00" fill="#002b36">X_train</text>
<text text-anchor="start" x="355.36" y="-586" font-family="Liberation Sans,Helvetica,Arial,sans-serif" font-size="10.00" fill="#268bd2">2 values</text>
</g>
<!-- X_train&#45;&gt;train_svc -->
<g id="edge19" class="edge">
<title>X_train&#45;&gt;train_svc</title>
<path fill="none" stroke="#002b36" d="M397.39,-575.83C403.36,-570.62 409.35,-564.53 413.86,-558 420.11,-548.96 424.84,-537.92 428.28,-527.85"/>
<polygon fill="#002b36" stroke="#002b36" points="431.65,-528.8 431.31,-518.21 424.97,-526.71 431.65,-528.8"/>
<text text-anchor="middle" x="446.36" y="-550" font-family="Liberation Sans,Helvetica,Arial,sans-serif" font-size="10.00" fill="#002b36">X_train</text>
<text text-anchor="middle" x="446.36" y="-539" font-family="Liberation Sans,Helvetica,Arial,sans-serif" font-size="10.00" fill="#002b36">(2 values)</text>
</g>
<!-- train_random_forest -->
<g id="node19" class="node">
<title>train_random_forest</title>
<path fill="none" stroke="#dc322f" stroke-width="1.5" d="M292.36,-518C292.36,-518 183.36,-518 183.36,-518 177.36,-518 171.36,-512 171.36,-506 171.36,-506 171.36,-490 171.36,-490 171.36,-484 177.36,-478 183.36,-478 183.36,-478 292.36,-478 292.36,-478 298.36,-478 304.36,-484 304.36,-490 304.36,-490 304.36,-506 304.36,-506 304.36,-512 298.36,-518 292.36,-518"/>
<text text-anchor="start" x="179.36" y="-505.4" font-family="Liberation Sans,Helvetica,Arial,sans-serif" font-weight="bold" font-size="12.00" fill="#002b36">train_random_forest</text>
<text text-anchor="start" x="182.36" y="-495" font-family="Liberation Sans,Helvetica,Arial,sans-serif" font-size="10.00" fill="#002b36">@op:train_random_forest</text>
<text text-anchor="start" x="223.36" y="-485" font-family="Liberation Sans,Helvetica,Arial,sans-serif" font-size="10.00" fill="#dc322f">6 calls</text>
</g>
<!-- X_train&#45;&gt;train_random_forest -->
<g id="edge20" class="edge">
<title>X_train&#45;&gt;train_random_forest</title>
<path fill="none" stroke="#002b36" d="M369.97,-575.84C366.27,-563.21 359.5,-546.49 347.86,-536 338.14,-527.24 326.28,-520.54 313.98,-515.42"/>
<polygon fill="#002b36" stroke="#002b36" points="315.1,-512.11 304.51,-511.81 312.61,-518.65 315.1,-512.11"/>
<text text-anchor="middle" x="383.36" y="-550" font-family="Liberation Sans,Helvetica,Arial,sans-serif" font-size="10.00" fill="#002b36">X_train</text>
<text text-anchor="middle" x="383.36" y="-539" font-family="Liberation Sans,Helvetica,Arial,sans-serif" font-size="10.00" fill="#002b36">(2 values)</text>
</g>
<!-- X_test -->
<g id="node6" class="node">
<title>X_test</title>
<path fill="none" stroke="#268bd2" stroke-width="1.5" d="M253.86,-420C253.86,-420 223.86,-420 223.86,-420 217.86,-420 211.86,-414 211.86,-408 211.86,-408 211.86,-396 211.86,-396 211.86,-390 217.86,-384 223.86,-384 223.86,-384 253.86,-384 253.86,-384 259.86,-384 265.86,-390 265.86,-396 265.86,-396 265.86,-408 265.86,-408 265.86,-414 259.86,-420 253.86,-420"/>
<text text-anchor="start" x="220.36" y="-404.4" font-family="Liberation Sans,Helvetica,Arial,sans-serif" font-weight="bold" font-size="12.00" fill="#002b36">X_test</text>
<text text-anchor="start" x="220.36" y="-394" font-family="Liberation Sans,Helvetica,Arial,sans-serif" font-size="10.00" fill="#268bd2">2 values</text>
</g>
<!-- X_test&#45;&gt;eval_model -->
<g id="edge4" class="edge">
<title>X_test&#45;&gt;eval_model</title>
<path fill="none" stroke="#002b36" d="M265.98,-392.57C282.88,-386.6 304.61,-377.61 321.86,-366 333.34,-358.28 332.14,-351.34 343.86,-344 348.82,-340.9 372.32,-332.67 396.04,-324.76"/>
<polygon fill="#002b36" stroke="#002b36" points="397.42,-328 405.81,-321.53 395.22,-321.35 397.42,-328"/>
<text text-anchor="middle" x="365.36" y="-358" font-family="Liberation Sans,Helvetica,Arial,sans-serif" font-size="10.00" fill="#002b36">X_test</text>
<text text-anchor="middle" x="365.36" y="-347" font-family="Liberation Sans,Helvetica,Arial,sans-serif" font-size="10.00" fill="#002b36">(2 values)</text>
</g>
<!-- eval_ensemble -->
<g id="node20" class="node">
<title>eval_ensemble</title>
<path fill="none" stroke="#dc322f" stroke-width="1.5" d="M503.86,-134C503.86,-134 421.86,-134 421.86,-134 415.86,-134 409.86,-128 409.86,-122 409.86,-122 409.86,-106 409.86,-106 409.86,-100 415.86,-94 421.86,-94 421.86,-94 503.86,-94 503.86,-94 509.86,-94 515.86,-100 515.86,-106 515.86,-106 515.86,-122 515.86,-122 515.86,-128 509.86,-134 503.86,-134"/>
<text text-anchor="start" x="419.86" y="-121.4" font-family="Liberation Sans,Helvetica,Arial,sans-serif" font-weight="bold" font-size="12.00" fill="#002b36">eval_ensemble</text>
<text text-anchor="start" x="417.86" y="-111" font-family="Liberation Sans,Helvetica,Arial,sans-serif" font-size="10.00" fill="#002b36">@op:eval_ensemble</text>
<text text-anchor="start" x="448.36" y="-101" font-family="Liberation Sans,Helvetica,Arial,sans-serif" font-size="10.00" fill="#dc322f">2 calls</text>
</g>
<!-- X_test&#45;&gt;eval_ensemble -->
<g id="edge3" class="edge">
<title>X_test&#45;&gt;eval_ensemble</title>
<path fill="none" stroke="#002b36" d="M240.37,-383.68C242.99,-360.3 249.84,-317.91 266.86,-286 302,-220.12 373.51,-168 419.75,-139.36"/>
<polygon fill="#002b36" stroke="#002b36" points="421.64,-142.31 428.36,-134.11 418,-136.33 421.64,-142.31"/>
<text text-anchor="middle" x="314.36" y="-260" font-family="Liberation Sans,Helvetica,Arial,sans-serif" font-size="10.00" fill="#002b36">X_test</text>
<text text-anchor="middle" x="314.36" y="-249" font-family="Liberation Sans,Helvetica,Arial,sans-serif" font-size="10.00" fill="#002b36">(2 values)</text>
</g>
<!-- y_test -->
<g id="node7" class="node">
<title>y_test</title>
<path fill="none" stroke="#268bd2" stroke-width="1.5" d="M554.86,-420C554.86,-420 524.86,-420 524.86,-420 518.86,-420 512.86,-414 512.86,-408 512.86,-408 512.86,-396 512.86,-396 512.86,-390 518.86,-384 524.86,-384 524.86,-384 554.86,-384 554.86,-384 560.86,-384 566.86,-390 566.86,-396 566.86,-396 566.86,-408 566.86,-408 566.86,-414 560.86,-420 554.86,-420"/>
<text text-anchor="start" x="522.36" y="-404.4" font-family="Liberation Sans,Helvetica,Arial,sans-serif" font-weight="bold" font-size="12.00" fill="#002b36">y_test</text>
<text text-anchor="start" x="521.36" y="-394" font-family="Liberation Sans,Helvetica,Arial,sans-serif" font-size="10.00" fill="#268bd2">2 values</text>
</g>
<!-- y_test&#45;&gt;eval_model -->
<g id="edge9" class="edge">
<title>y_test&#45;&gt;eval_model</title>
<path fill="none" stroke="#002b36" d="M512.81,-388.23C502.56,-382.47 491.33,-374.93 482.86,-366 474.52,-357.19 467.67,-345.79 462.47,-335.36"/>
<polygon fill="#002b36" stroke="#002b36" points="465.58,-333.74 458.18,-326.16 459.24,-336.7 465.58,-333.74"/>
<text text-anchor="middle" x="504.36" y="-358" font-family="Liberation Sans,Helvetica,Arial,sans-serif" font-size="10.00" fill="#002b36">y_test</text>
<text text-anchor="middle" x="504.36" y="-347" font-family="Liberation Sans,Helvetica,Arial,sans-serif" font-size="10.00" fill="#002b36">(2 values)</text>
</g>
<!-- y_test&#45;&gt;eval_ensemble -->
<g id="edge8" class="edge">
<title>y_test&#45;&gt;eval_ensemble</title>
<path fill="none" stroke="#002b36" d="M536.91,-383.77C529.63,-342.84 509.27,-236.87 479.86,-152 478.91,-149.24 477.82,-146.42 476.66,-143.61"/>
<polygon fill="#002b36" stroke="#002b36" points="479.8,-142.05 472.59,-134.3 473.39,-144.86 479.8,-142.05"/>
<text text-anchor="middle" x="533.36" y="-260" font-family="Liberation Sans,Helvetica,Arial,sans-serif" font-size="10.00" fill="#002b36">y_test</text>
<text text-anchor="middle" x="533.36" y="-249" font-family="Liberation Sans,Helvetica,Arial,sans-serif" font-size="10.00" fill="#002b36">(2 values)</text>
</g>
<!-- n_estimators -->
<g id="node8" class="node">
<title>n_estimators</title>
<path fill="none" stroke="#268bd2" stroke-width="1.5" d="M117.36,-612C117.36,-612 36.36,-612 36.36,-612 30.36,-612 24.36,-606 24.36,-600 24.36,-600 24.36,-588 24.36,-588 24.36,-582 30.36,-576 36.36,-576 36.36,-576 117.36,-576 117.36,-576 123.36,-576 129.36,-582 129.36,-588 129.36,-588 129.36,-600 129.36,-600 129.36,-606 123.36,-612 117.36,-612"/>
<text text-anchor="start" x="39.36" y="-596.4" font-family="Liberation Sans,Helvetica,Arial,sans-serif" font-weight="bold" font-size="12.00" fill="#002b36">n_estimators</text>
<text text-anchor="start" x="32.36" y="-586" font-family="Liberation Sans,Helvetica,Arial,sans-serif" font-size="10.00" fill="#268bd2">3 values (3 sources)</text>
</g>
<!-- n_estimators&#45;&gt;train_random_forest -->
<g id="edge22" class="edge">
<title>n_estimators&#45;&gt;train_random_forest</title>
<path fill="none" stroke="#002b36" d="M80.83,-575.91C84.66,-563.15 91.71,-546.22 103.86,-536 120.06,-522.39 140.87,-513.76 161.25,-508.3"/>
<polygon fill="#002b36" stroke="#002b36" points="162.31,-511.64 171.19,-505.86 160.64,-504.84 162.31,-511.64"/>
<text text-anchor="middle" x="132.36" y="-550" font-family="Liberation Sans,Helvetica,Arial,sans-serif" font-size="10.00" fill="#002b36">n_estimators</text>
<text text-anchor="middle" x="132.36" y="-539" font-family="Liberation Sans,Helvetica,Arial,sans-serif" font-size="10.00" fill="#002b36">(3 values)</text>
</g>
<!-- accuracy -->
<g id="node9" class="node">
<title>accuracy</title>
<path fill="none" stroke="#268bd2" stroke-width="1.5" d="M597.86,-36C597.86,-36 517.86,-36 517.86,-36 511.86,-36 505.86,-30 505.86,-24 505.86,-24 505.86,-12 505.86,-12 505.86,-6 511.86,0 517.86,0 517.86,0 597.86,0 597.86,0 603.86,0 609.86,-6 609.86,-12 609.86,-12 609.86,-24 609.86,-24 609.86,-30 603.86,-36 597.86,-36"/>
<text text-anchor="start" x="531.36" y="-20.4" font-family="Liberation Sans,Helvetica,Arial,sans-serif" font-weight="bold" font-size="12.00" fill="#002b36">accuracy</text>
<text text-anchor="start" x="513.86" y="-10" font-family="Liberation Sans,Helvetica,Arial,sans-serif" font-size="10.00" fill="#268bd2">14 values (14 sinks)</text>
</g>
<!-- y_train -->
<g id="node10" class="node">
<title>y_train</title>
<path fill="none" stroke="#268bd2" stroke-width="1.5" d="M314.86,-612C314.86,-612 282.86,-612 282.86,-612 276.86,-612 270.86,-606 270.86,-600 270.86,-600 270.86,-588 270.86,-588 270.86,-582 276.86,-576 282.86,-576 282.86,-576 314.86,-576 314.86,-576 320.86,-576 326.86,-582 326.86,-588 326.86,-588 326.86,-600 326.86,-600 326.86,-606 320.86,-612 314.86,-612"/>
<text text-anchor="start" x="278.86" y="-596.4" font-family="Liberation Sans,Helvetica,Arial,sans-serif" font-weight="bold" font-size="12.00" fill="#002b36">y_train</text>
<text text-anchor="start" x="280.36" y="-586" font-family="Liberation Sans,Helvetica,Arial,sans-serif" font-size="10.00" fill="#268bd2">2 values</text>
</g>
<!-- y_train&#45;&gt;train_svc -->
<g id="edge23" class="edge">
<title>y_train&#45;&gt;train_svc</title>
<path fill="none" stroke="#002b36" d="M294.55,-575.98C292.48,-563.59 292.08,-547.11 300.86,-536 311.52,-522.53 351.58,-512.65 385.31,-506.51"/>
<polygon fill="#002b36" stroke="#002b36" points="386.29,-509.89 395.54,-504.72 385.09,-502.99 386.29,-509.89"/>
<text text-anchor="middle" x="322.36" y="-550" font-family="Liberation Sans,Helvetica,Arial,sans-serif" font-size="10.00" fill="#002b36">y_train</text>
<text text-anchor="middle" x="322.36" y="-539" font-family="Liberation Sans,Helvetica,Arial,sans-serif" font-size="10.00" fill="#002b36">(2 values)</text>
</g>
<!-- y_train&#45;&gt;train_random_forest -->
<g id="edge24" class="edge">
<title>y_train&#45;&gt;train_random_forest</title>
<path fill="none" stroke="#002b36" d="M270.8,-579.99C257.07,-573 242.67,-564.5 238.86,-558 233.67,-549.14 232.39,-538.18 232.76,-528.12"/>
<polygon fill="#002b36" stroke="#002b36" points="236.25,-528.35 233.64,-518.08 229.28,-527.74 236.25,-528.35"/>
<text text-anchor="middle" x="260.36" y="-550" font-family="Liberation Sans,Helvetica,Arial,sans-serif" font-size="10.00" fill="#002b36">y_train</text>
<text text-anchor="middle" x="260.36" y="-539" font-family="Liberation Sans,Helvetica,Arial,sans-serif" font-size="10.00" fill="#002b36">(2 values)</text>
</g>
<!-- max_depth -->
<g id="node11" class="node">
<title>max_depth</title>
<path fill="none" stroke="#268bd2" stroke-width="1.5" d="M240.36,-612C240.36,-612 159.36,-612 159.36,-612 153.36,-612 147.36,-606 147.36,-600 147.36,-600 147.36,-588 147.36,-588 147.36,-582 153.36,-576 159.36,-576 159.36,-576 240.36,-576 240.36,-576 246.36,-576 252.36,-582 252.36,-588 252.36,-588 252.36,-600 252.36,-600 252.36,-606 246.36,-612 240.36,-612"/>
<text text-anchor="start" x="167.86" y="-596.4" font-family="Liberation Sans,Helvetica,Arial,sans-serif" font-weight="bold" font-size="12.00" fill="#002b36">max_depth</text>
<text text-anchor="start" x="155.36" y="-586" font-family="Liberation Sans,Helvetica,Arial,sans-serif" font-size="10.00" fill="#268bd2">1 values (1 sources)</text>
</g>
<!-- max_depth&#45;&gt;train_random_forest -->
<g id="edge21" class="edge">
<title>max_depth&#45;&gt;train_random_forest</title>
<path fill="none" stroke="#002b36" d="M179.59,-575.93C168.62,-564.55 158.8,-549.3 166.86,-536 169.47,-531.7 172.77,-527.87 176.5,-524.47"/>
<polygon fill="#002b36" stroke="#002b36" points="178.96,-526.99 184.69,-518.08 174.65,-521.47 178.96,-526.99"/>
<text text-anchor="middle" x="191.36" y="-550" font-family="Liberation Sans,Helvetica,Arial,sans-serif" font-size="10.00" fill="#002b36">max_depth</text>
<text text-anchor="middle" x="191.36" y="-539" font-family="Liberation Sans,Helvetica,Arial,sans-serif" font-size="10.00" fill="#002b36">(1 values)</text>
</g>
<!-- models -->
<g id="node12" class="node">
<title>models</title>
<path fill="none" stroke="#268bd2" stroke-width="1.5" d="M408.36,-228C408.36,-228 373.36,-228 373.36,-228 367.36,-228 361.36,-222 361.36,-216 361.36,-216 361.36,-204 361.36,-204 361.36,-198 367.36,-192 373.36,-192 373.36,-192 408.36,-192 408.36,-192 414.36,-192 420.36,-198 420.36,-204 420.36,-204 420.36,-216 420.36,-216 420.36,-222 414.36,-228 408.36,-228"/>
<text text-anchor="start" x="369.36" y="-212.4" font-family="Liberation Sans,Helvetica,Arial,sans-serif" font-weight="bold" font-size="12.00" fill="#002b36">models</text>
<text text-anchor="start" x="372.36" y="-202" font-family="Liberation Sans,Helvetica,Arial,sans-serif" font-size="10.00" fill="#268bd2">2 values</text>
</g>
<!-- models&#45;&gt;eval_ensemble -->
<g id="edge6" class="edge">
<title>models&#45;&gt;eval_ensemble</title>
<path fill="none" stroke="#002b36" d="M404.07,-191.76C414.72,-177.86 429.88,-158.06 442.15,-142.05"/>
<polygon fill="#002b36" stroke="#002b36" points="444.95,-144.14 448.25,-134.07 439.39,-139.88 444.95,-144.14"/>
<text text-anchor="middle" x="454.36" y="-166" font-family="Liberation Sans,Helvetica,Arial,sans-serif" font-size="10.00" fill="#002b36">models</text>
<text text-anchor="middle" x="454.36" y="-155" font-family="Liberation Sans,Helvetica,Arial,sans-serif" font-size="10.00" fill="#002b36">(2 values)</text>
</g>
<!-- kernel -->
<g id="node13" class="node">
<title>kernel</title>
<path fill="none" stroke="#268bd2" stroke-width="1.5" d="M513.36,-612C513.36,-612 432.36,-612 432.36,-612 426.36,-612 420.36,-606 420.36,-600 420.36,-600 420.36,-588 420.36,-588 420.36,-582 426.36,-576 432.36,-576 432.36,-576 513.36,-576 513.36,-576 519.36,-576 525.36,-582 525.36,-588 525.36,-588 525.36,-600 525.36,-600 525.36,-606 519.36,-612 513.36,-612"/>
<text text-anchor="start" x="454.86" y="-596.4" font-family="Liberation Sans,Helvetica,Arial,sans-serif" font-weight="bold" font-size="12.00" fill="#002b36">kernel</text>
<text text-anchor="start" x="428.36" y="-586" font-family="Liberation Sans,Helvetica,Arial,sans-serif" font-size="10.00" fill="#268bd2">3 values (3 sources)</text>
</g>
<!-- kernel&#45;&gt;train_svc -->
<g id="edge27" class="edge">
<title>kernel&#45;&gt;train_svc</title>
<path fill="none" stroke="#002b36" d="M479.66,-575.78C483.18,-564.06 485.67,-548.47 479.86,-536 478.16,-532.34 475.89,-528.91 473.29,-525.73"/>
<polygon fill="#002b36" stroke="#002b36" points="475.67,-523.17 466.23,-518.36 470.62,-528 475.67,-523.17"/>
<text text-anchor="middle" x="504.36" y="-550" font-family="Liberation Sans,Helvetica,Arial,sans-serif" font-size="10.00" fill="#002b36">kernel</text>
<text text-anchor="middle" x="504.36" y="-539" font-family="Liberation Sans,Helvetica,Arial,sans-serif" font-size="10.00" fill="#002b36">(3 values)</text>
</g>
<!-- train_svc&#45;&gt;model -->
<g id="edge25" class="edge">
<title>train_svc&#45;&gt;model</title>
<path fill="none" stroke="#002b36" d="M420.89,-477.98C409.63,-463.67 394.09,-443.94 381.78,-428.3"/>
<polygon fill="#002b36" stroke="#002b36" points="384.26,-425.79 375.32,-420.1 378.76,-430.12 384.26,-425.79"/>
<text text-anchor="middle" x="428.86" y="-452" font-family="Liberation Sans,Helvetica,Arial,sans-serif" font-size="10.00" fill="#002b36">svc_model</text>
<text text-anchor="middle" x="428.86" y="-441" font-family="Liberation Sans,Helvetica,Arial,sans-serif" font-size="10.00" fill="#002b36">(6 values)</text>
</g>
<!-- __make_list__&#45;&gt;models -->
<g id="edge10" class="edge">
<title>__make_list__&#45;&gt;models</title>
<path fill="none" stroke="#002b36" d="M340.61,-285.98C350.11,-271.81 363.18,-252.3 373.61,-236.74"/>
<polygon fill="#002b36" stroke="#002b36" points="376.74,-238.35 379.4,-228.1 370.93,-234.46 376.74,-238.35"/>
<text text-anchor="middle" x="387.36" y="-260" font-family="Liberation Sans,Helvetica,Arial,sans-serif" font-size="10.00" fill="#002b36">list</text>
<text text-anchor="middle" x="387.36" y="-249" font-family="Liberation Sans,Helvetica,Arial,sans-serif" font-size="10.00" fill="#002b36">(2 values)</text>
</g>
<!-- scale_data&#45;&gt;X -->
<g id="edge30" class="edge">
<title>scale_data&#45;&gt;X</title>
<path fill="none" stroke="#002b36" d="M188.33,-710.19C179.07,-722.16 171.45,-737.6 179.86,-750 191.23,-766.76 212.04,-775.5 230.56,-780.05"/>
<polygon fill="#002b36" stroke="#002b36" points="230.04,-783.51 240.55,-782.17 231.49,-776.67 230.04,-783.51"/>
<text text-anchor="middle" x="201.36" y="-742" font-family="Liberation Sans,Helvetica,Arial,sans-serif" font-size="10.00" fill="#002b36">X_scaled</text>
<text text-anchor="middle" x="201.36" y="-731" font-family="Liberation Sans,Helvetica,Arial,sans-serif" font-size="10.00" fill="#002b36">(1 values)</text>
</g>
<!-- eval_model&#45;&gt;accuracy -->
<g id="edge7" class="edge">
<title>eval_model&#45;&gt;accuracy</title>
<path fill="none" stroke="#002b36" d="M495.9,-301.26C518.52,-296.88 544.17,-287.58 558.86,-268 608.52,-201.83 583.37,-95.43 567.51,-45.93"/>
<polygon fill="#002b36" stroke="#002b36" points="570.78,-44.65 564.3,-36.27 564.13,-46.86 570.78,-44.65"/>
<text text-anchor="middle" x="612.36" y="-166" font-family="Liberation Sans,Helvetica,Arial,sans-serif" font-size="10.00" fill="#002b36">accuracy</text>
<text text-anchor="middle" x="612.36" y="-155" font-family="Liberation Sans,Helvetica,Arial,sans-serif" font-size="10.00" fill="#002b36">(12 values)</text>
</g>
<!-- get_data -->
<g id="node18" class="node">
<title>get_data</title>
<path fill="none" stroke="#dc322f" stroke-width="1.5" d="M330.86,-902C330.86,-902 276.86,-902 276.86,-902 270.86,-902 264.86,-896 264.86,-890 264.86,-890 264.86,-874 264.86,-874 264.86,-868 270.86,-862 276.86,-862 276.86,-862 330.86,-862 330.86,-862 336.86,-862 342.86,-868 342.86,-874 342.86,-874 342.86,-890 342.86,-890 342.86,-896 336.86,-902 330.86,-902"/>
<text text-anchor="start" x="278.86" y="-889.4" font-family="Liberation Sans,Helvetica,Arial,sans-serif" font-weight="bold" font-size="12.00" fill="#002b36">get_data</text>
<text text-anchor="start" x="272.86" y="-879" font-family="Liberation Sans,Helvetica,Arial,sans-serif" font-size="10.00" fill="#002b36">@op:get_data</text>
<text text-anchor="start" x="289.36" y="-869" font-family="Liberation Sans,Helvetica,Arial,sans-serif" font-size="10.00" fill="#dc322f">1 calls</text>
</g>
<!-- get_data&#45;&gt;X -->
<g id="edge28" class="edge">
<title>get_data&#45;&gt;X</title>
<path fill="none" stroke="#002b36" d="M284.01,-861.76C279.62,-856.43 275.49,-850.35 272.86,-844 269.05,-834.8 267.46,-824.06 266.93,-814.4"/>
<polygon fill="#002b36" stroke="#002b36" points="270.43,-814.02 266.73,-804.09 263.43,-814.16 270.43,-814.02"/>
<text text-anchor="middle" x="294.36" y="-836" font-family="Liberation Sans,Helvetica,Arial,sans-serif" font-size="10.00" fill="#002b36">X</text>
<text text-anchor="middle" x="294.36" y="-825" font-family="Liberation Sans,Helvetica,Arial,sans-serif" font-size="10.00" fill="#002b36">(1 values)</text>
</g>
<!-- get_data&#45;&gt;y -->
<g id="edge29" class="edge">
<title>get_data&#45;&gt;y</title>
<path fill="none" stroke="#002b36" d="M314.18,-861.98C321.8,-847.94 332.26,-828.66 340.66,-813.17"/>
<polygon fill="#002b36" stroke="#002b36" points="343.89,-814.56 345.59,-804.1 337.74,-811.22 343.89,-814.56"/>
<text text-anchor="middle" x="356.36" y="-836" font-family="Liberation Sans,Helvetica,Arial,sans-serif" font-size="10.00" fill="#002b36">y</text>
<text text-anchor="middle" x="356.36" y="-825" font-family="Liberation Sans,Helvetica,Arial,sans-serif" font-size="10.00" fill="#002b36">(1 values)</text>
</g>
<!-- train_random_forest&#45;&gt;model -->
<g id="edge18" class="edge">
<title>train_random_forest&#45;&gt;model</title>
<path fill="none" stroke="#002b36" d="M262.96,-477.98C282.7,-463.01 310.29,-442.1 331.32,-426.16"/>
<polygon fill="#002b36" stroke="#002b36" points="333.45,-428.93 339.31,-420.1 329.22,-423.35 333.45,-428.93"/>
<text text-anchor="middle" x="336.36" y="-452" font-family="Liberation Sans,Helvetica,Arial,sans-serif" font-size="10.00" fill="#002b36">rf_model</text>
<text text-anchor="middle" x="336.36" y="-441" font-family="Liberation Sans,Helvetica,Arial,sans-serif" font-size="10.00" fill="#002b36">(6 values)</text>
</g>
<!-- eval_ensemble&#45;&gt;accuracy -->
<g id="edge5" class="edge">
<title>eval_ensemble&#45;&gt;accuracy</title>
<path fill="none" stroke="#002b36" d="M482.09,-93.98C496.81,-79.41 517.23,-59.2 533.17,-43.44"/>
<polygon fill="#002b36" stroke="#002b36" points="535.94,-45.62 540.58,-36.1 531.01,-40.64 535.94,-45.62"/>
<text text-anchor="middle" x="542.36" y="-68" font-family="Liberation Sans,Helvetica,Arial,sans-serif" font-size="10.00" fill="#002b36">accuracy</text>
<text text-anchor="middle" x="542.36" y="-57" font-family="Liberation Sans,Helvetica,Arial,sans-serif" font-size="10.00" fill="#002b36">(2 values)</text>
</g>
<!-- get_train_test_split&#45;&gt;X_train -->
<g id="edge13" class="edge">
<title>get_train_test_split&#45;&gt;X_train</title>
<path fill="none" stroke="#002b36" d="M342.75,-669.98C348.52,-656.07 356.43,-637.03 362.82,-621.61"/>
<polygon fill="#002b36" stroke="#002b36" points="366.17,-622.68 366.77,-612.1 359.7,-619.99 366.17,-622.68"/>
<text text-anchor="middle" x="380.36" y="-644" font-family="Liberation Sans,Helvetica,Arial,sans-serif" font-size="10.00" fill="#002b36">X_train</text>
<text text-anchor="middle" x="380.36" y="-633" font-family="Liberation Sans,Helvetica,Arial,sans-serif" font-size="10.00" fill="#002b36">(2 values)</text>
</g>
<!-- get_train_test_split&#45;&gt;X_test -->
<g id="edge11" class="edge">
<title>get_train_test_split&#45;&gt;X_test</title>
<path fill="none" stroke="#002b36" d="M272.27,-673.06C268.07,-672.02 263.91,-670.99 259.86,-670 151.18,-643.37 84.28,-699.77 14.86,-612 -51.19,-528.49 123.04,-447.78 202.15,-416.56"/>
<polygon fill="#002b36" stroke="#002b36" points="203.69,-419.72 211.75,-412.83 201.16,-413.19 203.69,-419.72"/>
<text text-anchor="middle" x="34.36" y="-550" font-family="Liberation Sans,Helvetica,Arial,sans-serif" font-size="10.00" fill="#002b36">X_test</text>
<text text-anchor="middle" x="34.36" y="-539" font-family="Liberation Sans,Helvetica,Arial,sans-serif" font-size="10.00" fill="#002b36">(2 values)</text>
</g>
<!-- get_train_test_split&#45;&gt;y_test -->
<g id="edge12" class="edge">
<title>get_train_test_split&#45;&gt;y_test</title>
<path fill="none" stroke="#002b36" d="M397.69,-683.13C482.33,-673.76 626.07,-652.27 657.86,-612 706.42,-550.51 619.99,-466.59 570.67,-426.37"/>
<polygon fill="#002b36" stroke="#002b36" points="572.8,-423.59 562.81,-420.07 568.42,-429.06 572.8,-423.59"/>
<text text-anchor="middle" x="691.36" y="-550" font-family="Liberation Sans,Helvetica,Arial,sans-serif" font-size="10.00" fill="#002b36">y_test</text>
<text text-anchor="middle" x="691.36" y="-539" font-family="Liberation Sans,Helvetica,Arial,sans-serif" font-size="10.00" fill="#002b36">(2 values)</text>
</g>
<!-- get_train_test_split&#45;&gt;y_train -->
<g id="edge14" class="edge">
<title>get_train_test_split&#45;&gt;y_train</title>
<path fill="none" stroke="#002b36" d="M315.72,-669.64C311.47,-664.31 307.46,-658.26 304.86,-652 301,-642.68 299.25,-631.81 298.56,-622.07"/>
<polygon fill="#002b36" stroke="#002b36" points="302.05,-621.93 298.16,-612.08 295.06,-622.21 302.05,-621.93"/>
<text text-anchor="middle" x="326.36" y="-644" font-family="Liberation Sans,Helvetica,Arial,sans-serif" font-size="10.00" fill="#002b36">y_train</text>
<text text-anchor="middle" x="326.36" y="-633" font-family="Liberation Sans,Helvetica,Arial,sans-serif" font-size="10.00" fill="#002b36">(2 values)</text>
</g>
</g>
</svg>
