<?xml version="1.0" encoding="UTF-8" standalone="no"?>
<!DOCTYPE svg PUBLIC "-//W3C//DTD SVG 1.1//EN"
 "http://www.w3.org/Graphics/SVG/1.1/DTD/svg11.dtd">
<!-- Generated by graphviz version 2.50.0 (0)
 -->
<!-- Title: G Pages: 1 -->
<svg width="494pt" height="236pt"
 viewBox="0.00 0.00 493.50 236.00" xmlns="http://www.w3.org/2000/svg" xmlns:xlink="http://www.w3.org/1999/xlink">
<g id="graph0" class="graph" transform="scale(1 1) rotate(0) translate(4 232)">
<title>G</title>
<polygon fill="white" stroke="transparent" points="-4,4 -4,-232 489.5,-232 489.5,4 -4,4"/>
<!-- y_test -->
<g id="node1" class="node">
<title>y_test</title>
<path fill="none" stroke="#268bd2" stroke-width="1.5" d="M227.5,-228C227.5,-228 146.5,-228 146.5,-228 140.5,-228 134.5,-222 134.5,-216 134.5,-216 134.5,-204 134.5,-204 134.5,-198 140.5,-192 146.5,-192 146.5,-192 227.5,-192 227.5,-192 233.5,-192 239.5,-198 239.5,-204 239.5,-204 239.5,-216 239.5,-216 239.5,-222 233.5,-228 227.5,-228"/>
<text text-anchor="start" x="169.5" y="-212.4" font-family="Liberation Sans,Helvetica,Arial,sans-serif" font-weight="bold" font-size="12.00" fill="#002b36">y_test</text>
<text text-anchor="start" x="142.5" y="-202" font-family="Liberation Sans,Helvetica,Arial,sans-serif" font-size="10.00" fill="#268bd2">2 values (2 sources)</text>
</g>
<!-- eval_ensemble -->
<g id="node6" class="node">
<title>eval_ensemble</title>
<path fill="none" stroke="#dc322f" stroke-width="1.5" d="M352,-134C352,-134 270,-134 270,-134 264,-134 258,-128 258,-122 258,-122 258,-106 258,-106 258,-100 264,-94 270,-94 270,-94 352,-94 352,-94 358,-94 364,-100 364,-106 364,-106 364,-122 364,-122 364,-128 358,-134 352,-134"/>
<text text-anchor="start" x="268" y="-121.4" font-family="Liberation Sans,Helvetica,Arial,sans-serif" font-weight="bold" font-size="12.00" fill="#002b36">eval_ensemble</text>
<text text-anchor="start" x="266" y="-111" font-family="Liberation Sans,Helvetica,Arial,sans-serif" font-size="10.00" fill="#002b36">@op:eval_ensemble</text>
<text text-anchor="start" x="296.5" y="-101" font-family="Liberation Sans,Helvetica,Arial,sans-serif" font-size="10.00" fill="#dc322f">2 calls</text>
</g>
<!-- y_test&#45;&gt;eval_ensemble -->
<g id="edge1" class="edge">
<title>y_test&#45;&gt;eval_ensemble</title>
<path fill="none" stroke="#002b36" d="M230.02,-191.99C240.33,-186.96 250.96,-180.91 260,-174 270.26,-166.15 270.55,-161.77 279,-152 281.81,-148.75 284.76,-145.33 287.69,-141.95"/>
<polygon fill="#002b36" stroke="#002b36" points="290.5,-144.05 294.39,-134.2 285.2,-139.48 290.5,-144.05"/>
<text text-anchor="middle" x="300.5" y="-166" font-family="Liberation Sans,Helvetica,Arial,sans-serif" font-size="10.00" fill="#002b36">y_test</text>
<text text-anchor="middle" x="300.5" y="-155" font-family="Liberation Sans,Helvetica,Arial,sans-serif" font-size="10.00" fill="#002b36">(2 values)</text>
</g>
<!-- eval_model -->
<g id="node7" class="node">
<title>eval_model</title>
<path fill="none" stroke="#dc322f" stroke-width="1.5" d="M220,-134C220,-134 154,-134 154,-134 148,-134 142,-128 142,-122 142,-122 142,-106 142,-106 142,-100 148,-94 154,-94 154,-94 220,-94 220,-94 226,-94 232,-100 232,-106 232,-106 232,-122 232,-122 232,-128 226,-134 220,-134"/>
<text text-anchor="start" x="154" y="-121.4" font-family="Liberation Sans,Helvetica,Arial,sans-serif" font-weight="bold" font-size="12.00" fill="#002b36">eval_model</text>
<text text-anchor="start" x="150" y="-111" font-family="Liberation Sans,Helvetica,Arial,sans-serif" font-size="10.00" fill="#002b36">@op:eval_model</text>
<text text-anchor="start" x="170" y="-101" font-family="Liberation Sans,Helvetica,Arial,sans-serif" font-size="10.00" fill="#dc322f">12 calls</text>
</g>
<!-- y_test&#45;&gt;eval_model -->
<g id="edge2" class="edge">
<title>y_test&#45;&gt;eval_model</title>
<path fill="none" stroke="#002b36" d="M163.94,-191.97C158.71,-186.83 153.85,-180.74 151,-174 147.19,-164.99 147.32,-161.06 151,-152 152.4,-148.56 154.29,-145.26 156.47,-142.15"/>
<polygon fill="#002b36" stroke="#002b36" points="159.19,-144.35 162.81,-134.39 153.77,-139.93 159.19,-144.35"/>
<text text-anchor="middle" x="172.5" y="-166" font-family="Liberation Sans,Helvetica,Arial,sans-serif" font-size="10.00" fill="#002b36">y_test</text>
<text text-anchor="middle" x="172.5" y="-155" font-family="Liberation Sans,Helvetica,Arial,sans-serif" font-size="10.00" fill="#002b36">(2 values)</text>
</g>
<!-- X_test -->
<g id="node2" class="node">
<title>X_test</title>
<path fill="none" stroke="#268bd2" stroke-width="1.5" d="M350.5,-228C350.5,-228 269.5,-228 269.5,-228 263.5,-228 257.5,-222 257.5,-216 257.5,-216 257.5,-204 257.5,-204 257.5,-198 263.5,-192 269.5,-192 269.5,-192 350.5,-192 350.5,-192 356.5,-192 362.5,-198 362.5,-204 362.5,-204 362.5,-216 362.5,-216 362.5,-222 356.5,-228 350.5,-228"/>
<text text-anchor="start" x="291.5" y="-212.4" font-family="Liberation Sans,Helvetica,Arial,sans-serif" font-weight="bold" font-size="12.00" fill="#002b36">X_test</text>
<text text-anchor="start" x="265.5" y="-202" font-family="Liberation Sans,Helvetica,Arial,sans-serif" font-size="10.00" fill="#268bd2">2 values (2 sources)</text>
</g>
<!-- X_test&#45;&gt;eval_ensemble -->
<g id="edge4" class="edge">
<title>X_test&#45;&gt;eval_ensemble</title>
<path fill="none" stroke="#002b36" d="M319.68,-191.71C322.26,-186.22 324.69,-180.01 326,-174 328.08,-164.45 327.87,-161.6 326,-152 325.47,-149.29 324.74,-146.52 323.89,-143.79"/>
<polygon fill="#002b36" stroke="#002b36" points="327.1,-142.36 320.39,-134.15 320.52,-144.75 327.1,-142.36"/>
<text text-anchor="middle" x="348.5" y="-166" font-family="Liberation Sans,Helvetica,Arial,sans-serif" font-size="10.00" fill="#002b36">X_test</text>
<text text-anchor="middle" x="348.5" y="-155" font-family="Liberation Sans,Helvetica,Arial,sans-serif" font-size="10.00" fill="#002b36">(2 values)</text>
</g>
<!-- X_test&#45;&gt;eval_model -->
<g id="edge5" class="edge">
<title>X_test&#45;&gt;eval_model</title>
<path fill="none" stroke="#002b36" d="M257.39,-192.88C240.13,-186.82 223.65,-179.95 217,-174 207.89,-165.84 201.17,-154.27 196.43,-143.53"/>
<polygon fill="#002b36" stroke="#002b36" points="199.58,-142.01 192.61,-134.03 193.09,-144.61 199.58,-142.01"/>
<text text-anchor="middle" x="238.5" y="-166" font-family="Liberation Sans,Helvetica,Arial,sans-serif" font-size="10.00" fill="#002b36">X_test</text>
<text text-anchor="middle" x="238.5" y="-155" font-family="Liberation Sans,Helvetica,Arial,sans-serif" font-size="10.00" fill="#002b36">(2 values)</text>
</g>
<!-- accuracy -->
<g id="node3" class="node">
<title>accuracy</title>
<path fill="none" stroke="#268bd2" stroke-width="1.5" d="M285,-36C285,-36 205,-36 205,-36 199,-36 193,-30 193,-24 193,-24 193,-12 193,-12 193,-6 199,0 205,0 205,0 285,0 285,0 291,0 297,-6 297,-12 297,-12 297,-24 297,-24 297,-30 291,-36 285,-36"/>
<text text-anchor="start" x="218.5" y="-20.4" font-family="Liberation Sans,Helvetica,Arial,sans-serif" font-weight="bold" font-size="12.00" fill="#002b36">accuracy</text>
<text text-anchor="start" x="201" y="-10" font-family="Liberation Sans,Helvetica,Arial,sans-serif" font-size="10.00" fill="#268bd2">14 values (14 sinks)</text>
</g>
<!-- model -->
<g id="node4" class="node">
<title>model</title>
<path fill="none" stroke="#268bd2" stroke-width="1.5" d="M104,-228C104,-228 12,-228 12,-228 6,-228 0,-222 0,-216 0,-216 0,-204 0,-204 0,-198 6,-192 12,-192 12,-192 104,-192 104,-192 110,-192 116,-198 116,-204 116,-204 116,-216 116,-216 116,-222 110,-228 104,-228"/>
<text text-anchor="start" x="40" y="-212.4" font-family="Liberation Sans,Helvetica,Arial,sans-serif" font-weight="bold" font-size="12.00" fill="#002b36">model</text>
<text text-anchor="start" x="8" y="-202" font-family="Liberation Sans,Helvetica,Arial,sans-serif" font-size="10.00" fill="#268bd2">12 values (12 sources)</text>
</g>
<!-- model&#45;&gt;eval_model -->
<g id="edge7" class="edge">
<title>model&#45;&gt;eval_model</title>
<path fill="none" stroke="#002b36" d="M65.97,-191.77C72.51,-179.28 82.82,-162.75 96,-152 106.63,-143.32 119.58,-136.44 132.32,-131.09"/>
<polygon fill="#002b36" stroke="#002b36" points="133.97,-134.2 141.99,-127.29 131.41,-127.69 133.97,-134.2"/>
<text text-anchor="middle" x="120.5" y="-166" font-family="Liberation Sans,Helvetica,Arial,sans-serif" font-size="10.00" fill="#002b36">model</text>
<text text-anchor="middle" x="120.5" y="-155" font-family="Liberation Sans,Helvetica,Arial,sans-serif" font-size="10.00" fill="#002b36">(12 values)</text>
</g>
<!-- models -->
<g id="node5" class="node">
<title>models</title>
<path fill="none" stroke="#268bd2" stroke-width="1.5" d="M473.5,-228C473.5,-228 392.5,-228 392.5,-228 386.5,-228 380.5,-222 380.5,-216 380.5,-216 380.5,-204 380.5,-204 380.5,-198 386.5,-192 392.5,-192 392.5,-192 473.5,-192 473.5,-192 479.5,-192 485.5,-198 485.5,-204 485.5,-204 485.5,-216 485.5,-216 485.5,-222 479.5,-228 473.5,-228"/>
<text text-anchor="start" x="411.5" y="-212.4" font-family="Liberation Sans,Helvetica,Arial,sans-serif" font-weight="bold" font-size="12.00" fill="#002b36">models</text>
<text text-anchor="start" x="388.5" y="-202" font-family="Liberation Sans,Helvetica,Arial,sans-serif" font-size="10.00" fill="#268bd2">2 values (2 sources)</text>
</g>
<!-- models&#45;&gt;eval_ensemble -->
<g id="edge8" class="edge">
<title>models&#45;&gt;eval_ensemble</title>
<path fill="none" stroke="#002b36" d="M417.42,-191.93C406.04,-179.98 389.88,-164.06 374,-152 368.24,-147.62 361.91,-143.36 355.56,-139.37"/>
<polygon fill="#002b36" stroke="#002b36" points="357.3,-136.34 346.94,-134.13 353.67,-142.32 357.3,-136.34"/>
<text text-anchor="middle" x="418.5" y="-166" font-family="Liberation Sans,Helvetica,Arial,sans-serif" font-size="10.00" fill="#002b36">models</text>
<text text-anchor="middle" x="418.5" y="-155" font-family="Liberation Sans,Helvetica,Arial,sans-serif" font-size="10.00" fill="#002b36">(2 values)</text>
</g>
<!-- eval_ensemble&#45;&gt;accuracy -->
<g id="edge6" class="edge">
<title>eval_ensemble&#45;&gt;accuracy</title>
<path fill="none" stroke="#002b36" d="M297.77,-93.82C289.77,-82.26 279.34,-67.26 270,-54 267.81,-50.89 265.49,-47.62 263.2,-44.4"/>
<polygon fill="#002b36" stroke="#002b36" points="265.91,-42.17 257.25,-36.06 260.21,-46.23 265.91,-42.17"/>
<text text-anchor="middle" x="305.5" y="-68" font-family="Liberation Sans,Helvetica,Arial,sans-serif" font-size="10.00" fill="#002b36">accuracy</text>
<text text-anchor="middle" x="305.5" y="-57" font-family="Liberation Sans,Helvetica,Arial,sans-serif" font-size="10.00" fill="#002b36">(2 values)</text>
</g>
<!-- eval_model&#45;&gt;accuracy -->
<g id="edge3" class="edge">
<title>eval_model&#45;&gt;accuracy</title>
<path fill="none" stroke="#002b36" d="M197.5,-93.91C204.04,-82.25 212.75,-67.11 221,-54 222.9,-50.98 224.95,-47.85 227.01,-44.75"/>
<polygon fill="#002b36" stroke="#002b36" points="230.05,-46.51 232.76,-36.27 224.25,-42.58 230.05,-46.51"/>
<text text-anchor="middle" x="245.5" y="-68" font-family="Liberation Sans,Helvetica,Arial,sans-serif" font-size="10.00" fill="#002b36">accuracy</text>
<text text-anchor="middle" x="245.5" y="-57" font-family="Liberation Sans,Helvetica,Arial,sans-serif" font-size="10.00" fill="#002b36">(12 values)</text>
</g>
</g>
</svg>
