<?xml version="1.0" encoding="UTF-8" standalone="no"?>
<!DOCTYPE svg PUBLIC "-//W3C//DTD SVG 1.1//EN"
 "http://www.w3.org/Graphics/SVG/1.1/DTD/svg11.dtd">
<!-- Generated by graphviz version 2.50.0 (0)
 -->
<!-- Title: G Pages: 1 -->
<svg width="494pt" height="236pt"
 viewBox="0.00 0.00 493.50 236.00" xmlns="http://www.w3.org/2000/svg" xmlns:xlink="http://www.w3.org/1999/xlink">
<g id="graph0" class="graph" transform="scale(1 1) rotate(0) translate(4 232)">
<title>G</title>
<polygon fill="white" stroke="transparent" points="-4,4 -4,-232 489.5,-232 489.5,4 -4,4"/>
<!-- y_test -->
<g id="node1" class="node">
<title>y_test</title>
<path fill="none" stroke="#268bd2" stroke-width="1.5" d="M216,-228C216,-228 135,-228 135,-228 129,-228 123,-222 123,-216 123,-216 123,-204 123,-204 123,-198 129,-192 135,-192 135,-192 216,-192 216,-192 222,-192 228,-198 228,-204 228,-204 228,-216 228,-216 228,-222 222,-228 216,-228"/>
<text text-anchor="start" x="158" y="-212.4" font-family="Liberation Sans,Helvetica,Arial,sans-serif" font-weight="bold" font-size="12.00" fill="#002b36">y_test</text>
<text text-anchor="start" x="131" y="-202" font-family="Liberation Sans,Helvetica,Arial,sans-serif" font-size="10.00" fill="#268bd2">2 values (2 sources)</text>
</g>
<!-- eval_model -->
<g id="node6" class="node">
<title>eval_model</title>
<path fill="none" stroke="#dc322f" stroke-width="1.5" d="M335.5,-134C335.5,-134 269.5,-134 269.5,-134 263.5,-134 257.5,-128 257.5,-122 257.5,-122 257.5,-106 257.5,-106 257.5,-100 263.5,-94 269.5,-94 269.5,-94 335.5,-94 335.5,-94 341.5,-94 347.5,-100 347.5,-106 347.5,-106 347.5,-122 347.5,-122 347.5,-128 341.5,-134 335.5,-134"/>
<text text-anchor="start" x="269.5" y="-121.4" font-family="Liberation Sans,Helvetica,Arial,sans-serif" font-weight="bold" font-size="12.00" fill="#002b36">eval_model</text>
<text text-anchor="start" x="265.5" y="-111" font-family="Liberation Sans,Helvetica,Arial,sans-serif" font-size="10.00" fill="#002b36">@op:eval_model</text>
<text text-anchor="start" x="285.5" y="-101" font-family="Liberation Sans,Helvetica,Arial,sans-serif" font-size="10.00" fill="#dc322f">12 calls</text>
</g>
<!-- y_test&#45;&gt;eval_model -->
<g id="edge3" class="edge">
<title>y_test&#45;&gt;eval_model</title>
<path fill="none" stroke="#002b36" d="M221.1,-191.84C231.58,-186.87 242.33,-180.9 251.5,-174 251.53,-173.98 265.61,-157.68 278.97,-142.22"/>
<polygon fill="#002b36" stroke="#002b36" points="281.92,-144.16 285.82,-134.31 276.63,-139.59 281.92,-144.16"/>
<text text-anchor="middle" x="290" y="-166" font-family="Liberation Sans,Helvetica,Arial,sans-serif" font-size="10.00" fill="#002b36">y_test</text>
<text text-anchor="middle" x="290" y="-155" font-family="Liberation Sans,Helvetica,Arial,sans-serif" font-size="10.00" fill="#002b36">(2 values)</text>
</g>
<!-- eval_ensemble -->
<g id="node7" class="node">
<title>eval_ensemble</title>
<path fill="none" stroke="#dc322f" stroke-width="1.5" d="M219.5,-134C219.5,-134 137.5,-134 137.5,-134 131.5,-134 125.5,-128 125.5,-122 125.5,-122 125.5,-106 125.5,-106 125.5,-100 131.5,-94 137.5,-94 137.5,-94 219.5,-94 219.5,-94 225.5,-94 231.5,-100 231.5,-106 231.5,-106 231.5,-122 231.5,-122 231.5,-128 225.5,-134 219.5,-134"/>
<text text-anchor="start" x="135.5" y="-121.4" font-family="Liberation Sans,Helvetica,Arial,sans-serif" font-weight="bold" font-size="12.00" fill="#002b36">eval_ensemble</text>
<text text-anchor="start" x="133.5" y="-111" font-family="Liberation Sans,Helvetica,Arial,sans-serif" font-size="10.00" fill="#002b36">@op:eval_ensemble</text>
<text text-anchor="start" x="164" y="-101" font-family="Liberation Sans,Helvetica,Arial,sans-serif" font-size="10.00" fill="#dc322f">2 calls</text>
</g>
<!-- y_test&#45;&gt;eval_ensemble -->
<g id="edge4" class="edge">
<title>y_test&#45;&gt;eval_ensemble</title>
<path fill="none" stroke="#002b36" d="M154.33,-191.66C149.53,-186.53 145.09,-180.52 142.5,-174 138.89,-164.91 138.82,-161.06 142.5,-152 143.9,-148.56 145.79,-145.26 147.97,-142.15"/>
<polygon fill="#002b36" stroke="#002b36" points="150.69,-144.35 154.31,-134.39 145.27,-139.93 150.69,-144.35"/>
<text text-anchor="middle" x="164" y="-166" font-family="Liberation Sans,Helvetica,Arial,sans-serif" font-size="10.00" fill="#002b36">y_test</text>
<text text-anchor="middle" x="164" y="-155" font-family="Liberation Sans,Helvetica,Arial,sans-serif" font-size="10.00" fill="#002b36">(2 values)</text>
</g>
<!-- X_test -->
<g id="node2" class="node">
<title>X_test</title>
<path fill="none" stroke="#268bd2" stroke-width="1.5" d="M339,-228C339,-228 258,-228 258,-228 252,-228 246,-222 246,-216 246,-216 246,-204 246,-204 246,-198 252,-192 258,-192 258,-192 339,-192 339,-192 345,-192 351,-198 351,-204 351,-204 351,-216 351,-216 351,-222 345,-228 339,-228"/>
<text text-anchor="start" x="280" y="-212.4" font-family="Liberation Sans,Helvetica,Arial,sans-serif" font-weight="bold" font-size="12.00" fill="#002b36">X_test</text>
<text text-anchor="start" x="254" y="-202" font-family="Liberation Sans,Helvetica,Arial,sans-serif" font-size="10.00" fill="#268bd2">2 values (2 sources)</text>
</g>
<!-- X_test&#45;&gt;eval_model -->
<g id="edge7" class="edge">
<title>X_test&#45;&gt;eval_model</title>
<path fill="none" stroke="#002b36" d="M309.97,-191.9C313.04,-186.42 315.93,-180.17 317.5,-174 320.01,-164.12 318.5,-153.3 315.64,-143.66"/>
<polygon fill="#002b36" stroke="#002b36" points="318.9,-142.4 312.28,-134.13 312.3,-144.73 318.9,-142.4"/>
<text text-anchor="middle" x="340" y="-166" font-family="Liberation Sans,Helvetica,Arial,sans-serif" font-size="10.00" fill="#002b36">X_test</text>
<text text-anchor="middle" x="340" y="-155" font-family="Liberation Sans,Helvetica,Arial,sans-serif" font-size="10.00" fill="#002b36">(2 values)</text>
</g>
<!-- X_test&#45;&gt;eval_ensemble -->
<g id="edge8" class="edge">
<title>X_test&#45;&gt;eval_ensemble</title>
<path fill="none" stroke="#002b36" d="M245.89,-192.12C229.81,-186.2 214.71,-179.63 208.5,-174 199.5,-165.85 192.82,-154.38 188.07,-143.72"/>
<polygon fill="#002b36" stroke="#002b36" points="191.25,-142.22 184.25,-134.27 184.76,-144.85 191.25,-142.22"/>
<text text-anchor="middle" x="230" y="-166" font-family="Liberation Sans,Helvetica,Arial,sans-serif" font-size="10.00" fill="#002b36">X_test</text>
<text text-anchor="middle" x="230" y="-155" font-family="Liberation Sans,Helvetica,Arial,sans-serif" font-size="10.00" fill="#002b36">(2 values)</text>
</g>
<!-- model -->
<g id="node3" class="node">
<title>model</title>
<path fill="none" stroke="#268bd2" stroke-width="1.5" d="M473.5,-228C473.5,-228 381.5,-228 381.5,-228 375.5,-228 369.5,-222 369.5,-216 369.5,-216 369.5,-204 369.5,-204 369.5,-198 375.5,-192 381.5,-192 381.5,-192 473.5,-192 473.5,-192 479.5,-192 485.5,-198 485.5,-204 485.5,-204 485.5,-216 485.5,-216 485.5,-222 479.5,-228 473.5,-228"/>
<text text-anchor="start" x="409.5" y="-212.4" font-family="Liberation Sans,Helvetica,Arial,sans-serif" font-weight="bold" font-size="12.00" fill="#002b36">model</text>
<text text-anchor="start" x="377.5" y="-202" font-family="Liberation Sans,Helvetica,Arial,sans-serif" font-size="10.00" fill="#268bd2">12 values (12 sources)</text>
</g>
<!-- model&#45;&gt;eval_model -->
<g id="edge1" class="edge">
<title>model&#45;&gt;eval_model</title>
<path fill="none" stroke="#002b36" d="M410.98,-192C398.95,-180.08 381.95,-164.18 365.5,-152 359.61,-147.64 353.18,-143.37 346.74,-139.36"/>
<polygon fill="#002b36" stroke="#002b36" points="348.37,-136.26 338,-134.08 344.75,-142.25 348.37,-136.26"/>
<text text-anchor="middle" x="414" y="-166" font-family="Liberation Sans,Helvetica,Arial,sans-serif" font-size="10.00" fill="#002b36">model</text>
<text text-anchor="middle" x="414" y="-155" font-family="Liberation Sans,Helvetica,Arial,sans-serif" font-size="10.00" fill="#002b36">(12 values)</text>
</g>
<!-- accuracy -->
<g id="node4" class="node">
<title>accuracy</title>
<path fill="none" stroke="#268bd2" stroke-width="1.5" d="M276.5,-36C276.5,-36 196.5,-36 196.5,-36 190.5,-36 184.5,-30 184.5,-24 184.5,-24 184.5,-12 184.5,-12 184.5,-6 190.5,0 196.5,0 196.5,0 276.5,0 276.5,0 282.5,0 288.5,-6 288.5,-12 288.5,-12 288.5,-24 288.5,-24 288.5,-30 282.5,-36 276.5,-36"/>
<text text-anchor="start" x="210" y="-20.4" font-family="Liberation Sans,Helvetica,Arial,sans-serif" font-weight="bold" font-size="12.00" fill="#002b36">accuracy</text>
<text text-anchor="start" x="192.5" y="-10" font-family="Liberation Sans,Helvetica,Arial,sans-serif" font-size="10.00" fill="#268bd2">14 values (14 sinks)</text>
</g>
<!-- models -->
<g id="node5" class="node">
<title>models</title>
<path fill="none" stroke="#268bd2" stroke-width="1.5" d="M93,-228C93,-228 12,-228 12,-228 6,-228 0,-222 0,-216 0,-216 0,-204 0,-204 0,-198 6,-192 12,-192 12,-192 93,-192 93,-192 99,-192 105,-198 105,-204 105,-204 105,-216 105,-216 105,-222 99,-228 93,-228"/>
<text text-anchor="start" x="31" y="-212.4" font-family="Liberation Sans,Helvetica,Arial,sans-serif" font-weight="bold" font-size="12.00" fill="#002b36">models</text>
<text text-anchor="start" x="8" y="-202" font-family="Liberation Sans,Helvetica,Arial,sans-serif" font-size="10.00" fill="#268bd2">2 values (2 sources)</text>
</g>
<!-- models&#45;&gt;eval_ensemble -->
<g id="edge5" class="edge">
<title>models&#45;&gt;eval_ensemble</title>
<path fill="none" stroke="#002b36" d="M61.48,-191.88C68.73,-179.45 79.93,-162.95 93.5,-152 100.33,-146.49 108.1,-141.65 116.1,-137.45"/>
<polygon fill="#002b36" stroke="#002b36" points="117.78,-140.52 125.2,-132.97 114.68,-134.25 117.78,-140.52"/>
<text text-anchor="middle" x="115" y="-166" font-family="Liberation Sans,Helvetica,Arial,sans-serif" font-size="10.00" fill="#002b36">models</text>
<text text-anchor="middle" x="115" y="-155" font-family="Liberation Sans,Helvetica,Arial,sans-serif" font-size="10.00" fill="#002b36">(2 values)</text>
</g>
<!-- eval_model&#45;&gt;accuracy -->
<g id="edge6" class="edge">
<title>eval_model&#45;&gt;accuracy</title>
<path fill="none" stroke="#002b36" d="M289.14,-93.98C279.1,-79.67 265.24,-59.94 254.26,-44.3"/>
<polygon fill="#002b36" stroke="#002b36" points="257.12,-42.27 248.5,-36.1 251.39,-46.29 257.12,-42.27"/>
<text text-anchor="middle" x="299" y="-68" font-family="Liberation Sans,Helvetica,Arial,sans-serif" font-size="10.00" fill="#002b36">accuracy</text>
<text text-anchor="middle" x="299" y="-57" font-family="Liberation Sans,Helvetica,Arial,sans-serif" font-size="10.00" fill="#002b36">(12 values)</text>
</g>
<!-- eval_ensemble&#45;&gt;accuracy -->
<g id="edge2" class="edge">
<title>eval_ensemble&#45;&gt;accuracy</title>
<path fill="none" stroke="#002b36" d="M190.24,-93.98C198.98,-79.81 211.02,-60.3 220.62,-44.74"/>
<polygon fill="#002b36" stroke="#002b36" points="223.68,-46.45 225.95,-36.1 217.72,-42.77 223.68,-46.45"/>
<text text-anchor="middle" x="235" y="-68" font-family="Liberation Sans,Helvetica,Arial,sans-serif" font-size="10.00" fill="#002b36">accuracy</text>
<text text-anchor="middle" x="235" y="-57" font-family="Liberation Sans,Helvetica,Arial,sans-serif" font-size="10.00" fill="#002b36">(2 values)</text>
</g>
</g>
</svg>
