<?xml version="1.0" encoding="UTF-8" standalone="no"?>
<!DOCTYPE svg PUBLIC "-//W3C//DTD SVG 1.1//EN"
 "http://www.w3.org/Graphics/SVG/1.1/DTD/svg11.dtd">
<!-- Generated by graphviz version 2.50.0 (0)
 -->
<!-- Title: G Pages: 1 -->
<svg width="870pt" height="910pt"
 viewBox="0.00 0.00 869.50 910.00" xmlns="http://www.w3.org/2000/svg" xmlns:xlink="http://www.w3.org/1999/xlink">
<g id="graph0" class="graph" transform="scale(1 1) rotate(0) translate(4 906)">
<title>G</title>
<polygon fill="white" stroke="transparent" points="-4,4 -4,-906 865.5,-906 865.5,4 -4,4"/>
<!-- max_depth -->
<g id="node1" class="node">
<title>max_depth</title>
<path fill="none" stroke="#268bd2" stroke-width="1.5" d="M301.5,-612C301.5,-612 220.5,-612 220.5,-612 214.5,-612 208.5,-606 208.5,-600 208.5,-600 208.5,-588 208.5,-588 208.5,-582 214.5,-576 220.5,-576 220.5,-576 301.5,-576 301.5,-576 307.5,-576 313.5,-582 313.5,-588 313.5,-588 313.5,-600 313.5,-600 313.5,-606 307.5,-612 301.5,-612"/>
<text text-anchor="start" x="229" y="-596.4" font-family="Liberation Sans,Helvetica,Arial,sans-serif" font-weight="bold" font-size="12.00" fill="#002b36">max_depth</text>
<text text-anchor="start" x="216.5" y="-586" font-family="Liberation Sans,Helvetica,Arial,sans-serif" font-size="10.00" fill="#268bd2">1 values (1 sources)</text>
</g>
<!-- train_random_forest -->
<g id="node15" class="node">
<title>train_random_forest</title>
<path fill="none" stroke="#dc322f" stroke-width="1.5" d="M463.5,-518C463.5,-518 354.5,-518 354.5,-518 348.5,-518 342.5,-512 342.5,-506 342.5,-506 342.5,-490 342.5,-490 342.5,-484 348.5,-478 354.5,-478 354.5,-478 463.5,-478 463.5,-478 469.5,-478 475.5,-484 475.5,-490 475.5,-490 475.5,-506 475.5,-506 475.5,-512 469.5,-518 463.5,-518"/>
<text text-anchor="start" x="350.5" y="-505.4" font-family="Liberation Sans,Helvetica,Arial,sans-serif" font-weight="bold" font-size="12.00" fill="#002b36">train_random_forest</text>
<text text-anchor="start" x="353.5" y="-495" font-family="Liberation Sans,Helvetica,Arial,sans-serif" font-size="10.00" fill="#002b36">@op:train_random_forest</text>
<text text-anchor="start" x="394.5" y="-485" font-family="Liberation Sans,Helvetica,Arial,sans-serif" font-size="10.00" fill="#dc322f">6 calls</text>
</g>
<!-- max_depth&#45;&gt;train_random_forest -->
<g id="edge21" class="edge">
<title>max_depth&#45;&gt;train_random_forest</title>
<path fill="none" stroke="#002b36" d="M264.48,-575.74C267.9,-563.06 274.35,-546.32 286,-536 299.12,-524.38 315.77,-516.41 332.55,-510.94"/>
<polygon fill="#002b36" stroke="#002b36" points="333.84,-514.21 342.42,-508 331.84,-507.5 333.84,-514.21"/>
<text text-anchor="middle" x="310.5" y="-550" font-family="Liberation Sans,Helvetica,Arial,sans-serif" font-size="10.00" fill="#002b36">max_depth</text>
<text text-anchor="middle" x="310.5" y="-539" font-family="Liberation Sans,Helvetica,Arial,sans-serif" font-size="10.00" fill="#002b36">(1 values)</text>
</g>
<!-- y_test -->
<g id="node2" class="node">
<title>y_test</title>
<path fill="none" stroke="#268bd2" stroke-width="1.5" d="M129,-420C129,-420 99,-420 99,-420 93,-420 87,-414 87,-408 87,-408 87,-396 87,-396 87,-390 93,-384 99,-384 99,-384 129,-384 129,-384 135,-384 141,-390 141,-396 141,-396 141,-408 141,-408 141,-414 135,-420 129,-420"/>
<text text-anchor="start" x="96.5" y="-404.4" font-family="Liberation Sans,Helvetica,Arial,sans-serif" font-weight="bold" font-size="12.00" fill="#002b36">y_test</text>
<text text-anchor="start" x="95.5" y="-394" font-family="Liberation Sans,Helvetica,Arial,sans-serif" font-size="10.00" fill="#268bd2">2 values</text>
</g>
<!-- eval_ensemble -->
<g id="node14" class="node">
<title>eval_ensemble</title>
<path fill="none" stroke="#dc322f" stroke-width="1.5" d="M264,-134C264,-134 182,-134 182,-134 176,-134 170,-128 170,-122 170,-122 170,-106 170,-106 170,-100 176,-94 182,-94 182,-94 264,-94 264,-94 270,-94 276,-100 276,-106 276,-106 276,-122 276,-122 276,-128 270,-134 264,-134"/>
<text text-anchor="start" x="180" y="-121.4" font-family="Liberation Sans,Helvetica,Arial,sans-serif" font-weight="bold" font-size="12.00" fill="#002b36">eval_ensemble</text>
<text text-anchor="start" x="178" y="-111" font-family="Liberation Sans,Helvetica,Arial,sans-serif" font-size="10.00" fill="#002b36">@op:eval_ensemble</text>
<text text-anchor="start" x="208.5" y="-101" font-family="Liberation Sans,Helvetica,Arial,sans-serif" font-size="10.00" fill="#dc322f">2 calls</text>
</g>
<!-- y_test&#45;&gt;eval_ensemble -->
<g id="edge5" class="edge">
<title>y_test&#45;&gt;eval_ensemble</title>
<path fill="none" stroke="#002b36" d="M114.9,-383.82C116.5,-360.97 120.8,-319.55 132,-286 149.91,-232.35 183.56,-175.39 204.55,-142.62"/>
<polygon fill="#002b36" stroke="#002b36" points="207.6,-144.34 210.1,-134.04 201.73,-140.53 207.6,-144.34"/>
<text text-anchor="middle" x="169.5" y="-260" font-family="Liberation Sans,Helvetica,Arial,sans-serif" font-size="10.00" fill="#002b36">y_test</text>
<text text-anchor="middle" x="169.5" y="-249" font-family="Liberation Sans,Helvetica,Arial,sans-serif" font-size="10.00" fill="#002b36">(2 values)</text>
</g>
<!-- eval_model -->
<g id="node20" class="node">
<title>eval_model</title>
<path fill="none" stroke="#dc322f" stroke-width="1.5" d="M219,-326C219,-326 153,-326 153,-326 147,-326 141,-320 141,-314 141,-314 141,-298 141,-298 141,-292 147,-286 153,-286 153,-286 219,-286 219,-286 225,-286 231,-292 231,-298 231,-298 231,-314 231,-314 231,-320 225,-326 219,-326"/>
<text text-anchor="start" x="153" y="-313.4" font-family="Liberation Sans,Helvetica,Arial,sans-serif" font-weight="bold" font-size="12.00" fill="#002b36">eval_model</text>
<text text-anchor="start" x="149" y="-303" font-family="Liberation Sans,Helvetica,Arial,sans-serif" font-size="10.00" fill="#002b36">@op:eval_model</text>
<text text-anchor="start" x="169" y="-293" font-family="Liberation Sans,Helvetica,Arial,sans-serif" font-size="10.00" fill="#dc322f">12 calls</text>
</g>
<!-- y_test&#45;&gt;eval_model -->
<g id="edge4" class="edge">
<title>y_test&#45;&gt;eval_model</title>
<path fill="none" stroke="#002b36" d="M121.43,-383.87C127,-372.05 135.31,-356.3 145,-344 147.96,-340.24 151.32,-336.55 154.82,-333.03"/>
<polygon fill="#002b36" stroke="#002b36" points="157.27,-335.53 162.1,-326.1 152.44,-330.46 157.27,-335.53"/>
<text text-anchor="middle" x="166.5" y="-358" font-family="Liberation Sans,Helvetica,Arial,sans-serif" font-size="10.00" fill="#002b36">y_test</text>
<text text-anchor="middle" x="166.5" y="-347" font-family="Liberation Sans,Helvetica,Arial,sans-serif" font-size="10.00" fill="#002b36">(2 values)</text>
</g>
<!-- X -->
<g id="node3" class="node">
<title>X</title>
<path fill="none" stroke="#268bd2" stroke-width="1.5" d="M361,-804C361,-804 331,-804 331,-804 325,-804 319,-798 319,-792 319,-792 319,-780 319,-780 319,-774 325,-768 331,-768 331,-768 361,-768 361,-768 367,-768 373,-774 373,-780 373,-780 373,-792 373,-792 373,-798 367,-804 361,-804"/>
<text text-anchor="start" x="341.5" y="-788.4" font-family="Liberation Sans,Helvetica,Arial,sans-serif" font-weight="bold" font-size="12.00" fill="#002b36">X</text>
<text text-anchor="start" x="327.5" y="-778" font-family="Liberation Sans,Helvetica,Arial,sans-serif" font-size="10.00" fill="#268bd2">2 values</text>
</g>
<!-- scale_data -->
<g id="node18" class="node">
<title>scale_data</title>
<path fill="none" stroke="#dc322f" stroke-width="1.5" d="M424,-710C424,-710 360,-710 360,-710 354,-710 348,-704 348,-698 348,-698 348,-682 348,-682 348,-676 354,-670 360,-670 360,-670 424,-670 424,-670 430,-670 436,-676 436,-682 436,-682 436,-698 436,-698 436,-704 430,-710 424,-710"/>
<text text-anchor="start" x="361" y="-697.4" font-family="Liberation Sans,Helvetica,Arial,sans-serif" font-weight="bold" font-size="12.00" fill="#002b36">scale_data</text>
<text text-anchor="start" x="356" y="-687" font-family="Liberation Sans,Helvetica,Arial,sans-serif" font-size="10.00" fill="#002b36">@op:scale_data</text>
<text text-anchor="start" x="377.5" y="-677" font-family="Liberation Sans,Helvetica,Arial,sans-serif" font-size="10.00" fill="#dc322f">1 calls</text>
</g>
<!-- X&#45;&gt;scale_data -->
<g id="edge16" class="edge">
<title>X&#45;&gt;scale_data</title>
<path fill="none" stroke="#002b36" d="M348.91,-767.86C351.34,-756.18 355.48,-740.6 362,-728 363.7,-724.72 365.71,-721.46 367.89,-718.32"/>
<polygon fill="#002b36" stroke="#002b36" points="370.69,-720.41 373.89,-710.31 365.09,-716.21 370.69,-720.41"/>
<text text-anchor="middle" x="383.5" y="-742" font-family="Liberation Sans,Helvetica,Arial,sans-serif" font-size="10.00" fill="#002b36">X</text>
<text text-anchor="middle" x="383.5" y="-731" font-family="Liberation Sans,Helvetica,Arial,sans-serif" font-size="10.00" fill="#002b36">(1 values)</text>
</g>
<!-- get_train_test_split -->
<g id="node19" class="node">
<title>get_train_test_split</title>
<path fill="none" stroke="#dc322f" stroke-width="1.5" d="M314.5,-710C314.5,-710 213.5,-710 213.5,-710 207.5,-710 201.5,-704 201.5,-698 201.5,-698 201.5,-682 201.5,-682 201.5,-676 207.5,-670 213.5,-670 213.5,-670 314.5,-670 314.5,-670 320.5,-670 326.5,-676 326.5,-682 326.5,-682 326.5,-698 326.5,-698 326.5,-704 320.5,-710 314.5,-710"/>
<text text-anchor="start" x="209.5" y="-697.4" font-family="Liberation Sans,Helvetica,Arial,sans-serif" font-weight="bold" font-size="12.00" fill="#002b36">get_train_test_split</text>
<text text-anchor="start" x="210.5" y="-687" font-family="Liberation Sans,Helvetica,Arial,sans-serif" font-size="10.00" fill="#002b36">@op:get_train_test_split</text>
<text text-anchor="start" x="249.5" y="-677" font-family="Liberation Sans,Helvetica,Arial,sans-serif" font-size="10.00" fill="#dc322f">2 calls</text>
</g>
<!-- X&#45;&gt;get_train_test_split -->
<g id="edge15" class="edge">
<title>X&#45;&gt;get_train_test_split</title>
<path fill="none" stroke="#002b36" d="M324.38,-767.71C318.17,-762.31 311.57,-756.16 306,-750 297.32,-740.41 288.84,-729 281.79,-718.78"/>
<polygon fill="#002b36" stroke="#002b36" points="284.49,-716.52 276,-710.18 278.69,-720.43 284.49,-716.52"/>
<text text-anchor="middle" x="327.5" y="-742" font-family="Liberation Sans,Helvetica,Arial,sans-serif" font-size="10.00" fill="#002b36">X</text>
<text text-anchor="middle" x="327.5" y="-731" font-family="Liberation Sans,Helvetica,Arial,sans-serif" font-size="10.00" fill="#002b36">(2 values)</text>
</g>
<!-- X_train -->
<g id="node4" class="node">
<title>X_train</title>
<path fill="none" stroke="#268bd2" stroke-width="1.5" d="M499.5,-612C499.5,-612 466.5,-612 466.5,-612 460.5,-612 454.5,-606 454.5,-600 454.5,-600 454.5,-588 454.5,-588 454.5,-582 460.5,-576 466.5,-576 466.5,-576 499.5,-576 499.5,-576 505.5,-576 511.5,-582 511.5,-588 511.5,-588 511.5,-600 511.5,-600 511.5,-606 505.5,-612 499.5,-612"/>
<text text-anchor="start" x="462.5" y="-596.4" font-family="Liberation Sans,Helvetica,Arial,sans-serif" font-weight="bold" font-size="12.00" fill="#002b36">X_train</text>
<text text-anchor="start" x="464.5" y="-586" font-family="Liberation Sans,Helvetica,Arial,sans-serif" font-size="10.00" fill="#268bd2">2 values</text>
</g>
<!-- X_train&#45;&gt;train_random_forest -->
<g id="edge20" class="edge">
<title>X_train&#45;&gt;train_random_forest</title>
<path fill="none" stroke="#002b36" d="M454.49,-579.13C441.21,-572.14 427.38,-563.91 423,-558 416.67,-549.46 413.16,-538.49 411.22,-528.32"/>
<polygon fill="#002b36" stroke="#002b36" points="414.65,-527.54 409.72,-518.16 407.72,-528.56 414.65,-527.54"/>
<text text-anchor="middle" x="444.5" y="-550" font-family="Liberation Sans,Helvetica,Arial,sans-serif" font-size="10.00" fill="#002b36">X_train</text>
<text text-anchor="middle" x="444.5" y="-539" font-family="Liberation Sans,Helvetica,Arial,sans-serif" font-size="10.00" fill="#002b36">(2 values)</text>
</g>
<!-- train_svc -->
<g id="node21" class="node">
<title>train_svc</title>
<path fill="none" stroke="#dc322f" stroke-width="1.5" d="M648,-518C648,-518 592,-518 592,-518 586,-518 580,-512 580,-506 580,-506 580,-490 580,-490 580,-484 586,-478 592,-478 592,-478 648,-478 648,-478 654,-478 660,-484 660,-490 660,-490 660,-506 660,-506 660,-512 654,-518 648,-518"/>
<text text-anchor="start" x="593.5" y="-505.4" font-family="Liberation Sans,Helvetica,Arial,sans-serif" font-weight="bold" font-size="12.00" fill="#002b36">train_svc</text>
<text text-anchor="start" x="588" y="-495" font-family="Liberation Sans,Helvetica,Arial,sans-serif" font-size="10.00" fill="#002b36">@op:train_svc</text>
<text text-anchor="start" x="605.5" y="-485" font-family="Liberation Sans,Helvetica,Arial,sans-serif" font-size="10.00" fill="#dc322f">6 calls</text>
</g>
<!-- X_train&#45;&gt;train_svc -->
<g id="edge19" class="edge">
<title>X_train&#45;&gt;train_svc</title>
<path fill="none" stroke="#002b36" d="M480.12,-575.85C479.03,-563.39 479.83,-546.88 489,-536 508.67,-512.66 541.83,-503.45 569.86,-500.06"/>
<polygon fill="#002b36" stroke="#002b36" points="570.32,-503.53 579.93,-499.06 569.63,-496.57 570.32,-503.53"/>
<text text-anchor="middle" x="510.5" y="-550" font-family="Liberation Sans,Helvetica,Arial,sans-serif" font-size="10.00" fill="#002b36">X_train</text>
<text text-anchor="middle" x="510.5" y="-539" font-family="Liberation Sans,Helvetica,Arial,sans-serif" font-size="10.00" fill="#002b36">(2 values)</text>
</g>
<!-- y_train -->
<g id="node5" class="node">
<title>y_train</title>
<path fill="none" stroke="#268bd2" stroke-width="1.5" d="M574,-612C574,-612 542,-612 542,-612 536,-612 530,-606 530,-600 530,-600 530,-588 530,-588 530,-582 536,-576 542,-576 542,-576 574,-576 574,-576 580,-576 586,-582 586,-588 586,-588 586,-600 586,-600 586,-606 580,-612 574,-612"/>
<text text-anchor="start" x="538" y="-596.4" font-family="Liberation Sans,Helvetica,Arial,sans-serif" font-weight="bold" font-size="12.00" fill="#002b36">y_train</text>
<text text-anchor="start" x="539.5" y="-586" font-family="Liberation Sans,Helvetica,Arial,sans-serif" font-size="10.00" fill="#268bd2">2 values</text>
</g>
<!-- y_train&#45;&gt;train_random_forest -->
<g id="edge24" class="edge">
<title>y_train&#45;&gt;train_random_forest</title>
<path fill="none" stroke="#002b36" d="M554.28,-575.99C550.65,-563.28 543.88,-546.37 532,-536 518.87,-524.54 502.29,-516.63 485.59,-511.17"/>
<polygon fill="#002b36" stroke="#002b36" points="486.36,-507.74 475.77,-508.23 484.35,-514.45 486.36,-507.74"/>
<text text-anchor="middle" x="568.5" y="-550" font-family="Liberation Sans,Helvetica,Arial,sans-serif" font-size="10.00" fill="#002b36">y_train</text>
<text text-anchor="middle" x="568.5" y="-539" font-family="Liberation Sans,Helvetica,Arial,sans-serif" font-size="10.00" fill="#002b36">(2 values)</text>
</g>
<!-- y_train&#45;&gt;train_svc -->
<g id="edge23" class="edge">
<title>y_train&#45;&gt;train_svc</title>
<path fill="none" stroke="#002b36" d="M581.52,-575.83C587.5,-570.62 593.49,-564.53 598,-558 604.24,-548.96 608.98,-537.92 612.42,-527.85"/>
<polygon fill="#002b36" stroke="#002b36" points="615.79,-528.8 615.44,-518.21 609.11,-526.71 615.79,-528.8"/>
<text text-anchor="middle" x="630.5" y="-550" font-family="Liberation Sans,Helvetica,Arial,sans-serif" font-size="10.00" fill="#002b36">y_train</text>
<text text-anchor="middle" x="630.5" y="-539" font-family="Liberation Sans,Helvetica,Arial,sans-serif" font-size="10.00" fill="#002b36">(2 values)</text>
</g>
<!-- n_estimators -->
<g id="node6" class="node">
<title>n_estimators</title>
<path fill="none" stroke="#268bd2" stroke-width="1.5" d="M424.5,-612C424.5,-612 343.5,-612 343.5,-612 337.5,-612 331.5,-606 331.5,-600 331.5,-600 331.5,-588 331.5,-588 331.5,-582 337.5,-576 343.5,-576 343.5,-576 424.5,-576 424.5,-576 430.5,-576 436.5,-582 436.5,-588 436.5,-588 436.5,-600 436.5,-600 436.5,-606 430.5,-612 424.5,-612"/>
<text text-anchor="start" x="346.5" y="-596.4" font-family="Liberation Sans,Helvetica,Arial,sans-serif" font-weight="bold" font-size="12.00" fill="#002b36">n_estimators</text>
<text text-anchor="start" x="339.5" y="-586" font-family="Liberation Sans,Helvetica,Arial,sans-serif" font-size="10.00" fill="#268bd2">3 values (3 sources)</text>
</g>
<!-- n_estimators&#45;&gt;train_random_forest -->
<g id="edge22" class="edge">
<title>n_estimators&#45;&gt;train_random_forest</title>
<path fill="none" stroke="#002b36" d="M356.96,-575.76C351.32,-570.77 346.14,-564.8 343,-558 338.91,-549.12 338.06,-544.44 343,-536 345.48,-531.76 348.65,-527.97 352.25,-524.59"/>
<polygon fill="#002b36" stroke="#002b36" points="354.57,-527.21 360.16,-518.2 350.18,-521.76 354.57,-527.21"/>
<text text-anchor="middle" x="371.5" y="-550" font-family="Liberation Sans,Helvetica,Arial,sans-serif" font-size="10.00" fill="#002b36">n_estimators</text>
<text text-anchor="middle" x="371.5" y="-539" font-family="Liberation Sans,Helvetica,Arial,sans-serif" font-size="10.00" fill="#002b36">(3 values)</text>
</g>
<!-- X_test -->
<g id="node7" class="node">
<title>X_test</title>
<path fill="none" stroke="#268bd2" stroke-width="1.5" d="M214,-420C214,-420 184,-420 184,-420 178,-420 172,-414 172,-408 172,-408 172,-396 172,-396 172,-390 178,-384 184,-384 184,-384 214,-384 214,-384 220,-384 226,-390 226,-396 226,-396 226,-408 226,-408 226,-414 220,-420 214,-420"/>
<text text-anchor="start" x="180.5" y="-404.4" font-family="Liberation Sans,Helvetica,Arial,sans-serif" font-weight="bold" font-size="12.00" fill="#002b36">X_test</text>
<text text-anchor="start" x="180.5" y="-394" font-family="Liberation Sans,Helvetica,Arial,sans-serif" font-size="10.00" fill="#268bd2">2 values</text>
</g>
<!-- X_test&#45;&gt;eval_ensemble -->
<g id="edge9" class="edge">
<title>X_test&#45;&gt;eval_ensemble</title>
<path fill="none" stroke="#002b36" d="M226.21,-401.37C253.62,-400.11 294.68,-393.36 315,-366 367.82,-294.89 290.73,-190.28 248.09,-141.66"/>
<polygon fill="#002b36" stroke="#002b36" points="250.59,-139.2 241.32,-134.08 245.37,-143.87 250.59,-139.2"/>
<text text-anchor="middle" x="346.5" y="-260" font-family="Liberation Sans,Helvetica,Arial,sans-serif" font-size="10.00" fill="#002b36">X_test</text>
<text text-anchor="middle" x="346.5" y="-249" font-family="Liberation Sans,Helvetica,Arial,sans-serif" font-size="10.00" fill="#002b36">(2 values)</text>
</g>
<!-- X_test&#45;&gt;eval_model -->
<g id="edge8" class="edge">
<title>X_test&#45;&gt;eval_model</title>
<path fill="none" stroke="#002b36" d="M196.62,-383.76C194.78,-370.5 192.2,-351.86 190.05,-336.27"/>
<polygon fill="#002b36" stroke="#002b36" points="193.47,-335.5 188.64,-326.07 186.54,-336.46 193.47,-335.5"/>
<text text-anchor="middle" x="216.5" y="-358" font-family="Liberation Sans,Helvetica,Arial,sans-serif" font-size="10.00" fill="#002b36">X_test</text>
<text text-anchor="middle" x="216.5" y="-347" font-family="Liberation Sans,Helvetica,Arial,sans-serif" font-size="10.00" fill="#002b36">(2 values)</text>
</g>
<!-- kernel -->
<g id="node8" class="node">
<title>kernel</title>
<path fill="none" stroke="#268bd2" stroke-width="1.5" d="M726.5,-612C726.5,-612 645.5,-612 645.5,-612 639.5,-612 633.5,-606 633.5,-600 633.5,-600 633.5,-588 633.5,-588 633.5,-582 639.5,-576 645.5,-576 645.5,-576 726.5,-576 726.5,-576 732.5,-576 738.5,-582 738.5,-588 738.5,-588 738.5,-600 738.5,-600 738.5,-606 732.5,-612 726.5,-612"/>
<text text-anchor="start" x="668" y="-596.4" font-family="Liberation Sans,Helvetica,Arial,sans-serif" font-weight="bold" font-size="12.00" fill="#002b36">kernel</text>
<text text-anchor="start" x="641.5" y="-586" font-family="Liberation Sans,Helvetica,Arial,sans-serif" font-size="10.00" fill="#268bd2">3 values (3 sources)</text>
</g>
<!-- kernel&#45;&gt;train_svc -->
<g id="edge27" class="edge">
<title>kernel&#45;&gt;train_svc</title>
<path fill="none" stroke="#002b36" d="M678.53,-575.79C673.08,-564.07 665.07,-548.49 656,-536 653.45,-532.49 650.58,-528.99 647.6,-525.61"/>
<polygon fill="#002b36" stroke="#002b36" points="649.92,-522.97 640.55,-518.03 644.8,-527.73 649.92,-522.97"/>
<text text-anchor="middle" x="690.5" y="-550" font-family="Liberation Sans,Helvetica,Arial,sans-serif" font-size="10.00" fill="#002b36">kernel</text>
<text text-anchor="middle" x="690.5" y="-539" font-family="Liberation Sans,Helvetica,Arial,sans-serif" font-size="10.00" fill="#002b36">(3 values)</text>
</g>
<!-- model -->
<g id="node9" class="node">
<title>model</title>
<path fill="none" stroke="#268bd2" stroke-width="1.5" d="M426.5,-420C426.5,-420 391.5,-420 391.5,-420 385.5,-420 379.5,-414 379.5,-408 379.5,-408 379.5,-396 379.5,-396 379.5,-390 385.5,-384 391.5,-384 391.5,-384 426.5,-384 426.5,-384 432.5,-384 438.5,-390 438.5,-396 438.5,-396 438.5,-408 438.5,-408 438.5,-414 432.5,-420 426.5,-420"/>
<text text-anchor="start" x="391" y="-404.4" font-family="Liberation Sans,Helvetica,Arial,sans-serif" font-weight="bold" font-size="12.00" fill="#002b36">model</text>
<text text-anchor="start" x="387.5" y="-394" font-family="Liberation Sans,Helvetica,Arial,sans-serif" font-size="10.00" fill="#268bd2">12 values</text>
</g>
<!-- __make_list__ -->
<g id="node17" class="node">
<title>__make_list__</title>
<path fill="none" stroke="#dc322f" stroke-width="1.5" d="M449,-326C449,-326 369,-326 369,-326 363,-326 357,-320 357,-314 357,-314 357,-298 357,-298 357,-292 363,-286 369,-286 369,-286 449,-286 449,-286 455,-286 461,-292 461,-298 461,-298 461,-314 461,-314 461,-320 455,-326 449,-326"/>
<text text-anchor="start" x="368" y="-313.4" font-family="Liberation Sans,Helvetica,Arial,sans-serif" font-weight="bold" font-size="12.00" fill="#002b36">__make_list__</text>
<text text-anchor="start" x="365" y="-303" font-family="Liberation Sans,Helvetica,Arial,sans-serif" font-size="10.00" fill="#002b36">@op:__make_list__</text>
<text text-anchor="start" x="394.5" y="-293" font-family="Liberation Sans,Helvetica,Arial,sans-serif" font-size="10.00" fill="#dc322f">2 calls</text>
</g>
<!-- model&#45;&gt;__make_list__ -->
<g id="edge2" class="edge">
<title>model&#45;&gt;__make_list__</title>
<path fill="none" stroke="#002b36" d="M409,-383.76C409,-370.5 409,-351.86 409,-336.27"/>
<polygon fill="#002b36" stroke="#002b36" points="412.5,-336.07 409,-326.07 405.5,-336.07 412.5,-336.07"/>
<text text-anchor="middle" x="433.5" y="-358" font-family="Liberation Sans,Helvetica,Arial,sans-serif" font-size="10.00" fill="#002b36">*elts</text>
<text text-anchor="middle" x="433.5" y="-347" font-family="Liberation Sans,Helvetica,Arial,sans-serif" font-size="10.00" fill="#002b36">(12 values)</text>
</g>
<!-- model&#45;&gt;eval_model -->
<g id="edge1" class="edge">
<title>model&#45;&gt;eval_model</title>
<path fill="none" stroke="#002b36" d="M379.39,-388.52C344.07,-373.63 284.31,-348.44 240.55,-330"/>
<polygon fill="#002b36" stroke="#002b36" points="241.77,-326.71 231.19,-326.05 239.05,-333.16 241.77,-326.71"/>
<text text-anchor="middle" x="348.5" y="-358" font-family="Liberation Sans,Helvetica,Arial,sans-serif" font-size="10.00" fill="#002b36">model</text>
<text text-anchor="middle" x="348.5" y="-347" font-family="Liberation Sans,Helvetica,Arial,sans-serif" font-size="10.00" fill="#002b36">(12 values)</text>
</g>
<!-- y -->
<g id="node10" class="node">
<title>y</title>
<path fill="none" stroke="#268bd2" stroke-width="1.5" d="M274,-804C274,-804 244,-804 244,-804 238,-804 232,-798 232,-792 232,-792 232,-780 232,-780 232,-774 238,-768 244,-768 244,-768 274,-768 274,-768 280,-768 286,-774 286,-780 286,-780 286,-792 286,-792 286,-798 280,-804 274,-804"/>
<text text-anchor="start" x="255.5" y="-788.4" font-family="Liberation Sans,Helvetica,Arial,sans-serif" font-weight="bold" font-size="12.00" fill="#002b36">y</text>
<text text-anchor="start" x="240.5" y="-778" font-family="Liberation Sans,Helvetica,Arial,sans-serif" font-size="10.00" fill="#268bd2">1 values</text>
</g>
<!-- y&#45;&gt;get_train_test_split -->
<g id="edge17" class="edge">
<title>y&#45;&gt;get_train_test_split</title>
<path fill="none" stroke="#002b36" d="M240.66,-767.64C236.33,-762.43 232.3,-756.38 230,-750 226.68,-740.8 226.45,-737.11 230,-728 231.35,-724.55 233.18,-721.22 235.31,-718.07"/>
<polygon fill="#002b36" stroke="#002b36" points="238.07,-720.23 241.48,-710.2 232.56,-715.91 238.07,-720.23"/>
<text text-anchor="middle" x="251.5" y="-742" font-family="Liberation Sans,Helvetica,Arial,sans-serif" font-size="10.00" fill="#002b36">y</text>
<text text-anchor="middle" x="251.5" y="-731" font-family="Liberation Sans,Helvetica,Arial,sans-serif" font-size="10.00" fill="#002b36">(1 values)</text>
</g>
<!-- accuracy -->
<g id="node11" class="node">
<title>accuracy</title>
<path fill="none" stroke="#268bd2" stroke-width="1.5" d="M92,-36C92,-36 12,-36 12,-36 6,-36 0,-30 0,-24 0,-24 0,-12 0,-12 0,-6 6,0 12,0 12,0 92,0 92,0 98,0 104,-6 104,-12 104,-12 104,-24 104,-24 104,-30 98,-36 92,-36"/>
<text text-anchor="start" x="25.5" y="-20.4" font-family="Liberation Sans,Helvetica,Arial,sans-serif" font-weight="bold" font-size="12.00" fill="#002b36">accuracy</text>
<text text-anchor="start" x="8" y="-10" font-family="Liberation Sans,Helvetica,Arial,sans-serif" font-size="10.00" fill="#268bd2">14 values (14 sinks)</text>
</g>
<!-- models -->
<g id="node12" class="node">
<title>models</title>
<path fill="none" stroke="#268bd2" stroke-width="1.5" d="M408.5,-228C408.5,-228 373.5,-228 373.5,-228 367.5,-228 361.5,-222 361.5,-216 361.5,-216 361.5,-204 361.5,-204 361.5,-198 367.5,-192 373.5,-192 373.5,-192 408.5,-192 408.5,-192 414.5,-192 420.5,-198 420.5,-204 420.5,-204 420.5,-216 420.5,-216 420.5,-222 414.5,-228 408.5,-228"/>
<text text-anchor="start" x="369.5" y="-212.4" font-family="Liberation Sans,Helvetica,Arial,sans-serif" font-weight="bold" font-size="12.00" fill="#002b36">models</text>
<text text-anchor="start" x="372.5" y="-202" font-family="Liberation Sans,Helvetica,Arial,sans-serif" font-size="10.00" fill="#268bd2">2 values</text>
</g>
<!-- models&#45;&gt;eval_ensemble -->
<g id="edge6" class="edge">
<title>models&#45;&gt;eval_ensemble</title>
<path fill="none" stroke="#002b36" d="M380.57,-191.99C371.96,-179.27 358.64,-162.36 343,-152 325.9,-140.67 305.15,-132.67 285.76,-127.08"/>
<polygon fill="#002b36" stroke="#002b36" points="286.63,-123.7 276.06,-124.46 284.8,-130.45 286.63,-123.7"/>
<text text-anchor="middle" x="387.5" y="-166" font-family="Liberation Sans,Helvetica,Arial,sans-serif" font-size="10.00" fill="#002b36">models</text>
<text text-anchor="middle" x="387.5" y="-155" font-family="Liberation Sans,Helvetica,Arial,sans-serif" font-size="10.00" fill="#002b36">(2 values)</text>
</g>
<!-- C -->
<g id="node13" class="node">
<title>C</title>
<path fill="none" stroke="#268bd2" stroke-width="1.5" d="M849.5,-612C849.5,-612 768.5,-612 768.5,-612 762.5,-612 756.5,-606 756.5,-600 756.5,-600 756.5,-588 756.5,-588 756.5,-582 762.5,-576 768.5,-576 768.5,-576 849.5,-576 849.5,-576 855.5,-576 861.5,-582 861.5,-588 861.5,-588 861.5,-600 861.5,-600 861.5,-606 855.5,-612 849.5,-612"/>
<text text-anchor="start" x="804" y="-596.4" font-family="Liberation Sans,Helvetica,Arial,sans-serif" font-weight="bold" font-size="12.00" fill="#002b36">C</text>
<text text-anchor="start" x="764.5" y="-586" font-family="Liberation Sans,Helvetica,Arial,sans-serif" font-size="10.00" fill="#268bd2">1 values (1 sources)</text>
</g>
<!-- C&#45;&gt;train_svc -->
<g id="edge26" class="edge">
<title>C&#45;&gt;train_svc</title>
<path fill="none" stroke="#002b36" d="M784.05,-575.99C765.72,-563.92 739.94,-547.83 716,-536 701.42,-528.8 685.06,-522.04 670.04,-516.32"/>
<polygon fill="#002b36" stroke="#002b36" points="670.99,-512.93 660.4,-512.71 668.54,-519.49 670.99,-512.93"/>
<text text-anchor="middle" x="776.5" y="-550" font-family="Liberation Sans,Helvetica,Arial,sans-serif" font-size="10.00" fill="#002b36">C</text>
<text text-anchor="middle" x="776.5" y="-539" font-family="Liberation Sans,Helvetica,Arial,sans-serif" font-size="10.00" fill="#002b36">(1 values)</text>
</g>
<!-- eval_ensemble&#45;&gt;accuracy -->
<g id="edge3" class="edge">
<title>eval_ensemble&#45;&gt;accuracy</title>
<path fill="none" stroke="#002b36" d="M188.4,-93.98C160.57,-78.68 121.43,-57.17 92.21,-41.11"/>
<polygon fill="#002b36" stroke="#002b36" points="93.55,-37.85 83.1,-36.1 90.18,-43.98 93.55,-37.85"/>
<text text-anchor="middle" x="174.5" y="-68" font-family="Liberation Sans,Helvetica,Arial,sans-serif" font-size="10.00" fill="#002b36">accuracy</text>
<text text-anchor="middle" x="174.5" y="-57" font-family="Liberation Sans,Helvetica,Arial,sans-serif" font-size="10.00" fill="#002b36">(2 values)</text>
</g>
<!-- train_random_forest&#45;&gt;model -->
<g id="edge18" class="edge">
<title>train_random_forest&#45;&gt;model</title>
<path fill="none" stroke="#002b36" d="M409,-477.98C409,-464.34 409,-445.75 409,-430.5"/>
<polygon fill="#002b36" stroke="#002b36" points="412.5,-430.1 409,-420.1 405.5,-430.1 412.5,-430.1"/>
<text text-anchor="middle" x="430.5" y="-452" font-family="Liberation Sans,Helvetica,Arial,sans-serif" font-size="10.00" fill="#002b36">rf_model</text>
<text text-anchor="middle" x="430.5" y="-441" font-family="Liberation Sans,Helvetica,Arial,sans-serif" font-size="10.00" fill="#002b36">(6 values)</text>
</g>
<!-- get_data -->
<g id="node16" class="node">
<title>get_data</title>
<path fill="none" stroke="#dc322f" stroke-width="1.5" d="M322,-902C322,-902 268,-902 268,-902 262,-902 256,-896 256,-890 256,-890 256,-874 256,-874 256,-868 262,-862 268,-862 268,-862 322,-862 322,-862 328,-862 334,-868 334,-874 334,-874 334,-890 334,-890 334,-896 328,-902 322,-902"/>
<text text-anchor="start" x="270" y="-889.4" font-family="Liberation Sans,Helvetica,Arial,sans-serif" font-weight="bold" font-size="12.00" fill="#002b36">get_data</text>
<text text-anchor="start" x="264" y="-879" font-family="Liberation Sans,Helvetica,Arial,sans-serif" font-size="10.00" fill="#002b36">@op:get_data</text>
<text text-anchor="start" x="280.5" y="-869" font-family="Liberation Sans,Helvetica,Arial,sans-serif" font-size="10.00" fill="#dc322f">1 calls</text>
</g>
<!-- get_data&#45;&gt;X -->
<g id="edge28" class="edge">
<title>get_data&#45;&gt;X</title>
<path fill="none" stroke="#002b36" d="M305.32,-861.98C312.94,-847.94 323.39,-828.66 331.8,-813.17"/>
<polygon fill="#002b36" stroke="#002b36" points="335.03,-814.56 336.72,-804.1 328.88,-811.22 335.03,-814.56"/>
<text text-anchor="middle" x="347.5" y="-836" font-family="Liberation Sans,Helvetica,Arial,sans-serif" font-size="10.00" fill="#002b36">X</text>
<text text-anchor="middle" x="347.5" y="-825" font-family="Liberation Sans,Helvetica,Arial,sans-serif" font-size="10.00" fill="#002b36">(1 values)</text>
</g>
<!-- get_data&#45;&gt;y -->
<g id="edge29" class="edge">
<title>get_data&#45;&gt;y</title>
<path fill="none" stroke="#002b36" d="M275.15,-861.76C270.75,-856.43 266.63,-850.35 264,-844 260.19,-834.8 258.6,-824.06 258.07,-814.4"/>
<polygon fill="#002b36" stroke="#002b36" points="261.56,-814.02 257.87,-804.09 254.57,-814.16 261.56,-814.02"/>
<text text-anchor="middle" x="285.5" y="-836" font-family="Liberation Sans,Helvetica,Arial,sans-serif" font-size="10.00" fill="#002b36">y</text>
<text text-anchor="middle" x="285.5" y="-825" font-family="Liberation Sans,Helvetica,Arial,sans-serif" font-size="10.00" fill="#002b36">(1 values)</text>
</g>
<!-- __make_list__&#45;&gt;models -->
<g id="edge10" class="edge">
<title>__make_list__&#45;&gt;models</title>
<path fill="none" stroke="#002b36" d="M405.36,-285.98C402.72,-272.2 399.12,-253.39 396.18,-238.05"/>
<polygon fill="#002b36" stroke="#002b36" points="399.59,-237.26 394.27,-228.1 392.72,-238.58 399.59,-237.26"/>
<text text-anchor="middle" x="422.5" y="-260" font-family="Liberation Sans,Helvetica,Arial,sans-serif" font-size="10.00" fill="#002b36">list</text>
<text text-anchor="middle" x="422.5" y="-249" font-family="Liberation Sans,Helvetica,Arial,sans-serif" font-size="10.00" fill="#002b36">(2 values)</text>
</g>
<!-- scale_data&#45;&gt;X -->
<g id="edge30" class="edge">
<title>scale_data&#45;&gt;X</title>
<path fill="none" stroke="#002b36" d="M402.78,-710.11C408.07,-722.19 411.96,-737.79 405,-750 399.83,-759.08 391.27,-766.05 382.25,-771.29"/>
<polygon fill="#002b36" stroke="#002b36" points="380.48,-768.26 373.19,-775.96 383.69,-774.49 380.48,-768.26"/>
<text text-anchor="middle" x="429.5" y="-742" font-family="Liberation Sans,Helvetica,Arial,sans-serif" font-size="10.00" fill="#002b36">X_scaled</text>
<text text-anchor="middle" x="429.5" y="-731" font-family="Liberation Sans,Helvetica,Arial,sans-serif" font-size="10.00" fill="#002b36">(1 values)</text>
</g>
<!-- get_train_test_split&#45;&gt;y_test -->
<g id="edge12" class="edge">
<title>get_train_test_split&#45;&gt;y_test</title>
<path fill="none" stroke="#002b36" d="M228.32,-669.83C220.2,-664.62 211.93,-658.58 205,-652 167.98,-616.86 158.22,-605.29 139,-558 121.83,-515.76 116.43,-462.54 114.74,-430.73"/>
<polygon fill="#002b36" stroke="#002b36" points="118.22,-430.26 114.29,-420.42 111.23,-430.56 118.22,-430.26"/>
<text text-anchor="middle" x="160.5" y="-550" font-family="Liberation Sans,Helvetica,Arial,sans-serif" font-size="10.00" fill="#002b36">y_test</text>
<text text-anchor="middle" x="160.5" y="-539" font-family="Liberation Sans,Helvetica,Arial,sans-serif" font-size="10.00" fill="#002b36">(2 values)</text>
</g>
<!-- get_train_test_split&#45;&gt;X_train -->
<g id="edge13" class="edge">
<title>get_train_test_split&#45;&gt;X_train</title>
<path fill="none" stroke="#002b36" d="M310.17,-669.92C344.97,-655.44 394.07,-634.79 445.14,-612.33"/>
<polygon fill="#002b36" stroke="#002b36" points="446.62,-615.5 454.36,-608.27 443.79,-609.1 446.62,-615.5"/>
<text text-anchor="middle" x="422.5" y="-644" font-family="Liberation Sans,Helvetica,Arial,sans-serif" font-size="10.00" fill="#002b36">X_train</text>
<text text-anchor="middle" x="422.5" y="-633" font-family="Liberation Sans,Helvetica,Arial,sans-serif" font-size="10.00" fill="#002b36">(2 values)</text>
</g>
<!-- get_train_test_split&#45;&gt;y_train -->
<g id="edge14" class="edge">
<title>get_train_test_split&#45;&gt;y_train</title>
<path fill="none" stroke="#002b36" d="M326.52,-672.74C330.74,-671.77 334.92,-670.85 339,-670 387.06,-659.96 401.41,-667.49 448,-652 473.96,-643.37 501.27,-629.25 522.19,-617.22"/>
<polygon fill="#002b36" stroke="#002b36" points="524.17,-620.12 531.03,-612.04 520.63,-614.08 524.17,-620.12"/>
<text text-anchor="middle" x="518.5" y="-644" font-family="Liberation Sans,Helvetica,Arial,sans-serif" font-size="10.00" fill="#002b36">y_train</text>
<text text-anchor="middle" x="518.5" y="-633" font-family="Liberation Sans,Helvetica,Arial,sans-serif" font-size="10.00" fill="#002b36">(2 values)</text>
</g>
<!-- get_train_test_split&#45;&gt;X_test -->
<g id="edge11" class="edge">
<title>get_train_test_split&#45;&gt;X_test</title>
<path fill="none" stroke="#002b36" d="M240.91,-669.76C225.8,-655.58 207.35,-634.84 199,-612 176.41,-550.22 185.82,-471.12 193.23,-430.22"/>
<polygon fill="#002b36" stroke="#002b36" points="196.7,-430.69 195.14,-420.21 189.83,-429.37 196.7,-430.69"/>
<text text-anchor="middle" x="208.5" y="-550" font-family="Liberation Sans,Helvetica,Arial,sans-serif" font-size="10.00" fill="#002b36">X_test</text>
<text text-anchor="middle" x="208.5" y="-539" font-family="Liberation Sans,Helvetica,Arial,sans-serif" font-size="10.00" fill="#002b36">(2 values)</text>
</g>
<!-- eval_model&#45;&gt;accuracy -->
<g id="edge7" class="edge">
<title>eval_model&#45;&gt;accuracy</title>
<path fill="none" stroke="#002b36" d="M153.37,-285.99C146.58,-280.85 139.98,-274.79 135,-268 83.79,-198.12 62.86,-94.7 55.49,-46.1"/>
<polygon fill="#002b36" stroke="#002b36" points="58.93,-45.45 54.04,-36.05 52,-46.45 58.93,-45.45"/>
<text text-anchor="middle" x="111.5" y="-166" font-family="Liberation Sans,Helvetica,Arial,sans-serif" font-size="10.00" fill="#002b36">accuracy</text>
<text text-anchor="middle" x="111.5" y="-155" font-family="Liberation Sans,Helvetica,Arial,sans-serif" font-size="10.00" fill="#002b36">(12 values)</text>
</g>
<!-- train_svc&#45;&gt;model -->
<g id="edge25" class="edge">
<title>train_svc&#45;&gt;model</title>
<path fill="none" stroke="#002b36" d="M579.82,-479.1C542.06,-462.28 485.9,-437.26 448.4,-420.55"/>
<polygon fill="#002b36" stroke="#002b36" points="449.38,-417.16 438.82,-416.28 446.53,-423.55 449.38,-417.16"/>
<text text-anchor="middle" x="557" y="-452" font-family="Liberation Sans,Helvetica,Arial,sans-serif" font-size="10.00" fill="#002b36">svc_model</text>
<text text-anchor="middle" x="557" y="-441" font-family="Liberation Sans,Helvetica,Arial,sans-serif" font-size="10.00" fill="#002b36">(6 values)</text>
</g>
</g>
</svg>
