<?xml version="1.0" encoding="UTF-8" standalone="no"?>
<!DOCTYPE svg PUBLIC "-//W3C//DTD SVG 1.1//EN"
 "http://www.w3.org/Graphics/SVG/1.1/DTD/svg11.dtd">
<!-- Generated by graphviz version 2.50.0 (0)
 -->
<!-- Title: G Pages: 1 -->
<svg width="737pt" height="746pt"
 viewBox="0.00 0.00 737.00 746.00" xmlns="http://www.w3.org/2000/svg" xmlns:xlink="http://www.w3.org/1999/xlink">
<g id="graph0" class="graph" transform="scale(1 1) rotate(0) translate(4 742)">
<title>G</title>
<polygon fill="white" stroke="transparent" points="-4,4 -4,-742 733,-742 733,4 -4,4"/>
<!-- max_depth -->
<g id="node1" class="node">
<title>max_depth</title>
<path fill="none" stroke="#268bd2" stroke-width="1.5" d="M651.5,-448C651.5,-448 570.5,-448 570.5,-448 564.5,-448 558.5,-442 558.5,-436 558.5,-436 558.5,-424 558.5,-424 558.5,-418 564.5,-412 570.5,-412 570.5,-412 651.5,-412 651.5,-412 657.5,-412 663.5,-418 663.5,-424 663.5,-424 663.5,-436 663.5,-436 663.5,-442 657.5,-448 651.5,-448"/>
<text text-anchor="start" x="579" y="-432.4" font-family="Liberation Sans,Helvetica,Arial,sans-serif" font-weight="bold" font-size="12.00" fill="#002b36">max_depth</text>
<text text-anchor="start" x="566.5" y="-422" font-family="Liberation Sans,Helvetica,Arial,sans-serif" font-size="10.00" fill="#268bd2">1 values (1 sources)</text>
</g>
<!-- train_random_forest -->
<g id="node13" class="node">
<title>train_random_forest</title>
<path fill="none" stroke="#dc322f" stroke-width="1.5" d="M505.5,-340C505.5,-340 396.5,-340 396.5,-340 390.5,-340 384.5,-334 384.5,-328 384.5,-328 384.5,-312 384.5,-312 384.5,-306 390.5,-300 396.5,-300 396.5,-300 505.5,-300 505.5,-300 511.5,-300 517.5,-306 517.5,-312 517.5,-312 517.5,-328 517.5,-328 517.5,-334 511.5,-340 505.5,-340"/>
<text text-anchor="start" x="392.5" y="-327.4" font-family="Liberation Sans,Helvetica,Arial,sans-serif" font-weight="bold" font-size="12.00" fill="#002b36">train_random_forest</text>
<text text-anchor="start" x="395.5" y="-317" font-family="Liberation Sans,Helvetica,Arial,sans-serif" font-size="10.00" fill="#002b36">@op:train_random_forest</text>
<text text-anchor="start" x="436.5" y="-307" font-family="Liberation Sans,Helvetica,Arial,sans-serif" font-size="10.00" fill="#dc322f">2 calls</text>
</g>
<!-- max_depth&#45;&gt;train_random_forest -->
<g id="edge15" class="edge">
<title>max_depth&#45;&gt;train_random_forest</title>
<path fill="none" stroke="#002b36" d="M602.61,-411.72C593.99,-395.67 579.15,-372.18 560,-358 550.12,-350.68 538.69,-344.74 527.02,-339.94"/>
<polygon fill="#002b36" stroke="#002b36" points="528.23,-336.66 517.64,-336.33 525.72,-343.19 528.23,-336.66"/>
<text text-anchor="middle" x="615.5" y="-379" font-family="Liberation Sans,Helvetica,Arial,sans-serif" font-size="10.00" fill="#002b36">max_depth</text>
<text text-anchor="middle" x="615.5" y="-368" font-family="Liberation Sans,Helvetica,Arial,sans-serif" font-size="10.00" fill="#002b36">(1 values)</text>
</g>
<!-- y_test -->
<g id="node2" class="node">
<title>y_test</title>
<path fill="none" stroke="#268bd2" stroke-width="1.5" d="M42,-394C42,-394 12,-394 12,-394 6,-394 0,-388 0,-382 0,-382 0,-370 0,-370 0,-364 6,-358 12,-358 12,-358 42,-358 42,-358 48,-358 54,-364 54,-370 54,-370 54,-382 54,-382 54,-388 48,-394 42,-394"/>
<text text-anchor="start" x="9.5" y="-378.4" font-family="Liberation Sans,Helvetica,Arial,sans-serif" font-weight="bold" font-size="12.00" fill="#002b36">y_test</text>
<text text-anchor="start" x="8.5" y="-368" font-family="Liberation Sans,Helvetica,Arial,sans-serif" font-size="10.00" fill="#268bd2">2 values</text>
</g>
<!-- eval_model -->
<g id="node17" class="node">
<title>eval_model</title>
<path fill="none" stroke="#dc322f" stroke-width="1.5" d="M384,-134C384,-134 318,-134 318,-134 312,-134 306,-128 306,-122 306,-122 306,-106 306,-106 306,-100 312,-94 318,-94 318,-94 384,-94 384,-94 390,-94 396,-100 396,-106 396,-106 396,-122 396,-122 396,-128 390,-134 384,-134"/>
<text text-anchor="start" x="318" y="-121.4" font-family="Liberation Sans,Helvetica,Arial,sans-serif" font-weight="bold" font-size="12.00" fill="#002b36">eval_model</text>
<text text-anchor="start" x="314" y="-111" font-family="Liberation Sans,Helvetica,Arial,sans-serif" font-size="10.00" fill="#002b36">@op:eval_model</text>
<text text-anchor="start" x="336.5" y="-101" font-family="Liberation Sans,Helvetica,Arial,sans-serif" font-size="10.00" fill="#dc322f">4 calls</text>
</g>
<!-- y_test&#45;&gt;eval_model -->
<g id="edge4" class="edge">
<title>y_test&#45;&gt;eval_model</title>
<path fill="none" stroke="#002b36" d="M48.26,-357.94C103.75,-313.41 253.21,-193.47 319.08,-140.61"/>
<polygon fill="#002b36" stroke="#002b36" points="321.45,-143.2 327.06,-134.21 317.07,-137.74 321.45,-143.2"/>
<text text-anchor="middle" x="206.5" y="-267" font-family="Liberation Sans,Helvetica,Arial,sans-serif" font-size="10.00" fill="#002b36">y_test</text>
<text text-anchor="middle" x="206.5" y="-256" font-family="Liberation Sans,Helvetica,Arial,sans-serif" font-size="10.00" fill="#002b36">(2 values)</text>
</g>
<!-- X -->
<g id="node3" class="node">
<title>X</title>
<path fill="none" stroke="#268bd2" stroke-width="1.5" d="M299,-640C299,-640 269,-640 269,-640 263,-640 257,-634 257,-628 257,-628 257,-616 257,-616 257,-610 263,-604 269,-604 269,-604 299,-604 299,-604 305,-604 311,-610 311,-616 311,-616 311,-628 311,-628 311,-634 305,-640 299,-640"/>
<text text-anchor="start" x="279.5" y="-624.4" font-family="Liberation Sans,Helvetica,Arial,sans-serif" font-weight="bold" font-size="12.00" fill="#002b36">X</text>
<text text-anchor="start" x="265.5" y="-614" font-family="Liberation Sans,Helvetica,Arial,sans-serif" font-size="10.00" fill="#268bd2">2 values</text>
</g>
<!-- scale_data -->
<g id="node15" class="node">
<title>scale_data</title>
<path fill="none" stroke="#dc322f" stroke-width="1.5" d="M255,-546C255,-546 191,-546 191,-546 185,-546 179,-540 179,-534 179,-534 179,-518 179,-518 179,-512 185,-506 191,-506 191,-506 255,-506 255,-506 261,-506 267,-512 267,-518 267,-518 267,-534 267,-534 267,-540 261,-546 255,-546"/>
<text text-anchor="start" x="192" y="-533.4" font-family="Liberation Sans,Helvetica,Arial,sans-serif" font-weight="bold" font-size="12.00" fill="#002b36">scale_data</text>
<text text-anchor="start" x="187" y="-523" font-family="Liberation Sans,Helvetica,Arial,sans-serif" font-size="10.00" fill="#002b36">@op:scale_data</text>
<text text-anchor="start" x="208.5" y="-513" font-family="Liberation Sans,Helvetica,Arial,sans-serif" font-size="10.00" fill="#dc322f">1 calls</text>
</g>
<!-- X&#45;&gt;scale_data -->
<g id="edge10" class="edge">
<title>X&#45;&gt;scale_data</title>
<path fill="none" stroke="#002b36" d="M268.55,-603.72C263.95,-598.23 259.07,-592.01 255,-586 248.47,-576.34 242.16,-565.22 236.89,-555.26"/>
<polygon fill="#002b36" stroke="#002b36" points="239.88,-553.43 232.19,-546.15 233.66,-556.64 239.88,-553.43"/>
<text text-anchor="middle" x="276.5" y="-578" font-family="Liberation Sans,Helvetica,Arial,sans-serif" font-size="10.00" fill="#002b36">X</text>
<text text-anchor="middle" x="276.5" y="-567" font-family="Liberation Sans,Helvetica,Arial,sans-serif" font-size="10.00" fill="#002b36">(1 values)</text>
</g>
<!-- get_train_test_split -->
<g id="node16" class="node">
<title>get_train_test_split</title>
<path fill="none" stroke="#dc322f" stroke-width="1.5" d="M401.5,-546C401.5,-546 300.5,-546 300.5,-546 294.5,-546 288.5,-540 288.5,-534 288.5,-534 288.5,-518 288.5,-518 288.5,-512 294.5,-506 300.5,-506 300.5,-506 401.5,-506 401.5,-506 407.5,-506 413.5,-512 413.5,-518 413.5,-518 413.5,-534 413.5,-534 413.5,-540 407.5,-546 401.5,-546"/>
<text text-anchor="start" x="296.5" y="-533.4" font-family="Liberation Sans,Helvetica,Arial,sans-serif" font-weight="bold" font-size="12.00" fill="#002b36">get_train_test_split</text>
<text text-anchor="start" x="297.5" y="-523" font-family="Liberation Sans,Helvetica,Arial,sans-serif" font-size="10.00" fill="#002b36">@op:get_train_test_split</text>
<text text-anchor="start" x="336.5" y="-513" font-family="Liberation Sans,Helvetica,Arial,sans-serif" font-size="10.00" fill="#dc322f">2 calls</text>
</g>
<!-- X&#45;&gt;get_train_test_split -->
<g id="edge9" class="edge">
<title>X&#45;&gt;get_train_test_split</title>
<path fill="none" stroke="#002b36" d="M292.61,-603.94C298.79,-592.28 307.65,-576.71 317,-564 319.5,-560.6 322.27,-557.16 325.12,-553.83"/>
<polygon fill="#002b36" stroke="#002b36" points="327.79,-556.08 331.81,-546.28 322.56,-551.44 327.79,-556.08"/>
<text text-anchor="middle" x="338.5" y="-578" font-family="Liberation Sans,Helvetica,Arial,sans-serif" font-size="10.00" fill="#002b36">X</text>
<text text-anchor="middle" x="338.5" y="-567" font-family="Liberation Sans,Helvetica,Arial,sans-serif" font-size="10.00" fill="#002b36">(2 values)</text>
</g>
<!-- X_train -->
<g id="node4" class="node">
<title>X_train</title>
<path fill="none" stroke="#268bd2" stroke-width="1.5" d="M405.5,-448C405.5,-448 372.5,-448 372.5,-448 366.5,-448 360.5,-442 360.5,-436 360.5,-436 360.5,-424 360.5,-424 360.5,-418 366.5,-412 372.5,-412 372.5,-412 405.5,-412 405.5,-412 411.5,-412 417.5,-418 417.5,-424 417.5,-424 417.5,-436 417.5,-436 417.5,-442 411.5,-448 405.5,-448"/>
<text text-anchor="start" x="368.5" y="-432.4" font-family="Liberation Sans,Helvetica,Arial,sans-serif" font-weight="bold" font-size="12.00" fill="#002b36">X_train</text>
<text text-anchor="start" x="370.5" y="-422" font-family="Liberation Sans,Helvetica,Arial,sans-serif" font-size="10.00" fill="#268bd2">2 values</text>
</g>
<!-- X_train&#45;&gt;train_random_forest -->
<g id="edge14" class="edge">
<title>X_train&#45;&gt;train_random_forest</title>
<path fill="none" stroke="#002b36" d="M413.22,-411.66C419.05,-406.52 424.8,-400.52 429,-394 437.45,-380.88 442.79,-364.35 446.08,-350.34"/>
<polygon fill="#002b36" stroke="#002b36" points="449.58,-350.73 448.22,-340.22 442.73,-349.28 449.58,-350.73"/>
<text text-anchor="middle" x="464.5" y="-379" font-family="Liberation Sans,Helvetica,Arial,sans-serif" font-size="10.00" fill="#002b36">X_train</text>
<text text-anchor="middle" x="464.5" y="-368" font-family="Liberation Sans,Helvetica,Arial,sans-serif" font-size="10.00" fill="#002b36">(2 values)</text>
</g>
<!-- train_svc -->
<g id="node14" class="node">
<title>train_svc</title>
<path fill="none" stroke="#dc322f" stroke-width="1.5" d="M281,-340C281,-340 225,-340 225,-340 219,-340 213,-334 213,-328 213,-328 213,-312 213,-312 213,-306 219,-300 225,-300 225,-300 281,-300 281,-300 287,-300 293,-306 293,-312 293,-312 293,-328 293,-328 293,-334 287,-340 281,-340"/>
<text text-anchor="start" x="226.5" y="-327.4" font-family="Liberation Sans,Helvetica,Arial,sans-serif" font-weight="bold" font-size="12.00" fill="#002b36">train_svc</text>
<text text-anchor="start" x="221" y="-317" font-family="Liberation Sans,Helvetica,Arial,sans-serif" font-size="10.00" fill="#002b36">@op:train_svc</text>
<text text-anchor="start" x="238.5" y="-307" font-family="Liberation Sans,Helvetica,Arial,sans-serif" font-size="10.00" fill="#dc322f">2 calls</text>
</g>
<!-- X_train&#45;&gt;train_svc -->
<g id="edge13" class="edge">
<title>X_train&#45;&gt;train_svc</title>
<path fill="none" stroke="#002b36" d="M384.6,-412C379.52,-393.53 370.85,-365.65 363,-358 346.87,-342.3 323.87,-333.25 303.07,-328.05"/>
<polygon fill="#002b36" stroke="#002b36" points="303.6,-324.58 293.07,-325.79 302.06,-331.4 303.6,-324.58"/>
<text text-anchor="middle" x="400.5" y="-379" font-family="Liberation Sans,Helvetica,Arial,sans-serif" font-size="10.00" fill="#002b36">X_train</text>
<text text-anchor="middle" x="400.5" y="-368" font-family="Liberation Sans,Helvetica,Arial,sans-serif" font-size="10.00" fill="#002b36">(2 values)</text>
</g>
<!-- y_train -->
<g id="node5" class="node">
<title>y_train</title>
<path fill="none" stroke="#268bd2" stroke-width="1.5" d="M330,-448C330,-448 298,-448 298,-448 292,-448 286,-442 286,-436 286,-436 286,-424 286,-424 286,-418 292,-412 298,-412 298,-412 330,-412 330,-412 336,-412 342,-418 342,-424 342,-424 342,-436 342,-436 342,-442 336,-448 330,-448"/>
<text text-anchor="start" x="294" y="-432.4" font-family="Liberation Sans,Helvetica,Arial,sans-serif" font-weight="bold" font-size="12.00" fill="#002b36">y_train</text>
<text text-anchor="start" x="295.5" y="-422" font-family="Liberation Sans,Helvetica,Arial,sans-serif" font-size="10.00" fill="#268bd2">2 values</text>
</g>
<!-- y_train&#45;&gt;train_random_forest -->
<g id="edge18" class="edge">
<title>y_train&#45;&gt;train_random_forest</title>
<path fill="none" stroke="#002b36" d="M309.24,-411.89C305.98,-396.18 304.12,-373.13 316,-358 323.95,-347.87 348.45,-339.79 374.44,-333.8"/>
<polygon fill="#002b36" stroke="#002b36" points="375.42,-337.16 384.44,-331.6 373.92,-330.33 375.42,-337.16"/>
<text text-anchor="middle" x="337.5" y="-379" font-family="Liberation Sans,Helvetica,Arial,sans-serif" font-size="10.00" fill="#002b36">y_train</text>
<text text-anchor="middle" x="337.5" y="-368" font-family="Liberation Sans,Helvetica,Arial,sans-serif" font-size="10.00" fill="#002b36">(2 values)</text>
</g>
<!-- y_train&#45;&gt;train_svc -->
<g id="edge17" class="edge">
<title>y_train&#45;&gt;train_svc</title>
<path fill="none" stroke="#002b36" d="M285.93,-416C272.19,-409.01 257.8,-400.51 254,-394 246.42,-381 245.65,-364.36 247.01,-350.25"/>
<polygon fill="#002b36" stroke="#002b36" points="250.52,-350.43 248.39,-340.05 243.58,-349.49 250.52,-350.43"/>
<text text-anchor="middle" x="275.5" y="-379" font-family="Liberation Sans,Helvetica,Arial,sans-serif" font-size="10.00" fill="#002b36">y_train</text>
<text text-anchor="middle" x="275.5" y="-368" font-family="Liberation Sans,Helvetica,Arial,sans-serif" font-size="10.00" fill="#002b36">(2 values)</text>
</g>
<!-- n_estimators -->
<g id="node6" class="node">
<title>n_estimators</title>
<path fill="none" stroke="#268bd2" stroke-width="1.5" d="M528.5,-448C528.5,-448 447.5,-448 447.5,-448 441.5,-448 435.5,-442 435.5,-436 435.5,-436 435.5,-424 435.5,-424 435.5,-418 441.5,-412 447.5,-412 447.5,-412 528.5,-412 528.5,-412 534.5,-412 540.5,-418 540.5,-424 540.5,-424 540.5,-436 540.5,-436 540.5,-442 534.5,-448 528.5,-448"/>
<text text-anchor="start" x="450.5" y="-432.4" font-family="Liberation Sans,Helvetica,Arial,sans-serif" font-weight="bold" font-size="12.00" fill="#002b36">n_estimators</text>
<text text-anchor="start" x="443.5" y="-422" font-family="Liberation Sans,Helvetica,Arial,sans-serif" font-size="10.00" fill="#268bd2">1 values (1 sources)</text>
</g>
<!-- n_estimators&#45;&gt;train_random_forest -->
<g id="edge16" class="edge">
<title>n_estimators&#45;&gt;train_random_forest</title>
<path fill="none" stroke="#002b36" d="M494.46,-411.82C498.99,-396.9 502.95,-375.07 495,-358 493.29,-354.34 491.03,-350.91 488.42,-347.73"/>
<polygon fill="#002b36" stroke="#002b36" points="490.81,-345.17 481.37,-340.36 485.75,-350 490.81,-345.17"/>
<text text-anchor="middle" x="527.5" y="-379" font-family="Liberation Sans,Helvetica,Arial,sans-serif" font-size="10.00" fill="#002b36">n_estimators</text>
<text text-anchor="middle" x="527.5" y="-368" font-family="Liberation Sans,Helvetica,Arial,sans-serif" font-size="10.00" fill="#002b36">(1 values)</text>
</g>
<!-- X_test -->
<g id="node7" class="node">
<title>X_test</title>
<path fill="none" stroke="#268bd2" stroke-width="1.5" d="M626,-282C626,-282 596,-282 596,-282 590,-282 584,-276 584,-270 584,-270 584,-258 584,-258 584,-252 590,-246 596,-246 596,-246 626,-246 626,-246 632,-246 638,-252 638,-258 638,-258 638,-270 638,-270 638,-276 632,-282 626,-282"/>
<text text-anchor="start" x="592.5" y="-266.4" font-family="Liberation Sans,Helvetica,Arial,sans-serif" font-weight="bold" font-size="12.00" fill="#002b36">X_test</text>
<text text-anchor="start" x="592.5" y="-256" font-family="Liberation Sans,Helvetica,Arial,sans-serif" font-size="10.00" fill="#268bd2">2 values</text>
</g>
<!-- X_test&#45;&gt;eval_model -->
<g id="edge2" class="edge">
<title>X_test&#45;&gt;eval_model</title>
<path fill="none" stroke="#002b36" d="M583.67,-247.44C538.31,-221.62 447.18,-169.75 393.41,-139.14"/>
<polygon fill="#002b36" stroke="#002b36" points="394.9,-135.96 384.47,-134.05 391.43,-142.04 394.9,-135.96"/>
<text text-anchor="middle" x="566.5" y="-213" font-family="Liberation Sans,Helvetica,Arial,sans-serif" font-size="10.00" fill="#002b36">X_test</text>
<text text-anchor="middle" x="566.5" y="-202" font-family="Liberation Sans,Helvetica,Arial,sans-serif" font-size="10.00" fill="#002b36">(2 values)</text>
</g>
<!-- kernel -->
<g id="node8" class="node">
<title>kernel</title>
<path fill="none" stroke="#268bd2" stroke-width="1.5" d="M255.5,-448C255.5,-448 174.5,-448 174.5,-448 168.5,-448 162.5,-442 162.5,-436 162.5,-436 162.5,-424 162.5,-424 162.5,-418 168.5,-412 174.5,-412 174.5,-412 255.5,-412 255.5,-412 261.5,-412 267.5,-418 267.5,-424 267.5,-424 267.5,-436 267.5,-436 267.5,-442 261.5,-448 255.5,-448"/>
<text text-anchor="start" x="197" y="-432.4" font-family="Liberation Sans,Helvetica,Arial,sans-serif" font-weight="bold" font-size="12.00" fill="#002b36">kernel</text>
<text text-anchor="start" x="170.5" y="-422" font-family="Liberation Sans,Helvetica,Arial,sans-serif" font-size="10.00" fill="#268bd2">1 values (1 sources)</text>
</g>
<!-- kernel&#45;&gt;train_svc -->
<g id="edge21" class="edge">
<title>kernel&#45;&gt;train_svc</title>
<path fill="none" stroke="#002b36" d="M198.19,-411.82C194.05,-406.53 190.18,-400.39 188,-394 182.84,-378.86 179.96,-371.83 188,-358 191.99,-351.13 197.79,-345.44 204.3,-340.74"/>
<polygon fill="#002b36" stroke="#002b36" points="206.28,-343.63 212.84,-335.32 202.52,-337.72 206.28,-343.63"/>
<text text-anchor="middle" x="209.5" y="-379" font-family="Liberation Sans,Helvetica,Arial,sans-serif" font-size="10.00" fill="#002b36">kernel</text>
<text text-anchor="middle" x="209.5" y="-368" font-family="Liberation Sans,Helvetica,Arial,sans-serif" font-size="10.00" fill="#002b36">(1 values)</text>
</g>
<!-- model -->
<g id="node9" class="node">
<title>model</title>
<path fill="none" stroke="#268bd2" stroke-width="1.5" d="M366,-228C366,-228 336,-228 336,-228 330,-228 324,-222 324,-216 324,-216 324,-204 324,-204 324,-198 330,-192 336,-192 336,-192 366,-192 366,-192 372,-192 378,-198 378,-204 378,-204 378,-216 378,-216 378,-222 372,-228 366,-228"/>
<text text-anchor="start" x="333" y="-212.4" font-family="Liberation Sans,Helvetica,Arial,sans-serif" font-weight="bold" font-size="12.00" fill="#002b36">model</text>
<text text-anchor="start" x="332.5" y="-202" font-family="Liberation Sans,Helvetica,Arial,sans-serif" font-size="10.00" fill="#268bd2">4 values</text>
</g>
<!-- model&#45;&gt;eval_model -->
<g id="edge3" class="edge">
<title>model&#45;&gt;eval_model</title>
<path fill="none" stroke="#002b36" d="M351,-191.76C351,-178.5 351,-159.86 351,-144.27"/>
<polygon fill="#002b36" stroke="#002b36" points="354.5,-144.07 351,-134.07 347.5,-144.07 354.5,-144.07"/>
<text text-anchor="middle" x="372.5" y="-166" font-family="Liberation Sans,Helvetica,Arial,sans-serif" font-size="10.00" fill="#002b36">model</text>
<text text-anchor="middle" x="372.5" y="-155" font-family="Liberation Sans,Helvetica,Arial,sans-serif" font-size="10.00" fill="#002b36">(4 values)</text>
</g>
<!-- accuracy -->
<g id="node10" class="node">
<title>accuracy</title>
<path fill="none" stroke="#268bd2" stroke-width="1.5" d="M386,-36C386,-36 316,-36 316,-36 310,-36 304,-30 304,-24 304,-24 304,-12 304,-12 304,-6 310,0 316,0 316,0 386,0 386,0 392,0 398,-6 398,-12 398,-12 398,-24 398,-24 398,-30 392,-36 386,-36"/>
<text text-anchor="start" x="324.5" y="-20.4" font-family="Liberation Sans,Helvetica,Arial,sans-serif" font-weight="bold" font-size="12.00" fill="#002b36">accuracy</text>
<text text-anchor="start" x="312" y="-10" font-family="Liberation Sans,Helvetica,Arial,sans-serif" font-size="10.00" fill="#268bd2">4 values (4 sinks)</text>
</g>
<!-- y -->
<g id="node11" class="node">
<title>y</title>
<path fill="none" stroke="#268bd2" stroke-width="1.5" d="M386,-640C386,-640 356,-640 356,-640 350,-640 344,-634 344,-628 344,-628 344,-616 344,-616 344,-610 350,-604 356,-604 356,-604 386,-604 386,-604 392,-604 398,-610 398,-616 398,-616 398,-628 398,-628 398,-634 392,-640 386,-640"/>
<text text-anchor="start" x="367.5" y="-624.4" font-family="Liberation Sans,Helvetica,Arial,sans-serif" font-weight="bold" font-size="12.00" fill="#002b36">y</text>
<text text-anchor="start" x="352.5" y="-614" font-family="Liberation Sans,Helvetica,Arial,sans-serif" font-size="10.00" fill="#268bd2">1 values</text>
</g>
<!-- y&#45;&gt;get_train_test_split -->
<g id="edge11" class="edge">
<title>y&#45;&gt;get_train_test_split</title>
<path fill="none" stroke="#002b36" d="M369.87,-603.87C368.87,-592.46 367.09,-577.2 364,-564 363.38,-561.36 362.64,-558.64 361.83,-555.93"/>
<polygon fill="#002b36" stroke="#002b36" points="365.13,-554.76 358.68,-546.35 358.48,-556.95 365.13,-554.76"/>
<text text-anchor="middle" x="388.5" y="-578" font-family="Liberation Sans,Helvetica,Arial,sans-serif" font-size="10.00" fill="#002b36">y</text>
<text text-anchor="middle" x="388.5" y="-567" font-family="Liberation Sans,Helvetica,Arial,sans-serif" font-size="10.00" fill="#002b36">(1 values)</text>
</g>
<!-- C -->
<g id="node12" class="node">
<title>C</title>
<path fill="none" stroke="#268bd2" stroke-width="1.5" d="M132.5,-448C132.5,-448 51.5,-448 51.5,-448 45.5,-448 39.5,-442 39.5,-436 39.5,-436 39.5,-424 39.5,-424 39.5,-418 45.5,-412 51.5,-412 51.5,-412 132.5,-412 132.5,-412 138.5,-412 144.5,-418 144.5,-424 144.5,-424 144.5,-436 144.5,-436 144.5,-442 138.5,-448 132.5,-448"/>
<text text-anchor="start" x="87" y="-432.4" font-family="Liberation Sans,Helvetica,Arial,sans-serif" font-weight="bold" font-size="12.00" fill="#002b36">C</text>
<text text-anchor="start" x="47.5" y="-422" font-family="Liberation Sans,Helvetica,Arial,sans-serif" font-size="10.00" fill="#268bd2">1 values (1 sources)</text>
</g>
<!-- C&#45;&gt;train_svc -->
<g id="edge20" class="edge">
<title>C&#45;&gt;train_svc</title>
<path fill="none" stroke="#002b36" d="M98.46,-411.94C105.39,-395.82 117.92,-372.07 136,-358 155.25,-343.03 180.68,-334.05 202.91,-328.69"/>
<polygon fill="#002b36" stroke="#002b36" points="203.86,-332.07 212.86,-326.48 202.34,-325.23 203.86,-332.07"/>
<text text-anchor="middle" x="157.5" y="-379" font-family="Liberation Sans,Helvetica,Arial,sans-serif" font-size="10.00" fill="#002b36">C</text>
<text text-anchor="middle" x="157.5" y="-368" font-family="Liberation Sans,Helvetica,Arial,sans-serif" font-size="10.00" fill="#002b36">(1 values)</text>
</g>
<!-- train_random_forest&#45;&gt;model -->
<g id="edge12" class="edge">
<title>train_random_forest&#45;&gt;model</title>
<path fill="none" stroke="#002b36" d="M433.35,-299.94C416.72,-281.98 391.72,-254.98 373.63,-235.44"/>
<polygon fill="#002b36" stroke="#002b36" points="376.19,-233.05 366.82,-228.09 371.05,-237.81 376.19,-233.05"/>
<text text-anchor="middle" x="436.5" y="-267" font-family="Liberation Sans,Helvetica,Arial,sans-serif" font-size="10.00" fill="#002b36">rf_model</text>
<text text-anchor="middle" x="436.5" y="-256" font-family="Liberation Sans,Helvetica,Arial,sans-serif" font-size="10.00" fill="#002b36">(2 values)</text>
</g>
<!-- train_svc&#45;&gt;model -->
<g id="edge19" class="edge">
<title>train_svc&#45;&gt;model</title>
<path fill="none" stroke="#002b36" d="M270.29,-299.94C286.52,-282.06 310.88,-255.22 328.59,-235.7"/>
<polygon fill="#002b36" stroke="#002b36" points="331.36,-237.85 335.49,-228.09 326.18,-233.14 331.36,-237.85"/>
<text text-anchor="middle" x="340" y="-267" font-family="Liberation Sans,Helvetica,Arial,sans-serif" font-size="10.00" fill="#002b36">svc_model</text>
<text text-anchor="middle" x="340" y="-256" font-family="Liberation Sans,Helvetica,Arial,sans-serif" font-size="10.00" fill="#002b36">(2 values)</text>
</g>
<!-- scale_data&#45;&gt;X -->
<g id="edge24" class="edge">
<title>scale_data&#45;&gt;X</title>
<path fill="none" stroke="#002b36" d="M203.94,-546.14C194.4,-558.1 186.51,-573.54 195,-586 206.65,-603.1 228.04,-611.84 246.94,-616.32"/>
<polygon fill="#002b36" stroke="#002b36" points="246.31,-619.76 256.81,-618.34 247.71,-612.9 246.31,-619.76"/>
<text text-anchor="middle" x="216.5" y="-578" font-family="Liberation Sans,Helvetica,Arial,sans-serif" font-size="10.00" fill="#002b36">X_scaled</text>
<text text-anchor="middle" x="216.5" y="-567" font-family="Liberation Sans,Helvetica,Arial,sans-serif" font-size="10.00" fill="#002b36">(1 values)</text>
</g>
<!-- get_train_test_split&#45;&gt;y_test -->
<g id="edge6" class="edge">
<title>get_train_test_split&#45;&gt;y_test</title>
<path fill="none" stroke="#002b36" d="M288.41,-509.06C284.21,-508.02 280.04,-506.99 276,-506 166.88,-479.32 101.57,-534.58 30,-448 20.13,-436.06 19.22,-418.76 20.85,-404.23"/>
<polygon fill="#002b36" stroke="#002b36" points="24.33,-404.66 22.4,-394.25 17.41,-403.59 24.33,-404.66"/>
<text text-anchor="middle" x="100.5" y="-480" font-family="Liberation Sans,Helvetica,Arial,sans-serif" font-size="10.00" fill="#002b36">y_test</text>
<text text-anchor="middle" x="100.5" y="-469" font-family="Liberation Sans,Helvetica,Arial,sans-serif" font-size="10.00" fill="#002b36">(2 values)</text>
</g>
<!-- get_train_test_split&#45;&gt;X_train -->
<g id="edge7" class="edge">
<title>get_train_test_split&#45;&gt;X_train</title>
<path fill="none" stroke="#002b36" d="M358.69,-505.98C364.31,-492.07 372.01,-473.03 378.24,-457.61"/>
<polygon fill="#002b36" stroke="#002b36" points="381.59,-458.68 382.09,-448.1 375.1,-456.06 381.59,-458.68"/>
<text text-anchor="middle" x="395.5" y="-480" font-family="Liberation Sans,Helvetica,Arial,sans-serif" font-size="10.00" fill="#002b36">X_train</text>
<text text-anchor="middle" x="395.5" y="-469" font-family="Liberation Sans,Helvetica,Arial,sans-serif" font-size="10.00" fill="#002b36">(2 values)</text>
</g>
<!-- get_train_test_split&#45;&gt;y_train -->
<g id="edge8" class="edge">
<title>get_train_test_split&#45;&gt;y_train</title>
<path fill="none" stroke="#002b36" d="M331.22,-505.72C326.83,-500.4 322.68,-494.33 320,-488 316.06,-478.72 314.3,-467.85 313.61,-458.11"/>
<polygon fill="#002b36" stroke="#002b36" points="317.11,-457.97 313.23,-448.11 310.11,-458.24 317.11,-457.97"/>
<text text-anchor="middle" x="341.5" y="-480" font-family="Liberation Sans,Helvetica,Arial,sans-serif" font-size="10.00" fill="#002b36">y_train</text>
<text text-anchor="middle" x="341.5" y="-469" font-family="Liberation Sans,Helvetica,Arial,sans-serif" font-size="10.00" fill="#002b36">(2 values)</text>
</g>
<!-- get_train_test_split&#45;&gt;X_test -->
<g id="edge5" class="edge">
<title>get_train_test_split&#45;&gt;X_test</title>
<path fill="none" stroke="#002b36" d="M413.64,-519.1C498.02,-509.7 641.31,-488.16 673,-448 710.77,-400.14 663.65,-327.99 633.15,-290.17"/>
<polygon fill="#002b36" stroke="#002b36" points="635.63,-287.68 626.56,-282.21 630.24,-292.14 635.63,-287.68"/>
<text text-anchor="middle" x="707.5" y="-433" font-family="Liberation Sans,Helvetica,Arial,sans-serif" font-size="10.00" fill="#002b36">X_test</text>
<text text-anchor="middle" x="707.5" y="-422" font-family="Liberation Sans,Helvetica,Arial,sans-serif" font-size="10.00" fill="#002b36">(2 values)</text>
</g>
<!-- eval_model&#45;&gt;accuracy -->
<g id="edge1" class="edge">
<title>eval_model&#45;&gt;accuracy</title>
<path fill="none" stroke="#002b36" d="M351,-93.98C351,-80.34 351,-61.75 351,-46.5"/>
<polygon fill="#002b36" stroke="#002b36" points="354.5,-46.1 351,-36.1 347.5,-46.1 354.5,-46.1"/>
<text text-anchor="middle" x="372.5" y="-68" font-family="Liberation Sans,Helvetica,Arial,sans-serif" font-size="10.00" fill="#002b36">accuracy</text>
<text text-anchor="middle" x="372.5" y="-57" font-family="Liberation Sans,Helvetica,Arial,sans-serif" font-size="10.00" fill="#002b36">(4 values)</text>
</g>
<!-- get_data -->
<g id="node18" class="node">
<title>get_data</title>
<path fill="none" stroke="#dc322f" stroke-width="1.5" d="M347,-738C347,-738 293,-738 293,-738 287,-738 281,-732 281,-726 281,-726 281,-710 281,-710 281,-704 287,-698 293,-698 293,-698 347,-698 347,-698 353,-698 359,-704 359,-710 359,-710 359,-726 359,-726 359,-732 353,-738 347,-738"/>
<text text-anchor="start" x="295" y="-725.4" font-family="Liberation Sans,Helvetica,Arial,sans-serif" font-weight="bold" font-size="12.00" fill="#002b36">get_data</text>
<text text-anchor="start" x="289" y="-715" font-family="Liberation Sans,Helvetica,Arial,sans-serif" font-size="10.00" fill="#002b36">@op:get_data</text>
<text text-anchor="start" x="305.5" y="-705" font-family="Liberation Sans,Helvetica,Arial,sans-serif" font-size="10.00" fill="#dc322f">1 calls</text>
</g>
<!-- get_data&#45;&gt;X -->
<g id="edge22" class="edge">
<title>get_data&#45;&gt;X</title>
<path fill="none" stroke="#002b36" d="M306.32,-697.68C302.88,-692.17 299.47,-686.02 297,-680 293.12,-670.56 290.28,-659.73 288.26,-650.07"/>
<polygon fill="#002b36" stroke="#002b36" points="291.68,-649.34 286.39,-640.16 284.81,-650.64 291.68,-649.34"/>
<text text-anchor="middle" x="318.5" y="-672" font-family="Liberation Sans,Helvetica,Arial,sans-serif" font-size="10.00" fill="#002b36">X</text>
<text text-anchor="middle" x="318.5" y="-661" font-family="Liberation Sans,Helvetica,Arial,sans-serif" font-size="10.00" fill="#002b36">(1 values)</text>
</g>
<!-- get_data&#45;&gt;y -->
<g id="edge23" class="edge">
<title>get_data&#45;&gt;y</title>
<path fill="none" stroke="#002b36" d="M330.32,-697.98C337.94,-683.94 348.39,-664.66 356.8,-649.17"/>
<polygon fill="#002b36" stroke="#002b36" points="360.03,-650.56 361.72,-640.1 353.88,-647.22 360.03,-650.56"/>
<text text-anchor="middle" x="372.5" y="-672" font-family="Liberation Sans,Helvetica,Arial,sans-serif" font-size="10.00" fill="#002b36">y</text>
<text text-anchor="middle" x="372.5" y="-661" font-family="Liberation Sans,Helvetica,Arial,sans-serif" font-size="10.00" fill="#002b36">(1 values)</text>
</g>
</g>
</svg>
