<?xml version="1.0" encoding="UTF-8" standalone="no"?>
<!DOCTYPE svg PUBLIC "-//W3C//DTD SVG 1.1//EN"
 "http://www.w3.org/Graphics/SVG/1.1/DTD/svg11.dtd">
<!-- Generated by graphviz version 2.50.0 (0)
 -->
<!-- Title: G Pages: 1 -->
<svg width="756pt" height="94pt"
 viewBox="0.00 0.00 756.00 94.00" xmlns="http://www.w3.org/2000/svg" xmlns:xlink="http://www.w3.org/1999/xlink">
<g id="graph0" class="graph" transform="scale(1 1) rotate(0) translate(4 90)">
<title>G</title>
<polygon fill="white" stroke="transparent" points="-4,4 -4,-90 752,-90 752,4 -4,4"/>
<!-- y -->
<g id="node1" class="node">
<title>y</title>
<path fill="none" stroke="#268bd2" stroke-width="1.5" d="M428,-40C428,-40 358,-40 358,-40 352,-40 346,-34 346,-28 346,-28 346,-16 346,-16 346,-10 352,-4 358,-4 358,-4 428,-4 428,-4 434,-4 440,-10 440,-16 440,-16 440,-28 440,-28 440,-34 434,-40 428,-40"/>
<text text-anchor="start" x="389.5" y="-24.4" font-family="Liberation Sans,Helvetica,Arial,sans-serif" font-weight="bold" font-size="12.00" fill="#002b36">y</text>
<text text-anchor="start" x="354" y="-14" font-family="Liberation Sans,Helvetica,Arial,sans-serif" font-size="10.00" fill="#268bd2">5 values (2 sinks)</text>
</g>
<!-- add -->
<g id="node4" class="node">
<title>add</title>
<path fill="none" stroke="#dc322f" stroke-width="1.5" d="M563,-65C563,-65 531,-65 531,-65 525,-65 519,-59 519,-53 519,-53 519,-37 519,-37 519,-31 525,-25 531,-25 531,-25 563,-25 563,-25 569,-25 575,-31 575,-37 575,-37 575,-53 575,-53 575,-59 569,-65 563,-65"/>
<text text-anchor="start" x="536" y="-52.4" font-family="Liberation Sans,Helvetica,Arial,sans-serif" font-weight="bold" font-size="12.00" fill="#002b36">add</text>
<text text-anchor="start" x="527" y="-42" font-family="Liberation Sans,Helvetica,Arial,sans-serif" font-size="10.00" fill="#002b36">@op:add</text>
<text text-anchor="start" x="532.5" y="-32" font-family="Liberation Sans,Helvetica,Arial,sans-serif" font-size="10.00" fill="#dc322f">3 calls</text>
</g>
<!-- y&#45;&gt;add -->
<g id="edge4" class="edge">
<title>y&#45;&gt;add</title>
<path fill="none" stroke="#002b36" d="M440.09,-24.4C459.07,-25.88 481.2,-28.25 501,-32 503.52,-32.48 506.1,-33.03 508.68,-33.64"/>
<polygon fill="#002b36" stroke="#002b36" points="508.03,-37.09 518.59,-36.2 509.78,-30.31 508.03,-37.09"/>
<text text-anchor="middle" x="479.5" y="-46" font-family="Liberation Sans,Helvetica,Arial,sans-serif" font-size="10.00" fill="#002b36">y</text>
<text text-anchor="middle" x="479.5" y="-35" font-family="Liberation Sans,Helvetica,Arial,sans-serif" font-size="10.00" fill="#002b36">(3 values)</text>
</g>
<!-- w -->
<g id="node2" class="node">
<title>w</title>
<path fill="none" stroke="#268bd2" stroke-width="1.5" d="M736,-63C736,-63 666,-63 666,-63 660,-63 654,-57 654,-51 654,-51 654,-39 654,-39 654,-33 660,-27 666,-27 666,-27 736,-27 736,-27 742,-27 748,-33 748,-39 748,-39 748,-51 748,-51 748,-57 742,-63 736,-63"/>
<text text-anchor="start" x="696" y="-47.4" font-family="Liberation Sans,Helvetica,Arial,sans-serif" font-weight="bold" font-size="12.00" fill="#002b36">w</text>
<text text-anchor="start" x="662" y="-37" font-family="Liberation Sans,Helvetica,Arial,sans-serif" font-size="10.00" fill="#268bd2">3 values (3 sinks)</text>
</g>
<!-- x -->
<g id="node3" class="node">
<title>x</title>
<path fill="none" stroke="#268bd2" stroke-width="1.5" d="M93,-62C93,-62 12,-62 12,-62 6,-62 0,-56 0,-50 0,-50 0,-38 0,-38 0,-32 6,-26 12,-26 12,-26 93,-26 93,-26 99,-26 105,-32 105,-38 105,-38 105,-50 105,-50 105,-56 99,-62 93,-62"/>
<text text-anchor="start" x="49" y="-46.4" font-family="Liberation Sans,Helvetica,Arial,sans-serif" font-weight="bold" font-size="12.00" fill="#002b36">x</text>
<text text-anchor="start" x="8" y="-36" font-family="Liberation Sans,Helvetica,Arial,sans-serif" font-size="10.00" fill="#268bd2">5 values (5 sources)</text>
</g>
<!-- x&#45;&gt;add -->
<g id="edge3" class="edge">
<title>x&#45;&gt;add</title>
<path fill="none" stroke="#002b36" d="M105.03,-52.25C111.07,-52.97 117.16,-53.58 123,-54 290.57,-65.99 333.82,-70.55 501,-54 503.5,-53.75 506.06,-53.43 508.64,-53.05"/>
<polygon fill="#002b36" stroke="#002b36" points="509.24,-56.5 518.52,-51.39 508.08,-49.6 509.24,-56.5"/>
<text text-anchor="middle" x="306.5" y="-78" font-family="Liberation Sans,Helvetica,Arial,sans-serif" font-size="10.00" fill="#002b36">z</text>
<text text-anchor="middle" x="306.5" y="-67" font-family="Liberation Sans,Helvetica,Arial,sans-serif" font-size="10.00" fill="#002b36">(3 values)</text>
</g>
<!-- increment -->
<g id="node5" class="node">
<title>increment</title>
<path fill="none" stroke="#dc322f" stroke-width="1.5" d="M255,-40C255,-40 196,-40 196,-40 190,-40 184,-34 184,-28 184,-28 184,-12 184,-12 184,-6 190,0 196,0 196,0 255,0 255,0 261,0 267,-6 267,-12 267,-12 267,-28 267,-28 267,-34 261,-40 255,-40"/>
<text text-anchor="start" x="196.5" y="-27.4" font-family="Liberation Sans,Helvetica,Arial,sans-serif" font-weight="bold" font-size="12.00" fill="#002b36">increment</text>
<text text-anchor="start" x="192" y="-17" font-family="Liberation Sans,Helvetica,Arial,sans-serif" font-size="10.00" fill="#002b36">@op:increment</text>
<text text-anchor="start" x="211" y="-7" font-family="Liberation Sans,Helvetica,Arial,sans-serif" font-size="10.00" fill="#dc322f">5 calls</text>
</g>
<!-- x&#45;&gt;increment -->
<g id="edge2" class="edge">
<title>x&#45;&gt;increment</title>
<path fill="none" stroke="#002b36" d="M105.07,-34.78C111.11,-33.8 117.18,-32.85 123,-32 139.42,-29.61 157.39,-27.37 173.58,-25.48"/>
<polygon fill="#002b36" stroke="#002b36" points="174.4,-28.91 183.93,-24.29 173.6,-21.96 174.4,-28.91"/>
<text text-anchor="middle" x="144.5" y="-46" font-family="Liberation Sans,Helvetica,Arial,sans-serif" font-size="10.00" fill="#002b36">x</text>
<text text-anchor="middle" x="144.5" y="-35" font-family="Liberation Sans,Helvetica,Arial,sans-serif" font-size="10.00" fill="#002b36">(5 values)</text>
</g>
<!-- add&#45;&gt;w -->
<g id="edge5" class="edge">
<title>add&#45;&gt;w</title>
<path fill="none" stroke="#002b36" d="M575.17,-45C594.22,-45 620.35,-45 643.79,-45"/>
<polygon fill="#002b36" stroke="#002b36" points="643.98,-48.5 653.98,-45 643.98,-41.5 643.98,-48.5"/>
<text text-anchor="middle" x="614.5" y="-59" font-family="Liberation Sans,Helvetica,Arial,sans-serif" font-size="10.00" fill="#002b36">w</text>
<text text-anchor="middle" x="614.5" y="-48" font-family="Liberation Sans,Helvetica,Arial,sans-serif" font-size="10.00" fill="#002b36">(3 values)</text>
</g>
<!-- increment&#45;&gt;y -->
<g id="edge1" class="edge">
<title>increment&#45;&gt;y</title>
<path fill="none" stroke="#002b36" d="M267.41,-20.49C288,-20.74 313.27,-21.05 335.66,-21.32"/>
<polygon fill="#002b36" stroke="#002b36" points="335.68,-24.82 345.72,-21.44 335.76,-17.82 335.68,-24.82"/>
<text text-anchor="middle" x="306.5" y="-35" font-family="Liberation Sans,Helvetica,Arial,sans-serif" font-size="10.00" fill="#002b36">y</text>
<text text-anchor="middle" x="306.5" y="-24" font-family="Liberation Sans,Helvetica,Arial,sans-serif" font-size="10.00" fill="#002b36">(5 values)</text>
</g>
</g>
</svg>
