<?xml version="1.0" encoding="UTF-8" standalone="no"?>
<!DOCTYPE svg PUBLIC "-//W3C//DTD SVG 1.1//EN"
 "http://www.w3.org/Graphics/SVG/1.1/DTD/svg11.dtd">
<!-- Generated by graphviz version 2.50.0 (0)
 -->
<!-- Title: G Pages: 1 -->
<svg width="719pt" height="910pt"
 viewBox="0.00 0.00 719.15 910.00" xmlns="http://www.w3.org/2000/svg" xmlns:xlink="http://www.w3.org/1999/xlink">
<g id="graph0" class="graph" transform="scale(1 1) rotate(0) translate(4 906)">
<title>G</title>
<polygon fill="white" stroke="transparent" points="-4,4 -4,-906 715.15,-906 715.15,4 -4,4"/>
<!-- accuracy -->
<g id="node1" class="node">
<title>accuracy</title>
<path fill="none" stroke="#268bd2" stroke-width="1.5" d="M539.15,-36C539.15,-36 459.15,-36 459.15,-36 453.15,-36 447.15,-30 447.15,-24 447.15,-24 447.15,-12 447.15,-12 447.15,-6 453.15,0 459.15,0 459.15,0 539.15,0 539.15,0 545.15,0 551.15,-6 551.15,-12 551.15,-12 551.15,-24 551.15,-24 551.15,-30 545.15,-36 539.15,-36"/>
<text text-anchor="start" x="472.65" y="-20.4" font-family="Liberation Sans,Helvetica,Arial,sans-serif" font-weight="bold" font-size="12.00" fill="#002b36">accuracy</text>
<text text-anchor="start" x="455.15" y="-10" font-family="Liberation Sans,Helvetica,Arial,sans-serif" font-size="10.00" fill="#268bd2">14 values (14 sinks)</text>
</g>
<!-- n_estimators -->
<g id="node2" class="node">
<title>n_estimators</title>
<path fill="none" stroke="#268bd2" stroke-width="1.5" d="M116.65,-612C116.65,-612 35.65,-612 35.65,-612 29.65,-612 23.65,-606 23.65,-600 23.65,-600 23.65,-588 23.65,-588 23.65,-582 29.65,-576 35.65,-576 35.65,-576 116.65,-576 116.65,-576 122.65,-576 128.65,-582 128.65,-588 128.65,-588 128.65,-600 128.65,-600 128.65,-606 122.65,-612 116.65,-612"/>
<text text-anchor="start" x="38.65" y="-596.4" font-family="Liberation Sans,Helvetica,Arial,sans-serif" font-weight="bold" font-size="12.00" fill="#002b36">n_estimators</text>
<text text-anchor="start" x="31.65" y="-586" font-family="Liberation Sans,Helvetica,Arial,sans-serif" font-size="10.00" fill="#268bd2">3 values (3 sources)</text>
</g>
<!-- train_random_forest -->
<g id="node21" class="node">
<title>train_random_forest</title>
<path fill="none" stroke="#dc322f" stroke-width="1.5" d="M291.65,-518C291.65,-518 182.65,-518 182.65,-518 176.65,-518 170.65,-512 170.65,-506 170.65,-506 170.65,-490 170.65,-490 170.65,-484 176.65,-478 182.65,-478 182.65,-478 291.65,-478 291.65,-478 297.65,-478 303.65,-484 303.65,-490 303.65,-490 303.65,-506 303.65,-506 303.65,-512 297.65,-518 291.65,-518"/>
<text text-anchor="start" x="178.65" y="-505.4" font-family="Liberation Sans,Helvetica,Arial,sans-serif" font-weight="bold" font-size="12.00" fill="#002b36">train_random_forest</text>
<text text-anchor="start" x="181.65" y="-495" font-family="Liberation Sans,Helvetica,Arial,sans-serif" font-size="10.00" fill="#002b36">@op:train_random_forest</text>
<text text-anchor="start" x="222.65" y="-485" font-family="Liberation Sans,Helvetica,Arial,sans-serif" font-size="10.00" fill="#dc322f">6 calls</text>
</g>
<!-- n_estimators&#45;&gt;train_random_forest -->
<g id="edge22" class="edge">
<title>n_estimators&#45;&gt;train_random_forest</title>
<path fill="none" stroke="#002b36" d="M80.12,-575.91C83.95,-563.15 90.99,-546.22 103.15,-536 119.34,-522.39 140.16,-513.76 160.53,-508.3"/>
<polygon fill="#002b36" stroke="#002b36" points="161.59,-511.64 170.47,-505.86 159.93,-504.84 161.59,-511.64"/>
<text text-anchor="middle" x="131.65" y="-550" font-family="Liberation Sans,Helvetica,Arial,sans-serif" font-size="10.00" fill="#002b36">n_estimators</text>
<text text-anchor="middle" x="131.65" y="-539" font-family="Liberation Sans,Helvetica,Arial,sans-serif" font-size="10.00" fill="#002b36">(3 values)</text>
</g>
<!-- model -->
<g id="node3" class="node">
<title>model</title>
<path fill="none" stroke="#268bd2" stroke-width="1.5" d="M320.65,-420C320.65,-420 285.65,-420 285.65,-420 279.65,-420 273.65,-414 273.65,-408 273.65,-408 273.65,-396 273.65,-396 273.65,-390 279.65,-384 285.65,-384 285.65,-384 320.65,-384 320.65,-384 326.65,-384 332.65,-390 332.65,-396 332.65,-396 332.65,-408 332.65,-408 332.65,-414 326.65,-420 320.65,-420"/>
<text text-anchor="start" x="285.15" y="-404.4" font-family="Liberation Sans,Helvetica,Arial,sans-serif" font-weight="bold" font-size="12.00" fill="#002b36">model</text>
<text text-anchor="start" x="281.65" y="-394" font-family="Liberation Sans,Helvetica,Arial,sans-serif" font-size="10.00" fill="#268bd2">12 values</text>
</g>
<!-- eval_model -->
<g id="node14" class="node">
<title>eval_model</title>
<path fill="none" stroke="#dc322f" stroke-width="1.5" d="M433.15,-326C433.15,-326 367.15,-326 367.15,-326 361.15,-326 355.15,-320 355.15,-314 355.15,-314 355.15,-298 355.15,-298 355.15,-292 361.15,-286 367.15,-286 367.15,-286 433.15,-286 433.15,-286 439.15,-286 445.15,-292 445.15,-298 445.15,-298 445.15,-314 445.15,-314 445.15,-320 439.15,-326 433.15,-326"/>
<text text-anchor="start" x="367.15" y="-313.4" font-family="Liberation Sans,Helvetica,Arial,sans-serif" font-weight="bold" font-size="12.00" fill="#002b36">eval_model</text>
<text text-anchor="start" x="363.15" y="-303" font-family="Liberation Sans,Helvetica,Arial,sans-serif" font-size="10.00" fill="#002b36">@op:eval_model</text>
<text text-anchor="start" x="383.15" y="-293" font-family="Liberation Sans,Helvetica,Arial,sans-serif" font-size="10.00" fill="#dc322f">12 calls</text>
</g>
<!-- model&#45;&gt;eval_model -->
<g id="edge2" class="edge">
<title>model&#45;&gt;eval_model</title>
<path fill="none" stroke="#002b36" d="M319.16,-383.69C329.95,-372.2 344.63,-356.92 358.15,-344 361.92,-340.4 365.95,-336.68 369.97,-333.06"/>
<polygon fill="#002b36" stroke="#002b36" points="372.47,-335.52 377.61,-326.26 367.82,-330.29 372.47,-335.52"/>
<text text-anchor="middle" x="382.65" y="-358" font-family="Liberation Sans,Helvetica,Arial,sans-serif" font-size="10.00" fill="#002b36">model</text>
<text text-anchor="middle" x="382.65" y="-347" font-family="Liberation Sans,Helvetica,Arial,sans-serif" font-size="10.00" fill="#002b36">(12 values)</text>
</g>
<!-- __make_list__ -->
<g id="node17" class="node">
<title>__make_list__</title>
<path fill="none" stroke="#dc322f" stroke-width="1.5" d="M316.15,-326C316.15,-326 236.15,-326 236.15,-326 230.15,-326 224.15,-320 224.15,-314 224.15,-314 224.15,-298 224.15,-298 224.15,-292 230.15,-286 236.15,-286 236.15,-286 316.15,-286 316.15,-286 322.15,-286 328.15,-292 328.15,-298 328.15,-298 328.15,-314 328.15,-314 328.15,-320 322.15,-326 316.15,-326"/>
<text text-anchor="start" x="235.15" y="-313.4" font-family="Liberation Sans,Helvetica,Arial,sans-serif" font-weight="bold" font-size="12.00" fill="#002b36">__make_list__</text>
<text text-anchor="start" x="232.15" y="-303" font-family="Liberation Sans,Helvetica,Arial,sans-serif" font-size="10.00" fill="#002b36">@op:__make_list__</text>
<text text-anchor="start" x="261.65" y="-293" font-family="Liberation Sans,Helvetica,Arial,sans-serif" font-size="10.00" fill="#dc322f">2 calls</text>
</g>
<!-- model&#45;&gt;__make_list__ -->
<g id="edge3" class="edge">
<title>model&#45;&gt;__make_list__</title>
<path fill="none" stroke="#002b36" d="M273.38,-397.87C252.99,-394 227.33,-385.35 214.15,-366 208.64,-357.92 209.32,-352.5 214.15,-344 216.57,-339.73 219.71,-335.9 223.28,-332.47"/>
<polygon fill="#002b36" stroke="#002b36" points="225.64,-335.06 231.14,-326 221.19,-329.66 225.64,-335.06"/>
<text text-anchor="middle" x="238.65" y="-358" font-family="Liberation Sans,Helvetica,Arial,sans-serif" font-size="10.00" fill="#002b36">*elts</text>
<text text-anchor="middle" x="238.65" y="-347" font-family="Liberation Sans,Helvetica,Arial,sans-serif" font-size="10.00" fill="#002b36">(12 values)</text>
</g>
<!-- X -->
<g id="node4" class="node">
<title>X</title>
<path fill="none" stroke="#268bd2" stroke-width="1.5" d="M434.15,-804C434.15,-804 404.15,-804 404.15,-804 398.15,-804 392.15,-798 392.15,-792 392.15,-792 392.15,-780 392.15,-780 392.15,-774 398.15,-768 404.15,-768 404.15,-768 434.15,-768 434.15,-768 440.15,-768 446.15,-774 446.15,-780 446.15,-780 446.15,-792 446.15,-792 446.15,-798 440.15,-804 434.15,-804"/>
<text text-anchor="start" x="414.65" y="-788.4" font-family="Liberation Sans,Helvetica,Arial,sans-serif" font-weight="bold" font-size="12.00" fill="#002b36">X</text>
<text text-anchor="start" x="400.65" y="-778" font-family="Liberation Sans,Helvetica,Arial,sans-serif" font-size="10.00" fill="#268bd2">2 values</text>
</g>
<!-- get_train_test_split -->
<g id="node15" class="node">
<title>get_train_test_split</title>
<path fill="none" stroke="#dc322f" stroke-width="1.5" d="M387.65,-710C387.65,-710 286.65,-710 286.65,-710 280.65,-710 274.65,-704 274.65,-698 274.65,-698 274.65,-682 274.65,-682 274.65,-676 280.65,-670 286.65,-670 286.65,-670 387.65,-670 387.65,-670 393.65,-670 399.65,-676 399.65,-682 399.65,-682 399.65,-698 399.65,-698 399.65,-704 393.65,-710 387.65,-710"/>
<text text-anchor="start" x="282.65" y="-697.4" font-family="Liberation Sans,Helvetica,Arial,sans-serif" font-weight="bold" font-size="12.00" fill="#002b36">get_train_test_split</text>
<text text-anchor="start" x="283.65" y="-687" font-family="Liberation Sans,Helvetica,Arial,sans-serif" font-size="10.00" fill="#002b36">@op:get_train_test_split</text>
<text text-anchor="start" x="322.65" y="-677" font-family="Liberation Sans,Helvetica,Arial,sans-serif" font-size="10.00" fill="#dc322f">2 calls</text>
</g>
<!-- X&#45;&gt;get_train_test_split -->
<g id="edge16" class="edge">
<title>X&#45;&gt;get_train_test_split</title>
<path fill="none" stroke="#002b36" d="M397.53,-767.71C391.32,-762.31 384.72,-756.16 379.15,-750 370.47,-740.41 361.99,-729 354.94,-718.78"/>
<polygon fill="#002b36" stroke="#002b36" points="357.64,-716.52 349.15,-710.18 351.83,-720.43 357.64,-716.52"/>
<text text-anchor="middle" x="400.65" y="-742" font-family="Liberation Sans,Helvetica,Arial,sans-serif" font-size="10.00" fill="#002b36">X</text>
<text text-anchor="middle" x="400.65" y="-731" font-family="Liberation Sans,Helvetica,Arial,sans-serif" font-size="10.00" fill="#002b36">(2 values)</text>
</g>
<!-- scale_data -->
<g id="node20" class="node">
<title>scale_data</title>
<path fill="none" stroke="#dc322f" stroke-width="1.5" d="M497.15,-710C497.15,-710 433.15,-710 433.15,-710 427.15,-710 421.15,-704 421.15,-698 421.15,-698 421.15,-682 421.15,-682 421.15,-676 427.15,-670 433.15,-670 433.15,-670 497.15,-670 497.15,-670 503.15,-670 509.15,-676 509.15,-682 509.15,-682 509.15,-698 509.15,-698 509.15,-704 503.15,-710 497.15,-710"/>
<text text-anchor="start" x="434.15" y="-697.4" font-family="Liberation Sans,Helvetica,Arial,sans-serif" font-weight="bold" font-size="12.00" fill="#002b36">scale_data</text>
<text text-anchor="start" x="429.15" y="-687" font-family="Liberation Sans,Helvetica,Arial,sans-serif" font-size="10.00" fill="#002b36">@op:scale_data</text>
<text text-anchor="start" x="450.65" y="-677" font-family="Liberation Sans,Helvetica,Arial,sans-serif" font-size="10.00" fill="#dc322f">1 calls</text>
</g>
<!-- X&#45;&gt;scale_data -->
<g id="edge15" class="edge">
<title>X&#45;&gt;scale_data</title>
<path fill="none" stroke="#002b36" d="M422.06,-767.86C424.49,-756.18 428.63,-740.6 435.15,-728 436.84,-724.72 438.86,-721.46 441.03,-718.32"/>
<polygon fill="#002b36" stroke="#002b36" points="443.84,-720.41 447.04,-710.31 438.24,-716.21 443.84,-720.41"/>
<text text-anchor="middle" x="456.65" y="-742" font-family="Liberation Sans,Helvetica,Arial,sans-serif" font-size="10.00" fill="#002b36">X</text>
<text text-anchor="middle" x="456.65" y="-731" font-family="Liberation Sans,Helvetica,Arial,sans-serif" font-size="10.00" fill="#002b36">(1 values)</text>
</g>
<!-- X_train -->
<g id="node5" class="node">
<title>X_train</title>
<path fill="none" stroke="#268bd2" stroke-width="1.5" d="M389.65,-612C389.65,-612 356.65,-612 356.65,-612 350.65,-612 344.65,-606 344.65,-600 344.65,-600 344.65,-588 344.65,-588 344.65,-582 350.65,-576 356.65,-576 356.65,-576 389.65,-576 389.65,-576 395.65,-576 401.65,-582 401.65,-588 401.65,-588 401.65,-600 401.65,-600 401.65,-606 395.65,-612 389.65,-612"/>
<text text-anchor="start" x="352.65" y="-596.4" font-family="Liberation Sans,Helvetica,Arial,sans-serif" font-weight="bold" font-size="12.00" fill="#002b36">X_train</text>
<text text-anchor="start" x="354.65" y="-586" font-family="Liberation Sans,Helvetica,Arial,sans-serif" font-size="10.00" fill="#268bd2">2 values</text>
</g>
<!-- train_svc -->
<g id="node18" class="node">
<title>train_svc</title>
<path fill="none" stroke="#dc322f" stroke-width="1.5" d="M463.15,-518C463.15,-518 407.15,-518 407.15,-518 401.15,-518 395.15,-512 395.15,-506 395.15,-506 395.15,-490 395.15,-490 395.15,-484 401.15,-478 407.15,-478 407.15,-478 463.15,-478 463.15,-478 469.15,-478 475.15,-484 475.15,-490 475.15,-490 475.15,-506 475.15,-506 475.15,-512 469.15,-518 463.15,-518"/>
<text text-anchor="start" x="408.65" y="-505.4" font-family="Liberation Sans,Helvetica,Arial,sans-serif" font-weight="bold" font-size="12.00" fill="#002b36">train_svc</text>
<text text-anchor="start" x="403.15" y="-495" font-family="Liberation Sans,Helvetica,Arial,sans-serif" font-size="10.00" fill="#002b36">@op:train_svc</text>
<text text-anchor="start" x="420.65" y="-485" font-family="Liberation Sans,Helvetica,Arial,sans-serif" font-size="10.00" fill="#dc322f">6 calls</text>
</g>
<!-- X_train&#45;&gt;train_svc -->
<g id="edge20" class="edge">
<title>X_train&#45;&gt;train_svc</title>
<path fill="none" stroke="#002b36" d="M396.67,-575.83C402.64,-570.62 408.64,-564.53 413.15,-558 419.39,-548.96 424.12,-537.92 427.57,-527.85"/>
<polygon fill="#002b36" stroke="#002b36" points="430.94,-528.8 430.59,-518.21 424.26,-526.71 430.94,-528.8"/>
<text text-anchor="middle" x="445.65" y="-550" font-family="Liberation Sans,Helvetica,Arial,sans-serif" font-size="10.00" fill="#002b36">X_train</text>
<text text-anchor="middle" x="445.65" y="-539" font-family="Liberation Sans,Helvetica,Arial,sans-serif" font-size="10.00" fill="#002b36">(2 values)</text>
</g>
<!-- X_train&#45;&gt;train_random_forest -->
<g id="edge19" class="edge">
<title>X_train&#45;&gt;train_random_forest</title>
<path fill="none" stroke="#002b36" d="M369.25,-575.84C365.55,-563.21 358.78,-546.49 347.15,-536 337.43,-527.24 325.56,-520.54 313.26,-515.42"/>
<polygon fill="#002b36" stroke="#002b36" points="314.39,-512.11 303.8,-511.81 311.89,-518.65 314.39,-512.11"/>
<text text-anchor="middle" x="383.65" y="-550" font-family="Liberation Sans,Helvetica,Arial,sans-serif" font-size="10.00" fill="#002b36">X_train</text>
<text text-anchor="middle" x="383.65" y="-539" font-family="Liberation Sans,Helvetica,Arial,sans-serif" font-size="10.00" fill="#002b36">(2 values)</text>
</g>
<!-- kernel -->
<g id="node6" class="node">
<title>kernel</title>
<path fill="none" stroke="#268bd2" stroke-width="1.5" d="M635.65,-612C635.65,-612 554.65,-612 554.65,-612 548.65,-612 542.65,-606 542.65,-600 542.65,-600 542.65,-588 542.65,-588 542.65,-582 548.65,-576 554.65,-576 554.65,-576 635.65,-576 635.65,-576 641.65,-576 647.65,-582 647.65,-588 647.65,-588 647.65,-600 647.65,-600 647.65,-606 641.65,-612 635.65,-612"/>
<text text-anchor="start" x="577.15" y="-596.4" font-family="Liberation Sans,Helvetica,Arial,sans-serif" font-weight="bold" font-size="12.00" fill="#002b36">kernel</text>
<text text-anchor="start" x="550.65" y="-586" font-family="Liberation Sans,Helvetica,Arial,sans-serif" font-size="10.00" fill="#268bd2">3 values (3 sources)</text>
</g>
<!-- kernel&#45;&gt;train_svc -->
<g id="edge27" class="edge">
<title>kernel&#45;&gt;train_svc</title>
<path fill="none" stroke="#002b36" d="M578.49,-575.77C565.84,-563.44 547.55,-547.12 529.15,-536 515.48,-527.74 499.65,-520.67 484.91,-515"/>
<polygon fill="#002b36" stroke="#002b36" points="486.01,-511.68 475.42,-511.47 483.58,-518.24 486.01,-511.68"/>
<text text-anchor="middle" x="578.65" y="-550" font-family="Liberation Sans,Helvetica,Arial,sans-serif" font-size="10.00" fill="#002b36">kernel</text>
<text text-anchor="middle" x="578.65" y="-539" font-family="Liberation Sans,Helvetica,Arial,sans-serif" font-size="10.00" fill="#002b36">(3 values)</text>
</g>
<!-- y_train -->
<g id="node7" class="node">
<title>y_train</title>
<path fill="none" stroke="#268bd2" stroke-width="1.5" d="M314.15,-612C314.15,-612 282.15,-612 282.15,-612 276.15,-612 270.15,-606 270.15,-600 270.15,-600 270.15,-588 270.15,-588 270.15,-582 276.15,-576 282.15,-576 282.15,-576 314.15,-576 314.15,-576 320.15,-576 326.15,-582 326.15,-588 326.15,-588 326.15,-600 326.15,-600 326.15,-606 320.15,-612 314.15,-612"/>
<text text-anchor="start" x="278.15" y="-596.4" font-family="Liberation Sans,Helvetica,Arial,sans-serif" font-weight="bold" font-size="12.00" fill="#002b36">y_train</text>
<text text-anchor="start" x="279.65" y="-586" font-family="Liberation Sans,Helvetica,Arial,sans-serif" font-size="10.00" fill="#268bd2">2 values</text>
</g>
<!-- y_train&#45;&gt;train_svc -->
<g id="edge24" class="edge">
<title>y_train&#45;&gt;train_svc</title>
<path fill="none" stroke="#002b36" d="M293.84,-575.98C291.77,-563.59 291.36,-547.11 300.15,-536 310.81,-522.53 350.86,-512.65 384.6,-506.51"/>
<polygon fill="#002b36" stroke="#002b36" points="385.58,-509.89 394.83,-504.72 384.37,-502.99 385.58,-509.89"/>
<text text-anchor="middle" x="321.65" y="-550" font-family="Liberation Sans,Helvetica,Arial,sans-serif" font-size="10.00" fill="#002b36">y_train</text>
<text text-anchor="middle" x="321.65" y="-539" font-family="Liberation Sans,Helvetica,Arial,sans-serif" font-size="10.00" fill="#002b36">(2 values)</text>
</g>
<!-- y_train&#45;&gt;train_random_forest -->
<g id="edge23" class="edge">
<title>y_train&#45;&gt;train_random_forest</title>
<path fill="none" stroke="#002b36" d="M270.09,-579.99C256.35,-573 241.96,-564.5 238.15,-558 232.96,-549.14 231.68,-538.18 232.04,-528.12"/>
<polygon fill="#002b36" stroke="#002b36" points="235.54,-528.35 232.92,-518.08 228.56,-527.74 235.54,-528.35"/>
<text text-anchor="middle" x="259.65" y="-550" font-family="Liberation Sans,Helvetica,Arial,sans-serif" font-size="10.00" fill="#002b36">y_train</text>
<text text-anchor="middle" x="259.65" y="-539" font-family="Liberation Sans,Helvetica,Arial,sans-serif" font-size="10.00" fill="#002b36">(2 values)</text>
</g>
<!-- X_test -->
<g id="node8" class="node">
<title>X_test</title>
<path fill="none" stroke="#268bd2" stroke-width="1.5" d="M195.15,-420C195.15,-420 165.15,-420 165.15,-420 159.15,-420 153.15,-414 153.15,-408 153.15,-408 153.15,-396 153.15,-396 153.15,-390 159.15,-384 165.15,-384 165.15,-384 195.15,-384 195.15,-384 201.15,-384 207.15,-390 207.15,-396 207.15,-396 207.15,-408 207.15,-408 207.15,-414 201.15,-420 195.15,-420"/>
<text text-anchor="start" x="161.65" y="-404.4" font-family="Liberation Sans,Helvetica,Arial,sans-serif" font-weight="bold" font-size="12.00" fill="#002b36">X_test</text>
<text text-anchor="start" x="161.65" y="-394" font-family="Liberation Sans,Helvetica,Arial,sans-serif" font-size="10.00" fill="#268bd2">2 values</text>
</g>
<!-- X_test&#45;&gt;eval_model -->
<g id="edge4" class="edge">
<title>X_test&#45;&gt;eval_model</title>
<path fill="none" stroke="#002b36" d="M207.25,-391.81C223.94,-385.61 245.46,-376.64 263.15,-366 276.41,-358.02 276.59,-351.48 290.15,-344 300.18,-338.47 322.99,-330.55 345.25,-323.46"/>
<polygon fill="#002b36" stroke="#002b36" points="346.57,-326.72 355.06,-320.38 344.47,-320.04 346.57,-326.72"/>
<text text-anchor="middle" x="311.65" y="-358" font-family="Liberation Sans,Helvetica,Arial,sans-serif" font-size="10.00" fill="#002b36">X_test</text>
<text text-anchor="middle" x="311.65" y="-347" font-family="Liberation Sans,Helvetica,Arial,sans-serif" font-size="10.00" fill="#002b36">(2 values)</text>
</g>
<!-- eval_ensemble -->
<g id="node16" class="node">
<title>eval_ensemble</title>
<path fill="none" stroke="#dc322f" stroke-width="1.5" d="M482.15,-134C482.15,-134 400.15,-134 400.15,-134 394.15,-134 388.15,-128 388.15,-122 388.15,-122 388.15,-106 388.15,-106 388.15,-100 394.15,-94 400.15,-94 400.15,-94 482.15,-94 482.15,-94 488.15,-94 494.15,-100 494.15,-106 494.15,-106 494.15,-122 494.15,-122 494.15,-128 488.15,-134 482.15,-134"/>
<text text-anchor="start" x="398.15" y="-121.4" font-family="Liberation Sans,Helvetica,Arial,sans-serif" font-weight="bold" font-size="12.00" fill="#002b36">eval_ensemble</text>
<text text-anchor="start" x="396.15" y="-111" font-family="Liberation Sans,Helvetica,Arial,sans-serif" font-size="10.00" fill="#002b36">@op:eval_ensemble</text>
<text text-anchor="start" x="426.65" y="-101" font-family="Liberation Sans,Helvetica,Arial,sans-serif" font-size="10.00" fill="#dc322f">2 calls</text>
</g>
<!-- X_test&#45;&gt;eval_ensemble -->
<g id="edge5" class="edge">
<title>X_test&#45;&gt;eval_ensemble</title>
<path fill="none" stroke="#002b36" d="M182,-383.96C185.28,-360.17 193.9,-316.47 215.15,-286 261.73,-219.18 342.59,-167.27 393.9,-138.93"/>
<polygon fill="#002b36" stroke="#002b36" points="395.7,-141.93 402.81,-134.08 392.35,-135.78 395.7,-141.93"/>
<text text-anchor="middle" x="268.65" y="-260" font-family="Liberation Sans,Helvetica,Arial,sans-serif" font-size="10.00" fill="#002b36">X_test</text>
<text text-anchor="middle" x="268.65" y="-249" font-family="Liberation Sans,Helvetica,Arial,sans-serif" font-size="10.00" fill="#002b36">(2 values)</text>
</g>
<!-- max_depth -->
<g id="node9" class="node">
<title>max_depth</title>
<path fill="none" stroke="#268bd2" stroke-width="1.5" d="M239.65,-612C239.65,-612 158.65,-612 158.65,-612 152.65,-612 146.65,-606 146.65,-600 146.65,-600 146.65,-588 146.65,-588 146.65,-582 152.65,-576 158.65,-576 158.65,-576 239.65,-576 239.65,-576 245.65,-576 251.65,-582 251.65,-588 251.65,-588 251.65,-600 251.65,-600 251.65,-606 245.65,-612 239.65,-612"/>
<text text-anchor="start" x="167.15" y="-596.4" font-family="Liberation Sans,Helvetica,Arial,sans-serif" font-weight="bold" font-size="12.00" fill="#002b36">max_depth</text>
<text text-anchor="start" x="154.65" y="-586" font-family="Liberation Sans,Helvetica,Arial,sans-serif" font-size="10.00" fill="#268bd2">1 values (1 sources)</text>
</g>
<!-- max_depth&#45;&gt;train_random_forest -->
<g id="edge21" class="edge">
<title>max_depth&#45;&gt;train_random_forest</title>
<path fill="none" stroke="#002b36" d="M178.88,-575.93C167.9,-564.55 158.08,-549.3 166.15,-536 168.76,-531.7 172.05,-527.87 175.78,-524.47"/>
<polygon fill="#002b36" stroke="#002b36" points="178.24,-526.99 183.97,-518.08 173.94,-521.47 178.24,-526.99"/>
<text text-anchor="middle" x="190.65" y="-550" font-family="Liberation Sans,Helvetica,Arial,sans-serif" font-size="10.00" fill="#002b36">max_depth</text>
<text text-anchor="middle" x="190.65" y="-539" font-family="Liberation Sans,Helvetica,Arial,sans-serif" font-size="10.00" fill="#002b36">(1 values)</text>
</g>
<!-- y_test -->
<g id="node10" class="node">
<title>y_test</title>
<path fill="none" stroke="#268bd2" stroke-width="1.5" d="M496.15,-420C496.15,-420 466.15,-420 466.15,-420 460.15,-420 454.15,-414 454.15,-408 454.15,-408 454.15,-396 454.15,-396 454.15,-390 460.15,-384 466.15,-384 466.15,-384 496.15,-384 496.15,-384 502.15,-384 508.15,-390 508.15,-396 508.15,-396 508.15,-408 508.15,-408 508.15,-414 502.15,-420 496.15,-420"/>
<text text-anchor="start" x="463.65" y="-404.4" font-family="Liberation Sans,Helvetica,Arial,sans-serif" font-weight="bold" font-size="12.00" fill="#002b36">y_test</text>
<text text-anchor="start" x="462.65" y="-394" font-family="Liberation Sans,Helvetica,Arial,sans-serif" font-size="10.00" fill="#268bd2">2 values</text>
</g>
<!-- y_test&#45;&gt;eval_model -->
<g id="edge7" class="edge">
<title>y_test&#45;&gt;eval_model</title>
<path fill="none" stroke="#002b36" d="M453.86,-388.86C443.46,-383.15 432.18,-375.48 424.15,-366 416.78,-357.31 411.45,-346.05 407.72,-335.7"/>
<polygon fill="#002b36" stroke="#002b36" points="411.04,-334.6 404.61,-326.18 404.39,-336.77 411.04,-334.6"/>
<text text-anchor="middle" x="445.65" y="-358" font-family="Liberation Sans,Helvetica,Arial,sans-serif" font-size="10.00" fill="#002b36">y_test</text>
<text text-anchor="middle" x="445.65" y="-347" font-family="Liberation Sans,Helvetica,Arial,sans-serif" font-size="10.00" fill="#002b36">(2 values)</text>
</g>
<!-- y_test&#45;&gt;eval_ensemble -->
<g id="edge8" class="edge">
<title>y_test&#45;&gt;eval_ensemble</title>
<path fill="none" stroke="#002b36" d="M482.36,-383.92C484.75,-342.9 487.77,-235.97 462.15,-152 461.25,-149.06 460.09,-146.09 458.77,-143.19"/>
<polygon fill="#002b36" stroke="#002b36" points="461.86,-141.54 454.18,-134.24 455.63,-144.74 461.86,-141.54"/>
<text text-anchor="middle" x="502.65" y="-260" font-family="Liberation Sans,Helvetica,Arial,sans-serif" font-size="10.00" fill="#002b36">y_test</text>
<text text-anchor="middle" x="502.65" y="-249" font-family="Liberation Sans,Helvetica,Arial,sans-serif" font-size="10.00" fill="#002b36">(2 values)</text>
</g>
<!-- y -->
<g id="node11" class="node">
<title>y</title>
<path fill="none" stroke="#268bd2" stroke-width="1.5" d="M347.15,-804C347.15,-804 317.15,-804 317.15,-804 311.15,-804 305.15,-798 305.15,-792 305.15,-792 305.15,-780 305.15,-780 305.15,-774 311.15,-768 317.15,-768 317.15,-768 347.15,-768 347.15,-768 353.15,-768 359.15,-774 359.15,-780 359.15,-780 359.15,-792 359.15,-792 359.15,-798 353.15,-804 347.15,-804"/>
<text text-anchor="start" x="328.65" y="-788.4" font-family="Liberation Sans,Helvetica,Arial,sans-serif" font-weight="bold" font-size="12.00" fill="#002b36">y</text>
<text text-anchor="start" x="313.65" y="-778" font-family="Liberation Sans,Helvetica,Arial,sans-serif" font-size="10.00" fill="#268bd2">1 values</text>
</g>
<!-- y&#45;&gt;get_train_test_split -->
<g id="edge17" class="edge">
<title>y&#45;&gt;get_train_test_split</title>
<path fill="none" stroke="#002b36" d="M313.81,-767.64C309.48,-762.43 305.45,-756.38 303.15,-750 299.83,-740.8 299.6,-737.11 303.15,-728 304.49,-724.55 306.33,-721.22 308.46,-718.07"/>
<polygon fill="#002b36" stroke="#002b36" points="311.21,-720.23 314.63,-710.2 305.7,-715.91 311.21,-720.23"/>
<text text-anchor="middle" x="324.65" y="-742" font-family="Liberation Sans,Helvetica,Arial,sans-serif" font-size="10.00" fill="#002b36">y</text>
<text text-anchor="middle" x="324.65" y="-731" font-family="Liberation Sans,Helvetica,Arial,sans-serif" font-size="10.00" fill="#002b36">(1 values)</text>
</g>
<!-- models -->
<g id="node12" class="node">
<title>models</title>
<path fill="none" stroke="#268bd2" stroke-width="1.5" d="M395.65,-228C395.65,-228 360.65,-228 360.65,-228 354.65,-228 348.65,-222 348.65,-216 348.65,-216 348.65,-204 348.65,-204 348.65,-198 354.65,-192 360.65,-192 360.65,-192 395.65,-192 395.65,-192 401.65,-192 407.65,-198 407.65,-204 407.65,-204 407.65,-216 407.65,-216 407.65,-222 401.65,-228 395.65,-228"/>
<text text-anchor="start" x="356.65" y="-212.4" font-family="Liberation Sans,Helvetica,Arial,sans-serif" font-weight="bold" font-size="12.00" fill="#002b36">models</text>
<text text-anchor="start" x="359.65" y="-202" font-family="Liberation Sans,Helvetica,Arial,sans-serif" font-size="10.00" fill="#268bd2">2 values</text>
</g>
<!-- models&#45;&gt;eval_ensemble -->
<g id="edge9" class="edge">
<title>models&#45;&gt;eval_ensemble</title>
<path fill="none" stroke="#002b36" d="M389.7,-191.76C398.94,-177.99 412.05,-158.42 422.73,-142.49"/>
<polygon fill="#002b36" stroke="#002b36" points="425.71,-144.33 428.37,-134.07 419.89,-140.43 425.71,-144.33"/>
<text text-anchor="middle" x="436.65" y="-166" font-family="Liberation Sans,Helvetica,Arial,sans-serif" font-size="10.00" fill="#002b36">models</text>
<text text-anchor="middle" x="436.65" y="-155" font-family="Liberation Sans,Helvetica,Arial,sans-serif" font-size="10.00" fill="#002b36">(2 values)</text>
</g>
<!-- C -->
<g id="node13" class="node">
<title>C</title>
<path fill="none" stroke="#268bd2" stroke-width="1.5" d="M512.65,-612C512.65,-612 431.65,-612 431.65,-612 425.65,-612 419.65,-606 419.65,-600 419.65,-600 419.65,-588 419.65,-588 419.65,-582 425.65,-576 431.65,-576 431.65,-576 512.65,-576 512.65,-576 518.65,-576 524.65,-582 524.65,-588 524.65,-588 524.65,-600 524.65,-600 524.65,-606 518.65,-612 512.65,-612"/>
<text text-anchor="start" x="467.15" y="-596.4" font-family="Liberation Sans,Helvetica,Arial,sans-serif" font-weight="bold" font-size="12.00" fill="#002b36">C</text>
<text text-anchor="start" x="427.65" y="-586" font-family="Liberation Sans,Helvetica,Arial,sans-serif" font-size="10.00" fill="#268bd2">1 values (1 sources)</text>
</g>
<!-- C&#45;&gt;train_svc -->
<g id="edge26" class="edge">
<title>C&#45;&gt;train_svc</title>
<path fill="none" stroke="#002b36" d="M478.94,-575.78C482.47,-564.06 484.96,-548.47 479.15,-536 477.44,-532.34 475.18,-528.91 472.57,-525.73"/>
<polygon fill="#002b36" stroke="#002b36" points="474.96,-523.17 465.52,-518.36 469.9,-528 474.96,-523.17"/>
<text text-anchor="middle" x="503.65" y="-550" font-family="Liberation Sans,Helvetica,Arial,sans-serif" font-size="10.00" fill="#002b36">C</text>
<text text-anchor="middle" x="503.65" y="-539" font-family="Liberation Sans,Helvetica,Arial,sans-serif" font-size="10.00" fill="#002b36">(1 values)</text>
</g>
<!-- eval_model&#45;&gt;accuracy -->
<g id="edge1" class="edge">
<title>eval_model&#45;&gt;accuracy</title>
<path fill="none" stroke="#002b36" d="M445.27,-304.42C473.1,-301.43 506.87,-292.48 525.15,-268 534.6,-255.34 604.28,-311.04 523.15,-54 522.15,-50.84 520.76,-47.71 519.15,-44.69"/>
<polygon fill="#002b36" stroke="#002b36" points="522.06,-42.74 513.82,-36.09 516.11,-46.43 522.06,-42.74"/>
<text text-anchor="middle" x="579.65" y="-166" font-family="Liberation Sans,Helvetica,Arial,sans-serif" font-size="10.00" fill="#002b36">accuracy</text>
<text text-anchor="middle" x="579.65" y="-155" font-family="Liberation Sans,Helvetica,Arial,sans-serif" font-size="10.00" fill="#002b36">(12 values)</text>
</g>
<!-- get_train_test_split&#45;&gt;X_train -->
<g id="edge13" class="edge">
<title>get_train_test_split&#45;&gt;X_train</title>
<path fill="none" stroke="#002b36" d="M344.43,-669.98C349.76,-656.07 357.05,-637.03 362.96,-621.61"/>
<polygon fill="#002b36" stroke="#002b36" points="366.29,-622.69 366.6,-612.1 359.76,-620.18 366.29,-622.69"/>
<text text-anchor="middle" x="381.65" y="-644" font-family="Liberation Sans,Helvetica,Arial,sans-serif" font-size="10.00" fill="#002b36">X_train</text>
<text text-anchor="middle" x="381.65" y="-633" font-family="Liberation Sans,Helvetica,Arial,sans-serif" font-size="10.00" fill="#002b36">(2 values)</text>
</g>
<!-- get_train_test_split&#45;&gt;y_train -->
<g id="edge14" class="edge">
<title>get_train_test_split&#45;&gt;y_train</title>
<path fill="none" stroke="#002b36" d="M316.81,-669.78C312.27,-664.45 307.97,-658.37 305.15,-652 301.05,-642.76 299.1,-631.91 298.24,-622.16"/>
<polygon fill="#002b36" stroke="#002b36" points="301.73,-621.94 297.68,-612.15 294.74,-622.33 301.73,-621.94"/>
<text text-anchor="middle" x="326.65" y="-644" font-family="Liberation Sans,Helvetica,Arial,sans-serif" font-size="10.00" fill="#002b36">y_train</text>
<text text-anchor="middle" x="326.65" y="-633" font-family="Liberation Sans,Helvetica,Arial,sans-serif" font-size="10.00" fill="#002b36">(2 values)</text>
</g>
<!-- get_train_test_split&#45;&gt;X_test -->
<g id="edge11" class="edge">
<title>get_train_test_split&#45;&gt;X_test</title>
<path fill="none" stroke="#002b36" d="M274.32,-683.13C189.68,-673.76 45.94,-652.27 14.15,-612 -41,-542.16 80.02,-459.48 143.93,-422.53"/>
<polygon fill="#002b36" stroke="#002b36" points="145.95,-425.41 152.91,-417.42 142.49,-419.32 145.95,-425.41"/>
<text text-anchor="middle" x="32.65" y="-550" font-family="Liberation Sans,Helvetica,Arial,sans-serif" font-size="10.00" fill="#002b36">X_test</text>
<text text-anchor="middle" x="32.65" y="-539" font-family="Liberation Sans,Helvetica,Arial,sans-serif" font-size="10.00" fill="#002b36">(2 values)</text>
</g>
<!-- get_train_test_split&#45;&gt;y_test -->
<g id="edge12" class="edge">
<title>get_train_test_split&#45;&gt;y_test</title>
<path fill="none" stroke="#002b36" d="M399.74,-673.06C403.94,-672.02 408.1,-670.99 412.15,-670 520.83,-643.37 587.73,-699.77 657.15,-612 714.2,-539.86 583.89,-457.12 517.29,-421.2"/>
<polygon fill="#002b36" stroke="#002b36" points="518.81,-418.05 508.34,-416.45 515.53,-424.23 518.81,-418.05"/>
<text text-anchor="middle" x="689.65" y="-550" font-family="Liberation Sans,Helvetica,Arial,sans-serif" font-size="10.00" fill="#002b36">y_test</text>
<text text-anchor="middle" x="689.65" y="-539" font-family="Liberation Sans,Helvetica,Arial,sans-serif" font-size="10.00" fill="#002b36">(2 values)</text>
</g>
<!-- eval_ensemble&#45;&gt;accuracy -->
<g id="edge6" class="edge">
<title>eval_ensemble&#45;&gt;accuracy</title>
<path fill="none" stroke="#002b36" d="M452.89,-93.98C461.63,-79.81 473.67,-60.3 483.27,-44.74"/>
<polygon fill="#002b36" stroke="#002b36" points="486.33,-46.45 488.6,-36.1 480.37,-42.77 486.33,-46.45"/>
<text text-anchor="middle" x="497.65" y="-68" font-family="Liberation Sans,Helvetica,Arial,sans-serif" font-size="10.00" fill="#002b36">accuracy</text>
<text text-anchor="middle" x="497.65" y="-57" font-family="Liberation Sans,Helvetica,Arial,sans-serif" font-size="10.00" fill="#002b36">(2 values)</text>
</g>
<!-- __make_list__&#45;&gt;models -->
<g id="edge10" class="edge">
<title>__make_list__&#45;&gt;models</title>
<path fill="none" stroke="#002b36" d="M296.79,-285.98C312.74,-271.28 334.92,-250.83 352.1,-235.01"/>
<polygon fill="#002b36" stroke="#002b36" points="354.61,-237.45 359.6,-228.1 349.87,-232.3 354.61,-237.45"/>
<text text-anchor="middle" x="361.65" y="-260" font-family="Liberation Sans,Helvetica,Arial,sans-serif" font-size="10.00" fill="#002b36">list</text>
<text text-anchor="middle" x="361.65" y="-249" font-family="Liberation Sans,Helvetica,Arial,sans-serif" font-size="10.00" fill="#002b36">(2 values)</text>
</g>
<!-- train_svc&#45;&gt;model -->
<g id="edge25" class="edge">
<title>train_svc&#45;&gt;model</title>
<path fill="none" stroke="#002b36" d="M408.44,-477.98C387.33,-462.95 357.79,-441.91 335.37,-425.95"/>
<polygon fill="#002b36" stroke="#002b36" points="337.33,-423.05 327.16,-420.1 333.27,-428.75 337.33,-423.05"/>
<text text-anchor="middle" x="404.15" y="-452" font-family="Liberation Sans,Helvetica,Arial,sans-serif" font-size="10.00" fill="#002b36">svc_model</text>
<text text-anchor="middle" x="404.15" y="-441" font-family="Liberation Sans,Helvetica,Arial,sans-serif" font-size="10.00" fill="#002b36">(6 values)</text>
</g>
<!-- get_data -->
<g id="node19" class="node">
<title>get_data</title>
<path fill="none" stroke="#dc322f" stroke-width="1.5" d="M395.15,-902C395.15,-902 341.15,-902 341.15,-902 335.15,-902 329.15,-896 329.15,-890 329.15,-890 329.15,-874 329.15,-874 329.15,-868 335.15,-862 341.15,-862 341.15,-862 395.15,-862 395.15,-862 401.15,-862 407.15,-868 407.15,-874 407.15,-874 407.15,-890 407.15,-890 407.15,-896 401.15,-902 395.15,-902"/>
<text text-anchor="start" x="343.15" y="-889.4" font-family="Liberation Sans,Helvetica,Arial,sans-serif" font-weight="bold" font-size="12.00" fill="#002b36">get_data</text>
<text text-anchor="start" x="337.15" y="-879" font-family="Liberation Sans,Helvetica,Arial,sans-serif" font-size="10.00" fill="#002b36">@op:get_data</text>
<text text-anchor="start" x="353.65" y="-869" font-family="Liberation Sans,Helvetica,Arial,sans-serif" font-size="10.00" fill="#dc322f">1 calls</text>
</g>
<!-- get_data&#45;&gt;X -->
<g id="edge28" class="edge">
<title>get_data&#45;&gt;X</title>
<path fill="none" stroke="#002b36" d="M378.47,-861.98C386.09,-847.94 396.54,-828.66 404.95,-813.17"/>
<polygon fill="#002b36" stroke="#002b36" points="408.18,-814.56 409.87,-804.1 402.03,-811.22 408.18,-814.56"/>
<text text-anchor="middle" x="420.65" y="-836" font-family="Liberation Sans,Helvetica,Arial,sans-serif" font-size="10.00" fill="#002b36">X</text>
<text text-anchor="middle" x="420.65" y="-825" font-family="Liberation Sans,Helvetica,Arial,sans-serif" font-size="10.00" fill="#002b36">(1 values)</text>
</g>
<!-- get_data&#45;&gt;y -->
<g id="edge29" class="edge">
<title>get_data&#45;&gt;y</title>
<path fill="none" stroke="#002b36" d="M348.3,-861.76C343.9,-856.43 339.78,-850.35 337.15,-844 333.34,-834.8 331.75,-824.06 331.22,-814.4"/>
<polygon fill="#002b36" stroke="#002b36" points="334.71,-814.02 331.01,-804.09 327.71,-814.16 334.71,-814.02"/>
<text text-anchor="middle" x="358.65" y="-836" font-family="Liberation Sans,Helvetica,Arial,sans-serif" font-size="10.00" fill="#002b36">y</text>
<text text-anchor="middle" x="358.65" y="-825" font-family="Liberation Sans,Helvetica,Arial,sans-serif" font-size="10.00" fill="#002b36">(1 values)</text>
</g>
<!-- scale_data&#45;&gt;X -->
<g id="edge30" class="edge">
<title>scale_data&#45;&gt;X</title>
<path fill="none" stroke="#002b36" d="M475.93,-710.11C481.22,-722.19 485.1,-737.79 478.15,-750 472.98,-759.08 464.42,-766.05 455.4,-771.29"/>
<polygon fill="#002b36" stroke="#002b36" points="453.63,-768.26 446.34,-775.96 456.83,-774.49 453.63,-768.26"/>
<text text-anchor="middle" x="502.65" y="-742" font-family="Liberation Sans,Helvetica,Arial,sans-serif" font-size="10.00" fill="#002b36">X_scaled</text>
<text text-anchor="middle" x="502.65" y="-731" font-family="Liberation Sans,Helvetica,Arial,sans-serif" font-size="10.00" fill="#002b36">(1 values)</text>
</g>
<!-- train_random_forest&#45;&gt;model -->
<g id="edge18" class="edge">
<title>train_random_forest&#45;&gt;model</title>
<path fill="none" stroke="#002b36" d="M250.5,-477.98C260.55,-463.67 274.41,-443.94 285.38,-428.3"/>
<polygon fill="#002b36" stroke="#002b36" points="288.26,-430.29 291.14,-420.1 282.53,-426.27 288.26,-430.29"/>
<text text-anchor="middle" x="299.65" y="-452" font-family="Liberation Sans,Helvetica,Arial,sans-serif" font-size="10.00" fill="#002b36">rf_model</text>
<text text-anchor="middle" x="299.65" y="-441" font-family="Liberation Sans,Helvetica,Arial,sans-serif" font-size="10.00" fill="#002b36">(6 values)</text>
</g>
</g>
</svg>
