<?xml version="1.0" encoding="UTF-8" standalone="no"?>
<!DOCTYPE svg PUBLIC "-//W3C//DTD SVG 1.1//EN"
 "http://www.w3.org/Graphics/SVG/1.1/DTD/svg11.dtd">
<!-- Generated by graphviz version 2.50.0 (0)
 -->
<!-- Title: G Pages: 1 -->
<svg width="798pt" height="746pt"
 viewBox="0.00 0.00 797.50 746.00" xmlns="http://www.w3.org/2000/svg" xmlns:xlink="http://www.w3.org/1999/xlink">
<g id="graph0" class="graph" transform="scale(1 1) rotate(0) translate(4 742)">
<title>G</title>
<polygon fill="white" stroke="transparent" points="-4,4 -4,-742 793.5,-742 793.5,4 -4,4"/>
<!-- X -->
<g id="node1" class="node">
<title>X</title>
<path fill="none" stroke="#268bd2" stroke-width="1.5" d="M566.5,-640C566.5,-640 536.5,-640 536.5,-640 530.5,-640 524.5,-634 524.5,-628 524.5,-628 524.5,-616 524.5,-616 524.5,-610 530.5,-604 536.5,-604 536.5,-604 566.5,-604 566.5,-604 572.5,-604 578.5,-610 578.5,-616 578.5,-616 578.5,-628 578.5,-628 578.5,-634 572.5,-640 566.5,-640"/>
<text text-anchor="start" x="547" y="-624.4" font-family="Liberation Sans,Helvetica,Arial,sans-serif" font-weight="bold" font-size="12.00" fill="#002b36">X</text>
<text text-anchor="start" x="533" y="-614" font-family="Liberation Sans,Helvetica,Arial,sans-serif" font-size="10.00" fill="#268bd2">2 values</text>
</g>
<!-- scale_data -->
<g id="node14" class="node">
<title>scale_data</title>
<path fill="none" stroke="#dc322f" stroke-width="1.5" d="M522.5,-546C522.5,-546 458.5,-546 458.5,-546 452.5,-546 446.5,-540 446.5,-534 446.5,-534 446.5,-518 446.5,-518 446.5,-512 452.5,-506 458.5,-506 458.5,-506 522.5,-506 522.5,-506 528.5,-506 534.5,-512 534.5,-518 534.5,-518 534.5,-534 534.5,-534 534.5,-540 528.5,-546 522.5,-546"/>
<text text-anchor="start" x="459.5" y="-533.4" font-family="Liberation Sans,Helvetica,Arial,sans-serif" font-weight="bold" font-size="12.00" fill="#002b36">scale_data</text>
<text text-anchor="start" x="454.5" y="-523" font-family="Liberation Sans,Helvetica,Arial,sans-serif" font-size="10.00" fill="#002b36">@op:scale_data</text>
<text text-anchor="start" x="476" y="-513" font-family="Liberation Sans,Helvetica,Arial,sans-serif" font-size="10.00" fill="#dc322f">1 calls</text>
</g>
<!-- X&#45;&gt;scale_data -->
<g id="edge9" class="edge">
<title>X&#45;&gt;scale_data</title>
<path fill="none" stroke="#002b36" d="M536.05,-603.72C531.45,-598.23 526.57,-592.01 522.5,-586 515.97,-576.34 509.66,-565.22 504.39,-555.26"/>
<polygon fill="#002b36" stroke="#002b36" points="507.38,-553.43 499.69,-546.15 501.16,-556.64 507.38,-553.43"/>
<text text-anchor="middle" x="544" y="-578" font-family="Liberation Sans,Helvetica,Arial,sans-serif" font-size="10.00" fill="#002b36">X</text>
<text text-anchor="middle" x="544" y="-567" font-family="Liberation Sans,Helvetica,Arial,sans-serif" font-size="10.00" fill="#002b36">(1 values)</text>
</g>
<!-- get_train_test_split -->
<g id="node18" class="node">
<title>get_train_test_split</title>
<path fill="none" stroke="#dc322f" stroke-width="1.5" d="M669,-546C669,-546 568,-546 568,-546 562,-546 556,-540 556,-534 556,-534 556,-518 556,-518 556,-512 562,-506 568,-506 568,-506 669,-506 669,-506 675,-506 681,-512 681,-518 681,-518 681,-534 681,-534 681,-540 675,-546 669,-546"/>
<text text-anchor="start" x="564" y="-533.4" font-family="Liberation Sans,Helvetica,Arial,sans-serif" font-weight="bold" font-size="12.00" fill="#002b36">get_train_test_split</text>
<text text-anchor="start" x="565" y="-523" font-family="Liberation Sans,Helvetica,Arial,sans-serif" font-size="10.00" fill="#002b36">@op:get_train_test_split</text>
<text text-anchor="start" x="604" y="-513" font-family="Liberation Sans,Helvetica,Arial,sans-serif" font-size="10.00" fill="#dc322f">2 calls</text>
</g>
<!-- X&#45;&gt;get_train_test_split -->
<g id="edge10" class="edge">
<title>X&#45;&gt;get_train_test_split</title>
<path fill="none" stroke="#002b36" d="M560.11,-603.94C566.29,-592.28 575.15,-576.71 584.5,-564 587,-560.6 589.77,-557.16 592.62,-553.83"/>
<polygon fill="#002b36" stroke="#002b36" points="595.29,-556.08 599.31,-546.28 590.06,-551.44 595.29,-556.08"/>
<text text-anchor="middle" x="606" y="-578" font-family="Liberation Sans,Helvetica,Arial,sans-serif" font-size="10.00" fill="#002b36">X</text>
<text text-anchor="middle" x="606" y="-567" font-family="Liberation Sans,Helvetica,Arial,sans-serif" font-size="10.00" fill="#002b36">(2 values)</text>
</g>
<!-- y -->
<g id="node2" class="node">
<title>y</title>
<path fill="none" stroke="#268bd2" stroke-width="1.5" d="M653.5,-640C653.5,-640 623.5,-640 623.5,-640 617.5,-640 611.5,-634 611.5,-628 611.5,-628 611.5,-616 611.5,-616 611.5,-610 617.5,-604 623.5,-604 623.5,-604 653.5,-604 653.5,-604 659.5,-604 665.5,-610 665.5,-616 665.5,-616 665.5,-628 665.5,-628 665.5,-634 659.5,-640 653.5,-640"/>
<text text-anchor="start" x="635" y="-624.4" font-family="Liberation Sans,Helvetica,Arial,sans-serif" font-weight="bold" font-size="12.00" fill="#002b36">y</text>
<text text-anchor="start" x="620" y="-614" font-family="Liberation Sans,Helvetica,Arial,sans-serif" font-size="10.00" fill="#268bd2">1 values</text>
</g>
<!-- y&#45;&gt;get_train_test_split -->
<g id="edge11" class="edge">
<title>y&#45;&gt;get_train_test_split</title>
<path fill="none" stroke="#002b36" d="M637.37,-603.87C636.37,-592.46 634.59,-577.2 631.5,-564 630.88,-561.36 630.14,-558.64 629.33,-555.93"/>
<polygon fill="#002b36" stroke="#002b36" points="632.63,-554.76 626.18,-546.35 625.98,-556.95 632.63,-554.76"/>
<text text-anchor="middle" x="656" y="-578" font-family="Liberation Sans,Helvetica,Arial,sans-serif" font-size="10.00" fill="#002b36">y</text>
<text text-anchor="middle" x="656" y="-567" font-family="Liberation Sans,Helvetica,Arial,sans-serif" font-size="10.00" fill="#002b36">(1 values)</text>
</g>
<!-- model -->
<g id="node3" class="node">
<title>model</title>
<path fill="none" stroke="#268bd2" stroke-width="1.5" d="M501.5,-228C501.5,-228 471.5,-228 471.5,-228 465.5,-228 459.5,-222 459.5,-216 459.5,-216 459.5,-204 459.5,-204 459.5,-198 465.5,-192 471.5,-192 471.5,-192 501.5,-192 501.5,-192 507.5,-192 513.5,-198 513.5,-204 513.5,-204 513.5,-216 513.5,-216 513.5,-222 507.5,-228 501.5,-228"/>
<text text-anchor="start" x="468.5" y="-212.4" font-family="Liberation Sans,Helvetica,Arial,sans-serif" font-weight="bold" font-size="12.00" fill="#002b36">model</text>
<text text-anchor="start" x="468" y="-202" font-family="Liberation Sans,Helvetica,Arial,sans-serif" font-size="10.00" fill="#268bd2">4 values</text>
</g>
<!-- eval_model -->
<g id="node15" class="node">
<title>eval_model</title>
<path fill="none" stroke="#dc322f" stroke-width="1.5" d="M710.5,-134C710.5,-134 644.5,-134 644.5,-134 638.5,-134 632.5,-128 632.5,-122 632.5,-122 632.5,-106 632.5,-106 632.5,-100 638.5,-94 644.5,-94 644.5,-94 710.5,-94 710.5,-94 716.5,-94 722.5,-100 722.5,-106 722.5,-106 722.5,-122 722.5,-122 722.5,-128 716.5,-134 710.5,-134"/>
<text text-anchor="start" x="644.5" y="-121.4" font-family="Liberation Sans,Helvetica,Arial,sans-serif" font-weight="bold" font-size="12.00" fill="#002b36">eval_model</text>
<text text-anchor="start" x="640.5" y="-111" font-family="Liberation Sans,Helvetica,Arial,sans-serif" font-size="10.00" fill="#002b36">@op:eval_model</text>
<text text-anchor="start" x="663" y="-101" font-family="Liberation Sans,Helvetica,Arial,sans-serif" font-size="10.00" fill="#dc322f">4 calls</text>
</g>
<!-- model&#45;&gt;eval_model -->
<g id="edge3" class="edge">
<title>model&#45;&gt;eval_model</title>
<path fill="none" stroke="#002b36" d="M513.87,-195.53C544.01,-180.7 593.05,-156.56 629.6,-138.57"/>
<polygon fill="#002b36" stroke="#002b36" points="631.18,-141.7 638.6,-134.14 628.08,-135.42 631.18,-141.7"/>
<text text-anchor="middle" x="621" y="-166" font-family="Liberation Sans,Helvetica,Arial,sans-serif" font-size="10.00" fill="#002b36">model</text>
<text text-anchor="middle" x="621" y="-155" font-family="Liberation Sans,Helvetica,Arial,sans-serif" font-size="10.00" fill="#002b36">(4 values)</text>
</g>
<!-- C -->
<g id="node4" class="node">
<title>C</title>
<path fill="none" stroke="#268bd2" stroke-width="1.5" d="M531,-448C531,-448 450,-448 450,-448 444,-448 438,-442 438,-436 438,-436 438,-424 438,-424 438,-418 444,-412 450,-412 450,-412 531,-412 531,-412 537,-412 543,-418 543,-424 543,-424 543,-436 543,-436 543,-442 537,-448 531,-448"/>
<text text-anchor="start" x="485.5" y="-432.4" font-family="Liberation Sans,Helvetica,Arial,sans-serif" font-weight="bold" font-size="12.00" fill="#002b36">C</text>
<text text-anchor="start" x="446" y="-422" font-family="Liberation Sans,Helvetica,Arial,sans-serif" font-size="10.00" fill="#268bd2">1 values (1 sources)</text>
</g>
<!-- train_svc -->
<g id="node13" class="node">
<title>train_svc</title>
<path fill="none" stroke="#dc322f" stroke-width="1.5" d="M514.5,-340C514.5,-340 458.5,-340 458.5,-340 452.5,-340 446.5,-334 446.5,-328 446.5,-328 446.5,-312 446.5,-312 446.5,-306 452.5,-300 458.5,-300 458.5,-300 514.5,-300 514.5,-300 520.5,-300 526.5,-306 526.5,-312 526.5,-312 526.5,-328 526.5,-328 526.5,-334 520.5,-340 514.5,-340"/>
<text text-anchor="start" x="460" y="-327.4" font-family="Liberation Sans,Helvetica,Arial,sans-serif" font-weight="bold" font-size="12.00" fill="#002b36">train_svc</text>
<text text-anchor="start" x="454.5" y="-317" font-family="Liberation Sans,Helvetica,Arial,sans-serif" font-size="10.00" fill="#002b36">@op:train_svc</text>
<text text-anchor="start" x="472" y="-307" font-family="Liberation Sans,Helvetica,Arial,sans-serif" font-size="10.00" fill="#dc322f">2 calls</text>
</g>
<!-- C&#45;&gt;train_svc -->
<g id="edge20" class="edge">
<title>C&#45;&gt;train_svc</title>
<path fill="none" stroke="#002b36" d="M494.67,-411.66C495.83,-406.06 496.93,-399.8 497.5,-394 499.08,-378.08 499.8,-373.83 497.5,-358 497.13,-355.45 496.62,-352.82 496.02,-350.21"/>
<polygon fill="#002b36" stroke="#002b36" points="499.35,-349.11 493.4,-340.35 492.59,-350.91 499.35,-349.11"/>
<text text-anchor="middle" x="521" y="-379" font-family="Liberation Sans,Helvetica,Arial,sans-serif" font-size="10.00" fill="#002b36">C</text>
<text text-anchor="middle" x="521" y="-368" font-family="Liberation Sans,Helvetica,Arial,sans-serif" font-size="10.00" fill="#002b36">(1 values)</text>
</g>
<!-- X_train -->
<g id="node5" class="node">
<title>X_train</title>
<path fill="none" stroke="#268bd2" stroke-width="1.5" d="M408,-448C408,-448 375,-448 375,-448 369,-448 363,-442 363,-436 363,-436 363,-424 363,-424 363,-418 369,-412 375,-412 375,-412 408,-412 408,-412 414,-412 420,-418 420,-424 420,-424 420,-436 420,-436 420,-442 414,-448 408,-448"/>
<text text-anchor="start" x="371" y="-432.4" font-family="Liberation Sans,Helvetica,Arial,sans-serif" font-weight="bold" font-size="12.00" fill="#002b36">X_train</text>
<text text-anchor="start" x="373" y="-422" font-family="Liberation Sans,Helvetica,Arial,sans-serif" font-size="10.00" fill="#268bd2">2 values</text>
</g>
<!-- X_train&#45;&gt;train_svc -->
<g id="edge13" class="edge">
<title>X_train&#45;&gt;train_svc</title>
<path fill="none" stroke="#002b36" d="M414.06,-411.8C420.17,-406.5 426.47,-400.37 431.5,-394 442.72,-379.81 439.86,-372.63 450.5,-358 453.05,-354.49 455.92,-350.99 458.9,-347.62"/>
<polygon fill="#002b36" stroke="#002b36" points="461.71,-349.74 465.95,-340.03 456.58,-344.97 461.71,-349.74"/>
<text text-anchor="middle" x="472" y="-379" font-family="Liberation Sans,Helvetica,Arial,sans-serif" font-size="10.00" fill="#002b36">X_train</text>
<text text-anchor="middle" x="472" y="-368" font-family="Liberation Sans,Helvetica,Arial,sans-serif" font-size="10.00" fill="#002b36">(2 values)</text>
</g>
<!-- train_random_forest -->
<g id="node17" class="node">
<title>train_random_forest</title>
<path fill="none" stroke="#dc322f" stroke-width="1.5" d="M310,-340C310,-340 201,-340 201,-340 195,-340 189,-334 189,-328 189,-328 189,-312 189,-312 189,-306 195,-300 201,-300 201,-300 310,-300 310,-300 316,-300 322,-306 322,-312 322,-312 322,-328 322,-328 322,-334 316,-340 310,-340"/>
<text text-anchor="start" x="197" y="-327.4" font-family="Liberation Sans,Helvetica,Arial,sans-serif" font-weight="bold" font-size="12.00" fill="#002b36">train_random_forest</text>
<text text-anchor="start" x="200" y="-317" font-family="Liberation Sans,Helvetica,Arial,sans-serif" font-size="10.00" fill="#002b36">@op:train_random_forest</text>
<text text-anchor="start" x="241" y="-307" font-family="Liberation Sans,Helvetica,Arial,sans-serif" font-size="10.00" fill="#dc322f">2 calls</text>
</g>
<!-- X_train&#45;&gt;train_random_forest -->
<g id="edge14" class="edge">
<title>X_train&#45;&gt;train_random_forest</title>
<path fill="none" stroke="#002b36" d="M362.88,-416.34C346.94,-408.93 329.02,-399.91 322.5,-394 308.43,-381.26 312.02,-372.27 299.5,-358 296.13,-354.16 292.35,-350.38 288.46,-346.78"/>
<polygon fill="#002b36" stroke="#002b36" points="290.73,-344.11 280.91,-340.13 286.1,-349.37 290.73,-344.11"/>
<text text-anchor="middle" x="344" y="-379" font-family="Liberation Sans,Helvetica,Arial,sans-serif" font-size="10.00" fill="#002b36">X_train</text>
<text text-anchor="middle" x="344" y="-368" font-family="Liberation Sans,Helvetica,Arial,sans-serif" font-size="10.00" fill="#002b36">(2 values)</text>
</g>
<!-- X_test -->
<g id="node6" class="node">
<title>X_test</title>
<path fill="none" stroke="#268bd2" stroke-width="1.5" d="M706.5,-394C706.5,-394 676.5,-394 676.5,-394 670.5,-394 664.5,-388 664.5,-382 664.5,-382 664.5,-370 664.5,-370 664.5,-364 670.5,-358 676.5,-358 676.5,-358 706.5,-358 706.5,-358 712.5,-358 718.5,-364 718.5,-370 718.5,-370 718.5,-382 718.5,-382 718.5,-388 712.5,-394 706.5,-394"/>
<text text-anchor="start" x="673" y="-378.4" font-family="Liberation Sans,Helvetica,Arial,sans-serif" font-weight="bold" font-size="12.00" fill="#002b36">X_test</text>
<text text-anchor="start" x="673" y="-368" font-family="Liberation Sans,Helvetica,Arial,sans-serif" font-size="10.00" fill="#268bd2">2 values</text>
</g>
<!-- X_test&#45;&gt;eval_model -->
<g id="edge2" class="edge">
<title>X_test&#45;&gt;eval_model</title>
<path fill="none" stroke="#002b36" d="M687.11,-357.66C682.66,-339.09 676.06,-308.68 673.5,-282 668.88,-233.81 671.99,-177.46 674.71,-144.08"/>
<polygon fill="#002b36" stroke="#002b36" points="678.2,-144.35 675.57,-134.09 671.22,-143.75 678.2,-144.35"/>
<text text-anchor="middle" x="695" y="-267" font-family="Liberation Sans,Helvetica,Arial,sans-serif" font-size="10.00" fill="#002b36">X_test</text>
<text text-anchor="middle" x="695" y="-256" font-family="Liberation Sans,Helvetica,Arial,sans-serif" font-size="10.00" fill="#002b36">(2 values)</text>
</g>
<!-- y_test -->
<g id="node7" class="node">
<title>y_test</title>
<path fill="none" stroke="#268bd2" stroke-width="1.5" d="M767.5,-282C767.5,-282 737.5,-282 737.5,-282 731.5,-282 725.5,-276 725.5,-270 725.5,-270 725.5,-258 725.5,-258 725.5,-252 731.5,-246 737.5,-246 737.5,-246 767.5,-246 767.5,-246 773.5,-246 779.5,-252 779.5,-258 779.5,-258 779.5,-270 779.5,-270 779.5,-276 773.5,-282 767.5,-282"/>
<text text-anchor="start" x="735" y="-266.4" font-family="Liberation Sans,Helvetica,Arial,sans-serif" font-weight="bold" font-size="12.00" fill="#002b36">y_test</text>
<text text-anchor="start" x="734" y="-256" font-family="Liberation Sans,Helvetica,Arial,sans-serif" font-size="10.00" fill="#268bd2">2 values</text>
</g>
<!-- y_test&#45;&gt;eval_model -->
<g id="edge4" class="edge">
<title>y_test&#45;&gt;eval_model</title>
<path fill="none" stroke="#002b36" d="M743.75,-245.73C730.99,-220.55 707.13,-173.46 691.79,-143.2"/>
<polygon fill="#002b36" stroke="#002b36" points="694.78,-141.36 687.14,-134.02 688.54,-144.52 694.78,-141.36"/>
<text text-anchor="middle" x="755" y="-213" font-family="Liberation Sans,Helvetica,Arial,sans-serif" font-size="10.00" fill="#002b36">y_test</text>
<text text-anchor="middle" x="755" y="-202" font-family="Liberation Sans,Helvetica,Arial,sans-serif" font-size="10.00" fill="#002b36">(2 values)</text>
</g>
<!-- n_estimators -->
<g id="node8" class="node">
<title>n_estimators</title>
<path fill="none" stroke="#268bd2" stroke-width="1.5" d="M216,-448C216,-448 135,-448 135,-448 129,-448 123,-442 123,-436 123,-436 123,-424 123,-424 123,-418 129,-412 135,-412 135,-412 216,-412 216,-412 222,-412 228,-418 228,-424 228,-424 228,-436 228,-436 228,-442 222,-448 216,-448"/>
<text text-anchor="start" x="138" y="-432.4" font-family="Liberation Sans,Helvetica,Arial,sans-serif" font-weight="bold" font-size="12.00" fill="#002b36">n_estimators</text>
<text text-anchor="start" x="131" y="-422" font-family="Liberation Sans,Helvetica,Arial,sans-serif" font-size="10.00" fill="#268bd2">1 values (1 sources)</text>
</g>
<!-- n_estimators&#45;&gt;train_random_forest -->
<g id="edge16" class="edge">
<title>n_estimators&#45;&gt;train_random_forest</title>
<path fill="none" stroke="#002b36" d="M174.68,-411.93C174.78,-396.47 177.16,-373.77 188.5,-358 191.7,-353.55 195.61,-349.57 199.92,-346.03"/>
<polygon fill="#002b36" stroke="#002b36" points="202.01,-348.84 208.03,-340.13 197.88,-343.18 202.01,-348.84"/>
<text text-anchor="middle" x="217" y="-379" font-family="Liberation Sans,Helvetica,Arial,sans-serif" font-size="10.00" fill="#002b36">n_estimators</text>
<text text-anchor="middle" x="217" y="-368" font-family="Liberation Sans,Helvetica,Arial,sans-serif" font-size="10.00" fill="#002b36">(1 values)</text>
</g>
<!-- accuracy -->
<g id="node9" class="node">
<title>accuracy</title>
<path fill="none" stroke="#268bd2" stroke-width="1.5" d="M712.5,-36C712.5,-36 642.5,-36 642.5,-36 636.5,-36 630.5,-30 630.5,-24 630.5,-24 630.5,-12 630.5,-12 630.5,-6 636.5,0 642.5,0 642.5,0 712.5,0 712.5,0 718.5,0 724.5,-6 724.5,-12 724.5,-12 724.5,-24 724.5,-24 724.5,-30 718.5,-36 712.5,-36"/>
<text text-anchor="start" x="651" y="-20.4" font-family="Liberation Sans,Helvetica,Arial,sans-serif" font-weight="bold" font-size="12.00" fill="#002b36">accuracy</text>
<text text-anchor="start" x="638.5" y="-10" font-family="Liberation Sans,Helvetica,Arial,sans-serif" font-size="10.00" fill="#268bd2">4 values (4 sinks)</text>
</g>
<!-- y_train -->
<g id="node10" class="node">
<title>y_train</title>
<path fill="none" stroke="#268bd2" stroke-width="1.5" d="M332.5,-448C332.5,-448 300.5,-448 300.5,-448 294.5,-448 288.5,-442 288.5,-436 288.5,-436 288.5,-424 288.5,-424 288.5,-418 294.5,-412 300.5,-412 300.5,-412 332.5,-412 332.5,-412 338.5,-412 344.5,-418 344.5,-424 344.5,-424 344.5,-436 344.5,-436 344.5,-442 338.5,-448 332.5,-448"/>
<text text-anchor="start" x="296.5" y="-432.4" font-family="Liberation Sans,Helvetica,Arial,sans-serif" font-weight="bold" font-size="12.00" fill="#002b36">y_train</text>
<text text-anchor="start" x="298" y="-422" font-family="Liberation Sans,Helvetica,Arial,sans-serif" font-size="10.00" fill="#268bd2">2 values</text>
</g>
<!-- y_train&#45;&gt;train_svc -->
<g id="edge17" class="edge">
<title>y_train&#45;&gt;train_svc</title>
<path fill="none" stroke="#002b36" d="M344.55,-412.33C351.94,-407.09 359.52,-400.85 365.5,-394 377.4,-380.38 370.86,-369.88 384.5,-358 399.12,-345.26 418.48,-336.79 436.39,-331.21"/>
<polygon fill="#002b36" stroke="#002b36" points="437.52,-334.52 446.16,-328.39 435.58,-327.8 437.52,-334.52"/>
<text text-anchor="middle" x="406" y="-379" font-family="Liberation Sans,Helvetica,Arial,sans-serif" font-size="10.00" fill="#002b36">y_train</text>
<text text-anchor="middle" x="406" y="-368" font-family="Liberation Sans,Helvetica,Arial,sans-serif" font-size="10.00" fill="#002b36">(2 values)</text>
</g>
<!-- y_train&#45;&gt;train_random_forest -->
<g id="edge18" class="edge">
<title>y_train&#45;&gt;train_random_forest</title>
<path fill="none" stroke="#002b36" d="M288.31,-419.74C276.31,-414.26 263.49,-405.98 256.5,-394 248.92,-381 248.15,-364.36 249.51,-350.25"/>
<polygon fill="#002b36" stroke="#002b36" points="253.02,-350.43 250.89,-340.05 246.08,-349.49 253.02,-350.43"/>
<text text-anchor="middle" x="278" y="-379" font-family="Liberation Sans,Helvetica,Arial,sans-serif" font-size="10.00" fill="#002b36">y_train</text>
<text text-anchor="middle" x="278" y="-368" font-family="Liberation Sans,Helvetica,Arial,sans-serif" font-size="10.00" fill="#002b36">(2 values)</text>
</g>
<!-- max_depth -->
<g id="node11" class="node">
<title>max_depth</title>
<path fill="none" stroke="#268bd2" stroke-width="1.5" d="M93,-448C93,-448 12,-448 12,-448 6,-448 0,-442 0,-436 0,-436 0,-424 0,-424 0,-418 6,-412 12,-412 12,-412 93,-412 93,-412 99,-412 105,-418 105,-424 105,-424 105,-436 105,-436 105,-442 99,-448 93,-448"/>
<text text-anchor="start" x="20.5" y="-432.4" font-family="Liberation Sans,Helvetica,Arial,sans-serif" font-weight="bold" font-size="12.00" fill="#002b36">max_depth</text>
<text text-anchor="start" x="8" y="-422" font-family="Liberation Sans,Helvetica,Arial,sans-serif" font-size="10.00" fill="#268bd2">1 values (1 sources)</text>
</g>
<!-- max_depth&#45;&gt;train_random_forest -->
<g id="edge15" class="edge">
<title>max_depth&#45;&gt;train_random_forest</title>
<path fill="none" stroke="#002b36" d="M65.3,-411.87C78.25,-395.69 99.73,-371.91 123.5,-358 140.38,-348.12 160.03,-340.78 178.92,-335.35"/>
<polygon fill="#002b36" stroke="#002b36" points="179.98,-338.69 188.71,-332.69 178.15,-331.93 179.98,-338.69"/>
<text text-anchor="middle" x="148" y="-379" font-family="Liberation Sans,Helvetica,Arial,sans-serif" font-size="10.00" fill="#002b36">max_depth</text>
<text text-anchor="middle" x="148" y="-368" font-family="Liberation Sans,Helvetica,Arial,sans-serif" font-size="10.00" fill="#002b36">(1 values)</text>
</g>
<!-- kernel -->
<g id="node12" class="node">
<title>kernel</title>
<path fill="none" stroke="#268bd2" stroke-width="1.5" d="M654,-448C654,-448 573,-448 573,-448 567,-448 561,-442 561,-436 561,-436 561,-424 561,-424 561,-418 567,-412 573,-412 573,-412 654,-412 654,-412 660,-412 666,-418 666,-424 666,-424 666,-436 666,-436 666,-442 660,-448 654,-448"/>
<text text-anchor="start" x="595.5" y="-432.4" font-family="Liberation Sans,Helvetica,Arial,sans-serif" font-weight="bold" font-size="12.00" fill="#002b36">kernel</text>
<text text-anchor="start" x="569" y="-422" font-family="Liberation Sans,Helvetica,Arial,sans-serif" font-size="10.00" fill="#268bd2">1 values (1 sources)</text>
</g>
<!-- kernel&#45;&gt;train_svc -->
<g id="edge21" class="edge">
<title>kernel&#45;&gt;train_svc</title>
<path fill="none" stroke="#002b36" d="M599.45,-411.72C586.61,-396.54 566.61,-374.38 546.5,-358 541.21,-353.69 535.37,-349.5 529.49,-345.59"/>
<polygon fill="#002b36" stroke="#002b36" points="531.19,-342.52 520.88,-340.07 527.41,-348.41 531.19,-342.52"/>
<text text-anchor="middle" x="605" y="-379" font-family="Liberation Sans,Helvetica,Arial,sans-serif" font-size="10.00" fill="#002b36">kernel</text>
<text text-anchor="middle" x="605" y="-368" font-family="Liberation Sans,Helvetica,Arial,sans-serif" font-size="10.00" fill="#002b36">(1 values)</text>
</g>
<!-- train_svc&#45;&gt;model -->
<g id="edge19" class="edge">
<title>train_svc&#45;&gt;model</title>
<path fill="none" stroke="#002b36" d="M486.5,-299.94C486.5,-282.85 486.5,-257.58 486.5,-238.34"/>
<polygon fill="#002b36" stroke="#002b36" points="490,-238.09 486.5,-228.09 483,-238.09 490,-238.09"/>
<text text-anchor="middle" x="510.5" y="-267" font-family="Liberation Sans,Helvetica,Arial,sans-serif" font-size="10.00" fill="#002b36">svc_model</text>
<text text-anchor="middle" x="510.5" y="-256" font-family="Liberation Sans,Helvetica,Arial,sans-serif" font-size="10.00" fill="#002b36">(2 values)</text>
</g>
<!-- scale_data&#45;&gt;X -->
<g id="edge24" class="edge">
<title>scale_data&#45;&gt;X</title>
<path fill="none" stroke="#002b36" d="M471.97,-546.19C462.7,-558.16 455.09,-573.6 463.5,-586 474.87,-602.76 495.68,-611.5 514.2,-616.05"/>
<polygon fill="#002b36" stroke="#002b36" points="513.68,-619.51 524.19,-618.17 515.13,-612.67 513.68,-619.51"/>
<text text-anchor="middle" x="485" y="-578" font-family="Liberation Sans,Helvetica,Arial,sans-serif" font-size="10.00" fill="#002b36">X_scaled</text>
<text text-anchor="middle" x="485" y="-567" font-family="Liberation Sans,Helvetica,Arial,sans-serif" font-size="10.00" fill="#002b36">(1 values)</text>
</g>
<!-- eval_model&#45;&gt;accuracy -->
<g id="edge1" class="edge">
<title>eval_model&#45;&gt;accuracy</title>
<path fill="none" stroke="#002b36" d="M677.5,-93.98C677.5,-80.34 677.5,-61.75 677.5,-46.5"/>
<polygon fill="#002b36" stroke="#002b36" points="681,-46.1 677.5,-36.1 674,-46.1 681,-46.1"/>
<text text-anchor="middle" x="699" y="-68" font-family="Liberation Sans,Helvetica,Arial,sans-serif" font-size="10.00" fill="#002b36">accuracy</text>
<text text-anchor="middle" x="699" y="-57" font-family="Liberation Sans,Helvetica,Arial,sans-serif" font-size="10.00" fill="#002b36">(4 values)</text>
</g>
<!-- get_data -->
<g id="node16" class="node">
<title>get_data</title>
<path fill="none" stroke="#dc322f" stroke-width="1.5" d="M614.5,-738C614.5,-738 560.5,-738 560.5,-738 554.5,-738 548.5,-732 548.5,-726 548.5,-726 548.5,-710 548.5,-710 548.5,-704 554.5,-698 560.5,-698 560.5,-698 614.5,-698 614.5,-698 620.5,-698 626.5,-704 626.5,-710 626.5,-710 626.5,-726 626.5,-726 626.5,-732 620.5,-738 614.5,-738"/>
<text text-anchor="start" x="562.5" y="-725.4" font-family="Liberation Sans,Helvetica,Arial,sans-serif" font-weight="bold" font-size="12.00" fill="#002b36">get_data</text>
<text text-anchor="start" x="556.5" y="-715" font-family="Liberation Sans,Helvetica,Arial,sans-serif" font-size="10.00" fill="#002b36">@op:get_data</text>
<text text-anchor="start" x="573" y="-705" font-family="Liberation Sans,Helvetica,Arial,sans-serif" font-size="10.00" fill="#dc322f">1 calls</text>
</g>
<!-- get_data&#45;&gt;X -->
<g id="edge22" class="edge">
<title>get_data&#45;&gt;X</title>
<path fill="none" stroke="#002b36" d="M567.65,-697.76C563.25,-692.43 559.13,-686.35 556.5,-680 552.69,-670.8 551.1,-660.06 550.57,-650.4"/>
<polygon fill="#002b36" stroke="#002b36" points="554.06,-650.02 550.37,-640.09 547.07,-650.16 554.06,-650.02"/>
<text text-anchor="middle" x="578" y="-672" font-family="Liberation Sans,Helvetica,Arial,sans-serif" font-size="10.00" fill="#002b36">X</text>
<text text-anchor="middle" x="578" y="-661" font-family="Liberation Sans,Helvetica,Arial,sans-serif" font-size="10.00" fill="#002b36">(1 values)</text>
</g>
<!-- get_data&#45;&gt;y -->
<g id="edge23" class="edge">
<title>get_data&#45;&gt;y</title>
<path fill="none" stroke="#002b36" d="M597.82,-697.98C605.44,-683.94 615.89,-664.66 624.3,-649.17"/>
<polygon fill="#002b36" stroke="#002b36" points="627.53,-650.56 629.22,-640.1 621.38,-647.22 627.53,-650.56"/>
<text text-anchor="middle" x="640" y="-672" font-family="Liberation Sans,Helvetica,Arial,sans-serif" font-size="10.00" fill="#002b36">y</text>
<text text-anchor="middle" x="640" y="-661" font-family="Liberation Sans,Helvetica,Arial,sans-serif" font-size="10.00" fill="#002b36">(1 values)</text>
</g>
<!-- train_random_forest&#45;&gt;model -->
<g id="edge12" class="edge">
<title>train_random_forest&#45;&gt;model</title>
<path fill="none" stroke="#002b36" d="M296.27,-299.94C339.89,-279.55 408.43,-247.5 450.23,-227.96"/>
<polygon fill="#002b36" stroke="#002b36" points="451.91,-231.03 459.49,-223.63 448.95,-224.69 451.91,-231.03"/>
<text text-anchor="middle" x="427" y="-267" font-family="Liberation Sans,Helvetica,Arial,sans-serif" font-size="10.00" fill="#002b36">rf_model</text>
<text text-anchor="middle" x="427" y="-256" font-family="Liberation Sans,Helvetica,Arial,sans-serif" font-size="10.00" fill="#002b36">(2 values)</text>
</g>
<!-- get_train_test_split&#45;&gt;X_train -->
<g id="edge7" class="edge">
<title>get_train_test_split&#45;&gt;X_train</title>
<path fill="none" stroke="#002b36" d="M569.83,-505.98C533.4,-491.59 482.18,-471.01 429.31,-448.28"/>
<polygon fill="#002b36" stroke="#002b36" points="430.69,-445.06 420.13,-444.31 427.92,-451.49 430.69,-445.06"/>
<text text-anchor="middle" x="544" y="-480" font-family="Liberation Sans,Helvetica,Arial,sans-serif" font-size="10.00" fill="#002b36">X_train</text>
<text text-anchor="middle" x="544" y="-469" font-family="Liberation Sans,Helvetica,Arial,sans-serif" font-size="10.00" fill="#002b36">(2 values)</text>
</g>
<!-- get_train_test_split&#45;&gt;X_test -->
<g id="edge5" class="edge">
<title>get_train_test_split&#45;&gt;X_test</title>
<path fill="none" stroke="#002b36" d="M636.22,-505.88C648.97,-491.12 665.6,-469.62 675.5,-448 681.77,-434.31 685.67,-417.99 688.05,-404.44"/>
<polygon fill="#002b36" stroke="#002b36" points="691.55,-404.7 689.64,-394.28 684.63,-403.62 691.55,-404.7"/>
<text text-anchor="middle" x="687" y="-480" font-family="Liberation Sans,Helvetica,Arial,sans-serif" font-size="10.00" fill="#002b36">X_test</text>
<text text-anchor="middle" x="687" y="-469" font-family="Liberation Sans,Helvetica,Arial,sans-serif" font-size="10.00" fill="#002b36">(2 values)</text>
</g>
<!-- get_train_test_split&#45;&gt;y_test -->
<g id="edge6" class="edge">
<title>get_train_test_split&#45;&gt;y_test</title>
<path fill="none" stroke="#002b36" d="M681,-510.71C692.95,-505.36 704.27,-498.04 712.5,-488 759.25,-430.97 758.98,-337.88 755.48,-292.12"/>
<polygon fill="#002b36" stroke="#002b36" points="758.96,-291.73 754.61,-282.08 751.99,-292.34 758.96,-291.73"/>
<text text-anchor="middle" x="768" y="-433" font-family="Liberation Sans,Helvetica,Arial,sans-serif" font-size="10.00" fill="#002b36">y_test</text>
<text text-anchor="middle" x="768" y="-422" font-family="Liberation Sans,Helvetica,Arial,sans-serif" font-size="10.00" fill="#002b36">(2 values)</text>
</g>
<!-- get_train_test_split&#45;&gt;y_train -->
<g id="edge8" class="edge">
<title>get_train_test_split&#45;&gt;y_train</title>
<path fill="none" stroke="#002b36" d="M555.99,-508.7C551.77,-507.74 547.58,-506.83 543.5,-506 492.82,-495.64 477.72,-503.93 428.5,-488 401.98,-479.42 374.04,-465.21 352.7,-453.12"/>
<polygon fill="#002b36" stroke="#002b36" points="354.39,-450.06 343.98,-448.09 350.89,-456.12 354.39,-450.06"/>
<text text-anchor="middle" x="450" y="-480" font-family="Liberation Sans,Helvetica,Arial,sans-serif" font-size="10.00" fill="#002b36">y_train</text>
<text text-anchor="middle" x="450" y="-469" font-family="Liberation Sans,Helvetica,Arial,sans-serif" font-size="10.00" fill="#002b36">(2 values)</text>
</g>
</g>
</svg>
