<?xml version="1.0" encoding="UTF-8" standalone="no"?>
<!DOCTYPE svg PUBLIC "-//W3C//DTD SVG 1.1//EN"
 "http://www.w3.org/Graphics/SVG/1.1/DTD/svg11.dtd">
<!-- Generated by graphviz version 2.50.0 (0)
 -->
<!-- Title: G Pages: 1 -->
<svg width="438pt" height="334pt"
 viewBox="0.00 0.00 438.00 334.00" xmlns="http://www.w3.org/2000/svg" xmlns:xlink="http://www.w3.org/1999/xlink">
<g id="graph0" class="graph" transform="scale(1 1) rotate(0) translate(4 330)">
<title>G</title>
<polygon fill="white" stroke="transparent" points="-4,4 -4,-330 434,-330 434,4 -4,4"/>
<!-- y_test -->
<g id="node1" class="node">
<title>y_test</title>
<path fill="none" stroke="#268bd2" stroke-width="1.5" d="M82,-36C82,-36 12,-36 12,-36 6,-36 0,-30 0,-24 0,-24 0,-12 0,-12 0,-6 6,0 12,0 12,0 82,0 82,0 88,0 94,-6 94,-12 94,-12 94,-24 94,-24 94,-30 88,-36 82,-36"/>
<text text-anchor="start" x="29.5" y="-20.4" font-family="Liberation Sans,Helvetica,Arial,sans-serif" font-weight="bold" font-size="12.00" fill="#002b36">y_test</text>
<text text-anchor="start" x="8" y="-10" font-family="Liberation Sans,Helvetica,Arial,sans-serif" font-size="10.00" fill="#268bd2">2 values (2 sinks)</text>
</g>
<!-- y_train -->
<g id="node2" class="node">
<title>y_train</title>
<path fill="none" stroke="#268bd2" stroke-width="1.5" d="M194,-36C194,-36 124,-36 124,-36 118,-36 112,-30 112,-24 112,-24 112,-12 112,-12 112,-6 118,0 124,0 124,0 194,0 194,0 200,0 206,-6 206,-12 206,-12 206,-24 206,-24 206,-30 200,-36 194,-36"/>
<text text-anchor="start" x="139" y="-20.4" font-family="Liberation Sans,Helvetica,Arial,sans-serif" font-weight="bold" font-size="12.00" fill="#002b36">y_train</text>
<text text-anchor="start" x="120" y="-10" font-family="Liberation Sans,Helvetica,Arial,sans-serif" font-size="10.00" fill="#268bd2">2 values (2 sinks)</text>
</g>
<!-- X_test -->
<g id="node3" class="node">
<title>X_test</title>
<path fill="none" stroke="#268bd2" stroke-width="1.5" d="M306,-36C306,-36 236,-36 236,-36 230,-36 224,-30 224,-24 224,-24 224,-12 224,-12 224,-6 230,0 236,0 236,0 306,0 306,0 312,0 318,-6 318,-12 318,-12 318,-24 318,-24 318,-30 312,-36 306,-36"/>
<text text-anchor="start" x="252.5" y="-20.4" font-family="Liberation Sans,Helvetica,Arial,sans-serif" font-weight="bold" font-size="12.00" fill="#002b36">X_test</text>
<text text-anchor="start" x="232" y="-10" font-family="Liberation Sans,Helvetica,Arial,sans-serif" font-size="10.00" fill="#268bd2">2 values (2 sinks)</text>
</g>
<!-- y -->
<g id="node4" class="node">
<title>y</title>
<path fill="none" stroke="#268bd2" stroke-width="1.5" d="M225,-228C225,-228 195,-228 195,-228 189,-228 183,-222 183,-216 183,-216 183,-204 183,-204 183,-198 189,-192 195,-192 195,-192 225,-192 225,-192 231,-192 237,-198 237,-204 237,-204 237,-216 237,-216 237,-222 231,-228 225,-228"/>
<text text-anchor="start" x="206.5" y="-212.4" font-family="Liberation Sans,Helvetica,Arial,sans-serif" font-weight="bold" font-size="12.00" fill="#002b36">y</text>
<text text-anchor="start" x="191.5" y="-202" font-family="Liberation Sans,Helvetica,Arial,sans-serif" font-size="10.00" fill="#268bd2">1 values</text>
</g>
<!-- get_train_test_split -->
<g id="node7" class="node">
<title>get_train_test_split</title>
<path fill="none" stroke="#dc322f" stroke-width="1.5" d="M265.5,-134C265.5,-134 164.5,-134 164.5,-134 158.5,-134 152.5,-128 152.5,-122 152.5,-122 152.5,-106 152.5,-106 152.5,-100 158.5,-94 164.5,-94 164.5,-94 265.5,-94 265.5,-94 271.5,-94 277.5,-100 277.5,-106 277.5,-106 277.5,-122 277.5,-122 277.5,-128 271.5,-134 265.5,-134"/>
<text text-anchor="start" x="160.5" y="-121.4" font-family="Liberation Sans,Helvetica,Arial,sans-serif" font-weight="bold" font-size="12.00" fill="#002b36">get_train_test_split</text>
<text text-anchor="start" x="161.5" y="-111" font-family="Liberation Sans,Helvetica,Arial,sans-serif" font-size="10.00" fill="#002b36">@op:get_train_test_split</text>
<text text-anchor="start" x="200.5" y="-101" font-family="Liberation Sans,Helvetica,Arial,sans-serif" font-size="10.00" fill="#dc322f">2 calls</text>
</g>
<!-- y&#45;&gt;get_train_test_split -->
<g id="edge7" class="edge">
<title>y&#45;&gt;get_train_test_split</title>
<path fill="none" stroke="#002b36" d="M191.66,-191.64C187.33,-186.43 183.3,-180.38 181,-174 177.68,-164.8 177.45,-161.11 181,-152 182.35,-148.55 184.18,-145.22 186.31,-142.07"/>
<polygon fill="#002b36" stroke="#002b36" points="189.07,-144.23 192.48,-134.2 183.56,-139.91 189.07,-144.23"/>
<text text-anchor="middle" x="202.5" y="-166" font-family="Liberation Sans,Helvetica,Arial,sans-serif" font-size="10.00" fill="#002b36">y</text>
<text text-anchor="middle" x="202.5" y="-155" font-family="Liberation Sans,Helvetica,Arial,sans-serif" font-size="10.00" fill="#002b36">(1 values)</text>
</g>
<!-- X -->
<g id="node5" class="node">
<title>X</title>
<path fill="none" stroke="#268bd2" stroke-width="1.5" d="M312,-228C312,-228 282,-228 282,-228 276,-228 270,-222 270,-216 270,-216 270,-204 270,-204 270,-198 276,-192 282,-192 282,-192 312,-192 312,-192 318,-192 324,-198 324,-204 324,-204 324,-216 324,-216 324,-222 318,-228 312,-228"/>
<text text-anchor="start" x="292.5" y="-212.4" font-family="Liberation Sans,Helvetica,Arial,sans-serif" font-weight="bold" font-size="12.00" fill="#002b36">X</text>
<text text-anchor="start" x="278.5" y="-202" font-family="Liberation Sans,Helvetica,Arial,sans-serif" font-size="10.00" fill="#268bd2">2 values</text>
</g>
<!-- X&#45;&gt;get_train_test_split -->
<g id="edge5" class="edge">
<title>X&#45;&gt;get_train_test_split</title>
<path fill="none" stroke="#002b36" d="M276.4,-191.96C270.22,-186.48 263.61,-180.21 258,-174 249.17,-164.23 240.43,-152.67 233.15,-142.38"/>
<polygon fill="#002b36" stroke="#002b36" points="235.99,-140.33 227.42,-134.11 230.24,-144.32 235.99,-140.33"/>
<text text-anchor="middle" x="279.5" y="-166" font-family="Liberation Sans,Helvetica,Arial,sans-serif" font-size="10.00" fill="#002b36">X</text>
<text text-anchor="middle" x="279.5" y="-155" font-family="Liberation Sans,Helvetica,Arial,sans-serif" font-size="10.00" fill="#002b36">(2 values)</text>
</g>
<!-- scale_data -->
<g id="node8" class="node">
<title>scale_data</title>
<path fill="none" stroke="#dc322f" stroke-width="1.5" d="M375,-134C375,-134 311,-134 311,-134 305,-134 299,-128 299,-122 299,-122 299,-106 299,-106 299,-100 305,-94 311,-94 311,-94 375,-94 375,-94 381,-94 387,-100 387,-106 387,-106 387,-122 387,-122 387,-128 381,-134 375,-134"/>
<text text-anchor="start" x="312" y="-121.4" font-family="Liberation Sans,Helvetica,Arial,sans-serif" font-weight="bold" font-size="12.00" fill="#002b36">scale_data</text>
<text text-anchor="start" x="307" y="-111" font-family="Liberation Sans,Helvetica,Arial,sans-serif" font-size="10.00" fill="#002b36">@op:scale_data</text>
<text text-anchor="start" x="328.5" y="-101" font-family="Liberation Sans,Helvetica,Arial,sans-serif" font-size="10.00" fill="#dc322f">1 calls</text>
</g>
<!-- X&#45;&gt;scale_data -->
<g id="edge6" class="edge">
<title>X&#45;&gt;scale_data</title>
<path fill="none" stroke="#002b36" d="M299.91,-191.86C302.34,-180.18 306.48,-164.6 313,-152 314.7,-148.72 316.71,-145.46 318.89,-142.32"/>
<polygon fill="#002b36" stroke="#002b36" points="321.69,-144.41 324.89,-134.31 316.09,-140.21 321.69,-144.41"/>
<text text-anchor="middle" x="334.5" y="-166" font-family="Liberation Sans,Helvetica,Arial,sans-serif" font-size="10.00" fill="#002b36">X</text>
<text text-anchor="middle" x="334.5" y="-155" font-family="Liberation Sans,Helvetica,Arial,sans-serif" font-size="10.00" fill="#002b36">(1 values)</text>
</g>
<!-- X_train -->
<g id="node6" class="node">
<title>X_train</title>
<path fill="none" stroke="#268bd2" stroke-width="1.5" d="M418,-36C418,-36 348,-36 348,-36 342,-36 336,-30 336,-24 336,-24 336,-12 336,-12 336,-6 342,0 348,0 348,0 418,0 418,0 424,0 430,-6 430,-12 430,-12 430,-24 430,-24 430,-30 424,-36 418,-36"/>
<text text-anchor="start" x="362.5" y="-20.4" font-family="Liberation Sans,Helvetica,Arial,sans-serif" font-weight="bold" font-size="12.00" fill="#002b36">X_train</text>
<text text-anchor="start" x="344" y="-10" font-family="Liberation Sans,Helvetica,Arial,sans-serif" font-size="10.00" fill="#268bd2">2 values (2 sinks)</text>
</g>
<!-- get_train_test_split&#45;&gt;y_test -->
<g id="edge3" class="edge">
<title>get_train_test_split&#45;&gt;y_test</title>
<path fill="none" stroke="#002b36" d="M168.22,-93.83C156.21,-88.45 143.46,-82.34 132,-76 113.63,-65.85 94.12,-52.93 78.42,-41.96"/>
<polygon fill="#002b36" stroke="#002b36" points="80.32,-39.01 70.13,-36.09 76.28,-44.72 80.32,-39.01"/>
<text text-anchor="middle" x="153.5" y="-68" font-family="Liberation Sans,Helvetica,Arial,sans-serif" font-size="10.00" fill="#002b36">y_test</text>
<text text-anchor="middle" x="153.5" y="-57" font-family="Liberation Sans,Helvetica,Arial,sans-serif" font-size="10.00" fill="#002b36">(2 values)</text>
</g>
<!-- get_train_test_split&#45;&gt;y_train -->
<g id="edge4" class="edge">
<title>get_train_test_split&#45;&gt;y_train</title>
<path fill="none" stroke="#002b36" d="M202.31,-93.94C198.59,-88.22 194.56,-81.9 191,-76 184.95,-65.99 178.59,-54.8 173.14,-45"/>
<polygon fill="#002b36" stroke="#002b36" points="176.14,-43.19 168.24,-36.12 170.01,-46.57 176.14,-43.19"/>
<text text-anchor="middle" x="212.5" y="-68" font-family="Liberation Sans,Helvetica,Arial,sans-serif" font-size="10.00" fill="#002b36">y_train</text>
<text text-anchor="middle" x="212.5" y="-57" font-family="Liberation Sans,Helvetica,Arial,sans-serif" font-size="10.00" fill="#002b36">(2 values)</text>
</g>
<!-- get_train_test_split&#45;&gt;X_test -->
<g id="edge1" class="edge">
<title>get_train_test_split&#45;&gt;X_test</title>
<path fill="none" stroke="#002b36" d="M226.33,-93.98C234.77,-79.81 246.4,-60.3 255.67,-44.74"/>
<polygon fill="#002b36" stroke="#002b36" points="258.7,-46.48 260.81,-36.1 252.69,-42.9 258.7,-46.48"/>
<text text-anchor="middle" x="271.5" y="-68" font-family="Liberation Sans,Helvetica,Arial,sans-serif" font-size="10.00" fill="#002b36">X_test</text>
<text text-anchor="middle" x="271.5" y="-57" font-family="Liberation Sans,Helvetica,Arial,sans-serif" font-size="10.00" fill="#002b36">(2 values)</text>
</g>
<!-- get_train_test_split&#45;&gt;X_train -->
<g id="edge2" class="edge">
<title>get_train_test_split&#45;&gt;X_train</title>
<path fill="none" stroke="#002b36" d="M260.76,-93.93C272.74,-88.51 285.52,-82.34 297,-76 315.52,-65.77 335.26,-52.85 351.15,-41.89"/>
<polygon fill="#002b36" stroke="#002b36" points="353.35,-44.63 359.55,-36.04 349.35,-38.88 353.35,-44.63"/>
<text text-anchor="middle" x="352.5" y="-68" font-family="Liberation Sans,Helvetica,Arial,sans-serif" font-size="10.00" fill="#002b36">X_train</text>
<text text-anchor="middle" x="352.5" y="-57" font-family="Liberation Sans,Helvetica,Arial,sans-serif" font-size="10.00" fill="#002b36">(2 values)</text>
</g>
<!-- scale_data&#45;&gt;X -->
<g id="edge10" class="edge">
<title>scale_data&#45;&gt;X</title>
<path fill="none" stroke="#002b36" d="M353.78,-134.11C359.07,-146.19 362.96,-161.79 356,-174 350.83,-183.08 342.27,-190.05 333.25,-195.29"/>
<polygon fill="#002b36" stroke="#002b36" points="331.48,-192.26 324.19,-199.96 334.69,-198.49 331.48,-192.26"/>
<text text-anchor="middle" x="380.5" y="-166" font-family="Liberation Sans,Helvetica,Arial,sans-serif" font-size="10.00" fill="#002b36">X_scaled</text>
<text text-anchor="middle" x="380.5" y="-155" font-family="Liberation Sans,Helvetica,Arial,sans-serif" font-size="10.00" fill="#002b36">(1 values)</text>
</g>
<!-- get_data -->
<g id="node9" class="node">
<title>get_data</title>
<path fill="none" stroke="#dc322f" stroke-width="1.5" d="M273,-326C273,-326 219,-326 219,-326 213,-326 207,-320 207,-314 207,-314 207,-298 207,-298 207,-292 213,-286 219,-286 219,-286 273,-286 273,-286 279,-286 285,-292 285,-298 285,-298 285,-314 285,-314 285,-320 279,-326 273,-326"/>
<text text-anchor="start" x="221" y="-313.4" font-family="Liberation Sans,Helvetica,Arial,sans-serif" font-weight="bold" font-size="12.00" fill="#002b36">get_data</text>
<text text-anchor="start" x="215" y="-303" font-family="Liberation Sans,Helvetica,Arial,sans-serif" font-size="10.00" fill="#002b36">@op:get_data</text>
<text text-anchor="start" x="231.5" y="-293" font-family="Liberation Sans,Helvetica,Arial,sans-serif" font-size="10.00" fill="#dc322f">1 calls</text>
</g>
<!-- get_data&#45;&gt;y -->
<g id="edge9" class="edge">
<title>get_data&#45;&gt;y</title>
<path fill="none" stroke="#002b36" d="M226.15,-285.76C221.75,-280.43 217.63,-274.35 215,-268 211.19,-258.8 209.6,-248.06 209.07,-238.4"/>
<polygon fill="#002b36" stroke="#002b36" points="212.56,-238.02 208.87,-228.09 205.57,-238.16 212.56,-238.02"/>
<text text-anchor="middle" x="236.5" y="-260" font-family="Liberation Sans,Helvetica,Arial,sans-serif" font-size="10.00" fill="#002b36">y</text>
<text text-anchor="middle" x="236.5" y="-249" font-family="Liberation Sans,Helvetica,Arial,sans-serif" font-size="10.00" fill="#002b36">(1 values)</text>
</g>
<!-- get_data&#45;&gt;X -->
<g id="edge8" class="edge">
<title>get_data&#45;&gt;X</title>
<path fill="none" stroke="#002b36" d="M256.32,-285.98C263.94,-271.94 274.39,-252.66 282.8,-237.17"/>
<polygon fill="#002b36" stroke="#002b36" points="286.03,-238.56 287.72,-228.1 279.88,-235.22 286.03,-238.56"/>
<text text-anchor="middle" x="299.5" y="-260" font-family="Liberation Sans,Helvetica,Arial,sans-serif" font-size="10.00" fill="#002b36">X</text>
<text text-anchor="middle" x="299.5" y="-249" font-family="Liberation Sans,Helvetica,Arial,sans-serif" font-size="10.00" fill="#002b36">(1 values)</text>
</g>
</g>
</svg>
