<?xml version="1.0" encoding="UTF-8" standalone="no"?>
<!DOCTYPE svg PUBLIC "-//W3C//DTD SVG 1.1//EN"
 "http://www.w3.org/Graphics/SVG/1.1/DTD/svg11.dtd">
<!-- Generated by graphviz version 2.50.0 (0)
 -->
<!-- Title: G Pages: 1 -->
<svg width="386pt" height="620pt"
 viewBox="0.00 0.00 385.50 620.00" xmlns="http://www.w3.org/2000/svg" xmlns:xlink="http://www.w3.org/1999/xlink">
<g id="graph0" class="graph" transform="scale(1 1) rotate(0) translate(4 616)">
<title>G</title>
<polygon fill="white" stroke="transparent" points="-4,4 -4,-616 381.5,-616 381.5,4 -4,4"/>
<!-- eval_acc -->
<g id="node1" class="node">
<title>eval_acc</title>
<path fill="none" stroke="#268bd2" d="M147,-36C147,-36 77,-36 77,-36 71,-36 65,-30 65,-24 65,-24 65,-12 65,-12 65,-6 71,0 77,0 77,0 147,0 147,0 153,0 159,-6 159,-12 159,-12 159,-24 159,-24 159,-30 153,-36 147,-36"/>
<text text-anchor="start" x="86.5" y="-20.4" font-family="Liberation Sans,Helvetica,Arial,sans-serif" font-weight="bold" font-size="12.00" fill="#002b36">eval_acc</text>
<text text-anchor="start" x="73" y="-10" font-family="Liberation Sans,Helvetica,Arial,sans-serif" font-size="10.00" fill="#268bd2">3 values (3 sinks)</text>
</g>
<!-- y_train -->
<g id="node2" class="node">
<title>y_train</title>
<path fill="none" stroke="#268bd2" d="M44,-420C44,-420 12,-420 12,-420 6,-420 0,-414 0,-408 0,-408 0,-396 0,-396 0,-390 6,-384 12,-384 12,-384 44,-384 44,-384 50,-384 56,-390 56,-396 56,-396 56,-408 56,-408 56,-414 50,-420 44,-420"/>
<text text-anchor="start" x="8" y="-404.4" font-family="Liberation Sans,Helvetica,Arial,sans-serif" font-weight="bold" font-size="12.00" fill="#002b36">y_train</text>
<text text-anchor="start" x="9.5" y="-394" font-family="Liberation Sans,Helvetica,Arial,sans-serif" font-size="10.00" fill="#268bd2">1 values</text>
</g>
<!-- train_model -->
<g id="node11" class="node">
<title>train_model</title>
<path fill="none" stroke="#dc322f" d="M201.5,-326C201.5,-326 134.5,-326 134.5,-326 128.5,-326 122.5,-320 122.5,-314 122.5,-314 122.5,-298 122.5,-298 122.5,-292 128.5,-286 134.5,-286 134.5,-286 201.5,-286 201.5,-286 207.5,-286 213.5,-292 213.5,-298 213.5,-298 213.5,-314 213.5,-314 213.5,-320 207.5,-326 201.5,-326"/>
<text text-anchor="start" x="134" y="-313.4" font-family="Liberation Sans,Helvetica,Arial,sans-serif" font-weight="bold" font-size="12.00" fill="#002b36">train_model</text>
<text text-anchor="start" x="130.5" y="-303" font-family="Liberation Sans,Helvetica,Arial,sans-serif" font-size="10.00" fill="#002b36">@op:train_model</text>
<text text-anchor="start" x="153.5" y="-293" font-family="Liberation Sans,Helvetica,Arial,sans-serif" font-size="10.00" fill="#dc322f">4 calls</text>
</g>
<!-- y_train&#45;&gt;train_model -->
<g id="edge6" class="edge">
<title>y_train&#45;&gt;train_model</title>
<path fill="none" stroke="#002b36" d="M38.09,-383.75C46.16,-371.25 58.51,-354.72 73,-344 84.91,-335.19 99.18,-328.19 113,-322.75"/>
<polygon fill="#002b36" stroke="#002b36" points="114.31,-326 122.47,-319.23 111.87,-319.44 114.31,-326"/>
<text text-anchor="middle" x="94.5" y="-358" font-family="Liberation Sans,Helvetica,Arial,sans-serif" font-size="10.00" fill="#002b36">y_train</text>
<text text-anchor="middle" x="94.5" y="-347" font-family="Liberation Sans,Helvetica,Arial,sans-serif" font-size="10.00" fill="#002b36">(1 values)</text>
</g>
<!-- max_depth -->
<g id="node3" class="node">
<title>max_depth</title>
<path fill="none" stroke="#268bd2" d="M242.5,-420C242.5,-420 161.5,-420 161.5,-420 155.5,-420 149.5,-414 149.5,-408 149.5,-408 149.5,-396 149.5,-396 149.5,-390 155.5,-384 161.5,-384 161.5,-384 242.5,-384 242.5,-384 248.5,-384 254.5,-390 254.5,-396 254.5,-396 254.5,-408 254.5,-408 254.5,-414 248.5,-420 242.5,-420"/>
<text text-anchor="start" x="170" y="-404.4" font-family="Liberation Sans,Helvetica,Arial,sans-serif" font-weight="bold" font-size="12.00" fill="#002b36">max_depth</text>
<text text-anchor="start" x="157.5" y="-394" font-family="Liberation Sans,Helvetica,Arial,sans-serif" font-size="10.00" fill="#268bd2">1 values (1 sources)</text>
</g>
<!-- max_depth&#45;&gt;train_model -->
<g id="edge4" class="edge">
<title>max_depth&#45;&gt;train_model</title>
<path fill="none" stroke="#002b36" d="M195.76,-383.76C190.92,-370.37 184.1,-351.5 178.43,-335.82"/>
<polygon fill="#002b36" stroke="#002b36" points="181.59,-334.29 174.9,-326.07 175.01,-336.67 181.59,-334.29"/>
<text text-anchor="middle" x="213.5" y="-358" font-family="Liberation Sans,Helvetica,Arial,sans-serif" font-size="10.00" fill="#002b36">max_depth</text>
<text text-anchor="middle" x="213.5" y="-347" font-family="Liberation Sans,Helvetica,Arial,sans-serif" font-size="10.00" fill="#002b36">(1 values)</text>
</g>
<!-- train_acc -->
<g id="node4" class="node">
<title>train_acc</title>
<path fill="none" stroke="#268bd2" d="M147,-228C147,-228 77,-228 77,-228 71,-228 65,-222 65,-216 65,-216 65,-204 65,-204 65,-198 71,-192 77,-192 77,-192 147,-192 147,-192 153,-192 159,-198 159,-204 159,-204 159,-216 159,-216 159,-222 153,-228 147,-228"/>
<text text-anchor="start" x="85.5" y="-212.4" font-family="Liberation Sans,Helvetica,Arial,sans-serif" font-weight="bold" font-size="12.00" fill="#002b36">train_acc</text>
<text text-anchor="start" x="73" y="-202" font-family="Liberation Sans,Helvetica,Arial,sans-serif" font-size="10.00" fill="#268bd2">4 values (1 sinks)</text>
</g>
<!-- eval_model -->
<g id="node9" class="node">
<title>eval_model</title>
<path fill="none" stroke="#dc322f" d="M145,-134C145,-134 79,-134 79,-134 73,-134 67,-128 67,-122 67,-122 67,-106 67,-106 67,-100 73,-94 79,-94 79,-94 145,-94 145,-94 151,-94 157,-100 157,-106 157,-106 157,-122 157,-122 157,-128 151,-134 145,-134"/>
<text text-anchor="start" x="79" y="-121.4" font-family="Liberation Sans,Helvetica,Arial,sans-serif" font-weight="bold" font-size="12.00" fill="#002b36">eval_model</text>
<text text-anchor="start" x="75" y="-111" font-family="Liberation Sans,Helvetica,Arial,sans-serif" font-size="10.00" fill="#002b36">@op:eval_model</text>
<text text-anchor="start" x="97.5" y="-101" font-family="Liberation Sans,Helvetica,Arial,sans-serif" font-size="10.00" fill="#dc322f">3 calls</text>
</g>
<!-- train_acc&#45;&gt;eval_model -->
<g id="edge11" class="edge">
<title>train_acc&#45;&gt;eval_model</title>
<path fill="none" stroke="#002b36" d="M112,-191.76C112,-178.5 112,-159.86 112,-144.27"/>
<polygon fill="#002b36" stroke="#002b36" points="115.5,-144.07 112,-134.07 108.5,-144.07 115.5,-144.07"/>
<text text-anchor="middle" x="133.5" y="-166" font-family="Liberation Sans,Helvetica,Arial,sans-serif" font-size="10.00" fill="#002b36">model</text>
<text text-anchor="middle" x="133.5" y="-155" font-family="Liberation Sans,Helvetica,Arial,sans-serif" font-size="10.00" fill="#002b36">(3 values)</text>
</g>
<!-- random_seed -->
<g id="node5" class="node">
<title>random_seed</title>
<path fill="none" stroke="#268bd2" d="M105.5,-612C105.5,-612 24.5,-612 24.5,-612 18.5,-612 12.5,-606 12.5,-600 12.5,-600 12.5,-588 12.5,-588 12.5,-582 18.5,-576 24.5,-576 24.5,-576 105.5,-576 105.5,-576 111.5,-576 117.5,-582 117.5,-588 117.5,-588 117.5,-600 117.5,-600 117.5,-606 111.5,-612 105.5,-612"/>
<text text-anchor="start" x="25.5" y="-596.4" font-family="Liberation Sans,Helvetica,Arial,sans-serif" font-weight="bold" font-size="12.00" fill="#002b36">random_seed</text>
<text text-anchor="start" x="20.5" y="-586" font-family="Liberation Sans,Helvetica,Arial,sans-serif" font-size="10.00" fill="#268bd2">1 values (1 sources)</text>
</g>
<!-- generate_dataset -->
<g id="node10" class="node">
<title>generate_dataset</title>
<path fill="none" stroke="#dc322f" d="M111,-518C111,-518 19,-518 19,-518 13,-518 7,-512 7,-506 7,-506 7,-490 7,-490 7,-484 13,-478 19,-478 19,-478 111,-478 111,-478 117,-478 123,-484 123,-490 123,-490 123,-506 123,-506 123,-512 117,-518 111,-518"/>
<text text-anchor="start" x="15" y="-505.4" font-family="Liberation Sans,Helvetica,Arial,sans-serif" font-weight="bold" font-size="12.00" fill="#002b36">generate_dataset</text>
<text text-anchor="start" x="15" y="-495" font-family="Liberation Sans,Helvetica,Arial,sans-serif" font-size="10.00" fill="#002b36">@op:generate_dataset</text>
<text text-anchor="start" x="50.5" y="-485" font-family="Liberation Sans,Helvetica,Arial,sans-serif" font-size="10.00" fill="#dc322f">1 calls</text>
</g>
<!-- random_seed&#45;&gt;generate_dataset -->
<g id="edge9" class="edge">
<title>random_seed&#45;&gt;generate_dataset</title>
<path fill="none" stroke="#002b36" d="M65,-575.76C65,-562.5 65,-543.86 65,-528.27"/>
<polygon fill="#002b36" stroke="#002b36" points="68.5,-528.07 65,-518.07 61.5,-528.07 68.5,-528.07"/>
<text text-anchor="middle" x="94.5" y="-550" font-family="Liberation Sans,Helvetica,Arial,sans-serif" font-size="10.00" fill="#002b36">random_seed</text>
<text text-anchor="middle" x="94.5" y="-539" font-family="Liberation Sans,Helvetica,Arial,sans-serif" font-size="10.00" fill="#002b36">(1 values)</text>
</g>
<!-- n_estimators -->
<g id="node6" class="node">
<title>n_estimators</title>
<path fill="none" stroke="#268bd2" d="M365.5,-420C365.5,-420 284.5,-420 284.5,-420 278.5,-420 272.5,-414 272.5,-408 272.5,-408 272.5,-396 272.5,-396 272.5,-390 278.5,-384 284.5,-384 284.5,-384 365.5,-384 365.5,-384 371.5,-384 377.5,-390 377.5,-396 377.5,-396 377.5,-408 377.5,-408 377.5,-414 371.5,-420 365.5,-420"/>
<text text-anchor="start" x="287.5" y="-404.4" font-family="Liberation Sans,Helvetica,Arial,sans-serif" font-weight="bold" font-size="12.00" fill="#002b36">n_estimators</text>
<text text-anchor="start" x="280.5" y="-394" font-family="Liberation Sans,Helvetica,Arial,sans-serif" font-size="10.00" fill="#268bd2">2 values (2 sources)</text>
</g>
<!-- n_estimators&#45;&gt;train_model -->
<g id="edge5" class="edge">
<title>n_estimators&#45;&gt;train_model</title>
<path fill="none" stroke="#002b36" d="M301.95,-383.9C285.6,-372.08 262.93,-356.34 242,-344 234.36,-339.49 226.1,-335.01 217.96,-330.8"/>
<polygon fill="#002b36" stroke="#002b36" points="219.37,-327.59 208.87,-326.17 216.19,-333.83 219.37,-327.59"/>
<text text-anchor="middle" x="302.5" y="-358" font-family="Liberation Sans,Helvetica,Arial,sans-serif" font-size="10.00" fill="#002b36">n_estimators</text>
<text text-anchor="middle" x="302.5" y="-347" font-family="Liberation Sans,Helvetica,Arial,sans-serif" font-size="10.00" fill="#002b36">(2 values)</text>
</g>
<!-- X_train -->
<g id="node7" class="node">
<title>X_train</title>
<path fill="none" stroke="#268bd2" d="M119.5,-420C119.5,-420 86.5,-420 86.5,-420 80.5,-420 74.5,-414 74.5,-408 74.5,-408 74.5,-396 74.5,-396 74.5,-390 80.5,-384 86.5,-384 86.5,-384 119.5,-384 119.5,-384 125.5,-384 131.5,-390 131.5,-396 131.5,-396 131.5,-408 131.5,-408 131.5,-414 125.5,-420 119.5,-420"/>
<text text-anchor="start" x="82.5" y="-404.4" font-family="Liberation Sans,Helvetica,Arial,sans-serif" font-weight="bold" font-size="12.00" fill="#002b36">X_train</text>
<text text-anchor="start" x="84.5" y="-394" font-family="Liberation Sans,Helvetica,Arial,sans-serif" font-size="10.00" fill="#268bd2">1 values</text>
</g>
<!-- X_train&#45;&gt;train_model -->
<g id="edge3" class="edge">
<title>X_train&#45;&gt;train_model</title>
<path fill="none" stroke="#002b36" d="M110.92,-383.89C116.66,-372.22 124.96,-356.65 134,-344 136.45,-340.57 139.2,-337.11 142.03,-333.76"/>
<polygon fill="#002b36" stroke="#002b36" points="144.71,-336.02 148.71,-326.2 139.46,-331.38 144.71,-336.02"/>
<text text-anchor="middle" x="155.5" y="-358" font-family="Liberation Sans,Helvetica,Arial,sans-serif" font-size="10.00" fill="#002b36">X_train</text>
<text text-anchor="middle" x="155.5" y="-347" font-family="Liberation Sans,Helvetica,Arial,sans-serif" font-size="10.00" fill="#002b36">(1 values)</text>
</g>
<!-- model -->
<g id="node8" class="node">
<title>model</title>
<path fill="none" stroke="#268bd2" d="M259,-228C259,-228 189,-228 189,-228 183,-228 177,-222 177,-216 177,-216 177,-204 177,-204 177,-198 183,-192 189,-192 189,-192 259,-192 259,-192 265,-192 271,-198 271,-204 271,-204 271,-216 271,-216 271,-222 265,-228 259,-228"/>
<text text-anchor="start" x="206" y="-212.4" font-family="Liberation Sans,Helvetica,Arial,sans-serif" font-weight="bold" font-size="12.00" fill="#002b36">model</text>
<text text-anchor="start" x="185" y="-202" font-family="Liberation Sans,Helvetica,Arial,sans-serif" font-size="10.00" fill="#268bd2">4 values (4 sinks)</text>
</g>
<!-- eval_model&#45;&gt;eval_acc -->
<g id="edge10" class="edge">
<title>eval_model&#45;&gt;eval_acc</title>
<path fill="none" stroke="#002b36" d="M112,-93.98C112,-80.34 112,-61.75 112,-46.5"/>
<polygon fill="#002b36" stroke="#002b36" points="115.5,-46.1 112,-36.1 108.5,-46.1 115.5,-46.1"/>
<text text-anchor="middle" x="133.5" y="-68" font-family="Liberation Sans,Helvetica,Arial,sans-serif" font-size="10.00" fill="#002b36">output_0</text>
<text text-anchor="middle" x="133.5" y="-57" font-family="Liberation Sans,Helvetica,Arial,sans-serif" font-size="10.00" fill="#002b36">(3 values)</text>
</g>
<!-- generate_dataset&#45;&gt;y_train -->
<g id="edge8" class="edge">
<title>generate_dataset&#45;&gt;y_train</title>
<path fill="none" stroke="#002b36" d="M46.25,-478C41.88,-472.57 37.72,-466.39 35,-460 31.05,-450.7 29.13,-439.83 28.25,-430.09"/>
<polygon fill="#002b36" stroke="#002b36" points="31.74,-429.87 27.66,-420.1 24.76,-430.28 31.74,-429.87"/>
<text text-anchor="middle" x="56.5" y="-452" font-family="Liberation Sans,Helvetica,Arial,sans-serif" font-size="10.00" fill="#002b36">output_2</text>
<text text-anchor="middle" x="56.5" y="-441" font-family="Liberation Sans,Helvetica,Arial,sans-serif" font-size="10.00" fill="#002b36">(1 values)</text>
</g>
<!-- generate_dataset&#45;&gt;X_train -->
<g id="edge7" class="edge">
<title>generate_dataset&#45;&gt;X_train</title>
<path fill="none" stroke="#002b36" d="M72.69,-477.98C78.31,-464.07 86.01,-445.03 92.24,-429.61"/>
<polygon fill="#002b36" stroke="#002b36" points="95.59,-430.68 96.09,-420.1 89.1,-428.06 95.59,-430.68"/>
<text text-anchor="middle" x="110.5" y="-452" font-family="Liberation Sans,Helvetica,Arial,sans-serif" font-size="10.00" fill="#002b36">output_0</text>
<text text-anchor="middle" x="110.5" y="-441" font-family="Liberation Sans,Helvetica,Arial,sans-serif" font-size="10.00" fill="#002b36">(1 values)</text>
</g>
<!-- train_model&#45;&gt;train_acc -->
<g id="edge1" class="edge">
<title>train_model&#45;&gt;train_acc</title>
<path fill="none" stroke="#002b36" d="M156.67,-285.98C148.23,-271.81 136.6,-252.3 127.33,-236.74"/>
<polygon fill="#002b36" stroke="#002b36" points="130.31,-234.9 122.19,-228.1 124.3,-238.48 130.31,-234.9"/>
<text text-anchor="middle" x="166.5" y="-260" font-family="Liberation Sans,Helvetica,Arial,sans-serif" font-size="10.00" fill="#002b36">output_0</text>
<text text-anchor="middle" x="166.5" y="-249" font-family="Liberation Sans,Helvetica,Arial,sans-serif" font-size="10.00" fill="#002b36">(4 values)</text>
</g>
<!-- train_model&#45;&gt;model -->
<g id="edge2" class="edge">
<title>train_model&#45;&gt;model</title>
<path fill="none" stroke="#002b36" d="M180.69,-285.94C184.41,-280.22 188.44,-273.9 192,-268 198.05,-257.99 204.41,-246.8 209.86,-237"/>
<polygon fill="#002b36" stroke="#002b36" points="212.99,-238.57 214.76,-228.12 206.86,-235.19 212.99,-238.57"/>
<text text-anchor="middle" x="225.5" y="-260" font-family="Liberation Sans,Helvetica,Arial,sans-serif" font-size="10.00" fill="#002b36">output_1</text>
<text text-anchor="middle" x="225.5" y="-249" font-family="Liberation Sans,Helvetica,Arial,sans-serif" font-size="10.00" fill="#002b36">(4 values)</text>
</g>
</g>
</svg>
