<?xml version="1.0" encoding="UTF-8" standalone="no"?>
<!DOCTYPE svg PUBLIC "-//W3C//DTD SVG 1.1//EN"
 "http://www.w3.org/Graphics/SVG/1.1/DTD/svg11.dtd">
<!-- Generated by graphviz version 2.50.0 (0)
 -->
<!-- Title: G Pages: 1 -->
<svg width="386pt" height="620pt"
 viewBox="0.00 0.00 386.00 620.00" xmlns="http://www.w3.org/2000/svg" xmlns:xlink="http://www.w3.org/1999/xlink">
<g id="graph0" class="graph" transform="scale(1 1) rotate(0) translate(4 616)">
<title>G</title>
<polygon fill="white" stroke="transparent" points="-4,4 -4,-616 382,-616 382,4 -4,4"/>
<!-- train_acc -->
<g id="node1" class="node">
<title>train_acc</title>
<path fill="none" stroke="#268bd2" stroke-width="1.5" d="M196.5,-228C196.5,-228 126.5,-228 126.5,-228 120.5,-228 114.5,-222 114.5,-216 114.5,-216 114.5,-204 114.5,-204 114.5,-198 120.5,-192 126.5,-192 126.5,-192 196.5,-192 196.5,-192 202.5,-192 208.5,-198 208.5,-204 208.5,-204 208.5,-216 208.5,-216 208.5,-222 202.5,-228 196.5,-228"/>
<text text-anchor="start" x="135" y="-212.4" font-family="Liberation Sans,Helvetica,Arial,sans-serif" font-weight="bold" font-size="12.00" fill="#002b36">train_acc</text>
<text text-anchor="start" x="122.5" y="-202" font-family="Liberation Sans,Helvetica,Arial,sans-serif" font-size="10.00" fill="#268bd2">4 values (1 sinks)</text>
</g>
<!-- eval_model -->
<g id="node10" class="node">
<title>eval_model</title>
<path fill="none" stroke="#dc322f" stroke-width="1.5" d="M194.5,-134C194.5,-134 128.5,-134 128.5,-134 122.5,-134 116.5,-128 116.5,-122 116.5,-122 116.5,-106 116.5,-106 116.5,-100 122.5,-94 128.5,-94 128.5,-94 194.5,-94 194.5,-94 200.5,-94 206.5,-100 206.5,-106 206.5,-106 206.5,-122 206.5,-122 206.5,-128 200.5,-134 194.5,-134"/>
<text text-anchor="start" x="128.5" y="-121.4" font-family="Liberation Sans,Helvetica,Arial,sans-serif" font-weight="bold" font-size="12.00" fill="#002b36">eval_model</text>
<text text-anchor="start" x="124.5" y="-111" font-family="Liberation Sans,Helvetica,Arial,sans-serif" font-size="10.00" fill="#002b36">@op:eval_model</text>
<text text-anchor="start" x="147" y="-101" font-family="Liberation Sans,Helvetica,Arial,sans-serif" font-size="10.00" fill="#dc322f">3 calls</text>
</g>
<!-- train_acc&#45;&gt;eval_model -->
<g id="edge11" class="edge">
<title>train_acc&#45;&gt;eval_model</title>
<path fill="none" stroke="#002b36" d="M161.5,-191.76C161.5,-178.5 161.5,-159.86 161.5,-144.27"/>
<polygon fill="#002b36" stroke="#002b36" points="165,-144.07 161.5,-134.07 158,-144.07 165,-144.07"/>
<text text-anchor="middle" x="183" y="-166" font-family="Liberation Sans,Helvetica,Arial,sans-serif" font-size="10.00" fill="#002b36">model</text>
<text text-anchor="middle" x="183" y="-155" font-family="Liberation Sans,Helvetica,Arial,sans-serif" font-size="10.00" fill="#002b36">(3 values)</text>
</g>
<!-- random_seed -->
<g id="node2" class="node">
<title>random_seed</title>
<path fill="none" stroke="#268bd2" stroke-width="1.5" d="M352,-612C352,-612 271,-612 271,-612 265,-612 259,-606 259,-600 259,-600 259,-588 259,-588 259,-582 265,-576 271,-576 271,-576 352,-576 352,-576 358,-576 364,-582 364,-588 364,-588 364,-600 364,-600 364,-606 358,-612 352,-612"/>
<text text-anchor="start" x="272" y="-596.4" font-family="Liberation Sans,Helvetica,Arial,sans-serif" font-weight="bold" font-size="12.00" fill="#002b36">random_seed</text>
<text text-anchor="start" x="267" y="-586" font-family="Liberation Sans,Helvetica,Arial,sans-serif" font-size="10.00" fill="#268bd2">1 values (1 sources)</text>
</g>
<!-- generate_dataset -->
<g id="node11" class="node">
<title>generate_dataset</title>
<path fill="none" stroke="#dc322f" stroke-width="1.5" d="M357.5,-518C357.5,-518 265.5,-518 265.5,-518 259.5,-518 253.5,-512 253.5,-506 253.5,-506 253.5,-490 253.5,-490 253.5,-484 259.5,-478 265.5,-478 265.5,-478 357.5,-478 357.5,-478 363.5,-478 369.5,-484 369.5,-490 369.5,-490 369.5,-506 369.5,-506 369.5,-512 363.5,-518 357.5,-518"/>
<text text-anchor="start" x="261.5" y="-505.4" font-family="Liberation Sans,Helvetica,Arial,sans-serif" font-weight="bold" font-size="12.00" fill="#002b36">generate_dataset</text>
<text text-anchor="start" x="261.5" y="-495" font-family="Liberation Sans,Helvetica,Arial,sans-serif" font-size="10.00" fill="#002b36">@op:generate_dataset</text>
<text text-anchor="start" x="297" y="-485" font-family="Liberation Sans,Helvetica,Arial,sans-serif" font-size="10.00" fill="#dc322f">1 calls</text>
</g>
<!-- random_seed&#45;&gt;generate_dataset -->
<g id="edge9" class="edge">
<title>random_seed&#45;&gt;generate_dataset</title>
<path fill="none" stroke="#002b36" d="M311.5,-575.76C311.5,-562.5 311.5,-543.86 311.5,-528.27"/>
<polygon fill="#002b36" stroke="#002b36" points="315,-528.07 311.5,-518.07 308,-528.07 315,-528.07"/>
<text text-anchor="middle" x="341" y="-550" font-family="Liberation Sans,Helvetica,Arial,sans-serif" font-size="10.00" fill="#002b36">random_seed</text>
<text text-anchor="middle" x="341" y="-539" font-family="Liberation Sans,Helvetica,Arial,sans-serif" font-size="10.00" fill="#002b36">(1 values)</text>
</g>
<!-- n_estimators -->
<g id="node3" class="node">
<title>n_estimators</title>
<path fill="none" stroke="#268bd2" stroke-width="1.5" d="M93,-420C93,-420 12,-420 12,-420 6,-420 0,-414 0,-408 0,-408 0,-396 0,-396 0,-390 6,-384 12,-384 12,-384 93,-384 93,-384 99,-384 105,-390 105,-396 105,-396 105,-408 105,-408 105,-414 99,-420 93,-420"/>
<text text-anchor="start" x="15" y="-404.4" font-family="Liberation Sans,Helvetica,Arial,sans-serif" font-weight="bold" font-size="12.00" fill="#002b36">n_estimators</text>
<text text-anchor="start" x="8" y="-394" font-family="Liberation Sans,Helvetica,Arial,sans-serif" font-size="10.00" fill="#268bd2">2 values (2 sources)</text>
</g>
<!-- train_model -->
<g id="node9" class="node">
<title>train_model</title>
<path fill="none" stroke="#dc322f" stroke-width="1.5" d="M251,-326C251,-326 184,-326 184,-326 178,-326 172,-320 172,-314 172,-314 172,-298 172,-298 172,-292 178,-286 184,-286 184,-286 251,-286 251,-286 257,-286 263,-292 263,-298 263,-298 263,-314 263,-314 263,-320 257,-326 251,-326"/>
<text text-anchor="start" x="183.5" y="-313.4" font-family="Liberation Sans,Helvetica,Arial,sans-serif" font-weight="bold" font-size="12.00" fill="#002b36">train_model</text>
<text text-anchor="start" x="180" y="-303" font-family="Liberation Sans,Helvetica,Arial,sans-serif" font-size="10.00" fill="#002b36">@op:train_model</text>
<text text-anchor="start" x="203" y="-293" font-family="Liberation Sans,Helvetica,Arial,sans-serif" font-size="10.00" fill="#dc322f">4 calls</text>
</g>
<!-- n_estimators&#45;&gt;train_model -->
<g id="edge5" class="edge">
<title>n_estimators&#45;&gt;train_model</title>
<path fill="none" stroke="#002b36" d="M69.72,-383.75C82.78,-371.4 101.64,-355.08 120.5,-344 133.38,-336.44 148.09,-329.89 162.09,-324.5"/>
<polygon fill="#002b36" stroke="#002b36" points="163.48,-327.72 171.64,-320.95 161.04,-321.15 163.48,-327.72"/>
<text text-anchor="middle" x="149" y="-358" font-family="Liberation Sans,Helvetica,Arial,sans-serif" font-size="10.00" fill="#002b36">n_estimators</text>
<text text-anchor="middle" x="149" y="-347" font-family="Liberation Sans,Helvetica,Arial,sans-serif" font-size="10.00" fill="#002b36">(2 values)</text>
</g>
<!-- max_depth -->
<g id="node4" class="node">
<title>max_depth</title>
<path fill="none" stroke="#268bd2" stroke-width="1.5" d="M216,-420C216,-420 135,-420 135,-420 129,-420 123,-414 123,-408 123,-408 123,-396 123,-396 123,-390 129,-384 135,-384 135,-384 216,-384 216,-384 222,-384 228,-390 228,-396 228,-396 228,-408 228,-408 228,-414 222,-420 216,-420"/>
<text text-anchor="start" x="143.5" y="-404.4" font-family="Liberation Sans,Helvetica,Arial,sans-serif" font-weight="bold" font-size="12.00" fill="#002b36">max_depth</text>
<text text-anchor="start" x="131" y="-394" font-family="Liberation Sans,Helvetica,Arial,sans-serif" font-size="10.00" fill="#268bd2">1 values (1 sources)</text>
</g>
<!-- max_depth&#45;&gt;train_model -->
<g id="edge4" class="edge">
<title>max_depth&#45;&gt;train_model</title>
<path fill="none" stroke="#002b36" d="M177.83,-383.93C179.86,-372.27 183.46,-356.7 189.5,-344 191.04,-340.77 192.88,-337.56 194.88,-334.44"/>
<polygon fill="#002b36" stroke="#002b36" points="197.92,-336.2 200.8,-326 192.19,-332.18 197.92,-336.2"/>
<text text-anchor="middle" x="214" y="-358" font-family="Liberation Sans,Helvetica,Arial,sans-serif" font-size="10.00" fill="#002b36">max_depth</text>
<text text-anchor="middle" x="214" y="-347" font-family="Liberation Sans,Helvetica,Arial,sans-serif" font-size="10.00" fill="#002b36">(1 values)</text>
</g>
<!-- y_train -->
<g id="node5" class="node">
<title>y_train</title>
<path fill="none" stroke="#268bd2" stroke-width="1.5" d="M290.5,-420C290.5,-420 258.5,-420 258.5,-420 252.5,-420 246.5,-414 246.5,-408 246.5,-408 246.5,-396 246.5,-396 246.5,-390 252.5,-384 258.5,-384 258.5,-384 290.5,-384 290.5,-384 296.5,-384 302.5,-390 302.5,-396 302.5,-396 302.5,-408 302.5,-408 302.5,-414 296.5,-420 290.5,-420"/>
<text text-anchor="start" x="254.5" y="-404.4" font-family="Liberation Sans,Helvetica,Arial,sans-serif" font-weight="bold" font-size="12.00" fill="#002b36">y_train</text>
<text text-anchor="start" x="256" y="-394" font-family="Liberation Sans,Helvetica,Arial,sans-serif" font-size="10.00" fill="#268bd2">1 values</text>
</g>
<!-- y_train&#45;&gt;train_model -->
<g id="edge6" class="edge">
<title>y_train&#45;&gt;train_model</title>
<path fill="none" stroke="#002b36" d="M264.05,-383.76C255.77,-370.11 244.05,-350.78 234.44,-334.93"/>
<polygon fill="#002b36" stroke="#002b36" points="237.24,-332.81 229.06,-326.07 231.26,-336.44 237.24,-332.81"/>
<text text-anchor="middle" x="274" y="-358" font-family="Liberation Sans,Helvetica,Arial,sans-serif" font-size="10.00" fill="#002b36">y_train</text>
<text text-anchor="middle" x="274" y="-347" font-family="Liberation Sans,Helvetica,Arial,sans-serif" font-size="10.00" fill="#002b36">(1 values)</text>
</g>
<!-- X_train -->
<g id="node6" class="node">
<title>X_train</title>
<path fill="none" stroke="#268bd2" stroke-width="1.5" d="M366,-420C366,-420 333,-420 333,-420 327,-420 321,-414 321,-408 321,-408 321,-396 321,-396 321,-390 327,-384 333,-384 333,-384 366,-384 366,-384 372,-384 378,-390 378,-396 378,-396 378,-408 378,-408 378,-414 372,-420 366,-420"/>
<text text-anchor="start" x="329" y="-404.4" font-family="Liberation Sans,Helvetica,Arial,sans-serif" font-weight="bold" font-size="12.00" fill="#002b36">X_train</text>
<text text-anchor="start" x="331" y="-394" font-family="Liberation Sans,Helvetica,Arial,sans-serif" font-size="10.00" fill="#268bd2">1 values</text>
</g>
<!-- X_train&#45;&gt;train_model -->
<g id="edge3" class="edge">
<title>X_train&#45;&gt;train_model</title>
<path fill="none" stroke="#002b36" d="M337.52,-383.77C328.26,-371.44 314.52,-355.12 299.5,-344 291.22,-337.87 281.77,-332.45 272.3,-327.77"/>
<polygon fill="#002b36" stroke="#002b36" points="273.79,-324.6 263.25,-323.51 270.81,-330.94 273.79,-324.6"/>
<text text-anchor="middle" x="343" y="-358" font-family="Liberation Sans,Helvetica,Arial,sans-serif" font-size="10.00" fill="#002b36">X_train</text>
<text text-anchor="middle" x="343" y="-347" font-family="Liberation Sans,Helvetica,Arial,sans-serif" font-size="10.00" fill="#002b36">(1 values)</text>
</g>
<!-- model -->
<g id="node7" class="node">
<title>model</title>
<path fill="none" stroke="#268bd2" stroke-width="1.5" d="M308.5,-228C308.5,-228 238.5,-228 238.5,-228 232.5,-228 226.5,-222 226.5,-216 226.5,-216 226.5,-204 226.5,-204 226.5,-198 232.5,-192 238.5,-192 238.5,-192 308.5,-192 308.5,-192 314.5,-192 320.5,-198 320.5,-204 320.5,-204 320.5,-216 320.5,-216 320.5,-222 314.5,-228 308.5,-228"/>
<text text-anchor="start" x="255.5" y="-212.4" font-family="Liberation Sans,Helvetica,Arial,sans-serif" font-weight="bold" font-size="12.00" fill="#002b36">model</text>
<text text-anchor="start" x="234.5" y="-202" font-family="Liberation Sans,Helvetica,Arial,sans-serif" font-size="10.00" fill="#268bd2">4 values (4 sinks)</text>
</g>
<!-- eval_acc -->
<g id="node8" class="node">
<title>eval_acc</title>
<path fill="none" stroke="#268bd2" stroke-width="1.5" d="M196.5,-36C196.5,-36 126.5,-36 126.5,-36 120.5,-36 114.5,-30 114.5,-24 114.5,-24 114.5,-12 114.5,-12 114.5,-6 120.5,0 126.5,0 126.5,0 196.5,0 196.5,0 202.5,0 208.5,-6 208.5,-12 208.5,-12 208.5,-24 208.5,-24 208.5,-30 202.5,-36 196.5,-36"/>
<text text-anchor="start" x="136" y="-20.4" font-family="Liberation Sans,Helvetica,Arial,sans-serif" font-weight="bold" font-size="12.00" fill="#002b36">eval_acc</text>
<text text-anchor="start" x="122.5" y="-10" font-family="Liberation Sans,Helvetica,Arial,sans-serif" font-size="10.00" fill="#268bd2">3 values (3 sinks)</text>
</g>
<!-- train_model&#45;&gt;train_acc -->
<g id="edge1" class="edge">
<title>train_model&#45;&gt;train_acc</title>
<path fill="none" stroke="#002b36" d="M206.17,-285.98C197.73,-271.81 186.1,-252.3 176.83,-236.74"/>
<polygon fill="#002b36" stroke="#002b36" points="179.81,-234.9 171.69,-228.1 173.8,-238.48 179.81,-234.9"/>
<text text-anchor="middle" x="216" y="-260" font-family="Liberation Sans,Helvetica,Arial,sans-serif" font-size="10.00" fill="#002b36">output_0</text>
<text text-anchor="middle" x="216" y="-249" font-family="Liberation Sans,Helvetica,Arial,sans-serif" font-size="10.00" fill="#002b36">(4 values)</text>
</g>
<!-- train_model&#45;&gt;model -->
<g id="edge2" class="edge">
<title>train_model&#45;&gt;model</title>
<path fill="none" stroke="#002b36" d="M230.19,-285.94C233.91,-280.22 237.94,-273.9 241.5,-268 247.55,-257.99 253.91,-246.8 259.36,-237"/>
<polygon fill="#002b36" stroke="#002b36" points="262.49,-238.57 264.26,-228.12 256.36,-235.19 262.49,-238.57"/>
<text text-anchor="middle" x="275" y="-260" font-family="Liberation Sans,Helvetica,Arial,sans-serif" font-size="10.00" fill="#002b36">output_1</text>
<text text-anchor="middle" x="275" y="-249" font-family="Liberation Sans,Helvetica,Arial,sans-serif" font-size="10.00" fill="#002b36">(4 values)</text>
</g>
<!-- eval_model&#45;&gt;eval_acc -->
<g id="edge10" class="edge">
<title>eval_model&#45;&gt;eval_acc</title>
<path fill="none" stroke="#002b36" d="M161.5,-93.98C161.5,-80.34 161.5,-61.75 161.5,-46.5"/>
<polygon fill="#002b36" stroke="#002b36" points="165,-46.1 161.5,-36.1 158,-46.1 165,-46.1"/>
<text text-anchor="middle" x="183" y="-68" font-family="Liberation Sans,Helvetica,Arial,sans-serif" font-size="10.00" fill="#002b36">output_0</text>
<text text-anchor="middle" x="183" y="-57" font-family="Liberation Sans,Helvetica,Arial,sans-serif" font-size="10.00" fill="#002b36">(3 values)</text>
</g>
<!-- generate_dataset&#45;&gt;y_train -->
<g id="edge8" class="edge">
<title>generate_dataset&#45;&gt;y_train</title>
<path fill="none" stroke="#002b36" d="M292.75,-478C288.38,-472.57 284.22,-466.39 281.5,-460 277.55,-450.7 275.63,-439.83 274.75,-430.09"/>
<polygon fill="#002b36" stroke="#002b36" points="278.24,-429.87 274.16,-420.1 271.26,-430.28 278.24,-429.87"/>
<text text-anchor="middle" x="303" y="-452" font-family="Liberation Sans,Helvetica,Arial,sans-serif" font-size="10.00" fill="#002b36">output_2</text>
<text text-anchor="middle" x="303" y="-441" font-family="Liberation Sans,Helvetica,Arial,sans-serif" font-size="10.00" fill="#002b36">(1 values)</text>
</g>
<!-- generate_dataset&#45;&gt;X_train -->
<g id="edge7" class="edge">
<title>generate_dataset&#45;&gt;X_train</title>
<path fill="none" stroke="#002b36" d="M319.19,-477.98C324.81,-464.07 332.51,-445.03 338.74,-429.61"/>
<polygon fill="#002b36" stroke="#002b36" points="342.09,-430.68 342.59,-420.1 335.6,-428.06 342.09,-430.68"/>
<text text-anchor="middle" x="356" y="-452" font-family="Liberation Sans,Helvetica,Arial,sans-serif" font-size="10.00" fill="#002b36">output_0</text>
<text text-anchor="middle" x="356" y="-441" font-family="Liberation Sans,Helvetica,Arial,sans-serif" font-size="10.00" fill="#002b36">(1 values)</text>
</g>
</g>
</svg>
