<?xml version="1.0" encoding="UTF-8" standalone="no"?>
<!DOCTYPE svg PUBLIC "-//W3C//DTD SVG 1.1//EN"
 "http://www.w3.org/Graphics/SVG/1.1/DTD/svg11.dtd">
<!-- Generated by graphviz version 2.50.0 (0)
 -->
<!-- Title: G Pages: 1 -->
<svg width="386pt" height="620pt"
 viewBox="0.00 0.00 386.00 620.00" xmlns="http://www.w3.org/2000/svg" xmlns:xlink="http://www.w3.org/1999/xlink">
<g id="graph0" class="graph" transform="scale(1 1) rotate(0) translate(4 616)">
<title>G</title>
<polygon fill="white" stroke="transparent" points="-4,4 -4,-616 382,-616 382,4 -4,4"/>
<!-- eval_acc -->
<g id="node1" class="node">
<title>eval_acc</title>
<path fill="none" stroke="#268bd2" stroke-width="1.5" d="M147.5,-36C147.5,-36 77.5,-36 77.5,-36 71.5,-36 65.5,-30 65.5,-24 65.5,-24 65.5,-12 65.5,-12 65.5,-6 71.5,0 77.5,0 77.5,0 147.5,0 147.5,0 153.5,0 159.5,-6 159.5,-12 159.5,-12 159.5,-24 159.5,-24 159.5,-30 153.5,-36 147.5,-36"/>
<text text-anchor="start" x="87" y="-20.4" font-family="Liberation Sans,Helvetica,Arial,sans-serif" font-weight="bold" font-size="12.00" fill="#002b36">eval_acc</text>
<text text-anchor="start" x="73.5" y="-10" font-family="Liberation Sans,Helvetica,Arial,sans-serif" font-size="10.00" fill="#268bd2">3 values (3 sinks)</text>
</g>
<!-- X_train -->
<g id="node2" class="node">
<title>X_train</title>
<path fill="none" stroke="#268bd2" stroke-width="1.5" d="M45,-420C45,-420 12,-420 12,-420 6,-420 0,-414 0,-408 0,-408 0,-396 0,-396 0,-390 6,-384 12,-384 12,-384 45,-384 45,-384 51,-384 57,-390 57,-396 57,-396 57,-408 57,-408 57,-414 51,-420 45,-420"/>
<text text-anchor="start" x="8" y="-404.4" font-family="Liberation Sans,Helvetica,Arial,sans-serif" font-weight="bold" font-size="12.00" fill="#002b36">X_train</text>
<text text-anchor="start" x="10" y="-394" font-family="Liberation Sans,Helvetica,Arial,sans-serif" font-size="10.00" fill="#268bd2">1 values</text>
</g>
<!-- train_model -->
<g id="node9" class="node">
<title>train_model</title>
<path fill="none" stroke="#dc322f" stroke-width="1.5" d="M202,-326C202,-326 135,-326 135,-326 129,-326 123,-320 123,-314 123,-314 123,-298 123,-298 123,-292 129,-286 135,-286 135,-286 202,-286 202,-286 208,-286 214,-292 214,-298 214,-298 214,-314 214,-314 214,-320 208,-326 202,-326"/>
<text text-anchor="start" x="134.5" y="-313.4" font-family="Liberation Sans,Helvetica,Arial,sans-serif" font-weight="bold" font-size="12.00" fill="#002b36">train_model</text>
<text text-anchor="start" x="131" y="-303" font-family="Liberation Sans,Helvetica,Arial,sans-serif" font-size="10.00" fill="#002b36">@op:train_model</text>
<text text-anchor="start" x="154" y="-293" font-family="Liberation Sans,Helvetica,Arial,sans-serif" font-size="10.00" fill="#dc322f">4 calls</text>
</g>
<!-- X_train&#45;&gt;train_model -->
<g id="edge3" class="edge">
<title>X_train&#45;&gt;train_model</title>
<path fill="none" stroke="#002b36" d="M38.59,-383.75C46.66,-371.25 59.01,-354.72 73.5,-344 85.41,-335.19 99.68,-328.19 113.5,-322.75"/>
<polygon fill="#002b36" stroke="#002b36" points="114.81,-326 122.97,-319.23 112.37,-319.44 114.81,-326"/>
<text text-anchor="middle" x="95" y="-358" font-family="Liberation Sans,Helvetica,Arial,sans-serif" font-size="10.00" fill="#002b36">X_train</text>
<text text-anchor="middle" x="95" y="-347" font-family="Liberation Sans,Helvetica,Arial,sans-serif" font-size="10.00" fill="#002b36">(1 values)</text>
</g>
<!-- max_depth -->
<g id="node3" class="node">
<title>max_depth</title>
<path fill="none" stroke="#268bd2" stroke-width="1.5" d="M243,-420C243,-420 162,-420 162,-420 156,-420 150,-414 150,-408 150,-408 150,-396 150,-396 150,-390 156,-384 162,-384 162,-384 243,-384 243,-384 249,-384 255,-390 255,-396 255,-396 255,-408 255,-408 255,-414 249,-420 243,-420"/>
<text text-anchor="start" x="170.5" y="-404.4" font-family="Liberation Sans,Helvetica,Arial,sans-serif" font-weight="bold" font-size="12.00" fill="#002b36">max_depth</text>
<text text-anchor="start" x="158" y="-394" font-family="Liberation Sans,Helvetica,Arial,sans-serif" font-size="10.00" fill="#268bd2">1 values (1 sources)</text>
</g>
<!-- max_depth&#45;&gt;train_model -->
<g id="edge4" class="edge">
<title>max_depth&#45;&gt;train_model</title>
<path fill="none" stroke="#002b36" d="M196.26,-383.76C191.42,-370.37 184.6,-351.5 178.93,-335.82"/>
<polygon fill="#002b36" stroke="#002b36" points="182.09,-334.29 175.4,-326.07 175.51,-336.67 182.09,-334.29"/>
<text text-anchor="middle" x="214" y="-358" font-family="Liberation Sans,Helvetica,Arial,sans-serif" font-size="10.00" fill="#002b36">max_depth</text>
<text text-anchor="middle" x="214" y="-347" font-family="Liberation Sans,Helvetica,Arial,sans-serif" font-size="10.00" fill="#002b36">(1 values)</text>
</g>
<!-- n_estimators -->
<g id="node4" class="node">
<title>n_estimators</title>
<path fill="none" stroke="#268bd2" stroke-width="1.5" d="M366,-420C366,-420 285,-420 285,-420 279,-420 273,-414 273,-408 273,-408 273,-396 273,-396 273,-390 279,-384 285,-384 285,-384 366,-384 366,-384 372,-384 378,-390 378,-396 378,-396 378,-408 378,-408 378,-414 372,-420 366,-420"/>
<text text-anchor="start" x="288" y="-404.4" font-family="Liberation Sans,Helvetica,Arial,sans-serif" font-weight="bold" font-size="12.00" fill="#002b36">n_estimators</text>
<text text-anchor="start" x="281" y="-394" font-family="Liberation Sans,Helvetica,Arial,sans-serif" font-size="10.00" fill="#268bd2">2 values (2 sources)</text>
</g>
<!-- n_estimators&#45;&gt;train_model -->
<g id="edge5" class="edge">
<title>n_estimators&#45;&gt;train_model</title>
<path fill="none" stroke="#002b36" d="M302.45,-383.9C286.1,-372.08 263.43,-356.34 242.5,-344 234.86,-339.49 226.6,-335.01 218.46,-330.8"/>
<polygon fill="#002b36" stroke="#002b36" points="219.87,-327.59 209.37,-326.17 216.69,-333.83 219.87,-327.59"/>
<text text-anchor="middle" x="303" y="-358" font-family="Liberation Sans,Helvetica,Arial,sans-serif" font-size="10.00" fill="#002b36">n_estimators</text>
<text text-anchor="middle" x="303" y="-347" font-family="Liberation Sans,Helvetica,Arial,sans-serif" font-size="10.00" fill="#002b36">(2 values)</text>
</g>
<!-- random_seed -->
<g id="node5" class="node">
<title>random_seed</title>
<path fill="none" stroke="#268bd2" stroke-width="1.5" d="M106,-612C106,-612 25,-612 25,-612 19,-612 13,-606 13,-600 13,-600 13,-588 13,-588 13,-582 19,-576 25,-576 25,-576 106,-576 106,-576 112,-576 118,-582 118,-588 118,-588 118,-600 118,-600 118,-606 112,-612 106,-612"/>
<text text-anchor="start" x="26" y="-596.4" font-family="Liberation Sans,Helvetica,Arial,sans-serif" font-weight="bold" font-size="12.00" fill="#002b36">random_seed</text>
<text text-anchor="start" x="21" y="-586" font-family="Liberation Sans,Helvetica,Arial,sans-serif" font-size="10.00" fill="#268bd2">1 values (1 sources)</text>
</g>
<!-- generate_dataset -->
<g id="node10" class="node">
<title>generate_dataset</title>
<path fill="none" stroke="#dc322f" stroke-width="1.5" d="M111.5,-518C111.5,-518 19.5,-518 19.5,-518 13.5,-518 7.5,-512 7.5,-506 7.5,-506 7.5,-490 7.5,-490 7.5,-484 13.5,-478 19.5,-478 19.5,-478 111.5,-478 111.5,-478 117.5,-478 123.5,-484 123.5,-490 123.5,-490 123.5,-506 123.5,-506 123.5,-512 117.5,-518 111.5,-518"/>
<text text-anchor="start" x="15.5" y="-505.4" font-family="Liberation Sans,Helvetica,Arial,sans-serif" font-weight="bold" font-size="12.00" fill="#002b36">generate_dataset</text>
<text text-anchor="start" x="15.5" y="-495" font-family="Liberation Sans,Helvetica,Arial,sans-serif" font-size="10.00" fill="#002b36">@op:generate_dataset</text>
<text text-anchor="start" x="51" y="-485" font-family="Liberation Sans,Helvetica,Arial,sans-serif" font-size="10.00" fill="#dc322f">1 calls</text>
</g>
<!-- random_seed&#45;&gt;generate_dataset -->
<g id="edge9" class="edge">
<title>random_seed&#45;&gt;generate_dataset</title>
<path fill="none" stroke="#002b36" d="M65.5,-575.76C65.5,-562.5 65.5,-543.86 65.5,-528.27"/>
<polygon fill="#002b36" stroke="#002b36" points="69,-528.07 65.5,-518.07 62,-528.07 69,-528.07"/>
<text text-anchor="middle" x="95" y="-550" font-family="Liberation Sans,Helvetica,Arial,sans-serif" font-size="10.00" fill="#002b36">random_seed</text>
<text text-anchor="middle" x="95" y="-539" font-family="Liberation Sans,Helvetica,Arial,sans-serif" font-size="10.00" fill="#002b36">(1 values)</text>
</g>
<!-- train_acc -->
<g id="node6" class="node">
<title>train_acc</title>
<path fill="none" stroke="#268bd2" stroke-width="1.5" d="M147.5,-228C147.5,-228 77.5,-228 77.5,-228 71.5,-228 65.5,-222 65.5,-216 65.5,-216 65.5,-204 65.5,-204 65.5,-198 71.5,-192 77.5,-192 77.5,-192 147.5,-192 147.5,-192 153.5,-192 159.5,-198 159.5,-204 159.5,-204 159.5,-216 159.5,-216 159.5,-222 153.5,-228 147.5,-228"/>
<text text-anchor="start" x="86" y="-212.4" font-family="Liberation Sans,Helvetica,Arial,sans-serif" font-weight="bold" font-size="12.00" fill="#002b36">train_acc</text>
<text text-anchor="start" x="73.5" y="-202" font-family="Liberation Sans,Helvetica,Arial,sans-serif" font-size="10.00" fill="#268bd2">4 values (1 sinks)</text>
</g>
<!-- eval_model -->
<g id="node11" class="node">
<title>eval_model</title>
<path fill="none" stroke="#dc322f" stroke-width="1.5" d="M145.5,-134C145.5,-134 79.5,-134 79.5,-134 73.5,-134 67.5,-128 67.5,-122 67.5,-122 67.5,-106 67.5,-106 67.5,-100 73.5,-94 79.5,-94 79.5,-94 145.5,-94 145.5,-94 151.5,-94 157.5,-100 157.5,-106 157.5,-106 157.5,-122 157.5,-122 157.5,-128 151.5,-134 145.5,-134"/>
<text text-anchor="start" x="79.5" y="-121.4" font-family="Liberation Sans,Helvetica,Arial,sans-serif" font-weight="bold" font-size="12.00" fill="#002b36">eval_model</text>
<text text-anchor="start" x="75.5" y="-111" font-family="Liberation Sans,Helvetica,Arial,sans-serif" font-size="10.00" fill="#002b36">@op:eval_model</text>
<text text-anchor="start" x="98" y="-101" font-family="Liberation Sans,Helvetica,Arial,sans-serif" font-size="10.00" fill="#dc322f">3 calls</text>
</g>
<!-- train_acc&#45;&gt;eval_model -->
<g id="edge11" class="edge">
<title>train_acc&#45;&gt;eval_model</title>
<path fill="none" stroke="#002b36" d="M112.5,-191.76C112.5,-178.5 112.5,-159.86 112.5,-144.27"/>
<polygon fill="#002b36" stroke="#002b36" points="116,-144.07 112.5,-134.07 109,-144.07 116,-144.07"/>
<text text-anchor="middle" x="134" y="-166" font-family="Liberation Sans,Helvetica,Arial,sans-serif" font-size="10.00" fill="#002b36">model</text>
<text text-anchor="middle" x="134" y="-155" font-family="Liberation Sans,Helvetica,Arial,sans-serif" font-size="10.00" fill="#002b36">(3 values)</text>
</g>
<!-- y_train -->
<g id="node7" class="node">
<title>y_train</title>
<path fill="none" stroke="#268bd2" stroke-width="1.5" d="M119.5,-420C119.5,-420 87.5,-420 87.5,-420 81.5,-420 75.5,-414 75.5,-408 75.5,-408 75.5,-396 75.5,-396 75.5,-390 81.5,-384 87.5,-384 87.5,-384 119.5,-384 119.5,-384 125.5,-384 131.5,-390 131.5,-396 131.5,-396 131.5,-408 131.5,-408 131.5,-414 125.5,-420 119.5,-420"/>
<text text-anchor="start" x="83.5" y="-404.4" font-family="Liberation Sans,Helvetica,Arial,sans-serif" font-weight="bold" font-size="12.00" fill="#002b36">y_train</text>
<text text-anchor="start" x="85" y="-394" font-family="Liberation Sans,Helvetica,Arial,sans-serif" font-size="10.00" fill="#268bd2">1 values</text>
</g>
<!-- y_train&#45;&gt;train_model -->
<g id="edge6" class="edge">
<title>y_train&#45;&gt;train_model</title>
<path fill="none" stroke="#002b36" d="M111.42,-383.89C117.16,-372.22 125.46,-356.65 134.5,-344 136.95,-340.57 139.7,-337.11 142.53,-333.76"/>
<polygon fill="#002b36" stroke="#002b36" points="145.21,-336.02 149.21,-326.2 139.96,-331.38 145.21,-336.02"/>
<text text-anchor="middle" x="156" y="-358" font-family="Liberation Sans,Helvetica,Arial,sans-serif" font-size="10.00" fill="#002b36">y_train</text>
<text text-anchor="middle" x="156" y="-347" font-family="Liberation Sans,Helvetica,Arial,sans-serif" font-size="10.00" fill="#002b36">(1 values)</text>
</g>
<!-- model -->
<g id="node8" class="node">
<title>model</title>
<path fill="none" stroke="#268bd2" stroke-width="1.5" d="M259.5,-228C259.5,-228 189.5,-228 189.5,-228 183.5,-228 177.5,-222 177.5,-216 177.5,-216 177.5,-204 177.5,-204 177.5,-198 183.5,-192 189.5,-192 189.5,-192 259.5,-192 259.5,-192 265.5,-192 271.5,-198 271.5,-204 271.5,-204 271.5,-216 271.5,-216 271.5,-222 265.5,-228 259.5,-228"/>
<text text-anchor="start" x="206.5" y="-212.4" font-family="Liberation Sans,Helvetica,Arial,sans-serif" font-weight="bold" font-size="12.00" fill="#002b36">model</text>
<text text-anchor="start" x="185.5" y="-202" font-family="Liberation Sans,Helvetica,Arial,sans-serif" font-size="10.00" fill="#268bd2">4 values (4 sinks)</text>
</g>
<!-- train_model&#45;&gt;train_acc -->
<g id="edge1" class="edge">
<title>train_model&#45;&gt;train_acc</title>
<path fill="none" stroke="#002b36" d="M157.17,-285.98C148.73,-271.81 137.1,-252.3 127.83,-236.74"/>
<polygon fill="#002b36" stroke="#002b36" points="130.81,-234.9 122.69,-228.1 124.8,-238.48 130.81,-234.9"/>
<text text-anchor="middle" x="167" y="-260" font-family="Liberation Sans,Helvetica,Arial,sans-serif" font-size="10.00" fill="#002b36">output_0</text>
<text text-anchor="middle" x="167" y="-249" font-family="Liberation Sans,Helvetica,Arial,sans-serif" font-size="10.00" fill="#002b36">(4 values)</text>
</g>
<!-- train_model&#45;&gt;model -->
<g id="edge2" class="edge">
<title>train_model&#45;&gt;model</title>
<path fill="none" stroke="#002b36" d="M181.19,-285.94C184.91,-280.22 188.94,-273.9 192.5,-268 198.55,-257.99 204.91,-246.8 210.36,-237"/>
<polygon fill="#002b36" stroke="#002b36" points="213.49,-238.57 215.26,-228.12 207.36,-235.19 213.49,-238.57"/>
<text text-anchor="middle" x="226" y="-260" font-family="Liberation Sans,Helvetica,Arial,sans-serif" font-size="10.00" fill="#002b36">output_1</text>
<text text-anchor="middle" x="226" y="-249" font-family="Liberation Sans,Helvetica,Arial,sans-serif" font-size="10.00" fill="#002b36">(4 values)</text>
</g>
<!-- generate_dataset&#45;&gt;X_train -->
<g id="edge7" class="edge">
<title>generate_dataset&#45;&gt;X_train</title>
<path fill="none" stroke="#002b36" d="M46.75,-478C42.38,-472.57 38.22,-466.39 35.5,-460 31.55,-450.7 29.63,-439.83 28.75,-430.09"/>
<polygon fill="#002b36" stroke="#002b36" points="32.24,-429.87 28.16,-420.1 25.26,-430.28 32.24,-429.87"/>
<text text-anchor="middle" x="57" y="-452" font-family="Liberation Sans,Helvetica,Arial,sans-serif" font-size="10.00" fill="#002b36">output_0</text>
<text text-anchor="middle" x="57" y="-441" font-family="Liberation Sans,Helvetica,Arial,sans-serif" font-size="10.00" fill="#002b36">(1 values)</text>
</g>
<!-- generate_dataset&#45;&gt;y_train -->
<g id="edge8" class="edge">
<title>generate_dataset&#45;&gt;y_train</title>
<path fill="none" stroke="#002b36" d="M73.19,-477.98C78.81,-464.07 86.51,-445.03 92.74,-429.61"/>
<polygon fill="#002b36" stroke="#002b36" points="96.09,-430.68 96.59,-420.1 89.6,-428.06 96.09,-430.68"/>
<text text-anchor="middle" x="111" y="-452" font-family="Liberation Sans,Helvetica,Arial,sans-serif" font-size="10.00" fill="#002b36">output_2</text>
<text text-anchor="middle" x="111" y="-441" font-family="Liberation Sans,Helvetica,Arial,sans-serif" font-size="10.00" fill="#002b36">(1 values)</text>
</g>
<!-- eval_model&#45;&gt;eval_acc -->
<g id="edge10" class="edge">
<title>eval_model&#45;&gt;eval_acc</title>
<path fill="none" stroke="#002b36" d="M112.5,-93.98C112.5,-80.34 112.5,-61.75 112.5,-46.5"/>
<polygon fill="#002b36" stroke="#002b36" points="116,-46.1 112.5,-36.1 109,-46.1 116,-46.1"/>
<text text-anchor="middle" x="134" y="-68" font-family="Liberation Sans,Helvetica,Arial,sans-serif" font-size="10.00" fill="#002b36">output_0</text>
<text text-anchor="middle" x="134" y="-57" font-family="Liberation Sans,Helvetica,Arial,sans-serif" font-size="10.00" fill="#002b36">(3 values)</text>
</g>
</g>
</svg>
