<?xml version="1.0" encoding="UTF-8" standalone="no"?>
<!DOCTYPE svg PUBLIC "-//W3C//DTD SVG 1.1//EN"
 "http://www.w3.org/Graphics/SVG/1.1/DTD/svg11.dtd">
<!-- Generated by graphviz version 2.50.0 (0)
 -->
<!-- Title: G Pages: 1 -->
<svg width="359pt" height="428pt"
 viewBox="0.00 0.00 359.00 428.00" xmlns="http://www.w3.org/2000/svg" xmlns:xlink="http://www.w3.org/1999/xlink">
<g id="graph0" class="graph" transform="scale(1 1) rotate(0) translate(4 424)">
<title>G</title>
<polygon fill="white" stroke="transparent" points="-4,4 -4,-424 355,-424 355,4 -4,4"/>
<!-- y_train -->
<g id="node1" class="node">
<title>y_train</title>
<path fill="none" stroke="#268bd2" d="M93,-420C93,-420 12,-420 12,-420 6,-420 0,-414 0,-408 0,-408 0,-396 0,-396 0,-390 6,-384 12,-384 12,-384 93,-384 93,-384 99,-384 105,-390 105,-396 105,-396 105,-408 105,-408 105,-414 99,-420 93,-420"/>
<text text-anchor="start" x="32.5" y="-404.4" font-family="Liberation Sans,Helvetica,Arial,sans-serif" font-weight="bold" font-size="12.00" fill="#002b36">y_train</text>
<text text-anchor="start" x="8" y="-394" font-family="Liberation Sans,Helvetica,Arial,sans-serif" font-size="10.00" fill="#268bd2">1 values (1 sources)</text>
</g>
<!-- train_model -->
<g id="node8" class="node">
<title>train_model</title>
<path fill="none" stroke="#dc322f" d="M209,-326C209,-326 142,-326 142,-326 136,-326 130,-320 130,-314 130,-314 130,-298 130,-298 130,-292 136,-286 142,-286 142,-286 209,-286 209,-286 215,-286 221,-292 221,-298 221,-298 221,-314 221,-314 221,-320 215,-326 209,-326"/>
<text text-anchor="start" x="141.5" y="-313.4" font-family="Liberation Sans,Helvetica,Arial,sans-serif" font-weight="bold" font-size="12.00" fill="#002b36">train_model</text>
<text text-anchor="start" x="138" y="-303" font-family="Liberation Sans,Helvetica,Arial,sans-serif" font-size="10.00" fill="#002b36">@op:train_model</text>
<text text-anchor="start" x="161" y="-293" font-family="Liberation Sans,Helvetica,Arial,sans-serif" font-size="10.00" fill="#dc322f">3 calls</text>
</g>
<!-- y_train&#45;&gt;train_model -->
<g id="edge5" class="edge">
<title>y_train&#45;&gt;train_model</title>
<path fill="none" stroke="#002b36" d="M74.77,-383.98C93.6,-369.59 120.84,-348.78 142.24,-332.42"/>
<polygon fill="#002b36" stroke="#002b36" points="144.61,-335.02 150.43,-326.16 140.36,-329.45 144.61,-335.02"/>
<text text-anchor="middle" x="147" y="-358" font-family="Liberation Sans,Helvetica,Arial,sans-serif" font-size="10.00" fill="#002b36">y_train</text>
<text text-anchor="middle" x="147" y="-347" font-family="Liberation Sans,Helvetica,Arial,sans-serif" font-size="10.00" fill="#002b36">(1 values)</text>
</g>
<!-- var_0 -->
<g id="node2" class="node">
<title>var_0</title>
<path fill="none" stroke="#268bd2" d="M160.5,-36C160.5,-36 90.5,-36 90.5,-36 84.5,-36 78.5,-30 78.5,-24 78.5,-24 78.5,-12 78.5,-12 78.5,-6 84.5,0 90.5,0 90.5,0 160.5,0 160.5,0 166.5,0 172.5,-6 172.5,-12 172.5,-12 172.5,-24 172.5,-24 172.5,-30 166.5,-36 160.5,-36"/>
<text text-anchor="start" x="109.5" y="-20.4" font-family="Liberation Sans,Helvetica,Arial,sans-serif" font-weight="bold" font-size="12.00" fill="#002b36">var_0</text>
<text text-anchor="start" x="86.5" y="-10" font-family="Liberation Sans,Helvetica,Arial,sans-serif" font-size="10.00" fill="#268bd2">3 values (3 sinks)</text>
</g>
<!-- n_estimators -->
<g id="node3" class="node">
<title>n_estimators</title>
<path fill="none" stroke="#268bd2" d="M216,-420C216,-420 135,-420 135,-420 129,-420 123,-414 123,-408 123,-408 123,-396 123,-396 123,-390 129,-384 135,-384 135,-384 216,-384 216,-384 222,-384 228,-390 228,-396 228,-396 228,-408 228,-408 228,-414 222,-420 216,-420"/>
<text text-anchor="start" x="138" y="-404.4" font-family="Liberation Sans,Helvetica,Arial,sans-serif" font-weight="bold" font-size="12.00" fill="#002b36">n_estimators</text>
<text text-anchor="start" x="131" y="-394" font-family="Liberation Sans,Helvetica,Arial,sans-serif" font-size="10.00" fill="#268bd2">2 values (2 sources)</text>
</g>
<!-- n_estimators&#45;&gt;train_model -->
<g id="edge4" class="edge">
<title>n_estimators&#45;&gt;train_model</title>
<path fill="none" stroke="#002b36" d="M175.5,-383.76C175.5,-370.5 175.5,-351.86 175.5,-336.27"/>
<polygon fill="#002b36" stroke="#002b36" points="179,-336.07 175.5,-326.07 172,-336.07 179,-336.07"/>
<text text-anchor="middle" x="204" y="-358" font-family="Liberation Sans,Helvetica,Arial,sans-serif" font-size="10.00" fill="#002b36">n_estimators</text>
<text text-anchor="middle" x="204" y="-347" font-family="Liberation Sans,Helvetica,Arial,sans-serif" font-size="10.00" fill="#002b36">(2 values)</text>
</g>
<!-- train_acc -->
<g id="node4" class="node">
<title>train_acc</title>
<path fill="none" stroke="#268bd2" d="M148,-228C148,-228 103,-228 103,-228 97,-228 91,-222 91,-216 91,-216 91,-204 91,-204 91,-198 97,-192 103,-192 103,-192 148,-192 148,-192 154,-192 160,-198 160,-204 160,-204 160,-216 160,-216 160,-222 154,-228 148,-228"/>
<text text-anchor="start" x="99" y="-212.4" font-family="Liberation Sans,Helvetica,Arial,sans-serif" font-weight="bold" font-size="12.00" fill="#002b36">train_acc</text>
<text text-anchor="start" x="107" y="-202" font-family="Liberation Sans,Helvetica,Arial,sans-serif" font-size="10.00" fill="#268bd2">3 values</text>
</g>
<!-- eval_model -->
<g id="node7" class="node">
<title>eval_model</title>
<path fill="none" stroke="#dc322f" d="M158.5,-134C158.5,-134 92.5,-134 92.5,-134 86.5,-134 80.5,-128 80.5,-122 80.5,-122 80.5,-106 80.5,-106 80.5,-100 86.5,-94 92.5,-94 92.5,-94 158.5,-94 158.5,-94 164.5,-94 170.5,-100 170.5,-106 170.5,-106 170.5,-122 170.5,-122 170.5,-128 164.5,-134 158.5,-134"/>
<text text-anchor="start" x="92.5" y="-121.4" font-family="Liberation Sans,Helvetica,Arial,sans-serif" font-weight="bold" font-size="12.00" fill="#002b36">eval_model</text>
<text text-anchor="start" x="88.5" y="-111" font-family="Liberation Sans,Helvetica,Arial,sans-serif" font-size="10.00" fill="#002b36">@op:eval_model</text>
<text text-anchor="start" x="111" y="-101" font-family="Liberation Sans,Helvetica,Arial,sans-serif" font-size="10.00" fill="#dc322f">3 calls</text>
</g>
<!-- train_acc&#45;&gt;eval_model -->
<g id="edge6" class="edge">
<title>train_acc&#45;&gt;eval_model</title>
<path fill="none" stroke="#002b36" d="M125.5,-191.76C125.5,-178.5 125.5,-159.86 125.5,-144.27"/>
<polygon fill="#002b36" stroke="#002b36" points="129,-144.07 125.5,-134.07 122,-144.07 129,-144.07"/>
<text text-anchor="middle" x="147" y="-166" font-family="Liberation Sans,Helvetica,Arial,sans-serif" font-size="10.00" fill="#002b36">model</text>
<text text-anchor="middle" x="147" y="-155" font-family="Liberation Sans,Helvetica,Arial,sans-serif" font-size="10.00" fill="#002b36">(3 values)</text>
</g>
<!-- model -->
<g id="node5" class="node">
<title>model</title>
<path fill="none" stroke="#268bd2" d="M260.5,-228C260.5,-228 190.5,-228 190.5,-228 184.5,-228 178.5,-222 178.5,-216 178.5,-216 178.5,-204 178.5,-204 178.5,-198 184.5,-192 190.5,-192 190.5,-192 260.5,-192 260.5,-192 266.5,-192 272.5,-198 272.5,-204 272.5,-204 272.5,-216 272.5,-216 272.5,-222 266.5,-228 260.5,-228"/>
<text text-anchor="start" x="207.5" y="-212.4" font-family="Liberation Sans,Helvetica,Arial,sans-serif" font-weight="bold" font-size="12.00" fill="#002b36">model</text>
<text text-anchor="start" x="186.5" y="-202" font-family="Liberation Sans,Helvetica,Arial,sans-serif" font-size="10.00" fill="#268bd2">3 values (3 sinks)</text>
</g>
<!-- X_train -->
<g id="node6" class="node">
<title>X_train</title>
<path fill="none" stroke="#268bd2" d="M339,-420C339,-420 258,-420 258,-420 252,-420 246,-414 246,-408 246,-408 246,-396 246,-396 246,-390 252,-384 258,-384 258,-384 339,-384 339,-384 345,-384 351,-390 351,-396 351,-396 351,-408 351,-408 351,-414 345,-420 339,-420"/>
<text text-anchor="start" x="278" y="-404.4" font-family="Liberation Sans,Helvetica,Arial,sans-serif" font-weight="bold" font-size="12.00" fill="#002b36">X_train</text>
<text text-anchor="start" x="254" y="-394" font-family="Liberation Sans,Helvetica,Arial,sans-serif" font-size="10.00" fill="#268bd2">1 values (1 sources)</text>
</g>
<!-- X_train&#45;&gt;train_model -->
<g id="edge3" class="edge">
<title>X_train&#45;&gt;train_model</title>
<path fill="none" stroke="#002b36" d="M281.67,-383.81C269.63,-371.96 252.75,-356.21 236.5,-344 230.71,-339.65 224.39,-335.36 218.08,-331.33"/>
<polygon fill="#002b36" stroke="#002b36" points="219.86,-328.32 209.52,-326.01 216.17,-334.26 219.86,-328.32"/>
<text text-anchor="middle" x="282" y="-358" font-family="Liberation Sans,Helvetica,Arial,sans-serif" font-size="10.00" fill="#002b36">X_train</text>
<text text-anchor="middle" x="282" y="-347" font-family="Liberation Sans,Helvetica,Arial,sans-serif" font-size="10.00" fill="#002b36">(1 values)</text>
</g>
<!-- eval_model&#45;&gt;var_0 -->
<g id="edge7" class="edge">
<title>eval_model&#45;&gt;var_0</title>
<path fill="none" stroke="#002b36" d="M125.5,-93.98C125.5,-80.34 125.5,-61.75 125.5,-46.5"/>
<polygon fill="#002b36" stroke="#002b36" points="129,-46.1 125.5,-36.1 122,-46.1 129,-46.1"/>
<text text-anchor="middle" x="147" y="-68" font-family="Liberation Sans,Helvetica,Arial,sans-serif" font-size="10.00" fill="#002b36">output_0</text>
<text text-anchor="middle" x="147" y="-57" font-family="Liberation Sans,Helvetica,Arial,sans-serif" font-size="10.00" fill="#002b36">(3 values)</text>
</g>
<!-- train_model&#45;&gt;train_acc -->
<g id="edge1" class="edge">
<title>train_model&#45;&gt;train_acc</title>
<path fill="none" stroke="#002b36" d="M165.38,-285.98C157.91,-271.94 147.66,-252.66 139.42,-237.17"/>
<polygon fill="#002b36" stroke="#002b36" points="142.38,-235.28 134.59,-228.1 136.2,-238.57 142.38,-235.28"/>
<text text-anchor="middle" x="176" y="-260" font-family="Liberation Sans,Helvetica,Arial,sans-serif" font-size="10.00" fill="#002b36">output_0</text>
<text text-anchor="middle" x="176" y="-249" font-family="Liberation Sans,Helvetica,Arial,sans-serif" font-size="10.00" fill="#002b36">(3 values)</text>
</g>
<!-- train_model&#45;&gt;model -->
<g id="edge2" class="edge">
<title>train_model&#45;&gt;model</title>
<path fill="none" stroke="#002b36" d="M190.07,-285.92C194.04,-280.31 198.15,-274.04 201.5,-268 206.79,-258.45 211.66,-247.49 215.61,-237.75"/>
<polygon fill="#002b36" stroke="#002b36" points="218.99,-238.74 219.38,-228.16 212.47,-236.19 218.99,-238.74"/>
<text text-anchor="middle" x="233" y="-260" font-family="Liberation Sans,Helvetica,Arial,sans-serif" font-size="10.00" fill="#002b36">output_1</text>
<text text-anchor="middle" x="233" y="-249" font-family="Liberation Sans,Helvetica,Arial,sans-serif" font-size="10.00" fill="#002b36">(3 values)</text>
</g>
</g>
</svg>
