<?xml version="1.0" encoding="UTF-8" standalone="no"?>
<!DOCTYPE svg PUBLIC "-//W3C//DTD SVG 1.1//EN"
 "http://www.w3.org/Graphics/SVG/1.1/DTD/svg11.dtd">
<!-- Generated by graphviz version 2.50.0 (0)
 -->
<!-- Title: G Pages: 1 -->
<svg width="263pt" height="428pt"
 viewBox="0.00 0.00 262.50 428.00" xmlns="http://www.w3.org/2000/svg" xmlns:xlink="http://www.w3.org/1999/xlink">
<g id="graph0" class="graph" transform="scale(1 1) rotate(0) translate(4 424)">
<title>G</title>
<polygon fill="white" stroke="transparent" points="-4,4 -4,-424 258.5,-424 258.5,4 -4,4"/>
<!-- model -->
<g id="node1" class="node">
<title>model</title>
<path fill="none" stroke="#268bd2" d="M82,-36C82,-36 12,-36 12,-36 6,-36 0,-30 0,-24 0,-24 0,-12 0,-12 0,-6 6,0 12,0 12,0 82,0 82,0 88,0 94,-6 94,-12 94,-12 94,-24 94,-24 94,-30 88,-36 82,-36"/>
<text text-anchor="start" x="29" y="-20.4" font-family="Liberation Sans,Helvetica,Arial,sans-serif" font-weight="bold" font-size="12.00" fill="#002b36">model</text>
<text text-anchor="start" x="8" y="-10" font-family="Liberation Sans,Helvetica,Arial,sans-serif" font-size="10.00" fill="#268bd2">3 values (3 sinks)</text>
</g>
<!-- y_train -->
<g id="node2" class="node">
<title>y_train</title>
<path fill="none" stroke="#268bd2" d="M44,-228C44,-228 12,-228 12,-228 6,-228 0,-222 0,-216 0,-216 0,-204 0,-204 0,-198 6,-192 12,-192 12,-192 44,-192 44,-192 50,-192 56,-198 56,-204 56,-204 56,-216 56,-216 56,-222 50,-228 44,-228"/>
<text text-anchor="start" x="8" y="-212.4" font-family="Liberation Sans,Helvetica,Arial,sans-serif" font-weight="bold" font-size="12.00" fill="#002b36">y_train</text>
<text text-anchor="start" x="9.5" y="-202" font-family="Liberation Sans,Helvetica,Arial,sans-serif" font-size="10.00" fill="#268bd2">1 values</text>
</g>
<!-- train_model -->
<g id="node7" class="node">
<title>train_model</title>
<path fill="none" stroke="#dc322f" d="M136.5,-134C136.5,-134 69.5,-134 69.5,-134 63.5,-134 57.5,-128 57.5,-122 57.5,-122 57.5,-106 57.5,-106 57.5,-100 63.5,-94 69.5,-94 69.5,-94 136.5,-94 136.5,-94 142.5,-94 148.5,-100 148.5,-106 148.5,-106 148.5,-122 148.5,-122 148.5,-128 142.5,-134 136.5,-134"/>
<text text-anchor="start" x="69" y="-121.4" font-family="Liberation Sans,Helvetica,Arial,sans-serif" font-weight="bold" font-size="12.00" fill="#002b36">train_model</text>
<text text-anchor="start" x="65.5" y="-111" font-family="Liberation Sans,Helvetica,Arial,sans-serif" font-size="10.00" fill="#002b36">@op:train_model</text>
<text text-anchor="start" x="88.5" y="-101" font-family="Liberation Sans,Helvetica,Arial,sans-serif" font-size="10.00" fill="#dc322f">3 calls</text>
</g>
<!-- y_train&#45;&gt;train_model -->
<g id="edge5" class="edge">
<title>y_train&#45;&gt;train_model</title>
<path fill="none" stroke="#002b36" d="M34.06,-191.89C38.83,-179.92 46.29,-164 56,-152 59.1,-148.17 62.67,-144.48 66.43,-141.02"/>
<polygon fill="#002b36" stroke="#002b36" points="69,-143.43 74.31,-134.26 64.44,-138.11 69,-143.43"/>
<text text-anchor="middle" x="77.5" y="-166" font-family="Liberation Sans,Helvetica,Arial,sans-serif" font-size="10.00" fill="#002b36">y_train</text>
<text text-anchor="middle" x="77.5" y="-155" font-family="Liberation Sans,Helvetica,Arial,sans-serif" font-size="10.00" fill="#002b36">(1 values)</text>
</g>
<!-- X_train -->
<g id="node3" class="node">
<title>X_train</title>
<path fill="none" stroke="#268bd2" d="M119.5,-228C119.5,-228 86.5,-228 86.5,-228 80.5,-228 74.5,-222 74.5,-216 74.5,-216 74.5,-204 74.5,-204 74.5,-198 80.5,-192 86.5,-192 86.5,-192 119.5,-192 119.5,-192 125.5,-192 131.5,-198 131.5,-204 131.5,-204 131.5,-216 131.5,-216 131.5,-222 125.5,-228 119.5,-228"/>
<text text-anchor="start" x="82.5" y="-212.4" font-family="Liberation Sans,Helvetica,Arial,sans-serif" font-weight="bold" font-size="12.00" fill="#002b36">X_train</text>
<text text-anchor="start" x="84.5" y="-202" font-family="Liberation Sans,Helvetica,Arial,sans-serif" font-size="10.00" fill="#268bd2">1 values</text>
</g>
<!-- X_train&#45;&gt;train_model -->
<g id="edge3" class="edge">
<title>X_train&#45;&gt;train_model</title>
<path fill="none" stroke="#002b36" d="M103,-191.76C103,-178.5 103,-159.86 103,-144.27"/>
<polygon fill="#002b36" stroke="#002b36" points="106.5,-144.07 103,-134.07 99.5,-144.07 106.5,-144.07"/>
<text text-anchor="middle" x="124.5" y="-166" font-family="Liberation Sans,Helvetica,Arial,sans-serif" font-size="10.00" fill="#002b36">X_train</text>
<text text-anchor="middle" x="124.5" y="-155" font-family="Liberation Sans,Helvetica,Arial,sans-serif" font-size="10.00" fill="#002b36">(1 values)</text>
</g>
<!-- n_estimators -->
<g id="node4" class="node">
<title>n_estimators</title>
<path fill="none" stroke="#268bd2" d="M242.5,-228C242.5,-228 161.5,-228 161.5,-228 155.5,-228 149.5,-222 149.5,-216 149.5,-216 149.5,-204 149.5,-204 149.5,-198 155.5,-192 161.5,-192 161.5,-192 242.5,-192 242.5,-192 248.5,-192 254.5,-198 254.5,-204 254.5,-204 254.5,-216 254.5,-216 254.5,-222 248.5,-228 242.5,-228"/>
<text text-anchor="start" x="164.5" y="-212.4" font-family="Liberation Sans,Helvetica,Arial,sans-serif" font-weight="bold" font-size="12.00" fill="#002b36">n_estimators</text>
<text text-anchor="start" x="157.5" y="-202" font-family="Liberation Sans,Helvetica,Arial,sans-serif" font-size="10.00" fill="#268bd2">2 values (2 sources)</text>
</g>
<!-- n_estimators&#45;&gt;train_model -->
<g id="edge4" class="edge">
<title>n_estimators&#45;&gt;train_model</title>
<path fill="none" stroke="#002b36" d="M187.67,-191.86C177.59,-180.17 163.54,-164.59 150,-152 145.91,-148.2 141.47,-144.36 137,-140.67"/>
<polygon fill="#002b36" stroke="#002b36" points="138.98,-137.78 129,-134.23 134.59,-143.23 138.98,-137.78"/>
<text text-anchor="middle" x="198.5" y="-166" font-family="Liberation Sans,Helvetica,Arial,sans-serif" font-size="10.00" fill="#002b36">n_estimators</text>
<text text-anchor="middle" x="198.5" y="-155" font-family="Liberation Sans,Helvetica,Arial,sans-serif" font-size="10.00" fill="#002b36">(2 values)</text>
</g>
<!-- train_acc -->
<g id="node5" class="node">
<title>train_acc</title>
<path fill="none" stroke="#268bd2" d="M194,-36C194,-36 124,-36 124,-36 118,-36 112,-30 112,-24 112,-24 112,-12 112,-12 112,-6 118,0 124,0 124,0 194,0 194,0 200,0 206,-6 206,-12 206,-12 206,-24 206,-24 206,-30 200,-36 194,-36"/>
<text text-anchor="start" x="132.5" y="-20.4" font-family="Liberation Sans,Helvetica,Arial,sans-serif" font-weight="bold" font-size="12.00" fill="#002b36">train_acc</text>
<text text-anchor="start" x="120" y="-10" font-family="Liberation Sans,Helvetica,Arial,sans-serif" font-size="10.00" fill="#268bd2">3 values (3 sinks)</text>
</g>
<!-- random_seed -->
<g id="node6" class="node">
<title>random_seed</title>
<path fill="none" stroke="#268bd2" d="M105.5,-420C105.5,-420 24.5,-420 24.5,-420 18.5,-420 12.5,-414 12.5,-408 12.5,-408 12.5,-396 12.5,-396 12.5,-390 18.5,-384 24.5,-384 24.5,-384 105.5,-384 105.5,-384 111.5,-384 117.5,-390 117.5,-396 117.5,-396 117.5,-408 117.5,-408 117.5,-414 111.5,-420 105.5,-420"/>
<text text-anchor="start" x="25.5" y="-404.4" font-family="Liberation Sans,Helvetica,Arial,sans-serif" font-weight="bold" font-size="12.00" fill="#002b36">random_seed</text>
<text text-anchor="start" x="20.5" y="-394" font-family="Liberation Sans,Helvetica,Arial,sans-serif" font-size="10.00" fill="#268bd2">1 values (1 sources)</text>
</g>
<!-- generate_dataset -->
<g id="node8" class="node">
<title>generate_dataset</title>
<path fill="none" stroke="#dc322f" d="M111,-326C111,-326 19,-326 19,-326 13,-326 7,-320 7,-314 7,-314 7,-298 7,-298 7,-292 13,-286 19,-286 19,-286 111,-286 111,-286 117,-286 123,-292 123,-298 123,-298 123,-314 123,-314 123,-320 117,-326 111,-326"/>
<text text-anchor="start" x="15" y="-313.4" font-family="Liberation Sans,Helvetica,Arial,sans-serif" font-weight="bold" font-size="12.00" fill="#002b36">generate_dataset</text>
<text text-anchor="start" x="15" y="-303" font-family="Liberation Sans,Helvetica,Arial,sans-serif" font-size="10.00" fill="#002b36">@op:generate_dataset</text>
<text text-anchor="start" x="50.5" y="-293" font-family="Liberation Sans,Helvetica,Arial,sans-serif" font-size="10.00" fill="#dc322f">1 calls</text>
</g>
<!-- random_seed&#45;&gt;generate_dataset -->
<g id="edge8" class="edge">
<title>random_seed&#45;&gt;generate_dataset</title>
<path fill="none" stroke="#002b36" d="M65,-383.76C65,-370.5 65,-351.86 65,-336.27"/>
<polygon fill="#002b36" stroke="#002b36" points="68.5,-336.07 65,-326.07 61.5,-336.07 68.5,-336.07"/>
<text text-anchor="middle" x="94.5" y="-358" font-family="Liberation Sans,Helvetica,Arial,sans-serif" font-size="10.00" fill="#002b36">random_seed</text>
<text text-anchor="middle" x="94.5" y="-347" font-family="Liberation Sans,Helvetica,Arial,sans-serif" font-size="10.00" fill="#002b36">(1 values)</text>
</g>
<!-- train_model&#45;&gt;model -->
<g id="edge2" class="edge">
<title>train_model&#45;&gt;model</title>
<path fill="none" stroke="#002b36" d="M89.41,-93.64C85.6,-88.02 81.54,-81.83 78,-76 71.97,-66.08 65.77,-54.91 60.52,-45.1"/>
<polygon fill="#002b36" stroke="#002b36" points="63.58,-43.4 55.8,-36.2 57.39,-46.68 63.58,-43.4"/>
<text text-anchor="middle" x="99.5" y="-68" font-family="Liberation Sans,Helvetica,Arial,sans-serif" font-size="10.00" fill="#002b36">output_1</text>
<text text-anchor="middle" x="99.5" y="-57" font-family="Liberation Sans,Helvetica,Arial,sans-serif" font-size="10.00" fill="#002b36">(3 values)</text>
</g>
<!-- train_model&#45;&gt;train_acc -->
<g id="edge1" class="edge">
<title>train_model&#45;&gt;train_acc</title>
<path fill="none" stroke="#002b36" d="M114.33,-93.98C122.77,-79.81 134.4,-60.3 143.67,-44.74"/>
<polygon fill="#002b36" stroke="#002b36" points="146.7,-46.48 148.81,-36.1 140.69,-42.9 146.7,-46.48"/>
<text text-anchor="middle" x="158.5" y="-68" font-family="Liberation Sans,Helvetica,Arial,sans-serif" font-size="10.00" fill="#002b36">output_0</text>
<text text-anchor="middle" x="158.5" y="-57" font-family="Liberation Sans,Helvetica,Arial,sans-serif" font-size="10.00" fill="#002b36">(3 values)</text>
</g>
<!-- generate_dataset&#45;&gt;y_train -->
<g id="edge7" class="edge">
<title>generate_dataset&#45;&gt;y_train</title>
<path fill="none" stroke="#002b36" d="M46.25,-286C41.88,-280.57 37.72,-274.39 35,-268 31.05,-258.7 29.13,-247.83 28.25,-238.09"/>
<polygon fill="#002b36" stroke="#002b36" points="31.74,-237.87 27.66,-228.1 24.76,-238.28 31.74,-237.87"/>
<text text-anchor="middle" x="56.5" y="-260" font-family="Liberation Sans,Helvetica,Arial,sans-serif" font-size="10.00" fill="#002b36">output_2</text>
<text text-anchor="middle" x="56.5" y="-249" font-family="Liberation Sans,Helvetica,Arial,sans-serif" font-size="10.00" fill="#002b36">(1 values)</text>
</g>
<!-- generate_dataset&#45;&gt;X_train -->
<g id="edge6" class="edge">
<title>generate_dataset&#45;&gt;X_train</title>
<path fill="none" stroke="#002b36" d="M72.69,-285.98C78.31,-272.07 86.01,-253.03 92.24,-237.61"/>
<polygon fill="#002b36" stroke="#002b36" points="95.59,-238.68 96.09,-228.1 89.1,-236.06 95.59,-238.68"/>
<text text-anchor="middle" x="109.5" y="-260" font-family="Liberation Sans,Helvetica,Arial,sans-serif" font-size="10.00" fill="#002b36">output_0</text>
<text text-anchor="middle" x="109.5" y="-249" font-family="Liberation Sans,Helvetica,Arial,sans-serif" font-size="10.00" fill="#002b36">(1 values)</text>
</g>
</g>
</svg>
