<?xml version="1.0" encoding="UTF-8" standalone="no"?>
<!DOCTYPE svg PUBLIC "-//W3C//DTD SVG 1.1//EN"
 "http://www.w3.org/Graphics/SVG/1.1/DTD/svg11.dtd">
<!-- Generated by graphviz version 2.50.0 (0)
 -->
<!-- Title: G Pages: 1 -->
<svg width="359pt" height="428pt"
 viewBox="0.00 0.00 359.00 428.00" xmlns="http://www.w3.org/2000/svg" xmlns:xlink="http://www.w3.org/1999/xlink">
<g id="graph0" class="graph" transform="scale(1 1) rotate(0) translate(4 424)">
<title>G</title>
<polygon fill="white" stroke="transparent" points="-4,4 -4,-424 355,-424 355,4 -4,4"/>
<!-- model -->
<g id="node1" class="node">
<title>model</title>
<path fill="none" stroke="#268bd2" d="M177.5,-228C177.5,-228 107.5,-228 107.5,-228 101.5,-228 95.5,-222 95.5,-216 95.5,-216 95.5,-204 95.5,-204 95.5,-198 101.5,-192 107.5,-192 107.5,-192 177.5,-192 177.5,-192 183.5,-192 189.5,-198 189.5,-204 189.5,-204 189.5,-216 189.5,-216 189.5,-222 183.5,-228 177.5,-228"/>
<text text-anchor="start" x="124.5" y="-212.4" font-family="Liberation Sans,Helvetica,Arial,sans-serif" font-weight="bold" font-size="12.00" fill="#002b36">model</text>
<text text-anchor="start" x="103.5" y="-202" font-family="Liberation Sans,Helvetica,Arial,sans-serif" font-size="10.00" fill="#268bd2">3 values (3 sinks)</text>
</g>
<!-- y_train -->
<g id="node2" class="node">
<title>y_train</title>
<path fill="none" stroke="#268bd2" d="M93,-420C93,-420 12,-420 12,-420 6,-420 0,-414 0,-408 0,-408 0,-396 0,-396 0,-390 6,-384 12,-384 12,-384 93,-384 93,-384 99,-384 105,-390 105,-396 105,-396 105,-408 105,-408 105,-414 99,-420 93,-420"/>
<text text-anchor="start" x="32.5" y="-404.4" font-family="Liberation Sans,Helvetica,Arial,sans-serif" font-weight="bold" font-size="12.00" fill="#002b36">y_train</text>
<text text-anchor="start" x="8" y="-394" font-family="Liberation Sans,Helvetica,Arial,sans-serif" font-size="10.00" fill="#268bd2">1 values (1 sources)</text>
</g>
<!-- train_model -->
<g id="node8" class="node">
<title>train_model</title>
<path fill="none" stroke="#dc322f" d="M209,-326C209,-326 142,-326 142,-326 136,-326 130,-320 130,-314 130,-314 130,-298 130,-298 130,-292 136,-286 142,-286 142,-286 209,-286 209,-286 215,-286 221,-292 221,-298 221,-298 221,-314 221,-314 221,-320 215,-326 209,-326"/>
<text text-anchor="start" x="141.5" y="-313.4" font-family="Liberation Sans,Helvetica,Arial,sans-serif" font-weight="bold" font-size="12.00" fill="#002b36">train_model</text>
<text text-anchor="start" x="138" y="-303" font-family="Liberation Sans,Helvetica,Arial,sans-serif" font-size="10.00" fill="#002b36">@op:train_model</text>
<text text-anchor="start" x="161" y="-293" font-family="Liberation Sans,Helvetica,Arial,sans-serif" font-size="10.00" fill="#dc322f">3 calls</text>
</g>
<!-- y_train&#45;&gt;train_model -->
<g id="edge5" class="edge">
<title>y_train&#45;&gt;train_model</title>
<path fill="none" stroke="#002b36" d="M74.77,-383.98C93.6,-369.59 120.84,-348.78 142.24,-332.42"/>
<polygon fill="#002b36" stroke="#002b36" points="144.61,-335.02 150.43,-326.16 140.36,-329.45 144.61,-335.02"/>
<text text-anchor="middle" x="147" y="-358" font-family="Liberation Sans,Helvetica,Arial,sans-serif" font-size="10.00" fill="#002b36">y_train</text>
<text text-anchor="middle" x="147" y="-347" font-family="Liberation Sans,Helvetica,Arial,sans-serif" font-size="10.00" fill="#002b36">(1 values)</text>
</g>
<!-- X_train -->
<g id="node3" class="node">
<title>X_train</title>
<path fill="none" stroke="#268bd2" d="M216,-420C216,-420 135,-420 135,-420 129,-420 123,-414 123,-408 123,-408 123,-396 123,-396 123,-390 129,-384 135,-384 135,-384 216,-384 216,-384 222,-384 228,-390 228,-396 228,-396 228,-408 228,-408 228,-414 222,-420 216,-420"/>
<text text-anchor="start" x="155" y="-404.4" font-family="Liberation Sans,Helvetica,Arial,sans-serif" font-weight="bold" font-size="12.00" fill="#002b36">X_train</text>
<text text-anchor="start" x="131" y="-394" font-family="Liberation Sans,Helvetica,Arial,sans-serif" font-size="10.00" fill="#268bd2">1 values (1 sources)</text>
</g>
<!-- X_train&#45;&gt;train_model -->
<g id="edge3" class="edge">
<title>X_train&#45;&gt;train_model</title>
<path fill="none" stroke="#002b36" d="M175.5,-383.76C175.5,-370.5 175.5,-351.86 175.5,-336.27"/>
<polygon fill="#002b36" stroke="#002b36" points="179,-336.07 175.5,-326.07 172,-336.07 179,-336.07"/>
<text text-anchor="middle" x="197" y="-358" font-family="Liberation Sans,Helvetica,Arial,sans-serif" font-size="10.00" fill="#002b36">X_train</text>
<text text-anchor="middle" x="197" y="-347" font-family="Liberation Sans,Helvetica,Arial,sans-serif" font-size="10.00" fill="#002b36">(1 values)</text>
</g>
<!-- n_estimators -->
<g id="node4" class="node">
<title>n_estimators</title>
<path fill="none" stroke="#268bd2" d="M339,-420C339,-420 258,-420 258,-420 252,-420 246,-414 246,-408 246,-408 246,-396 246,-396 246,-390 252,-384 258,-384 258,-384 339,-384 339,-384 345,-384 351,-390 351,-396 351,-396 351,-408 351,-408 351,-414 345,-420 339,-420"/>
<text text-anchor="start" x="261" y="-404.4" font-family="Liberation Sans,Helvetica,Arial,sans-serif" font-weight="bold" font-size="12.00" fill="#002b36">n_estimators</text>
<text text-anchor="start" x="254" y="-394" font-family="Liberation Sans,Helvetica,Arial,sans-serif" font-size="10.00" fill="#268bd2">2 values (2 sources)</text>
</g>
<!-- n_estimators&#45;&gt;train_model -->
<g id="edge4" class="edge">
<title>n_estimators&#45;&gt;train_model</title>
<path fill="none" stroke="#002b36" d="M276.23,-383.98C257.4,-369.59 230.16,-348.78 208.76,-332.42"/>
<polygon fill="#002b36" stroke="#002b36" points="210.64,-329.45 200.57,-326.16 206.39,-335.02 210.64,-329.45"/>
<text text-anchor="middle" x="280" y="-358" font-family="Liberation Sans,Helvetica,Arial,sans-serif" font-size="10.00" fill="#002b36">n_estimators</text>
<text text-anchor="middle" x="280" y="-347" font-family="Liberation Sans,Helvetica,Arial,sans-serif" font-size="10.00" fill="#002b36">(2 values)</text>
</g>
<!-- train_acc -->
<g id="node5" class="node">
<title>train_acc</title>
<path fill="none" stroke="#268bd2" d="M265,-228C265,-228 220,-228 220,-228 214,-228 208,-222 208,-216 208,-216 208,-204 208,-204 208,-198 214,-192 220,-192 220,-192 265,-192 265,-192 271,-192 277,-198 277,-204 277,-204 277,-216 277,-216 277,-222 271,-228 265,-228"/>
<text text-anchor="start" x="216" y="-212.4" font-family="Liberation Sans,Helvetica,Arial,sans-serif" font-weight="bold" font-size="12.00" fill="#002b36">train_acc</text>
<text text-anchor="start" x="224" y="-202" font-family="Liberation Sans,Helvetica,Arial,sans-serif" font-size="10.00" fill="#268bd2">3 values</text>
</g>
<!-- eval_model -->
<g id="node7" class="node">
<title>eval_model</title>
<path fill="none" stroke="#dc322f" d="M275.5,-134C275.5,-134 209.5,-134 209.5,-134 203.5,-134 197.5,-128 197.5,-122 197.5,-122 197.5,-106 197.5,-106 197.5,-100 203.5,-94 209.5,-94 209.5,-94 275.5,-94 275.5,-94 281.5,-94 287.5,-100 287.5,-106 287.5,-106 287.5,-122 287.5,-122 287.5,-128 281.5,-134 275.5,-134"/>
<text text-anchor="start" x="209.5" y="-121.4" font-family="Liberation Sans,Helvetica,Arial,sans-serif" font-weight="bold" font-size="12.00" fill="#002b36">eval_model</text>
<text text-anchor="start" x="205.5" y="-111" font-family="Liberation Sans,Helvetica,Arial,sans-serif" font-size="10.00" fill="#002b36">@op:eval_model</text>
<text text-anchor="start" x="228" y="-101" font-family="Liberation Sans,Helvetica,Arial,sans-serif" font-size="10.00" fill="#dc322f">3 calls</text>
</g>
<!-- train_acc&#45;&gt;eval_model -->
<g id="edge6" class="edge">
<title>train_acc&#45;&gt;eval_model</title>
<path fill="none" stroke="#002b36" d="M242.5,-191.76C242.5,-178.5 242.5,-159.86 242.5,-144.27"/>
<polygon fill="#002b36" stroke="#002b36" points="246,-144.07 242.5,-134.07 239,-144.07 246,-144.07"/>
<text text-anchor="middle" x="264" y="-166" font-family="Liberation Sans,Helvetica,Arial,sans-serif" font-size="10.00" fill="#002b36">model</text>
<text text-anchor="middle" x="264" y="-155" font-family="Liberation Sans,Helvetica,Arial,sans-serif" font-size="10.00" fill="#002b36">(3 values)</text>
</g>
<!-- var_0 -->
<g id="node6" class="node">
<title>var_0</title>
<path fill="none" stroke="#268bd2" d="M277.5,-36C277.5,-36 207.5,-36 207.5,-36 201.5,-36 195.5,-30 195.5,-24 195.5,-24 195.5,-12 195.5,-12 195.5,-6 201.5,0 207.5,0 207.5,0 277.5,0 277.5,0 283.5,0 289.5,-6 289.5,-12 289.5,-12 289.5,-24 289.5,-24 289.5,-30 283.5,-36 277.5,-36"/>
<text text-anchor="start" x="226.5" y="-20.4" font-family="Liberation Sans,Helvetica,Arial,sans-serif" font-weight="bold" font-size="12.00" fill="#002b36">var_0</text>
<text text-anchor="start" x="203.5" y="-10" font-family="Liberation Sans,Helvetica,Arial,sans-serif" font-size="10.00" fill="#268bd2">3 values (3 sinks)</text>
</g>
<!-- eval_model&#45;&gt;var_0 -->
<g id="edge7" class="edge">
<title>eval_model&#45;&gt;var_0</title>
<path fill="none" stroke="#002b36" d="M242.5,-93.98C242.5,-80.34 242.5,-61.75 242.5,-46.5"/>
<polygon fill="#002b36" stroke="#002b36" points="246,-46.1 242.5,-36.1 239,-46.1 246,-46.1"/>
<text text-anchor="middle" x="264" y="-68" font-family="Liberation Sans,Helvetica,Arial,sans-serif" font-size="10.00" fill="#002b36">output_0</text>
<text text-anchor="middle" x="264" y="-57" font-family="Liberation Sans,Helvetica,Arial,sans-serif" font-size="10.00" fill="#002b36">(3 values)</text>
</g>
<!-- train_model&#45;&gt;model -->
<g id="edge2" class="edge">
<title>train_model&#45;&gt;model</title>
<path fill="none" stroke="#002b36" d="M167.42,-285.91C165.09,-280.19 162.61,-273.87 160.5,-268 156.99,-258.25 153.48,-247.43 150.5,-237.86"/>
<polygon fill="#002b36" stroke="#002b36" points="153.78,-236.62 147.51,-228.08 147.09,-238.66 153.78,-236.62"/>
<text text-anchor="middle" x="182" y="-260" font-family="Liberation Sans,Helvetica,Arial,sans-serif" font-size="10.00" fill="#002b36">output_1</text>
<text text-anchor="middle" x="182" y="-249" font-family="Liberation Sans,Helvetica,Arial,sans-serif" font-size="10.00" fill="#002b36">(3 values)</text>
</g>
<!-- train_model&#45;&gt;train_acc -->
<g id="edge1" class="edge">
<title>train_model&#45;&gt;train_acc</title>
<path fill="none" stroke="#002b36" d="M190.21,-285.93C194.55,-280.2 199.26,-273.88 203.5,-268 210.79,-257.87 218.61,-246.55 225.31,-236.68"/>
<polygon fill="#002b36" stroke="#002b36" points="228.4,-238.35 231.11,-228.11 222.61,-234.43 228.4,-238.35"/>
<text text-anchor="middle" x="241" y="-260" font-family="Liberation Sans,Helvetica,Arial,sans-serif" font-size="10.00" fill="#002b36">output_0</text>
<text text-anchor="middle" x="241" y="-249" font-family="Liberation Sans,Helvetica,Arial,sans-serif" font-size="10.00" fill="#002b36">(3 values)</text>
</g>
</g>
</svg>
