<?xml version="1.0" encoding="UTF-8" standalone="no"?>
<!DOCTYPE svg PUBLIC "-//W3C//DTD SVG 1.1//EN"
 "http://www.w3.org/Graphics/SVG/1.1/DTD/svg11.dtd">
<!-- Generated by graphviz version 2.50.0 (0)
 -->
<!-- Title: G Pages: 1 -->
<svg width="263pt" height="428pt"
 viewBox="0.00 0.00 263.00 428.00" xmlns="http://www.w3.org/2000/svg" xmlns:xlink="http://www.w3.org/1999/xlink">
<g id="graph0" class="graph" transform="scale(1 1) rotate(0) translate(4 424)">
<title>G</title>
<polygon fill="white" stroke="transparent" points="-4,4 -4,-424 259,-424 259,4 -4,4"/>
<!-- train_acc -->
<g id="node1" class="node">
<title>train_acc</title>
<path fill="none" stroke="#268bd2" stroke-width="1.5" d="M130.5,-36C130.5,-36 60.5,-36 60.5,-36 54.5,-36 48.5,-30 48.5,-24 48.5,-24 48.5,-12 48.5,-12 48.5,-6 54.5,0 60.5,0 60.5,0 130.5,0 130.5,0 136.5,0 142.5,-6 142.5,-12 142.5,-12 142.5,-24 142.5,-24 142.5,-30 136.5,-36 130.5,-36"/>
<text text-anchor="start" x="69" y="-20.4" font-family="Liberation Sans,Helvetica,Arial,sans-serif" font-weight="bold" font-size="12.00" fill="#002b36">train_acc</text>
<text text-anchor="start" x="56.5" y="-10" font-family="Liberation Sans,Helvetica,Arial,sans-serif" font-size="10.00" fill="#268bd2">3 values (3 sinks)</text>
</g>
<!-- random_seed -->
<g id="node2" class="node">
<title>random_seed</title>
<path fill="none" stroke="#268bd2" stroke-width="1.5" d="M229,-420C229,-420 148,-420 148,-420 142,-420 136,-414 136,-408 136,-408 136,-396 136,-396 136,-390 142,-384 148,-384 148,-384 229,-384 229,-384 235,-384 241,-390 241,-396 241,-396 241,-408 241,-408 241,-414 235,-420 229,-420"/>
<text text-anchor="start" x="149" y="-404.4" font-family="Liberation Sans,Helvetica,Arial,sans-serif" font-weight="bold" font-size="12.00" fill="#002b36">random_seed</text>
<text text-anchor="start" x="144" y="-394" font-family="Liberation Sans,Helvetica,Arial,sans-serif" font-size="10.00" fill="#268bd2">1 values (1 sources)</text>
</g>
<!-- generate_dataset -->
<g id="node8" class="node">
<title>generate_dataset</title>
<path fill="none" stroke="#dc322f" stroke-width="1.5" d="M234.5,-326C234.5,-326 142.5,-326 142.5,-326 136.5,-326 130.5,-320 130.5,-314 130.5,-314 130.5,-298 130.5,-298 130.5,-292 136.5,-286 142.5,-286 142.5,-286 234.5,-286 234.5,-286 240.5,-286 246.5,-292 246.5,-298 246.5,-298 246.5,-314 246.5,-314 246.5,-320 240.5,-326 234.5,-326"/>
<text text-anchor="start" x="138.5" y="-313.4" font-family="Liberation Sans,Helvetica,Arial,sans-serif" font-weight="bold" font-size="12.00" fill="#002b36">generate_dataset</text>
<text text-anchor="start" x="138.5" y="-303" font-family="Liberation Sans,Helvetica,Arial,sans-serif" font-size="10.00" fill="#002b36">@op:generate_dataset</text>
<text text-anchor="start" x="174" y="-293" font-family="Liberation Sans,Helvetica,Arial,sans-serif" font-size="10.00" fill="#dc322f">1 calls</text>
</g>
<!-- random_seed&#45;&gt;generate_dataset -->
<g id="edge8" class="edge">
<title>random_seed&#45;&gt;generate_dataset</title>
<path fill="none" stroke="#002b36" d="M188.5,-383.76C188.5,-370.5 188.5,-351.86 188.5,-336.27"/>
<polygon fill="#002b36" stroke="#002b36" points="192,-336.07 188.5,-326.07 185,-336.07 192,-336.07"/>
<text text-anchor="middle" x="218" y="-358" font-family="Liberation Sans,Helvetica,Arial,sans-serif" font-size="10.00" fill="#002b36">random_seed</text>
<text text-anchor="middle" x="218" y="-347" font-family="Liberation Sans,Helvetica,Arial,sans-serif" font-size="10.00" fill="#002b36">(1 values)</text>
</g>
<!-- n_estimators -->
<g id="node3" class="node">
<title>n_estimators</title>
<path fill="none" stroke="#268bd2" stroke-width="1.5" d="M93,-228C93,-228 12,-228 12,-228 6,-228 0,-222 0,-216 0,-216 0,-204 0,-204 0,-198 6,-192 12,-192 12,-192 93,-192 93,-192 99,-192 105,-198 105,-204 105,-204 105,-216 105,-216 105,-222 99,-228 93,-228"/>
<text text-anchor="start" x="15" y="-212.4" font-family="Liberation Sans,Helvetica,Arial,sans-serif" font-weight="bold" font-size="12.00" fill="#002b36">n_estimators</text>
<text text-anchor="start" x="8" y="-202" font-family="Liberation Sans,Helvetica,Arial,sans-serif" font-size="10.00" fill="#268bd2">2 values (2 sources)</text>
</g>
<!-- train_model -->
<g id="node7" class="node">
<title>train_model</title>
<path fill="none" stroke="#dc322f" stroke-width="1.5" d="M185,-134C185,-134 118,-134 118,-134 112,-134 106,-128 106,-122 106,-122 106,-106 106,-106 106,-100 112,-94 118,-94 118,-94 185,-94 185,-94 191,-94 197,-100 197,-106 197,-106 197,-122 197,-122 197,-128 191,-134 185,-134"/>
<text text-anchor="start" x="117.5" y="-121.4" font-family="Liberation Sans,Helvetica,Arial,sans-serif" font-weight="bold" font-size="12.00" fill="#002b36">train_model</text>
<text text-anchor="start" x="114" y="-111" font-family="Liberation Sans,Helvetica,Arial,sans-serif" font-size="10.00" fill="#002b36">@op:train_model</text>
<text text-anchor="start" x="137" y="-101" font-family="Liberation Sans,Helvetica,Arial,sans-serif" font-size="10.00" fill="#dc322f">3 calls</text>
</g>
<!-- n_estimators&#45;&gt;train_model -->
<g id="edge4" class="edge">
<title>n_estimators&#45;&gt;train_model</title>
<path fill="none" stroke="#002b36" d="M61.28,-191.85C68.09,-179.71 78.39,-163.6 90.5,-152 95.08,-147.61 100.26,-143.5 105.63,-139.73"/>
<polygon fill="#002b36" stroke="#002b36" points="107.75,-142.53 114.16,-134.09 103.88,-136.69 107.75,-142.53"/>
<text text-anchor="middle" x="119" y="-166" font-family="Liberation Sans,Helvetica,Arial,sans-serif" font-size="10.00" fill="#002b36">n_estimators</text>
<text text-anchor="middle" x="119" y="-155" font-family="Liberation Sans,Helvetica,Arial,sans-serif" font-size="10.00" fill="#002b36">(2 values)</text>
</g>
<!-- y_train -->
<g id="node4" class="node">
<title>y_train</title>
<path fill="none" stroke="#268bd2" stroke-width="1.5" d="M167.5,-228C167.5,-228 135.5,-228 135.5,-228 129.5,-228 123.5,-222 123.5,-216 123.5,-216 123.5,-204 123.5,-204 123.5,-198 129.5,-192 135.5,-192 135.5,-192 167.5,-192 167.5,-192 173.5,-192 179.5,-198 179.5,-204 179.5,-204 179.5,-216 179.5,-216 179.5,-222 173.5,-228 167.5,-228"/>
<text text-anchor="start" x="131.5" y="-212.4" font-family="Liberation Sans,Helvetica,Arial,sans-serif" font-weight="bold" font-size="12.00" fill="#002b36">y_train</text>
<text text-anchor="start" x="133" y="-202" font-family="Liberation Sans,Helvetica,Arial,sans-serif" font-size="10.00" fill="#268bd2">1 values</text>
</g>
<!-- y_train&#45;&gt;train_model -->
<g id="edge5" class="edge">
<title>y_train&#45;&gt;train_model</title>
<path fill="none" stroke="#002b36" d="M151.5,-191.76C151.5,-178.5 151.5,-159.86 151.5,-144.27"/>
<polygon fill="#002b36" stroke="#002b36" points="155,-144.07 151.5,-134.07 148,-144.07 155,-144.07"/>
<text text-anchor="middle" x="173" y="-166" font-family="Liberation Sans,Helvetica,Arial,sans-serif" font-size="10.00" fill="#002b36">y_train</text>
<text text-anchor="middle" x="173" y="-155" font-family="Liberation Sans,Helvetica,Arial,sans-serif" font-size="10.00" fill="#002b36">(1 values)</text>
</g>
<!-- X_train -->
<g id="node5" class="node">
<title>X_train</title>
<path fill="none" stroke="#268bd2" stroke-width="1.5" d="M243,-228C243,-228 210,-228 210,-228 204,-228 198,-222 198,-216 198,-216 198,-204 198,-204 198,-198 204,-192 210,-192 210,-192 243,-192 243,-192 249,-192 255,-198 255,-204 255,-204 255,-216 255,-216 255,-222 249,-228 243,-228"/>
<text text-anchor="start" x="206" y="-212.4" font-family="Liberation Sans,Helvetica,Arial,sans-serif" font-weight="bold" font-size="12.00" fill="#002b36">X_train</text>
<text text-anchor="start" x="208" y="-202" font-family="Liberation Sans,Helvetica,Arial,sans-serif" font-size="10.00" fill="#268bd2">1 values</text>
</g>
<!-- X_train&#45;&gt;train_model -->
<g id="edge3" class="edge">
<title>X_train&#45;&gt;train_model</title>
<path fill="none" stroke="#002b36" d="M220.44,-191.89C215.67,-179.92 208.21,-164 198.5,-152 195.4,-148.17 191.83,-144.48 188.07,-141.02"/>
<polygon fill="#002b36" stroke="#002b36" points="190.06,-138.11 180.19,-134.26 185.5,-143.43 190.06,-138.11"/>
<text text-anchor="middle" x="233" y="-166" font-family="Liberation Sans,Helvetica,Arial,sans-serif" font-size="10.00" fill="#002b36">X_train</text>
<text text-anchor="middle" x="233" y="-155" font-family="Liberation Sans,Helvetica,Arial,sans-serif" font-size="10.00" fill="#002b36">(1 values)</text>
</g>
<!-- model -->
<g id="node6" class="node">
<title>model</title>
<path fill="none" stroke="#268bd2" stroke-width="1.5" d="M242.5,-36C242.5,-36 172.5,-36 172.5,-36 166.5,-36 160.5,-30 160.5,-24 160.5,-24 160.5,-12 160.5,-12 160.5,-6 166.5,0 172.5,0 172.5,0 242.5,0 242.5,0 248.5,0 254.5,-6 254.5,-12 254.5,-12 254.5,-24 254.5,-24 254.5,-30 248.5,-36 242.5,-36"/>
<text text-anchor="start" x="189.5" y="-20.4" font-family="Liberation Sans,Helvetica,Arial,sans-serif" font-weight="bold" font-size="12.00" fill="#002b36">model</text>
<text text-anchor="start" x="168.5" y="-10" font-family="Liberation Sans,Helvetica,Arial,sans-serif" font-size="10.00" fill="#268bd2">3 values (3 sinks)</text>
</g>
<!-- train_model&#45;&gt;train_acc -->
<g id="edge1" class="edge">
<title>train_model&#45;&gt;train_acc</title>
<path fill="none" stroke="#002b36" d="M140.17,-93.98C131.73,-79.81 120.1,-60.3 110.83,-44.74"/>
<polygon fill="#002b36" stroke="#002b36" points="113.81,-42.9 105.69,-36.1 107.8,-46.48 113.81,-42.9"/>
<text text-anchor="middle" x="150" y="-68" font-family="Liberation Sans,Helvetica,Arial,sans-serif" font-size="10.00" fill="#002b36">output_0</text>
<text text-anchor="middle" x="150" y="-57" font-family="Liberation Sans,Helvetica,Arial,sans-serif" font-size="10.00" fill="#002b36">(3 values)</text>
</g>
<!-- train_model&#45;&gt;model -->
<g id="edge2" class="edge">
<title>train_model&#45;&gt;model</title>
<path fill="none" stroke="#002b36" d="M164.19,-93.94C167.91,-88.22 171.94,-81.9 175.5,-76 181.55,-65.99 187.91,-54.8 193.36,-45"/>
<polygon fill="#002b36" stroke="#002b36" points="196.49,-46.57 198.26,-36.12 190.36,-43.19 196.49,-46.57"/>
<text text-anchor="middle" x="209" y="-68" font-family="Liberation Sans,Helvetica,Arial,sans-serif" font-size="10.00" fill="#002b36">output_1</text>
<text text-anchor="middle" x="209" y="-57" font-family="Liberation Sans,Helvetica,Arial,sans-serif" font-size="10.00" fill="#002b36">(3 values)</text>
</g>
<!-- generate_dataset&#45;&gt;y_train -->
<g id="edge7" class="edge">
<title>generate_dataset&#45;&gt;y_train</title>
<path fill="none" stroke="#002b36" d="M169.75,-286C165.38,-280.57 161.22,-274.39 158.5,-268 154.55,-258.7 152.63,-247.83 151.75,-238.09"/>
<polygon fill="#002b36" stroke="#002b36" points="155.24,-237.87 151.16,-228.1 148.26,-238.28 155.24,-237.87"/>
<text text-anchor="middle" x="180" y="-260" font-family="Liberation Sans,Helvetica,Arial,sans-serif" font-size="10.00" fill="#002b36">output_2</text>
<text text-anchor="middle" x="180" y="-249" font-family="Liberation Sans,Helvetica,Arial,sans-serif" font-size="10.00" fill="#002b36">(1 values)</text>
</g>
<!-- generate_dataset&#45;&gt;X_train -->
<g id="edge6" class="edge">
<title>generate_dataset&#45;&gt;X_train</title>
<path fill="none" stroke="#002b36" d="M196.19,-285.98C201.81,-272.07 209.51,-253.03 215.74,-237.61"/>
<polygon fill="#002b36" stroke="#002b36" points="219.09,-238.68 219.59,-228.1 212.6,-236.06 219.09,-238.68"/>
<text text-anchor="middle" x="233" y="-260" font-family="Liberation Sans,Helvetica,Arial,sans-serif" font-size="10.00" fill="#002b36">output_0</text>
<text text-anchor="middle" x="233" y="-249" font-family="Liberation Sans,Helvetica,Arial,sans-serif" font-size="10.00" fill="#002b36">(1 values)</text>
</g>
</g>
</svg>
