<?xml version="1.0" encoding="UTF-8" standalone="no"?>
<!DOCTYPE svg PUBLIC "-//W3C//DTD SVG 1.1//EN"
 "http://www.w3.org/Graphics/SVG/1.1/DTD/svg11.dtd">
<!-- Generated by graphviz version 2.50.0 (0)
 -->
<!-- Title: G Pages: 1 -->
<svg width="386pt" height="620pt"
 viewBox="0.00 0.00 386.00 620.00" xmlns="http://www.w3.org/2000/svg" xmlns:xlink="http://www.w3.org/1999/xlink">
<g id="graph0" class="graph" transform="scale(1 1) rotate(0) translate(4 616)">
<title>G</title>
<polygon fill="white" stroke="transparent" points="-4,4 -4,-616 382,-616 382,4 -4,4"/>
<!-- max_depth -->
<g id="node1" class="node">
<title>max_depth</title>
<path fill="none" stroke="#268bd2" d="M93,-420C93,-420 12,-420 12,-420 6,-420 0,-414 0,-408 0,-408 0,-396 0,-396 0,-390 6,-384 12,-384 12,-384 93,-384 93,-384 99,-384 105,-390 105,-396 105,-396 105,-408 105,-408 105,-414 99,-420 93,-420"/>
<text text-anchor="start" x="20.5" y="-404.4" font-family="Liberation Sans,Helvetica,Arial,sans-serif" font-weight="bold" font-size="12.00" fill="#002b36">max_depth</text>
<text text-anchor="start" x="8" y="-394" font-family="Liberation Sans,Helvetica,Arial,sans-serif" font-size="10.00" fill="#268bd2">1 values (1 sources)</text>
</g>
<!-- train_model -->
<g id="node10" class="node">
<title>train_model</title>
<path fill="none" stroke="#dc322f" d="M222,-326C222,-326 155,-326 155,-326 149,-326 143,-320 143,-314 143,-314 143,-298 143,-298 143,-292 149,-286 155,-286 155,-286 222,-286 222,-286 228,-286 234,-292 234,-298 234,-298 234,-314 234,-314 234,-320 228,-326 222,-326"/>
<text text-anchor="start" x="154.5" y="-313.4" font-family="Liberation Sans,Helvetica,Arial,sans-serif" font-weight="bold" font-size="12.00" fill="#002b36">train_model</text>
<text text-anchor="start" x="151" y="-303" font-family="Liberation Sans,Helvetica,Arial,sans-serif" font-size="10.00" fill="#002b36">@op:train_model</text>
<text text-anchor="start" x="174" y="-293" font-family="Liberation Sans,Helvetica,Arial,sans-serif" font-size="10.00" fill="#dc322f">4 calls</text>
</g>
<!-- max_depth&#45;&gt;train_model -->
<g id="edge4" class="edge">
<title>max_depth&#45;&gt;train_model</title>
<path fill="none" stroke="#002b36" d="M62.96,-383.84C71.28,-371.38 83.92,-354.87 98.5,-344 108.86,-336.27 121.08,-329.85 133.1,-324.66"/>
<polygon fill="#002b36" stroke="#002b36" points="134.74,-327.77 142.67,-320.75 132.09,-321.29 134.74,-327.77"/>
<text text-anchor="middle" x="123" y="-358" font-family="Liberation Sans,Helvetica,Arial,sans-serif" font-size="10.00" fill="#002b36">max_depth</text>
<text text-anchor="middle" x="123" y="-347" font-family="Liberation Sans,Helvetica,Arial,sans-serif" font-size="10.00" fill="#002b36">(1 values)</text>
</g>
<!-- model -->
<g id="node2" class="node">
<title>model</title>
<path fill="none" stroke="#268bd2" d="M190.5,-228C190.5,-228 120.5,-228 120.5,-228 114.5,-228 108.5,-222 108.5,-216 108.5,-216 108.5,-204 108.5,-204 108.5,-198 114.5,-192 120.5,-192 120.5,-192 190.5,-192 190.5,-192 196.5,-192 202.5,-198 202.5,-204 202.5,-204 202.5,-216 202.5,-216 202.5,-222 196.5,-228 190.5,-228"/>
<text text-anchor="start" x="137.5" y="-212.4" font-family="Liberation Sans,Helvetica,Arial,sans-serif" font-weight="bold" font-size="12.00" fill="#002b36">model</text>
<text text-anchor="start" x="116.5" y="-202" font-family="Liberation Sans,Helvetica,Arial,sans-serif" font-size="10.00" fill="#268bd2">4 values (4 sinks)</text>
</g>
<!-- y_train -->
<g id="node3" class="node">
<title>y_train</title>
<path fill="none" stroke="#268bd2" d="M167.5,-420C167.5,-420 135.5,-420 135.5,-420 129.5,-420 123.5,-414 123.5,-408 123.5,-408 123.5,-396 123.5,-396 123.5,-390 129.5,-384 135.5,-384 135.5,-384 167.5,-384 167.5,-384 173.5,-384 179.5,-390 179.5,-396 179.5,-396 179.5,-408 179.5,-408 179.5,-414 173.5,-420 167.5,-420"/>
<text text-anchor="start" x="131.5" y="-404.4" font-family="Liberation Sans,Helvetica,Arial,sans-serif" font-weight="bold" font-size="12.00" fill="#002b36">y_train</text>
<text text-anchor="start" x="133" y="-394" font-family="Liberation Sans,Helvetica,Arial,sans-serif" font-size="10.00" fill="#268bd2">1 values</text>
</g>
<!-- y_train&#45;&gt;train_model -->
<g id="edge6" class="edge">
<title>y_train&#45;&gt;train_model</title>
<path fill="none" stroke="#002b36" d="M150.73,-383.89C150.81,-372.22 152.14,-356.64 157.5,-344 158.88,-340.74 160.66,-337.54 162.65,-334.49"/>
<polygon fill="#002b36" stroke="#002b36" points="165.59,-336.4 168.72,-326.28 159.96,-332.23 165.59,-336.4"/>
<text text-anchor="middle" x="179" y="-358" font-family="Liberation Sans,Helvetica,Arial,sans-serif" font-size="10.00" fill="#002b36">y_train</text>
<text text-anchor="middle" x="179" y="-347" font-family="Liberation Sans,Helvetica,Arial,sans-serif" font-size="10.00" fill="#002b36">(1 values)</text>
</g>
<!-- X_train -->
<g id="node4" class="node">
<title>X_train</title>
<path fill="none" stroke="#268bd2" d="M243,-420C243,-420 210,-420 210,-420 204,-420 198,-414 198,-408 198,-408 198,-396 198,-396 198,-390 204,-384 210,-384 210,-384 243,-384 243,-384 249,-384 255,-390 255,-396 255,-396 255,-408 255,-408 255,-414 249,-420 243,-420"/>
<text text-anchor="start" x="206" y="-404.4" font-family="Liberation Sans,Helvetica,Arial,sans-serif" font-weight="bold" font-size="12.00" fill="#002b36">X_train</text>
<text text-anchor="start" x="208" y="-394" font-family="Liberation Sans,Helvetica,Arial,sans-serif" font-size="10.00" fill="#268bd2">1 values</text>
</g>
<!-- X_train&#45;&gt;train_model -->
<g id="edge3" class="edge">
<title>X_train&#45;&gt;train_model</title>
<path fill="none" stroke="#002b36" d="M219.53,-383.76C214.07,-370.24 206.34,-351.14 199.97,-335.38"/>
<polygon fill="#002b36" stroke="#002b36" points="203.2,-334.03 196.21,-326.07 196.71,-336.65 203.2,-334.03"/>
<text text-anchor="middle" x="233" y="-358" font-family="Liberation Sans,Helvetica,Arial,sans-serif" font-size="10.00" fill="#002b36">X_train</text>
<text text-anchor="middle" x="233" y="-347" font-family="Liberation Sans,Helvetica,Arial,sans-serif" font-size="10.00" fill="#002b36">(1 values)</text>
</g>
<!-- n_estimators -->
<g id="node5" class="node">
<title>n_estimators</title>
<path fill="none" stroke="#268bd2" d="M366,-420C366,-420 285,-420 285,-420 279,-420 273,-414 273,-408 273,-408 273,-396 273,-396 273,-390 279,-384 285,-384 285,-384 366,-384 366,-384 372,-384 378,-390 378,-396 378,-396 378,-408 378,-408 378,-414 372,-420 366,-420"/>
<text text-anchor="start" x="288" y="-404.4" font-family="Liberation Sans,Helvetica,Arial,sans-serif" font-weight="bold" font-size="12.00" fill="#002b36">n_estimators</text>
<text text-anchor="start" x="281" y="-394" font-family="Liberation Sans,Helvetica,Arial,sans-serif" font-size="10.00" fill="#268bd2">2 values (2 sources)</text>
</g>
<!-- n_estimators&#45;&gt;train_model -->
<g id="edge5" class="edge">
<title>n_estimators&#45;&gt;train_model</title>
<path fill="none" stroke="#002b36" d="M307.6,-383.88C294.58,-371.92 276.2,-355.99 258.5,-344 251.86,-339.5 244.61,-335.13 237.37,-331.06"/>
<polygon fill="#002b36" stroke="#002b36" points="238.71,-327.81 228.26,-326.09 235.36,-333.95 238.71,-327.81"/>
<text text-anchor="middle" x="315" y="-358" font-family="Liberation Sans,Helvetica,Arial,sans-serif" font-size="10.00" fill="#002b36">n_estimators</text>
<text text-anchor="middle" x="315" y="-347" font-family="Liberation Sans,Helvetica,Arial,sans-serif" font-size="10.00" fill="#002b36">(2 values)</text>
</g>
<!-- train_acc -->
<g id="node6" class="node">
<title>train_acc</title>
<path fill="none" stroke="#268bd2" d="M302.5,-228C302.5,-228 232.5,-228 232.5,-228 226.5,-228 220.5,-222 220.5,-216 220.5,-216 220.5,-204 220.5,-204 220.5,-198 226.5,-192 232.5,-192 232.5,-192 302.5,-192 302.5,-192 308.5,-192 314.5,-198 314.5,-204 314.5,-204 314.5,-216 314.5,-216 314.5,-222 308.5,-228 302.5,-228"/>
<text text-anchor="start" x="241" y="-212.4" font-family="Liberation Sans,Helvetica,Arial,sans-serif" font-weight="bold" font-size="12.00" fill="#002b36">train_acc</text>
<text text-anchor="start" x="228.5" y="-202" font-family="Liberation Sans,Helvetica,Arial,sans-serif" font-size="10.00" fill="#268bd2">4 values (1 sinks)</text>
</g>
<!-- eval_model -->
<g id="node9" class="node">
<title>eval_model</title>
<path fill="none" stroke="#dc322f" d="M300.5,-134C300.5,-134 234.5,-134 234.5,-134 228.5,-134 222.5,-128 222.5,-122 222.5,-122 222.5,-106 222.5,-106 222.5,-100 228.5,-94 234.5,-94 234.5,-94 300.5,-94 300.5,-94 306.5,-94 312.5,-100 312.5,-106 312.5,-106 312.5,-122 312.5,-122 312.5,-128 306.5,-134 300.5,-134"/>
<text text-anchor="start" x="234.5" y="-121.4" font-family="Liberation Sans,Helvetica,Arial,sans-serif" font-weight="bold" font-size="12.00" fill="#002b36">eval_model</text>
<text text-anchor="start" x="230.5" y="-111" font-family="Liberation Sans,Helvetica,Arial,sans-serif" font-size="10.00" fill="#002b36">@op:eval_model</text>
<text text-anchor="start" x="253" y="-101" font-family="Liberation Sans,Helvetica,Arial,sans-serif" font-size="10.00" fill="#dc322f">3 calls</text>
</g>
<!-- train_acc&#45;&gt;eval_model -->
<g id="edge11" class="edge">
<title>train_acc&#45;&gt;eval_model</title>
<path fill="none" stroke="#002b36" d="M267.5,-191.76C267.5,-178.5 267.5,-159.86 267.5,-144.27"/>
<polygon fill="#002b36" stroke="#002b36" points="271,-144.07 267.5,-134.07 264,-144.07 271,-144.07"/>
<text text-anchor="middle" x="289" y="-166" font-family="Liberation Sans,Helvetica,Arial,sans-serif" font-size="10.00" fill="#002b36">model</text>
<text text-anchor="middle" x="289" y="-155" font-family="Liberation Sans,Helvetica,Arial,sans-serif" font-size="10.00" fill="#002b36">(3 values)</text>
</g>
<!-- random_seed -->
<g id="node7" class="node">
<title>random_seed</title>
<path fill="none" stroke="#268bd2" d="M229,-612C229,-612 148,-612 148,-612 142,-612 136,-606 136,-600 136,-600 136,-588 136,-588 136,-582 142,-576 148,-576 148,-576 229,-576 229,-576 235,-576 241,-582 241,-588 241,-588 241,-600 241,-600 241,-606 235,-612 229,-612"/>
<text text-anchor="start" x="149" y="-596.4" font-family="Liberation Sans,Helvetica,Arial,sans-serif" font-weight="bold" font-size="12.00" fill="#002b36">random_seed</text>
<text text-anchor="start" x="144" y="-586" font-family="Liberation Sans,Helvetica,Arial,sans-serif" font-size="10.00" fill="#268bd2">1 values (1 sources)</text>
</g>
<!-- generate_dataset -->
<g id="node11" class="node">
<title>generate_dataset</title>
<path fill="none" stroke="#dc322f" d="M234.5,-518C234.5,-518 142.5,-518 142.5,-518 136.5,-518 130.5,-512 130.5,-506 130.5,-506 130.5,-490 130.5,-490 130.5,-484 136.5,-478 142.5,-478 142.5,-478 234.5,-478 234.5,-478 240.5,-478 246.5,-484 246.5,-490 246.5,-490 246.5,-506 246.5,-506 246.5,-512 240.5,-518 234.5,-518"/>
<text text-anchor="start" x="138.5" y="-505.4" font-family="Liberation Sans,Helvetica,Arial,sans-serif" font-weight="bold" font-size="12.00" fill="#002b36">generate_dataset</text>
<text text-anchor="start" x="138.5" y="-495" font-family="Liberation Sans,Helvetica,Arial,sans-serif" font-size="10.00" fill="#002b36">@op:generate_dataset</text>
<text text-anchor="start" x="174" y="-485" font-family="Liberation Sans,Helvetica,Arial,sans-serif" font-size="10.00" fill="#dc322f">1 calls</text>
</g>
<!-- random_seed&#45;&gt;generate_dataset -->
<g id="edge9" class="edge">
<title>random_seed&#45;&gt;generate_dataset</title>
<path fill="none" stroke="#002b36" d="M188.5,-575.76C188.5,-562.5 188.5,-543.86 188.5,-528.27"/>
<polygon fill="#002b36" stroke="#002b36" points="192,-528.07 188.5,-518.07 185,-528.07 192,-528.07"/>
<text text-anchor="middle" x="218" y="-550" font-family="Liberation Sans,Helvetica,Arial,sans-serif" font-size="10.00" fill="#002b36">random_seed</text>
<text text-anchor="middle" x="218" y="-539" font-family="Liberation Sans,Helvetica,Arial,sans-serif" font-size="10.00" fill="#002b36">(1 values)</text>
</g>
<!-- eval_acc -->
<g id="node8" class="node">
<title>eval_acc</title>
<path fill="none" stroke="#268bd2" d="M302.5,-36C302.5,-36 232.5,-36 232.5,-36 226.5,-36 220.5,-30 220.5,-24 220.5,-24 220.5,-12 220.5,-12 220.5,-6 226.5,0 232.5,0 232.5,0 302.5,0 302.5,0 308.5,0 314.5,-6 314.5,-12 314.5,-12 314.5,-24 314.5,-24 314.5,-30 308.5,-36 302.5,-36"/>
<text text-anchor="start" x="242" y="-20.4" font-family="Liberation Sans,Helvetica,Arial,sans-serif" font-weight="bold" font-size="12.00" fill="#002b36">eval_acc</text>
<text text-anchor="start" x="228.5" y="-10" font-family="Liberation Sans,Helvetica,Arial,sans-serif" font-size="10.00" fill="#268bd2">3 values (3 sinks)</text>
</g>
<!-- eval_model&#45;&gt;eval_acc -->
<g id="edge10" class="edge">
<title>eval_model&#45;&gt;eval_acc</title>
<path fill="none" stroke="#002b36" d="M267.5,-93.98C267.5,-80.34 267.5,-61.75 267.5,-46.5"/>
<polygon fill="#002b36" stroke="#002b36" points="271,-46.1 267.5,-36.1 264,-46.1 271,-46.1"/>
<text text-anchor="middle" x="289" y="-68" font-family="Liberation Sans,Helvetica,Arial,sans-serif" font-size="10.00" fill="#002b36">output_0</text>
<text text-anchor="middle" x="289" y="-57" font-family="Liberation Sans,Helvetica,Arial,sans-serif" font-size="10.00" fill="#002b36">(3 values)</text>
</g>
<!-- train_model&#45;&gt;model -->
<g id="edge2" class="edge">
<title>train_model&#45;&gt;model</title>
<path fill="none" stroke="#002b36" d="M181.82,-285.98C176.94,-272.07 170.25,-253.03 164.84,-237.61"/>
<polygon fill="#002b36" stroke="#002b36" points="168.12,-236.37 161.5,-228.1 161.51,-238.69 168.12,-236.37"/>
<text text-anchor="middle" x="196" y="-260" font-family="Liberation Sans,Helvetica,Arial,sans-serif" font-size="10.00" fill="#002b36">output_1</text>
<text text-anchor="middle" x="196" y="-249" font-family="Liberation Sans,Helvetica,Arial,sans-serif" font-size="10.00" fill="#002b36">(4 values)</text>
</g>
<!-- train_model&#45;&gt;train_acc -->
<g id="edge1" class="edge">
<title>train_model&#45;&gt;train_acc</title>
<path fill="none" stroke="#002b36" d="M205.81,-285.95C210.92,-280.23 216.49,-273.91 221.5,-268 230.24,-257.7 239.65,-246.13 247.67,-236.12"/>
<polygon fill="#002b36" stroke="#002b36" points="250.53,-238.14 254.03,-228.14 245.06,-233.78 250.53,-238.14"/>
<text text-anchor="middle" x="260" y="-260" font-family="Liberation Sans,Helvetica,Arial,sans-serif" font-size="10.00" fill="#002b36">output_0</text>
<text text-anchor="middle" x="260" y="-249" font-family="Liberation Sans,Helvetica,Arial,sans-serif" font-size="10.00" fill="#002b36">(4 values)</text>
</g>
<!-- generate_dataset&#45;&gt;y_train -->
<g id="edge8" class="edge">
<title>generate_dataset&#45;&gt;y_train</title>
<path fill="none" stroke="#002b36" d="M169.75,-478C165.38,-472.57 161.22,-466.39 158.5,-460 154.55,-450.7 152.63,-439.83 151.75,-430.09"/>
<polygon fill="#002b36" stroke="#002b36" points="155.24,-429.87 151.16,-420.1 148.26,-430.28 155.24,-429.87"/>
<text text-anchor="middle" x="180" y="-452" font-family="Liberation Sans,Helvetica,Arial,sans-serif" font-size="10.00" fill="#002b36">output_2</text>
<text text-anchor="middle" x="180" y="-441" font-family="Liberation Sans,Helvetica,Arial,sans-serif" font-size="10.00" fill="#002b36">(1 values)</text>
</g>
<!-- generate_dataset&#45;&gt;X_train -->
<g id="edge7" class="edge">
<title>generate_dataset&#45;&gt;X_train</title>
<path fill="none" stroke="#002b36" d="M196.19,-477.98C201.81,-464.07 209.51,-445.03 215.74,-429.61"/>
<polygon fill="#002b36" stroke="#002b36" points="219.09,-430.68 219.59,-420.1 212.6,-428.06 219.09,-430.68"/>
<text text-anchor="middle" x="233" y="-452" font-family="Liberation Sans,Helvetica,Arial,sans-serif" font-size="10.00" fill="#002b36">output_0</text>
<text text-anchor="middle" x="233" y="-441" font-family="Liberation Sans,Helvetica,Arial,sans-serif" font-size="10.00" fill="#002b36">(1 values)</text>
</g>
</g>
</svg>
