<?xml version="1.0" encoding="UTF-8" standalone="no"?>
<!DOCTYPE svg PUBLIC "-//W3C//DTD SVG 1.1//EN"
 "http://www.w3.org/Graphics/SVG/1.1/DTD/svg11.dtd">
<!-- Generated by graphviz version 2.50.0 (0)
 -->
<!-- Title: G Pages: 1 -->
<svg width="263pt" height="620pt"
 viewBox="0.00 0.00 263.00 620.00" xmlns="http://www.w3.org/2000/svg" xmlns:xlink="http://www.w3.org/1999/xlink">
<g id="graph0" class="graph" transform="scale(1 1) rotate(0) translate(4 616)">
<title>G</title>
<polygon fill="white" stroke="transparent" points="-4,4 -4,-616 259,-616 259,4 -4,4"/>
<!-- var_2 -->
<g id="node1" class="node">
<title>var_2</title>
<path fill="none" stroke="#268bd2" stroke-width="1.5" d="M82.5,-36C82.5,-36 12.5,-36 12.5,-36 6.5,-36 0.5,-30 0.5,-24 0.5,-24 0.5,-12 0.5,-12 0.5,-6 6.5,0 12.5,0 12.5,0 82.5,0 82.5,0 88.5,0 94.5,-6 94.5,-12 94.5,-12 94.5,-24 94.5,-24 94.5,-30 88.5,-36 82.5,-36"/>
<text text-anchor="start" x="31.5" y="-20.4" font-family="Liberation Sans,Helvetica,Arial,sans-serif" font-weight="bold" font-size="12.00" fill="#002b36">var_2</text>
<text text-anchor="start" x="8.5" y="-10" font-family="Liberation Sans,Helvetica,Arial,sans-serif" font-size="10.00" fill="#268bd2">2 values (2 sinks)</text>
</g>
<!-- var_0 -->
<g id="node2" class="node">
<title>var_0</title>
<path fill="none" stroke="#268bd2" stroke-width="1.5" d="M82.5,-228C82.5,-228 12.5,-228 12.5,-228 6.5,-228 0.5,-222 0.5,-216 0.5,-216 0.5,-204 0.5,-204 0.5,-198 6.5,-192 12.5,-192 12.5,-192 82.5,-192 82.5,-192 88.5,-192 94.5,-198 94.5,-204 94.5,-204 94.5,-216 94.5,-216 94.5,-222 88.5,-228 82.5,-228"/>
<text text-anchor="start" x="31.5" y="-212.4" font-family="Liberation Sans,Helvetica,Arial,sans-serif" font-weight="bold" font-size="12.00" fill="#002b36">var_0</text>
<text text-anchor="start" x="8.5" y="-202" font-family="Liberation Sans,Helvetica,Arial,sans-serif" font-size="10.00" fill="#268bd2">4 values (2 sinks)</text>
</g>
<!-- eval_model -->
<g id="node9" class="node">
<title>eval_model</title>
<path fill="none" stroke="#dc322f" stroke-width="1.5" d="M80.5,-134C80.5,-134 14.5,-134 14.5,-134 8.5,-134 2.5,-128 2.5,-122 2.5,-122 2.5,-106 2.5,-106 2.5,-100 8.5,-94 14.5,-94 14.5,-94 80.5,-94 80.5,-94 86.5,-94 92.5,-100 92.5,-106 92.5,-106 92.5,-122 92.5,-122 92.5,-128 86.5,-134 80.5,-134"/>
<text text-anchor="start" x="14.5" y="-121.4" font-family="Liberation Sans,Helvetica,Arial,sans-serif" font-weight="bold" font-size="12.00" fill="#002b36">eval_model</text>
<text text-anchor="start" x="10.5" y="-111" font-family="Liberation Sans,Helvetica,Arial,sans-serif" font-size="10.00" fill="#002b36">@op:eval_model</text>
<text text-anchor="start" x="33" y="-101" font-family="Liberation Sans,Helvetica,Arial,sans-serif" font-size="10.00" fill="#dc322f">2 calls</text>
</g>
<!-- var_0&#45;&gt;eval_model -->
<g id="edge6" class="edge">
<title>var_0&#45;&gt;eval_model</title>
<path fill="none" stroke="#002b36" d="M47.5,-191.76C47.5,-178.5 47.5,-159.86 47.5,-144.27"/>
<polygon fill="#002b36" stroke="#002b36" points="51,-144.07 47.5,-134.07 44,-144.07 51,-144.07"/>
<text text-anchor="middle" x="69" y="-166" font-family="Liberation Sans,Helvetica,Arial,sans-serif" font-size="10.00" fill="#002b36">model</text>
<text text-anchor="middle" x="69" y="-155" font-family="Liberation Sans,Helvetica,Arial,sans-serif" font-size="10.00" fill="#002b36">(2 values)</text>
</g>
<!-- random_seed -->
<g id="node3" class="node">
<title>random_seed</title>
<path fill="none" stroke="#268bd2" stroke-width="1.5" d="M106,-612C106,-612 25,-612 25,-612 19,-612 13,-606 13,-600 13,-600 13,-588 13,-588 13,-582 19,-576 25,-576 25,-576 106,-576 106,-576 112,-576 118,-582 118,-588 118,-588 118,-600 118,-600 118,-606 112,-612 106,-612"/>
<text text-anchor="start" x="26" y="-596.4" font-family="Liberation Sans,Helvetica,Arial,sans-serif" font-weight="bold" font-size="12.00" fill="#002b36">random_seed</text>
<text text-anchor="start" x="21" y="-586" font-family="Liberation Sans,Helvetica,Arial,sans-serif" font-size="10.00" fill="#268bd2">1 values (1 sources)</text>
</g>
<!-- generate_dataset -->
<g id="node10" class="node">
<title>generate_dataset</title>
<path fill="none" stroke="#dc322f" stroke-width="1.5" d="M111.5,-518C111.5,-518 19.5,-518 19.5,-518 13.5,-518 7.5,-512 7.5,-506 7.5,-506 7.5,-490 7.5,-490 7.5,-484 13.5,-478 19.5,-478 19.5,-478 111.5,-478 111.5,-478 117.5,-478 123.5,-484 123.5,-490 123.5,-490 123.5,-506 123.5,-506 123.5,-512 117.5,-518 111.5,-518"/>
<text text-anchor="start" x="15.5" y="-505.4" font-family="Liberation Sans,Helvetica,Arial,sans-serif" font-weight="bold" font-size="12.00" fill="#002b36">generate_dataset</text>
<text text-anchor="start" x="15.5" y="-495" font-family="Liberation Sans,Helvetica,Arial,sans-serif" font-size="10.00" fill="#002b36">@op:generate_dataset</text>
<text text-anchor="start" x="51" y="-485" font-family="Liberation Sans,Helvetica,Arial,sans-serif" font-size="10.00" fill="#dc322f">1 calls</text>
</g>
<!-- random_seed&#45;&gt;generate_dataset -->
<g id="edge9" class="edge">
<title>random_seed&#45;&gt;generate_dataset</title>
<path fill="none" stroke="#002b36" d="M65.5,-575.76C65.5,-562.5 65.5,-543.86 65.5,-528.27"/>
<polygon fill="#002b36" stroke="#002b36" points="69,-528.07 65.5,-518.07 62,-528.07 69,-528.07"/>
<text text-anchor="middle" x="95" y="-550" font-family="Liberation Sans,Helvetica,Arial,sans-serif" font-size="10.00" fill="#002b36">random_seed</text>
<text text-anchor="middle" x="95" y="-539" font-family="Liberation Sans,Helvetica,Arial,sans-serif" font-size="10.00" fill="#002b36">(1 values)</text>
</g>
<!-- X_train -->
<g id="node4" class="node">
<title>X_train</title>
<path fill="none" stroke="#268bd2" stroke-width="1.5" d="M45,-420C45,-420 12,-420 12,-420 6,-420 0,-414 0,-408 0,-408 0,-396 0,-396 0,-390 6,-384 12,-384 12,-384 45,-384 45,-384 51,-384 57,-390 57,-396 57,-396 57,-408 57,-408 57,-414 51,-420 45,-420"/>
<text text-anchor="start" x="8" y="-404.4" font-family="Liberation Sans,Helvetica,Arial,sans-serif" font-weight="bold" font-size="12.00" fill="#002b36">X_train</text>
<text text-anchor="start" x="10" y="-394" font-family="Liberation Sans,Helvetica,Arial,sans-serif" font-size="10.00" fill="#268bd2">1 values</text>
</g>
<!-- train_model -->
<g id="node8" class="node">
<title>train_model</title>
<path fill="none" stroke="#dc322f" stroke-width="1.5" d="M137,-326C137,-326 70,-326 70,-326 64,-326 58,-320 58,-314 58,-314 58,-298 58,-298 58,-292 64,-286 70,-286 70,-286 137,-286 137,-286 143,-286 149,-292 149,-298 149,-298 149,-314 149,-314 149,-320 143,-326 137,-326"/>
<text text-anchor="start" x="69.5" y="-313.4" font-family="Liberation Sans,Helvetica,Arial,sans-serif" font-weight="bold" font-size="12.00" fill="#002b36">train_model</text>
<text text-anchor="start" x="66" y="-303" font-family="Liberation Sans,Helvetica,Arial,sans-serif" font-size="10.00" fill="#002b36">@op:train_model</text>
<text text-anchor="start" x="89" y="-293" font-family="Liberation Sans,Helvetica,Arial,sans-serif" font-size="10.00" fill="#dc322f">4 calls</text>
</g>
<!-- X_train&#45;&gt;train_model -->
<g id="edge3" class="edge">
<title>X_train&#45;&gt;train_model</title>
<path fill="none" stroke="#002b36" d="M34.56,-383.89C39.33,-371.92 46.79,-356 56.5,-344 59.6,-340.17 63.17,-336.48 66.93,-333.02"/>
<polygon fill="#002b36" stroke="#002b36" points="69.5,-335.43 74.81,-326.26 64.94,-330.11 69.5,-335.43"/>
<text text-anchor="middle" x="78" y="-358" font-family="Liberation Sans,Helvetica,Arial,sans-serif" font-size="10.00" fill="#002b36">X_train</text>
<text text-anchor="middle" x="78" y="-347" font-family="Liberation Sans,Helvetica,Arial,sans-serif" font-size="10.00" fill="#002b36">(1 values)</text>
</g>
<!-- y_train -->
<g id="node5" class="node">
<title>y_train</title>
<path fill="none" stroke="#268bd2" stroke-width="1.5" d="M119.5,-420C119.5,-420 87.5,-420 87.5,-420 81.5,-420 75.5,-414 75.5,-408 75.5,-408 75.5,-396 75.5,-396 75.5,-390 81.5,-384 87.5,-384 87.5,-384 119.5,-384 119.5,-384 125.5,-384 131.5,-390 131.5,-396 131.5,-396 131.5,-408 131.5,-408 131.5,-414 125.5,-420 119.5,-420"/>
<text text-anchor="start" x="83.5" y="-404.4" font-family="Liberation Sans,Helvetica,Arial,sans-serif" font-weight="bold" font-size="12.00" fill="#002b36">y_train</text>
<text text-anchor="start" x="85" y="-394" font-family="Liberation Sans,Helvetica,Arial,sans-serif" font-size="10.00" fill="#268bd2">1 values</text>
</g>
<!-- y_train&#45;&gt;train_model -->
<g id="edge5" class="edge">
<title>y_train&#45;&gt;train_model</title>
<path fill="none" stroke="#002b36" d="M103.5,-383.76C103.5,-370.5 103.5,-351.86 103.5,-336.27"/>
<polygon fill="#002b36" stroke="#002b36" points="107,-336.07 103.5,-326.07 100,-336.07 107,-336.07"/>
<text text-anchor="middle" x="125" y="-358" font-family="Liberation Sans,Helvetica,Arial,sans-serif" font-size="10.00" fill="#002b36">y_train</text>
<text text-anchor="middle" x="125" y="-347" font-family="Liberation Sans,Helvetica,Arial,sans-serif" font-size="10.00" fill="#002b36">(1 values)</text>
</g>
<!-- var_1 -->
<g id="node6" class="node">
<title>var_1</title>
<path fill="none" stroke="#268bd2" stroke-width="1.5" d="M194.5,-228C194.5,-228 124.5,-228 124.5,-228 118.5,-228 112.5,-222 112.5,-216 112.5,-216 112.5,-204 112.5,-204 112.5,-198 118.5,-192 124.5,-192 124.5,-192 194.5,-192 194.5,-192 200.5,-192 206.5,-198 206.5,-204 206.5,-204 206.5,-216 206.5,-216 206.5,-222 200.5,-228 194.5,-228"/>
<text text-anchor="start" x="143.5" y="-212.4" font-family="Liberation Sans,Helvetica,Arial,sans-serif" font-weight="bold" font-size="12.00" fill="#002b36">var_1</text>
<text text-anchor="start" x="120.5" y="-202" font-family="Liberation Sans,Helvetica,Arial,sans-serif" font-size="10.00" fill="#268bd2">4 values (4 sinks)</text>
</g>
<!-- n_estimators -->
<g id="node7" class="node">
<title>n_estimators</title>
<path fill="none" stroke="#268bd2" stroke-width="1.5" d="M243,-420C243,-420 162,-420 162,-420 156,-420 150,-414 150,-408 150,-408 150,-396 150,-396 150,-390 156,-384 162,-384 162,-384 243,-384 243,-384 249,-384 255,-390 255,-396 255,-396 255,-408 255,-408 255,-414 249,-420 243,-420"/>
<text text-anchor="start" x="165" y="-404.4" font-family="Liberation Sans,Helvetica,Arial,sans-serif" font-weight="bold" font-size="12.00" fill="#002b36">n_estimators</text>
<text text-anchor="start" x="158" y="-394" font-family="Liberation Sans,Helvetica,Arial,sans-serif" font-size="10.00" fill="#268bd2">4 values (4 sources)</text>
</g>
<!-- n_estimators&#45;&gt;train_model -->
<g id="edge4" class="edge">
<title>n_estimators&#45;&gt;train_model</title>
<path fill="none" stroke="#002b36" d="M188.17,-383.86C178.09,-372.17 164.04,-356.59 150.5,-344 146.41,-340.2 141.97,-336.36 137.5,-332.67"/>
<polygon fill="#002b36" stroke="#002b36" points="139.48,-329.78 129.5,-326.23 135.09,-335.23 139.48,-329.78"/>
<text text-anchor="middle" x="199" y="-358" font-family="Liberation Sans,Helvetica,Arial,sans-serif" font-size="10.00" fill="#002b36">n_estimators</text>
<text text-anchor="middle" x="199" y="-347" font-family="Liberation Sans,Helvetica,Arial,sans-serif" font-size="10.00" fill="#002b36">(4 values)</text>
</g>
<!-- train_model&#45;&gt;var_0 -->
<g id="edge1" class="edge">
<title>train_model&#45;&gt;var_0</title>
<path fill="none" stroke="#002b36" d="M92.17,-285.98C83.73,-271.81 72.1,-252.3 62.83,-236.74"/>
<polygon fill="#002b36" stroke="#002b36" points="65.81,-234.9 57.69,-228.1 59.8,-238.48 65.81,-234.9"/>
<text text-anchor="middle" x="102" y="-260" font-family="Liberation Sans,Helvetica,Arial,sans-serif" font-size="10.00" fill="#002b36">output_0</text>
<text text-anchor="middle" x="102" y="-249" font-family="Liberation Sans,Helvetica,Arial,sans-serif" font-size="10.00" fill="#002b36">(4 values)</text>
</g>
<!-- train_model&#45;&gt;var_1 -->
<g id="edge2" class="edge">
<title>train_model&#45;&gt;var_1</title>
<path fill="none" stroke="#002b36" d="M116.19,-285.94C119.91,-280.22 123.94,-273.9 127.5,-268 133.55,-257.99 139.91,-246.8 145.36,-237"/>
<polygon fill="#002b36" stroke="#002b36" points="148.49,-238.57 150.26,-228.12 142.36,-235.19 148.49,-238.57"/>
<text text-anchor="middle" x="161" y="-260" font-family="Liberation Sans,Helvetica,Arial,sans-serif" font-size="10.00" fill="#002b36">output_1</text>
<text text-anchor="middle" x="161" y="-249" font-family="Liberation Sans,Helvetica,Arial,sans-serif" font-size="10.00" fill="#002b36">(4 values)</text>
</g>
<!-- eval_model&#45;&gt;var_2 -->
<g id="edge10" class="edge">
<title>eval_model&#45;&gt;var_2</title>
<path fill="none" stroke="#002b36" d="M47.5,-93.98C47.5,-80.34 47.5,-61.75 47.5,-46.5"/>
<polygon fill="#002b36" stroke="#002b36" points="51,-46.1 47.5,-36.1 44,-46.1 51,-46.1"/>
<text text-anchor="middle" x="69" y="-68" font-family="Liberation Sans,Helvetica,Arial,sans-serif" font-size="10.00" fill="#002b36">output_0</text>
<text text-anchor="middle" x="69" y="-57" font-family="Liberation Sans,Helvetica,Arial,sans-serif" font-size="10.00" fill="#002b36">(2 values)</text>
</g>
<!-- generate_dataset&#45;&gt;X_train -->
<g id="edge7" class="edge">
<title>generate_dataset&#45;&gt;X_train</title>
<path fill="none" stroke="#002b36" d="M46.75,-478C42.38,-472.57 38.22,-466.39 35.5,-460 31.55,-450.7 29.63,-439.83 28.75,-430.09"/>
<polygon fill="#002b36" stroke="#002b36" points="32.24,-429.87 28.16,-420.1 25.26,-430.28 32.24,-429.87"/>
<text text-anchor="middle" x="57" y="-452" font-family="Liberation Sans,Helvetica,Arial,sans-serif" font-size="10.00" fill="#002b36">output_0</text>
<text text-anchor="middle" x="57" y="-441" font-family="Liberation Sans,Helvetica,Arial,sans-serif" font-size="10.00" fill="#002b36">(1 values)</text>
</g>
<!-- generate_dataset&#45;&gt;y_train -->
<g id="edge8" class="edge">
<title>generate_dataset&#45;&gt;y_train</title>
<path fill="none" stroke="#002b36" d="M73.19,-477.98C78.81,-464.07 86.51,-445.03 92.74,-429.61"/>
<polygon fill="#002b36" stroke="#002b36" points="96.09,-430.68 96.59,-420.1 89.6,-428.06 96.09,-430.68"/>
<text text-anchor="middle" x="110" y="-452" font-family="Liberation Sans,Helvetica,Arial,sans-serif" font-size="10.00" fill="#002b36">output_2</text>
<text text-anchor="middle" x="110" y="-441" font-family="Liberation Sans,Helvetica,Arial,sans-serif" font-size="10.00" fill="#002b36">(1 values)</text>
</g>
</g>
</svg>
