<?xml version="1.0" encoding="UTF-8" standalone="no"?>
<!DOCTYPE svg PUBLIC "-//W3C//DTD SVG 1.1//EN"
 "http://www.w3.org/Graphics/SVG/1.1/DTD/svg11.dtd">
<!-- Generated by graphviz version 2.50.0 (0)
 -->
<!-- Title: G Pages: 1 -->
<svg width="263pt" height="620pt"
 viewBox="0.00 0.00 262.50 620.00" xmlns="http://www.w3.org/2000/svg" xmlns:xlink="http://www.w3.org/1999/xlink">
<g id="graph0" class="graph" transform="scale(1 1) rotate(0) translate(4 616)">
<title>G</title>
<polygon fill="white" stroke="transparent" points="-4,4 -4,-616 258.5,-616 258.5,4 -4,4"/>
<!-- var_0 -->
<g id="node1" class="node">
<title>var_0</title>
<path fill="none" stroke="#268bd2" d="M130.5,-228C130.5,-228 60.5,-228 60.5,-228 54.5,-228 48.5,-222 48.5,-216 48.5,-216 48.5,-204 48.5,-204 48.5,-198 54.5,-192 60.5,-192 60.5,-192 130.5,-192 130.5,-192 136.5,-192 142.5,-198 142.5,-204 142.5,-204 142.5,-216 142.5,-216 142.5,-222 136.5,-228 130.5,-228"/>
<text text-anchor="start" x="79.5" y="-212.4" font-family="Liberation Sans,Helvetica,Arial,sans-serif" font-weight="bold" font-size="12.00" fill="#002b36">var_0</text>
<text text-anchor="start" x="56.5" y="-202" font-family="Liberation Sans,Helvetica,Arial,sans-serif" font-size="10.00" fill="#268bd2">4 values (2 sinks)</text>
</g>
<!-- eval_model -->
<g id="node10" class="node">
<title>eval_model</title>
<path fill="none" stroke="#dc322f" d="M128.5,-134C128.5,-134 62.5,-134 62.5,-134 56.5,-134 50.5,-128 50.5,-122 50.5,-122 50.5,-106 50.5,-106 50.5,-100 56.5,-94 62.5,-94 62.5,-94 128.5,-94 128.5,-94 134.5,-94 140.5,-100 140.5,-106 140.5,-106 140.5,-122 140.5,-122 140.5,-128 134.5,-134 128.5,-134"/>
<text text-anchor="start" x="62.5" y="-121.4" font-family="Liberation Sans,Helvetica,Arial,sans-serif" font-weight="bold" font-size="12.00" fill="#002b36">eval_model</text>
<text text-anchor="start" x="58.5" y="-111" font-family="Liberation Sans,Helvetica,Arial,sans-serif" font-size="10.00" fill="#002b36">@op:eval_model</text>
<text text-anchor="start" x="81" y="-101" font-family="Liberation Sans,Helvetica,Arial,sans-serif" font-size="10.00" fill="#dc322f">2 calls</text>
</g>
<!-- var_0&#45;&gt;eval_model -->
<g id="edge6" class="edge">
<title>var_0&#45;&gt;eval_model</title>
<path fill="none" stroke="#002b36" d="M95.5,-191.76C95.5,-178.5 95.5,-159.86 95.5,-144.27"/>
<polygon fill="#002b36" stroke="#002b36" points="99,-144.07 95.5,-134.07 92,-144.07 99,-144.07"/>
<text text-anchor="middle" x="117" y="-166" font-family="Liberation Sans,Helvetica,Arial,sans-serif" font-size="10.00" fill="#002b36">model</text>
<text text-anchor="middle" x="117" y="-155" font-family="Liberation Sans,Helvetica,Arial,sans-serif" font-size="10.00" fill="#002b36">(2 values)</text>
</g>
<!-- random_seed -->
<g id="node2" class="node">
<title>random_seed</title>
<path fill="none" stroke="#268bd2" d="M229,-612C229,-612 148,-612 148,-612 142,-612 136,-606 136,-600 136,-600 136,-588 136,-588 136,-582 142,-576 148,-576 148,-576 229,-576 229,-576 235,-576 241,-582 241,-588 241,-588 241,-600 241,-600 241,-606 235,-612 229,-612"/>
<text text-anchor="start" x="149" y="-596.4" font-family="Liberation Sans,Helvetica,Arial,sans-serif" font-weight="bold" font-size="12.00" fill="#002b36">random_seed</text>
<text text-anchor="start" x="144" y="-586" font-family="Liberation Sans,Helvetica,Arial,sans-serif" font-size="10.00" fill="#268bd2">1 values (1 sources)</text>
</g>
<!-- generate_dataset -->
<g id="node9" class="node">
<title>generate_dataset</title>
<path fill="none" stroke="#dc322f" d="M234.5,-518C234.5,-518 142.5,-518 142.5,-518 136.5,-518 130.5,-512 130.5,-506 130.5,-506 130.5,-490 130.5,-490 130.5,-484 136.5,-478 142.5,-478 142.5,-478 234.5,-478 234.5,-478 240.5,-478 246.5,-484 246.5,-490 246.5,-490 246.5,-506 246.5,-506 246.5,-512 240.5,-518 234.5,-518"/>
<text text-anchor="start" x="138.5" y="-505.4" font-family="Liberation Sans,Helvetica,Arial,sans-serif" font-weight="bold" font-size="12.00" fill="#002b36">generate_dataset</text>
<text text-anchor="start" x="138.5" y="-495" font-family="Liberation Sans,Helvetica,Arial,sans-serif" font-size="10.00" fill="#002b36">@op:generate_dataset</text>
<text text-anchor="start" x="174" y="-485" font-family="Liberation Sans,Helvetica,Arial,sans-serif" font-size="10.00" fill="#dc322f">1 calls</text>
</g>
<!-- random_seed&#45;&gt;generate_dataset -->
<g id="edge9" class="edge">
<title>random_seed&#45;&gt;generate_dataset</title>
<path fill="none" stroke="#002b36" d="M188.5,-575.76C188.5,-562.5 188.5,-543.86 188.5,-528.27"/>
<polygon fill="#002b36" stroke="#002b36" points="192,-528.07 188.5,-518.07 185,-528.07 192,-528.07"/>
<text text-anchor="middle" x="218" y="-550" font-family="Liberation Sans,Helvetica,Arial,sans-serif" font-size="10.00" fill="#002b36">random_seed</text>
<text text-anchor="middle" x="218" y="-539" font-family="Liberation Sans,Helvetica,Arial,sans-serif" font-size="10.00" fill="#002b36">(1 values)</text>
</g>
<!-- n_estimators -->
<g id="node3" class="node">
<title>n_estimators</title>
<path fill="none" stroke="#268bd2" d="M93,-420C93,-420 12,-420 12,-420 6,-420 0,-414 0,-408 0,-408 0,-396 0,-396 0,-390 6,-384 12,-384 12,-384 93,-384 93,-384 99,-384 105,-390 105,-396 105,-396 105,-408 105,-408 105,-414 99,-420 93,-420"/>
<text text-anchor="start" x="15" y="-404.4" font-family="Liberation Sans,Helvetica,Arial,sans-serif" font-weight="bold" font-size="12.00" fill="#002b36">n_estimators</text>
<text text-anchor="start" x="8" y="-394" font-family="Liberation Sans,Helvetica,Arial,sans-serif" font-size="10.00" fill="#268bd2">4 values (4 sources)</text>
</g>
<!-- train_model -->
<g id="node8" class="node">
<title>train_model</title>
<path fill="none" stroke="#dc322f" d="M185,-326C185,-326 118,-326 118,-326 112,-326 106,-320 106,-314 106,-314 106,-298 106,-298 106,-292 112,-286 118,-286 118,-286 185,-286 185,-286 191,-286 197,-292 197,-298 197,-298 197,-314 197,-314 197,-320 191,-326 185,-326"/>
<text text-anchor="start" x="117.5" y="-313.4" font-family="Liberation Sans,Helvetica,Arial,sans-serif" font-weight="bold" font-size="12.00" fill="#002b36">train_model</text>
<text text-anchor="start" x="114" y="-303" font-family="Liberation Sans,Helvetica,Arial,sans-serif" font-size="10.00" fill="#002b36">@op:train_model</text>
<text text-anchor="start" x="137" y="-293" font-family="Liberation Sans,Helvetica,Arial,sans-serif" font-size="10.00" fill="#dc322f">4 calls</text>
</g>
<!-- n_estimators&#45;&gt;train_model -->
<g id="edge4" class="edge">
<title>n_estimators&#45;&gt;train_model</title>
<path fill="none" stroke="#002b36" d="M61.28,-383.85C68.09,-371.71 78.39,-355.6 90.5,-344 95.08,-339.61 100.26,-335.5 105.63,-331.73"/>
<polygon fill="#002b36" stroke="#002b36" points="107.75,-334.53 114.16,-326.09 103.88,-328.69 107.75,-334.53"/>
<text text-anchor="middle" x="119" y="-358" font-family="Liberation Sans,Helvetica,Arial,sans-serif" font-size="10.00" fill="#002b36">n_estimators</text>
<text text-anchor="middle" x="119" y="-347" font-family="Liberation Sans,Helvetica,Arial,sans-serif" font-size="10.00" fill="#002b36">(4 values)</text>
</g>
<!-- X_train -->
<g id="node4" class="node">
<title>X_train</title>
<path fill="none" stroke="#268bd2" d="M168,-420C168,-420 135,-420 135,-420 129,-420 123,-414 123,-408 123,-408 123,-396 123,-396 123,-390 129,-384 135,-384 135,-384 168,-384 168,-384 174,-384 180,-390 180,-396 180,-396 180,-408 180,-408 180,-414 174,-420 168,-420"/>
<text text-anchor="start" x="131" y="-404.4" font-family="Liberation Sans,Helvetica,Arial,sans-serif" font-weight="bold" font-size="12.00" fill="#002b36">X_train</text>
<text text-anchor="start" x="133" y="-394" font-family="Liberation Sans,Helvetica,Arial,sans-serif" font-size="10.00" fill="#268bd2">1 values</text>
</g>
<!-- X_train&#45;&gt;train_model -->
<g id="edge3" class="edge">
<title>X_train&#45;&gt;train_model</title>
<path fill="none" stroke="#002b36" d="M151.5,-383.76C151.5,-370.5 151.5,-351.86 151.5,-336.27"/>
<polygon fill="#002b36" stroke="#002b36" points="155,-336.07 151.5,-326.07 148,-336.07 155,-336.07"/>
<text text-anchor="middle" x="173" y="-358" font-family="Liberation Sans,Helvetica,Arial,sans-serif" font-size="10.00" fill="#002b36">X_train</text>
<text text-anchor="middle" x="173" y="-347" font-family="Liberation Sans,Helvetica,Arial,sans-serif" font-size="10.00" fill="#002b36">(1 values)</text>
</g>
<!-- var_1 -->
<g id="node5" class="node">
<title>var_1</title>
<path fill="none" stroke="#268bd2" d="M242.5,-228C242.5,-228 172.5,-228 172.5,-228 166.5,-228 160.5,-222 160.5,-216 160.5,-216 160.5,-204 160.5,-204 160.5,-198 166.5,-192 172.5,-192 172.5,-192 242.5,-192 242.5,-192 248.5,-192 254.5,-198 254.5,-204 254.5,-204 254.5,-216 254.5,-216 254.5,-222 248.5,-228 242.5,-228"/>
<text text-anchor="start" x="191.5" y="-212.4" font-family="Liberation Sans,Helvetica,Arial,sans-serif" font-weight="bold" font-size="12.00" fill="#002b36">var_1</text>
<text text-anchor="start" x="168.5" y="-202" font-family="Liberation Sans,Helvetica,Arial,sans-serif" font-size="10.00" fill="#268bd2">4 values (4 sinks)</text>
</g>
<!-- var_2 -->
<g id="node6" class="node">
<title>var_2</title>
<path fill="none" stroke="#268bd2" d="M130.5,-36C130.5,-36 60.5,-36 60.5,-36 54.5,-36 48.5,-30 48.5,-24 48.5,-24 48.5,-12 48.5,-12 48.5,-6 54.5,0 60.5,0 60.5,0 130.5,0 130.5,0 136.5,0 142.5,-6 142.5,-12 142.5,-12 142.5,-24 142.5,-24 142.5,-30 136.5,-36 130.5,-36"/>
<text text-anchor="start" x="79.5" y="-20.4" font-family="Liberation Sans,Helvetica,Arial,sans-serif" font-weight="bold" font-size="12.00" fill="#002b36">var_2</text>
<text text-anchor="start" x="56.5" y="-10" font-family="Liberation Sans,Helvetica,Arial,sans-serif" font-size="10.00" fill="#268bd2">2 values (2 sinks)</text>
</g>
<!-- y_train -->
<g id="node7" class="node">
<title>y_train</title>
<path fill="none" stroke="#268bd2" d="M242.5,-420C242.5,-420 210.5,-420 210.5,-420 204.5,-420 198.5,-414 198.5,-408 198.5,-408 198.5,-396 198.5,-396 198.5,-390 204.5,-384 210.5,-384 210.5,-384 242.5,-384 242.5,-384 248.5,-384 254.5,-390 254.5,-396 254.5,-396 254.5,-408 254.5,-408 254.5,-414 248.5,-420 242.5,-420"/>
<text text-anchor="start" x="206.5" y="-404.4" font-family="Liberation Sans,Helvetica,Arial,sans-serif" font-weight="bold" font-size="12.00" fill="#002b36">y_train</text>
<text text-anchor="start" x="208" y="-394" font-family="Liberation Sans,Helvetica,Arial,sans-serif" font-size="10.00" fill="#268bd2">1 values</text>
</g>
<!-- y_train&#45;&gt;train_model -->
<g id="edge5" class="edge">
<title>y_train&#45;&gt;train_model</title>
<path fill="none" stroke="#002b36" d="M220.44,-383.89C215.67,-371.92 208.21,-356 198.5,-344 195.4,-340.17 191.83,-336.48 188.07,-333.02"/>
<polygon fill="#002b36" stroke="#002b36" points="190.06,-330.11 180.19,-326.26 185.5,-335.43 190.06,-330.11"/>
<text text-anchor="middle" x="233" y="-358" font-family="Liberation Sans,Helvetica,Arial,sans-serif" font-size="10.00" fill="#002b36">y_train</text>
<text text-anchor="middle" x="233" y="-347" font-family="Liberation Sans,Helvetica,Arial,sans-serif" font-size="10.00" fill="#002b36">(1 values)</text>
</g>
<!-- train_model&#45;&gt;var_0 -->
<g id="edge1" class="edge">
<title>train_model&#45;&gt;var_0</title>
<path fill="none" stroke="#002b36" d="M140.17,-285.98C131.73,-271.81 120.1,-252.3 110.83,-236.74"/>
<polygon fill="#002b36" stroke="#002b36" points="113.81,-234.9 105.69,-228.1 107.8,-238.48 113.81,-234.9"/>
<text text-anchor="middle" x="150" y="-260" font-family="Liberation Sans,Helvetica,Arial,sans-serif" font-size="10.00" fill="#002b36">output_0</text>
<text text-anchor="middle" x="150" y="-249" font-family="Liberation Sans,Helvetica,Arial,sans-serif" font-size="10.00" fill="#002b36">(4 values)</text>
</g>
<!-- train_model&#45;&gt;var_1 -->
<g id="edge2" class="edge">
<title>train_model&#45;&gt;var_1</title>
<path fill="none" stroke="#002b36" d="M164.19,-285.94C167.91,-280.22 171.94,-273.9 175.5,-268 181.55,-257.99 187.91,-246.8 193.36,-237"/>
<polygon fill="#002b36" stroke="#002b36" points="196.49,-238.57 198.26,-228.12 190.36,-235.19 196.49,-238.57"/>
<text text-anchor="middle" x="209" y="-260" font-family="Liberation Sans,Helvetica,Arial,sans-serif" font-size="10.00" fill="#002b36">output_1</text>
<text text-anchor="middle" x="209" y="-249" font-family="Liberation Sans,Helvetica,Arial,sans-serif" font-size="10.00" fill="#002b36">(4 values)</text>
</g>
<!-- generate_dataset&#45;&gt;X_train -->
<g id="edge7" class="edge">
<title>generate_dataset&#45;&gt;X_train</title>
<path fill="none" stroke="#002b36" d="M169.75,-478C165.38,-472.57 161.22,-466.39 158.5,-460 154.55,-450.7 152.63,-439.83 151.75,-430.09"/>
<polygon fill="#002b36" stroke="#002b36" points="155.24,-429.87 151.16,-420.1 148.26,-430.28 155.24,-429.87"/>
<text text-anchor="middle" x="180" y="-452" font-family="Liberation Sans,Helvetica,Arial,sans-serif" font-size="10.00" fill="#002b36">output_0</text>
<text text-anchor="middle" x="180" y="-441" font-family="Liberation Sans,Helvetica,Arial,sans-serif" font-size="10.00" fill="#002b36">(1 values)</text>
</g>
<!-- generate_dataset&#45;&gt;y_train -->
<g id="edge8" class="edge">
<title>generate_dataset&#45;&gt;y_train</title>
<path fill="none" stroke="#002b36" d="M196.19,-477.98C201.81,-464.07 209.51,-445.03 215.74,-429.61"/>
<polygon fill="#002b36" stroke="#002b36" points="219.09,-430.68 219.59,-420.1 212.6,-428.06 219.09,-430.68"/>
<text text-anchor="middle" x="233" y="-452" font-family="Liberation Sans,Helvetica,Arial,sans-serif" font-size="10.00" fill="#002b36">output_2</text>
<text text-anchor="middle" x="233" y="-441" font-family="Liberation Sans,Helvetica,Arial,sans-serif" font-size="10.00" fill="#002b36">(1 values)</text>
</g>
<!-- eval_model&#45;&gt;var_2 -->
<g id="edge10" class="edge">
<title>eval_model&#45;&gt;var_2</title>
<path fill="none" stroke="#002b36" d="M95.5,-93.98C95.5,-80.34 95.5,-61.75 95.5,-46.5"/>
<polygon fill="#002b36" stroke="#002b36" points="99,-46.1 95.5,-36.1 92,-46.1 99,-46.1"/>
<text text-anchor="middle" x="117" y="-68" font-family="Liberation Sans,Helvetica,Arial,sans-serif" font-size="10.00" fill="#002b36">output_0</text>
<text text-anchor="middle" x="117" y="-57" font-family="Liberation Sans,Helvetica,Arial,sans-serif" font-size="10.00" fill="#002b36">(2 values)</text>
</g>
</g>
</svg>
