<?xml version="1.0" encoding="UTF-8" standalone="no"?>
<!DOCTYPE svg PUBLIC "-//W3C//DTD SVG 1.1//EN"
 "http://www.w3.org/Graphics/SVG/1.1/DTD/svg11.dtd">
<!-- Generated by graphviz version 2.50.0 (0)
 -->
<!-- Title: G Pages: 1 -->
<svg width="408pt" height="634pt"
 viewBox="0.00 0.00 408.00 634.00" xmlns="http://www.w3.org/2000/svg" xmlns:xlink="http://www.w3.org/1999/xlink">
<g id="graph0" class="graph" transform="scale(1 1) rotate(0) translate(4 630)">
<title>G</title>
<polygon fill="white" stroke="transparent" points="-4,4 -4,-630 404,-630 404,4 -4,4"/>
<!-- X_train -->
<g id="node1" class="node">
<title>X_train</title>
<path fill="none" stroke="#268bd2" stroke-width="2" d="M388,-434C388,-434 355,-434 355,-434 349,-434 343,-428 343,-422 343,-422 343,-410 343,-410 343,-404 349,-398 355,-398 355,-398 388,-398 388,-398 394,-398 400,-404 400,-410 400,-410 400,-422 400,-422 400,-428 394,-434 388,-434"/>
<text text-anchor="start" x="351" y="-418.4" font-family="Liberation Sans,Helvetica,Arial,sans-serif" font-weight="bold" font-size="12.00" fill="#002b36">X_train</text>
<text text-anchor="start" x="353" y="-408" font-family="Liberation Sans,Helvetica,Arial,sans-serif" font-size="10.00" fill="#268bd2">1 values</text>
</g>
<!-- train_model -->
<g id="node10" class="node">
<title>train_model</title>
<path fill="none" stroke="#dc322f" stroke-width="2" d="M266,-326C266,-326 199,-326 199,-326 193,-326 187,-320 187,-314 187,-314 187,-298 187,-298 187,-292 193,-286 199,-286 199,-286 266,-286 266,-286 272,-286 278,-292 278,-298 278,-298 278,-314 278,-314 278,-320 272,-326 266,-326"/>
<text text-anchor="start" x="198.5" y="-313.4" font-family="Liberation Sans,Helvetica,Arial,sans-serif" font-weight="bold" font-size="12.00" fill="#002b36">train_model</text>
<text text-anchor="start" x="195" y="-303" font-family="Liberation Sans,Helvetica,Arial,sans-serif" font-size="10.00" fill="#002b36">@op:train_model</text>
<text text-anchor="start" x="218" y="-293" font-family="Liberation Sans,Helvetica,Arial,sans-serif" font-size="10.00" fill="#dc322f">1 calls</text>
</g>
<!-- X_train&#45;&gt;train_model -->
<g id="edge9" class="edge">
<title>X_train&#45;&gt;train_model</title>
<path fill="none" stroke="#002b36" d="M358.25,-397.94C345.63,-382.48 325.5,-359.78 304.5,-344 298.26,-339.31 291.34,-334.91 284.32,-330.9"/>
<polygon fill="#002b36" stroke="#002b36" points="285.89,-327.77 275.43,-326.04 282.53,-333.91 285.89,-327.77"/>
<text text-anchor="middle" x="362" y="-365" font-family="Liberation Sans,Helvetica,Arial,sans-serif" font-size="10.00" fill="#002b36">X_train</text>
<text text-anchor="middle" x="362" y="-354" font-family="Liberation Sans,Helvetica,Arial,sans-serif" font-size="10.00" fill="#002b36">(1 values)</text>
</g>
<!-- v -->
<g id="node2" class="node">
<title>v</title>
<path fill="none" stroke="#268bd2" stroke-width="2" d="M168.5,-36C168.5,-36 98.5,-36 98.5,-36 92.5,-36 86.5,-30 86.5,-24 86.5,-24 86.5,-12 86.5,-12 86.5,-6 92.5,0 98.5,0 98.5,0 168.5,0 168.5,0 174.5,0 180.5,-6 180.5,-12 180.5,-12 180.5,-24 180.5,-24 180.5,-30 174.5,-36 168.5,-36"/>
<text text-anchor="start" x="130" y="-20.4" font-family="Liberation Sans,Helvetica,Arial,sans-serif" font-weight="bold" font-size="12.00" fill="#002b36">v</text>
<text text-anchor="start" x="94.5" y="-10" font-family="Liberation Sans,Helvetica,Arial,sans-serif" font-size="10.00" fill="#268bd2">1 values (1 sinks)</text>
</g>
<!-- n_estimators -->
<g id="node3" class="node">
<title>n_estimators</title>
<path fill="none" stroke="#268bd2" stroke-width="2" d="M190,-434C190,-434 109,-434 109,-434 103,-434 97,-428 97,-422 97,-422 97,-410 97,-410 97,-404 103,-398 109,-398 109,-398 190,-398 190,-398 196,-398 202,-404 202,-410 202,-410 202,-422 202,-422 202,-428 196,-434 190,-434"/>
<text text-anchor="start" x="112" y="-418.4" font-family="Liberation Sans,Helvetica,Arial,sans-serif" font-weight="bold" font-size="12.00" fill="#002b36">n_estimators</text>
<text text-anchor="start" x="105" y="-408" font-family="Liberation Sans,Helvetica,Arial,sans-serif" font-size="10.00" fill="#268bd2">1 values (1 sources)</text>
</g>
<!-- n_estimators&#45;&gt;train_model -->
<g id="edge10" class="edge">
<title>n_estimators&#45;&gt;train_model</title>
<path fill="none" stroke="#002b36" d="M155.78,-397.71C161.86,-382.52 172.1,-360.35 185.5,-344 188.63,-340.18 192.21,-336.51 195.98,-333.06"/>
<polygon fill="#002b36" stroke="#002b36" points="198.54,-335.47 203.87,-326.31 193.99,-330.15 198.54,-335.47"/>
<text text-anchor="middle" x="214" y="-365" font-family="Liberation Sans,Helvetica,Arial,sans-serif" font-size="10.00" fill="#002b36">n_estimators</text>
<text text-anchor="middle" x="214" y="-354" font-family="Liberation Sans,Helvetica,Arial,sans-serif" font-size="10.00" fill="#002b36">(1 values)</text>
</g>
<!-- y_train -->
<g id="node4" class="node">
<title>y_train</title>
<path fill="none" stroke="#268bd2" stroke-width="2" d="M313,-434C313,-434 232,-434 232,-434 226,-434 220,-428 220,-422 220,-422 220,-410 220,-410 220,-404 226,-398 232,-398 232,-398 313,-398 313,-398 319,-398 325,-404 325,-410 325,-410 325,-422 325,-422 325,-428 319,-434 313,-434"/>
<text text-anchor="start" x="252.5" y="-418.4" font-family="Liberation Sans,Helvetica,Arial,sans-serif" font-weight="bold" font-size="12.00" fill="#002b36">y_train</text>
<text text-anchor="start" x="228" y="-408" font-family="Liberation Sans,Helvetica,Arial,sans-serif" font-size="10.00" fill="#268bd2">1 values (1 sources)</text>
</g>
<!-- y_train&#45;&gt;train_model -->
<g id="edge11" class="edge">
<title>y_train&#45;&gt;train_model</title>
<path fill="none" stroke="#002b36" d="M266.07,-397.65C259.88,-380.92 250.39,-355.3 243.08,-335.56"/>
<polygon fill="#002b36" stroke="#002b36" points="246.34,-334.29 239.58,-326.13 239.78,-336.72 246.34,-334.29"/>
<text text-anchor="middle" x="279" y="-365" font-family="Liberation Sans,Helvetica,Arial,sans-serif" font-size="10.00" fill="#002b36">y_train</text>
<text text-anchor="middle" x="279" y="-354" font-family="Liberation Sans,Helvetica,Arial,sans-serif" font-size="10.00" fill="#002b36">(1 values)</text>
</g>
<!-- model -->
<g id="node5" class="node">
<title>model</title>
<path fill="none" stroke="#268bd2" stroke-width="2" d="M211.5,-228C211.5,-228 181.5,-228 181.5,-228 175.5,-228 169.5,-222 169.5,-216 169.5,-216 169.5,-204 169.5,-204 169.5,-198 175.5,-192 181.5,-192 181.5,-192 211.5,-192 211.5,-192 217.5,-192 223.5,-198 223.5,-204 223.5,-204 223.5,-216 223.5,-216 223.5,-222 217.5,-228 211.5,-228"/>
<text text-anchor="start" x="178.5" y="-212.4" font-family="Liberation Sans,Helvetica,Arial,sans-serif" font-weight="bold" font-size="12.00" fill="#002b36">model</text>
<text text-anchor="start" x="178" y="-202" font-family="Liberation Sans,Helvetica,Arial,sans-serif" font-size="10.00" fill="#268bd2">1 values</text>
</g>
<!-- eval_model -->
<g id="node9" class="node">
<title>eval_model</title>
<path fill="none" stroke="#dc322f" stroke-width="2" d="M166.5,-134C166.5,-134 100.5,-134 100.5,-134 94.5,-134 88.5,-128 88.5,-122 88.5,-122 88.5,-106 88.5,-106 88.5,-100 94.5,-94 100.5,-94 100.5,-94 166.5,-94 166.5,-94 172.5,-94 178.5,-100 178.5,-106 178.5,-106 178.5,-122 178.5,-122 178.5,-128 172.5,-134 166.5,-134"/>
<text text-anchor="start" x="100.5" y="-121.4" font-family="Liberation Sans,Helvetica,Arial,sans-serif" font-weight="bold" font-size="12.00" fill="#002b36">eval_model</text>
<text text-anchor="start" x="96.5" y="-111" font-family="Liberation Sans,Helvetica,Arial,sans-serif" font-size="10.00" fill="#002b36">@op:eval_model</text>
<text text-anchor="start" x="119" y="-101" font-family="Liberation Sans,Helvetica,Arial,sans-serif" font-size="10.00" fill="#dc322f">1 calls</text>
</g>
<!-- model&#45;&gt;eval_model -->
<g id="edge3" class="edge">
<title>model&#45;&gt;eval_model</title>
<path fill="none" stroke="#002b36" d="M184.94,-191.76C175.71,-177.99 162.6,-158.42 151.92,-142.49"/>
<polygon fill="#002b36" stroke="#002b36" points="154.76,-140.43 146.28,-134.07 148.94,-144.33 154.76,-140.43"/>
<text text-anchor="middle" x="194" y="-166" font-family="Liberation Sans,Helvetica,Arial,sans-serif" font-size="10.00" fill="#002b36">model</text>
<text text-anchor="middle" x="194" y="-155" font-family="Liberation Sans,Helvetica,Arial,sans-serif" font-size="10.00" fill="#002b36">(1 values)</text>
</g>
<!-- random_seed -->
<g id="node6" class="node">
<title>random_seed</title>
<path fill="none" stroke="#268bd2" stroke-width="2" d="M142,-626C142,-626 61,-626 61,-626 55,-626 49,-620 49,-614 49,-614 49,-602 49,-602 49,-596 55,-590 61,-590 61,-590 142,-590 142,-590 148,-590 154,-596 154,-602 154,-602 154,-614 154,-614 154,-620 148,-626 142,-626"/>
<text text-anchor="start" x="62" y="-610.4" font-family="Liberation Sans,Helvetica,Arial,sans-serif" font-weight="bold" font-size="12.00" fill="#002b36">random_seed</text>
<text text-anchor="start" x="57" y="-600" font-family="Liberation Sans,Helvetica,Arial,sans-serif" font-size="10.00" fill="#268bd2">1 values (1 sources)</text>
</g>
<!-- generate_dataset -->
<g id="node11" class="node">
<title>generate_dataset</title>
<path fill="none" stroke="#dc322f" stroke-width="2" d="M147.5,-532C147.5,-532 55.5,-532 55.5,-532 49.5,-532 43.5,-526 43.5,-520 43.5,-520 43.5,-504 43.5,-504 43.5,-498 49.5,-492 55.5,-492 55.5,-492 147.5,-492 147.5,-492 153.5,-492 159.5,-498 159.5,-504 159.5,-504 159.5,-520 159.5,-520 159.5,-526 153.5,-532 147.5,-532"/>
<text text-anchor="start" x="51.5" y="-519.4" font-family="Liberation Sans,Helvetica,Arial,sans-serif" font-weight="bold" font-size="12.00" fill="#002b36">generate_dataset</text>
<text text-anchor="start" x="51.5" y="-509" font-family="Liberation Sans,Helvetica,Arial,sans-serif" font-size="10.00" fill="#002b36">@op:generate_dataset</text>
<text text-anchor="start" x="87" y="-499" font-family="Liberation Sans,Helvetica,Arial,sans-serif" font-size="10.00" fill="#dc322f">1 calls</text>
</g>
<!-- random_seed&#45;&gt;generate_dataset -->
<g id="edge7" class="edge">
<title>random_seed&#45;&gt;generate_dataset</title>
<path fill="none" stroke="#002b36" d="M101.5,-589.76C101.5,-576.5 101.5,-557.86 101.5,-542.27"/>
<polygon fill="#002b36" stroke="#002b36" points="105,-542.07 101.5,-532.07 98,-542.07 105,-542.07"/>
<text text-anchor="middle" x="131" y="-564" font-family="Liberation Sans,Helvetica,Arial,sans-serif" font-size="10.00" fill="#002b36">random_seed</text>
<text text-anchor="middle" x="131" y="-553" font-family="Liberation Sans,Helvetica,Arial,sans-serif" font-size="10.00" fill="#002b36">(1 values)</text>
</g>
<!-- y_test -->
<g id="node7" class="node">
<title>y_test</title>
<path fill="none" stroke="#268bd2" stroke-width="2" d="M93,-228C93,-228 12,-228 12,-228 6,-228 0,-222 0,-216 0,-216 0,-204 0,-204 0,-198 6,-192 12,-192 12,-192 93,-192 93,-192 99,-192 105,-198 105,-204 105,-204 105,-216 105,-216 105,-222 99,-228 93,-228"/>
<text text-anchor="start" x="35" y="-212.4" font-family="Liberation Sans,Helvetica,Arial,sans-serif" font-weight="bold" font-size="12.00" fill="#002b36">y_test</text>
<text text-anchor="start" x="8" y="-202" font-family="Liberation Sans,Helvetica,Arial,sans-serif" font-size="10.00" fill="#268bd2">1 values (1 sources)</text>
</g>
<!-- y_test&#45;&gt;eval_model -->
<g id="edge4" class="edge">
<title>y_test&#45;&gt;eval_model</title>
<path fill="none" stroke="#002b36" d="M56.8,-191.86C60.49,-179.72 66.78,-163.61 76.5,-152 80.05,-147.76 84.21,-143.83 88.64,-140.24"/>
<polygon fill="#002b36" stroke="#002b36" points="90.89,-142.93 96.83,-134.16 86.71,-137.31 90.89,-142.93"/>
<text text-anchor="middle" x="98" y="-166" font-family="Liberation Sans,Helvetica,Arial,sans-serif" font-size="10.00" fill="#002b36">y_test</text>
<text text-anchor="middle" x="98" y="-155" font-family="Liberation Sans,Helvetica,Arial,sans-serif" font-size="10.00" fill="#002b36">(1 values)</text>
</g>
<!-- X_test -->
<g id="node8" class="node">
<title>X_test</title>
<path fill="none" stroke="#268bd2" stroke-width="2" d="M99.5,-380C99.5,-380 69.5,-380 69.5,-380 63.5,-380 57.5,-374 57.5,-368 57.5,-368 57.5,-356 57.5,-356 57.5,-350 63.5,-344 69.5,-344 69.5,-344 99.5,-344 99.5,-344 105.5,-344 111.5,-350 111.5,-356 111.5,-356 111.5,-368 111.5,-368 111.5,-374 105.5,-380 99.5,-380"/>
<text text-anchor="start" x="66" y="-364.4" font-family="Liberation Sans,Helvetica,Arial,sans-serif" font-weight="bold" font-size="12.00" fill="#002b36">X_test</text>
<text text-anchor="start" x="66" y="-354" font-family="Liberation Sans,Helvetica,Arial,sans-serif" font-size="10.00" fill="#268bd2">1 values</text>
</g>
<!-- X_test&#45;&gt;eval_model -->
<g id="edge2" class="edge">
<title>X_test&#45;&gt;eval_model</title>
<path fill="none" stroke="#002b36" d="M88.47,-343.83C94.27,-318.53 105.26,-269.73 113.5,-228 119.1,-199.65 124.77,-167.16 128.64,-144.31"/>
<polygon fill="#002b36" stroke="#002b36" points="132.13,-144.68 130.33,-134.24 125.22,-143.52 132.13,-144.68"/>
<text text-anchor="middle" x="132" y="-260" font-family="Liberation Sans,Helvetica,Arial,sans-serif" font-size="10.00" fill="#002b36">X_test</text>
<text text-anchor="middle" x="132" y="-249" font-family="Liberation Sans,Helvetica,Arial,sans-serif" font-size="10.00" fill="#002b36">(1 values)</text>
</g>
<!-- eval_model&#45;&gt;v -->
<g id="edge1" class="edge">
<title>eval_model&#45;&gt;v</title>
<path fill="none" stroke="#002b36" d="M133.5,-93.98C133.5,-80.34 133.5,-61.75 133.5,-46.5"/>
<polygon fill="#002b36" stroke="#002b36" points="137,-46.1 133.5,-36.1 130,-46.1 137,-46.1"/>
<text text-anchor="middle" x="155" y="-68" font-family="Liberation Sans,Helvetica,Arial,sans-serif" font-size="10.00" fill="#002b36">output_0</text>
<text text-anchor="middle" x="155" y="-57" font-family="Liberation Sans,Helvetica,Arial,sans-serif" font-size="10.00" fill="#002b36">(1 values)</text>
</g>
<!-- train_model&#45;&gt;model -->
<g id="edge8" class="edge">
<title>train_model&#45;&gt;model</title>
<path fill="none" stroke="#002b36" d="M225.21,-285.98C219.89,-272.07 212.6,-253.03 206.69,-237.61"/>
<polygon fill="#002b36" stroke="#002b36" points="209.89,-236.18 203.05,-228.1 203.36,-238.69 209.89,-236.18"/>
<text text-anchor="middle" x="239" y="-260" font-family="Liberation Sans,Helvetica,Arial,sans-serif" font-size="10.00" fill="#002b36">output_0</text>
<text text-anchor="middle" x="239" y="-249" font-family="Liberation Sans,Helvetica,Arial,sans-serif" font-size="10.00" fill="#002b36">(1 values)</text>
</g>
<!-- generate_dataset&#45;&gt;X_train -->
<g id="edge6" class="edge">
<title>generate_dataset&#45;&gt;X_train</title>
<path fill="none" stroke="#002b36" d="M159.59,-493.78C204.89,-479.9 269.43,-459.15 333.51,-434.21"/>
<polygon fill="#002b36" stroke="#002b36" points="334.92,-437.41 342.95,-430.5 332.37,-430.9 334.92,-437.41"/>
<text text-anchor="middle" x="305" y="-466" font-family="Liberation Sans,Helvetica,Arial,sans-serif" font-size="10.00" fill="#002b36">output_0</text>
<text text-anchor="middle" x="305" y="-455" font-family="Liberation Sans,Helvetica,Arial,sans-serif" font-size="10.00" fill="#002b36">(1 values)</text>
</g>
<!-- generate_dataset&#45;&gt;X_test -->
<g id="edge5" class="edge">
<title>generate_dataset&#45;&gt;X_test</title>
<path fill="none" stroke="#002b36" d="M97.25,-491.81C94,-476.29 89.71,-453.85 87.5,-434 85.91,-419.73 85.14,-403.75 84.78,-390.58"/>
<polygon fill="#002b36" stroke="#002b36" points="88.28,-390.19 84.57,-380.27 81.28,-390.34 88.28,-390.19"/>
<text text-anchor="middle" x="116" y="-466" font-family="Liberation Sans,Helvetica,Arial,sans-serif" font-size="10.00" fill="#002b36">output_1</text>
<text text-anchor="middle" x="116" y="-455" font-family="Liberation Sans,Helvetica,Arial,sans-serif" font-size="10.00" fill="#002b36">(1 values)</text>
</g>
</g>
</svg>
