<?xml version="1.0" encoding="UTF-8" standalone="no"?>
<!DOCTYPE svg PUBLIC "-//W3C//DTD SVG 1.1//EN"
 "http://www.w3.org/Graphics/SVG/1.1/DTD/svg11.dtd">
<!-- Generated by graphviz version 2.50.0 (0)
 -->
<!-- Title: G Pages: 1 -->
<svg width="359pt" height="236pt"
 viewBox="0.00 0.00 359.00 236.00" xmlns="http://www.w3.org/2000/svg" xmlns:xlink="http://www.w3.org/1999/xlink">
<g id="graph0" class="graph" transform="scale(1 1) rotate(0) translate(4 232)">
<title>G</title>
<polygon fill="white" stroke="transparent" points="-4,4 -4,-232 355,-232 355,4 -4,4"/>
<!-- var_0 -->
<g id="node1" class="node">
<title>var_0</title>
<path fill="none" stroke="#268bd2" d="M154.5,-36C154.5,-36 84.5,-36 84.5,-36 78.5,-36 72.5,-30 72.5,-24 72.5,-24 72.5,-12 72.5,-12 72.5,-6 78.5,0 84.5,0 84.5,0 154.5,0 154.5,0 160.5,0 166.5,-6 166.5,-12 166.5,-12 166.5,-24 166.5,-24 166.5,-30 160.5,-36 154.5,-36"/>
<text text-anchor="start" x="103.5" y="-20.4" font-family="Liberation Sans,Helvetica,Arial,sans-serif" font-weight="bold" font-size="12.00" fill="#002b36">var_0</text>
<text text-anchor="start" x="80.5" y="-10" font-family="Liberation Sans,Helvetica,Arial,sans-serif" font-size="10.00" fill="#268bd2">4 values (4 sinks)</text>
</g>
<!-- n_estimators -->
<g id="node2" class="node">
<title>n_estimators</title>
<path fill="none" stroke="#268bd2" d="M93,-228C93,-228 12,-228 12,-228 6,-228 0,-222 0,-216 0,-216 0,-204 0,-204 0,-198 6,-192 12,-192 12,-192 93,-192 93,-192 99,-192 105,-198 105,-204 105,-204 105,-216 105,-216 105,-222 99,-228 93,-228"/>
<text text-anchor="start" x="15" y="-212.4" font-family="Liberation Sans,Helvetica,Arial,sans-serif" font-weight="bold" font-size="12.00" fill="#002b36">n_estimators</text>
<text text-anchor="start" x="8" y="-202" font-family="Liberation Sans,Helvetica,Arial,sans-serif" font-size="10.00" fill="#268bd2">4 values (4 sources)</text>
</g>
<!-- train_model -->
<g id="node6" class="node">
<title>train_model</title>
<path fill="none" stroke="#dc322f" d="M209,-134C209,-134 142,-134 142,-134 136,-134 130,-128 130,-122 130,-122 130,-106 130,-106 130,-100 136,-94 142,-94 142,-94 209,-94 209,-94 215,-94 221,-100 221,-106 221,-106 221,-122 221,-122 221,-128 215,-134 209,-134"/>
<text text-anchor="start" x="141.5" y="-121.4" font-family="Liberation Sans,Helvetica,Arial,sans-serif" font-weight="bold" font-size="12.00" fill="#002b36">train_model</text>
<text text-anchor="start" x="138" y="-111" font-family="Liberation Sans,Helvetica,Arial,sans-serif" font-size="10.00" fill="#002b36">@op:train_model</text>
<text text-anchor="start" x="161" y="-101" font-family="Liberation Sans,Helvetica,Arial,sans-serif" font-size="10.00" fill="#dc322f">4 calls</text>
</g>
<!-- n_estimators&#45;&gt;train_model -->
<g id="edge4" class="edge">
<title>n_estimators&#45;&gt;train_model</title>
<path fill="none" stroke="#002b36" d="M69.33,-191.81C81.37,-179.96 98.25,-164.21 114.5,-152 120.29,-147.65 126.61,-143.36 132.92,-139.33"/>
<polygon fill="#002b36" stroke="#002b36" points="134.83,-142.26 141.48,-134.01 131.14,-136.32 134.83,-142.26"/>
<text text-anchor="middle" x="143" y="-166" font-family="Liberation Sans,Helvetica,Arial,sans-serif" font-size="10.00" fill="#002b36">n_estimators</text>
<text text-anchor="middle" x="143" y="-155" font-family="Liberation Sans,Helvetica,Arial,sans-serif" font-size="10.00" fill="#002b36">(4 values)</text>
</g>
<!-- X_train -->
<g id="node3" class="node">
<title>X_train</title>
<path fill="none" stroke="#268bd2" d="M216,-228C216,-228 135,-228 135,-228 129,-228 123,-222 123,-216 123,-216 123,-204 123,-204 123,-198 129,-192 135,-192 135,-192 216,-192 216,-192 222,-192 228,-198 228,-204 228,-204 228,-216 228,-216 228,-222 222,-228 216,-228"/>
<text text-anchor="start" x="155" y="-212.4" font-family="Liberation Sans,Helvetica,Arial,sans-serif" font-weight="bold" font-size="12.00" fill="#002b36">X_train</text>
<text text-anchor="start" x="131" y="-202" font-family="Liberation Sans,Helvetica,Arial,sans-serif" font-size="10.00" fill="#268bd2">1 values (1 sources)</text>
</g>
<!-- X_train&#45;&gt;train_model -->
<g id="edge3" class="edge">
<title>X_train&#45;&gt;train_model</title>
<path fill="none" stroke="#002b36" d="M175.5,-191.76C175.5,-178.5 175.5,-159.86 175.5,-144.27"/>
<polygon fill="#002b36" stroke="#002b36" points="179,-144.07 175.5,-134.07 172,-144.07 179,-144.07"/>
<text text-anchor="middle" x="197" y="-166" font-family="Liberation Sans,Helvetica,Arial,sans-serif" font-size="10.00" fill="#002b36">X_train</text>
<text text-anchor="middle" x="197" y="-155" font-family="Liberation Sans,Helvetica,Arial,sans-serif" font-size="10.00" fill="#002b36">(1 values)</text>
</g>
<!-- var_1 -->
<g id="node4" class="node">
<title>var_1</title>
<path fill="none" stroke="#268bd2" d="M266.5,-36C266.5,-36 196.5,-36 196.5,-36 190.5,-36 184.5,-30 184.5,-24 184.5,-24 184.5,-12 184.5,-12 184.5,-6 190.5,0 196.5,0 196.5,0 266.5,0 266.5,0 272.5,0 278.5,-6 278.5,-12 278.5,-12 278.5,-24 278.5,-24 278.5,-30 272.5,-36 266.5,-36"/>
<text text-anchor="start" x="215.5" y="-20.4" font-family="Liberation Sans,Helvetica,Arial,sans-serif" font-weight="bold" font-size="12.00" fill="#002b36">var_1</text>
<text text-anchor="start" x="192.5" y="-10" font-family="Liberation Sans,Helvetica,Arial,sans-serif" font-size="10.00" fill="#268bd2">4 values (4 sinks)</text>
</g>
<!-- y_train -->
<g id="node5" class="node">
<title>y_train</title>
<path fill="none" stroke="#268bd2" d="M339,-228C339,-228 258,-228 258,-228 252,-228 246,-222 246,-216 246,-216 246,-204 246,-204 246,-198 252,-192 258,-192 258,-192 339,-192 339,-192 345,-192 351,-198 351,-204 351,-204 351,-216 351,-216 351,-222 345,-228 339,-228"/>
<text text-anchor="start" x="278.5" y="-212.4" font-family="Liberation Sans,Helvetica,Arial,sans-serif" font-weight="bold" font-size="12.00" fill="#002b36">y_train</text>
<text text-anchor="start" x="254" y="-202" font-family="Liberation Sans,Helvetica,Arial,sans-serif" font-size="10.00" fill="#268bd2">1 values (1 sources)</text>
</g>
<!-- y_train&#45;&gt;train_model -->
<g id="edge5" class="edge">
<title>y_train&#45;&gt;train_model</title>
<path fill="none" stroke="#002b36" d="M276.23,-191.98C257.4,-177.59 230.16,-156.78 208.76,-140.42"/>
<polygon fill="#002b36" stroke="#002b36" points="210.64,-137.45 200.57,-134.16 206.39,-143.02 210.64,-137.45"/>
<text text-anchor="middle" x="273" y="-166" font-family="Liberation Sans,Helvetica,Arial,sans-serif" font-size="10.00" fill="#002b36">y_train</text>
<text text-anchor="middle" x="273" y="-155" font-family="Liberation Sans,Helvetica,Arial,sans-serif" font-size="10.00" fill="#002b36">(1 values)</text>
</g>
<!-- train_model&#45;&gt;var_0 -->
<g id="edge1" class="edge">
<title>train_model&#45;&gt;var_0</title>
<path fill="none" stroke="#002b36" d="M164.17,-93.98C155.73,-79.81 144.1,-60.3 134.83,-44.74"/>
<polygon fill="#002b36" stroke="#002b36" points="137.81,-42.9 129.69,-36.1 131.8,-46.48 137.81,-42.9"/>
<text text-anchor="middle" x="174" y="-68" font-family="Liberation Sans,Helvetica,Arial,sans-serif" font-size="10.00" fill="#002b36">output_0</text>
<text text-anchor="middle" x="174" y="-57" font-family="Liberation Sans,Helvetica,Arial,sans-serif" font-size="10.00" fill="#002b36">(4 values)</text>
</g>
<!-- train_model&#45;&gt;var_1 -->
<g id="edge2" class="edge">
<title>train_model&#45;&gt;var_1</title>
<path fill="none" stroke="#002b36" d="M188.19,-93.94C191.91,-88.22 195.94,-81.9 199.5,-76 205.55,-65.99 211.91,-54.8 217.36,-45"/>
<polygon fill="#002b36" stroke="#002b36" points="220.49,-46.57 222.26,-36.12 214.36,-43.19 220.49,-46.57"/>
<text text-anchor="middle" x="233" y="-68" font-family="Liberation Sans,Helvetica,Arial,sans-serif" font-size="10.00" fill="#002b36">output_1</text>
<text text-anchor="middle" x="233" y="-57" font-family="Liberation Sans,Helvetica,Arial,sans-serif" font-size="10.00" fill="#002b36">(4 values)</text>
</g>
</g>
</svg>
