<?xml version="1.0" encoding="UTF-8" standalone="no"?>
<!DOCTYPE svg PUBLIC "-//W3C//DTD SVG 1.1//EN"
 "http://www.w3.org/Graphics/SVG/1.1/DTD/svg11.dtd">
<!-- Generated by graphviz version 2.50.0 (0)
 -->
<!-- Title: G Pages: 1 -->
<svg width="421pt" height="634pt"
 viewBox="0.00 0.00 421.00 634.00" xmlns="http://www.w3.org/2000/svg" xmlns:xlink="http://www.w3.org/1999/xlink">
<g id="graph0" class="graph" transform="scale(1 1) rotate(0) translate(4 630)">
<title>G</title>
<polygon fill="white" stroke="transparent" points="-4,4 -4,-630 417,-630 417,4 -4,4"/>
<!-- X_test -->
<g id="node1" class="node">
<title>X_test</title>
<path fill="none" stroke="#268bd2" stroke-width="1.5" d="M111.5,-380C111.5,-380 81.5,-380 81.5,-380 75.5,-380 69.5,-374 69.5,-368 69.5,-368 69.5,-356 69.5,-356 69.5,-350 75.5,-344 81.5,-344 81.5,-344 111.5,-344 111.5,-344 117.5,-344 123.5,-350 123.5,-356 123.5,-356 123.5,-368 123.5,-368 123.5,-374 117.5,-380 111.5,-380"/>
<text text-anchor="start" x="78" y="-364.4" font-family="Liberation Sans,Helvetica,Arial,sans-serif" font-weight="bold" font-size="12.00" fill="#002b36">X_test</text>
<text text-anchor="start" x="78" y="-354" font-family="Liberation Sans,Helvetica,Arial,sans-serif" font-size="10.00" fill="#268bd2">1 values</text>
</g>
<!-- eval_model -->
<g id="node10" class="node">
<title>eval_model</title>
<path fill="none" stroke="#dc322f" stroke-width="1.5" d="M166.5,-134C166.5,-134 100.5,-134 100.5,-134 94.5,-134 88.5,-128 88.5,-122 88.5,-122 88.5,-106 88.5,-106 88.5,-100 94.5,-94 100.5,-94 100.5,-94 166.5,-94 166.5,-94 172.5,-94 178.5,-100 178.5,-106 178.5,-106 178.5,-122 178.5,-122 178.5,-128 172.5,-134 166.5,-134"/>
<text text-anchor="start" x="100.5" y="-121.4" font-family="Liberation Sans,Helvetica,Arial,sans-serif" font-weight="bold" font-size="12.00" fill="#002b36">eval_model</text>
<text text-anchor="start" x="96.5" y="-111" font-family="Liberation Sans,Helvetica,Arial,sans-serif" font-size="10.00" fill="#002b36">@op:eval_model</text>
<text text-anchor="start" x="119" y="-101" font-family="Liberation Sans,Helvetica,Arial,sans-serif" font-size="10.00" fill="#dc322f">1 calls</text>
</g>
<!-- X_test&#45;&gt;eval_model -->
<g id="edge2" class="edge">
<title>X_test&#45;&gt;eval_model</title>
<path fill="none" stroke="#002b36" d="M99.1,-343.7C105.35,-302.15 121.27,-196.31 129.06,-144.49"/>
<polygon fill="#002b36" stroke="#002b36" points="132.57,-144.7 130.6,-134.29 125.65,-143.66 132.57,-144.7"/>
<text text-anchor="middle" x="135" y="-260" font-family="Liberation Sans,Helvetica,Arial,sans-serif" font-size="10.00" fill="#002b36">X_test</text>
<text text-anchor="middle" x="135" y="-249" font-family="Liberation Sans,Helvetica,Arial,sans-serif" font-size="10.00" fill="#002b36">(1 values)</text>
</g>
<!-- v -->
<g id="node2" class="node">
<title>v</title>
<path fill="none" stroke="#268bd2" stroke-width="1.5" d="M168.5,-36C168.5,-36 98.5,-36 98.5,-36 92.5,-36 86.5,-30 86.5,-24 86.5,-24 86.5,-12 86.5,-12 86.5,-6 92.5,0 98.5,0 98.5,0 168.5,0 168.5,0 174.5,0 180.5,-6 180.5,-12 180.5,-12 180.5,-24 180.5,-24 180.5,-30 174.5,-36 168.5,-36"/>
<text text-anchor="start" x="130" y="-20.4" font-family="Liberation Sans,Helvetica,Arial,sans-serif" font-weight="bold" font-size="12.00" fill="#002b36">v</text>
<text text-anchor="start" x="94.5" y="-10" font-family="Liberation Sans,Helvetica,Arial,sans-serif" font-size="10.00" fill="#268bd2">1 values (1 sinks)</text>
</g>
<!-- n_estimators -->
<g id="node3" class="node">
<title>n_estimators</title>
<path fill="none" stroke="#268bd2" stroke-width="1.5" d="M401,-434C401,-434 320,-434 320,-434 314,-434 308,-428 308,-422 308,-422 308,-410 308,-410 308,-404 314,-398 320,-398 320,-398 401,-398 401,-398 407,-398 413,-404 413,-410 413,-410 413,-422 413,-422 413,-428 407,-434 401,-434"/>
<text text-anchor="start" x="323" y="-418.4" font-family="Liberation Sans,Helvetica,Arial,sans-serif" font-weight="bold" font-size="12.00" fill="#002b36">n_estimators</text>
<text text-anchor="start" x="316" y="-408" font-family="Liberation Sans,Helvetica,Arial,sans-serif" font-size="10.00" fill="#268bd2">1 values (1 sources)</text>
</g>
<!-- train_model -->
<g id="node9" class="node">
<title>train_model</title>
<path fill="none" stroke="#dc322f" stroke-width="1.5" d="M260,-326C260,-326 193,-326 193,-326 187,-326 181,-320 181,-314 181,-314 181,-298 181,-298 181,-292 187,-286 193,-286 193,-286 260,-286 260,-286 266,-286 272,-292 272,-298 272,-298 272,-314 272,-314 272,-320 266,-326 260,-326"/>
<text text-anchor="start" x="192.5" y="-313.4" font-family="Liberation Sans,Helvetica,Arial,sans-serif" font-weight="bold" font-size="12.00" fill="#002b36">train_model</text>
<text text-anchor="start" x="189" y="-303" font-family="Liberation Sans,Helvetica,Arial,sans-serif" font-size="10.00" fill="#002b36">@op:train_model</text>
<text text-anchor="start" x="212" y="-293" font-family="Liberation Sans,Helvetica,Arial,sans-serif" font-size="10.00" fill="#dc322f">1 calls</text>
</g>
<!-- n_estimators&#45;&gt;train_model -->
<g id="edge10" class="edge">
<title>n_estimators&#45;&gt;train_model</title>
<path fill="none" stroke="#002b36" d="M342.63,-397.97C326.77,-383.15 302.74,-361.38 280.5,-344 275.39,-340 269.87,-335.95 264.38,-332.06"/>
<polygon fill="#002b36" stroke="#002b36" points="266.05,-328.96 255.84,-326.13 262.05,-334.71 266.05,-328.96"/>
<text text-anchor="middle" x="351" y="-365" font-family="Liberation Sans,Helvetica,Arial,sans-serif" font-size="10.00" fill="#002b36">n_estimators</text>
<text text-anchor="middle" x="351" y="-354" font-family="Liberation Sans,Helvetica,Arial,sans-serif" font-size="10.00" fill="#002b36">(1 values)</text>
</g>
<!-- random_seed -->
<g id="node4" class="node">
<title>random_seed</title>
<path fill="none" stroke="#268bd2" stroke-width="1.5" d="M151,-626C151,-626 70,-626 70,-626 64,-626 58,-620 58,-614 58,-614 58,-602 58,-602 58,-596 64,-590 70,-590 70,-590 151,-590 151,-590 157,-590 163,-596 163,-602 163,-602 163,-614 163,-614 163,-620 157,-626 151,-626"/>
<text text-anchor="start" x="71" y="-610.4" font-family="Liberation Sans,Helvetica,Arial,sans-serif" font-weight="bold" font-size="12.00" fill="#002b36">random_seed</text>
<text text-anchor="start" x="66" y="-600" font-family="Liberation Sans,Helvetica,Arial,sans-serif" font-size="10.00" fill="#268bd2">1 values (1 sources)</text>
</g>
<!-- generate_dataset -->
<g id="node11" class="node">
<title>generate_dataset</title>
<path fill="none" stroke="#dc322f" stroke-width="1.5" d="M156.5,-532C156.5,-532 64.5,-532 64.5,-532 58.5,-532 52.5,-526 52.5,-520 52.5,-520 52.5,-504 52.5,-504 52.5,-498 58.5,-492 64.5,-492 64.5,-492 156.5,-492 156.5,-492 162.5,-492 168.5,-498 168.5,-504 168.5,-504 168.5,-520 168.5,-520 168.5,-526 162.5,-532 156.5,-532"/>
<text text-anchor="start" x="60.5" y="-519.4" font-family="Liberation Sans,Helvetica,Arial,sans-serif" font-weight="bold" font-size="12.00" fill="#002b36">generate_dataset</text>
<text text-anchor="start" x="60.5" y="-509" font-family="Liberation Sans,Helvetica,Arial,sans-serif" font-size="10.00" fill="#002b36">@op:generate_dataset</text>
<text text-anchor="start" x="96" y="-499" font-family="Liberation Sans,Helvetica,Arial,sans-serif" font-size="10.00" fill="#dc322f">1 calls</text>
</g>
<!-- random_seed&#45;&gt;generate_dataset -->
<g id="edge7" class="edge">
<title>random_seed&#45;&gt;generate_dataset</title>
<path fill="none" stroke="#002b36" d="M110.5,-589.76C110.5,-576.5 110.5,-557.86 110.5,-542.27"/>
<polygon fill="#002b36" stroke="#002b36" points="114,-542.07 110.5,-532.07 107,-542.07 114,-542.07"/>
<text text-anchor="middle" x="140" y="-564" font-family="Liberation Sans,Helvetica,Arial,sans-serif" font-size="10.00" fill="#002b36">random_seed</text>
<text text-anchor="middle" x="140" y="-553" font-family="Liberation Sans,Helvetica,Arial,sans-serif" font-size="10.00" fill="#002b36">(1 values)</text>
</g>
<!-- y_test -->
<g id="node5" class="node">
<title>y_test</title>
<path fill="none" stroke="#268bd2" stroke-width="1.5" d="M93,-228C93,-228 12,-228 12,-228 6,-228 0,-222 0,-216 0,-216 0,-204 0,-204 0,-198 6,-192 12,-192 12,-192 93,-192 93,-192 99,-192 105,-198 105,-204 105,-204 105,-216 105,-216 105,-222 99,-228 93,-228"/>
<text text-anchor="start" x="35" y="-212.4" font-family="Liberation Sans,Helvetica,Arial,sans-serif" font-weight="bold" font-size="12.00" fill="#002b36">y_test</text>
<text text-anchor="start" x="8" y="-202" font-family="Liberation Sans,Helvetica,Arial,sans-serif" font-size="10.00" fill="#268bd2">1 values (1 sources)</text>
</g>
<!-- y_test&#45;&gt;eval_model -->
<g id="edge4" class="edge">
<title>y_test&#45;&gt;eval_model</title>
<path fill="none" stroke="#002b36" d="M56.8,-191.86C60.49,-179.72 66.78,-163.61 76.5,-152 80.05,-147.76 84.21,-143.83 88.64,-140.24"/>
<polygon fill="#002b36" stroke="#002b36" points="90.89,-142.93 96.83,-134.16 86.71,-137.31 90.89,-142.93"/>
<text text-anchor="middle" x="98" y="-166" font-family="Liberation Sans,Helvetica,Arial,sans-serif" font-size="10.00" fill="#002b36">y_test</text>
<text text-anchor="middle" x="98" y="-155" font-family="Liberation Sans,Helvetica,Arial,sans-serif" font-size="10.00" fill="#002b36">(1 values)</text>
</g>
<!-- X_train -->
<g id="node6" class="node">
<title>X_train</title>
<path fill="none" stroke="#268bd2" stroke-width="1.5" d="M155,-434C155,-434 122,-434 122,-434 116,-434 110,-428 110,-422 110,-422 110,-410 110,-410 110,-404 116,-398 122,-398 122,-398 155,-398 155,-398 161,-398 167,-404 167,-410 167,-410 167,-422 167,-422 167,-428 161,-434 155,-434"/>
<text text-anchor="start" x="118" y="-418.4" font-family="Liberation Sans,Helvetica,Arial,sans-serif" font-weight="bold" font-size="12.00" fill="#002b36">X_train</text>
<text text-anchor="start" x="120" y="-408" font-family="Liberation Sans,Helvetica,Arial,sans-serif" font-size="10.00" fill="#268bd2">1 values</text>
</g>
<!-- X_train&#45;&gt;train_model -->
<g id="edge9" class="edge">
<title>X_train&#45;&gt;train_model</title>
<path fill="none" stroke="#002b36" d="M147.09,-397.92C155.1,-382.86 167.98,-360.78 182.5,-344 185.84,-340.14 189.61,-336.34 193.49,-332.73"/>
<polygon fill="#002b36" stroke="#002b36" points="195.85,-335.32 201.03,-326.08 191.22,-330.07 195.85,-335.32"/>
<text text-anchor="middle" x="204" y="-365" font-family="Liberation Sans,Helvetica,Arial,sans-serif" font-size="10.00" fill="#002b36">X_train</text>
<text text-anchor="middle" x="204" y="-354" font-family="Liberation Sans,Helvetica,Arial,sans-serif" font-size="10.00" fill="#002b36">(1 values)</text>
</g>
<!-- y_train -->
<g id="node7" class="node">
<title>y_train</title>
<path fill="none" stroke="#268bd2" stroke-width="1.5" d="M278,-434C278,-434 197,-434 197,-434 191,-434 185,-428 185,-422 185,-422 185,-410 185,-410 185,-404 191,-398 197,-398 197,-398 278,-398 278,-398 284,-398 290,-404 290,-410 290,-410 290,-422 290,-422 290,-428 284,-434 278,-434"/>
<text text-anchor="start" x="217.5" y="-418.4" font-family="Liberation Sans,Helvetica,Arial,sans-serif" font-weight="bold" font-size="12.00" fill="#002b36">y_train</text>
<text text-anchor="start" x="193" y="-408" font-family="Liberation Sans,Helvetica,Arial,sans-serif" font-size="10.00" fill="#268bd2">1 values (1 sources)</text>
</g>
<!-- y_train&#45;&gt;train_model -->
<g id="edge11" class="edge">
<title>y_train&#45;&gt;train_model</title>
<path fill="none" stroke="#002b36" d="M235.73,-397.65C234.04,-381.07 231.47,-355.77 229.46,-336.1"/>
<polygon fill="#002b36" stroke="#002b36" points="232.94,-335.72 228.45,-326.13 225.98,-336.43 232.94,-335.72"/>
<text text-anchor="middle" x="255" y="-365" font-family="Liberation Sans,Helvetica,Arial,sans-serif" font-size="10.00" fill="#002b36">y_train</text>
<text text-anchor="middle" x="255" y="-354" font-family="Liberation Sans,Helvetica,Arial,sans-serif" font-size="10.00" fill="#002b36">(1 values)</text>
</g>
<!-- model -->
<g id="node8" class="node">
<title>model</title>
<path fill="none" stroke="#268bd2" stroke-width="1.5" d="M210.5,-228C210.5,-228 180.5,-228 180.5,-228 174.5,-228 168.5,-222 168.5,-216 168.5,-216 168.5,-204 168.5,-204 168.5,-198 174.5,-192 180.5,-192 180.5,-192 210.5,-192 210.5,-192 216.5,-192 222.5,-198 222.5,-204 222.5,-204 222.5,-216 222.5,-216 222.5,-222 216.5,-228 210.5,-228"/>
<text text-anchor="start" x="177.5" y="-212.4" font-family="Liberation Sans,Helvetica,Arial,sans-serif" font-weight="bold" font-size="12.00" fill="#002b36">model</text>
<text text-anchor="start" x="177" y="-202" font-family="Liberation Sans,Helvetica,Arial,sans-serif" font-size="10.00" fill="#268bd2">1 values</text>
</g>
<!-- model&#45;&gt;eval_model -->
<g id="edge3" class="edge">
<title>model&#45;&gt;eval_model</title>
<path fill="none" stroke="#002b36" d="M184.13,-191.76C175.04,-177.99 162.14,-158.42 151.63,-142.49"/>
<polygon fill="#002b36" stroke="#002b36" points="154.51,-140.49 146.08,-134.07 148.66,-144.35 154.51,-140.49"/>
<text text-anchor="middle" x="194" y="-166" font-family="Liberation Sans,Helvetica,Arial,sans-serif" font-size="10.00" fill="#002b36">model</text>
<text text-anchor="middle" x="194" y="-155" font-family="Liberation Sans,Helvetica,Arial,sans-serif" font-size="10.00" fill="#002b36">(1 values)</text>
</g>
<!-- train_model&#45;&gt;model -->
<g id="edge8" class="edge">
<title>train_model&#45;&gt;model</title>
<path fill="none" stroke="#002b36" d="M220.23,-285.98C215.64,-272.07 209.36,-253.03 204.28,-237.61"/>
<polygon fill="#002b36" stroke="#002b36" points="207.59,-236.5 201.14,-228.1 200.95,-238.69 207.59,-236.5"/>
<text text-anchor="middle" x="235" y="-260" font-family="Liberation Sans,Helvetica,Arial,sans-serif" font-size="10.00" fill="#002b36">output_0</text>
<text text-anchor="middle" x="235" y="-249" font-family="Liberation Sans,Helvetica,Arial,sans-serif" font-size="10.00" fill="#002b36">(1 values)</text>
</g>
<!-- eval_model&#45;&gt;v -->
<g id="edge1" class="edge">
<title>eval_model&#45;&gt;v</title>
<path fill="none" stroke="#002b36" d="M133.5,-93.98C133.5,-80.34 133.5,-61.75 133.5,-46.5"/>
<polygon fill="#002b36" stroke="#002b36" points="137,-46.1 133.5,-36.1 130,-46.1 137,-46.1"/>
<text text-anchor="middle" x="155" y="-68" font-family="Liberation Sans,Helvetica,Arial,sans-serif" font-size="10.00" fill="#002b36">output_0</text>
<text text-anchor="middle" x="155" y="-57" font-family="Liberation Sans,Helvetica,Arial,sans-serif" font-size="10.00" fill="#002b36">(1 values)</text>
</g>
<!-- generate_dataset&#45;&gt;X_test -->
<g id="edge5" class="edge">
<title>generate_dataset&#45;&gt;X_test</title>
<path fill="none" stroke="#002b36" d="M87.33,-491.9C82.51,-486.65 78.12,-480.57 75.5,-474 64.51,-446.38 73.89,-412.56 83.38,-389.56"/>
<polygon fill="#002b36" stroke="#002b36" points="86.71,-390.67 87.53,-380.11 80.3,-387.86 86.71,-390.67"/>
<text text-anchor="middle" x="97" y="-466" font-family="Liberation Sans,Helvetica,Arial,sans-serif" font-size="10.00" fill="#002b36">output_1</text>
<text text-anchor="middle" x="97" y="-455" font-family="Liberation Sans,Helvetica,Arial,sans-serif" font-size="10.00" fill="#002b36">(1 values)</text>
</g>
<!-- generate_dataset&#45;&gt;X_train -->
<g id="edge6" class="edge">
<title>generate_dataset&#45;&gt;X_train</title>
<path fill="none" stroke="#002b36" d="M116.17,-491.98C120.27,-478.2 125.87,-459.39 130.44,-444.05"/>
<polygon fill="#002b36" stroke="#002b36" points="133.91,-444.68 133.41,-434.1 127.2,-442.68 133.91,-444.68"/>
<text text-anchor="middle" x="150" y="-466" font-family="Liberation Sans,Helvetica,Arial,sans-serif" font-size="10.00" fill="#002b36">output_0</text>
<text text-anchor="middle" x="150" y="-455" font-family="Liberation Sans,Helvetica,Arial,sans-serif" font-size="10.00" fill="#002b36">(1 values)</text>
</g>
</g>
</svg>
