<?xml version="1.0" encoding="UTF-8" standalone="no"?>
<!DOCTYPE svg PUBLIC "-//W3C//DTD SVG 1.1//EN"
 "http://www.w3.org/Graphics/SVG/1.1/DTD/svg11.dtd">
<!-- Generated by graphviz version 2.50.0 (0)
 -->
<!-- Title: G Pages: 1 -->
<svg width="365pt" height="648pt"
 viewBox="0.00 0.00 365.00 648.00" xmlns="http://www.w3.org/2000/svg" xmlns:xlink="http://www.w3.org/1999/xlink">
<g id="graph0" class="graph" transform="scale(1 1) rotate(0) translate(4 644)">
<title>G</title>
<polygon fill="white" stroke="transparent" points="-4,4 -4,-644 361,-644 361,4 -4,4"/>
<!-- v -->
<g id="node1" class="node">
<title>v</title>
<path fill="none" stroke="#268bd2" stroke-width="1.5" d="M207,-36C207,-36 137,-36 137,-36 131,-36 125,-30 125,-24 125,-24 125,-12 125,-12 125,-6 131,0 137,0 137,0 207,0 207,0 213,0 219,-6 219,-12 219,-12 219,-24 219,-24 219,-30 213,-36 207,-36"/>
<text text-anchor="start" x="168.5" y="-20.4" font-family="Liberation Sans,Helvetica,Arial,sans-serif" font-weight="bold" font-size="12.00" fill="#002b36">v</text>
<text text-anchor="start" x="133" y="-10" font-family="Liberation Sans,Helvetica,Arial,sans-serif" font-size="10.00" fill="#268bd2">1 values (1 sinks)</text>
</g>
<!-- y_test -->
<g id="node2" class="node">
<title>y_test</title>
<path fill="none" stroke="#268bd2" stroke-width="1.5" d="M42,-394C42,-394 12,-394 12,-394 6,-394 0,-388 0,-382 0,-382 0,-370 0,-370 0,-364 6,-358 12,-358 12,-358 42,-358 42,-358 48,-358 54,-364 54,-370 54,-370 54,-382 54,-382 54,-388 48,-394 42,-394"/>
<text text-anchor="start" x="9.5" y="-378.4" font-family="Liberation Sans,Helvetica,Arial,sans-serif" font-weight="bold" font-size="12.00" fill="#002b36">y_test</text>
<text text-anchor="start" x="8.5" y="-368" font-family="Liberation Sans,Helvetica,Arial,sans-serif" font-size="10.00" fill="#268bd2">1 values</text>
</g>
<!-- eval_model -->
<g id="node10" class="node">
<title>eval_model</title>
<path fill="none" stroke="#dc322f" stroke-width="1.5" d="M205,-134C205,-134 139,-134 139,-134 133,-134 127,-128 127,-122 127,-122 127,-106 127,-106 127,-100 133,-94 139,-94 139,-94 205,-94 205,-94 211,-94 217,-100 217,-106 217,-106 217,-122 217,-122 217,-128 211,-134 205,-134"/>
<text text-anchor="start" x="139" y="-121.4" font-family="Liberation Sans,Helvetica,Arial,sans-serif" font-weight="bold" font-size="12.00" fill="#002b36">eval_model</text>
<text text-anchor="start" x="135" y="-111" font-family="Liberation Sans,Helvetica,Arial,sans-serif" font-size="10.00" fill="#002b36">@op:eval_model</text>
<text text-anchor="start" x="157.5" y="-101" font-family="Liberation Sans,Helvetica,Arial,sans-serif" font-size="10.00" fill="#dc322f">1 calls</text>
</g>
<!-- y_test&#45;&gt;eval_model -->
<g id="edge4" class="edge">
<title>y_test&#45;&gt;eval_model</title>
<path fill="none" stroke="#002b36" d="M36.51,-357.94C60.94,-314.14 126.07,-197.36 156.25,-143.25"/>
<polygon fill="#002b36" stroke="#002b36" points="159.47,-144.65 161.29,-134.21 153.36,-141.24 159.47,-144.65"/>
<text text-anchor="middle" x="119.5" y="-267" font-family="Liberation Sans,Helvetica,Arial,sans-serif" font-size="10.00" fill="#002b36">y_test</text>
<text text-anchor="middle" x="119.5" y="-256" font-family="Liberation Sans,Helvetica,Arial,sans-serif" font-size="10.00" fill="#002b36">(1 values)</text>
</g>
<!-- n_estimators -->
<g id="node3" class="node">
<title>n_estimators</title>
<path fill="none" stroke="#268bd2" stroke-width="1.5" d="M212.5,-448C212.5,-448 131.5,-448 131.5,-448 125.5,-448 119.5,-442 119.5,-436 119.5,-436 119.5,-424 119.5,-424 119.5,-418 125.5,-412 131.5,-412 131.5,-412 212.5,-412 212.5,-412 218.5,-412 224.5,-418 224.5,-424 224.5,-424 224.5,-436 224.5,-436 224.5,-442 218.5,-448 212.5,-448"/>
<text text-anchor="start" x="134.5" y="-432.4" font-family="Liberation Sans,Helvetica,Arial,sans-serif" font-weight="bold" font-size="12.00" fill="#002b36">n_estimators</text>
<text text-anchor="start" x="127.5" y="-422" font-family="Liberation Sans,Helvetica,Arial,sans-serif" font-size="10.00" fill="#268bd2">1 values (1 sources)</text>
</g>
<!-- train_model -->
<g id="node9" class="node">
<title>train_model</title>
<path fill="none" stroke="#dc322f" stroke-width="1.5" d="M205.5,-340C205.5,-340 138.5,-340 138.5,-340 132.5,-340 126.5,-334 126.5,-328 126.5,-328 126.5,-312 126.5,-312 126.5,-306 132.5,-300 138.5,-300 138.5,-300 205.5,-300 205.5,-300 211.5,-300 217.5,-306 217.5,-312 217.5,-312 217.5,-328 217.5,-328 217.5,-334 211.5,-340 205.5,-340"/>
<text text-anchor="start" x="138" y="-327.4" font-family="Liberation Sans,Helvetica,Arial,sans-serif" font-weight="bold" font-size="12.00" fill="#002b36">train_model</text>
<text text-anchor="start" x="134.5" y="-317" font-family="Liberation Sans,Helvetica,Arial,sans-serif" font-size="10.00" fill="#002b36">@op:train_model</text>
<text text-anchor="start" x="157.5" y="-307" font-family="Liberation Sans,Helvetica,Arial,sans-serif" font-size="10.00" fill="#dc322f">1 calls</text>
</g>
<!-- n_estimators&#45;&gt;train_model -->
<g id="edge12" class="edge">
<title>n_estimators&#45;&gt;train_model</title>
<path fill="none" stroke="#002b36" d="M172,-411.65C172,-395.15 172,-370 172,-350.37"/>
<polygon fill="#002b36" stroke="#002b36" points="175.5,-350.13 172,-340.13 168.5,-350.13 175.5,-350.13"/>
<text text-anchor="middle" x="200.5" y="-379" font-family="Liberation Sans,Helvetica,Arial,sans-serif" font-size="10.00" fill="#002b36">n_estimators</text>
<text text-anchor="middle" x="200.5" y="-368" font-family="Liberation Sans,Helvetica,Arial,sans-serif" font-size="10.00" fill="#002b36">(1 values)</text>
</g>
<!-- X_train -->
<g id="node4" class="node">
<title>X_train</title>
<path fill="none" stroke="#268bd2" stroke-width="1.5" d="M287.5,-448C287.5,-448 254.5,-448 254.5,-448 248.5,-448 242.5,-442 242.5,-436 242.5,-436 242.5,-424 242.5,-424 242.5,-418 248.5,-412 254.5,-412 254.5,-412 287.5,-412 287.5,-412 293.5,-412 299.5,-418 299.5,-424 299.5,-424 299.5,-436 299.5,-436 299.5,-442 293.5,-448 287.5,-448"/>
<text text-anchor="start" x="250.5" y="-432.4" font-family="Liberation Sans,Helvetica,Arial,sans-serif" font-weight="bold" font-size="12.00" fill="#002b36">X_train</text>
<text text-anchor="start" x="252.5" y="-422" font-family="Liberation Sans,Helvetica,Arial,sans-serif" font-size="10.00" fill="#268bd2">1 values</text>
</g>
<!-- X_train&#45;&gt;train_model -->
<g id="edge11" class="edge">
<title>X_train&#45;&gt;train_model</title>
<path fill="none" stroke="#002b36" d="M264.88,-411.91C258.69,-396.44 247.91,-373.73 233,-358 228.85,-353.62 224.08,-349.57 219.06,-345.88"/>
<polygon fill="#002b36" stroke="#002b36" points="220.69,-342.76 210.46,-340.02 216.75,-348.54 220.69,-342.76"/>
<text text-anchor="middle" x="278.5" y="-379" font-family="Liberation Sans,Helvetica,Arial,sans-serif" font-size="10.00" fill="#002b36">X_train</text>
<text text-anchor="middle" x="278.5" y="-368" font-family="Liberation Sans,Helvetica,Arial,sans-serif" font-size="10.00" fill="#002b36">(1 values)</text>
</g>
<!-- random_seed -->
<g id="node5" class="node">
<title>random_seed</title>
<path fill="none" stroke="#268bd2" stroke-width="1.5" d="M232.5,-640C232.5,-640 151.5,-640 151.5,-640 145.5,-640 139.5,-634 139.5,-628 139.5,-628 139.5,-616 139.5,-616 139.5,-610 145.5,-604 151.5,-604 151.5,-604 232.5,-604 232.5,-604 238.5,-604 244.5,-610 244.5,-616 244.5,-616 244.5,-628 244.5,-628 244.5,-634 238.5,-640 232.5,-640"/>
<text text-anchor="start" x="152.5" y="-624.4" font-family="Liberation Sans,Helvetica,Arial,sans-serif" font-weight="bold" font-size="12.00" fill="#002b36">random_seed</text>
<text text-anchor="start" x="147.5" y="-614" font-family="Liberation Sans,Helvetica,Arial,sans-serif" font-size="10.00" fill="#268bd2">1 values (1 sources)</text>
</g>
<!-- generate_dataset -->
<g id="node11" class="node">
<title>generate_dataset</title>
<path fill="none" stroke="#dc322f" stroke-width="1.5" d="M238,-546C238,-546 146,-546 146,-546 140,-546 134,-540 134,-534 134,-534 134,-518 134,-518 134,-512 140,-506 146,-506 146,-506 238,-506 238,-506 244,-506 250,-512 250,-518 250,-518 250,-534 250,-534 250,-540 244,-546 238,-546"/>
<text text-anchor="start" x="142" y="-533.4" font-family="Liberation Sans,Helvetica,Arial,sans-serif" font-weight="bold" font-size="12.00" fill="#002b36">generate_dataset</text>
<text text-anchor="start" x="142" y="-523" font-family="Liberation Sans,Helvetica,Arial,sans-serif" font-size="10.00" fill="#002b36">@op:generate_dataset</text>
<text text-anchor="start" x="177.5" y="-513" font-family="Liberation Sans,Helvetica,Arial,sans-serif" font-size="10.00" fill="#dc322f">1 calls</text>
</g>
<!-- random_seed&#45;&gt;generate_dataset -->
<g id="edge9" class="edge">
<title>random_seed&#45;&gt;generate_dataset</title>
<path fill="none" stroke="#002b36" d="M192,-603.76C192,-590.5 192,-571.86 192,-556.27"/>
<polygon fill="#002b36" stroke="#002b36" points="195.5,-556.07 192,-546.07 188.5,-556.07 195.5,-556.07"/>
<text text-anchor="middle" x="221.5" y="-578" font-family="Liberation Sans,Helvetica,Arial,sans-serif" font-size="10.00" fill="#002b36">random_seed</text>
<text text-anchor="middle" x="221.5" y="-567" font-family="Liberation Sans,Helvetica,Arial,sans-serif" font-size="10.00" fill="#002b36">(1 values)</text>
</g>
<!-- y_train -->
<g id="node6" class="node">
<title>y_train</title>
<path fill="none" stroke="#268bd2" stroke-width="1.5" d="M89,-448C89,-448 57,-448 57,-448 51,-448 45,-442 45,-436 45,-436 45,-424 45,-424 45,-418 51,-412 57,-412 57,-412 89,-412 89,-412 95,-412 101,-418 101,-424 101,-424 101,-436 101,-436 101,-442 95,-448 89,-448"/>
<text text-anchor="start" x="53" y="-432.4" font-family="Liberation Sans,Helvetica,Arial,sans-serif" font-weight="bold" font-size="12.00" fill="#002b36">y_train</text>
<text text-anchor="start" x="54.5" y="-422" font-family="Liberation Sans,Helvetica,Arial,sans-serif" font-size="10.00" fill="#268bd2">1 values</text>
</g>
<!-- y_train&#45;&gt;train_model -->
<g id="edge13" class="edge">
<title>y_train&#45;&gt;train_model</title>
<path fill="none" stroke="#002b36" d="M83.59,-411.93C93.36,-396.89 108.76,-374.81 125,-358 128.79,-354.08 133,-350.21 137.3,-346.54"/>
<polygon fill="#002b36" stroke="#002b36" points="139.55,-349.21 145.07,-340.17 135.12,-343.8 139.55,-349.21"/>
<text text-anchor="middle" x="146.5" y="-379" font-family="Liberation Sans,Helvetica,Arial,sans-serif" font-size="10.00" fill="#002b36">y_train</text>
<text text-anchor="middle" x="146.5" y="-368" font-family="Liberation Sans,Helvetica,Arial,sans-serif" font-size="10.00" fill="#002b36">(1 values)</text>
</g>
<!-- model -->
<g id="node7" class="node">
<title>model</title>
<path fill="none" stroke="#268bd2" stroke-width="1.5" d="M187,-228C187,-228 157,-228 157,-228 151,-228 145,-222 145,-216 145,-216 145,-204 145,-204 145,-198 151,-192 157,-192 157,-192 187,-192 187,-192 193,-192 199,-198 199,-204 199,-204 199,-216 199,-216 199,-222 193,-228 187,-228"/>
<text text-anchor="start" x="154" y="-212.4" font-family="Liberation Sans,Helvetica,Arial,sans-serif" font-weight="bold" font-size="12.00" fill="#002b36">model</text>
<text text-anchor="start" x="153.5" y="-202" font-family="Liberation Sans,Helvetica,Arial,sans-serif" font-size="10.00" fill="#268bd2">1 values</text>
</g>
<!-- model&#45;&gt;eval_model -->
<g id="edge3" class="edge">
<title>model&#45;&gt;eval_model</title>
<path fill="none" stroke="#002b36" d="M172,-191.76C172,-178.5 172,-159.86 172,-144.27"/>
<polygon fill="#002b36" stroke="#002b36" points="175.5,-144.07 172,-134.07 168.5,-144.07 175.5,-144.07"/>
<text text-anchor="middle" x="193.5" y="-166" font-family="Liberation Sans,Helvetica,Arial,sans-serif" font-size="10.00" fill="#002b36">model</text>
<text text-anchor="middle" x="193.5" y="-155" font-family="Liberation Sans,Helvetica,Arial,sans-serif" font-size="10.00" fill="#002b36">(1 values)</text>
</g>
<!-- X_test -->
<g id="node8" class="node">
<title>X_test</title>
<path fill="none" stroke="#268bd2" stroke-width="1.5" d="M306,-282C306,-282 276,-282 276,-282 270,-282 264,-276 264,-270 264,-270 264,-258 264,-258 264,-252 270,-246 276,-246 276,-246 306,-246 306,-246 312,-246 318,-252 318,-258 318,-258 318,-270 318,-270 318,-276 312,-282 306,-282"/>
<text text-anchor="start" x="272.5" y="-266.4" font-family="Liberation Sans,Helvetica,Arial,sans-serif" font-weight="bold" font-size="12.00" fill="#002b36">X_test</text>
<text text-anchor="start" x="272.5" y="-256" font-family="Liberation Sans,Helvetica,Arial,sans-serif" font-size="10.00" fill="#268bd2">1 values</text>
</g>
<!-- X_test&#45;&gt;eval_model -->
<g id="edge2" class="edge">
<title>X_test&#45;&gt;eval_model</title>
<path fill="none" stroke="#002b36" d="M282.07,-245.61C269.79,-222.66 246.09,-181.69 219,-152 215.5,-148.17 211.58,-144.42 207.53,-140.87"/>
<polygon fill="#002b36" stroke="#002b36" points="209.59,-138.03 199.67,-134.33 205.11,-143.41 209.59,-138.03"/>
<text text-anchor="middle" x="294.5" y="-213" font-family="Liberation Sans,Helvetica,Arial,sans-serif" font-size="10.00" fill="#002b36">X_test</text>
<text text-anchor="middle" x="294.5" y="-202" font-family="Liberation Sans,Helvetica,Arial,sans-serif" font-size="10.00" fill="#002b36">(1 values)</text>
</g>
<!-- train_model&#45;&gt;model -->
<g id="edge10" class="edge">
<title>train_model&#45;&gt;model</title>
<path fill="none" stroke="#002b36" d="M172,-299.94C172,-282.85 172,-257.58 172,-238.34"/>
<polygon fill="#002b36" stroke="#002b36" points="175.5,-238.09 172,-228.09 168.5,-238.09 175.5,-238.09"/>
<text text-anchor="middle" x="193.5" y="-267" font-family="Liberation Sans,Helvetica,Arial,sans-serif" font-size="10.00" fill="#002b36">output_0</text>
<text text-anchor="middle" x="193.5" y="-256" font-family="Liberation Sans,Helvetica,Arial,sans-serif" font-size="10.00" fill="#002b36">(1 values)</text>
</g>
<!-- eval_model&#45;&gt;v -->
<g id="edge1" class="edge">
<title>eval_model&#45;&gt;v</title>
<path fill="none" stroke="#002b36" d="M172,-93.98C172,-80.34 172,-61.75 172,-46.5"/>
<polygon fill="#002b36" stroke="#002b36" points="175.5,-46.1 172,-36.1 168.5,-46.1 175.5,-46.1"/>
<text text-anchor="middle" x="193.5" y="-68" font-family="Liberation Sans,Helvetica,Arial,sans-serif" font-size="10.00" fill="#002b36">output_0</text>
<text text-anchor="middle" x="193.5" y="-57" font-family="Liberation Sans,Helvetica,Arial,sans-serif" font-size="10.00" fill="#002b36">(1 values)</text>
</g>
<!-- generate_dataset&#45;&gt;y_test -->
<g id="edge6" class="edge">
<title>generate_dataset&#45;&gt;y_test</title>
<path fill="none" stroke="#002b36" d="M133.7,-513.77C113.15,-508.11 90.56,-499.86 72,-488 51.84,-475.12 45.96,-469.75 36,-448 29.8,-434.45 27.43,-418.01 26.67,-404.37"/>
<polygon fill="#002b36" stroke="#002b36" points="30.16,-404.02 26.36,-394.13 23.16,-404.23 30.16,-404.02"/>
<text text-anchor="middle" x="93.5" y="-480" font-family="Liberation Sans,Helvetica,Arial,sans-serif" font-size="10.00" fill="#002b36">output_3</text>
<text text-anchor="middle" x="93.5" y="-469" font-family="Liberation Sans,Helvetica,Arial,sans-serif" font-size="10.00" fill="#002b36">(1 values)</text>
</g>
<!-- generate_dataset&#45;&gt;X_train -->
<g id="edge7" class="edge">
<title>generate_dataset&#45;&gt;X_train</title>
<path fill="none" stroke="#002b36" d="M207.99,-505.98C220.12,-491.54 236.9,-471.57 250.1,-455.87"/>
<polygon fill="#002b36" stroke="#002b36" points="252.88,-458 256.63,-448.1 247.52,-453.5 252.88,-458"/>
<text text-anchor="middle" x="262.5" y="-480" font-family="Liberation Sans,Helvetica,Arial,sans-serif" font-size="10.00" fill="#002b36">output_0</text>
<text text-anchor="middle" x="262.5" y="-469" font-family="Liberation Sans,Helvetica,Arial,sans-serif" font-size="10.00" fill="#002b36">(1 values)</text>
</g>
<!-- generate_dataset&#45;&gt;y_train -->
<g id="edge8" class="edge">
<title>generate_dataset&#45;&gt;y_train</title>
<path fill="none" stroke="#002b36" d="M167.92,-505.98C149.06,-491.08 122.73,-470.28 102.58,-454.37"/>
<polygon fill="#002b36" stroke="#002b36" points="104.66,-451.55 94.64,-448.1 100.32,-457.04 104.66,-451.55"/>
<text text-anchor="middle" x="165.5" y="-480" font-family="Liberation Sans,Helvetica,Arial,sans-serif" font-size="10.00" fill="#002b36">output_2</text>
<text text-anchor="middle" x="165.5" y="-469" font-family="Liberation Sans,Helvetica,Arial,sans-serif" font-size="10.00" fill="#002b36">(1 values)</text>
</g>
<!-- generate_dataset&#45;&gt;X_test -->
<g id="edge5" class="edge">
<title>generate_dataset&#45;&gt;X_test</title>
<path fill="none" stroke="#002b36" d="M250.1,-510.26C263.62,-504.86 277.2,-497.62 288,-488 302.99,-474.65 304.19,-467.5 309,-448 322.39,-393.69 309.02,-328 299.25,-291.95"/>
<polygon fill="#002b36" stroke="#002b36" points="302.57,-290.85 296.49,-282.18 295.84,-292.75 302.57,-290.85"/>
<text text-anchor="middle" x="335.5" y="-433" font-family="Liberation Sans,Helvetica,Arial,sans-serif" font-size="10.00" fill="#002b36">output_1</text>
<text text-anchor="middle" x="335.5" y="-422" font-family="Liberation Sans,Helvetica,Arial,sans-serif" font-size="10.00" fill="#002b36">(1 values)</text>
</g>
</g>
</svg>
