<?xml version="1.0" encoding="UTF-8" standalone="no"?>
<!DOCTYPE svg PUBLIC "-//W3C//DTD SVG 1.1//EN"
 "http://www.w3.org/Graphics/SVG/1.1/DTD/svg11.dtd">
<!-- Generated by graphviz version 2.50.0 (0)
 -->
<!-- Title: G Pages: 1 -->
<svg width="409pt" height="648pt"
 viewBox="0.00 0.00 408.50 648.00" xmlns="http://www.w3.org/2000/svg" xmlns:xlink="http://www.w3.org/1999/xlink">
<g id="graph0" class="graph" transform="scale(1 1) rotate(0) translate(4 644)">
<title>G</title>
<polygon fill="white" stroke="transparent" points="-4,4 -4,-644 404.5,-644 404.5,4 -4,4"/>
<!-- v -->
<g id="node1" class="node">
<title>v</title>
<path fill="none" stroke="#268bd2" d="M137,-36C137,-36 67,-36 67,-36 61,-36 55,-30 55,-24 55,-24 55,-12 55,-12 55,-6 61,0 67,0 67,0 137,0 137,0 143,0 149,-6 149,-12 149,-12 149,-24 149,-24 149,-30 143,-36 137,-36"/>
<text text-anchor="start" x="98.5" y="-20.4" font-family="Liberation Sans,Helvetica,Arial,sans-serif" font-weight="bold" font-size="12.00" fill="#002b36">v</text>
<text text-anchor="start" x="63" y="-10" font-family="Liberation Sans,Helvetica,Arial,sans-serif" font-size="10.00" fill="#268bd2">1 values (1 sinks)</text>
</g>
<!-- random_seed -->
<g id="node2" class="node">
<title>random_seed</title>
<path fill="none" stroke="#268bd2" d="M155.5,-640C155.5,-640 74.5,-640 74.5,-640 68.5,-640 62.5,-634 62.5,-628 62.5,-628 62.5,-616 62.5,-616 62.5,-610 68.5,-604 74.5,-604 74.5,-604 155.5,-604 155.5,-604 161.5,-604 167.5,-610 167.5,-616 167.5,-616 167.5,-628 167.5,-628 167.5,-634 161.5,-640 155.5,-640"/>
<text text-anchor="start" x="75.5" y="-624.4" font-family="Liberation Sans,Helvetica,Arial,sans-serif" font-weight="bold" font-size="12.00" fill="#002b36">random_seed</text>
<text text-anchor="start" x="70.5" y="-614" font-family="Liberation Sans,Helvetica,Arial,sans-serif" font-size="10.00" fill="#268bd2">1 values (1 sources)</text>
</g>
<!-- generate_dataset -->
<g id="node9" class="node">
<title>generate_dataset</title>
<path fill="none" stroke="#dc322f" d="M161,-546C161,-546 69,-546 69,-546 63,-546 57,-540 57,-534 57,-534 57,-518 57,-518 57,-512 63,-506 69,-506 69,-506 161,-506 161,-506 167,-506 173,-512 173,-518 173,-518 173,-534 173,-534 173,-540 167,-546 161,-546"/>
<text text-anchor="start" x="65" y="-533.4" font-family="Liberation Sans,Helvetica,Arial,sans-serif" font-weight="bold" font-size="12.00" fill="#002b36">generate_dataset</text>
<text text-anchor="start" x="65" y="-523" font-family="Liberation Sans,Helvetica,Arial,sans-serif" font-size="10.00" fill="#002b36">@op:generate_dataset</text>
<text text-anchor="start" x="100.5" y="-513" font-family="Liberation Sans,Helvetica,Arial,sans-serif" font-size="10.00" fill="#dc322f">1 calls</text>
</g>
<!-- random_seed&#45;&gt;generate_dataset -->
<g id="edge9" class="edge">
<title>random_seed&#45;&gt;generate_dataset</title>
<path fill="none" stroke="#002b36" d="M115,-603.76C115,-590.5 115,-571.86 115,-556.27"/>
<polygon fill="#002b36" stroke="#002b36" points="118.5,-556.07 115,-546.07 111.5,-556.07 118.5,-556.07"/>
<text text-anchor="middle" x="144.5" y="-578" font-family="Liberation Sans,Helvetica,Arial,sans-serif" font-size="10.00" fill="#002b36">random_seed</text>
<text text-anchor="middle" x="144.5" y="-567" font-family="Liberation Sans,Helvetica,Arial,sans-serif" font-size="10.00" fill="#002b36">(1 values)</text>
</g>
<!-- X_test -->
<g id="node3" class="node">
<title>X_test</title>
<path fill="none" stroke="#268bd2" d="M42,-394C42,-394 12,-394 12,-394 6,-394 0,-388 0,-382 0,-382 0,-370 0,-370 0,-364 6,-358 12,-358 12,-358 42,-358 42,-358 48,-358 54,-364 54,-370 54,-370 54,-382 54,-382 54,-388 48,-394 42,-394"/>
<text text-anchor="start" x="8.5" y="-378.4" font-family="Liberation Sans,Helvetica,Arial,sans-serif" font-weight="bold" font-size="12.00" fill="#002b36">X_test</text>
<text text-anchor="start" x="8.5" y="-368" font-family="Liberation Sans,Helvetica,Arial,sans-serif" font-size="10.00" fill="#268bd2">1 values</text>
</g>
<!-- eval_model -->
<g id="node10" class="node">
<title>eval_model</title>
<path fill="none" stroke="#dc322f" d="M135,-134C135,-134 69,-134 69,-134 63,-134 57,-128 57,-122 57,-122 57,-106 57,-106 57,-100 63,-94 69,-94 69,-94 135,-94 135,-94 141,-94 147,-100 147,-106 147,-106 147,-122 147,-122 147,-128 141,-134 135,-134"/>
<text text-anchor="start" x="69" y="-121.4" font-family="Liberation Sans,Helvetica,Arial,sans-serif" font-weight="bold" font-size="12.00" fill="#002b36">eval_model</text>
<text text-anchor="start" x="65" y="-111" font-family="Liberation Sans,Helvetica,Arial,sans-serif" font-size="10.00" fill="#002b36">@op:eval_model</text>
<text text-anchor="start" x="87.5" y="-101" font-family="Liberation Sans,Helvetica,Arial,sans-serif" font-size="10.00" fill="#dc322f">1 calls</text>
</g>
<!-- X_test&#45;&gt;eval_model -->
<g id="edge2" class="edge">
<title>X_test&#45;&gt;eval_model</title>
<path fill="none" stroke="#002b36" d="M23.29,-357.92C18.56,-332.85 12.19,-284.86 23,-246 33.94,-206.69 60.2,-167.38 79.45,-142.23"/>
<polygon fill="#002b36" stroke="#002b36" points="82.28,-144.3 85.68,-134.26 76.76,-139.99 82.28,-144.3"/>
<text text-anchor="middle" x="44.5" y="-267" font-family="Liberation Sans,Helvetica,Arial,sans-serif" font-size="10.00" fill="#002b36">X_test</text>
<text text-anchor="middle" x="44.5" y="-256" font-family="Liberation Sans,Helvetica,Arial,sans-serif" font-size="10.00" fill="#002b36">(1 values)</text>
</g>
<!-- y_test -->
<g id="node4" class="node">
<title>y_test</title>
<path fill="none" stroke="#268bd2" d="M117,-282C117,-282 87,-282 87,-282 81,-282 75,-276 75,-270 75,-270 75,-258 75,-258 75,-252 81,-246 87,-246 87,-246 117,-246 117,-246 123,-246 129,-252 129,-258 129,-258 129,-270 129,-270 129,-276 123,-282 117,-282"/>
<text text-anchor="start" x="84.5" y="-266.4" font-family="Liberation Sans,Helvetica,Arial,sans-serif" font-weight="bold" font-size="12.00" fill="#002b36">y_test</text>
<text text-anchor="start" x="83.5" y="-256" font-family="Liberation Sans,Helvetica,Arial,sans-serif" font-size="10.00" fill="#268bd2">1 values</text>
</g>
<!-- y_test&#45;&gt;eval_model -->
<g id="edge4" class="edge">
<title>y_test&#45;&gt;eval_model</title>
<path fill="none" stroke="#002b36" d="M102,-245.73C102,-220.88 102,-174.68 102,-144.39"/>
<polygon fill="#002b36" stroke="#002b36" points="105.5,-144.02 102,-134.02 98.5,-144.02 105.5,-144.02"/>
<text text-anchor="middle" x="123.5" y="-213" font-family="Liberation Sans,Helvetica,Arial,sans-serif" font-size="10.00" fill="#002b36">y_test</text>
<text text-anchor="middle" x="123.5" y="-202" font-family="Liberation Sans,Helvetica,Arial,sans-serif" font-size="10.00" fill="#002b36">(1 values)</text>
</g>
<!-- model -->
<g id="node5" class="node">
<title>model</title>
<path fill="none" stroke="#268bd2" d="M214,-228C214,-228 184,-228 184,-228 178,-228 172,-222 172,-216 172,-216 172,-204 172,-204 172,-198 178,-192 184,-192 184,-192 214,-192 214,-192 220,-192 226,-198 226,-204 226,-204 226,-216 226,-216 226,-222 220,-228 214,-228"/>
<text text-anchor="start" x="181" y="-212.4" font-family="Liberation Sans,Helvetica,Arial,sans-serif" font-weight="bold" font-size="12.00" fill="#002b36">model</text>
<text text-anchor="start" x="180.5" y="-202" font-family="Liberation Sans,Helvetica,Arial,sans-serif" font-size="10.00" fill="#268bd2">1 values</text>
</g>
<!-- model&#45;&gt;eval_model -->
<g id="edge3" class="edge">
<title>model&#45;&gt;eval_model</title>
<path fill="none" stroke="#002b36" d="M181.21,-191.76C166.6,-177.6 145.68,-157.33 129,-141.17"/>
<polygon fill="#002b36" stroke="#002b36" points="131.3,-138.52 121.68,-134.07 126.43,-143.54 131.3,-138.52"/>
<text text-anchor="middle" x="184.5" y="-166" font-family="Liberation Sans,Helvetica,Arial,sans-serif" font-size="10.00" fill="#002b36">model</text>
<text text-anchor="middle" x="184.5" y="-155" font-family="Liberation Sans,Helvetica,Arial,sans-serif" font-size="10.00" fill="#002b36">(1 values)</text>
</g>
<!-- X_train -->
<g id="node6" class="node">
<title>X_train</title>
<path fill="none" stroke="#268bd2" d="M388.5,-448C388.5,-448 355.5,-448 355.5,-448 349.5,-448 343.5,-442 343.5,-436 343.5,-436 343.5,-424 343.5,-424 343.5,-418 349.5,-412 355.5,-412 355.5,-412 388.5,-412 388.5,-412 394.5,-412 400.5,-418 400.5,-424 400.5,-424 400.5,-436 400.5,-436 400.5,-442 394.5,-448 388.5,-448"/>
<text text-anchor="start" x="351.5" y="-432.4" font-family="Liberation Sans,Helvetica,Arial,sans-serif" font-weight="bold" font-size="12.00" fill="#002b36">X_train</text>
<text text-anchor="start" x="353.5" y="-422" font-family="Liberation Sans,Helvetica,Arial,sans-serif" font-size="10.00" fill="#268bd2">1 values</text>
</g>
<!-- train_model -->
<g id="node11" class="node">
<title>train_model</title>
<path fill="none" stroke="#dc322f" d="M257.5,-340C257.5,-340 190.5,-340 190.5,-340 184.5,-340 178.5,-334 178.5,-328 178.5,-328 178.5,-312 178.5,-312 178.5,-306 184.5,-300 190.5,-300 190.5,-300 257.5,-300 257.5,-300 263.5,-300 269.5,-306 269.5,-312 269.5,-312 269.5,-328 269.5,-328 269.5,-334 263.5,-340 257.5,-340"/>
<text text-anchor="start" x="190" y="-327.4" font-family="Liberation Sans,Helvetica,Arial,sans-serif" font-weight="bold" font-size="12.00" fill="#002b36">train_model</text>
<text text-anchor="start" x="186.5" y="-317" font-family="Liberation Sans,Helvetica,Arial,sans-serif" font-size="10.00" fill="#002b36">@op:train_model</text>
<text text-anchor="start" x="209.5" y="-307" font-family="Liberation Sans,Helvetica,Arial,sans-serif" font-size="10.00" fill="#dc322f">1 calls</text>
</g>
<!-- X_train&#45;&gt;train_model -->
<g id="edge11" class="edge">
<title>X_train&#45;&gt;train_model</title>
<path fill="none" stroke="#002b36" d="M362.2,-411.99C352.32,-396.13 335.73,-372.77 316,-358 305.02,-349.78 291.96,-343.09 279.18,-337.78"/>
<polygon fill="#002b36" stroke="#002b36" points="280.09,-334.37 269.5,-333.98 277.53,-340.89 280.09,-334.37"/>
<text text-anchor="middle" x="370.5" y="-379" font-family="Liberation Sans,Helvetica,Arial,sans-serif" font-size="10.00" fill="#002b36">X_train</text>
<text text-anchor="middle" x="370.5" y="-368" font-family="Liberation Sans,Helvetica,Arial,sans-serif" font-size="10.00" fill="#002b36">(1 values)</text>
</g>
<!-- y_train -->
<g id="node7" class="node">
<title>y_train</title>
<path fill="none" stroke="#268bd2" d="M190,-448C190,-448 158,-448 158,-448 152,-448 146,-442 146,-436 146,-436 146,-424 146,-424 146,-418 152,-412 158,-412 158,-412 190,-412 190,-412 196,-412 202,-418 202,-424 202,-424 202,-436 202,-436 202,-442 196,-448 190,-448"/>
<text text-anchor="start" x="154" y="-432.4" font-family="Liberation Sans,Helvetica,Arial,sans-serif" font-weight="bold" font-size="12.00" fill="#002b36">y_train</text>
<text text-anchor="start" x="155.5" y="-422" font-family="Liberation Sans,Helvetica,Arial,sans-serif" font-size="10.00" fill="#268bd2">1 values</text>
</g>
<!-- y_train&#45;&gt;train_model -->
<g id="edge13" class="edge">
<title>y_train&#45;&gt;train_model</title>
<path fill="none" stroke="#002b36" d="M177.15,-411.97C180.32,-397.14 186.04,-375.36 195,-358 196.71,-354.69 198.73,-351.38 200.9,-348.18"/>
<polygon fill="#002b36" stroke="#002b36" points="203.79,-350.16 206.88,-340.03 198.14,-346.02 203.79,-350.16"/>
<text text-anchor="middle" x="216.5" y="-379" font-family="Liberation Sans,Helvetica,Arial,sans-serif" font-size="10.00" fill="#002b36">y_train</text>
<text text-anchor="middle" x="216.5" y="-368" font-family="Liberation Sans,Helvetica,Arial,sans-serif" font-size="10.00" fill="#002b36">(1 values)</text>
</g>
<!-- n_estimators -->
<g id="node8" class="node">
<title>n_estimators</title>
<path fill="none" stroke="#268bd2" d="M313.5,-448C313.5,-448 232.5,-448 232.5,-448 226.5,-448 220.5,-442 220.5,-436 220.5,-436 220.5,-424 220.5,-424 220.5,-418 226.5,-412 232.5,-412 232.5,-412 313.5,-412 313.5,-412 319.5,-412 325.5,-418 325.5,-424 325.5,-424 325.5,-436 325.5,-436 325.5,-442 319.5,-448 313.5,-448"/>
<text text-anchor="start" x="235.5" y="-432.4" font-family="Liberation Sans,Helvetica,Arial,sans-serif" font-weight="bold" font-size="12.00" fill="#002b36">n_estimators</text>
<text text-anchor="start" x="228.5" y="-422" font-family="Liberation Sans,Helvetica,Arial,sans-serif" font-size="10.00" fill="#268bd2">1 values (1 sources)</text>
</g>
<!-- n_estimators&#45;&gt;train_model -->
<g id="edge12" class="edge">
<title>n_estimators&#45;&gt;train_model</title>
<path fill="none" stroke="#002b36" d="M265.13,-411.65C257.5,-394.84 245.81,-369.06 236.84,-349.29"/>
<polygon fill="#002b36" stroke="#002b36" points="240,-347.79 232.68,-340.13 233.62,-350.68 240,-347.79"/>
<text text-anchor="middle" x="283.5" y="-379" font-family="Liberation Sans,Helvetica,Arial,sans-serif" font-size="10.00" fill="#002b36">n_estimators</text>
<text text-anchor="middle" x="283.5" y="-368" font-family="Liberation Sans,Helvetica,Arial,sans-serif" font-size="10.00" fill="#002b36">(1 values)</text>
</g>
<!-- generate_dataset&#45;&gt;X_test -->
<g id="edge5" class="edge">
<title>generate_dataset&#45;&gt;X_test</title>
<path fill="none" stroke="#002b36" d="M56.73,-511.23C45.41,-505.85 34.93,-498.37 28,-488 11.5,-463.29 14.51,-428.08 19.52,-403.98"/>
<polygon fill="#002b36" stroke="#002b36" points="22.96,-404.62 21.81,-394.08 16.14,-403.03 22.96,-404.62"/>
<text text-anchor="middle" x="49.5" y="-480" font-family="Liberation Sans,Helvetica,Arial,sans-serif" font-size="10.00" fill="#002b36">output_1</text>
<text text-anchor="middle" x="49.5" y="-469" font-family="Liberation Sans,Helvetica,Arial,sans-serif" font-size="10.00" fill="#002b36">(1 values)</text>
</g>
<!-- generate_dataset&#45;&gt;y_test -->
<g id="edge6" class="edge">
<title>generate_dataset&#45;&gt;y_test</title>
<path fill="none" stroke="#002b36" d="M108.29,-505.99C103.23,-490.58 96.7,-468.19 94,-448 86.66,-393.16 92.99,-328.32 97.8,-292.42"/>
<polygon fill="#002b36" stroke="#002b36" points="101.31,-292.64 99.23,-282.25 94.37,-291.66 101.31,-292.64"/>
<text text-anchor="middle" x="115.5" y="-433" font-family="Liberation Sans,Helvetica,Arial,sans-serif" font-size="10.00" fill="#002b36">output_3</text>
<text text-anchor="middle" x="115.5" y="-422" font-family="Liberation Sans,Helvetica,Arial,sans-serif" font-size="10.00" fill="#002b36">(1 values)</text>
</g>
<!-- generate_dataset&#45;&gt;X_train -->
<g id="edge7" class="edge">
<title>generate_dataset&#45;&gt;X_train</title>
<path fill="none" stroke="#002b36" d="M173.45,-506.21C215.84,-492.2 274.63,-471.99 333.92,-448.28"/>
<polygon fill="#002b36" stroke="#002b36" points="335.47,-451.43 343.43,-444.45 332.85,-444.94 335.47,-451.43"/>
<text text-anchor="middle" x="308.5" y="-480" font-family="Liberation Sans,Helvetica,Arial,sans-serif" font-size="10.00" fill="#002b36">output_0</text>
<text text-anchor="middle" x="308.5" y="-469" font-family="Liberation Sans,Helvetica,Arial,sans-serif" font-size="10.00" fill="#002b36">(1 values)</text>
</g>
<!-- generate_dataset&#45;&gt;y_train -->
<g id="edge8" class="edge">
<title>generate_dataset&#45;&gt;y_train</title>
<path fill="none" stroke="#002b36" d="M126.94,-505.98C135.83,-491.81 148.08,-472.3 157.85,-456.74"/>
<polygon fill="#002b36" stroke="#002b36" points="160.92,-458.43 163.27,-448.1 154.99,-454.71 160.92,-458.43"/>
<text text-anchor="middle" x="173.5" y="-480" font-family="Liberation Sans,Helvetica,Arial,sans-serif" font-size="10.00" fill="#002b36">output_2</text>
<text text-anchor="middle" x="173.5" y="-469" font-family="Liberation Sans,Helvetica,Arial,sans-serif" font-size="10.00" fill="#002b36">(1 values)</text>
</g>
<!-- eval_model&#45;&gt;v -->
<g id="edge1" class="edge">
<title>eval_model&#45;&gt;v</title>
<path fill="none" stroke="#002b36" d="M102,-93.98C102,-80.34 102,-61.75 102,-46.5"/>
<polygon fill="#002b36" stroke="#002b36" points="105.5,-46.1 102,-36.1 98.5,-46.1 105.5,-46.1"/>
<text text-anchor="middle" x="123.5" y="-68" font-family="Liberation Sans,Helvetica,Arial,sans-serif" font-size="10.00" fill="#002b36">output_0</text>
<text text-anchor="middle" x="123.5" y="-57" font-family="Liberation Sans,Helvetica,Arial,sans-serif" font-size="10.00" fill="#002b36">(1 values)</text>
</g>
<!-- train_model&#45;&gt;model -->
<g id="edge10" class="edge">
<title>train_model&#45;&gt;model</title>
<path fill="none" stroke="#002b36" d="M219.59,-299.94C215.61,-282.77 209.73,-257.35 205.27,-238.07"/>
<polygon fill="#002b36" stroke="#002b36" points="208.62,-237.04 202.96,-228.09 201.8,-238.62 208.62,-237.04"/>
<text text-anchor="middle" x="237.5" y="-267" font-family="Liberation Sans,Helvetica,Arial,sans-serif" font-size="10.00" fill="#002b36">output_0</text>
<text text-anchor="middle" x="237.5" y="-256" font-family="Liberation Sans,Helvetica,Arial,sans-serif" font-size="10.00" fill="#002b36">(1 values)</text>
</g>
</g>
</svg>
