<?xml version="1.0" encoding="UTF-8" standalone="no"?>
<!DOCTYPE svg PUBLIC "-//W3C//DTD SVG 1.1//EN"
 "http://www.w3.org/Graphics/SVG/1.1/DTD/svg11.dtd">
<!-- Generated by graphviz version 2.50.0 (0)
 -->
<!-- Title: G Pages: 1 -->
<svg width="488pt" height="428pt"
 viewBox="0.00 0.00 487.50 428.00" xmlns="http://www.w3.org/2000/svg" xmlns:xlink="http://www.w3.org/1999/xlink">
<g id="graph0" class="graph" transform="scale(1 1) rotate(0) translate(4 424)">
<title>G</title>
<polygon fill="white" stroke="transparent" points="-4,4 -4,-424 483.5,-424 483.5,4 -4,4"/>
<!-- X_test -->
<g id="node1" class="node">
<title>X_test</title>
<path fill="none" stroke="#268bd2" stroke-width="1.5" d="M432.5,-228C432.5,-228 402.5,-228 402.5,-228 396.5,-228 390.5,-222 390.5,-216 390.5,-216 390.5,-204 390.5,-204 390.5,-198 396.5,-192 402.5,-192 402.5,-192 432.5,-192 432.5,-192 438.5,-192 444.5,-198 444.5,-204 444.5,-204 444.5,-216 444.5,-216 444.5,-222 438.5,-228 432.5,-228"/>
<text text-anchor="start" x="399" y="-212.4" font-family="Liberation Sans,Helvetica,Arial,sans-serif" font-weight="bold" font-size="12.00" fill="#002b36">X_test</text>
<text text-anchor="start" x="399" y="-202" font-family="Liberation Sans,Helvetica,Arial,sans-serif" font-size="10.00" fill="#268bd2">1 values</text>
</g>
<!-- eval_model -->
<g id="node10" class="node">
<title>eval_model</title>
<path fill="none" stroke="#dc322f" stroke-width="1.5" d="M351.5,-134C351.5,-134 285.5,-134 285.5,-134 279.5,-134 273.5,-128 273.5,-122 273.5,-122 273.5,-106 273.5,-106 273.5,-100 279.5,-94 285.5,-94 285.5,-94 351.5,-94 351.5,-94 357.5,-94 363.5,-100 363.5,-106 363.5,-106 363.5,-122 363.5,-122 363.5,-128 357.5,-134 351.5,-134"/>
<text text-anchor="start" x="285.5" y="-121.4" font-family="Liberation Sans,Helvetica,Arial,sans-serif" font-weight="bold" font-size="12.00" fill="#002b36">eval_model</text>
<text text-anchor="start" x="281.5" y="-111" font-family="Liberation Sans,Helvetica,Arial,sans-serif" font-size="10.00" fill="#002b36">@op:eval_model</text>
<text text-anchor="start" x="304" y="-101" font-family="Liberation Sans,Helvetica,Arial,sans-serif" font-size="10.00" fill="#dc322f">1 calls</text>
</g>
<!-- X_test&#45;&gt;eval_model -->
<g id="edge2" class="edge">
<title>X_test&#45;&gt;eval_model</title>
<path fill="none" stroke="#002b36" d="M403.17,-191.86C393.09,-180.17 379.04,-164.59 365.5,-152 361.41,-148.2 356.97,-144.36 352.5,-140.67"/>
<polygon fill="#002b36" stroke="#002b36" points="354.48,-137.78 344.5,-134.23 350.09,-143.23 354.48,-137.78"/>
<text text-anchor="middle" x="407" y="-166" font-family="Liberation Sans,Helvetica,Arial,sans-serif" font-size="10.00" fill="#002b36">X_test</text>
<text text-anchor="middle" x="407" y="-155" font-family="Liberation Sans,Helvetica,Arial,sans-serif" font-size="10.00" fill="#002b36">(1 values)</text>
</g>
<!-- v -->
<g id="node2" class="node">
<title>v</title>
<path fill="none" stroke="#268bd2" stroke-width="1.5" d="M353.5,-36C353.5,-36 283.5,-36 283.5,-36 277.5,-36 271.5,-30 271.5,-24 271.5,-24 271.5,-12 271.5,-12 271.5,-6 277.5,0 283.5,0 283.5,0 353.5,0 353.5,0 359.5,0 365.5,-6 365.5,-12 365.5,-12 365.5,-24 365.5,-24 365.5,-30 359.5,-36 353.5,-36"/>
<text text-anchor="start" x="315" y="-20.4" font-family="Liberation Sans,Helvetica,Arial,sans-serif" font-weight="bold" font-size="12.00" fill="#002b36">v</text>
<text text-anchor="start" x="279.5" y="-10" font-family="Liberation Sans,Helvetica,Arial,sans-serif" font-size="10.00" fill="#268bd2">1 values (1 sinks)</text>
</g>
<!-- y_train -->
<g id="node3" class="node">
<title>y_train</title>
<path fill="none" stroke="#268bd2" stroke-width="1.5" d="M93,-420C93,-420 12,-420 12,-420 6,-420 0,-414 0,-408 0,-408 0,-396 0,-396 0,-390 6,-384 12,-384 12,-384 93,-384 93,-384 99,-384 105,-390 105,-396 105,-396 105,-408 105,-408 105,-414 99,-420 93,-420"/>
<text text-anchor="start" x="32.5" y="-404.4" font-family="Liberation Sans,Helvetica,Arial,sans-serif" font-weight="bold" font-size="12.00" fill="#002b36">y_train</text>
<text text-anchor="start" x="8" y="-394" font-family="Liberation Sans,Helvetica,Arial,sans-serif" font-size="10.00" fill="#268bd2">1 values (1 sources)</text>
</g>
<!-- train_model -->
<g id="node11" class="node">
<title>train_model</title>
<path fill="none" stroke="#dc322f" stroke-width="1.5" d="M215,-326C215,-326 148,-326 148,-326 142,-326 136,-320 136,-314 136,-314 136,-298 136,-298 136,-292 142,-286 148,-286 148,-286 215,-286 215,-286 221,-286 227,-292 227,-298 227,-298 227,-314 227,-314 227,-320 221,-326 215,-326"/>
<text text-anchor="start" x="147.5" y="-313.4" font-family="Liberation Sans,Helvetica,Arial,sans-serif" font-weight="bold" font-size="12.00" fill="#002b36">train_model</text>
<text text-anchor="start" x="144" y="-303" font-family="Liberation Sans,Helvetica,Arial,sans-serif" font-size="10.00" fill="#002b36">@op:train_model</text>
<text text-anchor="start" x="167" y="-293" font-family="Liberation Sans,Helvetica,Arial,sans-serif" font-size="10.00" fill="#dc322f">1 calls</text>
</g>
<!-- y_train&#45;&gt;train_model -->
<g id="edge10" class="edge">
<title>y_train&#45;&gt;train_model</title>
<path fill="none" stroke="#002b36" d="M75.86,-383.98C95.69,-369.53 124.42,-348.59 146.92,-332.2"/>
<polygon fill="#002b36" stroke="#002b36" points="149.18,-334.88 155.2,-326.16 145.06,-329.22 149.18,-334.88"/>
<text text-anchor="middle" x="151" y="-358" font-family="Liberation Sans,Helvetica,Arial,sans-serif" font-size="10.00" fill="#002b36">y_train</text>
<text text-anchor="middle" x="151" y="-347" font-family="Liberation Sans,Helvetica,Arial,sans-serif" font-size="10.00" fill="#002b36">(1 values)</text>
</g>
<!-- random_seed -->
<g id="node4" class="node">
<title>random_seed</title>
<path fill="none" stroke="#268bd2" stroke-width="1.5" d="M462,-420C462,-420 381,-420 381,-420 375,-420 369,-414 369,-408 369,-408 369,-396 369,-396 369,-390 375,-384 381,-384 381,-384 462,-384 462,-384 468,-384 474,-390 474,-396 474,-396 474,-408 474,-408 474,-414 468,-420 462,-420"/>
<text text-anchor="start" x="382" y="-404.4" font-family="Liberation Sans,Helvetica,Arial,sans-serif" font-weight="bold" font-size="12.00" fill="#002b36">random_seed</text>
<text text-anchor="start" x="377" y="-394" font-family="Liberation Sans,Helvetica,Arial,sans-serif" font-size="10.00" fill="#268bd2">1 values (1 sources)</text>
</g>
<!-- generate_dataset -->
<g id="node9" class="node">
<title>generate_dataset</title>
<path fill="none" stroke="#dc322f" stroke-width="1.5" d="M466.5,-326C466.5,-326 374.5,-326 374.5,-326 368.5,-326 362.5,-320 362.5,-314 362.5,-314 362.5,-298 362.5,-298 362.5,-292 368.5,-286 374.5,-286 374.5,-286 466.5,-286 466.5,-286 472.5,-286 478.5,-292 478.5,-298 478.5,-298 478.5,-314 478.5,-314 478.5,-320 472.5,-326 466.5,-326"/>
<text text-anchor="start" x="370.5" y="-313.4" font-family="Liberation Sans,Helvetica,Arial,sans-serif" font-weight="bold" font-size="12.00" fill="#002b36">generate_dataset</text>
<text text-anchor="start" x="370.5" y="-303" font-family="Liberation Sans,Helvetica,Arial,sans-serif" font-size="10.00" fill="#002b36">@op:generate_dataset</text>
<text text-anchor="start" x="406" y="-293" font-family="Liberation Sans,Helvetica,Arial,sans-serif" font-size="10.00" fill="#dc322f">1 calls</text>
</g>
<!-- random_seed&#45;&gt;generate_dataset -->
<g id="edge6" class="edge">
<title>random_seed&#45;&gt;generate_dataset</title>
<path fill="none" stroke="#002b36" d="M421.32,-383.76C421.18,-370.5 420.98,-351.86 420.81,-336.27"/>
<polygon fill="#002b36" stroke="#002b36" points="424.31,-336.03 420.7,-326.07 417.31,-336.11 424.31,-336.03"/>
<text text-anchor="middle" x="450" y="-358" font-family="Liberation Sans,Helvetica,Arial,sans-serif" font-size="10.00" fill="#002b36">random_seed</text>
<text text-anchor="middle" x="450" y="-347" font-family="Liberation Sans,Helvetica,Arial,sans-serif" font-size="10.00" fill="#002b36">(1 values)</text>
</g>
<!-- X_train -->
<g id="node5" class="node">
<title>X_train</title>
<path fill="none" stroke="#268bd2" stroke-width="1.5" d="M216,-420C216,-420 135,-420 135,-420 129,-420 123,-414 123,-408 123,-408 123,-396 123,-396 123,-390 129,-384 135,-384 135,-384 216,-384 216,-384 222,-384 228,-390 228,-396 228,-396 228,-408 228,-408 228,-414 222,-420 216,-420"/>
<text text-anchor="start" x="155" y="-404.4" font-family="Liberation Sans,Helvetica,Arial,sans-serif" font-weight="bold" font-size="12.00" fill="#002b36">X_train</text>
<text text-anchor="start" x="131" y="-394" font-family="Liberation Sans,Helvetica,Arial,sans-serif" font-size="10.00" fill="#268bd2">1 values (1 sources)</text>
</g>
<!-- X_train&#45;&gt;train_model -->
<g id="edge8" class="edge">
<title>X_train&#45;&gt;train_model</title>
<path fill="none" stroke="#002b36" d="M176.6,-383.76C177.45,-370.5 178.64,-351.86 179.63,-336.27"/>
<polygon fill="#002b36" stroke="#002b36" points="183.14,-336.27 180.28,-326.07 176.15,-335.83 183.14,-336.27"/>
<text text-anchor="middle" x="201" y="-358" font-family="Liberation Sans,Helvetica,Arial,sans-serif" font-size="10.00" fill="#002b36">X_train</text>
<text text-anchor="middle" x="201" y="-347" font-family="Liberation Sans,Helvetica,Arial,sans-serif" font-size="10.00" fill="#002b36">(1 values)</text>
</g>
<!-- n_estimators -->
<g id="node6" class="node">
<title>n_estimators</title>
<path fill="none" stroke="#268bd2" stroke-width="1.5" d="M339,-420C339,-420 258,-420 258,-420 252,-420 246,-414 246,-408 246,-408 246,-396 246,-396 246,-390 252,-384 258,-384 258,-384 339,-384 339,-384 345,-384 351,-390 351,-396 351,-396 351,-408 351,-408 351,-414 345,-420 339,-420"/>
<text text-anchor="start" x="261" y="-404.4" font-family="Liberation Sans,Helvetica,Arial,sans-serif" font-weight="bold" font-size="12.00" fill="#002b36">n_estimators</text>
<text text-anchor="start" x="254" y="-394" font-family="Liberation Sans,Helvetica,Arial,sans-serif" font-size="10.00" fill="#268bd2">1 values (1 sources)</text>
</g>
<!-- n_estimators&#45;&gt;train_model -->
<g id="edge9" class="edge">
<title>n_estimators&#45;&gt;train_model</title>
<path fill="none" stroke="#002b36" d="M277.31,-383.98C259.49,-369.66 233.73,-348.96 213.41,-332.63"/>
<polygon fill="#002b36" stroke="#002b36" points="215.34,-329.7 205.35,-326.16 210.95,-335.15 215.34,-329.7"/>
<text text-anchor="middle" x="283" y="-358" font-family="Liberation Sans,Helvetica,Arial,sans-serif" font-size="10.00" fill="#002b36">n_estimators</text>
<text text-anchor="middle" x="283" y="-347" font-family="Liberation Sans,Helvetica,Arial,sans-serif" font-size="10.00" fill="#002b36">(1 values)</text>
</g>
<!-- model -->
<g id="node7" class="node">
<title>model</title>
<path fill="none" stroke="#268bd2" stroke-width="1.5" d="M233.5,-228C233.5,-228 203.5,-228 203.5,-228 197.5,-228 191.5,-222 191.5,-216 191.5,-216 191.5,-204 191.5,-204 191.5,-198 197.5,-192 203.5,-192 203.5,-192 233.5,-192 233.5,-192 239.5,-192 245.5,-198 245.5,-204 245.5,-204 245.5,-216 245.5,-216 245.5,-222 239.5,-228 233.5,-228"/>
<text text-anchor="start" x="200.5" y="-212.4" font-family="Liberation Sans,Helvetica,Arial,sans-serif" font-weight="bold" font-size="12.00" fill="#002b36">model</text>
<text text-anchor="start" x="200" y="-202" font-family="Liberation Sans,Helvetica,Arial,sans-serif" font-size="10.00" fill="#268bd2">1 values</text>
</g>
<!-- model&#45;&gt;eval_model -->
<g id="edge3" class="edge">
<title>model&#45;&gt;eval_model</title>
<path fill="none" stroke="#002b36" d="M233.16,-191.89C243.45,-180.21 257.78,-164.63 271.5,-152 275.61,-148.22 280.06,-144.39 284.53,-140.71"/>
<polygon fill="#002b36" stroke="#002b36" points="286.94,-143.27 292.54,-134.27 282.55,-137.81 286.94,-143.27"/>
<text text-anchor="middle" x="293" y="-166" font-family="Liberation Sans,Helvetica,Arial,sans-serif" font-size="10.00" fill="#002b36">model</text>
<text text-anchor="middle" x="293" y="-155" font-family="Liberation Sans,Helvetica,Arial,sans-serif" font-size="10.00" fill="#002b36">(1 values)</text>
</g>
<!-- y_test -->
<g id="node8" class="node">
<title>y_test</title>
<path fill="none" stroke="#268bd2" stroke-width="1.5" d="M359,-228C359,-228 278,-228 278,-228 272,-228 266,-222 266,-216 266,-216 266,-204 266,-204 266,-198 272,-192 278,-192 278,-192 359,-192 359,-192 365,-192 371,-198 371,-204 371,-204 371,-216 371,-216 371,-222 365,-228 359,-228"/>
<text text-anchor="start" x="301" y="-212.4" font-family="Liberation Sans,Helvetica,Arial,sans-serif" font-weight="bold" font-size="12.00" fill="#002b36">y_test</text>
<text text-anchor="start" x="274" y="-202" font-family="Liberation Sans,Helvetica,Arial,sans-serif" font-size="10.00" fill="#268bd2">1 values (1 sources)</text>
</g>
<!-- y_test&#45;&gt;eval_model -->
<g id="edge4" class="edge">
<title>y_test&#45;&gt;eval_model</title>
<path fill="none" stroke="#002b36" d="M318.5,-191.76C318.5,-178.5 318.5,-159.86 318.5,-144.27"/>
<polygon fill="#002b36" stroke="#002b36" points="322,-144.07 318.5,-134.07 315,-144.07 322,-144.07"/>
<text text-anchor="middle" x="340" y="-166" font-family="Liberation Sans,Helvetica,Arial,sans-serif" font-size="10.00" fill="#002b36">y_test</text>
<text text-anchor="middle" x="340" y="-155" font-family="Liberation Sans,Helvetica,Arial,sans-serif" font-size="10.00" fill="#002b36">(1 values)</text>
</g>
<!-- generate_dataset&#45;&gt;X_test -->
<g id="edge5" class="edge">
<title>generate_dataset&#45;&gt;X_test</title>
<path fill="none" stroke="#002b36" d="M419.89,-285.98C419.46,-272.34 418.86,-253.75 418.38,-238.5"/>
<polygon fill="#002b36" stroke="#002b36" points="421.86,-237.98 418.05,-228.1 414.87,-238.2 421.86,-237.98"/>
<text text-anchor="middle" x="440" y="-260" font-family="Liberation Sans,Helvetica,Arial,sans-serif" font-size="10.00" fill="#002b36">output_1</text>
<text text-anchor="middle" x="440" y="-249" font-family="Liberation Sans,Helvetica,Arial,sans-serif" font-size="10.00" fill="#002b36">(1 values)</text>
</g>
<!-- eval_model&#45;&gt;v -->
<g id="edge1" class="edge">
<title>eval_model&#45;&gt;v</title>
<path fill="none" stroke="#002b36" d="M318.5,-93.98C318.5,-80.34 318.5,-61.75 318.5,-46.5"/>
<polygon fill="#002b36" stroke="#002b36" points="322,-46.1 318.5,-36.1 315,-46.1 322,-46.1"/>
<text text-anchor="middle" x="340" y="-68" font-family="Liberation Sans,Helvetica,Arial,sans-serif" font-size="10.00" fill="#002b36">output_0</text>
<text text-anchor="middle" x="340" y="-57" font-family="Liberation Sans,Helvetica,Arial,sans-serif" font-size="10.00" fill="#002b36">(1 values)</text>
</g>
<!-- train_model&#45;&gt;model -->
<g id="edge7" class="edge">
<title>train_model&#45;&gt;model</title>
<path fill="none" stroke="#002b36" d="M188.99,-285.98C194.46,-272.07 201.96,-253.03 208.02,-237.61"/>
<polygon fill="#002b36" stroke="#002b36" points="211.36,-238.68 211.77,-228.1 204.85,-236.12 211.36,-238.68"/>
<text text-anchor="middle" x="226" y="-260" font-family="Liberation Sans,Helvetica,Arial,sans-serif" font-size="10.00" fill="#002b36">output_0</text>
<text text-anchor="middle" x="226" y="-249" font-family="Liberation Sans,Helvetica,Arial,sans-serif" font-size="10.00" fill="#002b36">(1 values)</text>
</g>
</g>
</svg>
