<?xml version="1.0" encoding="UTF-8" standalone="no"?>
<!DOCTYPE svg PUBLIC "-//W3C//DTD SVG 1.1//EN"
 "http://www.w3.org/Graphics/SVG/1.1/DTD/svg11.dtd">
<!-- Generated by graphviz version 2.50.0 (0)
 -->
<!-- Title: G Pages: 1 -->
<svg width="387pt" height="648pt"
 viewBox="0.00 0.00 386.50 648.00" xmlns="http://www.w3.org/2000/svg" xmlns:xlink="http://www.w3.org/1999/xlink">
<g id="graph0" class="graph" transform="scale(1 1) rotate(0) translate(4 644)">
<title>G</title>
<polygon fill="white" stroke="transparent" points="-4,4 -4,-644 382.5,-644 382.5,4 -4,4"/>
<!-- X_train -->
<g id="node1" class="node">
<title>X_train</title>
<path fill="none" stroke="#268bd2" stroke-width="2" d="M45,-448C45,-448 12,-448 12,-448 6,-448 0,-442 0,-436 0,-436 0,-424 0,-424 0,-418 6,-412 12,-412 12,-412 45,-412 45,-412 51,-412 57,-418 57,-424 57,-424 57,-436 57,-436 57,-442 51,-448 45,-448"/>
<text text-anchor="start" x="8" y="-432.4" font-family="Liberation Sans,Helvetica,Arial,sans-serif" font-weight="bold" font-size="12.00" fill="#002b36">X_train</text>
<text text-anchor="start" x="10" y="-422" font-family="Liberation Sans,Helvetica,Arial,sans-serif" font-size="10.00" fill="#268bd2">1 values</text>
</g>
<!-- train_model -->
<g id="node10" class="node">
<title>train_model</title>
<path fill="none" stroke="#dc322f" stroke-width="2" d="M190,-340C190,-340 123,-340 123,-340 117,-340 111,-334 111,-328 111,-328 111,-312 111,-312 111,-306 117,-300 123,-300 123,-300 190,-300 190,-300 196,-300 202,-306 202,-312 202,-312 202,-328 202,-328 202,-334 196,-340 190,-340"/>
<text text-anchor="start" x="122.5" y="-327.4" font-family="Liberation Sans,Helvetica,Arial,sans-serif" font-weight="bold" font-size="12.00" fill="#002b36">train_model</text>
<text text-anchor="start" x="119" y="-317" font-family="Liberation Sans,Helvetica,Arial,sans-serif" font-size="10.00" fill="#002b36">@op:train_model</text>
<text text-anchor="start" x="142" y="-307" font-family="Liberation Sans,Helvetica,Arial,sans-serif" font-size="10.00" fill="#dc322f">1 calls</text>
</g>
<!-- X_train&#45;&gt;train_model -->
<g id="edge11" class="edge">
<title>X_train&#45;&gt;train_model</title>
<path fill="none" stroke="#002b36" d="M33.04,-411.93C38.08,-396.03 47.65,-372.64 63.5,-358 74.08,-348.23 87.56,-340.91 100.95,-335.47"/>
<polygon fill="#002b36" stroke="#002b36" points="102.5,-338.62 110.64,-331.84 100.05,-332.07 102.5,-338.62"/>
<text text-anchor="middle" x="85" y="-379" font-family="Liberation Sans,Helvetica,Arial,sans-serif" font-size="10.00" fill="#002b36">X_train</text>
<text text-anchor="middle" x="85" y="-368" font-family="Liberation Sans,Helvetica,Arial,sans-serif" font-size="10.00" fill="#002b36">(1 values)</text>
</g>
<!-- v -->
<g id="node2" class="node">
<title>v</title>
<path fill="none" stroke="#268bd2" stroke-width="2" d="M301.5,-36C301.5,-36 231.5,-36 231.5,-36 225.5,-36 219.5,-30 219.5,-24 219.5,-24 219.5,-12 219.5,-12 219.5,-6 225.5,0 231.5,0 231.5,0 301.5,0 301.5,0 307.5,0 313.5,-6 313.5,-12 313.5,-12 313.5,-24 313.5,-24 313.5,-30 307.5,-36 301.5,-36"/>
<text text-anchor="start" x="263" y="-20.4" font-family="Liberation Sans,Helvetica,Arial,sans-serif" font-weight="bold" font-size="12.00" fill="#002b36">v</text>
<text text-anchor="start" x="227.5" y="-10" font-family="Liberation Sans,Helvetica,Arial,sans-serif" font-size="10.00" fill="#268bd2">1 values (1 sinks)</text>
</g>
<!-- n_estimators -->
<g id="node3" class="node">
<title>n_estimators</title>
<path fill="none" stroke="#268bd2" stroke-width="2" d="M243,-448C243,-448 162,-448 162,-448 156,-448 150,-442 150,-436 150,-436 150,-424 150,-424 150,-418 156,-412 162,-412 162,-412 243,-412 243,-412 249,-412 255,-418 255,-424 255,-424 255,-436 255,-436 255,-442 249,-448 243,-448"/>
<text text-anchor="start" x="165" y="-432.4" font-family="Liberation Sans,Helvetica,Arial,sans-serif" font-weight="bold" font-size="12.00" fill="#002b36">n_estimators</text>
<text text-anchor="start" x="158" y="-422" font-family="Liberation Sans,Helvetica,Arial,sans-serif" font-size="10.00" fill="#268bd2">1 values (1 sources)</text>
</g>
<!-- n_estimators&#45;&gt;train_model -->
<g id="edge12" class="edge">
<title>n_estimators&#45;&gt;train_model</title>
<path fill="none" stroke="#002b36" d="M195.11,-411.65C187.98,-394.92 177.07,-369.3 168.66,-349.56"/>
<polygon fill="#002b36" stroke="#002b36" points="171.79,-347.96 164.65,-340.13 165.35,-350.7 171.79,-347.96"/>
<text text-anchor="middle" x="214" y="-379" font-family="Liberation Sans,Helvetica,Arial,sans-serif" font-size="10.00" fill="#002b36">n_estimators</text>
<text text-anchor="middle" x="214" y="-368" font-family="Liberation Sans,Helvetica,Arial,sans-serif" font-size="10.00" fill="#002b36">(1 values)</text>
</g>
<!-- y_train -->
<g id="node4" class="node">
<title>y_train</title>
<path fill="none" stroke="#268bd2" stroke-width="2" d="M119.5,-448C119.5,-448 87.5,-448 87.5,-448 81.5,-448 75.5,-442 75.5,-436 75.5,-436 75.5,-424 75.5,-424 75.5,-418 81.5,-412 87.5,-412 87.5,-412 119.5,-412 119.5,-412 125.5,-412 131.5,-418 131.5,-424 131.5,-424 131.5,-436 131.5,-436 131.5,-442 125.5,-448 119.5,-448"/>
<text text-anchor="start" x="83.5" y="-432.4" font-family="Liberation Sans,Helvetica,Arial,sans-serif" font-weight="bold" font-size="12.00" fill="#002b36">y_train</text>
<text text-anchor="start" x="85" y="-422" font-family="Liberation Sans,Helvetica,Arial,sans-serif" font-size="10.00" fill="#268bd2">1 values</text>
</g>
<!-- y_train&#45;&gt;train_model -->
<g id="edge13" class="edge">
<title>y_train&#45;&gt;train_model</title>
<path fill="none" stroke="#002b36" d="M106.8,-411.9C110.12,-397.02 116.11,-375.22 125.5,-358 127.29,-354.72 129.4,-351.45 131.66,-348.3"/>
<polygon fill="#002b36" stroke="#002b36" points="134.51,-350.34 137.88,-340.29 128.98,-346.04 134.51,-350.34"/>
<text text-anchor="middle" x="147" y="-379" font-family="Liberation Sans,Helvetica,Arial,sans-serif" font-size="10.00" fill="#002b36">y_train</text>
<text text-anchor="middle" x="147" y="-368" font-family="Liberation Sans,Helvetica,Arial,sans-serif" font-size="10.00" fill="#002b36">(1 values)</text>
</g>
<!-- model -->
<g id="node5" class="node">
<title>model</title>
<path fill="none" stroke="#268bd2" stroke-width="2" d="M217.5,-228C217.5,-228 187.5,-228 187.5,-228 181.5,-228 175.5,-222 175.5,-216 175.5,-216 175.5,-204 175.5,-204 175.5,-198 181.5,-192 187.5,-192 187.5,-192 217.5,-192 217.5,-192 223.5,-192 229.5,-198 229.5,-204 229.5,-204 229.5,-216 229.5,-216 229.5,-222 223.5,-228 217.5,-228"/>
<text text-anchor="start" x="184.5" y="-212.4" font-family="Liberation Sans,Helvetica,Arial,sans-serif" font-weight="bold" font-size="12.00" fill="#002b36">model</text>
<text text-anchor="start" x="184" y="-202" font-family="Liberation Sans,Helvetica,Arial,sans-serif" font-size="10.00" fill="#268bd2">1 values</text>
</g>
<!-- eval_model -->
<g id="node9" class="node">
<title>eval_model</title>
<path fill="none" stroke="#dc322f" stroke-width="2" d="M299.5,-134C299.5,-134 233.5,-134 233.5,-134 227.5,-134 221.5,-128 221.5,-122 221.5,-122 221.5,-106 221.5,-106 221.5,-100 227.5,-94 233.5,-94 233.5,-94 299.5,-94 299.5,-94 305.5,-94 311.5,-100 311.5,-106 311.5,-106 311.5,-122 311.5,-122 311.5,-128 305.5,-134 299.5,-134"/>
<text text-anchor="start" x="233.5" y="-121.4" font-family="Liberation Sans,Helvetica,Arial,sans-serif" font-weight="bold" font-size="12.00" fill="#002b36">eval_model</text>
<text text-anchor="start" x="229.5" y="-111" font-family="Liberation Sans,Helvetica,Arial,sans-serif" font-size="10.00" fill="#002b36">@op:eval_model</text>
<text text-anchor="start" x="252" y="-101" font-family="Liberation Sans,Helvetica,Arial,sans-serif" font-size="10.00" fill="#dc322f">1 calls</text>
</g>
<!-- model&#45;&gt;eval_model -->
<g id="edge3" class="edge">
<title>model&#45;&gt;eval_model</title>
<path fill="none" stroke="#002b36" d="M200.95,-191.79C200.7,-179.77 202.1,-163.84 209.5,-152 212.1,-147.84 215.36,-144.06 218.99,-140.64"/>
<polygon fill="#002b36" stroke="#002b36" points="221.4,-143.19 226.89,-134.12 216.95,-137.79 221.4,-143.19"/>
<text text-anchor="middle" x="231" y="-166" font-family="Liberation Sans,Helvetica,Arial,sans-serif" font-size="10.00" fill="#002b36">model</text>
<text text-anchor="middle" x="231" y="-155" font-family="Liberation Sans,Helvetica,Arial,sans-serif" font-size="10.00" fill="#002b36">(1 values)</text>
</g>
<!-- random_seed -->
<g id="node6" class="node">
<title>random_seed</title>
<path fill="none" stroke="#268bd2" stroke-width="2" d="M279,-640C279,-640 198,-640 198,-640 192,-640 186,-634 186,-628 186,-628 186,-616 186,-616 186,-610 192,-604 198,-604 198,-604 279,-604 279,-604 285,-604 291,-610 291,-616 291,-616 291,-628 291,-628 291,-634 285,-640 279,-640"/>
<text text-anchor="start" x="199" y="-624.4" font-family="Liberation Sans,Helvetica,Arial,sans-serif" font-weight="bold" font-size="12.00" fill="#002b36">random_seed</text>
<text text-anchor="start" x="194" y="-614" font-family="Liberation Sans,Helvetica,Arial,sans-serif" font-size="10.00" fill="#268bd2">1 values (1 sources)</text>
</g>
<!-- generate_dataset -->
<g id="node11" class="node">
<title>generate_dataset</title>
<path fill="none" stroke="#dc322f" stroke-width="2" d="M284.5,-546C284.5,-546 192.5,-546 192.5,-546 186.5,-546 180.5,-540 180.5,-534 180.5,-534 180.5,-518 180.5,-518 180.5,-512 186.5,-506 192.5,-506 192.5,-506 284.5,-506 284.5,-506 290.5,-506 296.5,-512 296.5,-518 296.5,-518 296.5,-534 296.5,-534 296.5,-540 290.5,-546 284.5,-546"/>
<text text-anchor="start" x="188.5" y="-533.4" font-family="Liberation Sans,Helvetica,Arial,sans-serif" font-weight="bold" font-size="12.00" fill="#002b36">generate_dataset</text>
<text text-anchor="start" x="188.5" y="-523" font-family="Liberation Sans,Helvetica,Arial,sans-serif" font-size="10.00" fill="#002b36">@op:generate_dataset</text>
<text text-anchor="start" x="224" y="-513" font-family="Liberation Sans,Helvetica,Arial,sans-serif" font-size="10.00" fill="#dc322f">1 calls</text>
</g>
<!-- random_seed&#45;&gt;generate_dataset -->
<g id="edge9" class="edge">
<title>random_seed&#45;&gt;generate_dataset</title>
<path fill="none" stroke="#002b36" d="M238.5,-603.76C238.5,-590.5 238.5,-571.86 238.5,-556.27"/>
<polygon fill="#002b36" stroke="#002b36" points="242,-556.07 238.5,-546.07 235,-556.07 242,-556.07"/>
<text text-anchor="middle" x="268" y="-578" font-family="Liberation Sans,Helvetica,Arial,sans-serif" font-size="10.00" fill="#002b36">random_seed</text>
<text text-anchor="middle" x="268" y="-567" font-family="Liberation Sans,Helvetica,Arial,sans-serif" font-size="10.00" fill="#002b36">(1 values)</text>
</g>
<!-- y_test -->
<g id="node7" class="node">
<title>y_test</title>
<path fill="none" stroke="#268bd2" stroke-width="2" d="M298.5,-394C298.5,-394 268.5,-394 268.5,-394 262.5,-394 256.5,-388 256.5,-382 256.5,-382 256.5,-370 256.5,-370 256.5,-364 262.5,-358 268.5,-358 268.5,-358 298.5,-358 298.5,-358 304.5,-358 310.5,-364 310.5,-370 310.5,-370 310.5,-382 310.5,-382 310.5,-388 304.5,-394 298.5,-394"/>
<text text-anchor="start" x="266" y="-378.4" font-family="Liberation Sans,Helvetica,Arial,sans-serif" font-weight="bold" font-size="12.00" fill="#002b36">y_test</text>
<text text-anchor="start" x="265" y="-368" font-family="Liberation Sans,Helvetica,Arial,sans-serif" font-size="10.00" fill="#268bd2">1 values</text>
</g>
<!-- y_test&#45;&gt;eval_model -->
<g id="edge4" class="edge">
<title>y_test&#45;&gt;eval_model</title>
<path fill="none" stroke="#002b36" d="M278.38,-357.71C273.19,-339.19 265.49,-308.81 262.5,-282 257.14,-233.89 260.47,-177.51 263.44,-144.11"/>
<polygon fill="#002b36" stroke="#002b36" points="266.92,-144.39 264.38,-134.11 259.96,-143.74 266.92,-144.39"/>
<text text-anchor="middle" x="284" y="-267" font-family="Liberation Sans,Helvetica,Arial,sans-serif" font-size="10.00" fill="#002b36">y_test</text>
<text text-anchor="middle" x="284" y="-256" font-family="Liberation Sans,Helvetica,Arial,sans-serif" font-size="10.00" fill="#002b36">(1 values)</text>
</g>
<!-- X_test -->
<g id="node8" class="node">
<title>X_test</title>
<path fill="none" stroke="#268bd2" stroke-width="2" d="M356.5,-282C356.5,-282 326.5,-282 326.5,-282 320.5,-282 314.5,-276 314.5,-270 314.5,-270 314.5,-258 314.5,-258 314.5,-252 320.5,-246 326.5,-246 326.5,-246 356.5,-246 356.5,-246 362.5,-246 368.5,-252 368.5,-258 368.5,-258 368.5,-270 368.5,-270 368.5,-276 362.5,-282 356.5,-282"/>
<text text-anchor="start" x="323" y="-266.4" font-family="Liberation Sans,Helvetica,Arial,sans-serif" font-weight="bold" font-size="12.00" fill="#002b36">X_test</text>
<text text-anchor="start" x="323" y="-256" font-family="Liberation Sans,Helvetica,Arial,sans-serif" font-size="10.00" fill="#268bd2">1 values</text>
</g>
<!-- X_test&#45;&gt;eval_model -->
<g id="edge2" class="edge">
<title>X_test&#45;&gt;eval_model</title>
<path fill="none" stroke="#002b36" d="M332.75,-245.73C319.99,-220.55 296.13,-173.46 280.79,-143.2"/>
<polygon fill="#002b36" stroke="#002b36" points="283.78,-141.36 276.14,-134.02 277.54,-144.52 283.78,-141.36"/>
<text text-anchor="middle" x="344" y="-213" font-family="Liberation Sans,Helvetica,Arial,sans-serif" font-size="10.00" fill="#002b36">X_test</text>
<text text-anchor="middle" x="344" y="-202" font-family="Liberation Sans,Helvetica,Arial,sans-serif" font-size="10.00" fill="#002b36">(1 values)</text>
</g>
<!-- eval_model&#45;&gt;v -->
<g id="edge1" class="edge">
<title>eval_model&#45;&gt;v</title>
<path fill="none" stroke="#002b36" d="M266.5,-93.98C266.5,-80.34 266.5,-61.75 266.5,-46.5"/>
<polygon fill="#002b36" stroke="#002b36" points="270,-46.1 266.5,-36.1 263,-46.1 270,-46.1"/>
<text text-anchor="middle" x="288" y="-68" font-family="Liberation Sans,Helvetica,Arial,sans-serif" font-size="10.00" fill="#002b36">output_0</text>
<text text-anchor="middle" x="288" y="-57" font-family="Liberation Sans,Helvetica,Arial,sans-serif" font-size="10.00" fill="#002b36">(1 values)</text>
</g>
<!-- train_model&#45;&gt;model -->
<g id="edge10" class="edge">
<title>train_model&#45;&gt;model</title>
<path fill="none" stroke="#002b36" d="M164.62,-299.94C172,-282.61 182.96,-256.88 191.2,-237.54"/>
<polygon fill="#002b36" stroke="#002b36" points="194.52,-238.66 195.22,-228.09 188.08,-235.92 194.52,-238.66"/>
<text text-anchor="middle" x="207" y="-267" font-family="Liberation Sans,Helvetica,Arial,sans-serif" font-size="10.00" fill="#002b36">output_0</text>
<text text-anchor="middle" x="207" y="-256" font-family="Liberation Sans,Helvetica,Arial,sans-serif" font-size="10.00" fill="#002b36">(1 values)</text>
</g>
<!-- generate_dataset&#45;&gt;X_train -->
<g id="edge7" class="edge">
<title>generate_dataset&#45;&gt;X_train</title>
<path fill="none" stroke="#002b36" d="M180.49,-513.25C157.14,-507.35 130.37,-499.05 107.5,-488 89.17,-479.14 70.61,-466.01 56.09,-454.59"/>
<polygon fill="#002b36" stroke="#002b36" points="58.02,-451.65 48.04,-448.1 53.63,-457.1 58.02,-451.65"/>
<text text-anchor="middle" x="129" y="-480" font-family="Liberation Sans,Helvetica,Arial,sans-serif" font-size="10.00" fill="#002b36">output_0</text>
<text text-anchor="middle" x="129" y="-469" font-family="Liberation Sans,Helvetica,Arial,sans-serif" font-size="10.00" fill="#002b36">(1 values)</text>
</g>
<!-- generate_dataset&#45;&gt;y_train -->
<g id="edge8" class="edge">
<title>generate_dataset&#45;&gt;y_train</title>
<path fill="none" stroke="#002b36" d="M211.18,-505.98C189.59,-490.95 159.38,-469.91 136.45,-453.95"/>
<polygon fill="#002b36" stroke="#002b36" points="138.26,-450.94 128.06,-448.1 134.26,-456.68 138.26,-450.94"/>
<text text-anchor="middle" x="204" y="-480" font-family="Liberation Sans,Helvetica,Arial,sans-serif" font-size="10.00" fill="#002b36">output_2</text>
<text text-anchor="middle" x="204" y="-469" font-family="Liberation Sans,Helvetica,Arial,sans-serif" font-size="10.00" fill="#002b36">(1 values)</text>
</g>
<!-- generate_dataset&#45;&gt;y_test -->
<g id="edge6" class="edge">
<title>generate_dataset&#45;&gt;y_test</title>
<path fill="none" stroke="#002b36" d="M245.36,-505.81C250.82,-490.3 258.5,-467.85 264.5,-448 268.87,-433.54 273.26,-417.28 276.72,-403.97"/>
<polygon fill="#002b36" stroke="#002b36" points="280.18,-404.57 279.27,-394.01 273.4,-402.83 280.18,-404.57"/>
<text text-anchor="middle" x="280" y="-480" font-family="Liberation Sans,Helvetica,Arial,sans-serif" font-size="10.00" fill="#002b36">output_3</text>
<text text-anchor="middle" x="280" y="-469" font-family="Liberation Sans,Helvetica,Arial,sans-serif" font-size="10.00" fill="#002b36">(1 values)</text>
</g>
<!-- generate_dataset&#45;&gt;X_test -->
<g id="edge5" class="edge">
<title>generate_dataset&#45;&gt;X_test</title>
<path fill="none" stroke="#002b36" d="M286.1,-505.96C293.56,-501.11 300.45,-495.17 305.5,-488 347.51,-428.3 347.46,-337.51 344.3,-292.41"/>
<polygon fill="#002b36" stroke="#002b36" points="347.78,-291.92 343.48,-282.23 340.8,-292.48 347.78,-291.92"/>
<text text-anchor="middle" x="357" y="-433" font-family="Liberation Sans,Helvetica,Arial,sans-serif" font-size="10.00" fill="#002b36">output_1</text>
<text text-anchor="middle" x="357" y="-422" font-family="Liberation Sans,Helvetica,Arial,sans-serif" font-size="10.00" fill="#002b36">(1 values)</text>
</g>
</g>
</svg>
