<?xml version="1.0" encoding="UTF-8" standalone="no"?>
<!DOCTYPE svg PUBLIC "-//W3C//DTD SVG 1.1//EN"
 "http://www.w3.org/Graphics/SVG/1.1/DTD/svg11.dtd">
<!-- Generated by graphviz version 2.50.0 (0)
 -->
<!-- Title: G Pages: 1 -->
<svg width="482pt" height="428pt"
 viewBox="0.00 0.00 482.00 428.00" xmlns="http://www.w3.org/2000/svg" xmlns:xlink="http://www.w3.org/1999/xlink">
<g id="graph0" class="graph" transform="scale(1 1) rotate(0) translate(4 424)">
<title>G</title>
<polygon fill="white" stroke="transparent" points="-4,4 -4,-424 478,-424 478,4 -4,4"/>
<!-- v -->
<g id="node1" class="node">
<title>v</title>
<path fill="none" stroke="#268bd2" d="M230.5,-36C230.5,-36 160.5,-36 160.5,-36 154.5,-36 148.5,-30 148.5,-24 148.5,-24 148.5,-12 148.5,-12 148.5,-6 154.5,0 160.5,0 160.5,0 230.5,0 230.5,0 236.5,0 242.5,-6 242.5,-12 242.5,-12 242.5,-24 242.5,-24 242.5,-30 236.5,-36 230.5,-36"/>
<text text-anchor="start" x="192" y="-20.4" font-family="Liberation Sans,Helvetica,Arial,sans-serif" font-weight="bold" font-size="12.00" fill="#002b36">v</text>
<text text-anchor="start" x="156.5" y="-10" font-family="Liberation Sans,Helvetica,Arial,sans-serif" font-size="10.00" fill="#268bd2">1 values (1 sinks)</text>
</g>
<!-- random_seed -->
<g id="node2" class="node">
<title>random_seed</title>
<path fill="none" stroke="#268bd2" d="M93,-420C93,-420 12,-420 12,-420 6,-420 0,-414 0,-408 0,-408 0,-396 0,-396 0,-390 6,-384 12,-384 12,-384 93,-384 93,-384 99,-384 105,-390 105,-396 105,-396 105,-408 105,-408 105,-414 99,-420 93,-420"/>
<text text-anchor="start" x="13" y="-404.4" font-family="Liberation Sans,Helvetica,Arial,sans-serif" font-weight="bold" font-size="12.00" fill="#002b36">random_seed</text>
<text text-anchor="start" x="8" y="-394" font-family="Liberation Sans,Helvetica,Arial,sans-serif" font-size="10.00" fill="#268bd2">1 values (1 sources)</text>
</g>
<!-- generate_dataset -->
<g id="node9" class="node">
<title>generate_dataset</title>
<path fill="none" stroke="#dc322f" d="M104.5,-326C104.5,-326 12.5,-326 12.5,-326 6.5,-326 0.5,-320 0.5,-314 0.5,-314 0.5,-298 0.5,-298 0.5,-292 6.5,-286 12.5,-286 12.5,-286 104.5,-286 104.5,-286 110.5,-286 116.5,-292 116.5,-298 116.5,-298 116.5,-314 116.5,-314 116.5,-320 110.5,-326 104.5,-326"/>
<text text-anchor="start" x="8.5" y="-313.4" font-family="Liberation Sans,Helvetica,Arial,sans-serif" font-weight="bold" font-size="12.00" fill="#002b36">generate_dataset</text>
<text text-anchor="start" x="8.5" y="-303" font-family="Liberation Sans,Helvetica,Arial,sans-serif" font-size="10.00" fill="#002b36">@op:generate_dataset</text>
<text text-anchor="start" x="44" y="-293" font-family="Liberation Sans,Helvetica,Arial,sans-serif" font-size="10.00" fill="#dc322f">1 calls</text>
</g>
<!-- random_seed&#45;&gt;generate_dataset -->
<g id="edge6" class="edge">
<title>random_seed&#45;&gt;generate_dataset</title>
<path fill="none" stroke="#002b36" d="M53.6,-383.76C54.45,-370.5 55.64,-351.86 56.63,-336.27"/>
<polygon fill="#002b36" stroke="#002b36" points="60.14,-336.27 57.28,-326.07 53.15,-335.83 60.14,-336.27"/>
<text text-anchor="middle" x="86" y="-358" font-family="Liberation Sans,Helvetica,Arial,sans-serif" font-size="10.00" fill="#002b36">random_seed</text>
<text text-anchor="middle" x="86" y="-347" font-family="Liberation Sans,Helvetica,Arial,sans-serif" font-size="10.00" fill="#002b36">(1 values)</text>
</g>
<!-- X_test -->
<g id="node3" class="node">
<title>X_test</title>
<path fill="none" stroke="#268bd2" d="M110.5,-228C110.5,-228 80.5,-228 80.5,-228 74.5,-228 68.5,-222 68.5,-216 68.5,-216 68.5,-204 68.5,-204 68.5,-198 74.5,-192 80.5,-192 80.5,-192 110.5,-192 110.5,-192 116.5,-192 122.5,-198 122.5,-204 122.5,-204 122.5,-216 122.5,-216 122.5,-222 116.5,-228 110.5,-228"/>
<text text-anchor="start" x="77" y="-212.4" font-family="Liberation Sans,Helvetica,Arial,sans-serif" font-weight="bold" font-size="12.00" fill="#002b36">X_test</text>
<text text-anchor="start" x="77" y="-202" font-family="Liberation Sans,Helvetica,Arial,sans-serif" font-size="10.00" fill="#268bd2">1 values</text>
</g>
<!-- eval_model -->
<g id="node10" class="node">
<title>eval_model</title>
<path fill="none" stroke="#dc322f" d="M228.5,-134C228.5,-134 162.5,-134 162.5,-134 156.5,-134 150.5,-128 150.5,-122 150.5,-122 150.5,-106 150.5,-106 150.5,-100 156.5,-94 162.5,-94 162.5,-94 228.5,-94 228.5,-94 234.5,-94 240.5,-100 240.5,-106 240.5,-106 240.5,-122 240.5,-122 240.5,-128 234.5,-134 228.5,-134"/>
<text text-anchor="start" x="162.5" y="-121.4" font-family="Liberation Sans,Helvetica,Arial,sans-serif" font-weight="bold" font-size="12.00" fill="#002b36">eval_model</text>
<text text-anchor="start" x="158.5" y="-111" font-family="Liberation Sans,Helvetica,Arial,sans-serif" font-size="10.00" fill="#002b36">@op:eval_model</text>
<text text-anchor="start" x="181" y="-101" font-family="Liberation Sans,Helvetica,Arial,sans-serif" font-size="10.00" fill="#dc322f">1 calls</text>
</g>
<!-- X_test&#45;&gt;eval_model -->
<g id="edge2" class="edge">
<title>X_test&#45;&gt;eval_model</title>
<path fill="none" stroke="#002b36" d="M110.16,-191.89C120.45,-180.21 134.78,-164.63 148.5,-152 152.61,-148.22 157.06,-144.39 161.53,-140.71"/>
<polygon fill="#002b36" stroke="#002b36" points="163.94,-143.27 169.54,-134.27 159.55,-137.81 163.94,-143.27"/>
<text text-anchor="middle" x="170" y="-166" font-family="Liberation Sans,Helvetica,Arial,sans-serif" font-size="10.00" fill="#002b36">X_test</text>
<text text-anchor="middle" x="170" y="-155" font-family="Liberation Sans,Helvetica,Arial,sans-serif" font-size="10.00" fill="#002b36">(1 values)</text>
</g>
<!-- y_test -->
<g id="node4" class="node">
<title>y_test</title>
<path fill="none" stroke="#268bd2" d="M236,-228C236,-228 155,-228 155,-228 149,-228 143,-222 143,-216 143,-216 143,-204 143,-204 143,-198 149,-192 155,-192 155,-192 236,-192 236,-192 242,-192 248,-198 248,-204 248,-204 248,-216 248,-216 248,-222 242,-228 236,-228"/>
<text text-anchor="start" x="178" y="-212.4" font-family="Liberation Sans,Helvetica,Arial,sans-serif" font-weight="bold" font-size="12.00" fill="#002b36">y_test</text>
<text text-anchor="start" x="151" y="-202" font-family="Liberation Sans,Helvetica,Arial,sans-serif" font-size="10.00" fill="#268bd2">1 values (1 sources)</text>
</g>
<!-- y_test&#45;&gt;eval_model -->
<g id="edge4" class="edge">
<title>y_test&#45;&gt;eval_model</title>
<path fill="none" stroke="#002b36" d="M195.5,-191.76C195.5,-178.5 195.5,-159.86 195.5,-144.27"/>
<polygon fill="#002b36" stroke="#002b36" points="199,-144.07 195.5,-134.07 192,-144.07 199,-144.07"/>
<text text-anchor="middle" x="217" y="-166" font-family="Liberation Sans,Helvetica,Arial,sans-serif" font-size="10.00" fill="#002b36">y_test</text>
<text text-anchor="middle" x="217" y="-155" font-family="Liberation Sans,Helvetica,Arial,sans-serif" font-size="10.00" fill="#002b36">(1 values)</text>
</g>
<!-- model -->
<g id="node5" class="node">
<title>model</title>
<path fill="none" stroke="#268bd2" d="M309.5,-228C309.5,-228 279.5,-228 279.5,-228 273.5,-228 267.5,-222 267.5,-216 267.5,-216 267.5,-204 267.5,-204 267.5,-198 273.5,-192 279.5,-192 279.5,-192 309.5,-192 309.5,-192 315.5,-192 321.5,-198 321.5,-204 321.5,-204 321.5,-216 321.5,-216 321.5,-222 315.5,-228 309.5,-228"/>
<text text-anchor="start" x="276.5" y="-212.4" font-family="Liberation Sans,Helvetica,Arial,sans-serif" font-weight="bold" font-size="12.00" fill="#002b36">model</text>
<text text-anchor="start" x="276" y="-202" font-family="Liberation Sans,Helvetica,Arial,sans-serif" font-size="10.00" fill="#268bd2">1 values</text>
</g>
<!-- model&#45;&gt;eval_model -->
<g id="edge3" class="edge">
<title>model&#45;&gt;eval_model</title>
<path fill="none" stroke="#002b36" d="M280.17,-191.86C270.09,-180.17 256.04,-164.59 242.5,-152 238.41,-148.2 233.97,-144.36 229.5,-140.67"/>
<polygon fill="#002b36" stroke="#002b36" points="231.48,-137.78 221.5,-134.23 227.09,-143.23 231.48,-137.78"/>
<text text-anchor="middle" x="285" y="-166" font-family="Liberation Sans,Helvetica,Arial,sans-serif" font-size="10.00" fill="#002b36">model</text>
<text text-anchor="middle" x="285" y="-155" font-family="Liberation Sans,Helvetica,Arial,sans-serif" font-size="10.00" fill="#002b36">(1 values)</text>
</g>
<!-- X_train -->
<g id="node6" class="node">
<title>X_train</title>
<path fill="none" stroke="#268bd2" d="M216,-420C216,-420 135,-420 135,-420 129,-420 123,-414 123,-408 123,-408 123,-396 123,-396 123,-390 129,-384 135,-384 135,-384 216,-384 216,-384 222,-384 228,-390 228,-396 228,-396 228,-408 228,-408 228,-414 222,-420 216,-420"/>
<text text-anchor="start" x="155" y="-404.4" font-family="Liberation Sans,Helvetica,Arial,sans-serif" font-weight="bold" font-size="12.00" fill="#002b36">X_train</text>
<text text-anchor="start" x="131" y="-394" font-family="Liberation Sans,Helvetica,Arial,sans-serif" font-size="10.00" fill="#268bd2">1 values (1 sources)</text>
</g>
<!-- train_model -->
<g id="node11" class="node">
<title>train_model</title>
<path fill="none" stroke="#dc322f" d="M331,-326C331,-326 264,-326 264,-326 258,-326 252,-320 252,-314 252,-314 252,-298 252,-298 252,-292 258,-286 264,-286 264,-286 331,-286 331,-286 337,-286 343,-292 343,-298 343,-298 343,-314 343,-314 343,-320 337,-326 331,-326"/>
<text text-anchor="start" x="263.5" y="-313.4" font-family="Liberation Sans,Helvetica,Arial,sans-serif" font-weight="bold" font-size="12.00" fill="#002b36">train_model</text>
<text text-anchor="start" x="260" y="-303" font-family="Liberation Sans,Helvetica,Arial,sans-serif" font-size="10.00" fill="#002b36">@op:train_model</text>
<text text-anchor="start" x="283" y="-293" font-family="Liberation Sans,Helvetica,Arial,sans-serif" font-size="10.00" fill="#dc322f">1 calls</text>
</g>
<!-- X_train&#45;&gt;train_model -->
<g id="edge8" class="edge">
<title>X_train&#45;&gt;train_model</title>
<path fill="none" stroke="#002b36" d="M197.59,-383.98C216.26,-369.59 243.28,-348.78 264.51,-332.42"/>
<polygon fill="#002b36" stroke="#002b36" points="266.84,-335.04 272.63,-326.16 262.57,-329.49 266.84,-335.04"/>
<text text-anchor="middle" x="269" y="-358" font-family="Liberation Sans,Helvetica,Arial,sans-serif" font-size="10.00" fill="#002b36">X_train</text>
<text text-anchor="middle" x="269" y="-347" font-family="Liberation Sans,Helvetica,Arial,sans-serif" font-size="10.00" fill="#002b36">(1 values)</text>
</g>
<!-- y_train -->
<g id="node7" class="node">
<title>y_train</title>
<path fill="none" stroke="#268bd2" d="M339,-420C339,-420 258,-420 258,-420 252,-420 246,-414 246,-408 246,-408 246,-396 246,-396 246,-390 252,-384 258,-384 258,-384 339,-384 339,-384 345,-384 351,-390 351,-396 351,-396 351,-408 351,-408 351,-414 345,-420 339,-420"/>
<text text-anchor="start" x="278.5" y="-404.4" font-family="Liberation Sans,Helvetica,Arial,sans-serif" font-weight="bold" font-size="12.00" fill="#002b36">y_train</text>
<text text-anchor="start" x="254" y="-394" font-family="Liberation Sans,Helvetica,Arial,sans-serif" font-size="10.00" fill="#268bd2">1 values (1 sources)</text>
</g>
<!-- y_train&#45;&gt;train_model -->
<g id="edge10" class="edge">
<title>y_train&#45;&gt;train_model</title>
<path fill="none" stroke="#002b36" d="M298.32,-383.76C298.18,-370.5 297.98,-351.86 297.81,-336.27"/>
<polygon fill="#002b36" stroke="#002b36" points="301.31,-336.03 297.7,-326.07 294.31,-336.11 301.31,-336.03"/>
<text text-anchor="middle" x="320" y="-358" font-family="Liberation Sans,Helvetica,Arial,sans-serif" font-size="10.00" fill="#002b36">y_train</text>
<text text-anchor="middle" x="320" y="-347" font-family="Liberation Sans,Helvetica,Arial,sans-serif" font-size="10.00" fill="#002b36">(1 values)</text>
</g>
<!-- n_estimators -->
<g id="node8" class="node">
<title>n_estimators</title>
<path fill="none" stroke="#268bd2" d="M462,-420C462,-420 381,-420 381,-420 375,-420 369,-414 369,-408 369,-408 369,-396 369,-396 369,-390 375,-384 381,-384 381,-384 462,-384 462,-384 468,-384 474,-390 474,-396 474,-396 474,-408 474,-408 474,-414 468,-420 462,-420"/>
<text text-anchor="start" x="384" y="-404.4" font-family="Liberation Sans,Helvetica,Arial,sans-serif" font-weight="bold" font-size="12.00" fill="#002b36">n_estimators</text>
<text text-anchor="start" x="377" y="-394" font-family="Liberation Sans,Helvetica,Arial,sans-serif" font-size="10.00" fill="#268bd2">1 values (1 sources)</text>
</g>
<!-- n_estimators&#45;&gt;train_model -->
<g id="edge9" class="edge">
<title>n_estimators&#45;&gt;train_model</title>
<path fill="none" stroke="#002b36" d="M399.04,-383.98C380.07,-369.59 352.61,-348.78 331.03,-332.42"/>
<polygon fill="#002b36" stroke="#002b36" points="332.86,-329.41 322.78,-326.16 328.63,-334.99 332.86,-329.41"/>
<text text-anchor="middle" x="402" y="-358" font-family="Liberation Sans,Helvetica,Arial,sans-serif" font-size="10.00" fill="#002b36">n_estimators</text>
<text text-anchor="middle" x="402" y="-347" font-family="Liberation Sans,Helvetica,Arial,sans-serif" font-size="10.00" fill="#002b36">(1 values)</text>
</g>
<!-- generate_dataset&#45;&gt;X_test -->
<g id="edge5" class="edge">
<title>generate_dataset&#45;&gt;X_test</title>
<path fill="none" stroke="#002b36" d="M65.99,-285.98C71.46,-272.07 78.96,-253.03 85.02,-237.61"/>
<polygon fill="#002b36" stroke="#002b36" points="88.36,-238.68 88.77,-228.1 81.85,-236.12 88.36,-238.68"/>
<text text-anchor="middle" x="103" y="-260" font-family="Liberation Sans,Helvetica,Arial,sans-serif" font-size="10.00" fill="#002b36">output_1</text>
<text text-anchor="middle" x="103" y="-249" font-family="Liberation Sans,Helvetica,Arial,sans-serif" font-size="10.00" fill="#002b36">(1 values)</text>
</g>
<!-- eval_model&#45;&gt;v -->
<g id="edge1" class="edge">
<title>eval_model&#45;&gt;v</title>
<path fill="none" stroke="#002b36" d="M195.5,-93.98C195.5,-80.34 195.5,-61.75 195.5,-46.5"/>
<polygon fill="#002b36" stroke="#002b36" points="199,-46.1 195.5,-36.1 192,-46.1 199,-46.1"/>
<text text-anchor="middle" x="217" y="-68" font-family="Liberation Sans,Helvetica,Arial,sans-serif" font-size="10.00" fill="#002b36">output_0</text>
<text text-anchor="middle" x="217" y="-57" font-family="Liberation Sans,Helvetica,Arial,sans-serif" font-size="10.00" fill="#002b36">(1 values)</text>
</g>
<!-- train_model&#45;&gt;model -->
<g id="edge7" class="edge">
<title>train_model&#45;&gt;model</title>
<path fill="none" stroke="#002b36" d="M296.89,-285.98C296.46,-272.34 295.86,-253.75 295.38,-238.5"/>
<polygon fill="#002b36" stroke="#002b36" points="298.86,-237.98 295.05,-228.1 291.87,-238.2 298.86,-237.98"/>
<text text-anchor="middle" x="318" y="-260" font-family="Liberation Sans,Helvetica,Arial,sans-serif" font-size="10.00" fill="#002b36">output_0</text>
<text text-anchor="middle" x="318" y="-249" font-family="Liberation Sans,Helvetica,Arial,sans-serif" font-size="10.00" fill="#002b36">(1 values)</text>
</g>
</g>
</svg>
