<?xml version="1.0" encoding="UTF-8" standalone="no"?>
<!DOCTYPE svg PUBLIC "-//W3C//DTD SVG 1.1//EN"
 "http://www.w3.org/Graphics/SVG/1.1/DTD/svg11.dtd">
<!-- Generated by graphviz version 2.50.0 (0)
 -->
<!-- Title: G Pages: 1 -->
<svg width="369pt" height="634pt"
 viewBox="0.00 0.00 368.50 634.00" xmlns="http://www.w3.org/2000/svg" xmlns:xlink="http://www.w3.org/1999/xlink">
<g id="graph0" class="graph" transform="scale(1 1) rotate(0) translate(4 630)">
<title>G</title>
<polygon fill="white" stroke="transparent" points="-4,4 -4,-630 364.5,-630 364.5,4 -4,4"/>
<!-- X_test -->
<g id="node1" class="node">
<title>X_test</title>
<path fill="none" stroke="#268bd2" stroke-width="1.5" d="M57,-380C57,-380 27,-380 27,-380 21,-380 15,-374 15,-368 15,-368 15,-356 15,-356 15,-350 21,-344 27,-344 27,-344 57,-344 57,-344 63,-344 69,-350 69,-356 69,-356 69,-368 69,-368 69,-374 63,-380 57,-380"/>
<text text-anchor="start" x="23.5" y="-364.4" font-family="Liberation Sans,Helvetica,Arial,sans-serif" font-weight="bold" font-size="12.00" fill="#002b36">X_test</text>
<text text-anchor="start" x="23.5" y="-354" font-family="Liberation Sans,Helvetica,Arial,sans-serif" font-size="10.00" fill="#268bd2">1 values</text>
</g>
<!-- eval_model -->
<g id="node10" class="node">
<title>eval_model</title>
<path fill="none" stroke="#dc322f" stroke-width="1.5" d="M179,-134C179,-134 113,-134 113,-134 107,-134 101,-128 101,-122 101,-122 101,-106 101,-106 101,-100 107,-94 113,-94 113,-94 179,-94 179,-94 185,-94 191,-100 191,-106 191,-106 191,-122 191,-122 191,-128 185,-134 179,-134"/>
<text text-anchor="start" x="113" y="-121.4" font-family="Liberation Sans,Helvetica,Arial,sans-serif" font-weight="bold" font-size="12.00" fill="#002b36">eval_model</text>
<text text-anchor="start" x="109" y="-111" font-family="Liberation Sans,Helvetica,Arial,sans-serif" font-size="10.00" fill="#002b36">@op:eval_model</text>
<text text-anchor="start" x="131.5" y="-101" font-family="Liberation Sans,Helvetica,Arial,sans-serif" font-size="10.00" fill="#dc322f">1 calls</text>
</g>
<!-- X_test&#45;&gt;eval_model -->
<g id="edge2" class="edge">
<title>X_test&#45;&gt;eval_model</title>
<path fill="none" stroke="#002b36" d="M48.64,-343.6C60.47,-312.81 86.18,-246.82 110,-192 117.02,-175.84 125.33,-157.99 132.19,-143.56"/>
<polygon fill="#002b36" stroke="#002b36" points="135.53,-144.7 136.68,-134.17 129.21,-141.68 135.53,-144.7"/>
<text text-anchor="middle" x="109.5" y="-260" font-family="Liberation Sans,Helvetica,Arial,sans-serif" font-size="10.00" fill="#002b36">X_test</text>
<text text-anchor="middle" x="109.5" y="-249" font-family="Liberation Sans,Helvetica,Arial,sans-serif" font-size="10.00" fill="#002b36">(1 values)</text>
</g>
<!-- v -->
<g id="node2" class="node">
<title>v</title>
<path fill="none" stroke="#268bd2" stroke-width="1.5" d="M181,-36C181,-36 111,-36 111,-36 105,-36 99,-30 99,-24 99,-24 99,-12 99,-12 99,-6 105,0 111,0 111,0 181,0 181,0 187,0 193,-6 193,-12 193,-12 193,-24 193,-24 193,-30 187,-36 181,-36"/>
<text text-anchor="start" x="142.5" y="-20.4" font-family="Liberation Sans,Helvetica,Arial,sans-serif" font-weight="bold" font-size="12.00" fill="#002b36">v</text>
<text text-anchor="start" x="107" y="-10" font-family="Liberation Sans,Helvetica,Arial,sans-serif" font-size="10.00" fill="#268bd2">1 values (1 sinks)</text>
</g>
<!-- y_train -->
<g id="node3" class="node">
<title>y_train</title>
<path fill="none" stroke="#268bd2" stroke-width="1.5" d="M348.5,-434C348.5,-434 267.5,-434 267.5,-434 261.5,-434 255.5,-428 255.5,-422 255.5,-422 255.5,-410 255.5,-410 255.5,-404 261.5,-398 267.5,-398 267.5,-398 348.5,-398 348.5,-398 354.5,-398 360.5,-404 360.5,-410 360.5,-410 360.5,-422 360.5,-422 360.5,-428 354.5,-434 348.5,-434"/>
<text text-anchor="start" x="288" y="-418.4" font-family="Liberation Sans,Helvetica,Arial,sans-serif" font-weight="bold" font-size="12.00" fill="#002b36">y_train</text>
<text text-anchor="start" x="263.5" y="-408" font-family="Liberation Sans,Helvetica,Arial,sans-serif" font-size="10.00" fill="#268bd2">1 values (1 sources)</text>
</g>
<!-- train_model -->
<g id="node11" class="node">
<title>train_model</title>
<path fill="none" stroke="#dc322f" stroke-width="1.5" d="M207.5,-326C207.5,-326 140.5,-326 140.5,-326 134.5,-326 128.5,-320 128.5,-314 128.5,-314 128.5,-298 128.5,-298 128.5,-292 134.5,-286 140.5,-286 140.5,-286 207.5,-286 207.5,-286 213.5,-286 219.5,-292 219.5,-298 219.5,-298 219.5,-314 219.5,-314 219.5,-320 213.5,-326 207.5,-326"/>
<text text-anchor="start" x="140" y="-313.4" font-family="Liberation Sans,Helvetica,Arial,sans-serif" font-weight="bold" font-size="12.00" fill="#002b36">train_model</text>
<text text-anchor="start" x="136.5" y="-303" font-family="Liberation Sans,Helvetica,Arial,sans-serif" font-size="10.00" fill="#002b36">@op:train_model</text>
<text text-anchor="start" x="159.5" y="-293" font-family="Liberation Sans,Helvetica,Arial,sans-serif" font-size="10.00" fill="#dc322f">1 calls</text>
</g>
<!-- y_train&#45;&gt;train_model -->
<g id="edge11" class="edge">
<title>y_train&#45;&gt;train_model</title>
<path fill="none" stroke="#002b36" d="M294.67,-397.74C282.2,-382.36 262.47,-359.89 242,-344 236.16,-339.47 229.69,-335.17 223.13,-331.23"/>
<polygon fill="#002b36" stroke="#002b36" points="224.6,-328.03 214.19,-326.07 221.1,-334.1 224.6,-328.03"/>
<text text-anchor="middle" x="299.5" y="-365" font-family="Liberation Sans,Helvetica,Arial,sans-serif" font-size="10.00" fill="#002b36">y_train</text>
<text text-anchor="middle" x="299.5" y="-354" font-family="Liberation Sans,Helvetica,Arial,sans-serif" font-size="10.00" fill="#002b36">(1 values)</text>
</g>
<!-- random_seed -->
<g id="node4" class="node">
<title>random_seed</title>
<path fill="none" stroke="#268bd2" stroke-width="1.5" d="M98.5,-626C98.5,-626 17.5,-626 17.5,-626 11.5,-626 5.5,-620 5.5,-614 5.5,-614 5.5,-602 5.5,-602 5.5,-596 11.5,-590 17.5,-590 17.5,-590 98.5,-590 98.5,-590 104.5,-590 110.5,-596 110.5,-602 110.5,-602 110.5,-614 110.5,-614 110.5,-620 104.5,-626 98.5,-626"/>
<text text-anchor="start" x="18.5" y="-610.4" font-family="Liberation Sans,Helvetica,Arial,sans-serif" font-weight="bold" font-size="12.00" fill="#002b36">random_seed</text>
<text text-anchor="start" x="13.5" y="-600" font-family="Liberation Sans,Helvetica,Arial,sans-serif" font-size="10.00" fill="#268bd2">1 values (1 sources)</text>
</g>
<!-- generate_dataset -->
<g id="node9" class="node">
<title>generate_dataset</title>
<path fill="none" stroke="#dc322f" stroke-width="1.5" d="M104,-532C104,-532 12,-532 12,-532 6,-532 0,-526 0,-520 0,-520 0,-504 0,-504 0,-498 6,-492 12,-492 12,-492 104,-492 104,-492 110,-492 116,-498 116,-504 116,-504 116,-520 116,-520 116,-526 110,-532 104,-532"/>
<text text-anchor="start" x="8" y="-519.4" font-family="Liberation Sans,Helvetica,Arial,sans-serif" font-weight="bold" font-size="12.00" fill="#002b36">generate_dataset</text>
<text text-anchor="start" x="8" y="-509" font-family="Liberation Sans,Helvetica,Arial,sans-serif" font-size="10.00" fill="#002b36">@op:generate_dataset</text>
<text text-anchor="start" x="43.5" y="-499" font-family="Liberation Sans,Helvetica,Arial,sans-serif" font-size="10.00" fill="#dc322f">1 calls</text>
</g>
<!-- random_seed&#45;&gt;generate_dataset -->
<g id="edge7" class="edge">
<title>random_seed&#45;&gt;generate_dataset</title>
<path fill="none" stroke="#002b36" d="M58,-589.76C58,-576.5 58,-557.86 58,-542.27"/>
<polygon fill="#002b36" stroke="#002b36" points="61.5,-542.07 58,-532.07 54.5,-542.07 61.5,-542.07"/>
<text text-anchor="middle" x="87.5" y="-564" font-family="Liberation Sans,Helvetica,Arial,sans-serif" font-size="10.00" fill="#002b36">random_seed</text>
<text text-anchor="middle" x="87.5" y="-553" font-family="Liberation Sans,Helvetica,Arial,sans-serif" font-size="10.00" fill="#002b36">(1 values)</text>
</g>
<!-- X_train -->
<g id="node5" class="node">
<title>X_train</title>
<path fill="none" stroke="#268bd2" stroke-width="1.5" d="M102.5,-434C102.5,-434 69.5,-434 69.5,-434 63.5,-434 57.5,-428 57.5,-422 57.5,-422 57.5,-410 57.5,-410 57.5,-404 63.5,-398 69.5,-398 69.5,-398 102.5,-398 102.5,-398 108.5,-398 114.5,-404 114.5,-410 114.5,-410 114.5,-422 114.5,-422 114.5,-428 108.5,-434 102.5,-434"/>
<text text-anchor="start" x="65.5" y="-418.4" font-family="Liberation Sans,Helvetica,Arial,sans-serif" font-weight="bold" font-size="12.00" fill="#002b36">X_train</text>
<text text-anchor="start" x="67.5" y="-408" font-family="Liberation Sans,Helvetica,Arial,sans-serif" font-size="10.00" fill="#268bd2">1 values</text>
</g>
<!-- X_train&#45;&gt;train_model -->
<g id="edge9" class="edge">
<title>X_train&#45;&gt;train_model</title>
<path fill="none" stroke="#002b36" d="M94.59,-397.92C102.6,-382.86 115.48,-360.78 130,-344 133.34,-340.14 137.11,-336.34 140.99,-332.73"/>
<polygon fill="#002b36" stroke="#002b36" points="143.35,-335.32 148.53,-326.08 138.72,-330.07 143.35,-335.32"/>
<text text-anchor="middle" x="151.5" y="-365" font-family="Liberation Sans,Helvetica,Arial,sans-serif" font-size="10.00" fill="#002b36">X_train</text>
<text text-anchor="middle" x="151.5" y="-354" font-family="Liberation Sans,Helvetica,Arial,sans-serif" font-size="10.00" fill="#002b36">(1 values)</text>
</g>
<!-- n_estimators -->
<g id="node6" class="node">
<title>n_estimators</title>
<path fill="none" stroke="#268bd2" stroke-width="1.5" d="M225.5,-434C225.5,-434 144.5,-434 144.5,-434 138.5,-434 132.5,-428 132.5,-422 132.5,-422 132.5,-410 132.5,-410 132.5,-404 138.5,-398 144.5,-398 144.5,-398 225.5,-398 225.5,-398 231.5,-398 237.5,-404 237.5,-410 237.5,-410 237.5,-422 237.5,-422 237.5,-428 231.5,-434 225.5,-434"/>
<text text-anchor="start" x="147.5" y="-418.4" font-family="Liberation Sans,Helvetica,Arial,sans-serif" font-weight="bold" font-size="12.00" fill="#002b36">n_estimators</text>
<text text-anchor="start" x="140.5" y="-408" font-family="Liberation Sans,Helvetica,Arial,sans-serif" font-size="10.00" fill="#268bd2">1 values (1 sources)</text>
</g>
<!-- n_estimators&#45;&gt;train_model -->
<g id="edge10" class="edge">
<title>n_estimators&#45;&gt;train_model</title>
<path fill="none" stroke="#002b36" d="M183.23,-397.65C181.54,-381.07 178.97,-355.77 176.96,-336.1"/>
<polygon fill="#002b36" stroke="#002b36" points="180.44,-335.72 175.95,-326.13 173.48,-336.43 180.44,-335.72"/>
<text text-anchor="middle" x="209.5" y="-365" font-family="Liberation Sans,Helvetica,Arial,sans-serif" font-size="10.00" fill="#002b36">n_estimators</text>
<text text-anchor="middle" x="209.5" y="-354" font-family="Liberation Sans,Helvetica,Arial,sans-serif" font-size="10.00" fill="#002b36">(1 values)</text>
</g>
<!-- model -->
<g id="node7" class="node">
<title>model</title>
<path fill="none" stroke="#268bd2" stroke-width="1.5" d="M161,-228C161,-228 131,-228 131,-228 125,-228 119,-222 119,-216 119,-216 119,-204 119,-204 119,-198 125,-192 131,-192 131,-192 161,-192 161,-192 167,-192 173,-198 173,-204 173,-204 173,-216 173,-216 173,-222 167,-228 161,-228"/>
<text text-anchor="start" x="128" y="-212.4" font-family="Liberation Sans,Helvetica,Arial,sans-serif" font-weight="bold" font-size="12.00" fill="#002b36">model</text>
<text text-anchor="start" x="127.5" y="-202" font-family="Liberation Sans,Helvetica,Arial,sans-serif" font-size="10.00" fill="#268bd2">1 values</text>
</g>
<!-- model&#45;&gt;eval_model -->
<g id="edge3" class="edge">
<title>model&#45;&gt;eval_model</title>
<path fill="none" stroke="#002b36" d="M146,-191.76C146,-178.5 146,-159.86 146,-144.27"/>
<polygon fill="#002b36" stroke="#002b36" points="149.5,-144.07 146,-134.07 142.5,-144.07 149.5,-144.07"/>
<text text-anchor="middle" x="167.5" y="-166" font-family="Liberation Sans,Helvetica,Arial,sans-serif" font-size="10.00" fill="#002b36">model</text>
<text text-anchor="middle" x="167.5" y="-155" font-family="Liberation Sans,Helvetica,Arial,sans-serif" font-size="10.00" fill="#002b36">(1 values)</text>
</g>
<!-- y_test -->
<g id="node8" class="node">
<title>y_test</title>
<path fill="none" stroke="#268bd2" stroke-width="1.5" d="M284.5,-228C284.5,-228 203.5,-228 203.5,-228 197.5,-228 191.5,-222 191.5,-216 191.5,-216 191.5,-204 191.5,-204 191.5,-198 197.5,-192 203.5,-192 203.5,-192 284.5,-192 284.5,-192 290.5,-192 296.5,-198 296.5,-204 296.5,-204 296.5,-216 296.5,-216 296.5,-222 290.5,-228 284.5,-228"/>
<text text-anchor="start" x="226.5" y="-212.4" font-family="Liberation Sans,Helvetica,Arial,sans-serif" font-weight="bold" font-size="12.00" fill="#002b36">y_test</text>
<text text-anchor="start" x="199.5" y="-202" font-family="Liberation Sans,Helvetica,Arial,sans-serif" font-size="10.00" fill="#268bd2">1 values (1 sources)</text>
</g>
<!-- y_test&#45;&gt;eval_model -->
<g id="edge4" class="edge">
<title>y_test&#45;&gt;eval_model</title>
<path fill="none" stroke="#002b36" d="M230,-191.83C220.14,-180.13 206.36,-164.54 193,-152 188.93,-148.18 184.5,-144.33 180.03,-140.64"/>
<polygon fill="#002b36" stroke="#002b36" points="182.02,-137.74 172.04,-134.19 177.63,-143.19 182.02,-137.74"/>
<text text-anchor="middle" x="234.5" y="-166" font-family="Liberation Sans,Helvetica,Arial,sans-serif" font-size="10.00" fill="#002b36">y_test</text>
<text text-anchor="middle" x="234.5" y="-155" font-family="Liberation Sans,Helvetica,Arial,sans-serif" font-size="10.00" fill="#002b36">(1 values)</text>
</g>
<!-- generate_dataset&#45;&gt;X_test -->
<g id="edge5" class="edge">
<title>generate_dataset&#45;&gt;X_test</title>
<path fill="none" stroke="#002b36" d="M34.83,-491.9C30.01,-486.65 25.62,-480.57 23,-474 12.04,-446.47 20.72,-412.63 29.62,-389.6"/>
<polygon fill="#002b36" stroke="#002b36" points="32.95,-390.72 33.53,-380.14 26.48,-388.05 32.95,-390.72"/>
<text text-anchor="middle" x="44.5" y="-466" font-family="Liberation Sans,Helvetica,Arial,sans-serif" font-size="10.00" fill="#002b36">output_1</text>
<text text-anchor="middle" x="44.5" y="-455" font-family="Liberation Sans,Helvetica,Arial,sans-serif" font-size="10.00" fill="#002b36">(1 values)</text>
</g>
<!-- generate_dataset&#45;&gt;X_train -->
<g id="edge6" class="edge">
<title>generate_dataset&#45;&gt;X_train</title>
<path fill="none" stroke="#002b36" d="M63.67,-491.98C67.77,-478.2 73.37,-459.39 77.94,-444.05"/>
<polygon fill="#002b36" stroke="#002b36" points="81.41,-444.68 80.91,-434.1 74.7,-442.68 81.41,-444.68"/>
<text text-anchor="middle" x="97.5" y="-466" font-family="Liberation Sans,Helvetica,Arial,sans-serif" font-size="10.00" fill="#002b36">output_0</text>
<text text-anchor="middle" x="97.5" y="-455" font-family="Liberation Sans,Helvetica,Arial,sans-serif" font-size="10.00" fill="#002b36">(1 values)</text>
</g>
<!-- eval_model&#45;&gt;v -->
<g id="edge1" class="edge">
<title>eval_model&#45;&gt;v</title>
<path fill="none" stroke="#002b36" d="M146,-93.98C146,-80.34 146,-61.75 146,-46.5"/>
<polygon fill="#002b36" stroke="#002b36" points="149.5,-46.1 146,-36.1 142.5,-46.1 149.5,-46.1"/>
<text text-anchor="middle" x="167.5" y="-68" font-family="Liberation Sans,Helvetica,Arial,sans-serif" font-size="10.00" fill="#002b36">output_0</text>
<text text-anchor="middle" x="167.5" y="-57" font-family="Liberation Sans,Helvetica,Arial,sans-serif" font-size="10.00" fill="#002b36">(1 values)</text>
</g>
<!-- train_model&#45;&gt;model -->
<g id="edge8" class="edge">
<title>train_model&#45;&gt;model</title>
<path fill="none" stroke="#002b36" d="M168.33,-285.98C164.23,-272.2 158.63,-253.39 154.06,-238.05"/>
<polygon fill="#002b36" stroke="#002b36" points="157.3,-236.68 151.09,-228.1 150.59,-238.68 157.3,-236.68"/>
<text text-anchor="middle" x="183.5" y="-260" font-family="Liberation Sans,Helvetica,Arial,sans-serif" font-size="10.00" fill="#002b36">output_0</text>
<text text-anchor="middle" x="183.5" y="-249" font-family="Liberation Sans,Helvetica,Arial,sans-serif" font-size="10.00" fill="#002b36">(1 values)</text>
</g>
</g>
</svg>
