<?xml version="1.0" encoding="UTF-8" standalone="no"?>
<!DOCTYPE svg PUBLIC "-//W3C//DTD SVG 1.1//EN"
 "http://www.w3.org/Graphics/SVG/1.1/DTD/svg11.dtd">
<!-- Generated by graphviz version 2.50.0 (0)
 -->
<!-- Title: G Pages: 1 -->
<svg width="482pt" height="428pt"
 viewBox="0.00 0.00 482.00 428.00" xmlns="http://www.w3.org/2000/svg" xmlns:xlink="http://www.w3.org/1999/xlink">
<g id="graph0" class="graph" transform="scale(1 1) rotate(0) translate(4 424)">
<title>G</title>
<polygon fill="white" stroke="transparent" points="-4,4 -4,-424 478,-424 478,4 -4,4"/>
<!-- v -->
<g id="node1" class="node">
<title>v</title>
<path fill="none" stroke="#268bd2" stroke-width="1.5" d="M294.5,-36C294.5,-36 224.5,-36 224.5,-36 218.5,-36 212.5,-30 212.5,-24 212.5,-24 212.5,-12 212.5,-12 212.5,-6 218.5,0 224.5,0 224.5,0 294.5,0 294.5,0 300.5,0 306.5,-6 306.5,-12 306.5,-12 306.5,-24 306.5,-24 306.5,-30 300.5,-36 294.5,-36"/>
<text text-anchor="start" x="256" y="-20.4" font-family="Liberation Sans,Helvetica,Arial,sans-serif" font-weight="bold" font-size="12.00" fill="#002b36">v</text>
<text text-anchor="start" x="220.5" y="-10" font-family="Liberation Sans,Helvetica,Arial,sans-serif" font-size="10.00" fill="#268bd2">1 values (1 sinks)</text>
</g>
<!-- y_test -->
<g id="node2" class="node">
<title>y_test</title>
<path fill="none" stroke="#268bd2" stroke-width="1.5" d="M202,-228C202,-228 121,-228 121,-228 115,-228 109,-222 109,-216 109,-216 109,-204 109,-204 109,-198 115,-192 121,-192 121,-192 202,-192 202,-192 208,-192 214,-198 214,-204 214,-204 214,-216 214,-216 214,-222 208,-228 202,-228"/>
<text text-anchor="start" x="144" y="-212.4" font-family="Liberation Sans,Helvetica,Arial,sans-serif" font-weight="bold" font-size="12.00" fill="#002b36">y_test</text>
<text text-anchor="start" x="117" y="-202" font-family="Liberation Sans,Helvetica,Arial,sans-serif" font-size="10.00" fill="#268bd2">1 values (1 sources)</text>
</g>
<!-- eval_model -->
<g id="node10" class="node">
<title>eval_model</title>
<path fill="none" stroke="#dc322f" stroke-width="1.5" d="M292.5,-134C292.5,-134 226.5,-134 226.5,-134 220.5,-134 214.5,-128 214.5,-122 214.5,-122 214.5,-106 214.5,-106 214.5,-100 220.5,-94 226.5,-94 226.5,-94 292.5,-94 292.5,-94 298.5,-94 304.5,-100 304.5,-106 304.5,-106 304.5,-122 304.5,-122 304.5,-128 298.5,-134 292.5,-134"/>
<text text-anchor="start" x="226.5" y="-121.4" font-family="Liberation Sans,Helvetica,Arial,sans-serif" font-weight="bold" font-size="12.00" fill="#002b36">eval_model</text>
<text text-anchor="start" x="222.5" y="-111" font-family="Liberation Sans,Helvetica,Arial,sans-serif" font-size="10.00" fill="#002b36">@op:eval_model</text>
<text text-anchor="start" x="245" y="-101" font-family="Liberation Sans,Helvetica,Arial,sans-serif" font-size="10.00" fill="#dc322f">1 calls</text>
</g>
<!-- y_test&#45;&gt;eval_model -->
<g id="edge4" class="edge">
<title>y_test&#45;&gt;eval_model</title>
<path fill="none" stroke="#002b36" d="M175.5,-191.83C185.36,-180.13 199.14,-164.54 212.5,-152 216.57,-148.18 221,-144.33 225.47,-140.64"/>
<polygon fill="#002b36" stroke="#002b36" points="227.87,-143.19 233.46,-134.19 223.48,-137.74 227.87,-143.19"/>
<text text-anchor="middle" x="234" y="-166" font-family="Liberation Sans,Helvetica,Arial,sans-serif" font-size="10.00" fill="#002b36">y_test</text>
<text text-anchor="middle" x="234" y="-155" font-family="Liberation Sans,Helvetica,Arial,sans-serif" font-size="10.00" fill="#002b36">(1 values)</text>
</g>
<!-- n_estimators -->
<g id="node3" class="node">
<title>n_estimators</title>
<path fill="none" stroke="#268bd2" stroke-width="1.5" d="M93,-420C93,-420 12,-420 12,-420 6,-420 0,-414 0,-408 0,-408 0,-396 0,-396 0,-390 6,-384 12,-384 12,-384 93,-384 93,-384 99,-384 105,-390 105,-396 105,-396 105,-408 105,-408 105,-414 99,-420 93,-420"/>
<text text-anchor="start" x="15" y="-404.4" font-family="Liberation Sans,Helvetica,Arial,sans-serif" font-weight="bold" font-size="12.00" fill="#002b36">n_estimators</text>
<text text-anchor="start" x="8" y="-394" font-family="Liberation Sans,Helvetica,Arial,sans-serif" font-size="10.00" fill="#268bd2">1 values (1 sources)</text>
</g>
<!-- train_model -->
<g id="node9" class="node">
<title>train_model</title>
<path fill="none" stroke="#dc322f" stroke-width="1.5" d="M270,-326C270,-326 203,-326 203,-326 197,-326 191,-320 191,-314 191,-314 191,-298 191,-298 191,-292 197,-286 203,-286 203,-286 270,-286 270,-286 276,-286 282,-292 282,-298 282,-298 282,-314 282,-314 282,-320 276,-326 270,-326"/>
<text text-anchor="start" x="202.5" y="-313.4" font-family="Liberation Sans,Helvetica,Arial,sans-serif" font-weight="bold" font-size="12.00" fill="#002b36">train_model</text>
<text text-anchor="start" x="199" y="-303" font-family="Liberation Sans,Helvetica,Arial,sans-serif" font-size="10.00" fill="#002b36">@op:train_model</text>
<text text-anchor="start" x="222" y="-293" font-family="Liberation Sans,Helvetica,Arial,sans-serif" font-size="10.00" fill="#dc322f">1 calls</text>
</g>
<!-- n_estimators&#45;&gt;train_model -->
<g id="edge9" class="edge">
<title>n_estimators&#45;&gt;train_model</title>
<path fill="none" stroke="#002b36" d="M75.36,-383.79C92.21,-371.63 116.02,-355.51 138.5,-344 151.92,-337.13 166.92,-330.83 181.07,-325.45"/>
<polygon fill="#002b36" stroke="#002b36" points="182.54,-328.64 190.7,-321.88 180.11,-322.08 182.54,-328.64"/>
<text text-anchor="middle" x="167" y="-358" font-family="Liberation Sans,Helvetica,Arial,sans-serif" font-size="10.00" fill="#002b36">n_estimators</text>
<text text-anchor="middle" x="167" y="-347" font-family="Liberation Sans,Helvetica,Arial,sans-serif" font-size="10.00" fill="#002b36">(1 values)</text>
</g>
<!-- X_train -->
<g id="node4" class="node">
<title>X_train</title>
<path fill="none" stroke="#268bd2" stroke-width="1.5" d="M216,-420C216,-420 135,-420 135,-420 129,-420 123,-414 123,-408 123,-408 123,-396 123,-396 123,-390 129,-384 135,-384 135,-384 216,-384 216,-384 222,-384 228,-390 228,-396 228,-396 228,-408 228,-408 228,-414 222,-420 216,-420"/>
<text text-anchor="start" x="155" y="-404.4" font-family="Liberation Sans,Helvetica,Arial,sans-serif" font-weight="bold" font-size="12.00" fill="#002b36">X_train</text>
<text text-anchor="start" x="131" y="-394" font-family="Liberation Sans,Helvetica,Arial,sans-serif" font-size="10.00" fill="#268bd2">1 values (1 sources)</text>
</g>
<!-- X_train&#45;&gt;train_model -->
<g id="edge8" class="edge">
<title>X_train&#45;&gt;train_model</title>
<path fill="none" stroke="#002b36" d="M186.69,-383.76C195.63,-369.99 208.32,-350.42 218.66,-334.49"/>
<polygon fill="#002b36" stroke="#002b36" points="221.62,-336.37 224.12,-326.07 215.74,-332.56 221.62,-336.37"/>
<text text-anchor="middle" x="233" y="-358" font-family="Liberation Sans,Helvetica,Arial,sans-serif" font-size="10.00" fill="#002b36">X_train</text>
<text text-anchor="middle" x="233" y="-347" font-family="Liberation Sans,Helvetica,Arial,sans-serif" font-size="10.00" fill="#002b36">(1 values)</text>
</g>
<!-- random_seed -->
<g id="node5" class="node">
<title>random_seed</title>
<path fill="none" stroke="#268bd2" stroke-width="1.5" d="M462,-420C462,-420 381,-420 381,-420 375,-420 369,-414 369,-408 369,-408 369,-396 369,-396 369,-390 375,-384 381,-384 381,-384 462,-384 462,-384 468,-384 474,-390 474,-396 474,-396 474,-408 474,-408 474,-414 468,-420 462,-420"/>
<text text-anchor="start" x="382" y="-404.4" font-family="Liberation Sans,Helvetica,Arial,sans-serif" font-weight="bold" font-size="12.00" fill="#002b36">random_seed</text>
<text text-anchor="start" x="377" y="-394" font-family="Liberation Sans,Helvetica,Arial,sans-serif" font-size="10.00" fill="#268bd2">1 values (1 sources)</text>
</g>
<!-- generate_dataset -->
<g id="node11" class="node">
<title>generate_dataset</title>
<path fill="none" stroke="#dc322f" stroke-width="1.5" d="M435.5,-326C435.5,-326 343.5,-326 343.5,-326 337.5,-326 331.5,-320 331.5,-314 331.5,-314 331.5,-298 331.5,-298 331.5,-292 337.5,-286 343.5,-286 343.5,-286 435.5,-286 435.5,-286 441.5,-286 447.5,-292 447.5,-298 447.5,-298 447.5,-314 447.5,-314 447.5,-320 441.5,-326 435.5,-326"/>
<text text-anchor="start" x="339.5" y="-313.4" font-family="Liberation Sans,Helvetica,Arial,sans-serif" font-weight="bold" font-size="12.00" fill="#002b36">generate_dataset</text>
<text text-anchor="start" x="339.5" y="-303" font-family="Liberation Sans,Helvetica,Arial,sans-serif" font-size="10.00" fill="#002b36">@op:generate_dataset</text>
<text text-anchor="start" x="375" y="-293" font-family="Liberation Sans,Helvetica,Arial,sans-serif" font-size="10.00" fill="#dc322f">1 calls</text>
</g>
<!-- random_seed&#45;&gt;generate_dataset -->
<g id="edge6" class="edge">
<title>random_seed&#45;&gt;generate_dataset</title>
<path fill="none" stroke="#002b36" d="M415.63,-383.76C411.07,-370.37 404.65,-351.5 399.31,-335.82"/>
<polygon fill="#002b36" stroke="#002b36" points="402.53,-334.41 395.99,-326.07 395.9,-336.67 402.53,-334.41"/>
<text text-anchor="middle" x="438" y="-358" font-family="Liberation Sans,Helvetica,Arial,sans-serif" font-size="10.00" fill="#002b36">random_seed</text>
<text text-anchor="middle" x="438" y="-347" font-family="Liberation Sans,Helvetica,Arial,sans-serif" font-size="10.00" fill="#002b36">(1 values)</text>
</g>
<!-- y_train -->
<g id="node6" class="node">
<title>y_train</title>
<path fill="none" stroke="#268bd2" stroke-width="1.5" d="M339,-420C339,-420 258,-420 258,-420 252,-420 246,-414 246,-408 246,-408 246,-396 246,-396 246,-390 252,-384 258,-384 258,-384 339,-384 339,-384 345,-384 351,-390 351,-396 351,-396 351,-408 351,-408 351,-414 345,-420 339,-420"/>
<text text-anchor="start" x="278.5" y="-404.4" font-family="Liberation Sans,Helvetica,Arial,sans-serif" font-weight="bold" font-size="12.00" fill="#002b36">y_train</text>
<text text-anchor="start" x="254" y="-394" font-family="Liberation Sans,Helvetica,Arial,sans-serif" font-size="10.00" fill="#268bd2">1 values (1 sources)</text>
</g>
<!-- y_train&#45;&gt;train_model -->
<g id="edge10" class="edge">
<title>y_train&#45;&gt;train_model</title>
<path fill="none" stroke="#002b36" d="M287.13,-383.76C278.04,-369.99 265.14,-350.42 254.63,-334.49"/>
<polygon fill="#002b36" stroke="#002b36" points="257.51,-332.49 249.08,-326.07 251.66,-336.35 257.51,-332.49"/>
<text text-anchor="middle" x="297" y="-358" font-family="Liberation Sans,Helvetica,Arial,sans-serif" font-size="10.00" fill="#002b36">y_train</text>
<text text-anchor="middle" x="297" y="-347" font-family="Liberation Sans,Helvetica,Arial,sans-serif" font-size="10.00" fill="#002b36">(1 values)</text>
</g>
<!-- model -->
<g id="node7" class="node">
<title>model</title>
<path fill="none" stroke="#268bd2" stroke-width="1.5" d="M274.5,-228C274.5,-228 244.5,-228 244.5,-228 238.5,-228 232.5,-222 232.5,-216 232.5,-216 232.5,-204 232.5,-204 232.5,-198 238.5,-192 244.5,-192 244.5,-192 274.5,-192 274.5,-192 280.5,-192 286.5,-198 286.5,-204 286.5,-204 286.5,-216 286.5,-216 286.5,-222 280.5,-228 274.5,-228"/>
<text text-anchor="start" x="241.5" y="-212.4" font-family="Liberation Sans,Helvetica,Arial,sans-serif" font-weight="bold" font-size="12.00" fill="#002b36">model</text>
<text text-anchor="start" x="241" y="-202" font-family="Liberation Sans,Helvetica,Arial,sans-serif" font-size="10.00" fill="#268bd2">1 values</text>
</g>
<!-- model&#45;&gt;eval_model -->
<g id="edge3" class="edge">
<title>model&#45;&gt;eval_model</title>
<path fill="none" stroke="#002b36" d="M259.5,-191.76C259.5,-178.5 259.5,-159.86 259.5,-144.27"/>
<polygon fill="#002b36" stroke="#002b36" points="263,-144.07 259.5,-134.07 256,-144.07 263,-144.07"/>
<text text-anchor="middle" x="281" y="-166" font-family="Liberation Sans,Helvetica,Arial,sans-serif" font-size="10.00" fill="#002b36">model</text>
<text text-anchor="middle" x="281" y="-155" font-family="Liberation Sans,Helvetica,Arial,sans-serif" font-size="10.00" fill="#002b36">(1 values)</text>
</g>
<!-- X_test -->
<g id="node8" class="node">
<title>X_test</title>
<path fill="none" stroke="#268bd2" stroke-width="1.5" d="M371.5,-228C371.5,-228 341.5,-228 341.5,-228 335.5,-228 329.5,-222 329.5,-216 329.5,-216 329.5,-204 329.5,-204 329.5,-198 335.5,-192 341.5,-192 341.5,-192 371.5,-192 371.5,-192 377.5,-192 383.5,-198 383.5,-204 383.5,-204 383.5,-216 383.5,-216 383.5,-222 377.5,-228 371.5,-228"/>
<text text-anchor="start" x="338" y="-212.4" font-family="Liberation Sans,Helvetica,Arial,sans-serif" font-weight="bold" font-size="12.00" fill="#002b36">X_test</text>
<text text-anchor="start" x="338" y="-202" font-family="Liberation Sans,Helvetica,Arial,sans-serif" font-size="10.00" fill="#268bd2">1 values</text>
</g>
<!-- X_test&#45;&gt;eval_model -->
<g id="edge2" class="edge">
<title>X_test&#45;&gt;eval_model</title>
<path fill="none" stroke="#002b36" d="M342.83,-191.8C333.18,-180.09 319.68,-164.5 306.5,-152 302.45,-148.16 298.03,-144.3 293.57,-140.6"/>
<polygon fill="#002b36" stroke="#002b36" points="295.56,-137.71 285.58,-134.15 291.16,-143.15 295.56,-137.71"/>
<text text-anchor="middle" x="349" y="-166" font-family="Liberation Sans,Helvetica,Arial,sans-serif" font-size="10.00" fill="#002b36">X_test</text>
<text text-anchor="middle" x="349" y="-155" font-family="Liberation Sans,Helvetica,Arial,sans-serif" font-size="10.00" fill="#002b36">(1 values)</text>
</g>
<!-- train_model&#45;&gt;model -->
<g id="edge7" class="edge">
<title>train_model&#45;&gt;model</title>
<path fill="none" stroke="#002b36" d="M241.15,-285.98C244.52,-272.2 249.13,-253.39 252.88,-238.05"/>
<polygon fill="#002b36" stroke="#002b36" points="256.34,-238.64 255.32,-228.1 249.54,-236.98 256.34,-238.64"/>
<text text-anchor="middle" x="273" y="-260" font-family="Liberation Sans,Helvetica,Arial,sans-serif" font-size="10.00" fill="#002b36">output_0</text>
<text text-anchor="middle" x="273" y="-249" font-family="Liberation Sans,Helvetica,Arial,sans-serif" font-size="10.00" fill="#002b36">(1 values)</text>
</g>
<!-- eval_model&#45;&gt;v -->
<g id="edge1" class="edge">
<title>eval_model&#45;&gt;v</title>
<path fill="none" stroke="#002b36" d="M259.5,-93.98C259.5,-80.34 259.5,-61.75 259.5,-46.5"/>
<polygon fill="#002b36" stroke="#002b36" points="263,-46.1 259.5,-36.1 256,-46.1 263,-46.1"/>
<text text-anchor="middle" x="281" y="-68" font-family="Liberation Sans,Helvetica,Arial,sans-serif" font-size="10.00" fill="#002b36">output_0</text>
<text text-anchor="middle" x="281" y="-57" font-family="Liberation Sans,Helvetica,Arial,sans-serif" font-size="10.00" fill="#002b36">(1 values)</text>
</g>
<!-- generate_dataset&#45;&gt;X_test -->
<g id="edge5" class="edge">
<title>generate_dataset&#45;&gt;X_test</title>
<path fill="none" stroke="#002b36" d="M382.82,-285.98C377.94,-272.07 371.25,-253.03 365.84,-237.61"/>
<polygon fill="#002b36" stroke="#002b36" points="369.12,-236.37 362.5,-228.1 362.51,-238.69 369.12,-236.37"/>
<text text-anchor="middle" x="397" y="-260" font-family="Liberation Sans,Helvetica,Arial,sans-serif" font-size="10.00" fill="#002b36">output_1</text>
<text text-anchor="middle" x="397" y="-249" font-family="Liberation Sans,Helvetica,Arial,sans-serif" font-size="10.00" fill="#002b36">(1 values)</text>
</g>
</g>
</svg>
