<?xml version="1.0" encoding="UTF-8" standalone="no"?>
<!DOCTYPE svg PUBLIC "-//W3C//DTD SVG 1.1//EN"
 "http://www.w3.org/Graphics/SVG/1.1/DTD/svg11.dtd">
<!-- Generated by graphviz version 2.50.0 (0)
 -->
<!-- Title: G Pages: 1 -->
<svg width="263pt" height="620pt"
 viewBox="0.00 0.00 262.50 620.00" xmlns="http://www.w3.org/2000/svg" xmlns:xlink="http://www.w3.org/1999/xlink">
<g id="graph0" class="graph" transform="scale(1 1) rotate(0) translate(4 616)">
<title>G</title>
<polygon fill="white" stroke="transparent" points="-4,4 -4,-616 258.5,-616 258.5,4 -4,4"/>
<!-- var_2 -->
<g id="node1" class="node">
<title>var_2</title>
<path fill="none" stroke="#268bd2" stroke-width="1.5" d="M82,-36C82,-36 12,-36 12,-36 6,-36 0,-30 0,-24 0,-24 0,-12 0,-12 0,-6 6,0 12,0 12,0 82,0 82,0 88,0 94,-6 94,-12 94,-12 94,-24 94,-24 94,-30 88,-36 82,-36"/>
<text text-anchor="start" x="31" y="-20.4" font-family="Liberation Sans,Helvetica,Arial,sans-serif" font-weight="bold" font-size="12.00" fill="#002b36">var_2</text>
<text text-anchor="start" x="8" y="-10" font-family="Liberation Sans,Helvetica,Arial,sans-serif" font-size="10.00" fill="#268bd2">2 values (2 sinks)</text>
</g>
<!-- var_0 -->
<g id="node2" class="node">
<title>var_0</title>
<path fill="none" stroke="#268bd2" stroke-width="1.5" d="M82,-228C82,-228 12,-228 12,-228 6,-228 0,-222 0,-216 0,-216 0,-204 0,-204 0,-198 6,-192 12,-192 12,-192 82,-192 82,-192 88,-192 94,-198 94,-204 94,-204 94,-216 94,-216 94,-222 88,-228 82,-228"/>
<text text-anchor="start" x="31" y="-212.4" font-family="Liberation Sans,Helvetica,Arial,sans-serif" font-weight="bold" font-size="12.00" fill="#002b36">var_0</text>
<text text-anchor="start" x="8" y="-202" font-family="Liberation Sans,Helvetica,Arial,sans-serif" font-size="10.00" fill="#268bd2">4 values (2 sinks)</text>
</g>
<!-- eval_model -->
<g id="node9" class="node">
<title>eval_model</title>
<path fill="none" stroke="#dc322f" stroke-width="1.5" d="M80,-134C80,-134 14,-134 14,-134 8,-134 2,-128 2,-122 2,-122 2,-106 2,-106 2,-100 8,-94 14,-94 14,-94 80,-94 80,-94 86,-94 92,-100 92,-106 92,-106 92,-122 92,-122 92,-128 86,-134 80,-134"/>
<text text-anchor="start" x="14" y="-121.4" font-family="Liberation Sans,Helvetica,Arial,sans-serif" font-weight="bold" font-size="12.00" fill="#002b36">eval_model</text>
<text text-anchor="start" x="10" y="-111" font-family="Liberation Sans,Helvetica,Arial,sans-serif" font-size="10.00" fill="#002b36">@op:eval_model</text>
<text text-anchor="start" x="32.5" y="-101" font-family="Liberation Sans,Helvetica,Arial,sans-serif" font-size="10.00" fill="#dc322f">2 calls</text>
</g>
<!-- var_0&#45;&gt;eval_model -->
<g id="edge6" class="edge">
<title>var_0&#45;&gt;eval_model</title>
<path fill="none" stroke="#002b36" d="M47,-191.76C47,-178.5 47,-159.86 47,-144.27"/>
<polygon fill="#002b36" stroke="#002b36" points="50.5,-144.07 47,-134.07 43.5,-144.07 50.5,-144.07"/>
<text text-anchor="middle" x="68.5" y="-166" font-family="Liberation Sans,Helvetica,Arial,sans-serif" font-size="10.00" fill="#002b36">model</text>
<text text-anchor="middle" x="68.5" y="-155" font-family="Liberation Sans,Helvetica,Arial,sans-serif" font-size="10.00" fill="#002b36">(2 values)</text>
</g>
<!-- y_train -->
<g id="node3" class="node">
<title>y_train</title>
<path fill="none" stroke="#268bd2" stroke-width="1.5" d="M44,-420C44,-420 12,-420 12,-420 6,-420 0,-414 0,-408 0,-408 0,-396 0,-396 0,-390 6,-384 12,-384 12,-384 44,-384 44,-384 50,-384 56,-390 56,-396 56,-396 56,-408 56,-408 56,-414 50,-420 44,-420"/>
<text text-anchor="start" x="8" y="-404.4" font-family="Liberation Sans,Helvetica,Arial,sans-serif" font-weight="bold" font-size="12.00" fill="#002b36">y_train</text>
<text text-anchor="start" x="9.5" y="-394" font-family="Liberation Sans,Helvetica,Arial,sans-serif" font-size="10.00" fill="#268bd2">1 values</text>
</g>
<!-- train_model -->
<g id="node10" class="node">
<title>train_model</title>
<path fill="none" stroke="#dc322f" stroke-width="1.5" d="M136.5,-326C136.5,-326 69.5,-326 69.5,-326 63.5,-326 57.5,-320 57.5,-314 57.5,-314 57.5,-298 57.5,-298 57.5,-292 63.5,-286 69.5,-286 69.5,-286 136.5,-286 136.5,-286 142.5,-286 148.5,-292 148.5,-298 148.5,-298 148.5,-314 148.5,-314 148.5,-320 142.5,-326 136.5,-326"/>
<text text-anchor="start" x="69" y="-313.4" font-family="Liberation Sans,Helvetica,Arial,sans-serif" font-weight="bold" font-size="12.00" fill="#002b36">train_model</text>
<text text-anchor="start" x="65.5" y="-303" font-family="Liberation Sans,Helvetica,Arial,sans-serif" font-size="10.00" fill="#002b36">@op:train_model</text>
<text text-anchor="start" x="88.5" y="-293" font-family="Liberation Sans,Helvetica,Arial,sans-serif" font-size="10.00" fill="#dc322f">4 calls</text>
</g>
<!-- y_train&#45;&gt;train_model -->
<g id="edge5" class="edge">
<title>y_train&#45;&gt;train_model</title>
<path fill="none" stroke="#002b36" d="M34.06,-383.89C38.83,-371.92 46.29,-356 56,-344 59.1,-340.17 62.67,-336.48 66.43,-333.02"/>
<polygon fill="#002b36" stroke="#002b36" points="69,-335.43 74.31,-326.26 64.44,-330.11 69,-335.43"/>
<text text-anchor="middle" x="77.5" y="-358" font-family="Liberation Sans,Helvetica,Arial,sans-serif" font-size="10.00" fill="#002b36">y_train</text>
<text text-anchor="middle" x="77.5" y="-347" font-family="Liberation Sans,Helvetica,Arial,sans-serif" font-size="10.00" fill="#002b36">(1 values)</text>
</g>
<!-- X_train -->
<g id="node4" class="node">
<title>X_train</title>
<path fill="none" stroke="#268bd2" stroke-width="1.5" d="M119.5,-420C119.5,-420 86.5,-420 86.5,-420 80.5,-420 74.5,-414 74.5,-408 74.5,-408 74.5,-396 74.5,-396 74.5,-390 80.5,-384 86.5,-384 86.5,-384 119.5,-384 119.5,-384 125.5,-384 131.5,-390 131.5,-396 131.5,-396 131.5,-408 131.5,-408 131.5,-414 125.5,-420 119.5,-420"/>
<text text-anchor="start" x="82.5" y="-404.4" font-family="Liberation Sans,Helvetica,Arial,sans-serif" font-weight="bold" font-size="12.00" fill="#002b36">X_train</text>
<text text-anchor="start" x="84.5" y="-394" font-family="Liberation Sans,Helvetica,Arial,sans-serif" font-size="10.00" fill="#268bd2">1 values</text>
</g>
<!-- X_train&#45;&gt;train_model -->
<g id="edge3" class="edge">
<title>X_train&#45;&gt;train_model</title>
<path fill="none" stroke="#002b36" d="M103,-383.76C103,-370.5 103,-351.86 103,-336.27"/>
<polygon fill="#002b36" stroke="#002b36" points="106.5,-336.07 103,-326.07 99.5,-336.07 106.5,-336.07"/>
<text text-anchor="middle" x="124.5" y="-358" font-family="Liberation Sans,Helvetica,Arial,sans-serif" font-size="10.00" fill="#002b36">X_train</text>
<text text-anchor="middle" x="124.5" y="-347" font-family="Liberation Sans,Helvetica,Arial,sans-serif" font-size="10.00" fill="#002b36">(1 values)</text>
</g>
<!-- random_seed -->
<g id="node5" class="node">
<title>random_seed</title>
<path fill="none" stroke="#268bd2" stroke-width="1.5" d="M105.5,-612C105.5,-612 24.5,-612 24.5,-612 18.5,-612 12.5,-606 12.5,-600 12.5,-600 12.5,-588 12.5,-588 12.5,-582 18.5,-576 24.5,-576 24.5,-576 105.5,-576 105.5,-576 111.5,-576 117.5,-582 117.5,-588 117.5,-588 117.5,-600 117.5,-600 117.5,-606 111.5,-612 105.5,-612"/>
<text text-anchor="start" x="25.5" y="-596.4" font-family="Liberation Sans,Helvetica,Arial,sans-serif" font-weight="bold" font-size="12.00" fill="#002b36">random_seed</text>
<text text-anchor="start" x="20.5" y="-586" font-family="Liberation Sans,Helvetica,Arial,sans-serif" font-size="10.00" fill="#268bd2">1 values (1 sources)</text>
</g>
<!-- generate_dataset -->
<g id="node8" class="node">
<title>generate_dataset</title>
<path fill="none" stroke="#dc322f" stroke-width="1.5" d="M111,-518C111,-518 19,-518 19,-518 13,-518 7,-512 7,-506 7,-506 7,-490 7,-490 7,-484 13,-478 19,-478 19,-478 111,-478 111,-478 117,-478 123,-484 123,-490 123,-490 123,-506 123,-506 123,-512 117,-518 111,-518"/>
<text text-anchor="start" x="15" y="-505.4" font-family="Liberation Sans,Helvetica,Arial,sans-serif" font-weight="bold" font-size="12.00" fill="#002b36">generate_dataset</text>
<text text-anchor="start" x="15" y="-495" font-family="Liberation Sans,Helvetica,Arial,sans-serif" font-size="10.00" fill="#002b36">@op:generate_dataset</text>
<text text-anchor="start" x="50.5" y="-485" font-family="Liberation Sans,Helvetica,Arial,sans-serif" font-size="10.00" fill="#dc322f">1 calls</text>
</g>
<!-- random_seed&#45;&gt;generate_dataset -->
<g id="edge9" class="edge">
<title>random_seed&#45;&gt;generate_dataset</title>
<path fill="none" stroke="#002b36" d="M65,-575.76C65,-562.5 65,-543.86 65,-528.27"/>
<polygon fill="#002b36" stroke="#002b36" points="68.5,-528.07 65,-518.07 61.5,-528.07 68.5,-528.07"/>
<text text-anchor="middle" x="94.5" y="-550" font-family="Liberation Sans,Helvetica,Arial,sans-serif" font-size="10.00" fill="#002b36">random_seed</text>
<text text-anchor="middle" x="94.5" y="-539" font-family="Liberation Sans,Helvetica,Arial,sans-serif" font-size="10.00" fill="#002b36">(1 values)</text>
</g>
<!-- n_estimators -->
<g id="node6" class="node">
<title>n_estimators</title>
<path fill="none" stroke="#268bd2" stroke-width="1.5" d="M242.5,-420C242.5,-420 161.5,-420 161.5,-420 155.5,-420 149.5,-414 149.5,-408 149.5,-408 149.5,-396 149.5,-396 149.5,-390 155.5,-384 161.5,-384 161.5,-384 242.5,-384 242.5,-384 248.5,-384 254.5,-390 254.5,-396 254.5,-396 254.5,-408 254.5,-408 254.5,-414 248.5,-420 242.5,-420"/>
<text text-anchor="start" x="164.5" y="-404.4" font-family="Liberation Sans,Helvetica,Arial,sans-serif" font-weight="bold" font-size="12.00" fill="#002b36">n_estimators</text>
<text text-anchor="start" x="157.5" y="-394" font-family="Liberation Sans,Helvetica,Arial,sans-serif" font-size="10.00" fill="#268bd2">4 values (4 sources)</text>
</g>
<!-- n_estimators&#45;&gt;train_model -->
<g id="edge4" class="edge">
<title>n_estimators&#45;&gt;train_model</title>
<path fill="none" stroke="#002b36" d="M187.67,-383.86C177.59,-372.17 163.54,-356.59 150,-344 145.91,-340.2 141.47,-336.36 137,-332.67"/>
<polygon fill="#002b36" stroke="#002b36" points="138.98,-329.78 129,-326.23 134.59,-335.23 138.98,-329.78"/>
<text text-anchor="middle" x="198.5" y="-358" font-family="Liberation Sans,Helvetica,Arial,sans-serif" font-size="10.00" fill="#002b36">n_estimators</text>
<text text-anchor="middle" x="198.5" y="-347" font-family="Liberation Sans,Helvetica,Arial,sans-serif" font-size="10.00" fill="#002b36">(4 values)</text>
</g>
<!-- var_1 -->
<g id="node7" class="node">
<title>var_1</title>
<path fill="none" stroke="#268bd2" stroke-width="1.5" d="M194,-228C194,-228 124,-228 124,-228 118,-228 112,-222 112,-216 112,-216 112,-204 112,-204 112,-198 118,-192 124,-192 124,-192 194,-192 194,-192 200,-192 206,-198 206,-204 206,-204 206,-216 206,-216 206,-222 200,-228 194,-228"/>
<text text-anchor="start" x="143" y="-212.4" font-family="Liberation Sans,Helvetica,Arial,sans-serif" font-weight="bold" font-size="12.00" fill="#002b36">var_1</text>
<text text-anchor="start" x="120" y="-202" font-family="Liberation Sans,Helvetica,Arial,sans-serif" font-size="10.00" fill="#268bd2">4 values (4 sinks)</text>
</g>
<!-- generate_dataset&#45;&gt;y_train -->
<g id="edge8" class="edge">
<title>generate_dataset&#45;&gt;y_train</title>
<path fill="none" stroke="#002b36" d="M46.25,-478C41.88,-472.57 37.72,-466.39 35,-460 31.05,-450.7 29.13,-439.83 28.25,-430.09"/>
<polygon fill="#002b36" stroke="#002b36" points="31.74,-429.87 27.66,-420.1 24.76,-430.28 31.74,-429.87"/>
<text text-anchor="middle" x="56.5" y="-452" font-family="Liberation Sans,Helvetica,Arial,sans-serif" font-size="10.00" fill="#002b36">output_2</text>
<text text-anchor="middle" x="56.5" y="-441" font-family="Liberation Sans,Helvetica,Arial,sans-serif" font-size="10.00" fill="#002b36">(1 values)</text>
</g>
<!-- generate_dataset&#45;&gt;X_train -->
<g id="edge7" class="edge">
<title>generate_dataset&#45;&gt;X_train</title>
<path fill="none" stroke="#002b36" d="M72.69,-477.98C78.31,-464.07 86.01,-445.03 92.24,-429.61"/>
<polygon fill="#002b36" stroke="#002b36" points="95.59,-430.68 96.09,-420.1 89.1,-428.06 95.59,-430.68"/>
<text text-anchor="middle" x="109.5" y="-452" font-family="Liberation Sans,Helvetica,Arial,sans-serif" font-size="10.00" fill="#002b36">output_0</text>
<text text-anchor="middle" x="109.5" y="-441" font-family="Liberation Sans,Helvetica,Arial,sans-serif" font-size="10.00" fill="#002b36">(1 values)</text>
</g>
<!-- eval_model&#45;&gt;var_2 -->
<g id="edge10" class="edge">
<title>eval_model&#45;&gt;var_2</title>
<path fill="none" stroke="#002b36" d="M47,-93.98C47,-80.34 47,-61.75 47,-46.5"/>
<polygon fill="#002b36" stroke="#002b36" points="50.5,-46.1 47,-36.1 43.5,-46.1 50.5,-46.1"/>
<text text-anchor="middle" x="68.5" y="-68" font-family="Liberation Sans,Helvetica,Arial,sans-serif" font-size="10.00" fill="#002b36">output_0</text>
<text text-anchor="middle" x="68.5" y="-57" font-family="Liberation Sans,Helvetica,Arial,sans-serif" font-size="10.00" fill="#002b36">(2 values)</text>
</g>
<!-- train_model&#45;&gt;var_0 -->
<g id="edge1" class="edge">
<title>train_model&#45;&gt;var_0</title>
<path fill="none" stroke="#002b36" d="M91.67,-285.98C83.23,-271.81 71.6,-252.3 62.33,-236.74"/>
<polygon fill="#002b36" stroke="#002b36" points="65.31,-234.9 57.19,-228.1 59.3,-238.48 65.31,-234.9"/>
<text text-anchor="middle" x="101.5" y="-260" font-family="Liberation Sans,Helvetica,Arial,sans-serif" font-size="10.00" fill="#002b36">output_0</text>
<text text-anchor="middle" x="101.5" y="-249" font-family="Liberation Sans,Helvetica,Arial,sans-serif" font-size="10.00" fill="#002b36">(4 values)</text>
</g>
<!-- train_model&#45;&gt;var_1 -->
<g id="edge2" class="edge">
<title>train_model&#45;&gt;var_1</title>
<path fill="none" stroke="#002b36" d="M115.69,-285.94C119.41,-280.22 123.44,-273.9 127,-268 133.05,-257.99 139.41,-246.8 144.86,-237"/>
<polygon fill="#002b36" stroke="#002b36" points="147.99,-238.57 149.76,-228.12 141.86,-235.19 147.99,-238.57"/>
<text text-anchor="middle" x="160.5" y="-260" font-family="Liberation Sans,Helvetica,Arial,sans-serif" font-size="10.00" fill="#002b36">output_1</text>
<text text-anchor="middle" x="160.5" y="-249" font-family="Liberation Sans,Helvetica,Arial,sans-serif" font-size="10.00" fill="#002b36">(4 values)</text>
</g>
</g>
</svg>
