<?xml version="1.0" encoding="UTF-8" standalone="no"?>
<!DOCTYPE svg PUBLIC "-//W3C//DTD SVG 1.1//EN"
 "http://www.w3.org/Graphics/SVG/1.1/DTD/svg11.dtd">
<!-- Generated by graphviz version 2.50.0 (0)
 -->
<!-- Title: G Pages: 1 -->
<svg width="340pt" height="428pt"
 viewBox="0.00 0.00 339.50 428.00" xmlns="http://www.w3.org/2000/svg" xmlns:xlink="http://www.w3.org/1999/xlink">
<g id="graph0" class="graph" transform="scale(1 1) rotate(0) translate(4 424)">
<title>G</title>
<polygon fill="white" stroke="transparent" points="-4,4 -4,-424 335.5,-424 335.5,4 -4,4"/>
<!-- v -->
<g id="node1" class="node">
<title>v</title>
<path fill="none" stroke="#268bd2" d="M191,-36C191,-36 121,-36 121,-36 115,-36 109,-30 109,-24 109,-24 109,-12 109,-12 109,-6 115,0 121,0 121,0 191,0 191,0 197,0 203,-6 203,-12 203,-12 203,-24 203,-24 203,-30 197,-36 191,-36"/>
<text text-anchor="start" x="152.5" y="-20.4" font-family="Liberation Sans,Helvetica,Arial,sans-serif" font-weight="bold" font-size="12.00" fill="#002b36">v</text>
<text text-anchor="start" x="117" y="-10" font-family="Liberation Sans,Helvetica,Arial,sans-serif" font-size="10.00" fill="#268bd2">1 values (1 sinks)</text>
</g>
<!-- random_seed -->
<g id="node2" class="node">
<title>random_seed</title>
<path fill="none" stroke="#268bd2" d="M98.5,-420C98.5,-420 17.5,-420 17.5,-420 11.5,-420 5.5,-414 5.5,-408 5.5,-408 5.5,-396 5.5,-396 5.5,-390 11.5,-384 17.5,-384 17.5,-384 98.5,-384 98.5,-384 104.5,-384 110.5,-390 110.5,-396 110.5,-396 110.5,-408 110.5,-408 110.5,-414 104.5,-420 98.5,-420"/>
<text text-anchor="start" x="18.5" y="-404.4" font-family="Liberation Sans,Helvetica,Arial,sans-serif" font-weight="bold" font-size="12.00" fill="#002b36">random_seed</text>
<text text-anchor="start" x="13.5" y="-394" font-family="Liberation Sans,Helvetica,Arial,sans-serif" font-size="10.00" fill="#268bd2">1 values (1 sources)</text>
</g>
<!-- generate_dataset -->
<g id="node6" class="node">
<title>generate_dataset</title>
<path fill="none" stroke="#dc322f" d="M104,-326C104,-326 12,-326 12,-326 6,-326 0,-320 0,-314 0,-314 0,-298 0,-298 0,-292 6,-286 12,-286 12,-286 104,-286 104,-286 110,-286 116,-292 116,-298 116,-298 116,-314 116,-314 116,-320 110,-326 104,-326"/>
<text text-anchor="start" x="8" y="-313.4" font-family="Liberation Sans,Helvetica,Arial,sans-serif" font-weight="bold" font-size="12.00" fill="#002b36">generate_dataset</text>
<text text-anchor="start" x="8" y="-303" font-family="Liberation Sans,Helvetica,Arial,sans-serif" font-size="10.00" fill="#002b36">@op:generate_dataset</text>
<text text-anchor="start" x="43.5" y="-293" font-family="Liberation Sans,Helvetica,Arial,sans-serif" font-size="10.00" fill="#dc322f">1 calls</text>
</g>
<!-- random_seed&#45;&gt;generate_dataset -->
<g id="edge6" class="edge">
<title>random_seed&#45;&gt;generate_dataset</title>
<path fill="none" stroke="#002b36" d="M58,-383.76C58,-370.5 58,-351.86 58,-336.27"/>
<polygon fill="#002b36" stroke="#002b36" points="61.5,-336.07 58,-326.07 54.5,-336.07 61.5,-336.07"/>
<text text-anchor="middle" x="87.5" y="-358" font-family="Liberation Sans,Helvetica,Arial,sans-serif" font-size="10.00" fill="#002b36">random_seed</text>
<text text-anchor="middle" x="87.5" y="-347" font-family="Liberation Sans,Helvetica,Arial,sans-serif" font-size="10.00" fill="#002b36">(1 values)</text>
</g>
<!-- X_test -->
<g id="node3" class="node">
<title>X_test</title>
<path fill="none" stroke="#268bd2" d="M73,-228C73,-228 43,-228 43,-228 37,-228 31,-222 31,-216 31,-216 31,-204 31,-204 31,-198 37,-192 43,-192 43,-192 73,-192 73,-192 79,-192 85,-198 85,-204 85,-204 85,-216 85,-216 85,-222 79,-228 73,-228"/>
<text text-anchor="start" x="39.5" y="-212.4" font-family="Liberation Sans,Helvetica,Arial,sans-serif" font-weight="bold" font-size="12.00" fill="#002b36">X_test</text>
<text text-anchor="start" x="39.5" y="-202" font-family="Liberation Sans,Helvetica,Arial,sans-serif" font-size="10.00" fill="#268bd2">1 values</text>
</g>
<!-- eval_model -->
<g id="node7" class="node">
<title>eval_model</title>
<path fill="none" stroke="#dc322f" d="M189,-134C189,-134 123,-134 123,-134 117,-134 111,-128 111,-122 111,-122 111,-106 111,-106 111,-100 117,-94 123,-94 123,-94 189,-94 189,-94 195,-94 201,-100 201,-106 201,-106 201,-122 201,-122 201,-128 195,-134 189,-134"/>
<text text-anchor="start" x="123" y="-121.4" font-family="Liberation Sans,Helvetica,Arial,sans-serif" font-weight="bold" font-size="12.00" fill="#002b36">eval_model</text>
<text text-anchor="start" x="119" y="-111" font-family="Liberation Sans,Helvetica,Arial,sans-serif" font-size="10.00" fill="#002b36">@op:eval_model</text>
<text text-anchor="start" x="141.5" y="-101" font-family="Liberation Sans,Helvetica,Arial,sans-serif" font-size="10.00" fill="#dc322f">1 calls</text>
</g>
<!-- X_test&#45;&gt;eval_model -->
<g id="edge2" class="edge">
<title>X_test&#45;&gt;eval_model</title>
<path fill="none" stroke="#002b36" d="M72,-191.83C81.86,-180.13 95.64,-164.54 109,-152 113.07,-148.18 117.5,-144.33 121.97,-140.64"/>
<polygon fill="#002b36" stroke="#002b36" points="124.37,-143.19 129.96,-134.19 119.98,-137.74 124.37,-143.19"/>
<text text-anchor="middle" x="130.5" y="-166" font-family="Liberation Sans,Helvetica,Arial,sans-serif" font-size="10.00" fill="#002b36">X_test</text>
<text text-anchor="middle" x="130.5" y="-155" font-family="Liberation Sans,Helvetica,Arial,sans-serif" font-size="10.00" fill="#002b36">(1 values)</text>
</g>
<!-- y_test -->
<g id="node4" class="node">
<title>y_test</title>
<path fill="none" stroke="#268bd2" d="M196.5,-228C196.5,-228 115.5,-228 115.5,-228 109.5,-228 103.5,-222 103.5,-216 103.5,-216 103.5,-204 103.5,-204 103.5,-198 109.5,-192 115.5,-192 115.5,-192 196.5,-192 196.5,-192 202.5,-192 208.5,-198 208.5,-204 208.5,-204 208.5,-216 208.5,-216 208.5,-222 202.5,-228 196.5,-228"/>
<text text-anchor="start" x="138.5" y="-212.4" font-family="Liberation Sans,Helvetica,Arial,sans-serif" font-weight="bold" font-size="12.00" fill="#002b36">y_test</text>
<text text-anchor="start" x="111.5" y="-202" font-family="Liberation Sans,Helvetica,Arial,sans-serif" font-size="10.00" fill="#268bd2">1 values (1 sources)</text>
</g>
<!-- y_test&#45;&gt;eval_model -->
<g id="edge4" class="edge">
<title>y_test&#45;&gt;eval_model</title>
<path fill="none" stroke="#002b36" d="M156,-191.76C156,-178.5 156,-159.86 156,-144.27"/>
<polygon fill="#002b36" stroke="#002b36" points="159.5,-144.07 156,-134.07 152.5,-144.07 159.5,-144.07"/>
<text text-anchor="middle" x="177.5" y="-166" font-family="Liberation Sans,Helvetica,Arial,sans-serif" font-size="10.00" fill="#002b36">y_test</text>
<text text-anchor="middle" x="177.5" y="-155" font-family="Liberation Sans,Helvetica,Arial,sans-serif" font-size="10.00" fill="#002b36">(1 values)</text>
</g>
<!-- model -->
<g id="node5" class="node">
<title>model</title>
<path fill="none" stroke="#268bd2" d="M319.5,-228C319.5,-228 238.5,-228 238.5,-228 232.5,-228 226.5,-222 226.5,-216 226.5,-216 226.5,-204 226.5,-204 226.5,-198 232.5,-192 238.5,-192 238.5,-192 319.5,-192 319.5,-192 325.5,-192 331.5,-198 331.5,-204 331.5,-204 331.5,-216 331.5,-216 331.5,-222 325.5,-228 319.5,-228"/>
<text text-anchor="start" x="261" y="-212.4" font-family="Liberation Sans,Helvetica,Arial,sans-serif" font-weight="bold" font-size="12.00" fill="#002b36">model</text>
<text text-anchor="start" x="234.5" y="-202" font-family="Liberation Sans,Helvetica,Arial,sans-serif" font-size="10.00" fill="#268bd2">1 values (1 sources)</text>
</g>
<!-- model&#45;&gt;eval_model -->
<g id="edge3" class="edge">
<title>model&#45;&gt;eval_model</title>
<path fill="none" stroke="#002b36" d="M256.73,-191.98C237.9,-177.59 210.66,-156.78 189.26,-140.42"/>
<polygon fill="#002b36" stroke="#002b36" points="191.14,-137.45 181.07,-134.16 186.89,-143.02 191.14,-137.45"/>
<text text-anchor="middle" x="253.5" y="-166" font-family="Liberation Sans,Helvetica,Arial,sans-serif" font-size="10.00" fill="#002b36">model</text>
<text text-anchor="middle" x="253.5" y="-155" font-family="Liberation Sans,Helvetica,Arial,sans-serif" font-size="10.00" fill="#002b36">(1 values)</text>
</g>
<!-- generate_dataset&#45;&gt;X_test -->
<g id="edge5" class="edge">
<title>generate_dataset&#45;&gt;X_test</title>
<path fill="none" stroke="#002b36" d="M58,-285.98C58,-272.34 58,-253.75 58,-238.5"/>
<polygon fill="#002b36" stroke="#002b36" points="61.5,-238.1 58,-228.1 54.5,-238.1 61.5,-238.1"/>
<text text-anchor="middle" x="79.5" y="-260" font-family="Liberation Sans,Helvetica,Arial,sans-serif" font-size="10.00" fill="#002b36">output_1</text>
<text text-anchor="middle" x="79.5" y="-249" font-family="Liberation Sans,Helvetica,Arial,sans-serif" font-size="10.00" fill="#002b36">(1 values)</text>
</g>
<!-- eval_model&#45;&gt;v -->
<g id="edge1" class="edge">
<title>eval_model&#45;&gt;v</title>
<path fill="none" stroke="#002b36" d="M156,-93.98C156,-80.34 156,-61.75 156,-46.5"/>
<polygon fill="#002b36" stroke="#002b36" points="159.5,-46.1 156,-36.1 152.5,-46.1 159.5,-46.1"/>
<text text-anchor="middle" x="177.5" y="-68" font-family="Liberation Sans,Helvetica,Arial,sans-serif" font-size="10.00" fill="#002b36">output_0</text>
<text text-anchor="middle" x="177.5" y="-57" font-family="Liberation Sans,Helvetica,Arial,sans-serif" font-size="10.00" fill="#002b36">(1 values)</text>
</g>
</g>
</svg>
