<?xml version="1.0" encoding="UTF-8" standalone="no"?>
<!DOCTYPE svg PUBLIC "-//W3C//DTD SVG 1.1//EN"
 "http://www.w3.org/Graphics/SVG/1.1/DTD/svg11.dtd">
<!-- Generated by graphviz version 2.50.0 (0)
 -->
<!-- Title: G Pages: 1 -->
<svg width="487pt" height="428pt"
 viewBox="0.00 0.00 486.50 428.00" xmlns="http://www.w3.org/2000/svg" xmlns:xlink="http://www.w3.org/1999/xlink">
<g id="graph0" class="graph" transform="scale(1 1) rotate(0) translate(4 424)">
<title>G</title>
<polygon fill="white" stroke="transparent" points="-4,4 -4,-424 482.5,-424 482.5,4 -4,4"/>
<!-- X_train -->
<g id="node1" class="node">
<title>X_train</title>
<path fill="none" stroke="#268bd2" stroke-width="2" d="M466.5,-420C466.5,-420 385.5,-420 385.5,-420 379.5,-420 373.5,-414 373.5,-408 373.5,-408 373.5,-396 373.5,-396 373.5,-390 379.5,-384 385.5,-384 385.5,-384 466.5,-384 466.5,-384 472.5,-384 478.5,-390 478.5,-396 478.5,-396 478.5,-408 478.5,-408 478.5,-414 472.5,-420 466.5,-420"/>
<text text-anchor="start" x="405.5" y="-404.4" font-family="Liberation Sans,Helvetica,Arial,sans-serif" font-weight="bold" font-size="12.00" fill="#002b36">X_train</text>
<text text-anchor="start" x="381.5" y="-394" font-family="Liberation Sans,Helvetica,Arial,sans-serif" font-size="10.00" fill="#268bd2">1 values (1 sources)</text>
</g>
<!-- train_model -->
<g id="node10" class="node">
<title>train_model</title>
<path fill="none" stroke="#dc322f" stroke-width="2" d="M335.5,-326C335.5,-326 268.5,-326 268.5,-326 262.5,-326 256.5,-320 256.5,-314 256.5,-314 256.5,-298 256.5,-298 256.5,-292 262.5,-286 268.5,-286 268.5,-286 335.5,-286 335.5,-286 341.5,-286 347.5,-292 347.5,-298 347.5,-298 347.5,-314 347.5,-314 347.5,-320 341.5,-326 335.5,-326"/>
<text text-anchor="start" x="268" y="-313.4" font-family="Liberation Sans,Helvetica,Arial,sans-serif" font-weight="bold" font-size="12.00" fill="#002b36">train_model</text>
<text text-anchor="start" x="264.5" y="-303" font-family="Liberation Sans,Helvetica,Arial,sans-serif" font-size="10.00" fill="#002b36">@op:train_model</text>
<text text-anchor="start" x="287.5" y="-293" font-family="Liberation Sans,Helvetica,Arial,sans-serif" font-size="10.00" fill="#dc322f">1 calls</text>
</g>
<!-- X_train&#45;&gt;train_model -->
<g id="edge8" class="edge">
<title>X_train&#45;&gt;train_model</title>
<path fill="none" stroke="#002b36" d="M403.54,-383.98C384.57,-369.59 357.11,-348.78 335.53,-332.42"/>
<polygon fill="#002b36" stroke="#002b36" points="337.36,-329.41 327.28,-326.16 333.13,-334.99 337.36,-329.41"/>
<text text-anchor="middle" x="399.5" y="-358" font-family="Liberation Sans,Helvetica,Arial,sans-serif" font-size="10.00" fill="#002b36">X_train</text>
<text text-anchor="middle" x="399.5" y="-347" font-family="Liberation Sans,Helvetica,Arial,sans-serif" font-size="10.00" fill="#002b36">(1 values)</text>
</g>
<!-- v -->
<g id="node2" class="node">
<title>v</title>
<path fill="none" stroke="#268bd2" stroke-width="2" d="M234,-36C234,-36 164,-36 164,-36 158,-36 152,-30 152,-24 152,-24 152,-12 152,-12 152,-6 158,0 164,0 164,0 234,0 234,0 240,0 246,-6 246,-12 246,-12 246,-24 246,-24 246,-30 240,-36 234,-36"/>
<text text-anchor="start" x="195.5" y="-20.4" font-family="Liberation Sans,Helvetica,Arial,sans-serif" font-weight="bold" font-size="12.00" fill="#002b36">v</text>
<text text-anchor="start" x="160" y="-10" font-family="Liberation Sans,Helvetica,Arial,sans-serif" font-size="10.00" fill="#268bd2">1 values (1 sinks)</text>
</g>
<!-- n_estimators -->
<g id="node3" class="node">
<title>n_estimators</title>
<path fill="none" stroke="#268bd2" stroke-width="2" d="M220.5,-420C220.5,-420 139.5,-420 139.5,-420 133.5,-420 127.5,-414 127.5,-408 127.5,-408 127.5,-396 127.5,-396 127.5,-390 133.5,-384 139.5,-384 139.5,-384 220.5,-384 220.5,-384 226.5,-384 232.5,-390 232.5,-396 232.5,-396 232.5,-408 232.5,-408 232.5,-414 226.5,-420 220.5,-420"/>
<text text-anchor="start" x="142.5" y="-404.4" font-family="Liberation Sans,Helvetica,Arial,sans-serif" font-weight="bold" font-size="12.00" fill="#002b36">n_estimators</text>
<text text-anchor="start" x="135.5" y="-394" font-family="Liberation Sans,Helvetica,Arial,sans-serif" font-size="10.00" fill="#268bd2">1 values (1 sources)</text>
</g>
<!-- n_estimators&#45;&gt;train_model -->
<g id="edge9" class="edge">
<title>n_estimators&#45;&gt;train_model</title>
<path fill="none" stroke="#002b36" d="M196.52,-383.79C208.34,-371.93 224.94,-356.17 241,-344 246.57,-339.78 252.65,-335.62 258.74,-331.7"/>
<polygon fill="#002b36" stroke="#002b36" points="261,-334.42 267.62,-326.15 257.29,-328.49 261,-334.42"/>
<text text-anchor="middle" x="269.5" y="-358" font-family="Liberation Sans,Helvetica,Arial,sans-serif" font-size="10.00" fill="#002b36">n_estimators</text>
<text text-anchor="middle" x="269.5" y="-347" font-family="Liberation Sans,Helvetica,Arial,sans-serif" font-size="10.00" fill="#002b36">(1 values)</text>
</g>
<!-- y_train -->
<g id="node4" class="node">
<title>y_train</title>
<path fill="none" stroke="#268bd2" stroke-width="2" d="M343.5,-420C343.5,-420 262.5,-420 262.5,-420 256.5,-420 250.5,-414 250.5,-408 250.5,-408 250.5,-396 250.5,-396 250.5,-390 256.5,-384 262.5,-384 262.5,-384 343.5,-384 343.5,-384 349.5,-384 355.5,-390 355.5,-396 355.5,-396 355.5,-408 355.5,-408 355.5,-414 349.5,-420 343.5,-420"/>
<text text-anchor="start" x="283" y="-404.4" font-family="Liberation Sans,Helvetica,Arial,sans-serif" font-weight="bold" font-size="12.00" fill="#002b36">y_train</text>
<text text-anchor="start" x="258.5" y="-394" font-family="Liberation Sans,Helvetica,Arial,sans-serif" font-size="10.00" fill="#268bd2">1 values (1 sources)</text>
</g>
<!-- y_train&#45;&gt;train_model -->
<g id="edge10" class="edge">
<title>y_train&#45;&gt;train_model</title>
<path fill="none" stroke="#002b36" d="M302.82,-383.76C302.68,-370.5 302.48,-351.86 302.31,-336.27"/>
<polygon fill="#002b36" stroke="#002b36" points="305.81,-336.03 302.2,-326.07 298.81,-336.11 305.81,-336.03"/>
<text text-anchor="middle" x="323.5" y="-358" font-family="Liberation Sans,Helvetica,Arial,sans-serif" font-size="10.00" fill="#002b36">y_train</text>
<text text-anchor="middle" x="323.5" y="-347" font-family="Liberation Sans,Helvetica,Arial,sans-serif" font-size="10.00" fill="#002b36">(1 values)</text>
</g>
<!-- model -->
<g id="node5" class="node">
<title>model</title>
<path fill="none" stroke="#268bd2" stroke-width="2" d="M315,-228C315,-228 285,-228 285,-228 279,-228 273,-222 273,-216 273,-216 273,-204 273,-204 273,-198 279,-192 285,-192 285,-192 315,-192 315,-192 321,-192 327,-198 327,-204 327,-204 327,-216 327,-216 327,-222 321,-228 315,-228"/>
<text text-anchor="start" x="282" y="-212.4" font-family="Liberation Sans,Helvetica,Arial,sans-serif" font-weight="bold" font-size="12.00" fill="#002b36">model</text>
<text text-anchor="start" x="281.5" y="-202" font-family="Liberation Sans,Helvetica,Arial,sans-serif" font-size="10.00" fill="#268bd2">1 values</text>
</g>
<!-- eval_model -->
<g id="node9" class="node">
<title>eval_model</title>
<path fill="none" stroke="#dc322f" stroke-width="2" d="M232,-134C232,-134 166,-134 166,-134 160,-134 154,-128 154,-122 154,-122 154,-106 154,-106 154,-100 160,-94 166,-94 166,-94 232,-94 232,-94 238,-94 244,-100 244,-106 244,-106 244,-122 244,-122 244,-128 238,-134 232,-134"/>
<text text-anchor="start" x="166" y="-121.4" font-family="Liberation Sans,Helvetica,Arial,sans-serif" font-weight="bold" font-size="12.00" fill="#002b36">eval_model</text>
<text text-anchor="start" x="162" y="-111" font-family="Liberation Sans,Helvetica,Arial,sans-serif" font-size="10.00" fill="#002b36">@op:eval_model</text>
<text text-anchor="start" x="184.5" y="-101" font-family="Liberation Sans,Helvetica,Arial,sans-serif" font-size="10.00" fill="#dc322f">1 calls</text>
</g>
<!-- model&#45;&gt;eval_model -->
<g id="edge3" class="edge">
<title>model&#45;&gt;eval_model</title>
<path fill="none" stroke="#002b36" d="M285.01,-191.91C274.5,-180.25 259.9,-164.68 246,-152 241.88,-148.24 237.41,-144.42 232.93,-140.75"/>
<polygon fill="#002b36" stroke="#002b36" points="234.91,-137.85 224.92,-134.31 230.53,-143.31 234.91,-137.85"/>
<text text-anchor="middle" x="288.5" y="-166" font-family="Liberation Sans,Helvetica,Arial,sans-serif" font-size="10.00" fill="#002b36">model</text>
<text text-anchor="middle" x="288.5" y="-155" font-family="Liberation Sans,Helvetica,Arial,sans-serif" font-size="10.00" fill="#002b36">(1 values)</text>
</g>
<!-- random_seed -->
<g id="node6" class="node">
<title>random_seed</title>
<path fill="none" stroke="#268bd2" stroke-width="2" d="M97.5,-420C97.5,-420 16.5,-420 16.5,-420 10.5,-420 4.5,-414 4.5,-408 4.5,-408 4.5,-396 4.5,-396 4.5,-390 10.5,-384 16.5,-384 16.5,-384 97.5,-384 97.5,-384 103.5,-384 109.5,-390 109.5,-396 109.5,-396 109.5,-408 109.5,-408 109.5,-414 103.5,-420 97.5,-420"/>
<text text-anchor="start" x="17.5" y="-404.4" font-family="Liberation Sans,Helvetica,Arial,sans-serif" font-weight="bold" font-size="12.00" fill="#002b36">random_seed</text>
<text text-anchor="start" x="12.5" y="-394" font-family="Liberation Sans,Helvetica,Arial,sans-serif" font-size="10.00" fill="#268bd2">1 values (1 sources)</text>
</g>
<!-- generate_dataset -->
<g id="node11" class="node">
<title>generate_dataset</title>
<path fill="none" stroke="#dc322f" stroke-width="2" d="M104,-326C104,-326 12,-326 12,-326 6,-326 0,-320 0,-314 0,-314 0,-298 0,-298 0,-292 6,-286 12,-286 12,-286 104,-286 104,-286 110,-286 116,-292 116,-298 116,-298 116,-314 116,-314 116,-320 110,-326 104,-326"/>
<text text-anchor="start" x="8" y="-313.4" font-family="Liberation Sans,Helvetica,Arial,sans-serif" font-weight="bold" font-size="12.00" fill="#002b36">generate_dataset</text>
<text text-anchor="start" x="8" y="-303" font-family="Liberation Sans,Helvetica,Arial,sans-serif" font-size="10.00" fill="#002b36">@op:generate_dataset</text>
<text text-anchor="start" x="43.5" y="-293" font-family="Liberation Sans,Helvetica,Arial,sans-serif" font-size="10.00" fill="#dc322f">1 calls</text>
</g>
<!-- random_seed&#45;&gt;generate_dataset -->
<g id="edge6" class="edge">
<title>random_seed&#45;&gt;generate_dataset</title>
<path fill="none" stroke="#002b36" d="M57.18,-383.76C57.32,-370.5 57.52,-351.86 57.69,-336.27"/>
<polygon fill="#002b36" stroke="#002b36" points="61.19,-336.11 57.8,-326.07 54.19,-336.03 61.19,-336.11"/>
<text text-anchor="middle" x="87.5" y="-358" font-family="Liberation Sans,Helvetica,Arial,sans-serif" font-size="10.00" fill="#002b36">random_seed</text>
<text text-anchor="middle" x="87.5" y="-347" font-family="Liberation Sans,Helvetica,Arial,sans-serif" font-size="10.00" fill="#002b36">(1 values)</text>
</g>
<!-- y_test -->
<g id="node7" class="node">
<title>y_test</title>
<path fill="none" stroke="#268bd2" stroke-width="2" d="M239.5,-228C239.5,-228 158.5,-228 158.5,-228 152.5,-228 146.5,-222 146.5,-216 146.5,-216 146.5,-204 146.5,-204 146.5,-198 152.5,-192 158.5,-192 158.5,-192 239.5,-192 239.5,-192 245.5,-192 251.5,-198 251.5,-204 251.5,-204 251.5,-216 251.5,-216 251.5,-222 245.5,-228 239.5,-228"/>
<text text-anchor="start" x="181.5" y="-212.4" font-family="Liberation Sans,Helvetica,Arial,sans-serif" font-weight="bold" font-size="12.00" fill="#002b36">y_test</text>
<text text-anchor="start" x="154.5" y="-202" font-family="Liberation Sans,Helvetica,Arial,sans-serif" font-size="10.00" fill="#268bd2">1 values (1 sources)</text>
</g>
<!-- y_test&#45;&gt;eval_model -->
<g id="edge4" class="edge">
<title>y_test&#45;&gt;eval_model</title>
<path fill="none" stroke="#002b36" d="M199,-191.76C199,-178.5 199,-159.86 199,-144.27"/>
<polygon fill="#002b36" stroke="#002b36" points="202.5,-144.07 199,-134.07 195.5,-144.07 202.5,-144.07"/>
<text text-anchor="middle" x="220.5" y="-166" font-family="Liberation Sans,Helvetica,Arial,sans-serif" font-size="10.00" fill="#002b36">y_test</text>
<text text-anchor="middle" x="220.5" y="-155" font-family="Liberation Sans,Helvetica,Arial,sans-serif" font-size="10.00" fill="#002b36">(1 values)</text>
</g>
<!-- X_test -->
<g id="node8" class="node">
<title>X_test</title>
<path fill="none" stroke="#268bd2" stroke-width="2" d="M110,-228C110,-228 80,-228 80,-228 74,-228 68,-222 68,-216 68,-216 68,-204 68,-204 68,-198 74,-192 80,-192 80,-192 110,-192 110,-192 116,-192 122,-198 122,-204 122,-204 122,-216 122,-216 122,-222 116,-228 110,-228"/>
<text text-anchor="start" x="76.5" y="-212.4" font-family="Liberation Sans,Helvetica,Arial,sans-serif" font-weight="bold" font-size="12.00" fill="#002b36">X_test</text>
<text text-anchor="start" x="76.5" y="-202" font-family="Liberation Sans,Helvetica,Arial,sans-serif" font-size="10.00" fill="#268bd2">1 values</text>
</g>
<!-- X_test&#45;&gt;eval_model -->
<g id="edge2" class="edge">
<title>X_test&#45;&gt;eval_model</title>
<path fill="none" stroke="#002b36" d="M111.21,-191.75C122.35,-180.16 137.66,-164.73 152,-152 156.38,-148.11 161.11,-144.14 165.82,-140.32"/>
<polygon fill="#002b36" stroke="#002b36" points="168.04,-143.02 173.67,-134.05 163.67,-137.55 168.04,-143.02"/>
<text text-anchor="middle" x="173.5" y="-166" font-family="Liberation Sans,Helvetica,Arial,sans-serif" font-size="10.00" fill="#002b36">X_test</text>
<text text-anchor="middle" x="173.5" y="-155" font-family="Liberation Sans,Helvetica,Arial,sans-serif" font-size="10.00" fill="#002b36">(1 values)</text>
</g>
<!-- eval_model&#45;&gt;v -->
<g id="edge1" class="edge">
<title>eval_model&#45;&gt;v</title>
<path fill="none" stroke="#002b36" d="M199,-93.98C199,-80.34 199,-61.75 199,-46.5"/>
<polygon fill="#002b36" stroke="#002b36" points="202.5,-46.1 199,-36.1 195.5,-46.1 202.5,-46.1"/>
<text text-anchor="middle" x="220.5" y="-68" font-family="Liberation Sans,Helvetica,Arial,sans-serif" font-size="10.00" fill="#002b36">output_0</text>
<text text-anchor="middle" x="220.5" y="-57" font-family="Liberation Sans,Helvetica,Arial,sans-serif" font-size="10.00" fill="#002b36">(1 values)</text>
</g>
<!-- train_model&#45;&gt;model -->
<g id="edge7" class="edge">
<title>train_model&#45;&gt;model</title>
<path fill="none" stroke="#002b36" d="M301.6,-285.98C301.31,-272.34 300.91,-253.75 300.59,-238.5"/>
<polygon fill="#002b36" stroke="#002b36" points="304.08,-238.02 300.36,-228.1 297.08,-238.17 304.08,-238.02"/>
<text text-anchor="middle" x="322.5" y="-260" font-family="Liberation Sans,Helvetica,Arial,sans-serif" font-size="10.00" fill="#002b36">output_0</text>
<text text-anchor="middle" x="322.5" y="-249" font-family="Liberation Sans,Helvetica,Arial,sans-serif" font-size="10.00" fill="#002b36">(1 values)</text>
</g>
<!-- generate_dataset&#45;&gt;X_test -->
<g id="edge5" class="edge">
<title>generate_dataset&#45;&gt;X_test</title>
<path fill="none" stroke="#002b36" d="M65.49,-285.98C70.96,-272.07 78.46,-253.03 84.52,-237.61"/>
<polygon fill="#002b36" stroke="#002b36" points="87.86,-238.68 88.27,-228.1 81.35,-236.12 87.86,-238.68"/>
<text text-anchor="middle" x="102.5" y="-260" font-family="Liberation Sans,Helvetica,Arial,sans-serif" font-size="10.00" fill="#002b36">output_1</text>
<text text-anchor="middle" x="102.5" y="-249" font-family="Liberation Sans,Helvetica,Arial,sans-serif" font-size="10.00" fill="#002b36">(1 values)</text>
</g>
</g>
</svg>
