<?xml version="1.0" encoding="UTF-8" standalone="no"?>
<!DOCTYPE svg PUBLIC "-//W3C//DTD SVG 1.1//EN"
 "http://www.w3.org/Graphics/SVG/1.1/DTD/svg11.dtd">
<!-- Generated by graphviz version 2.50.0 (0)
 -->
<!-- Title: G Pages: 1 -->
<svg width="448pt" height="634pt"
 viewBox="0.00 0.00 448.00 634.00" xmlns="http://www.w3.org/2000/svg" xmlns:xlink="http://www.w3.org/1999/xlink">
<g id="graph0" class="graph" transform="scale(1 1) rotate(0) translate(4 630)">
<title>G</title>
<polygon fill="white" stroke="transparent" points="-4,4 -4,-630 444,-630 444,4 -4,4"/>
<!-- v -->
<g id="node1" class="node">
<title>v</title>
<path fill="none" stroke="#268bd2" d="M341.5,-36C341.5,-36 271.5,-36 271.5,-36 265.5,-36 259.5,-30 259.5,-24 259.5,-24 259.5,-12 259.5,-12 259.5,-6 265.5,0 271.5,0 271.5,0 341.5,0 341.5,0 347.5,0 353.5,-6 353.5,-12 353.5,-12 353.5,-24 353.5,-24 353.5,-30 347.5,-36 341.5,-36"/>
<text text-anchor="start" x="303" y="-20.4" font-family="Liberation Sans,Helvetica,Arial,sans-serif" font-weight="bold" font-size="12.00" fill="#002b36">v</text>
<text text-anchor="start" x="267.5" y="-10" font-family="Liberation Sans,Helvetica,Arial,sans-serif" font-size="10.00" fill="#268bd2">1 values (1 sinks)</text>
</g>
<!-- random_seed -->
<g id="node2" class="node">
<title>random_seed</title>
<path fill="none" stroke="#268bd2" d="M343,-626C343,-626 262,-626 262,-626 256,-626 250,-620 250,-614 250,-614 250,-602 250,-602 250,-596 256,-590 262,-590 262,-590 343,-590 343,-590 349,-590 355,-596 355,-602 355,-602 355,-614 355,-614 355,-620 349,-626 343,-626"/>
<text text-anchor="start" x="263" y="-610.4" font-family="Liberation Sans,Helvetica,Arial,sans-serif" font-weight="bold" font-size="12.00" fill="#002b36">random_seed</text>
<text text-anchor="start" x="258" y="-600" font-family="Liberation Sans,Helvetica,Arial,sans-serif" font-size="10.00" fill="#268bd2">1 values (1 sources)</text>
</g>
<!-- generate_dataset -->
<g id="node9" class="node">
<title>generate_dataset</title>
<path fill="none" stroke="#dc322f" d="M348.5,-532C348.5,-532 256.5,-532 256.5,-532 250.5,-532 244.5,-526 244.5,-520 244.5,-520 244.5,-504 244.5,-504 244.5,-498 250.5,-492 256.5,-492 256.5,-492 348.5,-492 348.5,-492 354.5,-492 360.5,-498 360.5,-504 360.5,-504 360.5,-520 360.5,-520 360.5,-526 354.5,-532 348.5,-532"/>
<text text-anchor="start" x="252.5" y="-519.4" font-family="Liberation Sans,Helvetica,Arial,sans-serif" font-weight="bold" font-size="12.00" fill="#002b36">generate_dataset</text>
<text text-anchor="start" x="252.5" y="-509" font-family="Liberation Sans,Helvetica,Arial,sans-serif" font-size="10.00" fill="#002b36">@op:generate_dataset</text>
<text text-anchor="start" x="288" y="-499" font-family="Liberation Sans,Helvetica,Arial,sans-serif" font-size="10.00" fill="#dc322f">1 calls</text>
</g>
<!-- random_seed&#45;&gt;generate_dataset -->
<g id="edge7" class="edge">
<title>random_seed&#45;&gt;generate_dataset</title>
<path fill="none" stroke="#002b36" d="M302.5,-589.76C302.5,-576.5 302.5,-557.86 302.5,-542.27"/>
<polygon fill="#002b36" stroke="#002b36" points="306,-542.07 302.5,-532.07 299,-542.07 306,-542.07"/>
<text text-anchor="middle" x="332" y="-564" font-family="Liberation Sans,Helvetica,Arial,sans-serif" font-size="10.00" fill="#002b36">random_seed</text>
<text text-anchor="middle" x="332" y="-553" font-family="Liberation Sans,Helvetica,Arial,sans-serif" font-size="10.00" fill="#002b36">(1 values)</text>
</g>
<!-- X_test -->
<g id="node3" class="node">
<title>X_test</title>
<path fill="none" stroke="#268bd2" d="M345.5,-380C345.5,-380 315.5,-380 315.5,-380 309.5,-380 303.5,-374 303.5,-368 303.5,-368 303.5,-356 303.5,-356 303.5,-350 309.5,-344 315.5,-344 315.5,-344 345.5,-344 345.5,-344 351.5,-344 357.5,-350 357.5,-356 357.5,-356 357.5,-368 357.5,-368 357.5,-374 351.5,-380 345.5,-380"/>
<text text-anchor="start" x="312" y="-364.4" font-family="Liberation Sans,Helvetica,Arial,sans-serif" font-weight="bold" font-size="12.00" fill="#002b36">X_test</text>
<text text-anchor="start" x="312" y="-354" font-family="Liberation Sans,Helvetica,Arial,sans-serif" font-size="10.00" fill="#268bd2">1 values</text>
</g>
<!-- eval_model -->
<g id="node10" class="node">
<title>eval_model</title>
<path fill="none" stroke="#dc322f" d="M339.5,-134C339.5,-134 273.5,-134 273.5,-134 267.5,-134 261.5,-128 261.5,-122 261.5,-122 261.5,-106 261.5,-106 261.5,-100 267.5,-94 273.5,-94 273.5,-94 339.5,-94 339.5,-94 345.5,-94 351.5,-100 351.5,-106 351.5,-106 351.5,-122 351.5,-122 351.5,-128 345.5,-134 339.5,-134"/>
<text text-anchor="start" x="273.5" y="-121.4" font-family="Liberation Sans,Helvetica,Arial,sans-serif" font-weight="bold" font-size="12.00" fill="#002b36">eval_model</text>
<text text-anchor="start" x="269.5" y="-111" font-family="Liberation Sans,Helvetica,Arial,sans-serif" font-size="10.00" fill="#002b36">@op:eval_model</text>
<text text-anchor="start" x="292" y="-101" font-family="Liberation Sans,Helvetica,Arial,sans-serif" font-size="10.00" fill="#dc322f">1 calls</text>
</g>
<!-- X_test&#45;&gt;eval_model -->
<g id="edge2" class="edge">
<title>X_test&#45;&gt;eval_model</title>
<path fill="none" stroke="#002b36" d="M328.81,-343.7C324.76,-302.15 314.43,-196.31 309.38,-144.49"/>
<polygon fill="#002b36" stroke="#002b36" points="312.84,-143.91 308.38,-134.29 305.87,-144.59 312.84,-143.91"/>
<text text-anchor="middle" x="342" y="-260" font-family="Liberation Sans,Helvetica,Arial,sans-serif" font-size="10.00" fill="#002b36">X_test</text>
<text text-anchor="middle" x="342" y="-249" font-family="Liberation Sans,Helvetica,Arial,sans-serif" font-size="10.00" fill="#002b36">(1 values)</text>
</g>
<!-- y_test -->
<g id="node4" class="node">
<title>y_test</title>
<path fill="none" stroke="#268bd2" d="M428,-228C428,-228 347,-228 347,-228 341,-228 335,-222 335,-216 335,-216 335,-204 335,-204 335,-198 341,-192 347,-192 347,-192 428,-192 428,-192 434,-192 440,-198 440,-204 440,-204 440,-216 440,-216 440,-222 434,-228 428,-228"/>
<text text-anchor="start" x="370" y="-212.4" font-family="Liberation Sans,Helvetica,Arial,sans-serif" font-weight="bold" font-size="12.00" fill="#002b36">y_test</text>
<text text-anchor="start" x="343" y="-202" font-family="Liberation Sans,Helvetica,Arial,sans-serif" font-size="10.00" fill="#268bd2">1 values (1 sources)</text>
</g>
<!-- y_test&#45;&gt;eval_model -->
<g id="edge4" class="edge">
<title>y_test&#45;&gt;eval_model</title>
<path fill="none" stroke="#002b36" d="M372.64,-191.76C360.66,-177.86 343.6,-158.06 329.81,-142.05"/>
<polygon fill="#002b36" stroke="#002b36" points="332.11,-139.36 322.93,-134.07 326.81,-143.93 332.11,-139.36"/>
<text text-anchor="middle" x="378" y="-166" font-family="Liberation Sans,Helvetica,Arial,sans-serif" font-size="10.00" fill="#002b36">y_test</text>
<text text-anchor="middle" x="378" y="-155" font-family="Liberation Sans,Helvetica,Arial,sans-serif" font-size="10.00" fill="#002b36">(1 values)</text>
</g>
<!-- model -->
<g id="node5" class="node">
<title>model</title>
<path fill="none" stroke="#268bd2" d="M243.5,-228C243.5,-228 213.5,-228 213.5,-228 207.5,-228 201.5,-222 201.5,-216 201.5,-216 201.5,-204 201.5,-204 201.5,-198 207.5,-192 213.5,-192 213.5,-192 243.5,-192 243.5,-192 249.5,-192 255.5,-198 255.5,-204 255.5,-204 255.5,-216 255.5,-216 255.5,-222 249.5,-228 243.5,-228"/>
<text text-anchor="start" x="210.5" y="-212.4" font-family="Liberation Sans,Helvetica,Arial,sans-serif" font-weight="bold" font-size="12.00" fill="#002b36">model</text>
<text text-anchor="start" x="210" y="-202" font-family="Liberation Sans,Helvetica,Arial,sans-serif" font-size="10.00" fill="#268bd2">1 values</text>
</g>
<!-- model&#45;&gt;eval_model -->
<g id="edge3" class="edge">
<title>model&#45;&gt;eval_model</title>
<path fill="none" stroke="#002b36" d="M231.79,-191.86C234.79,-179.73 240.22,-163.62 249.5,-152 252.91,-147.74 256.94,-143.81 261.27,-140.23"/>
<polygon fill="#002b36" stroke="#002b36" points="263.42,-142.99 269.3,-134.17 259.21,-137.4 263.42,-142.99"/>
<text text-anchor="middle" x="271" y="-166" font-family="Liberation Sans,Helvetica,Arial,sans-serif" font-size="10.00" fill="#002b36">model</text>
<text text-anchor="middle" x="271" y="-155" font-family="Liberation Sans,Helvetica,Arial,sans-serif" font-size="10.00" fill="#002b36">(1 values)</text>
</g>
<!-- X_train -->
<g id="node6" class="node">
<title>X_train</title>
<path fill="none" stroke="#268bd2" d="M291,-434C291,-434 258,-434 258,-434 252,-434 246,-428 246,-422 246,-422 246,-410 246,-410 246,-404 252,-398 258,-398 258,-398 291,-398 291,-398 297,-398 303,-404 303,-410 303,-410 303,-422 303,-422 303,-428 297,-434 291,-434"/>
<text text-anchor="start" x="254" y="-418.4" font-family="Liberation Sans,Helvetica,Arial,sans-serif" font-weight="bold" font-size="12.00" fill="#002b36">X_train</text>
<text text-anchor="start" x="256" y="-408" font-family="Liberation Sans,Helvetica,Arial,sans-serif" font-size="10.00" fill="#268bd2">1 values</text>
</g>
<!-- train_model -->
<g id="node11" class="node">
<title>train_model</title>
<path fill="none" stroke="#dc322f" d="M242,-326C242,-326 175,-326 175,-326 169,-326 163,-320 163,-314 163,-314 163,-298 163,-298 163,-292 169,-286 175,-286 175,-286 242,-286 242,-286 248,-286 254,-292 254,-298 254,-298 254,-314 254,-314 254,-320 248,-326 242,-326"/>
<text text-anchor="start" x="174.5" y="-313.4" font-family="Liberation Sans,Helvetica,Arial,sans-serif" font-weight="bold" font-size="12.00" fill="#002b36">train_model</text>
<text text-anchor="start" x="171" y="-303" font-family="Liberation Sans,Helvetica,Arial,sans-serif" font-size="10.00" fill="#002b36">@op:train_model</text>
<text text-anchor="start" x="194" y="-293" font-family="Liberation Sans,Helvetica,Arial,sans-serif" font-size="10.00" fill="#dc322f">1 calls</text>
</g>
<!-- X_train&#45;&gt;train_model -->
<g id="edge9" class="edge">
<title>X_train&#45;&gt;train_model</title>
<path fill="none" stroke="#002b36" d="M262.87,-397.66C259.17,-392.06 255.11,-385.8 251.5,-380 242.34,-365.29 232.51,-348.66 224.56,-334.99"/>
<polygon fill="#002b36" stroke="#002b36" points="227.42,-332.96 219.38,-326.06 221.37,-336.47 227.42,-332.96"/>
<text text-anchor="middle" x="273" y="-365" font-family="Liberation Sans,Helvetica,Arial,sans-serif" font-size="10.00" fill="#002b36">X_train</text>
<text text-anchor="middle" x="273" y="-354" font-family="Liberation Sans,Helvetica,Arial,sans-serif" font-size="10.00" fill="#002b36">(1 values)</text>
</g>
<!-- y_train -->
<g id="node7" class="node">
<title>y_train</title>
<path fill="none" stroke="#268bd2" d="M216,-434C216,-434 135,-434 135,-434 129,-434 123,-428 123,-422 123,-422 123,-410 123,-410 123,-404 129,-398 135,-398 135,-398 216,-398 216,-398 222,-398 228,-404 228,-410 228,-410 228,-422 228,-422 228,-428 222,-434 216,-434"/>
<text text-anchor="start" x="155.5" y="-418.4" font-family="Liberation Sans,Helvetica,Arial,sans-serif" font-weight="bold" font-size="12.00" fill="#002b36">y_train</text>
<text text-anchor="start" x="131" y="-408" font-family="Liberation Sans,Helvetica,Arial,sans-serif" font-size="10.00" fill="#268bd2">1 values (1 sources)</text>
</g>
<!-- y_train&#45;&gt;train_model -->
<g id="edge11" class="edge">
<title>y_train&#45;&gt;train_model</title>
<path fill="none" stroke="#002b36" d="M175.93,-397.88C176.76,-383.2 179.09,-361.67 185.5,-344 186.57,-341.04 187.91,-338.06 189.39,-335.15"/>
<polygon fill="#002b36" stroke="#002b36" points="192.58,-336.61 194.48,-326.19 186.5,-333.16 192.58,-336.61"/>
<text text-anchor="middle" x="207" y="-365" font-family="Liberation Sans,Helvetica,Arial,sans-serif" font-size="10.00" fill="#002b36">y_train</text>
<text text-anchor="middle" x="207" y="-354" font-family="Liberation Sans,Helvetica,Arial,sans-serif" font-size="10.00" fill="#002b36">(1 values)</text>
</g>
<!-- n_estimators -->
<g id="node8" class="node">
<title>n_estimators</title>
<path fill="none" stroke="#268bd2" d="M93,-434C93,-434 12,-434 12,-434 6,-434 0,-428 0,-422 0,-422 0,-410 0,-410 0,-404 6,-398 12,-398 12,-398 93,-398 93,-398 99,-398 105,-404 105,-410 105,-410 105,-422 105,-422 105,-428 99,-434 93,-434"/>
<text text-anchor="start" x="15" y="-418.4" font-family="Liberation Sans,Helvetica,Arial,sans-serif" font-weight="bold" font-size="12.00" fill="#002b36">n_estimators</text>
<text text-anchor="start" x="8" y="-408" font-family="Liberation Sans,Helvetica,Arial,sans-serif" font-size="10.00" fill="#268bd2">1 values (1 sources)</text>
</g>
<!-- n_estimators&#45;&gt;train_model -->
<g id="edge10" class="edge">
<title>n_estimators&#45;&gt;train_model</title>
<path fill="none" stroke="#002b36" d="M64.71,-397.78C76.64,-382 96.1,-358.89 117.5,-344 128.43,-336.39 141.16,-329.99 153.58,-324.75"/>
<polygon fill="#002b36" stroke="#002b36" points="155,-327.95 162.98,-320.98 152.39,-321.46 155,-327.95"/>
<text text-anchor="middle" x="146" y="-365" font-family="Liberation Sans,Helvetica,Arial,sans-serif" font-size="10.00" fill="#002b36">n_estimators</text>
<text text-anchor="middle" x="146" y="-354" font-family="Liberation Sans,Helvetica,Arial,sans-serif" font-size="10.00" fill="#002b36">(1 values)</text>
</g>
<!-- generate_dataset&#45;&gt;X_test -->
<g id="edge5" class="edge">
<title>generate_dataset&#45;&gt;X_test</title>
<path fill="none" stroke="#002b36" d="M308.71,-491.93C310.43,-486.21 312.18,-479.89 313.5,-474 319.84,-445.72 324.55,-412.85 327.38,-390.26"/>
<polygon fill="#002b36" stroke="#002b36" points="330.89,-390.41 328.62,-380.06 323.94,-389.56 330.89,-390.41"/>
<text text-anchor="middle" x="339" y="-466" font-family="Liberation Sans,Helvetica,Arial,sans-serif" font-size="10.00" fill="#002b36">output_1</text>
<text text-anchor="middle" x="339" y="-455" font-family="Liberation Sans,Helvetica,Arial,sans-serif" font-size="10.00" fill="#002b36">(1 values)</text>
</g>
<!-- generate_dataset&#45;&gt;X_train -->
<g id="edge6" class="edge">
<title>generate_dataset&#45;&gt;X_train</title>
<path fill="none" stroke="#002b36" d="M281.28,-491.61C276.89,-486.37 272.87,-480.37 270.5,-474 267.02,-464.65 266.89,-453.84 268.02,-444.17"/>
<polygon fill="#002b36" stroke="#002b36" points="271.48,-444.68 269.64,-434.24 264.57,-443.55 271.48,-444.68"/>
<text text-anchor="middle" x="292" y="-466" font-family="Liberation Sans,Helvetica,Arial,sans-serif" font-size="10.00" fill="#002b36">output_0</text>
<text text-anchor="middle" x="292" y="-455" font-family="Liberation Sans,Helvetica,Arial,sans-serif" font-size="10.00" fill="#002b36">(1 values)</text>
</g>
<!-- eval_model&#45;&gt;v -->
<g id="edge1" class="edge">
<title>eval_model&#45;&gt;v</title>
<path fill="none" stroke="#002b36" d="M306.5,-93.98C306.5,-80.34 306.5,-61.75 306.5,-46.5"/>
<polygon fill="#002b36" stroke="#002b36" points="310,-46.1 306.5,-36.1 303,-46.1 310,-46.1"/>
<text text-anchor="middle" x="328" y="-68" font-family="Liberation Sans,Helvetica,Arial,sans-serif" font-size="10.00" fill="#002b36">output_0</text>
<text text-anchor="middle" x="328" y="-57" font-family="Liberation Sans,Helvetica,Arial,sans-serif" font-size="10.00" fill="#002b36">(1 values)</text>
</g>
<!-- train_model&#45;&gt;model -->
<g id="edge8" class="edge">
<title>train_model&#45;&gt;model</title>
<path fill="none" stroke="#002b36" d="M212.55,-285.98C215.48,-272.2 219.48,-253.39 222.74,-238.05"/>
<polygon fill="#002b36" stroke="#002b36" points="226.2,-238.61 224.86,-228.1 219.36,-237.15 226.2,-238.61"/>
<text text-anchor="middle" x="243" y="-260" font-family="Liberation Sans,Helvetica,Arial,sans-serif" font-size="10.00" fill="#002b36">output_0</text>
<text text-anchor="middle" x="243" y="-249" font-family="Liberation Sans,Helvetica,Arial,sans-serif" font-size="10.00" fill="#002b36">(1 values)</text>
</g>
</g>
</svg>
