<?xml version="1.0" encoding="UTF-8" standalone="no"?>
<!DOCTYPE svg PUBLIC "-//W3C//DTD SVG 1.1//EN"
 "http://www.w3.org/Graphics/SVG/1.1/DTD/svg11.dtd">
<!-- Generated by graphviz version 2.50.0 (0)
 -->
<!-- Title: G Pages: 1 -->
<svg width="419pt" height="50pt"
 viewBox="0.00 0.00 419.00 50.00" xmlns="http://www.w3.org/2000/svg" xmlns:xlink="http://www.w3.org/1999/xlink">
<g id="graph0" class="graph" transform="scale(1 1) rotate(0) translate(4 46)">
<title>G</title>
<polygon fill="white" stroke="transparent" points="-4,4 -4,-46 415,-46 415,4 -4,4"/>
<!-- x -->
<g id="node1" class="node">
<title>x</title>
<path fill="none" stroke="#268bd2" stroke-width="1.5" d="M93,-38C93,-38 12,-38 12,-38 6,-38 0,-32 0,-26 0,-26 0,-14 0,-14 0,-8 6,-2 12,-2 12,-2 93,-2 93,-2 99,-2 105,-8 105,-14 105,-14 105,-26 105,-26 105,-32 99,-38 93,-38"/>
<text text-anchor="start" x="49" y="-22.4" font-family="Liberation Sans,Helvetica,Arial,sans-serif" font-weight="bold" font-size="12.00" fill="#002b36">x</text>
<text text-anchor="start" x="8" y="-12" font-family="Liberation Sans,Helvetica,Arial,sans-serif" font-size="10.00" fill="#268bd2">5 values (5 sources)</text>
</g>
<!-- inc -->
<g id="node3" class="node">
<title>inc</title>
<path fill="none" stroke="#dc322f" stroke-width="1.5" d="M226,-40C226,-40 196,-40 196,-40 190,-40 184,-34 184,-28 184,-28 184,-12 184,-12 184,-6 190,0 196,0 196,0 226,0 226,0 232,0 238,-6 238,-12 238,-12 238,-28 238,-28 238,-34 232,-40 226,-40"/>
<text text-anchor="start" x="202" y="-27.4" font-family="Liberation Sans,Helvetica,Arial,sans-serif" font-weight="bold" font-size="12.00" fill="#002b36">inc</text>
<text text-anchor="start" x="192.5" y="-17" font-family="Liberation Sans,Helvetica,Arial,sans-serif" font-size="10.00" fill="#002b36">@op:inc</text>
<text text-anchor="start" x="196.5" y="-7" font-family="Liberation Sans,Helvetica,Arial,sans-serif" font-size="10.00" fill="#dc322f">5 calls</text>
</g>
<!-- x&#45;&gt;inc -->
<g id="edge2" class="edge">
<title>x&#45;&gt;inc</title>
<path fill="none" stroke="#002b36" d="M105.18,-20C127.62,-20 153.37,-20 173.73,-20"/>
<polygon fill="#002b36" stroke="#002b36" points="173.84,-23.5 183.84,-20 173.84,-16.5 173.84,-23.5"/>
<text text-anchor="middle" x="144.5" y="-34" font-family="Liberation Sans,Helvetica,Arial,sans-serif" font-size="10.00" fill="#002b36">x</text>
<text text-anchor="middle" x="144.5" y="-23" font-family="Liberation Sans,Helvetica,Arial,sans-serif" font-size="10.00" fill="#002b36">(5 values)</text>
</g>
<!-- var_0 -->
<g id="node2" class="node">
<title>var_0</title>
<path fill="none" stroke="#268bd2" stroke-width="1.5" d="M399,-38C399,-38 329,-38 329,-38 323,-38 317,-32 317,-26 317,-26 317,-14 317,-14 317,-8 323,-2 329,-2 329,-2 399,-2 399,-2 405,-2 411,-8 411,-14 411,-14 411,-26 411,-26 411,-32 405,-38 399,-38"/>
<text text-anchor="start" x="348" y="-22.4" font-family="Liberation Sans,Helvetica,Arial,sans-serif" font-weight="bold" font-size="12.00" fill="#002b36">var_0</text>
<text text-anchor="start" x="325" y="-12" font-family="Liberation Sans,Helvetica,Arial,sans-serif" font-size="10.00" fill="#268bd2">5 values (5 sinks)</text>
</g>
<!-- inc&#45;&gt;var_0 -->
<g id="edge1" class="edge">
<title>inc&#45;&gt;var_0</title>
<path fill="none" stroke="#002b36" d="M238.3,-20C257.15,-20 283.23,-20 306.67,-20"/>
<polygon fill="#002b36" stroke="#002b36" points="306.87,-23.5 316.87,-20 306.87,-16.5 306.87,-23.5"/>
<text text-anchor="middle" x="277.5" y="-34" font-family="Liberation Sans,Helvetica,Arial,sans-serif" font-size="10.00" fill="#002b36">output_0</text>
<text text-anchor="middle" x="277.5" y="-23" font-family="Liberation Sans,Helvetica,Arial,sans-serif" font-size="10.00" fill="#002b36">(5 values)</text>
</g>
</g>
</svg>
