<?xml version="1.0" encoding="UTF-8" standalone="no"?>
<!DOCTYPE svg PUBLIC "-//W3C//DTD SVG 1.1//EN"
 "http://www.w3.org/Graphics/SVG/1.1/DTD/svg11.dtd">
<!-- Generated by graphviz version 2.50.0 (0)
 -->
<!-- Title: G Pages: 1 -->
<svg width="727pt" height="93pt"
 viewBox="0.00 0.00 727.00 93.00" xmlns="http://www.w3.org/2000/svg" xmlns:xlink="http://www.w3.org/1999/xlink">
<g id="graph0" class="graph" transform="scale(1 1) rotate(0) translate(4 89)">
<title>G</title>
<polygon fill="white" stroke="transparent" points="-4,4 -4,-89 723,-89 723,4 -4,4"/>
<!-- x -->
<g id="node1" class="node">
<title>x</title>
<path fill="none" stroke="#268bd2" stroke-width="2" d="M93,-62C93,-62 12,-62 12,-62 6,-62 0,-56 0,-50 0,-50 0,-38 0,-38 0,-32 6,-26 12,-26 12,-26 93,-26 93,-26 99,-26 105,-32 105,-38 105,-38 105,-50 105,-50 105,-56 99,-62 93,-62"/>
<text text-anchor="start" x="49" y="-46.4" font-family="Liberation Sans,Helvetica,Arial,sans-serif" font-weight="bold" font-size="12.00" fill="#002b36">x</text>
<text text-anchor="start" x="8" y="-36" font-family="Liberation Sans,Helvetica,Arial,sans-serif" font-size="10.00" fill="#268bd2">5 values (5 sources)</text>
</g>
<!-- add -->
<g id="node4" class="node">
<title>add</title>
<path fill="none" stroke="#dc322f" stroke-width="2" d="M534,-65C534,-65 502,-65 502,-65 496,-65 490,-59 490,-53 490,-53 490,-37 490,-37 490,-31 496,-25 502,-25 502,-25 534,-25 534,-25 540,-25 546,-31 546,-37 546,-37 546,-53 546,-53 546,-59 540,-65 534,-65"/>
<text text-anchor="start" x="507" y="-52.4" font-family="Liberation Sans,Helvetica,Arial,sans-serif" font-weight="bold" font-size="12.00" fill="#002b36">add</text>
<text text-anchor="start" x="498" y="-42" font-family="Liberation Sans,Helvetica,Arial,sans-serif" font-size="10.00" fill="#002b36">@op:add</text>
<text text-anchor="start" x="503.5" y="-32" font-family="Liberation Sans,Helvetica,Arial,sans-serif" font-size="10.00" fill="#dc322f">3 calls</text>
</g>
<!-- x&#45;&gt;add -->
<g id="edge2" class="edge">
<title>x&#45;&gt;add</title>
<path fill="none" stroke="#002b36" d="M105.03,-52.25C111.07,-52.97 117.16,-53.58 123,-54 277.72,-65.07 317.64,-69.28 472,-54 474.5,-53.75 477.06,-53.43 479.64,-53.05"/>
<polygon fill="#002b36" stroke="#002b36" points="480.24,-56.5 489.52,-51.39 479.08,-49.6 480.24,-56.5"/>
<text text-anchor="middle" x="277.5" y="-77" font-family="Liberation Sans,Helvetica,Arial,sans-serif" font-size="10.00" fill="#002b36">x</text>
<text text-anchor="middle" x="277.5" y="-66" font-family="Liberation Sans,Helvetica,Arial,sans-serif" font-size="10.00" fill="#002b36">(3 values)</text>
</g>
<!-- inc -->
<g id="node5" class="node">
<title>inc</title>
<path fill="none" stroke="#dc322f" stroke-width="2" d="M226,-40C226,-40 196,-40 196,-40 190,-40 184,-34 184,-28 184,-28 184,-12 184,-12 184,-6 190,0 196,0 196,0 226,0 226,0 232,0 238,-6 238,-12 238,-12 238,-28 238,-28 238,-34 232,-40 226,-40"/>
<text text-anchor="start" x="202" y="-27.4" font-family="Liberation Sans,Helvetica,Arial,sans-serif" font-weight="bold" font-size="12.00" fill="#002b36">inc</text>
<text text-anchor="start" x="192.5" y="-17" font-family="Liberation Sans,Helvetica,Arial,sans-serif" font-size="10.00" fill="#002b36">@op:inc</text>
<text text-anchor="start" x="196.5" y="-7" font-family="Liberation Sans,Helvetica,Arial,sans-serif" font-size="10.00" fill="#dc322f">5 calls</text>
</g>
<!-- x&#45;&gt;inc -->
<g id="edge3" class="edge">
<title>x&#45;&gt;inc</title>
<path fill="none" stroke="#002b36" d="M105.08,-34.89C111.12,-33.89 117.19,-32.9 123,-32 139.53,-29.43 157.86,-26.86 173.42,-24.76"/>
<polygon fill="#002b36" stroke="#002b36" points="174.25,-28.19 183.7,-23.39 173.32,-21.25 174.25,-28.19"/>
<text text-anchor="middle" x="144.5" y="-46" font-family="Liberation Sans,Helvetica,Arial,sans-serif" font-size="10.00" fill="#002b36">x</text>
<text text-anchor="middle" x="144.5" y="-35" font-family="Liberation Sans,Helvetica,Arial,sans-serif" font-size="10.00" fill="#002b36">(5 values)</text>
</g>
<!-- var_0 -->
<g id="node2" class="node">
<title>var_0</title>
<path fill="none" stroke="#268bd2" stroke-width="2" d="M399,-40C399,-40 329,-40 329,-40 323,-40 317,-34 317,-28 317,-28 317,-16 317,-16 317,-10 323,-4 329,-4 329,-4 399,-4 399,-4 405,-4 411,-10 411,-16 411,-16 411,-28 411,-28 411,-34 405,-40 399,-40"/>
<text text-anchor="start" x="348" y="-24.4" font-family="Liberation Sans,Helvetica,Arial,sans-serif" font-weight="bold" font-size="12.00" fill="#002b36">var_0</text>
<text text-anchor="start" x="325" y="-14" font-family="Liberation Sans,Helvetica,Arial,sans-serif" font-size="10.00" fill="#268bd2">5 values (2 sinks)</text>
</g>
<!-- var_0&#45;&gt;add -->
<g id="edge4" class="edge">
<title>var_0&#45;&gt;add</title>
<path fill="none" stroke="#002b36" d="M411.09,-24.4C430.07,-25.88 452.2,-28.25 472,-32 474.52,-32.48 477.1,-33.03 479.68,-33.64"/>
<polygon fill="#002b36" stroke="#002b36" points="479.03,-37.09 489.59,-36.2 480.78,-30.31 479.03,-37.09"/>
<text text-anchor="middle" x="450.5" y="-46" font-family="Liberation Sans,Helvetica,Arial,sans-serif" font-size="10.00" fill="#002b36">y</text>
<text text-anchor="middle" x="450.5" y="-35" font-family="Liberation Sans,Helvetica,Arial,sans-serif" font-size="10.00" fill="#002b36">(3 values)</text>
</g>
<!-- var_1 -->
<g id="node3" class="node">
<title>var_1</title>
<path fill="none" stroke="#268bd2" stroke-width="2" d="M707,-63C707,-63 637,-63 637,-63 631,-63 625,-57 625,-51 625,-51 625,-39 625,-39 625,-33 631,-27 637,-27 637,-27 707,-27 707,-27 713,-27 719,-33 719,-39 719,-39 719,-51 719,-51 719,-57 713,-63 707,-63"/>
<text text-anchor="start" x="656" y="-47.4" font-family="Liberation Sans,Helvetica,Arial,sans-serif" font-weight="bold" font-size="12.00" fill="#002b36">var_1</text>
<text text-anchor="start" x="633" y="-37" font-family="Liberation Sans,Helvetica,Arial,sans-serif" font-size="10.00" fill="#268bd2">3 values (3 sinks)</text>
</g>
<!-- add&#45;&gt;var_1 -->
<g id="edge5" class="edge">
<title>add&#45;&gt;var_1</title>
<path fill="none" stroke="#002b36" d="M546.17,-45C565.22,-45 591.35,-45 614.79,-45"/>
<polygon fill="#002b36" stroke="#002b36" points="614.98,-48.5 624.98,-45 614.98,-41.5 614.98,-48.5"/>
<text text-anchor="middle" x="585.5" y="-59" font-family="Liberation Sans,Helvetica,Arial,sans-serif" font-size="10.00" fill="#002b36">output_0</text>
<text text-anchor="middle" x="585.5" y="-48" font-family="Liberation Sans,Helvetica,Arial,sans-serif" font-size="10.00" fill="#002b36">(3 values)</text>
</g>
<!-- inc&#45;&gt;var_0 -->
<g id="edge1" class="edge">
<title>inc&#45;&gt;var_0</title>
<path fill="none" stroke="#002b36" d="M238.3,-20.35C257.15,-20.6 283.23,-20.94 306.67,-21.25"/>
<polygon fill="#002b36" stroke="#002b36" points="306.83,-24.76 316.87,-21.39 306.92,-17.76 306.83,-24.76"/>
<text text-anchor="middle" x="277.5" y="-35" font-family="Liberation Sans,Helvetica,Arial,sans-serif" font-size="10.00" fill="#002b36">output_0</text>
<text text-anchor="middle" x="277.5" y="-24" font-family="Liberation Sans,Helvetica,Arial,sans-serif" font-size="10.00" fill="#002b36">(5 values)</text>
</g>
</g>
</svg>
