<?xml version="1.0" encoding="UTF-8" standalone="no"?>
<!DOCTYPE svg PUBLIC "-//W3C//DTD SVG 1.1//EN"
 "http://www.w3.org/Graphics/SVG/1.1/DTD/svg11.dtd">
<!-- Generated by graphviz version 2.50.0 (0)
 -->
<!-- Title: G Pages: 1 -->
<svg width="263pt" height="428pt"
 viewBox="0.00 0.00 263.00 428.00" xmlns="http://www.w3.org/2000/svg" xmlns:xlink="http://www.w3.org/1999/xlink">
<g id="graph0" class="graph" transform="scale(1 1) rotate(0) translate(4 424)">
<title>G</title>
<polygon fill="white" stroke="transparent" points="-4,4 -4,-424 259,-424 259,4 -4,4"/>
<!-- random_seed -->
<g id="node1" class="node">
<title>random_seed</title>
<path fill="none" stroke="#268bd2" stroke-width="1.5" d="M106,-420C106,-420 25,-420 25,-420 19,-420 13,-414 13,-408 13,-408 13,-396 13,-396 13,-390 19,-384 25,-384 25,-384 106,-384 106,-384 112,-384 118,-390 118,-396 118,-396 118,-408 118,-408 118,-414 112,-420 106,-420"/>
<text text-anchor="start" x="26" y="-404.4" font-family="Liberation Sans,Helvetica,Arial,sans-serif" font-weight="bold" font-size="12.00" fill="#002b36">random_seed</text>
<text text-anchor="start" x="21" y="-394" font-family="Liberation Sans,Helvetica,Arial,sans-serif" font-size="10.00" fill="#268bd2">1 values (1 sources)</text>
</g>
<!-- generate_dataset -->
<g id="node7" class="node">
<title>generate_dataset</title>
<path fill="none" stroke="#dc322f" stroke-width="1.5" d="M111.5,-326C111.5,-326 19.5,-326 19.5,-326 13.5,-326 7.5,-320 7.5,-314 7.5,-314 7.5,-298 7.5,-298 7.5,-292 13.5,-286 19.5,-286 19.5,-286 111.5,-286 111.5,-286 117.5,-286 123.5,-292 123.5,-298 123.5,-298 123.5,-314 123.5,-314 123.5,-320 117.5,-326 111.5,-326"/>
<text text-anchor="start" x="15.5" y="-313.4" font-family="Liberation Sans,Helvetica,Arial,sans-serif" font-weight="bold" font-size="12.00" fill="#002b36">generate_dataset</text>
<text text-anchor="start" x="15.5" y="-303" font-family="Liberation Sans,Helvetica,Arial,sans-serif" font-size="10.00" fill="#002b36">@op:generate_dataset</text>
<text text-anchor="start" x="51" y="-293" font-family="Liberation Sans,Helvetica,Arial,sans-serif" font-size="10.00" fill="#dc322f">1 calls</text>
</g>
<!-- random_seed&#45;&gt;generate_dataset -->
<g id="edge8" class="edge">
<title>random_seed&#45;&gt;generate_dataset</title>
<path fill="none" stroke="#002b36" d="M65.5,-383.76C65.5,-370.5 65.5,-351.86 65.5,-336.27"/>
<polygon fill="#002b36" stroke="#002b36" points="69,-336.07 65.5,-326.07 62,-336.07 69,-336.07"/>
<text text-anchor="middle" x="95" y="-358" font-family="Liberation Sans,Helvetica,Arial,sans-serif" font-size="10.00" fill="#002b36">random_seed</text>
<text text-anchor="middle" x="95" y="-347" font-family="Liberation Sans,Helvetica,Arial,sans-serif" font-size="10.00" fill="#002b36">(1 values)</text>
</g>
<!-- n_estimators -->
<g id="node2" class="node">
<title>n_estimators</title>
<path fill="none" stroke="#268bd2" stroke-width="1.5" d="M243,-228C243,-228 162,-228 162,-228 156,-228 150,-222 150,-216 150,-216 150,-204 150,-204 150,-198 156,-192 162,-192 162,-192 243,-192 243,-192 249,-192 255,-198 255,-204 255,-204 255,-216 255,-216 255,-222 249,-228 243,-228"/>
<text text-anchor="start" x="165" y="-212.4" font-family="Liberation Sans,Helvetica,Arial,sans-serif" font-weight="bold" font-size="12.00" fill="#002b36">n_estimators</text>
<text text-anchor="start" x="158" y="-202" font-family="Liberation Sans,Helvetica,Arial,sans-serif" font-size="10.00" fill="#268bd2">2 values (2 sources)</text>
</g>
<!-- train_model -->
<g id="node8" class="node">
<title>train_model</title>
<path fill="none" stroke="#dc322f" stroke-width="1.5" d="M137,-134C137,-134 70,-134 70,-134 64,-134 58,-128 58,-122 58,-122 58,-106 58,-106 58,-100 64,-94 70,-94 70,-94 137,-94 137,-94 143,-94 149,-100 149,-106 149,-106 149,-122 149,-122 149,-128 143,-134 137,-134"/>
<text text-anchor="start" x="69.5" y="-121.4" font-family="Liberation Sans,Helvetica,Arial,sans-serif" font-weight="bold" font-size="12.00" fill="#002b36">train_model</text>
<text text-anchor="start" x="66" y="-111" font-family="Liberation Sans,Helvetica,Arial,sans-serif" font-size="10.00" fill="#002b36">@op:train_model</text>
<text text-anchor="start" x="89" y="-101" font-family="Liberation Sans,Helvetica,Arial,sans-serif" font-size="10.00" fill="#dc322f">3 calls</text>
</g>
<!-- n_estimators&#45;&gt;train_model -->
<g id="edge4" class="edge">
<title>n_estimators&#45;&gt;train_model</title>
<path fill="none" stroke="#002b36" d="M188.17,-191.86C178.09,-180.17 164.04,-164.59 150.5,-152 146.41,-148.2 141.97,-144.36 137.5,-140.67"/>
<polygon fill="#002b36" stroke="#002b36" points="139.48,-137.78 129.5,-134.23 135.09,-143.23 139.48,-137.78"/>
<text text-anchor="middle" x="199" y="-166" font-family="Liberation Sans,Helvetica,Arial,sans-serif" font-size="10.00" fill="#002b36">n_estimators</text>
<text text-anchor="middle" x="199" y="-155" font-family="Liberation Sans,Helvetica,Arial,sans-serif" font-size="10.00" fill="#002b36">(2 values)</text>
</g>
<!-- X_train -->
<g id="node3" class="node">
<title>X_train</title>
<path fill="none" stroke="#268bd2" stroke-width="1.5" d="M45,-228C45,-228 12,-228 12,-228 6,-228 0,-222 0,-216 0,-216 0,-204 0,-204 0,-198 6,-192 12,-192 12,-192 45,-192 45,-192 51,-192 57,-198 57,-204 57,-204 57,-216 57,-216 57,-222 51,-228 45,-228"/>
<text text-anchor="start" x="8" y="-212.4" font-family="Liberation Sans,Helvetica,Arial,sans-serif" font-weight="bold" font-size="12.00" fill="#002b36">X_train</text>
<text text-anchor="start" x="10" y="-202" font-family="Liberation Sans,Helvetica,Arial,sans-serif" font-size="10.00" fill="#268bd2">1 values</text>
</g>
<!-- X_train&#45;&gt;train_model -->
<g id="edge3" class="edge">
<title>X_train&#45;&gt;train_model</title>
<path fill="none" stroke="#002b36" d="M34.56,-191.89C39.33,-179.92 46.79,-164 56.5,-152 59.6,-148.17 63.17,-144.48 66.93,-141.02"/>
<polygon fill="#002b36" stroke="#002b36" points="69.5,-143.43 74.81,-134.26 64.94,-138.11 69.5,-143.43"/>
<text text-anchor="middle" x="78" y="-166" font-family="Liberation Sans,Helvetica,Arial,sans-serif" font-size="10.00" fill="#002b36">X_train</text>
<text text-anchor="middle" x="78" y="-155" font-family="Liberation Sans,Helvetica,Arial,sans-serif" font-size="10.00" fill="#002b36">(1 values)</text>
</g>
<!-- train_acc -->
<g id="node4" class="node">
<title>train_acc</title>
<path fill="none" stroke="#268bd2" stroke-width="1.5" d="M82.5,-36C82.5,-36 12.5,-36 12.5,-36 6.5,-36 0.5,-30 0.5,-24 0.5,-24 0.5,-12 0.5,-12 0.5,-6 6.5,0 12.5,0 12.5,0 82.5,0 82.5,0 88.5,0 94.5,-6 94.5,-12 94.5,-12 94.5,-24 94.5,-24 94.5,-30 88.5,-36 82.5,-36"/>
<text text-anchor="start" x="21" y="-20.4" font-family="Liberation Sans,Helvetica,Arial,sans-serif" font-weight="bold" font-size="12.00" fill="#002b36">train_acc</text>
<text text-anchor="start" x="8.5" y="-10" font-family="Liberation Sans,Helvetica,Arial,sans-serif" font-size="10.00" fill="#268bd2">3 values (3 sinks)</text>
</g>
<!-- model -->
<g id="node5" class="node">
<title>model</title>
<path fill="none" stroke="#268bd2" stroke-width="1.5" d="M194.5,-36C194.5,-36 124.5,-36 124.5,-36 118.5,-36 112.5,-30 112.5,-24 112.5,-24 112.5,-12 112.5,-12 112.5,-6 118.5,0 124.5,0 124.5,0 194.5,0 194.5,0 200.5,0 206.5,-6 206.5,-12 206.5,-12 206.5,-24 206.5,-24 206.5,-30 200.5,-36 194.5,-36"/>
<text text-anchor="start" x="141.5" y="-20.4" font-family="Liberation Sans,Helvetica,Arial,sans-serif" font-weight="bold" font-size="12.00" fill="#002b36">model</text>
<text text-anchor="start" x="120.5" y="-10" font-family="Liberation Sans,Helvetica,Arial,sans-serif" font-size="10.00" fill="#268bd2">3 values (3 sinks)</text>
</g>
<!-- y_train -->
<g id="node6" class="node">
<title>y_train</title>
<path fill="none" stroke="#268bd2" stroke-width="1.5" d="M119.5,-228C119.5,-228 87.5,-228 87.5,-228 81.5,-228 75.5,-222 75.5,-216 75.5,-216 75.5,-204 75.5,-204 75.5,-198 81.5,-192 87.5,-192 87.5,-192 119.5,-192 119.5,-192 125.5,-192 131.5,-198 131.5,-204 131.5,-204 131.5,-216 131.5,-216 131.5,-222 125.5,-228 119.5,-228"/>
<text text-anchor="start" x="83.5" y="-212.4" font-family="Liberation Sans,Helvetica,Arial,sans-serif" font-weight="bold" font-size="12.00" fill="#002b36">y_train</text>
<text text-anchor="start" x="85" y="-202" font-family="Liberation Sans,Helvetica,Arial,sans-serif" font-size="10.00" fill="#268bd2">1 values</text>
</g>
<!-- y_train&#45;&gt;train_model -->
<g id="edge5" class="edge">
<title>y_train&#45;&gt;train_model</title>
<path fill="none" stroke="#002b36" d="M103.5,-191.76C103.5,-178.5 103.5,-159.86 103.5,-144.27"/>
<polygon fill="#002b36" stroke="#002b36" points="107,-144.07 103.5,-134.07 100,-144.07 107,-144.07"/>
<text text-anchor="middle" x="125" y="-166" font-family="Liberation Sans,Helvetica,Arial,sans-serif" font-size="10.00" fill="#002b36">y_train</text>
<text text-anchor="middle" x="125" y="-155" font-family="Liberation Sans,Helvetica,Arial,sans-serif" font-size="10.00" fill="#002b36">(1 values)</text>
</g>
<!-- generate_dataset&#45;&gt;X_train -->
<g id="edge6" class="edge">
<title>generate_dataset&#45;&gt;X_train</title>
<path fill="none" stroke="#002b36" d="M46.75,-286C42.38,-280.57 38.22,-274.39 35.5,-268 31.55,-258.7 29.63,-247.83 28.75,-238.09"/>
<polygon fill="#002b36" stroke="#002b36" points="32.24,-237.87 28.16,-228.1 25.26,-238.28 32.24,-237.87"/>
<text text-anchor="middle" x="57" y="-260" font-family="Liberation Sans,Helvetica,Arial,sans-serif" font-size="10.00" fill="#002b36">output_0</text>
<text text-anchor="middle" x="57" y="-249" font-family="Liberation Sans,Helvetica,Arial,sans-serif" font-size="10.00" fill="#002b36">(1 values)</text>
</g>
<!-- generate_dataset&#45;&gt;y_train -->
<g id="edge7" class="edge">
<title>generate_dataset&#45;&gt;y_train</title>
<path fill="none" stroke="#002b36" d="M73.19,-285.98C78.81,-272.07 86.51,-253.03 92.74,-237.61"/>
<polygon fill="#002b36" stroke="#002b36" points="96.09,-238.68 96.59,-228.1 89.6,-236.06 96.09,-238.68"/>
<text text-anchor="middle" x="111" y="-260" font-family="Liberation Sans,Helvetica,Arial,sans-serif" font-size="10.00" fill="#002b36">output_2</text>
<text text-anchor="middle" x="111" y="-249" font-family="Liberation Sans,Helvetica,Arial,sans-serif" font-size="10.00" fill="#002b36">(1 values)</text>
</g>
<!-- train_model&#45;&gt;train_acc -->
<g id="edge1" class="edge">
<title>train_model&#45;&gt;train_acc</title>
<path fill="none" stroke="#002b36" d="M92.17,-93.98C83.73,-79.81 72.1,-60.3 62.83,-44.74"/>
<polygon fill="#002b36" stroke="#002b36" points="65.81,-42.9 57.69,-36.1 59.8,-46.48 65.81,-42.9"/>
<text text-anchor="middle" x="103" y="-68" font-family="Liberation Sans,Helvetica,Arial,sans-serif" font-size="10.00" fill="#002b36">output_0</text>
<text text-anchor="middle" x="103" y="-57" font-family="Liberation Sans,Helvetica,Arial,sans-serif" font-size="10.00" fill="#002b36">(3 values)</text>
</g>
<!-- train_model&#45;&gt;model -->
<g id="edge2" class="edge">
<title>train_model&#45;&gt;model</title>
<path fill="none" stroke="#002b36" d="M117.09,-93.64C120.9,-88.02 124.96,-81.83 128.5,-76 134.53,-66.08 140.73,-54.91 145.98,-45.1"/>
<polygon fill="#002b36" stroke="#002b36" points="149.11,-46.68 150.7,-36.2 142.92,-43.4 149.11,-46.68"/>
<text text-anchor="middle" x="162" y="-68" font-family="Liberation Sans,Helvetica,Arial,sans-serif" font-size="10.00" fill="#002b36">output_1</text>
<text text-anchor="middle" x="162" y="-57" font-family="Liberation Sans,Helvetica,Arial,sans-serif" font-size="10.00" fill="#002b36">(3 values)</text>
</g>
</g>
</svg>
