<?xml version="1.0" encoding="UTF-8" standalone="no"?>
<!DOCTYPE svg PUBLIC "-//W3C//DTD SVG 1.1//EN"
 "http://www.w3.org/Graphics/SVG/1.1/DTD/svg11.dtd">
<!-- Generated by graphviz version 2.50.0 (0)
 -->
<!-- Title: G Pages: 1 -->
<svg width="438pt" height="334pt"
 viewBox="0.00 0.00 438.00 334.00" xmlns="http://www.w3.org/2000/svg" xmlns:xlink="http://www.w3.org/1999/xlink">
<g id="graph0" class="graph" transform="scale(1 1) rotate(0) translate(4 330)">
<title>G</title>
<polygon fill="white" stroke="transparent" points="-4,4 -4,-330 434,-330 434,4 -4,4"/>
<!-- y_test -->
<g id="node1" class="node">
<title>y_test</title>
<path fill="none" stroke="#268bd2" stroke-width="1.5" d="M82,-36C82,-36 12,-36 12,-36 6,-36 0,-30 0,-24 0,-24 0,-12 0,-12 0,-6 6,0 12,0 12,0 82,0 82,0 88,0 94,-6 94,-12 94,-12 94,-24 94,-24 94,-30 88,-36 82,-36"/>
<text text-anchor="start" x="29.5" y="-20.4" font-family="Liberation Sans,Helvetica,Arial,sans-serif" font-weight="bold" font-size="12.00" fill="#002b36">y_test</text>
<text text-anchor="start" x="8" y="-10" font-family="Liberation Sans,Helvetica,Arial,sans-serif" font-size="10.00" fill="#268bd2">2 values (2 sinks)</text>
</g>
<!-- X_train -->
<g id="node2" class="node">
<title>X_train</title>
<path fill="none" stroke="#268bd2" stroke-width="1.5" d="M194,-36C194,-36 124,-36 124,-36 118,-36 112,-30 112,-24 112,-24 112,-12 112,-12 112,-6 118,0 124,0 124,0 194,0 194,0 200,0 206,-6 206,-12 206,-12 206,-24 206,-24 206,-30 200,-36 194,-36"/>
<text text-anchor="start" x="138.5" y="-20.4" font-family="Liberation Sans,Helvetica,Arial,sans-serif" font-weight="bold" font-size="12.00" fill="#002b36">X_train</text>
<text text-anchor="start" x="120" y="-10" font-family="Liberation Sans,Helvetica,Arial,sans-serif" font-size="10.00" fill="#268bd2">2 values (2 sinks)</text>
</g>
<!-- y_train -->
<g id="node3" class="node">
<title>y_train</title>
<path fill="none" stroke="#268bd2" stroke-width="1.5" d="M306,-36C306,-36 236,-36 236,-36 230,-36 224,-30 224,-24 224,-24 224,-12 224,-12 224,-6 230,0 236,0 236,0 306,0 306,0 312,0 318,-6 318,-12 318,-12 318,-24 318,-24 318,-30 312,-36 306,-36"/>
<text text-anchor="start" x="251" y="-20.4" font-family="Liberation Sans,Helvetica,Arial,sans-serif" font-weight="bold" font-size="12.00" fill="#002b36">y_train</text>
<text text-anchor="start" x="232" y="-10" font-family="Liberation Sans,Helvetica,Arial,sans-serif" font-size="10.00" fill="#268bd2">2 values (2 sinks)</text>
</g>
<!-- X_test -->
<g id="node4" class="node">
<title>X_test</title>
<path fill="none" stroke="#268bd2" stroke-width="1.5" d="M418,-36C418,-36 348,-36 348,-36 342,-36 336,-30 336,-24 336,-24 336,-12 336,-12 336,-6 342,0 348,0 348,0 418,0 418,0 424,0 430,-6 430,-12 430,-12 430,-24 430,-24 430,-30 424,-36 418,-36"/>
<text text-anchor="start" x="364.5" y="-20.4" font-family="Liberation Sans,Helvetica,Arial,sans-serif" font-weight="bold" font-size="12.00" fill="#002b36">X_test</text>
<text text-anchor="start" x="344" y="-10" font-family="Liberation Sans,Helvetica,Arial,sans-serif" font-size="10.00" fill="#268bd2">2 values (2 sinks)</text>
</g>
<!-- X -->
<g id="node5" class="node">
<title>X</title>
<path fill="none" stroke="#268bd2" stroke-width="1.5" d="M161,-228C161,-228 131,-228 131,-228 125,-228 119,-222 119,-216 119,-216 119,-204 119,-204 119,-198 125,-192 131,-192 131,-192 161,-192 161,-192 167,-192 173,-198 173,-204 173,-204 173,-216 173,-216 173,-222 167,-228 161,-228"/>
<text text-anchor="start" x="141.5" y="-212.4" font-family="Liberation Sans,Helvetica,Arial,sans-serif" font-weight="bold" font-size="12.00" fill="#002b36">X</text>
<text text-anchor="start" x="127.5" y="-202" font-family="Liberation Sans,Helvetica,Arial,sans-serif" font-size="10.00" fill="#268bd2">2 values</text>
</g>
<!-- get_train_test_split -->
<g id="node8" class="node">
<title>get_train_test_split</title>
<path fill="none" stroke="#dc322f" stroke-width="1.5" d="M265.5,-134C265.5,-134 164.5,-134 164.5,-134 158.5,-134 152.5,-128 152.5,-122 152.5,-122 152.5,-106 152.5,-106 152.5,-100 158.5,-94 164.5,-94 164.5,-94 265.5,-94 265.5,-94 271.5,-94 277.5,-100 277.5,-106 277.5,-106 277.5,-122 277.5,-122 277.5,-128 271.5,-134 265.5,-134"/>
<text text-anchor="start" x="160.5" y="-121.4" font-family="Liberation Sans,Helvetica,Arial,sans-serif" font-weight="bold" font-size="12.00" fill="#002b36">get_train_test_split</text>
<text text-anchor="start" x="161.5" y="-111" font-family="Liberation Sans,Helvetica,Arial,sans-serif" font-size="10.00" fill="#002b36">@op:get_train_test_split</text>
<text text-anchor="start" x="200.5" y="-101" font-family="Liberation Sans,Helvetica,Arial,sans-serif" font-size="10.00" fill="#dc322f">2 calls</text>
</g>
<!-- X&#45;&gt;get_train_test_split -->
<g id="edge5" class="edge">
<title>X&#45;&gt;get_train_test_split</title>
<path fill="none" stroke="#002b36" d="M154.5,-191.85C160.63,-180.16 169.47,-164.58 179,-152 181.62,-148.54 184.53,-145.07 187.54,-141.72"/>
<polygon fill="#002b36" stroke="#002b36" points="190.34,-143.84 194.62,-134.15 185.23,-139.06 190.34,-143.84"/>
<text text-anchor="middle" x="200.5" y="-166" font-family="Liberation Sans,Helvetica,Arial,sans-serif" font-size="10.00" fill="#002b36">X</text>
<text text-anchor="middle" x="200.5" y="-155" font-family="Liberation Sans,Helvetica,Arial,sans-serif" font-size="10.00" fill="#002b36">(2 values)</text>
</g>
<!-- scale_data -->
<g id="node9" class="node">
<title>scale_data</title>
<path fill="none" stroke="#dc322f" stroke-width="1.5" d="M86,-134C86,-134 22,-134 22,-134 16,-134 10,-128 10,-122 10,-122 10,-106 10,-106 10,-100 16,-94 22,-94 22,-94 86,-94 86,-94 92,-94 98,-100 98,-106 98,-106 98,-122 98,-122 98,-128 92,-134 86,-134"/>
<text text-anchor="start" x="23" y="-121.4" font-family="Liberation Sans,Helvetica,Arial,sans-serif" font-weight="bold" font-size="12.00" fill="#002b36">scale_data</text>
<text text-anchor="start" x="18" y="-111" font-family="Liberation Sans,Helvetica,Arial,sans-serif" font-size="10.00" fill="#002b36">@op:scale_data</text>
<text text-anchor="start" x="39.5" y="-101" font-family="Liberation Sans,Helvetica,Arial,sans-serif" font-size="10.00" fill="#dc322f">1 calls</text>
</g>
<!-- X&#45;&gt;scale_data -->
<g id="edge6" class="edge">
<title>X&#45;&gt;scale_data</title>
<path fill="none" stroke="#002b36" d="M118.83,-207.15C96.5,-204.04 66.18,-195.77 51,-174 45.02,-165.42 44.28,-154.31 45.55,-144.05"/>
<polygon fill="#002b36" stroke="#002b36" points="49,-144.67 47.38,-134.2 42.12,-143.39 49,-144.67"/>
<text text-anchor="middle" x="72.5" y="-166" font-family="Liberation Sans,Helvetica,Arial,sans-serif" font-size="10.00" fill="#002b36">X</text>
<text text-anchor="middle" x="72.5" y="-155" font-family="Liberation Sans,Helvetica,Arial,sans-serif" font-size="10.00" fill="#002b36">(1 values)</text>
</g>
<!-- y -->
<g id="node6" class="node">
<title>y</title>
<path fill="none" stroke="#268bd2" stroke-width="1.5" d="M248,-228C248,-228 218,-228 218,-228 212,-228 206,-222 206,-216 206,-216 206,-204 206,-204 206,-198 212,-192 218,-192 218,-192 248,-192 248,-192 254,-192 260,-198 260,-204 260,-204 260,-216 260,-216 260,-222 254,-228 248,-228"/>
<text text-anchor="start" x="229.5" y="-212.4" font-family="Liberation Sans,Helvetica,Arial,sans-serif" font-weight="bold" font-size="12.00" fill="#002b36">y</text>
<text text-anchor="start" x="214.5" y="-202" font-family="Liberation Sans,Helvetica,Arial,sans-serif" font-size="10.00" fill="#268bd2">1 values</text>
</g>
<!-- y&#45;&gt;get_train_test_split -->
<g id="edge7" class="edge">
<title>y&#45;&gt;get_train_test_split</title>
<path fill="none" stroke="#002b36" d="M231.65,-191.92C230.57,-180.53 228.77,-165.27 226,-152 225.44,-149.32 224.78,-146.56 224.07,-143.81"/>
<polygon fill="#002b36" stroke="#002b36" points="227.4,-142.73 221.32,-134.05 220.66,-144.62 227.4,-142.73"/>
<text text-anchor="middle" x="250.5" y="-166" font-family="Liberation Sans,Helvetica,Arial,sans-serif" font-size="10.00" fill="#002b36">y</text>
<text text-anchor="middle" x="250.5" y="-155" font-family="Liberation Sans,Helvetica,Arial,sans-serif" font-size="10.00" fill="#002b36">(1 values)</text>
</g>
<!-- get_data -->
<g id="node7" class="node">
<title>get_data</title>
<path fill="none" stroke="#dc322f" stroke-width="1.5" d="M209,-326C209,-326 155,-326 155,-326 149,-326 143,-320 143,-314 143,-314 143,-298 143,-298 143,-292 149,-286 155,-286 155,-286 209,-286 209,-286 215,-286 221,-292 221,-298 221,-298 221,-314 221,-314 221,-320 215,-326 209,-326"/>
<text text-anchor="start" x="157" y="-313.4" font-family="Liberation Sans,Helvetica,Arial,sans-serif" font-weight="bold" font-size="12.00" fill="#002b36">get_data</text>
<text text-anchor="start" x="151" y="-303" font-family="Liberation Sans,Helvetica,Arial,sans-serif" font-size="10.00" fill="#002b36">@op:get_data</text>
<text text-anchor="start" x="167.5" y="-293" font-family="Liberation Sans,Helvetica,Arial,sans-serif" font-size="10.00" fill="#dc322f">1 calls</text>
</g>
<!-- get_data&#45;&gt;X -->
<g id="edge8" class="edge">
<title>get_data&#45;&gt;X</title>
<path fill="none" stroke="#002b36" d="M162.15,-285.76C157.75,-280.43 153.63,-274.35 151,-268 147.19,-258.8 145.6,-248.06 145.07,-238.4"/>
<polygon fill="#002b36" stroke="#002b36" points="148.56,-238.02 144.87,-228.09 141.57,-238.16 148.56,-238.02"/>
<text text-anchor="middle" x="172.5" y="-260" font-family="Liberation Sans,Helvetica,Arial,sans-serif" font-size="10.00" fill="#002b36">X</text>
<text text-anchor="middle" x="172.5" y="-249" font-family="Liberation Sans,Helvetica,Arial,sans-serif" font-size="10.00" fill="#002b36">(1 values)</text>
</g>
<!-- get_data&#45;&gt;y -->
<g id="edge9" class="edge">
<title>get_data&#45;&gt;y</title>
<path fill="none" stroke="#002b36" d="M192.32,-285.98C199.94,-271.94 210.39,-252.66 218.8,-237.17"/>
<polygon fill="#002b36" stroke="#002b36" points="222.03,-238.56 223.72,-228.1 215.88,-235.22 222.03,-238.56"/>
<text text-anchor="middle" x="234.5" y="-260" font-family="Liberation Sans,Helvetica,Arial,sans-serif" font-size="10.00" fill="#002b36">y</text>
<text text-anchor="middle" x="234.5" y="-249" font-family="Liberation Sans,Helvetica,Arial,sans-serif" font-size="10.00" fill="#002b36">(1 values)</text>
</g>
<!-- get_train_test_split&#45;&gt;y_test -->
<g id="edge3" class="edge">
<title>get_train_test_split&#45;&gt;y_test</title>
<path fill="none" stroke="#002b36" d="M169.24,-93.93C157.26,-88.51 144.48,-82.34 133,-76 114.48,-65.77 94.74,-52.85 78.85,-41.89"/>
<polygon fill="#002b36" stroke="#002b36" points="80.65,-38.88 70.45,-36.04 76.65,-44.63 80.65,-38.88"/>
<text text-anchor="middle" x="154.5" y="-68" font-family="Liberation Sans,Helvetica,Arial,sans-serif" font-size="10.00" fill="#002b36">y_test</text>
<text text-anchor="middle" x="154.5" y="-57" font-family="Liberation Sans,Helvetica,Arial,sans-serif" font-size="10.00" fill="#002b36">(2 values)</text>
</g>
<!-- get_train_test_split&#45;&gt;X_train -->
<g id="edge2" class="edge">
<title>get_train_test_split&#45;&gt;X_train</title>
<path fill="none" stroke="#002b36" d="M203.67,-93.98C195.23,-79.81 183.6,-60.3 174.33,-44.74"/>
<polygon fill="#002b36" stroke="#002b36" points="177.31,-42.9 169.19,-36.1 171.3,-46.48 177.31,-42.9"/>
<text text-anchor="middle" x="213.5" y="-68" font-family="Liberation Sans,Helvetica,Arial,sans-serif" font-size="10.00" fill="#002b36">X_train</text>
<text text-anchor="middle" x="213.5" y="-57" font-family="Liberation Sans,Helvetica,Arial,sans-serif" font-size="10.00" fill="#002b36">(2 values)</text>
</g>
<!-- get_train_test_split&#45;&gt;y_train -->
<g id="edge4" class="edge">
<title>get_train_test_split&#45;&gt;y_train</title>
<path fill="none" stroke="#002b36" d="M227.69,-93.94C231.41,-88.22 235.44,-81.9 239,-76 245.05,-65.99 251.41,-54.8 256.86,-45"/>
<polygon fill="#002b36" stroke="#002b36" points="259.99,-46.57 261.76,-36.12 253.86,-43.19 259.99,-46.57"/>
<text text-anchor="middle" x="272.5" y="-68" font-family="Liberation Sans,Helvetica,Arial,sans-serif" font-size="10.00" fill="#002b36">y_train</text>
<text text-anchor="middle" x="272.5" y="-57" font-family="Liberation Sans,Helvetica,Arial,sans-serif" font-size="10.00" fill="#002b36">(2 values)</text>
</g>
<!-- get_train_test_split&#45;&gt;X_test -->
<g id="edge1" class="edge">
<title>get_train_test_split&#45;&gt;X_test</title>
<path fill="none" stroke="#002b36" d="M261.78,-93.83C273.79,-88.45 286.54,-82.34 298,-76 316.37,-65.85 335.88,-52.93 351.58,-41.96"/>
<polygon fill="#002b36" stroke="#002b36" points="353.72,-44.72 359.87,-36.09 349.68,-39.01 353.72,-44.72"/>
<text text-anchor="middle" x="352.5" y="-68" font-family="Liberation Sans,Helvetica,Arial,sans-serif" font-size="10.00" fill="#002b36">X_test</text>
<text text-anchor="middle" x="352.5" y="-57" font-family="Liberation Sans,Helvetica,Arial,sans-serif" font-size="10.00" fill="#002b36">(2 values)</text>
</g>
<!-- scale_data&#45;&gt;X -->
<g id="edge10" class="edge">
<title>scale_data&#45;&gt;X</title>
<path fill="none" stroke="#002b36" d="M75.49,-134.26C81.57,-139.88 88.13,-146.09 94,-152 104.13,-162.2 114.9,-173.86 124,-183.97"/>
<polygon fill="#002b36" stroke="#002b36" points="121.62,-186.56 130.9,-191.69 126.84,-181.9 121.62,-186.56"/>
<text text-anchor="middle" x="135.5" y="-166" font-family="Liberation Sans,Helvetica,Arial,sans-serif" font-size="10.00" fill="#002b36">X_scaled</text>
<text text-anchor="middle" x="135.5" y="-155" font-family="Liberation Sans,Helvetica,Arial,sans-serif" font-size="10.00" fill="#002b36">(1 values)</text>
</g>
</g>
</svg>
