<?xml version="1.0" encoding="UTF-8" standalone="no"?>
<!DOCTYPE svg PUBLIC "-//W3C//DTD SVG 1.1//EN"
 "http://www.w3.org/Graphics/SVG/1.1/DTD/svg11.dtd">
<!-- Generated by graphviz version 2.50.0 (0)
 -->
<!-- Title: G Pages: 1 -->
<svg width="737pt" height="746pt"
 viewBox="0.00 0.00 737.00 746.00" xmlns="http://www.w3.org/2000/svg" xmlns:xlink="http://www.w3.org/1999/xlink">
<g id="graph0" class="graph" transform="scale(1 1) rotate(0) translate(4 742)">
<title>G</title>
<polygon fill="white" stroke="transparent" points="-4,4 -4,-742 733,-742 733,4 -4,4"/>
<!-- C -->
<g id="node1" class="node">
<title>C</title>
<path fill="none" stroke="#268bd2" stroke-width="1.5" d="M651.5,-448C651.5,-448 570.5,-448 570.5,-448 564.5,-448 558.5,-442 558.5,-436 558.5,-436 558.5,-424 558.5,-424 558.5,-418 564.5,-412 570.5,-412 570.5,-412 651.5,-412 651.5,-412 657.5,-412 663.5,-418 663.5,-424 663.5,-424 663.5,-436 663.5,-436 663.5,-442 657.5,-448 651.5,-448"/>
<text text-anchor="start" x="606" y="-432.4" font-family="Liberation Sans,Helvetica,Arial,sans-serif" font-weight="bold" font-size="12.00" fill="#002b36">C</text>
<text text-anchor="start" x="566.5" y="-422" font-family="Liberation Sans,Helvetica,Arial,sans-serif" font-size="10.00" fill="#268bd2">1 values (1 sources)</text>
</g>
<!-- train_svc -->
<g id="node18" class="node">
<title>train_svc</title>
<path fill="none" stroke="#dc322f" stroke-width="1.5" d="M479,-340C479,-340 423,-340 423,-340 417,-340 411,-334 411,-328 411,-328 411,-312 411,-312 411,-306 417,-300 423,-300 423,-300 479,-300 479,-300 485,-300 491,-306 491,-312 491,-312 491,-328 491,-328 491,-334 485,-340 479,-340"/>
<text text-anchor="start" x="424.5" y="-327.4" font-family="Liberation Sans,Helvetica,Arial,sans-serif" font-weight="bold" font-size="12.00" fill="#002b36">train_svc</text>
<text text-anchor="start" x="419" y="-317" font-family="Liberation Sans,Helvetica,Arial,sans-serif" font-size="10.00" fill="#002b36">@op:train_svc</text>
<text text-anchor="start" x="436.5" y="-307" font-family="Liberation Sans,Helvetica,Arial,sans-serif" font-size="10.00" fill="#dc322f">2 calls</text>
</g>
<!-- C&#45;&gt;train_svc -->
<g id="edge20" class="edge">
<title>C&#45;&gt;train_svc</title>
<path fill="none" stroke="#002b36" d="M598.84,-411.71C586.94,-395.87 567.51,-372.73 546,-358 532.46,-348.73 516.27,-341.32 501.13,-335.64"/>
<polygon fill="#002b36" stroke="#002b36" points="501.96,-332.22 491.36,-332.16 499.61,-338.82 501.96,-332.22"/>
<text text-anchor="middle" x="605.5" y="-379" font-family="Liberation Sans,Helvetica,Arial,sans-serif" font-size="10.00" fill="#002b36">C</text>
<text text-anchor="middle" x="605.5" y="-368" font-family="Liberation Sans,Helvetica,Arial,sans-serif" font-size="10.00" fill="#002b36">(1 values)</text>
</g>
<!-- y_test -->
<g id="node2" class="node">
<title>y_test</title>
<path fill="none" stroke="#268bd2" stroke-width="1.5" d="M42,-394C42,-394 12,-394 12,-394 6,-394 0,-388 0,-382 0,-382 0,-370 0,-370 0,-364 6,-358 12,-358 12,-358 42,-358 42,-358 48,-358 54,-364 54,-370 54,-370 54,-382 54,-382 54,-388 48,-394 42,-394"/>
<text text-anchor="start" x="9.5" y="-378.4" font-family="Liberation Sans,Helvetica,Arial,sans-serif" font-weight="bold" font-size="12.00" fill="#002b36">y_test</text>
<text text-anchor="start" x="8.5" y="-368" font-family="Liberation Sans,Helvetica,Arial,sans-serif" font-size="10.00" fill="#268bd2">2 values</text>
</g>
<!-- eval_model -->
<g id="node17" class="node">
<title>eval_model</title>
<path fill="none" stroke="#dc322f" stroke-width="1.5" d="M385,-134C385,-134 319,-134 319,-134 313,-134 307,-128 307,-122 307,-122 307,-106 307,-106 307,-100 313,-94 319,-94 319,-94 385,-94 385,-94 391,-94 397,-100 397,-106 397,-106 397,-122 397,-122 397,-128 391,-134 385,-134"/>
<text text-anchor="start" x="319" y="-121.4" font-family="Liberation Sans,Helvetica,Arial,sans-serif" font-weight="bold" font-size="12.00" fill="#002b36">eval_model</text>
<text text-anchor="start" x="315" y="-111" font-family="Liberation Sans,Helvetica,Arial,sans-serif" font-size="10.00" fill="#002b36">@op:eval_model</text>
<text text-anchor="start" x="337.5" y="-101" font-family="Liberation Sans,Helvetica,Arial,sans-serif" font-size="10.00" fill="#dc322f">4 calls</text>
</g>
<!-- y_test&#45;&gt;eval_model -->
<g id="edge4" class="edge">
<title>y_test&#45;&gt;eval_model</title>
<path fill="none" stroke="#002b36" d="M48.32,-357.94C103.98,-313.41 253.91,-193.47 319.98,-140.61"/>
<polygon fill="#002b36" stroke="#002b36" points="322.36,-143.19 327.99,-134.21 317.99,-137.72 322.36,-143.19"/>
<text text-anchor="middle" x="207.5" y="-267" font-family="Liberation Sans,Helvetica,Arial,sans-serif" font-size="10.00" fill="#002b36">y_test</text>
<text text-anchor="middle" x="207.5" y="-256" font-family="Liberation Sans,Helvetica,Arial,sans-serif" font-size="10.00" fill="#002b36">(2 values)</text>
</g>
<!-- model -->
<g id="node3" class="node">
<title>model</title>
<path fill="none" stroke="#268bd2" stroke-width="1.5" d="M367,-228C367,-228 337,-228 337,-228 331,-228 325,-222 325,-216 325,-216 325,-204 325,-204 325,-198 331,-192 337,-192 337,-192 367,-192 367,-192 373,-192 379,-198 379,-204 379,-204 379,-216 379,-216 379,-222 373,-228 367,-228"/>
<text text-anchor="start" x="334" y="-212.4" font-family="Liberation Sans,Helvetica,Arial,sans-serif" font-weight="bold" font-size="12.00" fill="#002b36">model</text>
<text text-anchor="start" x="333.5" y="-202" font-family="Liberation Sans,Helvetica,Arial,sans-serif" font-size="10.00" fill="#268bd2">4 values</text>
</g>
<!-- model&#45;&gt;eval_model -->
<g id="edge3" class="edge">
<title>model&#45;&gt;eval_model</title>
<path fill="none" stroke="#002b36" d="M352,-191.76C352,-178.5 352,-159.86 352,-144.27"/>
<polygon fill="#002b36" stroke="#002b36" points="355.5,-144.07 352,-134.07 348.5,-144.07 355.5,-144.07"/>
<text text-anchor="middle" x="373.5" y="-166" font-family="Liberation Sans,Helvetica,Arial,sans-serif" font-size="10.00" fill="#002b36">model</text>
<text text-anchor="middle" x="373.5" y="-155" font-family="Liberation Sans,Helvetica,Arial,sans-serif" font-size="10.00" fill="#002b36">(4 values)</text>
</g>
<!-- X_train -->
<g id="node4" class="node">
<title>X_train</title>
<path fill="none" stroke="#268bd2" stroke-width="1.5" d="M405.5,-448C405.5,-448 372.5,-448 372.5,-448 366.5,-448 360.5,-442 360.5,-436 360.5,-436 360.5,-424 360.5,-424 360.5,-418 366.5,-412 372.5,-412 372.5,-412 405.5,-412 405.5,-412 411.5,-412 417.5,-418 417.5,-424 417.5,-424 417.5,-436 417.5,-436 417.5,-442 411.5,-448 405.5,-448"/>
<text text-anchor="start" x="368.5" y="-432.4" font-family="Liberation Sans,Helvetica,Arial,sans-serif" font-weight="bold" font-size="12.00" fill="#002b36">X_train</text>
<text text-anchor="start" x="370.5" y="-422" font-family="Liberation Sans,Helvetica,Arial,sans-serif" font-size="10.00" fill="#268bd2">2 values</text>
</g>
<!-- train_random_forest -->
<g id="node13" class="node">
<title>train_random_forest</title>
<path fill="none" stroke="#dc322f" stroke-width="1.5" d="M307.5,-340C307.5,-340 198.5,-340 198.5,-340 192.5,-340 186.5,-334 186.5,-328 186.5,-328 186.5,-312 186.5,-312 186.5,-306 192.5,-300 198.5,-300 198.5,-300 307.5,-300 307.5,-300 313.5,-300 319.5,-306 319.5,-312 319.5,-312 319.5,-328 319.5,-328 319.5,-334 313.5,-340 307.5,-340"/>
<text text-anchor="start" x="194.5" y="-327.4" font-family="Liberation Sans,Helvetica,Arial,sans-serif" font-weight="bold" font-size="12.00" fill="#002b36">train_random_forest</text>
<text text-anchor="start" x="197.5" y="-317" font-family="Liberation Sans,Helvetica,Arial,sans-serif" font-size="10.00" fill="#002b36">@op:train_random_forest</text>
<text text-anchor="start" x="238.5" y="-307" font-family="Liberation Sans,Helvetica,Arial,sans-serif" font-size="10.00" fill="#dc322f">2 calls</text>
</g>
<!-- X_train&#45;&gt;train_random_forest -->
<g id="edge13" class="edge">
<title>X_train&#45;&gt;train_random_forest</title>
<path fill="none" stroke="#002b36" d="M384.6,-412C379.52,-393.53 370.85,-365.65 363,-358 353.51,-348.76 341.64,-341.82 329.24,-336.62"/>
<polygon fill="#002b36" stroke="#002b36" points="330.27,-333.27 319.68,-332.97 327.77,-339.81 330.27,-333.27"/>
<text text-anchor="middle" x="400.5" y="-379" font-family="Liberation Sans,Helvetica,Arial,sans-serif" font-size="10.00" fill="#002b36">X_train</text>
<text text-anchor="middle" x="400.5" y="-368" font-family="Liberation Sans,Helvetica,Arial,sans-serif" font-size="10.00" fill="#002b36">(2 values)</text>
</g>
<!-- X_train&#45;&gt;train_svc -->
<g id="edge14" class="edge">
<title>X_train&#45;&gt;train_svc</title>
<path fill="none" stroke="#002b36" d="M413.22,-411.66C419.05,-406.52 424.8,-400.52 429,-394 437.45,-380.88 442.79,-364.35 446.08,-350.34"/>
<polygon fill="#002b36" stroke="#002b36" points="449.58,-350.73 448.22,-340.22 442.73,-349.28 449.58,-350.73"/>
<text text-anchor="middle" x="464.5" y="-379" font-family="Liberation Sans,Helvetica,Arial,sans-serif" font-size="10.00" fill="#002b36">X_train</text>
<text text-anchor="middle" x="464.5" y="-368" font-family="Liberation Sans,Helvetica,Arial,sans-serif" font-size="10.00" fill="#002b36">(2 values)</text>
</g>
<!-- n_estimators -->
<g id="node5" class="node">
<title>n_estimators</title>
<path fill="none" stroke="#268bd2" stroke-width="1.5" d="M255.5,-448C255.5,-448 174.5,-448 174.5,-448 168.5,-448 162.5,-442 162.5,-436 162.5,-436 162.5,-424 162.5,-424 162.5,-418 168.5,-412 174.5,-412 174.5,-412 255.5,-412 255.5,-412 261.5,-412 267.5,-418 267.5,-424 267.5,-424 267.5,-436 267.5,-436 267.5,-442 261.5,-448 255.5,-448"/>
<text text-anchor="start" x="177.5" y="-432.4" font-family="Liberation Sans,Helvetica,Arial,sans-serif" font-weight="bold" font-size="12.00" fill="#002b36">n_estimators</text>
<text text-anchor="start" x="170.5" y="-422" font-family="Liberation Sans,Helvetica,Arial,sans-serif" font-size="10.00" fill="#268bd2">1 values (1 sources)</text>
</g>
<!-- n_estimators&#45;&gt;train_random_forest -->
<g id="edge16" class="edge">
<title>n_estimators&#45;&gt;train_random_forest</title>
<path fill="none" stroke="#002b36" d="M187.96,-411.76C182.32,-406.77 177.14,-400.8 174,-394 167.3,-379.47 165.41,-371.5 174,-358 176.82,-353.56 180.33,-349.65 184.29,-346.19"/>
<polygon fill="#002b36" stroke="#002b36" points="186.5,-348.91 192.4,-340.11 182.3,-343.31 186.5,-348.91"/>
<text text-anchor="middle" x="202.5" y="-379" font-family="Liberation Sans,Helvetica,Arial,sans-serif" font-size="10.00" fill="#002b36">n_estimators</text>
<text text-anchor="middle" x="202.5" y="-368" font-family="Liberation Sans,Helvetica,Arial,sans-serif" font-size="10.00" fill="#002b36">(1 values)</text>
</g>
<!-- y_train -->
<g id="node6" class="node">
<title>y_train</title>
<path fill="none" stroke="#268bd2" stroke-width="1.5" d="M330,-448C330,-448 298,-448 298,-448 292,-448 286,-442 286,-436 286,-436 286,-424 286,-424 286,-418 292,-412 298,-412 298,-412 330,-412 330,-412 336,-412 342,-418 342,-424 342,-424 342,-436 342,-436 342,-442 336,-448 330,-448"/>
<text text-anchor="start" x="294" y="-432.4" font-family="Liberation Sans,Helvetica,Arial,sans-serif" font-weight="bold" font-size="12.00" fill="#002b36">y_train</text>
<text text-anchor="start" x="295.5" y="-422" font-family="Liberation Sans,Helvetica,Arial,sans-serif" font-size="10.00" fill="#268bd2">2 values</text>
</g>
<!-- y_train&#45;&gt;train_random_forest -->
<g id="edge17" class="edge">
<title>y_train&#45;&gt;train_random_forest</title>
<path fill="none" stroke="#002b36" d="M285.93,-416C272.19,-409.01 257.8,-400.51 254,-394 246.42,-381 245.65,-364.36 247.01,-350.25"/>
<polygon fill="#002b36" stroke="#002b36" points="250.52,-350.43 248.39,-340.05 243.58,-349.49 250.52,-350.43"/>
<text text-anchor="middle" x="275.5" y="-379" font-family="Liberation Sans,Helvetica,Arial,sans-serif" font-size="10.00" fill="#002b36">y_train</text>
<text text-anchor="middle" x="275.5" y="-368" font-family="Liberation Sans,Helvetica,Arial,sans-serif" font-size="10.00" fill="#002b36">(2 values)</text>
</g>
<!-- y_train&#45;&gt;train_svc -->
<g id="edge18" class="edge">
<title>y_train&#45;&gt;train_svc</title>
<path fill="none" stroke="#002b36" d="M309.24,-411.89C305.98,-396.18 304.12,-373.13 316,-358 326.64,-344.45 366.93,-334.55 400.75,-328.43"/>
<polygon fill="#002b36" stroke="#002b36" points="401.74,-331.81 410.99,-326.65 400.54,-324.91 401.74,-331.81"/>
<text text-anchor="middle" x="337.5" y="-379" font-family="Liberation Sans,Helvetica,Arial,sans-serif" font-size="10.00" fill="#002b36">y_train</text>
<text text-anchor="middle" x="337.5" y="-368" font-family="Liberation Sans,Helvetica,Arial,sans-serif" font-size="10.00" fill="#002b36">(2 values)</text>
</g>
<!-- kernel -->
<g id="node7" class="node">
<title>kernel</title>
<path fill="none" stroke="#268bd2" stroke-width="1.5" d="M528.5,-448C528.5,-448 447.5,-448 447.5,-448 441.5,-448 435.5,-442 435.5,-436 435.5,-436 435.5,-424 435.5,-424 435.5,-418 441.5,-412 447.5,-412 447.5,-412 528.5,-412 528.5,-412 534.5,-412 540.5,-418 540.5,-424 540.5,-424 540.5,-436 540.5,-436 540.5,-442 534.5,-448 528.5,-448"/>
<text text-anchor="start" x="470" y="-432.4" font-family="Liberation Sans,Helvetica,Arial,sans-serif" font-weight="bold" font-size="12.00" fill="#002b36">kernel</text>
<text text-anchor="start" x="443.5" y="-422" font-family="Liberation Sans,Helvetica,Arial,sans-serif" font-size="10.00" fill="#268bd2">1 values (1 sources)</text>
</g>
<!-- kernel&#45;&gt;train_svc -->
<g id="edge21" class="edge">
<title>kernel&#45;&gt;train_svc</title>
<path fill="none" stroke="#002b36" d="M494.46,-411.82C498.99,-396.9 502.95,-375.07 495,-358 493.29,-354.34 491.03,-350.91 488.42,-347.73"/>
<polygon fill="#002b36" stroke="#002b36" points="490.81,-345.17 481.37,-340.36 485.75,-350 490.81,-345.17"/>
<text text-anchor="middle" x="520.5" y="-379" font-family="Liberation Sans,Helvetica,Arial,sans-serif" font-size="10.00" fill="#002b36">kernel</text>
<text text-anchor="middle" x="520.5" y="-368" font-family="Liberation Sans,Helvetica,Arial,sans-serif" font-size="10.00" fill="#002b36">(1 values)</text>
</g>
<!-- X_test -->
<g id="node8" class="node">
<title>X_test</title>
<path fill="none" stroke="#268bd2" stroke-width="1.5" d="M628,-282C628,-282 598,-282 598,-282 592,-282 586,-276 586,-270 586,-270 586,-258 586,-258 586,-252 592,-246 598,-246 598,-246 628,-246 628,-246 634,-246 640,-252 640,-258 640,-258 640,-270 640,-270 640,-276 634,-282 628,-282"/>
<text text-anchor="start" x="594.5" y="-266.4" font-family="Liberation Sans,Helvetica,Arial,sans-serif" font-weight="bold" font-size="12.00" fill="#002b36">X_test</text>
<text text-anchor="start" x="594.5" y="-256" font-family="Liberation Sans,Helvetica,Arial,sans-serif" font-size="10.00" fill="#268bd2">2 values</text>
</g>
<!-- X_test&#45;&gt;eval_model -->
<g id="edge2" class="edge">
<title>X_test&#45;&gt;eval_model</title>
<path fill="none" stroke="#002b36" d="M585.56,-247.44C540.03,-221.62 448.55,-169.75 394.58,-139.14"/>
<polygon fill="#002b36" stroke="#002b36" points="396.03,-135.94 385.6,-134.05 392.58,-142.03 396.03,-135.94"/>
<text text-anchor="middle" x="567.5" y="-213" font-family="Liberation Sans,Helvetica,Arial,sans-serif" font-size="10.00" fill="#002b36">X_test</text>
<text text-anchor="middle" x="567.5" y="-202" font-family="Liberation Sans,Helvetica,Arial,sans-serif" font-size="10.00" fill="#002b36">(2 values)</text>
</g>
<!-- X -->
<g id="node9" class="node">
<title>X</title>
<path fill="none" stroke="#268bd2" stroke-width="1.5" d="M299,-640C299,-640 269,-640 269,-640 263,-640 257,-634 257,-628 257,-628 257,-616 257,-616 257,-610 263,-604 269,-604 269,-604 299,-604 299,-604 305,-604 311,-610 311,-616 311,-616 311,-628 311,-628 311,-634 305,-640 299,-640"/>
<text text-anchor="start" x="279.5" y="-624.4" font-family="Liberation Sans,Helvetica,Arial,sans-serif" font-weight="bold" font-size="12.00" fill="#002b36">X</text>
<text text-anchor="start" x="265.5" y="-614" font-family="Liberation Sans,Helvetica,Arial,sans-serif" font-size="10.00" fill="#268bd2">2 values</text>
</g>
<!-- scale_data -->
<g id="node15" class="node">
<title>scale_data</title>
<path fill="none" stroke="#dc322f" stroke-width="1.5" d="M255,-546C255,-546 191,-546 191,-546 185,-546 179,-540 179,-534 179,-534 179,-518 179,-518 179,-512 185,-506 191,-506 191,-506 255,-506 255,-506 261,-506 267,-512 267,-518 267,-518 267,-534 267,-534 267,-540 261,-546 255,-546"/>
<text text-anchor="start" x="192" y="-533.4" font-family="Liberation Sans,Helvetica,Arial,sans-serif" font-weight="bold" font-size="12.00" fill="#002b36">scale_data</text>
<text text-anchor="start" x="187" y="-523" font-family="Liberation Sans,Helvetica,Arial,sans-serif" font-size="10.00" fill="#002b36">@op:scale_data</text>
<text text-anchor="start" x="208.5" y="-513" font-family="Liberation Sans,Helvetica,Arial,sans-serif" font-size="10.00" fill="#dc322f">1 calls</text>
</g>
<!-- X&#45;&gt;scale_data -->
<g id="edge10" class="edge">
<title>X&#45;&gt;scale_data</title>
<path fill="none" stroke="#002b36" d="M268.55,-603.72C263.95,-598.23 259.07,-592.01 255,-586 248.47,-576.34 242.16,-565.22 236.89,-555.26"/>
<polygon fill="#002b36" stroke="#002b36" points="239.88,-553.43 232.19,-546.15 233.66,-556.64 239.88,-553.43"/>
<text text-anchor="middle" x="276.5" y="-578" font-family="Liberation Sans,Helvetica,Arial,sans-serif" font-size="10.00" fill="#002b36">X</text>
<text text-anchor="middle" x="276.5" y="-567" font-family="Liberation Sans,Helvetica,Arial,sans-serif" font-size="10.00" fill="#002b36">(1 values)</text>
</g>
<!-- get_train_test_split -->
<g id="node16" class="node">
<title>get_train_test_split</title>
<path fill="none" stroke="#dc322f" stroke-width="1.5" d="M401.5,-546C401.5,-546 300.5,-546 300.5,-546 294.5,-546 288.5,-540 288.5,-534 288.5,-534 288.5,-518 288.5,-518 288.5,-512 294.5,-506 300.5,-506 300.5,-506 401.5,-506 401.5,-506 407.5,-506 413.5,-512 413.5,-518 413.5,-518 413.5,-534 413.5,-534 413.5,-540 407.5,-546 401.5,-546"/>
<text text-anchor="start" x="296.5" y="-533.4" font-family="Liberation Sans,Helvetica,Arial,sans-serif" font-weight="bold" font-size="12.00" fill="#002b36">get_train_test_split</text>
<text text-anchor="start" x="297.5" y="-523" font-family="Liberation Sans,Helvetica,Arial,sans-serif" font-size="10.00" fill="#002b36">@op:get_train_test_split</text>
<text text-anchor="start" x="336.5" y="-513" font-family="Liberation Sans,Helvetica,Arial,sans-serif" font-size="10.00" fill="#dc322f">2 calls</text>
</g>
<!-- X&#45;&gt;get_train_test_split -->
<g id="edge9" class="edge">
<title>X&#45;&gt;get_train_test_split</title>
<path fill="none" stroke="#002b36" d="M292.61,-603.94C298.79,-592.28 307.65,-576.71 317,-564 319.5,-560.6 322.27,-557.16 325.12,-553.83"/>
<polygon fill="#002b36" stroke="#002b36" points="327.79,-556.08 331.81,-546.28 322.56,-551.44 327.79,-556.08"/>
<text text-anchor="middle" x="338.5" y="-578" font-family="Liberation Sans,Helvetica,Arial,sans-serif" font-size="10.00" fill="#002b36">X</text>
<text text-anchor="middle" x="338.5" y="-567" font-family="Liberation Sans,Helvetica,Arial,sans-serif" font-size="10.00" fill="#002b36">(2 values)</text>
</g>
<!-- accuracy -->
<g id="node10" class="node">
<title>accuracy</title>
<path fill="none" stroke="#268bd2" stroke-width="1.5" d="M387,-36C387,-36 317,-36 317,-36 311,-36 305,-30 305,-24 305,-24 305,-12 305,-12 305,-6 311,0 317,0 317,0 387,0 387,0 393,0 399,-6 399,-12 399,-12 399,-24 399,-24 399,-30 393,-36 387,-36"/>
<text text-anchor="start" x="325.5" y="-20.4" font-family="Liberation Sans,Helvetica,Arial,sans-serif" font-weight="bold" font-size="12.00" fill="#002b36">accuracy</text>
<text text-anchor="start" x="313" y="-10" font-family="Liberation Sans,Helvetica,Arial,sans-serif" font-size="10.00" fill="#268bd2">4 values (4 sinks)</text>
</g>
<!-- max_depth -->
<g id="node11" class="node">
<title>max_depth</title>
<path fill="none" stroke="#268bd2" stroke-width="1.5" d="M132.5,-448C132.5,-448 51.5,-448 51.5,-448 45.5,-448 39.5,-442 39.5,-436 39.5,-436 39.5,-424 39.5,-424 39.5,-418 45.5,-412 51.5,-412 51.5,-412 132.5,-412 132.5,-412 138.5,-412 144.5,-418 144.5,-424 144.5,-424 144.5,-436 144.5,-436 144.5,-442 138.5,-448 132.5,-448"/>
<text text-anchor="start" x="60" y="-432.4" font-family="Liberation Sans,Helvetica,Arial,sans-serif" font-weight="bold" font-size="12.00" fill="#002b36">max_depth</text>
<text text-anchor="start" x="47.5" y="-422" font-family="Liberation Sans,Helvetica,Arial,sans-serif" font-size="10.00" fill="#268bd2">1 values (1 sources)</text>
</g>
<!-- max_depth&#45;&gt;train_random_forest -->
<g id="edge15" class="edge">
<title>max_depth&#45;&gt;train_random_forest</title>
<path fill="none" stroke="#002b36" d="M93.27,-411.94C95.39,-395.82 101.02,-372.08 116,-358 132.43,-342.57 154.61,-333.44 176.34,-328.08"/>
<polygon fill="#002b36" stroke="#002b36" points="177.26,-331.46 186.26,-325.87 175.74,-324.63 177.26,-331.46"/>
<text text-anchor="middle" x="140.5" y="-379" font-family="Liberation Sans,Helvetica,Arial,sans-serif" font-size="10.00" fill="#002b36">max_depth</text>
<text text-anchor="middle" x="140.5" y="-368" font-family="Liberation Sans,Helvetica,Arial,sans-serif" font-size="10.00" fill="#002b36">(1 values)</text>
</g>
<!-- y -->
<g id="node12" class="node">
<title>y</title>
<path fill="none" stroke="#268bd2" stroke-width="1.5" d="M386,-640C386,-640 356,-640 356,-640 350,-640 344,-634 344,-628 344,-628 344,-616 344,-616 344,-610 350,-604 356,-604 356,-604 386,-604 386,-604 392,-604 398,-610 398,-616 398,-616 398,-628 398,-628 398,-634 392,-640 386,-640"/>
<text text-anchor="start" x="367.5" y="-624.4" font-family="Liberation Sans,Helvetica,Arial,sans-serif" font-weight="bold" font-size="12.00" fill="#002b36">y</text>
<text text-anchor="start" x="352.5" y="-614" font-family="Liberation Sans,Helvetica,Arial,sans-serif" font-size="10.00" fill="#268bd2">1 values</text>
</g>
<!-- y&#45;&gt;get_train_test_split -->
<g id="edge11" class="edge">
<title>y&#45;&gt;get_train_test_split</title>
<path fill="none" stroke="#002b36" d="M369.87,-603.87C368.87,-592.46 367.09,-577.2 364,-564 363.38,-561.36 362.64,-558.64 361.83,-555.93"/>
<polygon fill="#002b36" stroke="#002b36" points="365.13,-554.76 358.68,-546.35 358.48,-556.95 365.13,-554.76"/>
<text text-anchor="middle" x="388.5" y="-578" font-family="Liberation Sans,Helvetica,Arial,sans-serif" font-size="10.00" fill="#002b36">y</text>
<text text-anchor="middle" x="388.5" y="-567" font-family="Liberation Sans,Helvetica,Arial,sans-serif" font-size="10.00" fill="#002b36">(1 values)</text>
</g>
<!-- train_random_forest&#45;&gt;model -->
<g id="edge12" class="edge">
<title>train_random_forest&#45;&gt;model</title>
<path fill="none" stroke="#002b36" d="M270.47,-299.94C286.86,-282.06 311.47,-255.22 329.36,-235.7"/>
<polygon fill="#002b36" stroke="#002b36" points="332.16,-237.83 336.33,-228.09 327,-233.1 332.16,-237.83"/>
<text text-anchor="middle" x="338.5" y="-267" font-family="Liberation Sans,Helvetica,Arial,sans-serif" font-size="10.00" fill="#002b36">rf_model</text>
<text text-anchor="middle" x="338.5" y="-256" font-family="Liberation Sans,Helvetica,Arial,sans-serif" font-size="10.00" fill="#002b36">(2 values)</text>
</g>
<!-- get_data -->
<g id="node14" class="node">
<title>get_data</title>
<path fill="none" stroke="#dc322f" stroke-width="1.5" d="M347,-738C347,-738 293,-738 293,-738 287,-738 281,-732 281,-726 281,-726 281,-710 281,-710 281,-704 287,-698 293,-698 293,-698 347,-698 347,-698 353,-698 359,-704 359,-710 359,-710 359,-726 359,-726 359,-732 353,-738 347,-738"/>
<text text-anchor="start" x="295" y="-725.4" font-family="Liberation Sans,Helvetica,Arial,sans-serif" font-weight="bold" font-size="12.00" fill="#002b36">get_data</text>
<text text-anchor="start" x="289" y="-715" font-family="Liberation Sans,Helvetica,Arial,sans-serif" font-size="10.00" fill="#002b36">@op:get_data</text>
<text text-anchor="start" x="305.5" y="-705" font-family="Liberation Sans,Helvetica,Arial,sans-serif" font-size="10.00" fill="#dc322f">1 calls</text>
</g>
<!-- get_data&#45;&gt;X -->
<g id="edge22" class="edge">
<title>get_data&#45;&gt;X</title>
<path fill="none" stroke="#002b36" d="M306.32,-697.68C302.88,-692.17 299.47,-686.02 297,-680 293.12,-670.56 290.28,-659.73 288.26,-650.07"/>
<polygon fill="#002b36" stroke="#002b36" points="291.68,-649.34 286.39,-640.16 284.81,-650.64 291.68,-649.34"/>
<text text-anchor="middle" x="318.5" y="-672" font-family="Liberation Sans,Helvetica,Arial,sans-serif" font-size="10.00" fill="#002b36">X</text>
<text text-anchor="middle" x="318.5" y="-661" font-family="Liberation Sans,Helvetica,Arial,sans-serif" font-size="10.00" fill="#002b36">(1 values)</text>
</g>
<!-- get_data&#45;&gt;y -->
<g id="edge23" class="edge">
<title>get_data&#45;&gt;y</title>
<path fill="none" stroke="#002b36" d="M330.32,-697.98C337.94,-683.94 348.39,-664.66 356.8,-649.17"/>
<polygon fill="#002b36" stroke="#002b36" points="360.03,-650.56 361.72,-640.1 353.88,-647.22 360.03,-650.56"/>
<text text-anchor="middle" x="372.5" y="-672" font-family="Liberation Sans,Helvetica,Arial,sans-serif" font-size="10.00" fill="#002b36">y</text>
<text text-anchor="middle" x="372.5" y="-661" font-family="Liberation Sans,Helvetica,Arial,sans-serif" font-size="10.00" fill="#002b36">(1 values)</text>
</g>
<!-- scale_data&#45;&gt;X -->
<g id="edge24" class="edge">
<title>scale_data&#45;&gt;X</title>
<path fill="none" stroke="#002b36" d="M203.94,-546.14C194.4,-558.1 186.51,-573.54 195,-586 206.65,-603.1 228.04,-611.84 246.94,-616.32"/>
<polygon fill="#002b36" stroke="#002b36" points="246.31,-619.76 256.81,-618.34 247.71,-612.9 246.31,-619.76"/>
<text text-anchor="middle" x="216.5" y="-578" font-family="Liberation Sans,Helvetica,Arial,sans-serif" font-size="10.00" fill="#002b36">X_scaled</text>
<text text-anchor="middle" x="216.5" y="-567" font-family="Liberation Sans,Helvetica,Arial,sans-serif" font-size="10.00" fill="#002b36">(1 values)</text>
</g>
<!-- get_train_test_split&#45;&gt;y_test -->
<g id="edge6" class="edge">
<title>get_train_test_split&#45;&gt;y_test</title>
<path fill="none" stroke="#002b36" d="M288.41,-509.06C284.21,-508.02 280.04,-506.99 276,-506 166.88,-479.32 101.57,-534.58 30,-448 20.13,-436.06 19.22,-418.76 20.85,-404.23"/>
<polygon fill="#002b36" stroke="#002b36" points="24.33,-404.66 22.4,-394.25 17.41,-403.59 24.33,-404.66"/>
<text text-anchor="middle" x="100.5" y="-480" font-family="Liberation Sans,Helvetica,Arial,sans-serif" font-size="10.00" fill="#002b36">y_test</text>
<text text-anchor="middle" x="100.5" y="-469" font-family="Liberation Sans,Helvetica,Arial,sans-serif" font-size="10.00" fill="#002b36">(2 values)</text>
</g>
<!-- get_train_test_split&#45;&gt;X_train -->
<g id="edge7" class="edge">
<title>get_train_test_split&#45;&gt;X_train</title>
<path fill="none" stroke="#002b36" d="M358.69,-505.98C364.31,-492.07 372.01,-473.03 378.24,-457.61"/>
<polygon fill="#002b36" stroke="#002b36" points="381.59,-458.68 382.09,-448.1 375.1,-456.06 381.59,-458.68"/>
<text text-anchor="middle" x="395.5" y="-480" font-family="Liberation Sans,Helvetica,Arial,sans-serif" font-size="10.00" fill="#002b36">X_train</text>
<text text-anchor="middle" x="395.5" y="-469" font-family="Liberation Sans,Helvetica,Arial,sans-serif" font-size="10.00" fill="#002b36">(2 values)</text>
</g>
<!-- get_train_test_split&#45;&gt;y_train -->
<g id="edge8" class="edge">
<title>get_train_test_split&#45;&gt;y_train</title>
<path fill="none" stroke="#002b36" d="M331.22,-505.72C326.83,-500.4 322.68,-494.33 320,-488 316.06,-478.72 314.3,-467.85 313.61,-458.11"/>
<polygon fill="#002b36" stroke="#002b36" points="317.11,-457.97 313.23,-448.11 310.11,-458.24 317.11,-457.97"/>
<text text-anchor="middle" x="341.5" y="-480" font-family="Liberation Sans,Helvetica,Arial,sans-serif" font-size="10.00" fill="#002b36">y_train</text>
<text text-anchor="middle" x="341.5" y="-469" font-family="Liberation Sans,Helvetica,Arial,sans-serif" font-size="10.00" fill="#002b36">(2 values)</text>
</g>
<!-- get_train_test_split&#45;&gt;X_test -->
<g id="edge5" class="edge">
<title>get_train_test_split&#45;&gt;X_test</title>
<path fill="none" stroke="#002b36" d="M413.64,-519.1C498.02,-509.7 641.31,-488.16 673,-448 710.64,-400.29 664.59,-328.08 634.71,-290.21"/>
<polygon fill="#002b36" stroke="#002b36" points="637.27,-287.8 628.25,-282.23 631.83,-292.21 637.27,-287.8"/>
<text text-anchor="middle" x="707.5" y="-433" font-family="Liberation Sans,Helvetica,Arial,sans-serif" font-size="10.00" fill="#002b36">X_test</text>
<text text-anchor="middle" x="707.5" y="-422" font-family="Liberation Sans,Helvetica,Arial,sans-serif" font-size="10.00" fill="#002b36">(2 values)</text>
</g>
<!-- eval_model&#45;&gt;accuracy -->
<g id="edge1" class="edge">
<title>eval_model&#45;&gt;accuracy</title>
<path fill="none" stroke="#002b36" d="M352,-93.98C352,-80.34 352,-61.75 352,-46.5"/>
<polygon fill="#002b36" stroke="#002b36" points="355.5,-46.1 352,-36.1 348.5,-46.1 355.5,-46.1"/>
<text text-anchor="middle" x="373.5" y="-68" font-family="Liberation Sans,Helvetica,Arial,sans-serif" font-size="10.00" fill="#002b36">accuracy</text>
<text text-anchor="middle" x="373.5" y="-57" font-family="Liberation Sans,Helvetica,Arial,sans-serif" font-size="10.00" fill="#002b36">(4 values)</text>
</g>
<!-- train_svc&#45;&gt;model -->
<g id="edge19" class="edge">
<title>train_svc&#45;&gt;model</title>
<path fill="none" stroke="#002b36" d="M433.53,-299.94C417.14,-282.06 392.53,-255.22 374.64,-235.7"/>
<polygon fill="#002b36" stroke="#002b36" points="377,-233.1 367.67,-228.09 371.84,-237.83 377,-233.1"/>
<text text-anchor="middle" x="440" y="-267" font-family="Liberation Sans,Helvetica,Arial,sans-serif" font-size="10.00" fill="#002b36">svc_model</text>
<text text-anchor="middle" x="440" y="-256" font-family="Liberation Sans,Helvetica,Arial,sans-serif" font-size="10.00" fill="#002b36">(2 values)</text>
</g>
</g>
</svg>
