<?xml version="1.0" encoding="UTF-8" standalone="no"?>
<!DOCTYPE svg PUBLIC "-//W3C//DTD SVG 1.1//EN"
 "http://www.w3.org/Graphics/SVG/1.1/DTD/svg11.dtd">
<!-- Generated by graphviz version 2.50.0 (0)
 -->
<!-- Title: G Pages: 1 -->
<svg width="756pt" height="79pt"
 viewBox="0.00 0.00 756.00 79.00" xmlns="http://www.w3.org/2000/svg" xmlns:xlink="http://www.w3.org/1999/xlink">
<g id="graph0" class="graph" transform="scale(1 1) rotate(0) translate(4 75)">
<title>G</title>
<polygon fill="white" stroke="transparent" points="-4,4 -4,-75 752,-75 752,4 -4,4"/>
<!-- w -->
<g id="node1" class="node">
<title>w</title>
<path fill="none" stroke="#268bd2" stroke-width="1.5" d="M736,-39C736,-39 666,-39 666,-39 660,-39 654,-33 654,-27 654,-27 654,-15 654,-15 654,-9 660,-3 666,-3 666,-3 736,-3 736,-3 742,-3 748,-9 748,-15 748,-15 748,-27 748,-27 748,-33 742,-39 736,-39"/>
<text text-anchor="start" x="696" y="-23.4" font-family="Liberation Sans,Helvetica,Arial,sans-serif" font-weight="bold" font-size="12.00" fill="#002b36">w</text>
<text text-anchor="start" x="662" y="-13" font-family="Liberation Sans,Helvetica,Arial,sans-serif" font-size="10.00" fill="#268bd2">3 values (3 sinks)</text>
</g>
<!-- y -->
<g id="node2" class="node">
<title>y</title>
<path fill="none" stroke="#268bd2" stroke-width="1.5" d="M428,-66C428,-66 358,-66 358,-66 352,-66 346,-60 346,-54 346,-54 346,-42 346,-42 346,-36 352,-30 358,-30 358,-30 428,-30 428,-30 434,-30 440,-36 440,-42 440,-42 440,-54 440,-54 440,-60 434,-66 428,-66"/>
<text text-anchor="start" x="389.5" y="-50.4" font-family="Liberation Sans,Helvetica,Arial,sans-serif" font-weight="bold" font-size="12.00" fill="#002b36">y</text>
<text text-anchor="start" x="354" y="-40" font-family="Liberation Sans,Helvetica,Arial,sans-serif" font-size="10.00" fill="#268bd2">5 values (2 sinks)</text>
</g>
<!-- add -->
<g id="node5" class="node">
<title>add</title>
<path fill="none" stroke="#dc322f" stroke-width="1.5" d="M563,-41C563,-41 531,-41 531,-41 525,-41 519,-35 519,-29 519,-29 519,-13 519,-13 519,-7 525,-1 531,-1 531,-1 563,-1 563,-1 569,-1 575,-7 575,-13 575,-13 575,-29 575,-29 575,-35 569,-41 563,-41"/>
<text text-anchor="start" x="536" y="-28.4" font-family="Liberation Sans,Helvetica,Arial,sans-serif" font-weight="bold" font-size="12.00" fill="#002b36">add</text>
<text text-anchor="start" x="527" y="-18" font-family="Liberation Sans,Helvetica,Arial,sans-serif" font-size="10.00" fill="#002b36">@op:add</text>
<text text-anchor="start" x="532.5" y="-8" font-family="Liberation Sans,Helvetica,Arial,sans-serif" font-size="10.00" fill="#dc322f">3 calls</text>
</g>
<!-- y&#45;&gt;add -->
<g id="edge4" class="edge">
<title>y&#45;&gt;add</title>
<path fill="none" stroke="#002b36" d="M440.02,-39.83C461.99,-35.92 487.95,-31.31 508.68,-27.63"/>
<polygon fill="#002b36" stroke="#002b36" points="509.46,-31.05 518.69,-25.85 508.23,-24.15 509.46,-31.05"/>
<text text-anchor="middle" x="479.5" y="-50" font-family="Liberation Sans,Helvetica,Arial,sans-serif" font-size="10.00" fill="#002b36">y</text>
<text text-anchor="middle" x="479.5" y="-39" font-family="Liberation Sans,Helvetica,Arial,sans-serif" font-size="10.00" fill="#002b36">(3 values)</text>
</g>
<!-- x -->
<g id="node3" class="node">
<title>x</title>
<path fill="none" stroke="#268bd2" stroke-width="1.5" d="M93,-36C93,-36 12,-36 12,-36 6,-36 0,-30 0,-24 0,-24 0,-12 0,-12 0,-6 6,0 12,0 12,0 93,0 93,0 99,0 105,-6 105,-12 105,-12 105,-24 105,-24 105,-30 99,-36 93,-36"/>
<text text-anchor="start" x="49" y="-20.4" font-family="Liberation Sans,Helvetica,Arial,sans-serif" font-weight="bold" font-size="12.00" fill="#002b36">x</text>
<text text-anchor="start" x="8" y="-10" font-family="Liberation Sans,Helvetica,Arial,sans-serif" font-size="10.00" fill="#268bd2">5 values (5 sources)</text>
</g>
<!-- increment -->
<g id="node4" class="node">
<title>increment</title>
<path fill="none" stroke="#dc322f" stroke-width="1.5" d="M255,-70C255,-70 196,-70 196,-70 190,-70 184,-64 184,-58 184,-58 184,-42 184,-42 184,-36 190,-30 196,-30 196,-30 255,-30 255,-30 261,-30 267,-36 267,-42 267,-42 267,-58 267,-58 267,-64 261,-70 255,-70"/>
<text text-anchor="start" x="196.5" y="-57.4" font-family="Liberation Sans,Helvetica,Arial,sans-serif" font-weight="bold" font-size="12.00" fill="#002b36">increment</text>
<text text-anchor="start" x="192" y="-47" font-family="Liberation Sans,Helvetica,Arial,sans-serif" font-size="10.00" fill="#002b36">@op:increment</text>
<text text-anchor="start" x="211" y="-37" font-family="Liberation Sans,Helvetica,Arial,sans-serif" font-size="10.00" fill="#dc322f">5 calls</text>
</g>
<!-- x&#45;&gt;increment -->
<g id="edge2" class="edge">
<title>x&#45;&gt;increment</title>
<path fill="none" stroke="#002b36" d="M105.27,-27.69C126.99,-31.75 152.18,-36.47 173.79,-40.51"/>
<polygon fill="#002b36" stroke="#002b36" points="173.29,-43.98 183.76,-42.38 174.57,-37.1 173.29,-43.98"/>
<text text-anchor="middle" x="144.5" y="-52" font-family="Liberation Sans,Helvetica,Arial,sans-serif" font-size="10.00" fill="#002b36">x</text>
<text text-anchor="middle" x="144.5" y="-41" font-family="Liberation Sans,Helvetica,Arial,sans-serif" font-size="10.00" fill="#002b36">(5 values)</text>
</g>
<!-- x&#45;&gt;add -->
<g id="edge3" class="edge">
<title>x&#45;&gt;add</title>
<path fill="none" stroke="#002b36" d="M105.28,-18.32C204.97,-18.92 421.41,-20.24 508.54,-20.77"/>
<polygon fill="#002b36" stroke="#002b36" points="508.73,-24.27 518.75,-20.83 508.78,-17.27 508.73,-24.27"/>
<text text-anchor="middle" x="306.5" y="-33" font-family="Liberation Sans,Helvetica,Arial,sans-serif" font-size="10.00" fill="#002b36">z</text>
<text text-anchor="middle" x="306.5" y="-22" font-family="Liberation Sans,Helvetica,Arial,sans-serif" font-size="10.00" fill="#002b36">(3 values)</text>
</g>
<!-- increment&#45;&gt;y -->
<g id="edge1" class="edge">
<title>increment&#45;&gt;y</title>
<path fill="none" stroke="#002b36" d="M267.41,-49.51C288,-49.26 313.27,-48.95 335.66,-48.68"/>
<polygon fill="#002b36" stroke="#002b36" points="335.76,-52.18 345.72,-48.56 335.68,-45.18 335.76,-52.18"/>
<text text-anchor="middle" x="306.5" y="-63" font-family="Liberation Sans,Helvetica,Arial,sans-serif" font-size="10.00" fill="#002b36">y</text>
<text text-anchor="middle" x="306.5" y="-52" font-family="Liberation Sans,Helvetica,Arial,sans-serif" font-size="10.00" fill="#002b36">(5 values)</text>
</g>
<!-- add&#45;&gt;w -->
<g id="edge5" class="edge">
<title>add&#45;&gt;w</title>
<path fill="none" stroke="#002b36" d="M575.17,-21C594.22,-21 620.35,-21 643.79,-21"/>
<polygon fill="#002b36" stroke="#002b36" points="643.98,-24.5 653.98,-21 643.98,-17.5 643.98,-24.5"/>
<text text-anchor="middle" x="614.5" y="-35" font-family="Liberation Sans,Helvetica,Arial,sans-serif" font-size="10.00" fill="#002b36">w</text>
<text text-anchor="middle" x="614.5" y="-24" font-family="Liberation Sans,Helvetica,Arial,sans-serif" font-size="10.00" fill="#002b36">(3 values)</text>
</g>
</g>
</svg>
