<?xml version="1.0" encoding="UTF-8" standalone="no"?>
<!DOCTYPE svg PUBLIC "-//W3C//DTD SVG 1.1//EN"
 "http://www.w3.org/Graphics/SVG/1.1/DTD/svg11.dtd">
<!-- Generated by graphviz version 2.50.0 (0)
 -->
<!-- Title: G Pages: 1 -->
<svg width="860pt" height="910pt"
 viewBox="0.00 0.00 859.50 910.00" xmlns="http://www.w3.org/2000/svg" xmlns:xlink="http://www.w3.org/1999/xlink">
<g id="graph0" class="graph" transform="scale(1 1) rotate(0) translate(4 906)">
<title>G</title>
<polygon fill="white" stroke="transparent" points="-4,4 -4,-906 855.5,-906 855.5,4 -4,4"/>
<!-- C -->
<g id="node1" class="node">
<title>C</title>
<path fill="none" stroke="#268bd2" stroke-width="1.5" d="M716.5,-612C716.5,-612 635.5,-612 635.5,-612 629.5,-612 623.5,-606 623.5,-600 623.5,-600 623.5,-588 623.5,-588 623.5,-582 629.5,-576 635.5,-576 635.5,-576 716.5,-576 716.5,-576 722.5,-576 728.5,-582 728.5,-588 728.5,-588 728.5,-600 728.5,-600 728.5,-606 722.5,-612 716.5,-612"/>
<text text-anchor="start" x="671" y="-596.4" font-family="Liberation Sans,Helvetica,Arial,sans-serif" font-weight="bold" font-size="12.00" fill="#002b36">C</text>
<text text-anchor="start" x="631.5" y="-586" font-family="Liberation Sans,Helvetica,Arial,sans-serif" font-size="10.00" fill="#268bd2">1 values (1 sources)</text>
</g>
<!-- train_svc -->
<g id="node20" class="node">
<title>train_svc</title>
<path fill="none" stroke="#dc322f" stroke-width="1.5" d="M638,-518C638,-518 582,-518 582,-518 576,-518 570,-512 570,-506 570,-506 570,-490 570,-490 570,-484 576,-478 582,-478 582,-478 638,-478 638,-478 644,-478 650,-484 650,-490 650,-490 650,-506 650,-506 650,-512 644,-518 638,-518"/>
<text text-anchor="start" x="583.5" y="-505.4" font-family="Liberation Sans,Helvetica,Arial,sans-serif" font-weight="bold" font-size="12.00" fill="#002b36">train_svc</text>
<text text-anchor="start" x="578" y="-495" font-family="Liberation Sans,Helvetica,Arial,sans-serif" font-size="10.00" fill="#002b36">@op:train_svc</text>
<text text-anchor="start" x="595.5" y="-485" font-family="Liberation Sans,Helvetica,Arial,sans-serif" font-size="10.00" fill="#dc322f">6 calls</text>
</g>
<!-- C&#45;&gt;train_svc -->
<g id="edge26" class="edge">
<title>C&#45;&gt;train_svc</title>
<path fill="none" stroke="#002b36" d="M668.53,-575.79C663.08,-564.07 655.07,-548.49 646,-536 643.45,-532.49 640.58,-528.99 637.6,-525.61"/>
<polygon fill="#002b36" stroke="#002b36" points="639.92,-522.97 630.55,-518.03 634.8,-527.73 639.92,-522.97"/>
<text text-anchor="middle" x="680.5" y="-550" font-family="Liberation Sans,Helvetica,Arial,sans-serif" font-size="10.00" fill="#002b36">C</text>
<text text-anchor="middle" x="680.5" y="-539" font-family="Liberation Sans,Helvetica,Arial,sans-serif" font-size="10.00" fill="#002b36">(1 values)</text>
</g>
<!-- y_test -->
<g id="node2" class="node">
<title>y_test</title>
<path fill="none" stroke="#268bd2" stroke-width="1.5" d="M118,-420C118,-420 88,-420 88,-420 82,-420 76,-414 76,-408 76,-408 76,-396 76,-396 76,-390 82,-384 88,-384 88,-384 118,-384 118,-384 124,-384 130,-390 130,-396 130,-396 130,-408 130,-408 130,-414 124,-420 118,-420"/>
<text text-anchor="start" x="85.5" y="-404.4" font-family="Liberation Sans,Helvetica,Arial,sans-serif" font-weight="bold" font-size="12.00" fill="#002b36">y_test</text>
<text text-anchor="start" x="84.5" y="-394" font-family="Liberation Sans,Helvetica,Arial,sans-serif" font-size="10.00" fill="#268bd2">2 values</text>
</g>
<!-- eval_ensemble -->
<g id="node15" class="node">
<title>eval_ensemble</title>
<path fill="none" stroke="#dc322f" stroke-width="1.5" d="M264,-134C264,-134 182,-134 182,-134 176,-134 170,-128 170,-122 170,-122 170,-106 170,-106 170,-100 176,-94 182,-94 182,-94 264,-94 264,-94 270,-94 276,-100 276,-106 276,-106 276,-122 276,-122 276,-128 270,-134 264,-134"/>
<text text-anchor="start" x="180" y="-121.4" font-family="Liberation Sans,Helvetica,Arial,sans-serif" font-weight="bold" font-size="12.00" fill="#002b36">eval_ensemble</text>
<text text-anchor="start" x="178" y="-111" font-family="Liberation Sans,Helvetica,Arial,sans-serif" font-size="10.00" fill="#002b36">@op:eval_ensemble</text>
<text text-anchor="start" x="208.5" y="-101" font-family="Liberation Sans,Helvetica,Arial,sans-serif" font-size="10.00" fill="#dc322f">2 calls</text>
</g>
<!-- y_test&#45;&gt;eval_ensemble -->
<g id="edge2" class="edge">
<title>y_test&#45;&gt;eval_ensemble</title>
<path fill="none" stroke="#002b36" d="M105.98,-383.84C110.24,-361.01 119.04,-319.62 132,-286 152.35,-233.23 185.24,-175.99 205.41,-142.93"/>
<polygon fill="#002b36" stroke="#002b36" points="208.48,-144.62 210.74,-134.27 202.51,-140.95 208.48,-144.62"/>
<text text-anchor="middle" x="170.5" y="-260" font-family="Liberation Sans,Helvetica,Arial,sans-serif" font-size="10.00" fill="#002b36">y_test</text>
<text text-anchor="middle" x="170.5" y="-249" font-family="Liberation Sans,Helvetica,Arial,sans-serif" font-size="10.00" fill="#002b36">(2 values)</text>
</g>
<!-- eval_model -->
<g id="node19" class="node">
<title>eval_model</title>
<path fill="none" stroke="#dc322f" stroke-width="1.5" d="M219,-326C219,-326 153,-326 153,-326 147,-326 141,-320 141,-314 141,-314 141,-298 141,-298 141,-292 147,-286 153,-286 153,-286 219,-286 219,-286 225,-286 231,-292 231,-298 231,-298 231,-314 231,-314 231,-320 225,-326 219,-326"/>
<text text-anchor="start" x="153" y="-313.4" font-family="Liberation Sans,Helvetica,Arial,sans-serif" font-weight="bold" font-size="12.00" fill="#002b36">eval_model</text>
<text text-anchor="start" x="149" y="-303" font-family="Liberation Sans,Helvetica,Arial,sans-serif" font-size="10.00" fill="#002b36">@op:eval_model</text>
<text text-anchor="start" x="169" y="-293" font-family="Liberation Sans,Helvetica,Arial,sans-serif" font-size="10.00" fill="#dc322f">12 calls</text>
</g>
<!-- y_test&#45;&gt;eval_model -->
<g id="edge3" class="edge">
<title>y_test&#45;&gt;eval_model</title>
<path fill="none" stroke="#002b36" d="M114.29,-383.85C122.3,-372.16 133.61,-356.57 145,-344 148.29,-340.37 151.89,-336.72 155.56,-333.19"/>
<polygon fill="#002b36" stroke="#002b36" points="158.15,-335.56 163.09,-326.19 153.39,-330.44 158.15,-335.56"/>
<text text-anchor="middle" x="166.5" y="-358" font-family="Liberation Sans,Helvetica,Arial,sans-serif" font-size="10.00" fill="#002b36">y_test</text>
<text text-anchor="middle" x="166.5" y="-347" font-family="Liberation Sans,Helvetica,Arial,sans-serif" font-size="10.00" fill="#002b36">(2 values)</text>
</g>
<!-- model -->
<g id="node3" class="node">
<title>model</title>
<path fill="none" stroke="#268bd2" stroke-width="1.5" d="M426.5,-420C426.5,-420 391.5,-420 391.5,-420 385.5,-420 379.5,-414 379.5,-408 379.5,-408 379.5,-396 379.5,-396 379.5,-390 385.5,-384 391.5,-384 391.5,-384 426.5,-384 426.5,-384 432.5,-384 438.5,-390 438.5,-396 438.5,-396 438.5,-408 438.5,-408 438.5,-414 432.5,-420 426.5,-420"/>
<text text-anchor="start" x="391" y="-404.4" font-family="Liberation Sans,Helvetica,Arial,sans-serif" font-weight="bold" font-size="12.00" fill="#002b36">model</text>
<text text-anchor="start" x="387.5" y="-394" font-family="Liberation Sans,Helvetica,Arial,sans-serif" font-size="10.00" fill="#268bd2">12 values</text>
</g>
<!-- model&#45;&gt;eval_model -->
<g id="edge5" class="edge">
<title>model&#45;&gt;eval_model</title>
<path fill="none" stroke="#002b36" d="M379.39,-388.52C344.07,-373.63 284.31,-348.44 240.55,-330"/>
<polygon fill="#002b36" stroke="#002b36" points="241.77,-326.71 231.19,-326.05 239.05,-333.16 241.77,-326.71"/>
<text text-anchor="middle" x="349.5" y="-358" font-family="Liberation Sans,Helvetica,Arial,sans-serif" font-size="10.00" fill="#002b36">model</text>
<text text-anchor="middle" x="349.5" y="-347" font-family="Liberation Sans,Helvetica,Arial,sans-serif" font-size="10.00" fill="#002b36">(12 values)</text>
</g>
<!-- __make_list__ -->
<g id="node21" class="node">
<title>__make_list__</title>
<path fill="none" stroke="#dc322f" stroke-width="1.5" d="M449,-326C449,-326 369,-326 369,-326 363,-326 357,-320 357,-314 357,-314 357,-298 357,-298 357,-292 363,-286 369,-286 369,-286 449,-286 449,-286 455,-286 461,-292 461,-298 461,-298 461,-314 461,-314 461,-320 455,-326 449,-326"/>
<text text-anchor="start" x="368" y="-313.4" font-family="Liberation Sans,Helvetica,Arial,sans-serif" font-weight="bold" font-size="12.00" fill="#002b36">__make_list__</text>
<text text-anchor="start" x="365" y="-303" font-family="Liberation Sans,Helvetica,Arial,sans-serif" font-size="10.00" fill="#002b36">@op:__make_list__</text>
<text text-anchor="start" x="394.5" y="-293" font-family="Liberation Sans,Helvetica,Arial,sans-serif" font-size="10.00" fill="#dc322f">2 calls</text>
</g>
<!-- model&#45;&gt;__make_list__ -->
<g id="edge6" class="edge">
<title>model&#45;&gt;__make_list__</title>
<path fill="none" stroke="#002b36" d="M409,-383.76C409,-370.5 409,-351.86 409,-336.27"/>
<polygon fill="#002b36" stroke="#002b36" points="412.5,-336.07 409,-326.07 405.5,-336.07 412.5,-336.07"/>
<text text-anchor="middle" x="433.5" y="-358" font-family="Liberation Sans,Helvetica,Arial,sans-serif" font-size="10.00" fill="#002b36">*elts</text>
<text text-anchor="middle" x="433.5" y="-347" font-family="Liberation Sans,Helvetica,Arial,sans-serif" font-size="10.00" fill="#002b36">(12 values)</text>
</g>
<!-- X_train -->
<g id="node4" class="node">
<title>X_train</title>
<path fill="none" stroke="#268bd2" stroke-width="1.5" d="M488.5,-612C488.5,-612 455.5,-612 455.5,-612 449.5,-612 443.5,-606 443.5,-600 443.5,-600 443.5,-588 443.5,-588 443.5,-582 449.5,-576 455.5,-576 455.5,-576 488.5,-576 488.5,-576 494.5,-576 500.5,-582 500.5,-588 500.5,-588 500.5,-600 500.5,-600 500.5,-606 494.5,-612 488.5,-612"/>
<text text-anchor="start" x="451.5" y="-596.4" font-family="Liberation Sans,Helvetica,Arial,sans-serif" font-weight="bold" font-size="12.00" fill="#002b36">X_train</text>
<text text-anchor="start" x="453.5" y="-586" font-family="Liberation Sans,Helvetica,Arial,sans-serif" font-size="10.00" fill="#268bd2">2 values</text>
</g>
<!-- train_random_forest -->
<g id="node14" class="node">
<title>train_random_forest</title>
<path fill="none" stroke="#dc322f" stroke-width="1.5" d="M463.5,-518C463.5,-518 354.5,-518 354.5,-518 348.5,-518 342.5,-512 342.5,-506 342.5,-506 342.5,-490 342.5,-490 342.5,-484 348.5,-478 354.5,-478 354.5,-478 463.5,-478 463.5,-478 469.5,-478 475.5,-484 475.5,-490 475.5,-490 475.5,-506 475.5,-506 475.5,-512 469.5,-518 463.5,-518"/>
<text text-anchor="start" x="350.5" y="-505.4" font-family="Liberation Sans,Helvetica,Arial,sans-serif" font-weight="bold" font-size="12.00" fill="#002b36">train_random_forest</text>
<text text-anchor="start" x="353.5" y="-495" font-family="Liberation Sans,Helvetica,Arial,sans-serif" font-size="10.00" fill="#002b36">@op:train_random_forest</text>
<text text-anchor="start" x="394.5" y="-485" font-family="Liberation Sans,Helvetica,Arial,sans-serif" font-size="10.00" fill="#dc322f">6 calls</text>
</g>
<!-- X_train&#45;&gt;train_random_forest -->
<g id="edge19" class="edge">
<title>X_train&#45;&gt;train_random_forest</title>
<path fill="none" stroke="#002b36" d="M443.23,-579.19C430.16,-572.29 416.78,-564.14 413,-558 407.61,-549.24 405.83,-538.3 405.65,-528.23"/>
<polygon fill="#002b36" stroke="#002b36" points="409.15,-528.28 405.97,-518.17 402.16,-528.06 409.15,-528.28"/>
<text text-anchor="middle" x="434.5" y="-550" font-family="Liberation Sans,Helvetica,Arial,sans-serif" font-size="10.00" fill="#002b36">X_train</text>
<text text-anchor="middle" x="434.5" y="-539" font-family="Liberation Sans,Helvetica,Arial,sans-serif" font-size="10.00" fill="#002b36">(2 values)</text>
</g>
<!-- X_train&#45;&gt;train_svc -->
<g id="edge20" class="edge">
<title>X_train&#45;&gt;train_svc</title>
<path fill="none" stroke="#002b36" d="M469.46,-575.81C468.62,-563.34 469.72,-546.82 479,-536 498.8,-512.91 531.8,-503.69 559.72,-500.22"/>
<polygon fill="#002b36" stroke="#002b36" points="560.16,-503.69 569.75,-499.19 559.44,-496.73 560.16,-503.69"/>
<text text-anchor="middle" x="500.5" y="-550" font-family="Liberation Sans,Helvetica,Arial,sans-serif" font-size="10.00" fill="#002b36">X_train</text>
<text text-anchor="middle" x="500.5" y="-539" font-family="Liberation Sans,Helvetica,Arial,sans-serif" font-size="10.00" fill="#002b36">(2 values)</text>
</g>
<!-- n_estimators -->
<g id="node5" class="node">
<title>n_estimators</title>
<path fill="none" stroke="#268bd2" stroke-width="1.5" d="M290.5,-612C290.5,-612 209.5,-612 209.5,-612 203.5,-612 197.5,-606 197.5,-600 197.5,-600 197.5,-588 197.5,-588 197.5,-582 203.5,-576 209.5,-576 209.5,-576 290.5,-576 290.5,-576 296.5,-576 302.5,-582 302.5,-588 302.5,-588 302.5,-600 302.5,-600 302.5,-606 296.5,-612 290.5,-612"/>
<text text-anchor="start" x="212.5" y="-596.4" font-family="Liberation Sans,Helvetica,Arial,sans-serif" font-weight="bold" font-size="12.00" fill="#002b36">n_estimators</text>
<text text-anchor="start" x="205.5" y="-586" font-family="Liberation Sans,Helvetica,Arial,sans-serif" font-size="10.00" fill="#268bd2">3 values (3 sources)</text>
</g>
<!-- n_estimators&#45;&gt;train_random_forest -->
<g id="edge22" class="edge">
<title>n_estimators&#45;&gt;train_random_forest</title>
<path fill="none" stroke="#002b36" d="M254.3,-575.92C258.37,-563.16 265.72,-546.23 278,-536 293.45,-523.12 313.11,-514.72 332.47,-509.24"/>
<polygon fill="#002b36" stroke="#002b36" points="333.44,-512.6 342.24,-506.7 331.68,-505.83 333.44,-512.6"/>
<text text-anchor="middle" x="306.5" y="-550" font-family="Liberation Sans,Helvetica,Arial,sans-serif" font-size="10.00" fill="#002b36">n_estimators</text>
<text text-anchor="middle" x="306.5" y="-539" font-family="Liberation Sans,Helvetica,Arial,sans-serif" font-size="10.00" fill="#002b36">(3 values)</text>
</g>
<!-- y_train -->
<g id="node6" class="node">
<title>y_train</title>
<path fill="none" stroke="#268bd2" stroke-width="1.5" d="M563,-612C563,-612 531,-612 531,-612 525,-612 519,-606 519,-600 519,-600 519,-588 519,-588 519,-582 525,-576 531,-576 531,-576 563,-576 563,-576 569,-576 575,-582 575,-588 575,-588 575,-600 575,-600 575,-606 569,-612 563,-612"/>
<text text-anchor="start" x="527" y="-596.4" font-family="Liberation Sans,Helvetica,Arial,sans-serif" font-weight="bold" font-size="12.00" fill="#002b36">y_train</text>
<text text-anchor="start" x="528.5" y="-586" font-family="Liberation Sans,Helvetica,Arial,sans-serif" font-size="10.00" fill="#268bd2">2 values</text>
</g>
<!-- y_train&#45;&gt;train_random_forest -->
<g id="edge23" class="edge">
<title>y_train&#45;&gt;train_random_forest</title>
<path fill="none" stroke="#002b36" d="M543.45,-575.82C539.99,-563.19 533.52,-546.46 522,-536 511.54,-526.51 498.61,-519.45 485.27,-514.2"/>
<polygon fill="#002b36" stroke="#002b36" points="486.1,-510.78 475.51,-510.69 483.73,-517.37 486.1,-510.78"/>
<text text-anchor="middle" x="557.5" y="-550" font-family="Liberation Sans,Helvetica,Arial,sans-serif" font-size="10.00" fill="#002b36">y_train</text>
<text text-anchor="middle" x="557.5" y="-539" font-family="Liberation Sans,Helvetica,Arial,sans-serif" font-size="10.00" fill="#002b36">(2 values)</text>
</g>
<!-- y_train&#45;&gt;train_svc -->
<g id="edge24" class="edge">
<title>y_train&#45;&gt;train_svc</title>
<path fill="none" stroke="#002b36" d="M571.12,-575.92C577.24,-570.71 583.39,-564.59 588,-558 594.3,-549 599.04,-537.97 602.48,-527.9"/>
<polygon fill="#002b36" stroke="#002b36" points="605.85,-528.84 605.5,-518.25 599.17,-526.75 605.85,-528.84"/>
<text text-anchor="middle" x="620.5" y="-550" font-family="Liberation Sans,Helvetica,Arial,sans-serif" font-size="10.00" fill="#002b36">y_train</text>
<text text-anchor="middle" x="620.5" y="-539" font-family="Liberation Sans,Helvetica,Arial,sans-serif" font-size="10.00" fill="#002b36">(2 values)</text>
</g>
<!-- kernel -->
<g id="node7" class="node">
<title>kernel</title>
<path fill="none" stroke="#268bd2" stroke-width="1.5" d="M839.5,-612C839.5,-612 758.5,-612 758.5,-612 752.5,-612 746.5,-606 746.5,-600 746.5,-600 746.5,-588 746.5,-588 746.5,-582 752.5,-576 758.5,-576 758.5,-576 839.5,-576 839.5,-576 845.5,-576 851.5,-582 851.5,-588 851.5,-588 851.5,-600 851.5,-600 851.5,-606 845.5,-612 839.5,-612"/>
<text text-anchor="start" x="781" y="-596.4" font-family="Liberation Sans,Helvetica,Arial,sans-serif" font-weight="bold" font-size="12.00" fill="#002b36">kernel</text>
<text text-anchor="start" x="754.5" y="-586" font-family="Liberation Sans,Helvetica,Arial,sans-serif" font-size="10.00" fill="#268bd2">3 values (3 sources)</text>
</g>
<!-- kernel&#45;&gt;train_svc -->
<g id="edge27" class="edge">
<title>kernel&#45;&gt;train_svc</title>
<path fill="none" stroke="#002b36" d="M774.05,-575.99C755.72,-563.92 729.94,-547.83 706,-536 691.42,-528.8 675.06,-522.04 660.04,-516.32"/>
<polygon fill="#002b36" stroke="#002b36" points="660.99,-512.93 650.4,-512.71 658.54,-519.49 660.99,-512.93"/>
<text text-anchor="middle" x="766.5" y="-550" font-family="Liberation Sans,Helvetica,Arial,sans-serif" font-size="10.00" fill="#002b36">kernel</text>
<text text-anchor="middle" x="766.5" y="-539" font-family="Liberation Sans,Helvetica,Arial,sans-serif" font-size="10.00" fill="#002b36">(3 values)</text>
</g>
<!-- X_test -->
<g id="node8" class="node">
<title>X_test</title>
<path fill="none" stroke="#268bd2" stroke-width="1.5" d="M214,-420C214,-420 184,-420 184,-420 178,-420 172,-414 172,-408 172,-408 172,-396 172,-396 172,-390 178,-384 184,-384 184,-384 214,-384 214,-384 220,-384 226,-390 226,-396 226,-396 226,-408 226,-408 226,-414 220,-420 214,-420"/>
<text text-anchor="start" x="180.5" y="-404.4" font-family="Liberation Sans,Helvetica,Arial,sans-serif" font-weight="bold" font-size="12.00" fill="#002b36">X_test</text>
<text text-anchor="start" x="180.5" y="-394" font-family="Liberation Sans,Helvetica,Arial,sans-serif" font-size="10.00" fill="#268bd2">2 values</text>
</g>
<!-- X_test&#45;&gt;eval_ensemble -->
<g id="edge7" class="edge">
<title>X_test&#45;&gt;eval_ensemble</title>
<path fill="none" stroke="#002b36" d="M226.21,-401.37C253.62,-400.11 294.68,-393.36 315,-366 367.82,-294.89 290.73,-190.28 248.09,-141.66"/>
<polygon fill="#002b36" stroke="#002b36" points="250.59,-139.2 241.32,-134.08 245.37,-143.87 250.59,-139.2"/>
<text text-anchor="middle" x="347.5" y="-260" font-family="Liberation Sans,Helvetica,Arial,sans-serif" font-size="10.00" fill="#002b36">X_test</text>
<text text-anchor="middle" x="347.5" y="-249" font-family="Liberation Sans,Helvetica,Arial,sans-serif" font-size="10.00" fill="#002b36">(2 values)</text>
</g>
<!-- X_test&#45;&gt;eval_model -->
<g id="edge8" class="edge">
<title>X_test&#45;&gt;eval_model</title>
<path fill="none" stroke="#002b36" d="M196.62,-383.76C194.78,-370.5 192.2,-351.86 190.05,-336.27"/>
<polygon fill="#002b36" stroke="#002b36" points="193.47,-335.5 188.64,-326.07 186.54,-336.46 193.47,-335.5"/>
<text text-anchor="middle" x="216.5" y="-358" font-family="Liberation Sans,Helvetica,Arial,sans-serif" font-size="10.00" fill="#002b36">X_test</text>
<text text-anchor="middle" x="216.5" y="-347" font-family="Liberation Sans,Helvetica,Arial,sans-serif" font-size="10.00" fill="#002b36">(2 values)</text>
</g>
<!-- accuracy -->
<g id="node9" class="node">
<title>accuracy</title>
<path fill="none" stroke="#268bd2" stroke-width="1.5" d="M92,-36C92,-36 12,-36 12,-36 6,-36 0,-30 0,-24 0,-24 0,-12 0,-12 0,-6 6,0 12,0 12,0 92,0 92,0 98,0 104,-6 104,-12 104,-12 104,-24 104,-24 104,-30 98,-36 92,-36"/>
<text text-anchor="start" x="25.5" y="-20.4" font-family="Liberation Sans,Helvetica,Arial,sans-serif" font-weight="bold" font-size="12.00" fill="#002b36">accuracy</text>
<text text-anchor="start" x="8" y="-10" font-family="Liberation Sans,Helvetica,Arial,sans-serif" font-size="10.00" fill="#268bd2">14 values (14 sinks)</text>
</g>
<!-- models -->
<g id="node10" class="node">
<title>models</title>
<path fill="none" stroke="#268bd2" stroke-width="1.5" d="M411.5,-228C411.5,-228 376.5,-228 376.5,-228 370.5,-228 364.5,-222 364.5,-216 364.5,-216 364.5,-204 364.5,-204 364.5,-198 370.5,-192 376.5,-192 376.5,-192 411.5,-192 411.5,-192 417.5,-192 423.5,-198 423.5,-204 423.5,-204 423.5,-216 423.5,-216 423.5,-222 417.5,-228 411.5,-228"/>
<text text-anchor="start" x="372.5" y="-212.4" font-family="Liberation Sans,Helvetica,Arial,sans-serif" font-weight="bold" font-size="12.00" fill="#002b36">models</text>
<text text-anchor="start" x="375.5" y="-202" font-family="Liberation Sans,Helvetica,Arial,sans-serif" font-size="10.00" fill="#268bd2">2 values</text>
</g>
<!-- models&#45;&gt;eval_ensemble -->
<g id="edge4" class="edge">
<title>models&#45;&gt;eval_ensemble</title>
<path fill="none" stroke="#002b36" d="M382.5,-191.74C373.22,-179.06 359.1,-162.32 343,-152 325.81,-140.98 305.13,-133.07 285.82,-127.47"/>
<polygon fill="#002b36" stroke="#002b36" points="286.74,-124.09 276.17,-124.83 284.89,-130.85 286.74,-124.09"/>
<text text-anchor="middle" x="390.5" y="-166" font-family="Liberation Sans,Helvetica,Arial,sans-serif" font-size="10.00" fill="#002b36">models</text>
<text text-anchor="middle" x="390.5" y="-155" font-family="Liberation Sans,Helvetica,Arial,sans-serif" font-size="10.00" fill="#002b36">(2 values)</text>
</g>
<!-- X -->
<g id="node11" class="node">
<title>X</title>
<path fill="none" stroke="#268bd2" stroke-width="1.5" d="M350,-804C350,-804 320,-804 320,-804 314,-804 308,-798 308,-792 308,-792 308,-780 308,-780 308,-774 314,-768 320,-768 320,-768 350,-768 350,-768 356,-768 362,-774 362,-780 362,-780 362,-792 362,-792 362,-798 356,-804 350,-804"/>
<text text-anchor="start" x="330.5" y="-788.4" font-family="Liberation Sans,Helvetica,Arial,sans-serif" font-weight="bold" font-size="12.00" fill="#002b36">X</text>
<text text-anchor="start" x="316.5" y="-778" font-family="Liberation Sans,Helvetica,Arial,sans-serif" font-size="10.00" fill="#268bd2">2 values</text>
</g>
<!-- scale_data -->
<g id="node17" class="node">
<title>scale_data</title>
<path fill="none" stroke="#dc322f" stroke-width="1.5" d="M413,-710C413,-710 349,-710 349,-710 343,-710 337,-704 337,-698 337,-698 337,-682 337,-682 337,-676 343,-670 349,-670 349,-670 413,-670 413,-670 419,-670 425,-676 425,-682 425,-682 425,-698 425,-698 425,-704 419,-710 413,-710"/>
<text text-anchor="start" x="350" y="-697.4" font-family="Liberation Sans,Helvetica,Arial,sans-serif" font-weight="bold" font-size="12.00" fill="#002b36">scale_data</text>
<text text-anchor="start" x="345" y="-687" font-family="Liberation Sans,Helvetica,Arial,sans-serif" font-size="10.00" fill="#002b36">@op:scale_data</text>
<text text-anchor="start" x="366.5" y="-677" font-family="Liberation Sans,Helvetica,Arial,sans-serif" font-size="10.00" fill="#dc322f">1 calls</text>
</g>
<!-- X&#45;&gt;scale_data -->
<g id="edge16" class="edge">
<title>X&#45;&gt;scale_data</title>
<path fill="none" stroke="#002b36" d="M337.91,-767.86C340.34,-756.18 344.48,-740.6 351,-728 352.7,-724.72 354.71,-721.46 356.89,-718.32"/>
<polygon fill="#002b36" stroke="#002b36" points="359.69,-720.41 362.89,-710.31 354.09,-716.21 359.69,-720.41"/>
<text text-anchor="middle" x="372.5" y="-742" font-family="Liberation Sans,Helvetica,Arial,sans-serif" font-size="10.00" fill="#002b36">X</text>
<text text-anchor="middle" x="372.5" y="-731" font-family="Liberation Sans,Helvetica,Arial,sans-serif" font-size="10.00" fill="#002b36">(1 values)</text>
</g>
<!-- get_train_test_split -->
<g id="node18" class="node">
<title>get_train_test_split</title>
<path fill="none" stroke="#dc322f" stroke-width="1.5" d="M303.5,-710C303.5,-710 202.5,-710 202.5,-710 196.5,-710 190.5,-704 190.5,-698 190.5,-698 190.5,-682 190.5,-682 190.5,-676 196.5,-670 202.5,-670 202.5,-670 303.5,-670 303.5,-670 309.5,-670 315.5,-676 315.5,-682 315.5,-682 315.5,-698 315.5,-698 315.5,-704 309.5,-710 303.5,-710"/>
<text text-anchor="start" x="198.5" y="-697.4" font-family="Liberation Sans,Helvetica,Arial,sans-serif" font-weight="bold" font-size="12.00" fill="#002b36">get_train_test_split</text>
<text text-anchor="start" x="199.5" y="-687" font-family="Liberation Sans,Helvetica,Arial,sans-serif" font-size="10.00" fill="#002b36">@op:get_train_test_split</text>
<text text-anchor="start" x="238.5" y="-677" font-family="Liberation Sans,Helvetica,Arial,sans-serif" font-size="10.00" fill="#dc322f">2 calls</text>
</g>
<!-- X&#45;&gt;get_train_test_split -->
<g id="edge15" class="edge">
<title>X&#45;&gt;get_train_test_split</title>
<path fill="none" stroke="#002b36" d="M314.4,-767.96C308.22,-762.48 301.61,-756.21 296,-750 287.17,-740.23 278.43,-728.67 271.15,-718.38"/>
<polygon fill="#002b36" stroke="#002b36" points="273.99,-716.33 265.42,-710.11 268.24,-720.32 273.99,-716.33"/>
<text text-anchor="middle" x="317.5" y="-742" font-family="Liberation Sans,Helvetica,Arial,sans-serif" font-size="10.00" fill="#002b36">X</text>
<text text-anchor="middle" x="317.5" y="-731" font-family="Liberation Sans,Helvetica,Arial,sans-serif" font-size="10.00" fill="#002b36">(2 values)</text>
</g>
<!-- max_depth -->
<g id="node12" class="node">
<title>max_depth</title>
<path fill="none" stroke="#268bd2" stroke-width="1.5" d="M413.5,-612C413.5,-612 332.5,-612 332.5,-612 326.5,-612 320.5,-606 320.5,-600 320.5,-600 320.5,-588 320.5,-588 320.5,-582 326.5,-576 332.5,-576 332.5,-576 413.5,-576 413.5,-576 419.5,-576 425.5,-582 425.5,-588 425.5,-588 425.5,-600 425.5,-600 425.5,-606 419.5,-612 413.5,-612"/>
<text text-anchor="start" x="341" y="-596.4" font-family="Liberation Sans,Helvetica,Arial,sans-serif" font-weight="bold" font-size="12.00" fill="#002b36">max_depth</text>
<text text-anchor="start" x="328.5" y="-586" font-family="Liberation Sans,Helvetica,Arial,sans-serif" font-size="10.00" fill="#268bd2">1 values (1 sources)</text>
</g>
<!-- max_depth&#45;&gt;train_random_forest -->
<g id="edge21" class="edge">
<title>max_depth&#45;&gt;train_random_forest</title>
<path fill="none" stroke="#002b36" d="M353.3,-575.91C342.64,-564.53 333.11,-549.27 341,-536 343.53,-531.75 346.73,-527.95 350.37,-524.57"/>
<polygon fill="#002b36" stroke="#002b36" points="352.73,-527.17 358.37,-518.2 348.37,-521.69 352.73,-527.17"/>
<text text-anchor="middle" x="365.5" y="-550" font-family="Liberation Sans,Helvetica,Arial,sans-serif" font-size="10.00" fill="#002b36">max_depth</text>
<text text-anchor="middle" x="365.5" y="-539" font-family="Liberation Sans,Helvetica,Arial,sans-serif" font-size="10.00" fill="#002b36">(1 values)</text>
</g>
<!-- y -->
<g id="node13" class="node">
<title>y</title>
<path fill="none" stroke="#268bd2" stroke-width="1.5" d="M263,-804C263,-804 233,-804 233,-804 227,-804 221,-798 221,-792 221,-792 221,-780 221,-780 221,-774 227,-768 233,-768 233,-768 263,-768 263,-768 269,-768 275,-774 275,-780 275,-780 275,-792 275,-792 275,-798 269,-804 263,-804"/>
<text text-anchor="start" x="244.5" y="-788.4" font-family="Liberation Sans,Helvetica,Arial,sans-serif" font-weight="bold" font-size="12.00" fill="#002b36">y</text>
<text text-anchor="start" x="229.5" y="-778" font-family="Liberation Sans,Helvetica,Arial,sans-serif" font-size="10.00" fill="#268bd2">1 values</text>
</g>
<!-- y&#45;&gt;get_train_test_split -->
<g id="edge17" class="edge">
<title>y&#45;&gt;get_train_test_split</title>
<path fill="none" stroke="#002b36" d="M229.66,-767.64C225.33,-762.43 221.3,-756.38 219,-750 215.68,-740.8 215.45,-737.11 219,-728 220.35,-724.55 222.18,-721.22 224.31,-718.07"/>
<polygon fill="#002b36" stroke="#002b36" points="227.07,-720.23 230.48,-710.2 221.56,-715.91 227.07,-720.23"/>
<text text-anchor="middle" x="240.5" y="-742" font-family="Liberation Sans,Helvetica,Arial,sans-serif" font-size="10.00" fill="#002b36">y</text>
<text text-anchor="middle" x="240.5" y="-731" font-family="Liberation Sans,Helvetica,Arial,sans-serif" font-size="10.00" fill="#002b36">(1 values)</text>
</g>
<!-- train_random_forest&#45;&gt;model -->
<g id="edge18" class="edge">
<title>train_random_forest&#45;&gt;model</title>
<path fill="none" stroke="#002b36" d="M409,-477.98C409,-464.34 409,-445.75 409,-430.5"/>
<polygon fill="#002b36" stroke="#002b36" points="412.5,-430.1 409,-420.1 405.5,-430.1 412.5,-430.1"/>
<text text-anchor="middle" x="430.5" y="-452" font-family="Liberation Sans,Helvetica,Arial,sans-serif" font-size="10.00" fill="#002b36">rf_model</text>
<text text-anchor="middle" x="430.5" y="-441" font-family="Liberation Sans,Helvetica,Arial,sans-serif" font-size="10.00" fill="#002b36">(6 values)</text>
</g>
<!-- eval_ensemble&#45;&gt;accuracy -->
<g id="edge1" class="edge">
<title>eval_ensemble&#45;&gt;accuracy</title>
<path fill="none" stroke="#002b36" d="M188.4,-93.98C160.57,-78.68 121.43,-57.17 92.21,-41.11"/>
<polygon fill="#002b36" stroke="#002b36" points="93.55,-37.85 83.1,-36.1 90.18,-43.98 93.55,-37.85"/>
<text text-anchor="middle" x="174.5" y="-68" font-family="Liberation Sans,Helvetica,Arial,sans-serif" font-size="10.00" fill="#002b36">accuracy</text>
<text text-anchor="middle" x="174.5" y="-57" font-family="Liberation Sans,Helvetica,Arial,sans-serif" font-size="10.00" fill="#002b36">(2 values)</text>
</g>
<!-- get_data -->
<g id="node16" class="node">
<title>get_data</title>
<path fill="none" stroke="#dc322f" stroke-width="1.5" d="M311,-902C311,-902 257,-902 257,-902 251,-902 245,-896 245,-890 245,-890 245,-874 245,-874 245,-868 251,-862 257,-862 257,-862 311,-862 311,-862 317,-862 323,-868 323,-874 323,-874 323,-890 323,-890 323,-896 317,-902 311,-902"/>
<text text-anchor="start" x="259" y="-889.4" font-family="Liberation Sans,Helvetica,Arial,sans-serif" font-weight="bold" font-size="12.00" fill="#002b36">get_data</text>
<text text-anchor="start" x="253" y="-879" font-family="Liberation Sans,Helvetica,Arial,sans-serif" font-size="10.00" fill="#002b36">@op:get_data</text>
<text text-anchor="start" x="269.5" y="-869" font-family="Liberation Sans,Helvetica,Arial,sans-serif" font-size="10.00" fill="#dc322f">1 calls</text>
</g>
<!-- get_data&#45;&gt;X -->
<g id="edge28" class="edge">
<title>get_data&#45;&gt;X</title>
<path fill="none" stroke="#002b36" d="M294.32,-861.98C301.94,-847.94 312.39,-828.66 320.8,-813.17"/>
<polygon fill="#002b36" stroke="#002b36" points="324.03,-814.56 325.72,-804.1 317.88,-811.22 324.03,-814.56"/>
<text text-anchor="middle" x="337.5" y="-836" font-family="Liberation Sans,Helvetica,Arial,sans-serif" font-size="10.00" fill="#002b36">X</text>
<text text-anchor="middle" x="337.5" y="-825" font-family="Liberation Sans,Helvetica,Arial,sans-serif" font-size="10.00" fill="#002b36">(1 values)</text>
</g>
<!-- get_data&#45;&gt;y -->
<g id="edge29" class="edge">
<title>get_data&#45;&gt;y</title>
<path fill="none" stroke="#002b36" d="M264.15,-861.76C259.75,-856.43 255.63,-850.35 253,-844 249.19,-834.8 247.6,-824.06 247.07,-814.4"/>
<polygon fill="#002b36" stroke="#002b36" points="250.56,-814.02 246.87,-804.09 243.57,-814.16 250.56,-814.02"/>
<text text-anchor="middle" x="274.5" y="-836" font-family="Liberation Sans,Helvetica,Arial,sans-serif" font-size="10.00" fill="#002b36">y</text>
<text text-anchor="middle" x="274.5" y="-825" font-family="Liberation Sans,Helvetica,Arial,sans-serif" font-size="10.00" fill="#002b36">(1 values)</text>
</g>
<!-- scale_data&#45;&gt;X -->
<g id="edge30" class="edge">
<title>scale_data&#45;&gt;X</title>
<path fill="none" stroke="#002b36" d="M391.78,-710.11C397.07,-722.19 400.96,-737.79 394,-750 388.83,-759.08 380.27,-766.05 371.25,-771.29"/>
<polygon fill="#002b36" stroke="#002b36" points="369.48,-768.26 362.19,-775.96 372.69,-774.49 369.48,-768.26"/>
<text text-anchor="middle" x="419.5" y="-742" font-family="Liberation Sans,Helvetica,Arial,sans-serif" font-size="10.00" fill="#002b36">X_scaled</text>
<text text-anchor="middle" x="419.5" y="-731" font-family="Liberation Sans,Helvetica,Arial,sans-serif" font-size="10.00" fill="#002b36">(1 values)</text>
</g>
<!-- get_train_test_split&#45;&gt;y_test -->
<g id="edge12" class="edge">
<title>get_train_test_split&#45;&gt;y_test</title>
<path fill="none" stroke="#002b36" d="M217.25,-669.9C209.13,-664.69 200.88,-658.63 194,-652 157.6,-616.94 148.99,-604.84 130,-558 112.84,-515.65 106.57,-462.47 104.3,-430.69"/>
<polygon fill="#002b36" stroke="#002b36" points="107.77,-430.15 103.65,-420.39 100.78,-430.6 107.77,-430.15"/>
<text text-anchor="middle" x="151.5" y="-550" font-family="Liberation Sans,Helvetica,Arial,sans-serif" font-size="10.00" fill="#002b36">y_test</text>
<text text-anchor="middle" x="151.5" y="-539" font-family="Liberation Sans,Helvetica,Arial,sans-serif" font-size="10.00" fill="#002b36">(2 values)</text>
</g>
<!-- get_train_test_split&#45;&gt;X_train -->
<g id="edge13" class="edge">
<title>get_train_test_split&#45;&gt;X_train</title>
<path fill="none" stroke="#002b36" d="M298.47,-669.93C335.14,-654.49 387.99,-632.08 434,-612 434.1,-611.96 434.19,-611.92 434.29,-611.88"/>
<polygon fill="#002b36" stroke="#002b36" points="435.65,-615.1 443.39,-607.87 432.83,-608.69 435.65,-615.1"/>
<text text-anchor="middle" x="411.5" y="-644" font-family="Liberation Sans,Helvetica,Arial,sans-serif" font-size="10.00" fill="#002b36">X_train</text>
<text text-anchor="middle" x="411.5" y="-633" font-family="Liberation Sans,Helvetica,Arial,sans-serif" font-size="10.00" fill="#002b36">(2 values)</text>
</g>
<!-- get_train_test_split&#45;&gt;y_train -->
<g id="edge14" class="edge">
<title>get_train_test_split&#45;&gt;y_train</title>
<path fill="none" stroke="#002b36" d="M315.52,-672.74C319.74,-671.77 323.92,-670.85 328,-670 376.06,-659.96 390.41,-667.49 437,-652 462.96,-643.37 490.27,-629.25 511.19,-617.22"/>
<polygon fill="#002b36" stroke="#002b36" points="513.17,-620.12 520.03,-612.04 509.63,-614.08 513.17,-620.12"/>
<text text-anchor="middle" x="507.5" y="-644" font-family="Liberation Sans,Helvetica,Arial,sans-serif" font-size="10.00" fill="#002b36">y_train</text>
<text text-anchor="middle" x="507.5" y="-633" font-family="Liberation Sans,Helvetica,Arial,sans-serif" font-size="10.00" fill="#002b36">(2 values)</text>
</g>
<!-- get_train_test_split&#45;&gt;X_test -->
<g id="edge11" class="edge">
<title>get_train_test_split&#45;&gt;X_test</title>
<path fill="none" stroke="#002b36" d="M229.91,-669.76C214.8,-655.58 196.35,-634.84 188,-612 165.33,-550 180.38,-470.73 191.03,-429.94"/>
<polygon fill="#002b36" stroke="#002b36" points="194.43,-430.76 193.68,-420.2 187.67,-428.92 194.43,-430.76"/>
<text text-anchor="middle" x="198.5" y="-550" font-family="Liberation Sans,Helvetica,Arial,sans-serif" font-size="10.00" fill="#002b36">X_test</text>
<text text-anchor="middle" x="198.5" y="-539" font-family="Liberation Sans,Helvetica,Arial,sans-serif" font-size="10.00" fill="#002b36">(2 values)</text>
</g>
<!-- eval_model&#45;&gt;accuracy -->
<g id="edge9" class="edge">
<title>eval_model&#45;&gt;accuracy</title>
<path fill="none" stroke="#002b36" d="M154.03,-285.89C147.37,-280.75 140.9,-274.72 136,-268 84.93,-197.89 63.39,-94.58 55.68,-46.05"/>
<polygon fill="#002b36" stroke="#002b36" points="59.12,-45.38 54.16,-36.02 52.2,-46.43 59.12,-45.38"/>
<text text-anchor="middle" x="112.5" y="-166" font-family="Liberation Sans,Helvetica,Arial,sans-serif" font-size="10.00" fill="#002b36">accuracy</text>
<text text-anchor="middle" x="112.5" y="-155" font-family="Liberation Sans,Helvetica,Arial,sans-serif" font-size="10.00" fill="#002b36">(12 values)</text>
</g>
<!-- train_svc&#45;&gt;model -->
<g id="edge25" class="edge">
<title>train_svc&#45;&gt;model</title>
<path fill="none" stroke="#002b36" d="M569.81,-478.2C534.41,-461.65 483.18,-437.69 448.11,-421.29"/>
<polygon fill="#002b36" stroke="#002b36" points="449.22,-417.94 438.68,-416.88 446.25,-424.29 449.22,-417.94"/>
<text text-anchor="middle" x="551" y="-452" font-family="Liberation Sans,Helvetica,Arial,sans-serif" font-size="10.00" fill="#002b36">svc_model</text>
<text text-anchor="middle" x="551" y="-441" font-family="Liberation Sans,Helvetica,Arial,sans-serif" font-size="10.00" fill="#002b36">(6 values)</text>
</g>
<!-- __make_list__&#45;&gt;models -->
<g id="edge10" class="edge">
<title>__make_list__&#45;&gt;models</title>
<path fill="none" stroke="#002b36" d="M405.96,-285.98C403.77,-272.2 400.76,-253.39 398.32,-238.05"/>
<polygon fill="#002b36" stroke="#002b36" points="401.76,-237.42 396.73,-228.1 394.85,-238.52 401.76,-237.42"/>
<text text-anchor="middle" x="424.5" y="-260" font-family="Liberation Sans,Helvetica,Arial,sans-serif" font-size="10.00" fill="#002b36">list</text>
<text text-anchor="middle" x="424.5" y="-249" font-family="Liberation Sans,Helvetica,Arial,sans-serif" font-size="10.00" fill="#002b36">(2 values)</text>
</g>
</g>
</svg>
