<?xml version="1.0" encoding="UTF-8" standalone="no"?>
<!DOCTYPE svg PUBLIC "-//W3C//DTD SVG 1.1//EN"
 "http://www.w3.org/Graphics/SVG/1.1/DTD/svg11.dtd">
<!-- Generated by graphviz version 2.50.0 (0)
 -->
<!-- Title: G Pages: 1 -->
<svg width="386pt" height="634pt"
 viewBox="0.00 0.00 386.00 634.00" xmlns="http://www.w3.org/2000/svg" xmlns:xlink="http://www.w3.org/1999/xlink">
<g id="graph0" class="graph" transform="scale(1 1) rotate(0) translate(4 630)">
<title>G</title>
<polygon fill="white" stroke="transparent" points="-4,4 -4,-630 382,-630 382,4 -4,4"/>
<!-- n_estimators -->
<g id="node1" class="node">
<title>n_estimators</title>
<path fill="none" stroke="#268bd2" d="M172,-434C172,-434 90,-434 90,-434 84,-434 78,-428 78,-422 78,-422 78,-410 78,-410 78,-404 84,-398 90,-398 90,-398 172,-398 172,-398 178,-398 184,-404 184,-410 184,-410 184,-422 184,-422 184,-428 178,-434 172,-434"/>
<text text-anchor="start" x="91.5" y="-418.4" font-family="RobotoMono" font-weight="bold" font-size="12.00" fill="#002b36">n_estimators</text>
<text text-anchor="start" x="86" y="-408" font-family="RobotoMono" font-size="10.00" fill="#268bd2">1 values (1 sources)</text>
</g>
<!-- train_model -->
<g id="node9" class="node">
<title>train_model</title>
<path fill="none" stroke="#dc322f" d="M169.5,-326C169.5,-326 98.5,-326 98.5,-326 92.5,-326 86.5,-320 86.5,-314 86.5,-314 86.5,-298 86.5,-298 86.5,-292 92.5,-286 98.5,-286 98.5,-286 169.5,-286 169.5,-286 175.5,-286 181.5,-292 181.5,-298 181.5,-298 181.5,-314 181.5,-314 181.5,-320 175.5,-326 169.5,-326"/>
<text text-anchor="start" x="97.5" y="-313.4" font-family="RobotoMono" font-weight="bold" font-size="12.00" fill="#002b36">train_model</text>
<text text-anchor="start" x="94.5" y="-303" font-family="RobotoMono" font-size="10.00" fill="#002b36">@op:train_model</text>
<text text-anchor="start" x="120" y="-293" font-family="RobotoMono" font-size="10.00" fill="#dc322f">1 calls</text>
</g>
<!-- n_estimators&#45;&gt;train_model -->
<g id="edge10" class="edge">
<title>n_estimators&#45;&gt;train_model</title>
<path fill="none" stroke="#002b36" d="M131.48,-397.65C131.94,-381.15 132.64,-356 133.18,-336.37"/>
<polygon fill="#002b36" stroke="#002b36" points="136.69,-336.22 133.47,-326.13 129.69,-336.03 136.69,-336.22"/>
<text text-anchor="middle" x="162.5" y="-365" font-family="RobotoMono" font-size="10.00" fill="#002b36">n_estimators</text>
<text text-anchor="middle" x="162.5" y="-354" font-family="RobotoMono" font-size="10.00" fill="#002b36">(1 values)</text>
</g>
<!-- X_train -->
<g id="node2" class="node">
<title>X_train</title>
<path fill="none" stroke="#268bd2" d="M48,-434C48,-434 12,-434 12,-434 6,-434 0,-428 0,-422 0,-422 0,-410 0,-410 0,-404 6,-398 12,-398 12,-398 48,-398 48,-398 54,-398 60,-404 60,-410 60,-410 60,-422 60,-422 60,-428 54,-434 48,-434"/>
<text text-anchor="start" x="8" y="-418.4" font-family="RobotoMono" font-weight="bold" font-size="12.00" fill="#002b36">X_train</text>
<text text-anchor="start" x="11" y="-408" font-family="RobotoMono" font-size="10.00" fill="#268bd2">1 values</text>
</g>
<!-- X_train&#45;&gt;train_model -->
<g id="edge9" class="edge">
<title>X_train&#45;&gt;train_model</title>
<path fill="none" stroke="#002b36" d="M41,-397.85C51.14,-382.75 67.14,-360.64 84,-344 88.14,-339.92 92.74,-335.92 97.44,-332.14"/>
<polygon fill="#002b36" stroke="#002b36" points="99.58,-334.91 105.36,-326.03 95.3,-329.37 99.58,-334.91"/>
<text text-anchor="middle" x="106" y="-365" font-family="RobotoMono" font-size="10.00" fill="#002b36">X_train</text>
<text text-anchor="middle" x="106" y="-354" font-family="RobotoMono" font-size="10.00" fill="#002b36">(1 values)</text>
</g>
<!-- random_seed -->
<g id="node3" class="node">
<title>random_seed</title>
<path fill="none" stroke="#268bd2" d="M224,-626C224,-626 142,-626 142,-626 136,-626 130,-620 130,-614 130,-614 130,-602 130,-602 130,-596 136,-590 142,-590 142,-590 224,-590 224,-590 230,-590 236,-596 236,-602 236,-602 236,-614 236,-614 236,-620 230,-626 224,-626"/>
<text text-anchor="start" x="142.5" y="-610.4" font-family="RobotoMono" font-weight="bold" font-size="12.00" fill="#002b36">random_seed</text>
<text text-anchor="start" x="138" y="-600" font-family="RobotoMono" font-size="10.00" fill="#268bd2">1 values (1 sources)</text>
</g>
<!-- generate_dataset -->
<g id="node10" class="node">
<title>generate_dataset</title>
<path fill="none" stroke="#dc322f" d="M232,-532C232,-532 134,-532 134,-532 128,-532 122,-526 122,-520 122,-520 122,-504 122,-504 122,-498 128,-492 134,-492 134,-492 232,-492 232,-492 238,-492 244,-498 244,-504 244,-504 244,-520 244,-520 244,-526 238,-532 232,-532"/>
<text text-anchor="start" x="130" y="-519.4" font-family="RobotoMono" font-weight="bold" font-size="12.00" fill="#002b36">generate_dataset</text>
<text text-anchor="start" x="130" y="-509" font-family="RobotoMono" font-size="10.00" fill="#002b36">@op:generate_dataset</text>
<text text-anchor="start" x="169" y="-499" font-family="RobotoMono" font-size="10.00" fill="#dc322f">1 calls</text>
</g>
<!-- random_seed&#45;&gt;generate_dataset -->
<g id="edge7" class="edge">
<title>random_seed&#45;&gt;generate_dataset</title>
<path fill="none" stroke="#002b36" d="M183,-589.76C183,-576.5 183,-557.86 183,-542.27"/>
<polygon fill="#002b36" stroke="#002b36" points="186.5,-542.07 183,-532.07 179.5,-542.07 186.5,-542.07"/>
<text text-anchor="middle" x="215" y="-564" font-family="RobotoMono" font-size="10.00" fill="#002b36">random_seed</text>
<text text-anchor="middle" x="215" y="-553" font-family="RobotoMono" font-size="10.00" fill="#002b36">(1 values)</text>
</g>
<!-- v -->
<g id="node4" class="node">
<title>v</title>
<path fill="none" stroke="#268bd2" d="M284.5,-36C284.5,-36 215.5,-36 215.5,-36 209.5,-36 203.5,-30 203.5,-24 203.5,-24 203.5,-12 203.5,-12 203.5,-6 209.5,0 215.5,0 215.5,0 284.5,0 284.5,0 290.5,0 296.5,-6 296.5,-12 296.5,-12 296.5,-24 296.5,-24 296.5,-30 290.5,-36 284.5,-36"/>
<text text-anchor="start" x="246.5" y="-20.4" font-family="RobotoMono" font-weight="bold" font-size="12.00" fill="#002b36">v</text>
<text text-anchor="start" x="211.5" y="-10" font-family="RobotoMono" font-size="10.00" fill="#268bd2">1 values (1 sinks)</text>
</g>
<!-- model -->
<g id="node5" class="node">
<title>model</title>
<path fill="none" stroke="#268bd2" d="M164,-228C164,-228 134,-228 134,-228 128,-228 122,-222 122,-216 122,-216 122,-204 122,-204 122,-198 128,-192 134,-192 134,-192 164,-192 164,-192 170,-192 176,-198 176,-204 176,-204 176,-216 176,-216 176,-222 170,-228 164,-228"/>
<text text-anchor="start" x="130" y="-212.4" font-family="RobotoMono" font-weight="bold" font-size="12.00" fill="#002b36">model</text>
<text text-anchor="start" x="130" y="-202" font-family="RobotoMono" font-size="10.00" fill="#268bd2">1 values</text>
</g>
<!-- eval_model -->
<g id="node11" class="node">
<title>eval_model</title>
<path fill="none" stroke="#dc322f" d="M284,-134C284,-134 216,-134 216,-134 210,-134 204,-128 204,-122 204,-122 204,-106 204,-106 204,-100 210,-94 216,-94 216,-94 284,-94 284,-94 290,-94 296,-100 296,-106 296,-106 296,-122 296,-122 296,-128 290,-134 284,-134"/>
<text text-anchor="start" x="216" y="-121.4" font-family="RobotoMono" font-weight="bold" font-size="12.00" fill="#002b36">eval_model</text>
<text text-anchor="start" x="212" y="-111" font-family="RobotoMono" font-size="10.00" fill="#002b36">@op:eval_model</text>
<text text-anchor="start" x="236" y="-101" font-family="RobotoMono" font-size="10.00" fill="#dc322f">1 calls</text>
</g>
<!-- model&#45;&gt;eval_model -->
<g id="edge4" class="edge">
<title>model&#45;&gt;eval_model</title>
<path fill="none" stroke="#002b36" d="M163.62,-191.84C173.9,-180.15 188.22,-164.56 202,-152 206.33,-148.05 211.06,-144.06 215.79,-140.25"/>
<polygon fill="#002b36" stroke="#002b36" points="218.01,-142.96 223.71,-134.02 213.68,-137.45 218.01,-142.96"/>
<text text-anchor="middle" x="224" y="-166" font-family="RobotoMono" font-size="10.00" fill="#002b36">model</text>
<text text-anchor="middle" x="224" y="-155" font-family="RobotoMono" font-size="10.00" fill="#002b36">(1 values)</text>
</g>
<!-- y_test -->
<g id="node6" class="node">
<title>y_test</title>
<path fill="none" stroke="#268bd2" d="M291,-228C291,-228 209,-228 209,-228 203,-228 197,-222 197,-216 197,-216 197,-204 197,-204 197,-198 203,-192 209,-192 209,-192 291,-192 291,-192 297,-192 303,-198 303,-204 303,-204 303,-216 303,-216 303,-222 297,-228 291,-228"/>
<text text-anchor="start" x="232" y="-212.4" font-family="RobotoMono" font-weight="bold" font-size="12.00" fill="#002b36">y_test</text>
<text text-anchor="start" x="205" y="-202" font-family="RobotoMono" font-size="10.00" fill="#268bd2">1 values (1 sources)</text>
</g>
<!-- y_test&#45;&gt;eval_model -->
<g id="edge2" class="edge">
<title>y_test&#45;&gt;eval_model</title>
<path fill="none" stroke="#002b36" d="M250,-191.76C250,-178.5 250,-159.86 250,-144.27"/>
<polygon fill="#002b36" stroke="#002b36" points="253.5,-144.07 250,-134.07 246.5,-144.07 253.5,-144.07"/>
<text text-anchor="middle" x="272" y="-166" font-family="RobotoMono" font-size="10.00" fill="#002b36">y_test</text>
<text text-anchor="middle" x="272" y="-155" font-family="RobotoMono" font-size="10.00" fill="#002b36">(1 values)</text>
</g>
<!-- X_test -->
<g id="node7" class="node">
<title>X_test</title>
<path fill="none" stroke="#268bd2" d="M348,-380C348,-380 318,-380 318,-380 312,-380 306,-374 306,-368 306,-368 306,-356 306,-356 306,-350 312,-344 318,-344 318,-344 348,-344 348,-344 354,-344 360,-350 360,-356 360,-356 360,-368 360,-368 360,-374 354,-380 348,-380"/>
<text text-anchor="start" x="314.5" y="-364.4" font-family="RobotoMono" font-weight="bold" font-size="12.00" fill="#002b36">X_test</text>
<text text-anchor="start" x="314" y="-354" font-family="RobotoMono" font-size="10.00" fill="#268bd2">1 values</text>
</g>
<!-- X_test&#45;&gt;eval_model -->
<g id="edge3" class="edge">
<title>X_test&#45;&gt;eval_model</title>
<path fill="none" stroke="#002b36" d="M334.89,-343.94C338.21,-305.66 341.07,-211.65 298,-152 295.15,-148.05 291.76,-144.32 288.11,-140.85"/>
<polygon fill="#002b36" stroke="#002b36" points="290.22,-138.05 280.38,-134.14 285.64,-143.34 290.22,-138.05"/>
<text text-anchor="middle" x="356" y="-260" font-family="RobotoMono" font-size="10.00" fill="#002b36">X_test</text>
<text text-anchor="middle" x="356" y="-249" font-family="RobotoMono" font-size="10.00" fill="#002b36">(1 values)</text>
</g>
<!-- y_train -->
<g id="node8" class="node">
<title>y_train</title>
<path fill="none" stroke="#268bd2" d="M296,-434C296,-434 214,-434 214,-434 208,-434 202,-428 202,-422 202,-422 202,-410 202,-410 202,-404 208,-398 214,-398 214,-398 296,-398 296,-398 302,-398 308,-404 308,-410 308,-410 308,-422 308,-422 308,-428 302,-434 296,-434"/>
<text text-anchor="start" x="233.5" y="-418.4" font-family="RobotoMono" font-weight="bold" font-size="12.00" fill="#002b36">y_train</text>
<text text-anchor="start" x="210" y="-408" font-family="RobotoMono" font-size="10.00" fill="#268bd2">1 values (1 sources)</text>
</g>
<!-- y_train&#45;&gt;train_model -->
<g id="edge11" class="edge">
<title>y_train&#45;&gt;train_model</title>
<path fill="none" stroke="#002b36" d="M243.58,-397.76C232.82,-382.4 215.61,-359.95 197,-344 191.82,-339.56 186.04,-335.36 180.14,-331.49"/>
<polygon fill="#002b36" stroke="#002b36" points="181.8,-328.39 171.46,-326.06 178.08,-334.33 181.8,-328.39"/>
<text text-anchor="middle" x="251" y="-365" font-family="RobotoMono" font-size="10.00" fill="#002b36">y_train</text>
<text text-anchor="middle" x="251" y="-354" font-family="RobotoMono" font-size="10.00" fill="#002b36">(1 values)</text>
</g>
<!-- train_model&#45;&gt;model -->
<g id="edge8" class="edge">
<title>train_model&#45;&gt;model</title>
<path fill="none" stroke="#002b36" d="M137.04,-285.98C139.23,-272.2 142.24,-253.39 144.68,-238.05"/>
<polygon fill="#002b36" stroke="#002b36" points="148.15,-238.52 146.27,-228.1 141.24,-237.42 148.15,-238.52"/>
<text text-anchor="middle" x="165" y="-260" font-family="RobotoMono" font-size="10.00" fill="#002b36">output_0</text>
<text text-anchor="middle" x="165" y="-249" font-family="RobotoMono" font-size="10.00" fill="#002b36">(1 values)</text>
</g>
<!-- generate_dataset&#45;&gt;X_train -->
<g id="edge6" class="edge">
<title>generate_dataset&#45;&gt;X_train</title>
<path fill="none" stroke="#002b36" d="M152.04,-491.98C127.36,-476.81 92.73,-455.54 66.66,-439.52"/>
<polygon fill="#002b36" stroke="#002b36" points="68.18,-436.35 57.83,-434.1 64.52,-442.31 68.18,-436.35"/>
<text text-anchor="middle" x="142" y="-466" font-family="RobotoMono" font-size="10.00" fill="#002b36">output_0</text>
<text text-anchor="middle" x="142" y="-455" font-family="RobotoMono" font-size="10.00" fill="#002b36">(1 values)</text>
</g>
<!-- generate_dataset&#45;&gt;X_test -->
<g id="edge5" class="edge">
<title>generate_dataset&#45;&gt;X_test</title>
<path fill="none" stroke="#002b36" d="M237.73,-491.9C265.45,-479.53 297.33,-460.67 317,-434 326.26,-421.44 330.31,-404.47 332.02,-390.27"/>
<polygon fill="#002b36" stroke="#002b36" points="335.53,-390.34 332.92,-380.07 328.56,-389.73 335.53,-390.34"/>
<text text-anchor="middle" x="320" y="-466" font-family="RobotoMono" font-size="10.00" fill="#002b36">output_1</text>
<text text-anchor="middle" x="320" y="-455" font-family="RobotoMono" font-size="10.00" fill="#002b36">(1 values)</text>
</g>
<!-- eval_model&#45;&gt;v -->
<g id="edge1" class="edge">
<title>eval_model&#45;&gt;v</title>
<path fill="none" stroke="#002b36" d="M250,-93.98C250,-80.34 250,-61.75 250,-46.5"/>
<polygon fill="#002b36" stroke="#002b36" points="253.5,-46.1 250,-36.1 246.5,-46.1 253.5,-46.1"/>
<text text-anchor="middle" x="272" y="-68" font-family="RobotoMono" font-size="10.00" fill="#002b36">output_0</text>
<text text-anchor="middle" x="272" y="-57" font-family="RobotoMono" font-size="10.00" fill="#002b36">(1 values)</text>
</g>
</g>
</svg>
