<?xml version="1.0" encoding="UTF-8" standalone="no"?>
<!DOCTYPE svg PUBLIC "-//W3C//DTD SVG 1.1//EN"
 "http://www.w3.org/Graphics/SVG/1.1/DTD/svg11.dtd">
<!-- Generated by graphviz version 2.50.0 (0)
 -->
<!-- Title: G Pages: 1 -->
<svg width="389pt" height="634pt"
 viewBox="0.00 0.00 389.00 634.00" xmlns="http://www.w3.org/2000/svg" xmlns:xlink="http://www.w3.org/1999/xlink">
<g id="graph0" class="graph" transform="scale(1 1) rotate(0) translate(4 630)">
<title>G</title>
<polygon fill="white" stroke="transparent" points="-4,4 -4,-630 385,-630 385,4 -4,4"/>
<!-- y_train -->
<g id="node1" class="node">
<title>y_train</title>
<path fill="none" stroke="#268bd2" d="M172,-434C172,-434 90,-434 90,-434 84,-434 78,-428 78,-422 78,-422 78,-410 78,-410 78,-404 84,-398 90,-398 90,-398 172,-398 172,-398 178,-398 184,-404 184,-410 184,-410 184,-422 184,-422 184,-428 178,-434 172,-434"/>
<text text-anchor="start" x="109.5" y="-418.4" font-family="RobotoMono" font-weight="bold" font-size="12.00" fill="#002b36">y_train</text>
<text text-anchor="start" x="86" y="-408" font-family="RobotoMono" font-size="10.00" fill="#268bd2">1 values (1 sources)</text>
</g>
<!-- train_model -->
<g id="node9" class="node">
<title>train_model</title>
<path fill="none" stroke="#dc322f" d="M167.5,-326C167.5,-326 96.5,-326 96.5,-326 90.5,-326 84.5,-320 84.5,-314 84.5,-314 84.5,-298 84.5,-298 84.5,-292 90.5,-286 96.5,-286 96.5,-286 167.5,-286 167.5,-286 173.5,-286 179.5,-292 179.5,-298 179.5,-298 179.5,-314 179.5,-314 179.5,-320 173.5,-326 167.5,-326"/>
<text text-anchor="start" x="95.5" y="-313.4" font-family="RobotoMono" font-weight="bold" font-size="12.00" fill="#002b36">train_model</text>
<text text-anchor="start" x="92.5" y="-303" font-family="RobotoMono" font-size="10.00" fill="#002b36">@op:train_model</text>
<text text-anchor="start" x="118" y="-293" font-family="RobotoMono" font-size="10.00" fill="#dc322f">1 calls</text>
</g>
<!-- y_train&#45;&gt;train_model -->
<g id="edge9" class="edge">
<title>y_train&#45;&gt;train_model</title>
<path fill="none" stroke="#002b36" d="M131.16,-397.65C131.31,-381.15 131.55,-356 131.73,-336.37"/>
<polygon fill="#002b36" stroke="#002b36" points="135.23,-336.16 131.82,-326.13 128.23,-336.1 135.23,-336.16"/>
<text text-anchor="middle" x="153" y="-365" font-family="RobotoMono" font-size="10.00" fill="#002b36">y_train</text>
<text text-anchor="middle" x="153" y="-354" font-family="RobotoMono" font-size="10.00" fill="#002b36">(1 values)</text>
</g>
<!-- X_train -->
<g id="node2" class="node">
<title>X_train</title>
<path fill="none" stroke="#268bd2" d="M48,-434C48,-434 12,-434 12,-434 6,-434 0,-428 0,-422 0,-422 0,-410 0,-410 0,-404 6,-398 12,-398 12,-398 48,-398 48,-398 54,-398 60,-404 60,-410 60,-410 60,-422 60,-422 60,-428 54,-434 48,-434"/>
<text text-anchor="start" x="8" y="-418.4" font-family="RobotoMono" font-weight="bold" font-size="12.00" fill="#002b36">X_train</text>
<text text-anchor="start" x="11" y="-408" font-family="RobotoMono" font-size="10.00" fill="#268bd2">1 values</text>
</g>
<!-- X_train&#45;&gt;train_model -->
<g id="edge10" class="edge">
<title>X_train&#45;&gt;train_model</title>
<path fill="none" stroke="#002b36" d="M40.78,-397.87C50.71,-382.79 66.4,-360.69 83,-344 86.95,-340.03 91.33,-336.14 95.82,-332.45"/>
<polygon fill="#002b36" stroke="#002b36" points="98.23,-335 103.92,-326.07 93.9,-329.51 98.23,-335"/>
<text text-anchor="middle" x="105" y="-365" font-family="RobotoMono" font-size="10.00" fill="#002b36">X_train</text>
<text text-anchor="middle" x="105" y="-354" font-family="RobotoMono" font-size="10.00" fill="#002b36">(1 values)</text>
</g>
<!-- y_test -->
<g id="node3" class="node">
<title>y_test</title>
<path fill="none" stroke="#268bd2" d="M293,-228C293,-228 211,-228 211,-228 205,-228 199,-222 199,-216 199,-216 199,-204 199,-204 199,-198 205,-192 211,-192 211,-192 293,-192 293,-192 299,-192 305,-198 305,-204 305,-204 305,-216 305,-216 305,-222 299,-228 293,-228"/>
<text text-anchor="start" x="234" y="-212.4" font-family="RobotoMono" font-weight="bold" font-size="12.00" fill="#002b36">y_test</text>
<text text-anchor="start" x="207" y="-202" font-family="RobotoMono" font-size="10.00" fill="#268bd2">1 values (1 sources)</text>
</g>
<!-- eval_model -->
<g id="node11" class="node">
<title>eval_model</title>
<path fill="none" stroke="#dc322f" d="M286,-134C286,-134 218,-134 218,-134 212,-134 206,-128 206,-122 206,-122 206,-106 206,-106 206,-100 212,-94 218,-94 218,-94 286,-94 286,-94 292,-94 298,-100 298,-106 298,-106 298,-122 298,-122 298,-128 292,-134 286,-134"/>
<text text-anchor="start" x="218" y="-121.4" font-family="RobotoMono" font-weight="bold" font-size="12.00" fill="#002b36">eval_model</text>
<text text-anchor="start" x="214" y="-111" font-family="RobotoMono" font-size="10.00" fill="#002b36">@op:eval_model</text>
<text text-anchor="start" x="238" y="-101" font-family="RobotoMono" font-size="10.00" fill="#dc322f">1 calls</text>
</g>
<!-- y_test&#45;&gt;eval_model -->
<g id="edge2" class="edge">
<title>y_test&#45;&gt;eval_model</title>
<path fill="none" stroke="#002b36" d="M252,-191.76C252,-178.5 252,-159.86 252,-144.27"/>
<polygon fill="#002b36" stroke="#002b36" points="255.5,-144.07 252,-134.07 248.5,-144.07 255.5,-144.07"/>
<text text-anchor="middle" x="274" y="-166" font-family="RobotoMono" font-size="10.00" fill="#002b36">y_test</text>
<text text-anchor="middle" x="274" y="-155" font-family="RobotoMono" font-size="10.00" fill="#002b36">(1 values)</text>
</g>
<!-- X_test -->
<g id="node4" class="node">
<title>X_test</title>
<path fill="none" stroke="#268bd2" d="M351,-380C351,-380 321,-380 321,-380 315,-380 309,-374 309,-368 309,-368 309,-356 309,-356 309,-350 315,-344 321,-344 321,-344 351,-344 351,-344 357,-344 363,-350 363,-356 363,-356 363,-368 363,-368 363,-374 357,-380 351,-380"/>
<text text-anchor="start" x="317.5" y="-364.4" font-family="RobotoMono" font-weight="bold" font-size="12.00" fill="#002b36">X_test</text>
<text text-anchor="start" x="317" y="-354" font-family="RobotoMono" font-size="10.00" fill="#268bd2">1 values</text>
</g>
<!-- X_test&#45;&gt;eval_model -->
<g id="edge3" class="edge">
<title>X_test&#45;&gt;eval_model</title>
<path fill="none" stroke="#002b36" d="M337.77,-343.94C340.83,-305.68 343.11,-211.7 300,-152 297.15,-148.05 293.76,-144.32 290.11,-140.85"/>
<polygon fill="#002b36" stroke="#002b36" points="292.22,-138.05 282.38,-134.14 287.64,-143.34 292.22,-138.05"/>
<text text-anchor="middle" x="359" y="-260" font-family="RobotoMono" font-size="10.00" fill="#002b36">X_test</text>
<text text-anchor="middle" x="359" y="-249" font-family="RobotoMono" font-size="10.00" fill="#002b36">(1 values)</text>
</g>
<!-- random_seed -->
<g id="node5" class="node">
<title>random_seed</title>
<path fill="none" stroke="#268bd2" d="M224,-626C224,-626 142,-626 142,-626 136,-626 130,-620 130,-614 130,-614 130,-602 130,-602 130,-596 136,-590 142,-590 142,-590 224,-590 224,-590 230,-590 236,-596 236,-602 236,-602 236,-614 236,-614 236,-620 230,-626 224,-626"/>
<text text-anchor="start" x="142.5" y="-610.4" font-family="RobotoMono" font-weight="bold" font-size="12.00" fill="#002b36">random_seed</text>
<text text-anchor="start" x="138" y="-600" font-family="RobotoMono" font-size="10.00" fill="#268bd2">1 values (1 sources)</text>
</g>
<!-- generate_dataset -->
<g id="node10" class="node">
<title>generate_dataset</title>
<path fill="none" stroke="#dc322f" d="M232,-532C232,-532 134,-532 134,-532 128,-532 122,-526 122,-520 122,-520 122,-504 122,-504 122,-498 128,-492 134,-492 134,-492 232,-492 232,-492 238,-492 244,-498 244,-504 244,-504 244,-520 244,-520 244,-526 238,-532 232,-532"/>
<text text-anchor="start" x="130" y="-519.4" font-family="RobotoMono" font-weight="bold" font-size="12.00" fill="#002b36">generate_dataset</text>
<text text-anchor="start" x="130" y="-509" font-family="RobotoMono" font-size="10.00" fill="#002b36">@op:generate_dataset</text>
<text text-anchor="start" x="169" y="-499" font-family="RobotoMono" font-size="10.00" fill="#dc322f">1 calls</text>
</g>
<!-- random_seed&#45;&gt;generate_dataset -->
<g id="edge7" class="edge">
<title>random_seed&#45;&gt;generate_dataset</title>
<path fill="none" stroke="#002b36" d="M183,-589.76C183,-576.5 183,-557.86 183,-542.27"/>
<polygon fill="#002b36" stroke="#002b36" points="186.5,-542.07 183,-532.07 179.5,-542.07 186.5,-542.07"/>
<text text-anchor="middle" x="215" y="-564" font-family="RobotoMono" font-size="10.00" fill="#002b36">random_seed</text>
<text text-anchor="middle" x="215" y="-553" font-family="RobotoMono" font-size="10.00" fill="#002b36">(1 values)</text>
</g>
<!-- n_estimators -->
<g id="node6" class="node">
<title>n_estimators</title>
<path fill="none" stroke="#268bd2" d="M296,-434C296,-434 214,-434 214,-434 208,-434 202,-428 202,-422 202,-422 202,-410 202,-410 202,-404 208,-398 214,-398 214,-398 296,-398 296,-398 302,-398 308,-404 308,-410 308,-410 308,-422 308,-422 308,-428 302,-434 296,-434"/>
<text text-anchor="start" x="215.5" y="-418.4" font-family="RobotoMono" font-weight="bold" font-size="12.00" fill="#002b36">n_estimators</text>
<text text-anchor="start" x="210" y="-408" font-family="RobotoMono" font-size="10.00" fill="#268bd2">1 values (1 sources)</text>
</g>
<!-- n_estimators&#45;&gt;train_model -->
<g id="edge11" class="edge">
<title>n_estimators&#45;&gt;train_model</title>
<path fill="none" stroke="#002b36" d="M237.57,-397.93C222.42,-383.27 199.69,-361.75 179,-344 174.56,-340.19 169.79,-336.26 165.06,-332.45"/>
<polygon fill="#002b36" stroke="#002b36" points="167.2,-329.68 157.2,-326.2 162.85,-335.16 167.2,-329.68"/>
<text text-anchor="middle" x="246.5" y="-365" font-family="RobotoMono" font-size="10.00" fill="#002b36">n_estimators</text>
<text text-anchor="middle" x="246.5" y="-354" font-family="RobotoMono" font-size="10.00" fill="#002b36">(1 values)</text>
</g>
<!-- v -->
<g id="node7" class="node">
<title>v</title>
<path fill="none" stroke="#268bd2" d="M286.5,-36C286.5,-36 217.5,-36 217.5,-36 211.5,-36 205.5,-30 205.5,-24 205.5,-24 205.5,-12 205.5,-12 205.5,-6 211.5,0 217.5,0 217.5,0 286.5,0 286.5,0 292.5,0 298.5,-6 298.5,-12 298.5,-12 298.5,-24 298.5,-24 298.5,-30 292.5,-36 286.5,-36"/>
<text text-anchor="start" x="248.5" y="-20.4" font-family="RobotoMono" font-weight="bold" font-size="12.00" fill="#002b36">v</text>
<text text-anchor="start" x="213.5" y="-10" font-family="RobotoMono" font-size="10.00" fill="#268bd2">1 values (1 sinks)</text>
</g>
<!-- model -->
<g id="node8" class="node">
<title>model</title>
<path fill="none" stroke="#268bd2" d="M166,-228C166,-228 136,-228 136,-228 130,-228 124,-222 124,-216 124,-216 124,-204 124,-204 124,-198 130,-192 136,-192 136,-192 166,-192 166,-192 172,-192 178,-198 178,-204 178,-204 178,-216 178,-216 178,-222 172,-228 166,-228"/>
<text text-anchor="start" x="132" y="-212.4" font-family="RobotoMono" font-weight="bold" font-size="12.00" fill="#002b36">model</text>
<text text-anchor="start" x="132" y="-202" font-family="RobotoMono" font-size="10.00" fill="#268bd2">1 values</text>
</g>
<!-- model&#45;&gt;eval_model -->
<g id="edge4" class="edge">
<title>model&#45;&gt;eval_model</title>
<path fill="none" stroke="#002b36" d="M165.62,-191.84C175.9,-180.15 190.22,-164.56 204,-152 208.33,-148.05 213.06,-144.06 217.79,-140.25"/>
<polygon fill="#002b36" stroke="#002b36" points="220.01,-142.96 225.71,-134.02 215.68,-137.45 220.01,-142.96"/>
<text text-anchor="middle" x="226" y="-166" font-family="RobotoMono" font-size="10.00" fill="#002b36">model</text>
<text text-anchor="middle" x="226" y="-155" font-family="RobotoMono" font-size="10.00" fill="#002b36">(1 values)</text>
</g>
<!-- train_model&#45;&gt;model -->
<g id="edge8" class="edge">
<title>train_model&#45;&gt;model</title>
<path fill="none" stroke="#002b36" d="M135.84,-285.98C138.63,-272.2 142.43,-253.39 145.53,-238.05"/>
<polygon fill="#002b36" stroke="#002b36" points="148.99,-238.59 147.54,-228.1 142.13,-237.21 148.99,-238.59"/>
<text text-anchor="middle" x="165" y="-260" font-family="RobotoMono" font-size="10.00" fill="#002b36">output_0</text>
<text text-anchor="middle" x="165" y="-249" font-family="RobotoMono" font-size="10.00" fill="#002b36">(1 values)</text>
</g>
<!-- generate_dataset&#45;&gt;X_train -->
<g id="edge6" class="edge">
<title>generate_dataset&#45;&gt;X_train</title>
<path fill="none" stroke="#002b36" d="M152.04,-491.98C127.36,-476.81 92.73,-455.54 66.66,-439.52"/>
<polygon fill="#002b36" stroke="#002b36" points="68.18,-436.35 57.83,-434.1 64.52,-442.31 68.18,-436.35"/>
<text text-anchor="middle" x="142" y="-466" font-family="RobotoMono" font-size="10.00" fill="#002b36">output_0</text>
<text text-anchor="middle" x="142" y="-455" font-family="RobotoMono" font-size="10.00" fill="#002b36">(1 values)</text>
</g>
<!-- generate_dataset&#45;&gt;X_test -->
<g id="edge5" class="edge">
<title>generate_dataset&#45;&gt;X_test</title>
<path fill="none" stroke="#002b36" d="M236.63,-491.89C264.39,-479.42 296.64,-460.48 317,-434 326.61,-421.5 331.36,-404.54 333.72,-390.32"/>
<polygon fill="#002b36" stroke="#002b36" points="337.23,-390.49 335.09,-380.11 330.29,-389.56 337.23,-390.49"/>
<text text-anchor="middle" x="320" y="-466" font-family="RobotoMono" font-size="10.00" fill="#002b36">output_1</text>
<text text-anchor="middle" x="320" y="-455" font-family="RobotoMono" font-size="10.00" fill="#002b36">(1 values)</text>
</g>
<!-- eval_model&#45;&gt;v -->
<g id="edge1" class="edge">
<title>eval_model&#45;&gt;v</title>
<path fill="none" stroke="#002b36" d="M252,-93.98C252,-80.34 252,-61.75 252,-46.5"/>
<polygon fill="#002b36" stroke="#002b36" points="255.5,-46.1 252,-36.1 248.5,-46.1 255.5,-46.1"/>
<text text-anchor="middle" x="274" y="-68" font-family="RobotoMono" font-size="10.00" fill="#002b36">output_0</text>
<text text-anchor="middle" x="274" y="-57" font-family="RobotoMono" font-size="10.00" fill="#002b36">(1 values)</text>
</g>
</g>
</svg>
