<?xml version="1.0" encoding="UTF-8" standalone="no"?>
<!DOCTYPE svg PUBLIC "-//W3C//DTD SVG 1.1//EN"
 "http://www.w3.org/Graphics/SVG/1.1/DTD/svg11.dtd">
<!-- Generated by graphviz version 2.50.0 (0)
 -->
<!-- Title: G Pages: 1 -->
<svg width="382pt" height="648pt"
 viewBox="0.00 0.00 382.00 648.00" xmlns="http://www.w3.org/2000/svg" xmlns:xlink="http://www.w3.org/1999/xlink">
<g id="graph0" class="graph" transform="scale(1 1) rotate(0) translate(4 644)">
<title>G</title>
<polygon fill="white" stroke="transparent" points="-4,4 -4,-644 378,-644 378,4 -4,4"/>
<!-- random_seed -->
<g id="node1" class="node">
<title>random_seed</title>
<path fill="none" stroke="#268bd2" d="M268,-640C268,-640 186,-640 186,-640 180,-640 174,-634 174,-628 174,-628 174,-616 174,-616 174,-610 180,-604 186,-604 186,-604 268,-604 268,-604 274,-604 280,-610 280,-616 280,-616 280,-628 280,-628 280,-634 274,-640 268,-640"/>
<text text-anchor="start" x="186.5" y="-624.4" font-family="RobotoMono" font-weight="bold" font-size="12.00" fill="#002b36">random_seed</text>
<text text-anchor="start" x="182" y="-614" font-family="RobotoMono" font-size="10.00" fill="#268bd2">1 values (1 sources)</text>
</g>
<!-- generate_dataset -->
<g id="node9" class="node">
<title>generate_dataset</title>
<path fill="none" stroke="#dc322f" d="M276,-546C276,-546 178,-546 178,-546 172,-546 166,-540 166,-534 166,-534 166,-518 166,-518 166,-512 172,-506 178,-506 178,-506 276,-506 276,-506 282,-506 288,-512 288,-518 288,-518 288,-534 288,-534 288,-540 282,-546 276,-546"/>
<text text-anchor="start" x="174" y="-533.4" font-family="RobotoMono" font-weight="bold" font-size="12.00" fill="#002b36">generate_dataset</text>
<text text-anchor="start" x="174" y="-523" font-family="RobotoMono" font-size="10.00" fill="#002b36">@op:generate_dataset</text>
<text text-anchor="start" x="213" y="-513" font-family="RobotoMono" font-size="10.00" fill="#dc322f">1 calls</text>
</g>
<!-- random_seed&#45;&gt;generate_dataset -->
<g id="edge9" class="edge">
<title>random_seed&#45;&gt;generate_dataset</title>
<path fill="none" stroke="#002b36" d="M227,-603.76C227,-590.5 227,-571.86 227,-556.27"/>
<polygon fill="#002b36" stroke="#002b36" points="230.5,-556.07 227,-546.07 223.5,-556.07 230.5,-556.07"/>
<text text-anchor="middle" x="259" y="-578" font-family="RobotoMono" font-size="10.00" fill="#002b36">random_seed</text>
<text text-anchor="middle" x="259" y="-567" font-family="RobotoMono" font-size="10.00" fill="#002b36">(1 values)</text>
</g>
<!-- v -->
<g id="node2" class="node">
<title>v</title>
<path fill="none" stroke="#268bd2" d="M209.5,-36C209.5,-36 140.5,-36 140.5,-36 134.5,-36 128.5,-30 128.5,-24 128.5,-24 128.5,-12 128.5,-12 128.5,-6 134.5,0 140.5,0 140.5,0 209.5,0 209.5,0 215.5,0 221.5,-6 221.5,-12 221.5,-12 221.5,-24 221.5,-24 221.5,-30 215.5,-36 209.5,-36"/>
<text text-anchor="start" x="171.5" y="-20.4" font-family="RobotoMono" font-weight="bold" font-size="12.00" fill="#002b36">v</text>
<text text-anchor="start" x="136.5" y="-10" font-family="RobotoMono" font-size="10.00" fill="#268bd2">1 values (1 sinks)</text>
</g>
<!-- X_train -->
<g id="node3" class="node">
<title>X_train</title>
<path fill="none" stroke="#268bd2" d="M92,-448C92,-448 56,-448 56,-448 50,-448 44,-442 44,-436 44,-436 44,-424 44,-424 44,-418 50,-412 56,-412 56,-412 92,-412 92,-412 98,-412 104,-418 104,-424 104,-424 104,-436 104,-436 104,-442 98,-448 92,-448"/>
<text text-anchor="start" x="52" y="-432.4" font-family="RobotoMono" font-weight="bold" font-size="12.00" fill="#002b36">X_train</text>
<text text-anchor="start" x="55" y="-422" font-family="RobotoMono" font-size="10.00" fill="#268bd2">1 values</text>
</g>
<!-- train_model -->
<g id="node11" class="node">
<title>train_model</title>
<path fill="none" stroke="#dc322f" d="M210.5,-340C210.5,-340 139.5,-340 139.5,-340 133.5,-340 127.5,-334 127.5,-328 127.5,-328 127.5,-312 127.5,-312 127.5,-306 133.5,-300 139.5,-300 139.5,-300 210.5,-300 210.5,-300 216.5,-300 222.5,-306 222.5,-312 222.5,-312 222.5,-328 222.5,-328 222.5,-334 216.5,-340 210.5,-340"/>
<text text-anchor="start" x="138.5" y="-327.4" font-family="RobotoMono" font-weight="bold" font-size="12.00" fill="#002b36">train_model</text>
<text text-anchor="start" x="135.5" y="-317" font-family="RobotoMono" font-size="10.00" fill="#002b36">@op:train_model</text>
<text text-anchor="start" x="161" y="-307" font-family="RobotoMono" font-size="10.00" fill="#dc322f">1 calls</text>
</g>
<!-- X_train&#45;&gt;train_model -->
<g id="edge12" class="edge">
<title>X_train&#45;&gt;train_model</title>
<path fill="none" stroke="#002b36" d="M84.82,-411.91C94.78,-396.85 110.49,-374.77 127,-358 130.88,-354.06 135.18,-350.19 139.58,-346.51"/>
<polygon fill="#002b36" stroke="#002b36" points="141.91,-349.13 147.51,-340.13 137.52,-343.67 141.91,-349.13"/>
<text text-anchor="middle" x="149" y="-379" font-family="RobotoMono" font-size="10.00" fill="#002b36">X_train</text>
<text text-anchor="middle" x="149" y="-368" font-family="RobotoMono" font-size="10.00" fill="#002b36">(1 values)</text>
</g>
<!-- n_estimators -->
<g id="node4" class="node">
<title>n_estimators</title>
<path fill="none" stroke="#268bd2" d="M216,-448C216,-448 134,-448 134,-448 128,-448 122,-442 122,-436 122,-436 122,-424 122,-424 122,-418 128,-412 134,-412 134,-412 216,-412 216,-412 222,-412 228,-418 228,-424 228,-424 228,-436 228,-436 228,-442 222,-448 216,-448"/>
<text text-anchor="start" x="135.5" y="-432.4" font-family="RobotoMono" font-weight="bold" font-size="12.00" fill="#002b36">n_estimators</text>
<text text-anchor="start" x="130" y="-422" font-family="RobotoMono" font-size="10.00" fill="#268bd2">1 values (1 sources)</text>
</g>
<!-- n_estimators&#45;&gt;train_model -->
<g id="edge11" class="edge">
<title>n_estimators&#45;&gt;train_model</title>
<path fill="none" stroke="#002b36" d="M175,-411.65C175,-395.15 175,-370 175,-350.37"/>
<polygon fill="#002b36" stroke="#002b36" points="178.5,-350.13 175,-340.13 171.5,-350.13 178.5,-350.13"/>
<text text-anchor="middle" x="205.5" y="-379" font-family="RobotoMono" font-size="10.00" fill="#002b36">n_estimators</text>
<text text-anchor="middle" x="205.5" y="-368" font-family="RobotoMono" font-size="10.00" fill="#002b36">(1 values)</text>
</g>
<!-- X_test -->
<g id="node5" class="node">
<title>X_test</title>
<path fill="none" stroke="#268bd2" d="M42,-394C42,-394 12,-394 12,-394 6,-394 0,-388 0,-382 0,-382 0,-370 0,-370 0,-364 6,-358 12,-358 12,-358 42,-358 42,-358 48,-358 54,-364 54,-370 54,-370 54,-382 54,-382 54,-388 48,-394 42,-394"/>
<text text-anchor="start" x="8.5" y="-378.4" font-family="RobotoMono" font-weight="bold" font-size="12.00" fill="#002b36">X_test</text>
<text text-anchor="start" x="8" y="-368" font-family="RobotoMono" font-size="10.00" fill="#268bd2">1 values</text>
</g>
<!-- eval_model -->
<g id="node10" class="node">
<title>eval_model</title>
<path fill="none" stroke="#dc322f" d="M209,-134C209,-134 141,-134 141,-134 135,-134 129,-128 129,-122 129,-122 129,-106 129,-106 129,-100 135,-94 141,-94 141,-94 209,-94 209,-94 215,-94 221,-100 221,-106 221,-106 221,-122 221,-122 221,-128 215,-134 209,-134"/>
<text text-anchor="start" x="141" y="-121.4" font-family="RobotoMono" font-weight="bold" font-size="12.00" fill="#002b36">eval_model</text>
<text text-anchor="start" x="137" y="-111" font-family="RobotoMono" font-size="10.00" fill="#002b36">@op:eval_model</text>
<text text-anchor="start" x="161" y="-101" font-family="RobotoMono" font-size="10.00" fill="#dc322f">1 calls</text>
</g>
<!-- X_test&#45;&gt;eval_model -->
<g id="edge4" class="edge">
<title>X_test&#45;&gt;eval_model</title>
<path fill="none" stroke="#002b36" d="M36.71,-357.94C61.7,-314.05 128.39,-196.88 159.11,-142.92"/>
<polygon fill="#002b36" stroke="#002b36" points="162.16,-144.63 164.06,-134.21 156.08,-141.17 162.16,-144.63"/>
<text text-anchor="middle" x="121" y="-267" font-family="RobotoMono" font-size="10.00" fill="#002b36">X_test</text>
<text text-anchor="middle" x="121" y="-256" font-family="RobotoMono" font-size="10.00" fill="#002b36">(1 values)</text>
</g>
<!-- model -->
<g id="node6" class="node">
<title>model</title>
<path fill="none" stroke="#268bd2" d="M190,-228C190,-228 160,-228 160,-228 154,-228 148,-222 148,-216 148,-216 148,-204 148,-204 148,-198 154,-192 160,-192 160,-192 190,-192 190,-192 196,-192 202,-198 202,-204 202,-204 202,-216 202,-216 202,-222 196,-228 190,-228"/>
<text text-anchor="start" x="156" y="-212.4" font-family="RobotoMono" font-weight="bold" font-size="12.00" fill="#002b36">model</text>
<text text-anchor="start" x="156" y="-202" font-family="RobotoMono" font-size="10.00" fill="#268bd2">1 values</text>
</g>
<!-- model&#45;&gt;eval_model -->
<g id="edge2" class="edge">
<title>model&#45;&gt;eval_model</title>
<path fill="none" stroke="#002b36" d="M175,-191.76C175,-178.5 175,-159.86 175,-144.27"/>
<polygon fill="#002b36" stroke="#002b36" points="178.5,-144.07 175,-134.07 171.5,-144.07 178.5,-144.07"/>
<text text-anchor="middle" x="197" y="-166" font-family="RobotoMono" font-size="10.00" fill="#002b36">model</text>
<text text-anchor="middle" x="197" y="-155" font-family="RobotoMono" font-size="10.00" fill="#002b36">(1 values)</text>
</g>
<!-- y_train -->
<g id="node7" class="node">
<title>y_train</title>
<path fill="none" stroke="#268bd2" d="M293.5,-448C293.5,-448 258.5,-448 258.5,-448 252.5,-448 246.5,-442 246.5,-436 246.5,-436 246.5,-424 246.5,-424 246.5,-418 252.5,-412 258.5,-412 258.5,-412 293.5,-412 293.5,-412 299.5,-412 305.5,-418 305.5,-424 305.5,-424 305.5,-436 305.5,-436 305.5,-442 299.5,-448 293.5,-448"/>
<text text-anchor="start" x="254.5" y="-432.4" font-family="RobotoMono" font-weight="bold" font-size="12.00" fill="#002b36">y_train</text>
<text text-anchor="start" x="257" y="-422" font-family="RobotoMono" font-size="10.00" fill="#268bd2">1 values</text>
</g>
<!-- y_train&#45;&gt;train_model -->
<g id="edge13" class="edge">
<title>y_train&#45;&gt;train_model</title>
<path fill="none" stroke="#002b36" d="M270.51,-411.81C264.86,-396.26 254.78,-373.51 240,-358 235.71,-353.5 230.75,-349.38 225.52,-345.67"/>
<polygon fill="#002b36" stroke="#002b36" points="227.41,-342.73 217.13,-340.17 223.57,-348.58 227.41,-342.73"/>
<text text-anchor="middle" x="285" y="-379" font-family="RobotoMono" font-size="10.00" fill="#002b36">y_train</text>
<text text-anchor="middle" x="285" y="-368" font-family="RobotoMono" font-size="10.00" fill="#002b36">(1 values)</text>
</g>
<!-- y_test -->
<g id="node8" class="node">
<title>y_test</title>
<path fill="none" stroke="#268bd2" d="M311,-282C311,-282 281,-282 281,-282 275,-282 269,-276 269,-270 269,-270 269,-258 269,-258 269,-252 275,-246 281,-246 281,-246 311,-246 311,-246 317,-246 323,-252 323,-258 323,-258 323,-270 323,-270 323,-276 317,-282 311,-282"/>
<text text-anchor="start" x="278" y="-266.4" font-family="RobotoMono" font-weight="bold" font-size="12.00" fill="#002b36">y_test</text>
<text text-anchor="start" x="277" y="-256" font-family="RobotoMono" font-size="10.00" fill="#268bd2">1 values</text>
</g>
<!-- y_test&#45;&gt;eval_model -->
<g id="edge3" class="edge">
<title>y_test&#45;&gt;eval_model</title>
<path fill="none" stroke="#002b36" d="M287.16,-245.97C274.76,-223.06 250.61,-181.76 223,-152 219.29,-148 215.11,-144.1 210.81,-140.43"/>
<polygon fill="#002b36" stroke="#002b36" points="212.97,-137.67 203,-134.08 208.55,-143.1 212.97,-137.67"/>
<text text-anchor="middle" x="299" y="-213" font-family="RobotoMono" font-size="10.00" fill="#002b36">y_test</text>
<text text-anchor="middle" x="299" y="-202" font-family="RobotoMono" font-size="10.00" fill="#002b36">(1 values)</text>
</g>
<!-- generate_dataset&#45;&gt;X_train -->
<g id="edge7" class="edge">
<title>generate_dataset&#45;&gt;X_train</title>
<path fill="none" stroke="#002b36" d="M196.04,-505.98C171.36,-490.81 136.73,-469.54 110.66,-453.52"/>
<polygon fill="#002b36" stroke="#002b36" points="112.18,-450.35 101.83,-448.1 108.52,-456.31 112.18,-450.35"/>
<text text-anchor="middle" x="187" y="-480" font-family="RobotoMono" font-size="10.00" fill="#002b36">output_0</text>
<text text-anchor="middle" x="187" y="-469" font-family="RobotoMono" font-size="10.00" fill="#002b36">(1 values)</text>
</g>
<!-- generate_dataset&#45;&gt;X_test -->
<g id="edge5" class="edge">
<title>generate_dataset&#45;&gt;X_test</title>
<path fill="none" stroke="#002b36" d="M165.92,-514.96C140.06,-509.24 110.16,-500.62 85,-488 59.56,-475.24 48.75,-472.92 35,-448 27.77,-434.89 25.58,-418.35 25.28,-404.54"/>
<polygon fill="#002b36" stroke="#002b36" points="28.78,-404.2 25.39,-394.16 21.79,-404.12 28.78,-404.2"/>
<text text-anchor="middle" x="107" y="-480" font-family="RobotoMono" font-size="10.00" fill="#002b36">output_1</text>
<text text-anchor="middle" x="107" y="-469" font-family="RobotoMono" font-size="10.00" fill="#002b36">(1 values)</text>
</g>
<!-- generate_dataset&#45;&gt;y_train -->
<g id="edge8" class="edge">
<title>generate_dataset&#45;&gt;y_train</title>
<path fill="none" stroke="#002b36" d="M236.92,-505.98C244.23,-491.94 254.28,-472.66 262.36,-457.17"/>
<polygon fill="#002b36" stroke="#002b36" points="265.57,-458.58 267.09,-448.1 259.36,-455.35 265.57,-458.58"/>
<text text-anchor="middle" x="280" y="-480" font-family="RobotoMono" font-size="10.00" fill="#002b36">output_2</text>
<text text-anchor="middle" x="280" y="-469" font-family="RobotoMono" font-size="10.00" fill="#002b36">(1 values)</text>
</g>
<!-- generate_dataset&#45;&gt;y_test -->
<g id="edge6" class="edge">
<title>generate_dataset&#45;&gt;y_test</title>
<path fill="none" stroke="#002b36" d="M284.76,-505.95C292.83,-501.18 300.3,-495.27 306,-488 351.03,-430.59 324.42,-337.02 307.19,-291.52"/>
<polygon fill="#002b36" stroke="#002b36" points="310.39,-290.09 303.47,-282.06 303.87,-292.64 310.39,-290.09"/>
<text text-anchor="middle" x="352" y="-433" font-family="RobotoMono" font-size="10.00" fill="#002b36">output_3</text>
<text text-anchor="middle" x="352" y="-422" font-family="RobotoMono" font-size="10.00" fill="#002b36">(1 values)</text>
</g>
<!-- eval_model&#45;&gt;v -->
<g id="edge1" class="edge">
<title>eval_model&#45;&gt;v</title>
<path fill="none" stroke="#002b36" d="M175,-93.98C175,-80.34 175,-61.75 175,-46.5"/>
<polygon fill="#002b36" stroke="#002b36" points="178.5,-46.1 175,-36.1 171.5,-46.1 178.5,-46.1"/>
<text text-anchor="middle" x="197" y="-68" font-family="RobotoMono" font-size="10.00" fill="#002b36">output_0</text>
<text text-anchor="middle" x="197" y="-57" font-family="RobotoMono" font-size="10.00" fill="#002b36">(1 values)</text>
</g>
<!-- train_model&#45;&gt;model -->
<g id="edge10" class="edge">
<title>train_model&#45;&gt;model</title>
<path fill="none" stroke="#002b36" d="M175,-299.94C175,-282.85 175,-257.58 175,-238.34"/>
<polygon fill="#002b36" stroke="#002b36" points="178.5,-238.09 175,-228.09 171.5,-238.09 178.5,-238.09"/>
<text text-anchor="middle" x="197" y="-267" font-family="RobotoMono" font-size="10.00" fill="#002b36">output_0</text>
<text text-anchor="middle" x="197" y="-256" font-family="RobotoMono" font-size="10.00" fill="#002b36">(1 values)</text>
</g>
</g>
</svg>
