<?xml version="1.0" encoding="UTF-8" standalone="no"?>
<!DOCTYPE svg PUBLIC "-//W3C//DTD SVG 1.1//EN"
 "http://www.w3.org/Graphics/SVG/1.1/DTD/svg11.dtd">
<!-- Generated by graphviz version 2.50.0 (0)
 -->
<!-- Title: G Pages: 1 -->
<svg width="270pt" height="620pt"
 viewBox="0.00 0.00 269.50 620.00" xmlns="http://www.w3.org/2000/svg" xmlns:xlink="http://www.w3.org/1999/xlink">
<g id="graph0" class="graph" transform="scale(1 1) rotate(0) translate(4 616)">
<title>G</title>
<polygon fill="white" stroke="transparent" points="-4,4 -4,-616 265.5,-616 265.5,4 -4,4"/>
<!-- n_estimators -->
<g id="node1" class="node">
<title>n_estimators</title>
<path fill="none" stroke="#268bd2" d="M94,-420C94,-420 12,-420 12,-420 6,-420 0,-414 0,-408 0,-408 0,-396 0,-396 0,-390 6,-384 12,-384 12,-384 94,-384 94,-384 100,-384 106,-390 106,-396 106,-396 106,-408 106,-408 106,-414 100,-420 94,-420"/>
<text text-anchor="start" x="13.5" y="-404.4" font-family="RobotoMono" font-weight="bold" font-size="12.00" fill="#002b36">n_estimators</text>
<text text-anchor="start" x="8" y="-394" font-family="RobotoMono" font-size="10.00" fill="#268bd2">4 values (4 sources)</text>
</g>
<!-- train_model -->
<g id="node10" class="node">
<title>train_model</title>
<path fill="none" stroke="#dc322f" d="M189.5,-326C189.5,-326 118.5,-326 118.5,-326 112.5,-326 106.5,-320 106.5,-314 106.5,-314 106.5,-298 106.5,-298 106.5,-292 112.5,-286 118.5,-286 118.5,-286 189.5,-286 189.5,-286 195.5,-286 201.5,-292 201.5,-298 201.5,-298 201.5,-314 201.5,-314 201.5,-320 195.5,-326 189.5,-326"/>
<text text-anchor="start" x="117.5" y="-313.4" font-family="RobotoMono" font-weight="bold" font-size="12.00" fill="#002b36">train_model</text>
<text text-anchor="start" x="114.5" y="-303" font-family="RobotoMono" font-size="10.00" fill="#002b36">@op:train_model</text>
<text text-anchor="start" x="140" y="-293" font-family="RobotoMono" font-size="10.00" fill="#dc322f">4 calls</text>
</g>
<!-- n_estimators&#45;&gt;train_model -->
<g id="edge4" class="edge">
<title>n_estimators&#45;&gt;train_model</title>
<path fill="none" stroke="#002b36" d="M60.91,-383.99C67.22,-371.76 76.98,-355.48 89,-344 93.68,-339.53 99.01,-335.39 104.55,-331.63"/>
<polygon fill="#002b36" stroke="#002b36" points="106.8,-334.35 113.37,-326.04 103.05,-328.44 106.8,-334.35"/>
<text text-anchor="middle" x="119.5" y="-358" font-family="RobotoMono" font-size="10.00" fill="#002b36">n_estimators</text>
<text text-anchor="middle" x="119.5" y="-347" font-family="RobotoMono" font-size="10.00" fill="#002b36">(4 values)</text>
</g>
<!-- output_0 -->
<g id="node2" class="node">
<title>output_0</title>
<path fill="none" stroke="#268bd2" d="M133.5,-228C133.5,-228 64.5,-228 64.5,-228 58.5,-228 52.5,-222 52.5,-216 52.5,-216 52.5,-204 52.5,-204 52.5,-198 58.5,-192 64.5,-192 64.5,-192 133.5,-192 133.5,-192 139.5,-192 145.5,-198 145.5,-204 145.5,-204 145.5,-216 145.5,-216 145.5,-222 139.5,-228 133.5,-228"/>
<text text-anchor="start" x="71.5" y="-212.4" font-family="RobotoMono" font-weight="bold" font-size="12.00" fill="#002b36">output_0</text>
<text text-anchor="start" x="60.5" y="-202" font-family="RobotoMono" font-size="10.00" fill="#268bd2">4 values (2 sinks)</text>
</g>
<!-- eval_model -->
<g id="node9" class="node">
<title>eval_model</title>
<path fill="none" stroke="#dc322f" d="M133,-134C133,-134 65,-134 65,-134 59,-134 53,-128 53,-122 53,-122 53,-106 53,-106 53,-100 59,-94 65,-94 65,-94 133,-94 133,-94 139,-94 145,-100 145,-106 145,-106 145,-122 145,-122 145,-128 139,-134 133,-134"/>
<text text-anchor="start" x="65" y="-121.4" font-family="RobotoMono" font-weight="bold" font-size="12.00" fill="#002b36">eval_model</text>
<text text-anchor="start" x="61" y="-111" font-family="RobotoMono" font-size="10.00" fill="#002b36">@op:eval_model</text>
<text text-anchor="start" x="85" y="-101" font-family="RobotoMono" font-size="10.00" fill="#dc322f">2 calls</text>
</g>
<!-- output_0&#45;&gt;eval_model -->
<g id="edge6" class="edge">
<title>output_0&#45;&gt;eval_model</title>
<path fill="none" stroke="#002b36" d="M99,-191.76C99,-178.5 99,-159.86 99,-144.27"/>
<polygon fill="#002b36" stroke="#002b36" points="102.5,-144.07 99,-134.07 95.5,-144.07 102.5,-144.07"/>
<text text-anchor="middle" x="121" y="-166" font-family="RobotoMono" font-size="10.00" fill="#002b36">model</text>
<text text-anchor="middle" x="121" y="-155" font-family="RobotoMono" font-size="10.00" fill="#002b36">(2 values)</text>
</g>
<!-- output_0_0 -->
<g id="node3" class="node">
<title>output_0_0</title>
<path fill="none" stroke="#268bd2" d="M133.5,-36C133.5,-36 64.5,-36 64.5,-36 58.5,-36 52.5,-30 52.5,-24 52.5,-24 52.5,-12 52.5,-12 52.5,-6 58.5,0 64.5,0 64.5,0 133.5,0 133.5,0 139.5,0 145.5,-6 145.5,-12 145.5,-12 145.5,-24 145.5,-24 145.5,-30 139.5,-36 133.5,-36"/>
<text text-anchor="start" x="65.5" y="-20.4" font-family="RobotoMono" font-weight="bold" font-size="12.00" fill="#002b36">output_0_0</text>
<text text-anchor="start" x="60.5" y="-10" font-family="RobotoMono" font-size="10.00" fill="#268bd2">2 values (2 sinks)</text>
</g>
<!-- X_train -->
<g id="node4" class="node">
<title>X_train</title>
<path fill="none" stroke="#268bd2" d="M172,-420C172,-420 136,-420 136,-420 130,-420 124,-414 124,-408 124,-408 124,-396 124,-396 124,-390 130,-384 136,-384 136,-384 172,-384 172,-384 178,-384 184,-390 184,-396 184,-396 184,-408 184,-408 184,-414 178,-420 172,-420"/>
<text text-anchor="start" x="132" y="-404.4" font-family="RobotoMono" font-weight="bold" font-size="12.00" fill="#002b36">X_train</text>
<text text-anchor="start" x="135" y="-394" font-family="RobotoMono" font-size="10.00" fill="#268bd2">1 values</text>
</g>
<!-- X_train&#45;&gt;train_model -->
<g id="edge3" class="edge">
<title>X_train&#45;&gt;train_model</title>
<path fill="none" stroke="#002b36" d="M154,-383.76C154,-370.5 154,-351.86 154,-336.27"/>
<polygon fill="#002b36" stroke="#002b36" points="157.5,-336.07 154,-326.07 150.5,-336.07 157.5,-336.07"/>
<text text-anchor="middle" x="176" y="-358" font-family="RobotoMono" font-size="10.00" fill="#002b36">X_train</text>
<text text-anchor="middle" x="176" y="-347" font-family="RobotoMono" font-size="10.00" fill="#002b36">(1 values)</text>
</g>
<!-- output_1 -->
<g id="node5" class="node">
<title>output_1</title>
<path fill="none" stroke="#268bd2" d="M244.5,-228C244.5,-228 175.5,-228 175.5,-228 169.5,-228 163.5,-222 163.5,-216 163.5,-216 163.5,-204 163.5,-204 163.5,-198 169.5,-192 175.5,-192 175.5,-192 244.5,-192 244.5,-192 250.5,-192 256.5,-198 256.5,-204 256.5,-204 256.5,-216 256.5,-216 256.5,-222 250.5,-228 244.5,-228"/>
<text text-anchor="start" x="182.5" y="-212.4" font-family="RobotoMono" font-weight="bold" font-size="12.00" fill="#002b36">output_1</text>
<text text-anchor="start" x="171.5" y="-202" font-family="RobotoMono" font-size="10.00" fill="#268bd2">4 values (4 sinks)</text>
</g>
<!-- random_seed -->
<g id="node6" class="node">
<title>random_seed</title>
<path fill="none" stroke="#268bd2" d="M233,-612C233,-612 151,-612 151,-612 145,-612 139,-606 139,-600 139,-600 139,-588 139,-588 139,-582 145,-576 151,-576 151,-576 233,-576 233,-576 239,-576 245,-582 245,-588 245,-588 245,-600 245,-600 245,-606 239,-612 233,-612"/>
<text text-anchor="start" x="151.5" y="-596.4" font-family="RobotoMono" font-weight="bold" font-size="12.00" fill="#002b36">random_seed</text>
<text text-anchor="start" x="147" y="-586" font-family="RobotoMono" font-size="10.00" fill="#268bd2">1 values (1 sources)</text>
</g>
<!-- generate_dataset -->
<g id="node8" class="node">
<title>generate_dataset</title>
<path fill="none" stroke="#dc322f" d="M241,-518C241,-518 143,-518 143,-518 137,-518 131,-512 131,-506 131,-506 131,-490 131,-490 131,-484 137,-478 143,-478 143,-478 241,-478 241,-478 247,-478 253,-484 253,-490 253,-490 253,-506 253,-506 253,-512 247,-518 241,-518"/>
<text text-anchor="start" x="139" y="-505.4" font-family="RobotoMono" font-weight="bold" font-size="12.00" fill="#002b36">generate_dataset</text>
<text text-anchor="start" x="139" y="-495" font-family="RobotoMono" font-size="10.00" fill="#002b36">@op:generate_dataset</text>
<text text-anchor="start" x="178" y="-485" font-family="RobotoMono" font-size="10.00" fill="#dc322f">1 calls</text>
</g>
<!-- random_seed&#45;&gt;generate_dataset -->
<g id="edge9" class="edge">
<title>random_seed&#45;&gt;generate_dataset</title>
<path fill="none" stroke="#002b36" d="M192,-575.76C192,-562.5 192,-543.86 192,-528.27"/>
<polygon fill="#002b36" stroke="#002b36" points="195.5,-528.07 192,-518.07 188.5,-528.07 195.5,-528.07"/>
<text text-anchor="middle" x="224" y="-550" font-family="RobotoMono" font-size="10.00" fill="#002b36">random_seed</text>
<text text-anchor="middle" x="224" y="-539" font-family="RobotoMono" font-size="10.00" fill="#002b36">(1 values)</text>
</g>
<!-- y_train -->
<g id="node7" class="node">
<title>y_train</title>
<path fill="none" stroke="#268bd2" d="M249.5,-420C249.5,-420 214.5,-420 214.5,-420 208.5,-420 202.5,-414 202.5,-408 202.5,-408 202.5,-396 202.5,-396 202.5,-390 208.5,-384 214.5,-384 214.5,-384 249.5,-384 249.5,-384 255.5,-384 261.5,-390 261.5,-396 261.5,-396 261.5,-408 261.5,-408 261.5,-414 255.5,-420 249.5,-420"/>
<text text-anchor="start" x="210.5" y="-404.4" font-family="RobotoMono" font-weight="bold" font-size="12.00" fill="#002b36">y_train</text>
<text text-anchor="start" x="213" y="-394" font-family="RobotoMono" font-size="10.00" fill="#268bd2">1 values</text>
</g>
<!-- y_train&#45;&gt;train_model -->
<g id="edge5" class="edge">
<title>y_train&#45;&gt;train_model</title>
<path fill="none" stroke="#002b36" d="M225.31,-383.88C220.1,-371.91 212.08,-355.98 202,-344 198.66,-340.03 194.82,-336.21 190.8,-332.63"/>
<polygon fill="#002b36" stroke="#002b36" points="192.86,-329.79 182.93,-326.09 188.38,-335.18 192.86,-329.79"/>
<text text-anchor="middle" x="238" y="-358" font-family="RobotoMono" font-size="10.00" fill="#002b36">y_train</text>
<text text-anchor="middle" x="238" y="-347" font-family="RobotoMono" font-size="10.00" fill="#002b36">(1 values)</text>
</g>
<!-- generate_dataset&#45;&gt;X_train -->
<g id="edge7" class="edge">
<title>generate_dataset&#45;&gt;X_train</title>
<path fill="none" stroke="#002b36" d="M174.02,-477.85C169.8,-472.43 165.74,-466.29 163,-460 158.95,-450.69 156.69,-439.82 155.45,-430.08"/>
<polygon fill="#002b36" stroke="#002b36" points="158.93,-429.69 154.46,-420.09 151.96,-430.38 158.93,-429.69"/>
<text text-anchor="middle" x="185" y="-452" font-family="RobotoMono" font-size="10.00" fill="#002b36">output_0</text>
<text text-anchor="middle" x="185" y="-441" font-family="RobotoMono" font-size="10.00" fill="#002b36">(1 values)</text>
</g>
<!-- generate_dataset&#45;&gt;y_train -->
<g id="edge8" class="edge">
<title>generate_dataset&#45;&gt;y_train</title>
<path fill="none" stroke="#002b36" d="M200.09,-477.98C206.01,-464.07 214.12,-445.03 220.68,-429.61"/>
<polygon fill="#002b36" stroke="#002b36" points="224.03,-430.67 224.72,-420.1 217.59,-427.93 224.03,-430.67"/>
<text text-anchor="middle" x="238" y="-452" font-family="RobotoMono" font-size="10.00" fill="#002b36">output_2</text>
<text text-anchor="middle" x="238" y="-441" font-family="RobotoMono" font-size="10.00" fill="#002b36">(1 values)</text>
</g>
<!-- eval_model&#45;&gt;output_0_0 -->
<g id="edge10" class="edge">
<title>eval_model&#45;&gt;output_0_0</title>
<path fill="none" stroke="#002b36" d="M99,-93.98C99,-80.34 99,-61.75 99,-46.5"/>
<polygon fill="#002b36" stroke="#002b36" points="102.5,-46.1 99,-36.1 95.5,-46.1 102.5,-46.1"/>
<text text-anchor="middle" x="121" y="-68" font-family="RobotoMono" font-size="10.00" fill="#002b36">output_0</text>
<text text-anchor="middle" x="121" y="-57" font-family="RobotoMono" font-size="10.00" fill="#002b36">(2 values)</text>
</g>
<!-- train_model&#45;&gt;output_0 -->
<g id="edge1" class="edge">
<title>train_model&#45;&gt;output_0</title>
<path fill="none" stroke="#002b36" d="M142.87,-285.98C134.58,-271.81 123.17,-252.3 114.06,-236.74"/>
<polygon fill="#002b36" stroke="#002b36" points="117.08,-234.96 109,-228.1 111.03,-238.5 117.08,-234.96"/>
<text text-anchor="middle" x="153" y="-260" font-family="RobotoMono" font-size="10.00" fill="#002b36">output_0</text>
<text text-anchor="middle" x="153" y="-249" font-family="RobotoMono" font-size="10.00" fill="#002b36">(4 values)</text>
</g>
<!-- train_model&#45;&gt;output_1 -->
<g id="edge2" class="edge">
<title>train_model&#45;&gt;output_1</title>
<path fill="none" stroke="#002b36" d="M167.59,-285.64C171.4,-280.02 175.46,-273.83 179,-268 185.03,-258.08 191.23,-246.91 196.48,-237.1"/>
<polygon fill="#002b36" stroke="#002b36" points="199.61,-238.68 201.2,-228.2 193.42,-235.4 199.61,-238.68"/>
<text text-anchor="middle" x="213" y="-260" font-family="RobotoMono" font-size="10.00" fill="#002b36">output_1</text>
<text text-anchor="middle" x="213" y="-249" font-family="RobotoMono" font-size="10.00" fill="#002b36">(4 values)</text>
</g>
</g>
</svg>
