<?xml version="1.0" encoding="UTF-8" standalone="no"?>
<!DOCTYPE svg PUBLIC "-//W3C//DTD SVG 1.1//EN"
 "http://www.w3.org/Graphics/SVG/1.1/DTD/svg11.dtd">
<!-- Generated by graphviz version 2.50.0 (0)
 -->
<!-- Title: G Pages: 1 -->
<svg width="362pt" height="236pt"
 viewBox="0.00 0.00 362.00 236.00" xmlns="http://www.w3.org/2000/svg" xmlns:xlink="http://www.w3.org/1999/xlink">
<g id="graph0" class="graph" transform="scale(1 1) rotate(0) translate(4 232)">
<title>G</title>
<polygon fill="white" stroke="transparent" points="-4,4 -4,-232 358,-232 358,4 -4,4"/>
<!-- X_train -->
<g id="node1" class="node">
<title>X_train</title>
<path fill="none" stroke="#268bd2" d="M94,-228C94,-228 12,-228 12,-228 6,-228 0,-222 0,-216 0,-216 0,-204 0,-204 0,-198 6,-192 12,-192 12,-192 94,-192 94,-192 100,-192 106,-198 106,-204 106,-204 106,-216 106,-216 106,-222 100,-228 94,-228"/>
<text text-anchor="start" x="31" y="-212.4" font-family="RobotoMono" font-weight="bold" font-size="12.00" fill="#002b36">X_train</text>
<text text-anchor="start" x="8" y="-202" font-family="RobotoMono" font-size="10.00" fill="#268bd2">1 values (1 sources)</text>
</g>
<!-- train_model -->
<g id="node6" class="node">
<title>train_model</title>
<path fill="none" stroke="#dc322f" d="M212.5,-134C212.5,-134 141.5,-134 141.5,-134 135.5,-134 129.5,-128 129.5,-122 129.5,-122 129.5,-106 129.5,-106 129.5,-100 135.5,-94 141.5,-94 141.5,-94 212.5,-94 212.5,-94 218.5,-94 224.5,-100 224.5,-106 224.5,-106 224.5,-122 224.5,-122 224.5,-128 218.5,-134 212.5,-134"/>
<text text-anchor="start" x="140.5" y="-121.4" font-family="RobotoMono" font-weight="bold" font-size="12.00" fill="#002b36">train_model</text>
<text text-anchor="start" x="137.5" y="-111" font-family="RobotoMono" font-size="10.00" fill="#002b36">@op:train_model</text>
<text text-anchor="start" x="163" y="-101" font-family="RobotoMono" font-size="10.00" fill="#dc322f">4 calls</text>
</g>
<!-- X_train&#45;&gt;train_model -->
<g id="edge5" class="edge">
<title>X_train&#45;&gt;train_model</title>
<path fill="none" stroke="#002b36" d="M75.46,-191.98C94.43,-177.59 121.89,-156.78 143.47,-140.42"/>
<polygon fill="#002b36" stroke="#002b36" points="145.87,-142.99 151.72,-134.16 141.64,-137.41 145.87,-142.99"/>
<text text-anchor="middle" x="149" y="-166" font-family="RobotoMono" font-size="10.00" fill="#002b36">X_train</text>
<text text-anchor="middle" x="149" y="-155" font-family="RobotoMono" font-size="10.00" fill="#002b36">(1 values)</text>
</g>
<!-- output_0 -->
<g id="node2" class="node">
<title>output_0</title>
<path fill="none" stroke="#268bd2" d="M156.5,-36C156.5,-36 87.5,-36 87.5,-36 81.5,-36 75.5,-30 75.5,-24 75.5,-24 75.5,-12 75.5,-12 75.5,-6 81.5,0 87.5,0 87.5,0 156.5,0 156.5,0 162.5,0 168.5,-6 168.5,-12 168.5,-12 168.5,-24 168.5,-24 168.5,-30 162.5,-36 156.5,-36"/>
<text text-anchor="start" x="94.5" y="-20.4" font-family="RobotoMono" font-weight="bold" font-size="12.00" fill="#002b36">output_0</text>
<text text-anchor="start" x="83.5" y="-10" font-family="RobotoMono" font-size="10.00" fill="#268bd2">4 values (4 sinks)</text>
</g>
<!-- y_train -->
<g id="node3" class="node">
<title>y_train</title>
<path fill="none" stroke="#268bd2" d="M218,-228C218,-228 136,-228 136,-228 130,-228 124,-222 124,-216 124,-216 124,-204 124,-204 124,-198 130,-192 136,-192 136,-192 218,-192 218,-192 224,-192 230,-198 230,-204 230,-204 230,-216 230,-216 230,-222 224,-228 218,-228"/>
<text text-anchor="start" x="155.5" y="-212.4" font-family="RobotoMono" font-weight="bold" font-size="12.00" fill="#002b36">y_train</text>
<text text-anchor="start" x="132" y="-202" font-family="RobotoMono" font-size="10.00" fill="#268bd2">1 values (1 sources)</text>
</g>
<!-- y_train&#45;&gt;train_model -->
<g id="edge3" class="edge">
<title>y_train&#45;&gt;train_model</title>
<path fill="none" stroke="#002b36" d="M177,-191.76C177,-178.5 177,-159.86 177,-144.27"/>
<polygon fill="#002b36" stroke="#002b36" points="180.5,-144.07 177,-134.07 173.5,-144.07 180.5,-144.07"/>
<text text-anchor="middle" x="199" y="-166" font-family="RobotoMono" font-size="10.00" fill="#002b36">y_train</text>
<text text-anchor="middle" x="199" y="-155" font-family="RobotoMono" font-size="10.00" fill="#002b36">(1 values)</text>
</g>
<!-- n_estimators -->
<g id="node4" class="node">
<title>n_estimators</title>
<path fill="none" stroke="#268bd2" d="M342,-228C342,-228 260,-228 260,-228 254,-228 248,-222 248,-216 248,-216 248,-204 248,-204 248,-198 254,-192 260,-192 260,-192 342,-192 342,-192 348,-192 354,-198 354,-204 354,-204 354,-216 354,-216 354,-222 348,-228 342,-228"/>
<text text-anchor="start" x="261.5" y="-212.4" font-family="RobotoMono" font-weight="bold" font-size="12.00" fill="#002b36">n_estimators</text>
<text text-anchor="start" x="256" y="-202" font-family="RobotoMono" font-size="10.00" fill="#268bd2">4 values (4 sources)</text>
</g>
<!-- n_estimators&#45;&gt;train_model -->
<g id="edge4" class="edge">
<title>n_estimators&#45;&gt;train_model</title>
<path fill="none" stroke="#002b36" d="M278.54,-191.98C259.57,-177.59 232.11,-156.78 210.53,-140.42"/>
<polygon fill="#002b36" stroke="#002b36" points="212.36,-137.41 202.28,-134.16 208.13,-142.99 212.36,-137.41"/>
<text text-anchor="middle" x="283.5" y="-166" font-family="RobotoMono" font-size="10.00" fill="#002b36">n_estimators</text>
<text text-anchor="middle" x="283.5" y="-155" font-family="RobotoMono" font-size="10.00" fill="#002b36">(4 values)</text>
</g>
<!-- output_1 -->
<g id="node5" class="node">
<title>output_1</title>
<path fill="none" stroke="#268bd2" d="M267.5,-36C267.5,-36 198.5,-36 198.5,-36 192.5,-36 186.5,-30 186.5,-24 186.5,-24 186.5,-12 186.5,-12 186.5,-6 192.5,0 198.5,0 198.5,0 267.5,0 267.5,0 273.5,0 279.5,-6 279.5,-12 279.5,-12 279.5,-24 279.5,-24 279.5,-30 273.5,-36 267.5,-36"/>
<text text-anchor="start" x="205.5" y="-20.4" font-family="RobotoMono" font-weight="bold" font-size="12.00" fill="#002b36">output_1</text>
<text text-anchor="start" x="194.5" y="-10" font-family="RobotoMono" font-size="10.00" fill="#268bd2">4 values (4 sinks)</text>
</g>
<!-- train_model&#45;&gt;output_0 -->
<g id="edge2" class="edge">
<title>train_model&#45;&gt;output_0</title>
<path fill="none" stroke="#002b36" d="M165.87,-93.98C157.58,-79.81 146.17,-60.3 137.06,-44.74"/>
<polygon fill="#002b36" stroke="#002b36" points="140.08,-42.96 132,-36.1 134.03,-46.5 140.08,-42.96"/>
<text text-anchor="middle" x="177" y="-68" font-family="RobotoMono" font-size="10.00" fill="#002b36">output_0</text>
<text text-anchor="middle" x="177" y="-57" font-family="RobotoMono" font-size="10.00" fill="#002b36">(4 values)</text>
</g>
<!-- train_model&#45;&gt;output_1 -->
<g id="edge1" class="edge">
<title>train_model&#45;&gt;output_1</title>
<path fill="none" stroke="#002b36" d="M191.24,-93.73C195.2,-88.11 199.4,-81.9 203,-76 208.95,-66.27 214.92,-55.24 219.95,-45.5"/>
<polygon fill="#002b36" stroke="#002b36" points="223.22,-46.78 224.63,-36.28 216.98,-43.61 223.22,-46.78"/>
<text text-anchor="middle" x="237" y="-68" font-family="RobotoMono" font-size="10.00" fill="#002b36">output_1</text>
<text text-anchor="middle" x="237" y="-57" font-family="RobotoMono" font-size="10.00" fill="#002b36">(4 values)</text>
</g>
</g>
</svg>
