<?xml version="1.0" encoding="UTF-8" standalone="no"?>
<!DOCTYPE svg PUBLIC "-//W3C//DTD SVG 1.1//EN"
 "http://www.w3.org/Graphics/SVG/1.1/DTD/svg11.dtd">
<!-- Generated by graphviz version 2.50.0 (0)
 -->
<!-- Title: G Pages: 1 -->
<svg width="408pt" height="648pt"
 viewBox="0.00 0.00 408.00 648.00" xmlns="http://www.w3.org/2000/svg" xmlns:xlink="http://www.w3.org/1999/xlink">
<g id="graph0" class="graph" transform="scale(1 1) rotate(0) translate(4 644)">
<title>G</title>
<polygon fill="white" stroke="transparent" points="-4,4 -4,-644 404,-644 404,4 -4,4"/>
<!-- n_estimators -->
<g id="node1" class="node">
<title>n_estimators</title>
<path fill="none" stroke="#268bd2" d="M94,-448C94,-448 12,-448 12,-448 6,-448 0,-442 0,-436 0,-436 0,-424 0,-424 0,-418 6,-412 12,-412 12,-412 94,-412 94,-412 100,-412 106,-418 106,-424 106,-424 106,-436 106,-436 106,-442 100,-448 94,-448"/>
<text text-anchor="start" x="13.5" y="-432.4" font-family="RobotoMono" font-weight="bold" font-size="12.00" fill="#002b36">n_estimators</text>
<text text-anchor="start" x="8" y="-422" font-family="RobotoMono" font-size="10.00" fill="#268bd2">1 values (1 sources)</text>
</g>
<!-- train_model -->
<g id="node9" class="node">
<title>train_model</title>
<path fill="none" stroke="#dc322f" d="M214.5,-340C214.5,-340 143.5,-340 143.5,-340 137.5,-340 131.5,-334 131.5,-328 131.5,-328 131.5,-312 131.5,-312 131.5,-306 137.5,-300 143.5,-300 143.5,-300 214.5,-300 214.5,-300 220.5,-300 226.5,-306 226.5,-312 226.5,-312 226.5,-328 226.5,-328 226.5,-334 220.5,-340 214.5,-340"/>
<text text-anchor="start" x="142.5" y="-327.4" font-family="RobotoMono" font-weight="bold" font-size="12.00" fill="#002b36">train_model</text>
<text text-anchor="start" x="139.5" y="-317" font-family="RobotoMono" font-size="10.00" fill="#002b36">@op:train_model</text>
<text text-anchor="start" x="165" y="-307" font-family="RobotoMono" font-size="10.00" fill="#dc322f">1 calls</text>
</g>
<!-- n_estimators&#45;&gt;train_model -->
<g id="edge12" class="edge">
<title>n_estimators&#45;&gt;train_model</title>
<path fill="none" stroke="#002b36" d="M57.03,-411.93C61.59,-396.04 70.49,-372.66 86,-358 96.06,-348.49 108.87,-341.32 121.73,-335.95"/>
<polygon fill="#002b36" stroke="#002b36" points="123,-339.21 131.07,-332.35 120.49,-332.68 123,-339.21"/>
<text text-anchor="middle" x="116.5" y="-379" font-family="RobotoMono" font-size="10.00" fill="#002b36">n_estimators</text>
<text text-anchor="middle" x="116.5" y="-368" font-family="RobotoMono" font-size="10.00" fill="#002b36">(1 values)</text>
</g>
<!-- X_train -->
<g id="node2" class="node">
<title>X_train</title>
<path fill="none" stroke="#268bd2" d="M172,-448C172,-448 136,-448 136,-448 130,-448 124,-442 124,-436 124,-436 124,-424 124,-424 124,-418 130,-412 136,-412 136,-412 172,-412 172,-412 178,-412 184,-418 184,-424 184,-424 184,-436 184,-436 184,-442 178,-448 172,-448"/>
<text text-anchor="start" x="132" y="-432.4" font-family="RobotoMono" font-weight="bold" font-size="12.00" fill="#002b36">X_train</text>
<text text-anchor="start" x="135" y="-422" font-family="RobotoMono" font-size="10.00" fill="#268bd2">1 values</text>
</g>
<!-- X_train&#45;&gt;train_model -->
<g id="edge11" class="edge">
<title>X_train&#45;&gt;train_model</title>
<path fill="none" stroke="#002b36" d="M151.64,-411.95C150.22,-397.31 149.59,-375.81 155,-358 155.91,-355.02 157.13,-352.05 158.55,-349.17"/>
<polygon fill="#002b36" stroke="#002b36" points="161.67,-350.75 163.59,-340.33 155.59,-347.28 161.67,-350.75"/>
<text text-anchor="middle" x="177" y="-379" font-family="RobotoMono" font-size="10.00" fill="#002b36">X_train</text>
<text text-anchor="middle" x="177" y="-368" font-family="RobotoMono" font-size="10.00" fill="#002b36">(1 values)</text>
</g>
<!-- random_seed -->
<g id="node3" class="node">
<title>random_seed</title>
<path fill="none" stroke="#268bd2" d="M304,-640C304,-640 222,-640 222,-640 216,-640 210,-634 210,-628 210,-628 210,-616 210,-616 210,-610 216,-604 222,-604 222,-604 304,-604 304,-604 310,-604 316,-610 316,-616 316,-616 316,-628 316,-628 316,-634 310,-640 304,-640"/>
<text text-anchor="start" x="222.5" y="-624.4" font-family="RobotoMono" font-weight="bold" font-size="12.00" fill="#002b36">random_seed</text>
<text text-anchor="start" x="218" y="-614" font-family="RobotoMono" font-size="10.00" fill="#268bd2">1 values (1 sources)</text>
</g>
<!-- generate_dataset -->
<g id="node10" class="node">
<title>generate_dataset</title>
<path fill="none" stroke="#dc322f" d="M312,-546C312,-546 214,-546 214,-546 208,-546 202,-540 202,-534 202,-534 202,-518 202,-518 202,-512 208,-506 214,-506 214,-506 312,-506 312,-506 318,-506 324,-512 324,-518 324,-518 324,-534 324,-534 324,-540 318,-546 312,-546"/>
<text text-anchor="start" x="210" y="-533.4" font-family="RobotoMono" font-weight="bold" font-size="12.00" fill="#002b36">generate_dataset</text>
<text text-anchor="start" x="210" y="-523" font-family="RobotoMono" font-size="10.00" fill="#002b36">@op:generate_dataset</text>
<text text-anchor="start" x="249" y="-513" font-family="RobotoMono" font-size="10.00" fill="#dc322f">1 calls</text>
</g>
<!-- random_seed&#45;&gt;generate_dataset -->
<g id="edge9" class="edge">
<title>random_seed&#45;&gt;generate_dataset</title>
<path fill="none" stroke="#002b36" d="M263,-603.76C263,-590.5 263,-571.86 263,-556.27"/>
<polygon fill="#002b36" stroke="#002b36" points="266.5,-556.07 263,-546.07 259.5,-556.07 266.5,-556.07"/>
<text text-anchor="middle" x="295" y="-578" font-family="RobotoMono" font-size="10.00" fill="#002b36">random_seed</text>
<text text-anchor="middle" x="295" y="-567" font-family="RobotoMono" font-size="10.00" fill="#002b36">(1 values)</text>
</g>
<!-- v -->
<g id="node4" class="node">
<title>v</title>
<path fill="none" stroke="#268bd2" d="M314.5,-36C314.5,-36 245.5,-36 245.5,-36 239.5,-36 233.5,-30 233.5,-24 233.5,-24 233.5,-12 233.5,-12 233.5,-6 239.5,0 245.5,0 245.5,0 314.5,0 314.5,0 320.5,0 326.5,-6 326.5,-12 326.5,-12 326.5,-24 326.5,-24 326.5,-30 320.5,-36 314.5,-36"/>
<text text-anchor="start" x="276.5" y="-20.4" font-family="RobotoMono" font-weight="bold" font-size="12.00" fill="#002b36">v</text>
<text text-anchor="start" x="241.5" y="-10" font-family="RobotoMono" font-size="10.00" fill="#268bd2">1 values (1 sinks)</text>
</g>
<!-- model -->
<g id="node5" class="node">
<title>model</title>
<path fill="none" stroke="#268bd2" d="M230,-228C230,-228 200,-228 200,-228 194,-228 188,-222 188,-216 188,-216 188,-204 188,-204 188,-198 194,-192 200,-192 200,-192 230,-192 230,-192 236,-192 242,-198 242,-204 242,-204 242,-216 242,-216 242,-222 236,-228 230,-228"/>
<text text-anchor="start" x="196" y="-212.4" font-family="RobotoMono" font-weight="bold" font-size="12.00" fill="#002b36">model</text>
<text text-anchor="start" x="196" y="-202" font-family="RobotoMono" font-size="10.00" fill="#268bd2">1 values</text>
</g>
<!-- eval_model -->
<g id="node11" class="node">
<title>eval_model</title>
<path fill="none" stroke="#dc322f" d="M314,-134C314,-134 246,-134 246,-134 240,-134 234,-128 234,-122 234,-122 234,-106 234,-106 234,-100 240,-94 246,-94 246,-94 314,-94 314,-94 320,-94 326,-100 326,-106 326,-106 326,-122 326,-122 326,-128 320,-134 314,-134"/>
<text text-anchor="start" x="246" y="-121.4" font-family="RobotoMono" font-weight="bold" font-size="12.00" fill="#002b36">eval_model</text>
<text text-anchor="start" x="242" y="-111" font-family="RobotoMono" font-size="10.00" fill="#002b36">@op:eval_model</text>
<text text-anchor="start" x="266" y="-101" font-family="RobotoMono" font-size="10.00" fill="#dc322f">1 calls</text>
</g>
<!-- model&#45;&gt;eval_model -->
<g id="edge4" class="edge">
<title>model&#45;&gt;eval_model</title>
<path fill="none" stroke="#002b36" d="M213.42,-191.77C213.16,-179.75 214.56,-163.81 222,-152 224.65,-147.8 227.96,-143.99 231.66,-140.55"/>
<polygon fill="#002b36" stroke="#002b36" points="234.15,-143.04 239.7,-134.01 229.73,-137.61 234.15,-143.04"/>
<text text-anchor="middle" x="244" y="-166" font-family="RobotoMono" font-size="10.00" fill="#002b36">model</text>
<text text-anchor="middle" x="244" y="-155" font-family="RobotoMono" font-size="10.00" fill="#002b36">(1 values)</text>
</g>
<!-- y_test -->
<g id="node6" class="node">
<title>y_test</title>
<path fill="none" stroke="#268bd2" d="M312,-394C312,-394 282,-394 282,-394 276,-394 270,-388 270,-382 270,-382 270,-370 270,-370 270,-364 276,-358 282,-358 282,-358 312,-358 312,-358 318,-358 324,-364 324,-370 324,-370 324,-382 324,-382 324,-388 318,-394 312,-394"/>
<text text-anchor="start" x="279" y="-378.4" font-family="RobotoMono" font-weight="bold" font-size="12.00" fill="#002b36">y_test</text>
<text text-anchor="start" x="278" y="-368" font-family="RobotoMono" font-size="10.00" fill="#268bd2">1 values</text>
</g>
<!-- y_test&#45;&gt;eval_model -->
<g id="edge2" class="edge">
<title>y_test&#45;&gt;eval_model</title>
<path fill="none" stroke="#002b36" d="M291.88,-357.71C286.69,-339.19 278.99,-308.81 276,-282 270.64,-233.89 273.97,-177.51 276.94,-144.11"/>
<polygon fill="#002b36" stroke="#002b36" points="280.42,-144.39 277.88,-134.11 273.46,-143.74 280.42,-144.39"/>
<text text-anchor="middle" x="298" y="-267" font-family="RobotoMono" font-size="10.00" fill="#002b36">y_test</text>
<text text-anchor="middle" x="298" y="-256" font-family="RobotoMono" font-size="10.00" fill="#002b36">(1 values)</text>
</g>
<!-- X_test -->
<g id="node7" class="node">
<title>X_test</title>
<path fill="none" stroke="#268bd2" d="M371,-282C371,-282 341,-282 341,-282 335,-282 329,-276 329,-270 329,-270 329,-258 329,-258 329,-252 335,-246 341,-246 341,-246 371,-246 371,-246 377,-246 383,-252 383,-258 383,-258 383,-270 383,-270 383,-276 377,-282 371,-282"/>
<text text-anchor="start" x="337.5" y="-266.4" font-family="RobotoMono" font-weight="bold" font-size="12.00" fill="#002b36">X_test</text>
<text text-anchor="start" x="337" y="-256" font-family="RobotoMono" font-size="10.00" fill="#268bd2">1 values</text>
</g>
<!-- X_test&#45;&gt;eval_model -->
<g id="edge3" class="edge">
<title>X_test&#45;&gt;eval_model</title>
<path fill="none" stroke="#002b36" d="M347.13,-245.73C334.2,-220.55 310.02,-173.46 294.48,-143.2"/>
<polygon fill="#002b36" stroke="#002b36" points="297.45,-141.32 289.77,-134.02 291.22,-144.52 297.45,-141.32"/>
<text text-anchor="middle" x="358" y="-213" font-family="RobotoMono" font-size="10.00" fill="#002b36">X_test</text>
<text text-anchor="middle" x="358" y="-202" font-family="RobotoMono" font-size="10.00" fill="#002b36">(1 values)</text>
</g>
<!-- y_train -->
<g id="node8" class="node">
<title>y_train</title>
<path fill="none" stroke="#268bd2" d="M249.5,-448C249.5,-448 214.5,-448 214.5,-448 208.5,-448 202.5,-442 202.5,-436 202.5,-436 202.5,-424 202.5,-424 202.5,-418 208.5,-412 214.5,-412 214.5,-412 249.5,-412 249.5,-412 255.5,-412 261.5,-418 261.5,-424 261.5,-424 261.5,-436 261.5,-436 261.5,-442 255.5,-448 249.5,-448"/>
<text text-anchor="start" x="210.5" y="-432.4" font-family="RobotoMono" font-weight="bold" font-size="12.00" fill="#002b36">y_train</text>
<text text-anchor="start" x="213" y="-422" font-family="RobotoMono" font-size="10.00" fill="#268bd2">1 values</text>
</g>
<!-- y_train&#45;&gt;train_model -->
<g id="edge13" class="edge">
<title>y_train&#45;&gt;train_model</title>
<path fill="none" stroke="#002b36" d="M224.42,-411.93C217.91,-397.47 208.15,-376.22 199,-358 197.53,-355.06 195.95,-352.02 194.36,-348.99"/>
<polygon fill="#002b36" stroke="#002b36" points="197.4,-347.26 189.6,-340.09 191.23,-350.56 197.4,-347.26"/>
<text text-anchor="middle" x="237" y="-379" font-family="RobotoMono" font-size="10.00" fill="#002b36">y_train</text>
<text text-anchor="middle" x="237" y="-368" font-family="RobotoMono" font-size="10.00" fill="#002b36">(1 values)</text>
</g>
<!-- train_model&#45;&gt;model -->
<g id="edge10" class="edge">
<title>train_model&#45;&gt;model</title>
<path fill="none" stroke="#002b36" d="M185.35,-299.94C191.1,-282.69 199.63,-257.11 206.06,-237.81"/>
<polygon fill="#002b36" stroke="#002b36" points="209.46,-238.68 209.3,-228.09 202.82,-236.47 209.46,-238.68"/>
<text text-anchor="middle" x="224" y="-267" font-family="RobotoMono" font-size="10.00" fill="#002b36">output_0</text>
<text text-anchor="middle" x="224" y="-256" font-family="RobotoMono" font-size="10.00" fill="#002b36">(1 values)</text>
</g>
<!-- generate_dataset&#45;&gt;X_train -->
<g id="edge7" class="edge">
<title>generate_dataset&#45;&gt;X_train</title>
<path fill="none" stroke="#002b36" d="M204.28,-505.96C195.06,-501.14 186.21,-495.22 179,-488 170.73,-479.71 164.98,-468.23 161.1,-457.74"/>
<polygon fill="#002b36" stroke="#002b36" points="164.38,-456.52 157.93,-448.12 157.74,-458.71 164.38,-456.52"/>
<text text-anchor="middle" x="201" y="-480" font-family="RobotoMono" font-size="10.00" fill="#002b36">output_0</text>
<text text-anchor="middle" x="201" y="-469" font-family="RobotoMono" font-size="10.00" fill="#002b36">(1 values)</text>
</g>
<!-- generate_dataset&#45;&gt;y_test -->
<g id="edge6" class="edge">
<title>generate_dataset&#45;&gt;y_test</title>
<path fill="none" stroke="#002b36" d="M269.66,-505.92C271.53,-500.2 273.47,-493.88 275,-488 282.39,-459.61 288.65,-426.56 292.57,-403.96"/>
<polygon fill="#002b36" stroke="#002b36" points="296.03,-404.51 294.26,-394.07 289.13,-403.34 296.03,-404.51"/>
<text text-anchor="middle" x="302" y="-480" font-family="RobotoMono" font-size="10.00" fill="#002b36">output_3</text>
<text text-anchor="middle" x="302" y="-469" font-family="RobotoMono" font-size="10.00" fill="#002b36">(1 values)</text>
</g>
<!-- generate_dataset&#45;&gt;X_test -->
<g id="edge5" class="edge">
<title>generate_dataset&#45;&gt;X_test</title>
<path fill="none" stroke="#002b36" d="M309.4,-505.88C316.61,-501.04 323.24,-495.13 328,-488 368.36,-427.61 364.83,-337.13 359.9,-292.26"/>
<polygon fill="#002b36" stroke="#002b36" points="363.35,-291.64 358.67,-282.13 356.4,-292.48 363.35,-291.64"/>
<text text-anchor="middle" x="378" y="-433" font-family="RobotoMono" font-size="10.00" fill="#002b36">output_1</text>
<text text-anchor="middle" x="378" y="-422" font-family="RobotoMono" font-size="10.00" fill="#002b36">(1 values)</text>
</g>
<!-- generate_dataset&#45;&gt;y_train -->
<g id="edge8" class="edge">
<title>generate_dataset&#45;&gt;y_train</title>
<path fill="none" stroke="#002b36" d="M241.78,-505.61C237.39,-500.37 233.37,-494.37 231,-488 227.5,-478.6 226.93,-467.71 227.51,-457.98"/>
<polygon fill="#002b36" stroke="#002b36" points="231,-458.31 228.52,-448.01 224.03,-457.61 231,-458.31"/>
<text text-anchor="middle" x="253" y="-480" font-family="RobotoMono" font-size="10.00" fill="#002b36">output_2</text>
<text text-anchor="middle" x="253" y="-469" font-family="RobotoMono" font-size="10.00" fill="#002b36">(1 values)</text>
</g>
<!-- eval_model&#45;&gt;v -->
<g id="edge1" class="edge">
<title>eval_model&#45;&gt;v</title>
<path fill="none" stroke="#002b36" d="M280,-93.98C280,-80.34 280,-61.75 280,-46.5"/>
<polygon fill="#002b36" stroke="#002b36" points="283.5,-46.1 280,-36.1 276.5,-46.1 283.5,-46.1"/>
<text text-anchor="middle" x="302" y="-68" font-family="RobotoMono" font-size="10.00" fill="#002b36">output_0</text>
<text text-anchor="middle" x="302" y="-57" font-family="RobotoMono" font-size="10.00" fill="#002b36">(1 values)</text>
</g>
</g>
</svg>
