<?xml version="1.0" encoding="UTF-8" standalone="no"?>
<!DOCTYPE svg PUBLIC "-//W3C//DTD SVG 1.1//EN"
 "http://www.w3.org/Graphics/SVG/1.1/DTD/svg11.dtd">
<!-- Generated by graphviz version 2.50.0 (0)
 -->
<!-- Title: G Pages: 1 -->
<svg width="287pt" height="620pt"
 viewBox="0.00 0.00 286.50 620.00" xmlns="http://www.w3.org/2000/svg" xmlns:xlink="http://www.w3.org/1999/xlink">
<g id="graph0" class="graph" transform="scale(1 1) rotate(0) translate(4 616)">
<title>G</title>
<polygon fill="white" stroke="transparent" points="-4,4 -4,-616 282.5,-616 282.5,4 -4,4"/>
<!-- y_train -->
<g id="node1" class="node">
<title>y_train</title>
<path fill="none" stroke="#268bd2" d="M171.5,-420C171.5,-420 136.5,-420 136.5,-420 130.5,-420 124.5,-414 124.5,-408 124.5,-408 124.5,-396 124.5,-396 124.5,-390 130.5,-384 136.5,-384 136.5,-384 171.5,-384 171.5,-384 177.5,-384 183.5,-390 183.5,-396 183.5,-396 183.5,-408 183.5,-408 183.5,-414 177.5,-420 171.5,-420"/>
<text text-anchor="start" x="132.5" y="-404.4" font-family="RobotoMono" font-weight="bold" font-size="12.00" fill="#002b36">y_train</text>
<text text-anchor="start" x="135" y="-394" font-family="RobotoMono" font-size="10.00" fill="#268bd2">1 values</text>
</g>
<!-- train_model -->
<g id="node9" class="node">
<title>train_model</title>
<path fill="none" stroke="#dc322f" d="M189.5,-326C189.5,-326 118.5,-326 118.5,-326 112.5,-326 106.5,-320 106.5,-314 106.5,-314 106.5,-298 106.5,-298 106.5,-292 112.5,-286 118.5,-286 118.5,-286 189.5,-286 189.5,-286 195.5,-286 201.5,-292 201.5,-298 201.5,-298 201.5,-314 201.5,-314 201.5,-320 195.5,-326 189.5,-326"/>
<text text-anchor="start" x="117.5" y="-313.4" font-family="RobotoMono" font-weight="bold" font-size="12.00" fill="#002b36">train_model</text>
<text text-anchor="start" x="114.5" y="-303" font-family="RobotoMono" font-size="10.00" fill="#002b36">@op:train_model</text>
<text text-anchor="start" x="140" y="-293" font-family="RobotoMono" font-size="10.00" fill="#dc322f">4 calls</text>
</g>
<!-- y_train&#45;&gt;train_model -->
<g id="edge4" class="edge">
<title>y_train&#45;&gt;train_model</title>
<path fill="none" stroke="#002b36" d="M154,-383.76C154,-370.5 154,-351.86 154,-336.27"/>
<polygon fill="#002b36" stroke="#002b36" points="157.5,-336.07 154,-326.07 150.5,-336.07 157.5,-336.07"/>
<text text-anchor="middle" x="176" y="-358" font-family="RobotoMono" font-size="10.00" fill="#002b36">y_train</text>
<text text-anchor="middle" x="176" y="-347" font-family="RobotoMono" font-size="10.00" fill="#002b36">(1 values)</text>
</g>
<!-- random_seed -->
<g id="node2" class="node">
<title>random_seed</title>
<path fill="none" stroke="#268bd2" d="M233,-612C233,-612 151,-612 151,-612 145,-612 139,-606 139,-600 139,-600 139,-588 139,-588 139,-582 145,-576 151,-576 151,-576 233,-576 233,-576 239,-576 245,-582 245,-588 245,-588 245,-600 245,-600 245,-606 239,-612 233,-612"/>
<text text-anchor="start" x="151.5" y="-596.4" font-family="RobotoMono" font-weight="bold" font-size="12.00" fill="#002b36">random_seed</text>
<text text-anchor="start" x="147" y="-586" font-family="RobotoMono" font-size="10.00" fill="#268bd2">1 values (1 sources)</text>
</g>
<!-- generate_dataset -->
<g id="node10" class="node">
<title>generate_dataset</title>
<path fill="none" stroke="#dc322f" d="M241,-518C241,-518 143,-518 143,-518 137,-518 131,-512 131,-506 131,-506 131,-490 131,-490 131,-484 137,-478 143,-478 143,-478 241,-478 241,-478 247,-478 253,-484 253,-490 253,-490 253,-506 253,-506 253,-512 247,-518 241,-518"/>
<text text-anchor="start" x="139" y="-505.4" font-family="RobotoMono" font-weight="bold" font-size="12.00" fill="#002b36">generate_dataset</text>
<text text-anchor="start" x="139" y="-495" font-family="RobotoMono" font-size="10.00" fill="#002b36">@op:generate_dataset</text>
<text text-anchor="start" x="178" y="-485" font-family="RobotoMono" font-size="10.00" fill="#dc322f">1 calls</text>
</g>
<!-- random_seed&#45;&gt;generate_dataset -->
<g id="edge9" class="edge">
<title>random_seed&#45;&gt;generate_dataset</title>
<path fill="none" stroke="#002b36" d="M192,-575.76C192,-562.5 192,-543.86 192,-528.27"/>
<polygon fill="#002b36" stroke="#002b36" points="195.5,-528.07 192,-518.07 188.5,-528.07 195.5,-528.07"/>
<text text-anchor="middle" x="224" y="-550" font-family="RobotoMono" font-size="10.00" fill="#002b36">random_seed</text>
<text text-anchor="middle" x="224" y="-539" font-family="RobotoMono" font-size="10.00" fill="#002b36">(1 values)</text>
</g>
<!-- n_estimators -->
<g id="node3" class="node">
<title>n_estimators</title>
<path fill="none" stroke="#268bd2" d="M94,-420C94,-420 12,-420 12,-420 6,-420 0,-414 0,-408 0,-408 0,-396 0,-396 0,-390 6,-384 12,-384 12,-384 94,-384 94,-384 100,-384 106,-390 106,-396 106,-396 106,-408 106,-408 106,-414 100,-420 94,-420"/>
<text text-anchor="start" x="13.5" y="-404.4" font-family="RobotoMono" font-weight="bold" font-size="12.00" fill="#002b36">n_estimators</text>
<text text-anchor="start" x="8" y="-394" font-family="RobotoMono" font-size="10.00" fill="#268bd2">4 values (4 sources)</text>
</g>
<!-- n_estimators&#45;&gt;train_model -->
<g id="edge5" class="edge">
<title>n_estimators&#45;&gt;train_model</title>
<path fill="none" stroke="#002b36" d="M60.91,-383.99C67.22,-371.76 76.98,-355.48 89,-344 93.68,-339.53 99.01,-335.39 104.55,-331.63"/>
<polygon fill="#002b36" stroke="#002b36" points="106.8,-334.35 113.37,-326.04 103.05,-328.44 106.8,-334.35"/>
<text text-anchor="middle" x="119.5" y="-358" font-family="RobotoMono" font-size="10.00" fill="#002b36">n_estimators</text>
<text text-anchor="middle" x="119.5" y="-347" font-family="RobotoMono" font-size="10.00" fill="#002b36">(4 values)</text>
</g>
<!-- output_1 -->
<g id="node4" class="node">
<title>output_1</title>
<path fill="none" stroke="#268bd2" d="M155.5,-228C155.5,-228 86.5,-228 86.5,-228 80.5,-228 74.5,-222 74.5,-216 74.5,-216 74.5,-204 74.5,-204 74.5,-198 80.5,-192 86.5,-192 86.5,-192 155.5,-192 155.5,-192 161.5,-192 167.5,-198 167.5,-204 167.5,-204 167.5,-216 167.5,-216 167.5,-222 161.5,-228 155.5,-228"/>
<text text-anchor="start" x="93.5" y="-212.4" font-family="RobotoMono" font-weight="bold" font-size="12.00" fill="#002b36">output_1</text>
<text text-anchor="start" x="82.5" y="-202" font-family="RobotoMono" font-size="10.00" fill="#268bd2">4 values (4 sinks)</text>
</g>
<!-- output_0_0 -->
<g id="node5" class="node">
<title>output_0_0</title>
<path fill="none" stroke="#268bd2" d="M266.5,-36C266.5,-36 197.5,-36 197.5,-36 191.5,-36 185.5,-30 185.5,-24 185.5,-24 185.5,-12 185.5,-12 185.5,-6 191.5,0 197.5,0 197.5,0 266.5,0 266.5,0 272.5,0 278.5,-6 278.5,-12 278.5,-12 278.5,-24 278.5,-24 278.5,-30 272.5,-36 266.5,-36"/>
<text text-anchor="start" x="198.5" y="-20.4" font-family="RobotoMono" font-weight="bold" font-size="12.00" fill="#002b36">output_0_0</text>
<text text-anchor="start" x="193.5" y="-10" font-family="RobotoMono" font-size="10.00" fill="#268bd2">2 values (2 sinks)</text>
</g>
<!-- X_train -->
<g id="node6" class="node">
<title>X_train</title>
<path fill="none" stroke="#268bd2" d="M250,-420C250,-420 214,-420 214,-420 208,-420 202,-414 202,-408 202,-408 202,-396 202,-396 202,-390 208,-384 214,-384 214,-384 250,-384 250,-384 256,-384 262,-390 262,-396 262,-396 262,-408 262,-408 262,-414 256,-420 250,-420"/>
<text text-anchor="start" x="210" y="-404.4" font-family="RobotoMono" font-weight="bold" font-size="12.00" fill="#002b36">X_train</text>
<text text-anchor="start" x="213" y="-394" font-family="RobotoMono" font-size="10.00" fill="#268bd2">1 values</text>
</g>
<!-- X_train&#45;&gt;train_model -->
<g id="edge3" class="edge">
<title>X_train&#45;&gt;train_model</title>
<path fill="none" stroke="#002b36" d="M225.31,-383.88C220.1,-371.91 212.08,-355.98 202,-344 198.66,-340.03 194.82,-336.21 190.8,-332.63"/>
<polygon fill="#002b36" stroke="#002b36" points="192.86,-329.79 182.93,-326.09 188.38,-335.18 192.86,-329.79"/>
<text text-anchor="middle" x="238" y="-358" font-family="RobotoMono" font-size="10.00" fill="#002b36">X_train</text>
<text text-anchor="middle" x="238" y="-347" font-family="RobotoMono" font-size="10.00" fill="#002b36">(1 values)</text>
</g>
<!-- output_0 -->
<g id="node7" class="node">
<title>output_0</title>
<path fill="none" stroke="#268bd2" d="M266.5,-228C266.5,-228 197.5,-228 197.5,-228 191.5,-228 185.5,-222 185.5,-216 185.5,-216 185.5,-204 185.5,-204 185.5,-198 191.5,-192 197.5,-192 197.5,-192 266.5,-192 266.5,-192 272.5,-192 278.5,-198 278.5,-204 278.5,-204 278.5,-216 278.5,-216 278.5,-222 272.5,-228 266.5,-228"/>
<text text-anchor="start" x="204.5" y="-212.4" font-family="RobotoMono" font-weight="bold" font-size="12.00" fill="#002b36">output_0</text>
<text text-anchor="start" x="193.5" y="-202" font-family="RobotoMono" font-size="10.00" fill="#268bd2">4 values (2 sinks)</text>
</g>
<!-- eval_model -->
<g id="node8" class="node">
<title>eval_model</title>
<path fill="none" stroke="#dc322f" d="M266,-134C266,-134 198,-134 198,-134 192,-134 186,-128 186,-122 186,-122 186,-106 186,-106 186,-100 192,-94 198,-94 198,-94 266,-94 266,-94 272,-94 278,-100 278,-106 278,-106 278,-122 278,-122 278,-128 272,-134 266,-134"/>
<text text-anchor="start" x="198" y="-121.4" font-family="RobotoMono" font-weight="bold" font-size="12.00" fill="#002b36">eval_model</text>
<text text-anchor="start" x="194" y="-111" font-family="RobotoMono" font-size="10.00" fill="#002b36">@op:eval_model</text>
<text text-anchor="start" x="218" y="-101" font-family="RobotoMono" font-size="10.00" fill="#dc322f">2 calls</text>
</g>
<!-- output_0&#45;&gt;eval_model -->
<g id="edge6" class="edge">
<title>output_0&#45;&gt;eval_model</title>
<path fill="none" stroke="#002b36" d="M232,-191.76C232,-178.5 232,-159.86 232,-144.27"/>
<polygon fill="#002b36" stroke="#002b36" points="235.5,-144.07 232,-134.07 228.5,-144.07 235.5,-144.07"/>
<text text-anchor="middle" x="254" y="-166" font-family="RobotoMono" font-size="10.00" fill="#002b36">model</text>
<text text-anchor="middle" x="254" y="-155" font-family="RobotoMono" font-size="10.00" fill="#002b36">(2 values)</text>
</g>
<!-- eval_model&#45;&gt;output_0_0 -->
<g id="edge10" class="edge">
<title>eval_model&#45;&gt;output_0_0</title>
<path fill="none" stroke="#002b36" d="M232,-93.98C232,-80.34 232,-61.75 232,-46.5"/>
<polygon fill="#002b36" stroke="#002b36" points="235.5,-46.1 232,-36.1 228.5,-46.1 235.5,-46.1"/>
<text text-anchor="middle" x="254" y="-68" font-family="RobotoMono" font-size="10.00" fill="#002b36">output_0</text>
<text text-anchor="middle" x="254" y="-57" font-family="RobotoMono" font-size="10.00" fill="#002b36">(2 values)</text>
</g>
<!-- train_model&#45;&gt;output_1 -->
<g id="edge1" class="edge">
<title>train_model&#45;&gt;output_1</title>
<path fill="none" stroke="#002b36" d="M147.32,-285.98C142.44,-272.07 135.75,-253.03 130.34,-237.61"/>
<polygon fill="#002b36" stroke="#002b36" points="133.62,-236.37 127,-228.1 127.01,-238.69 133.62,-236.37"/>
<text text-anchor="middle" x="163" y="-260" font-family="RobotoMono" font-size="10.00" fill="#002b36">output_1</text>
<text text-anchor="middle" x="163" y="-249" font-family="RobotoMono" font-size="10.00" fill="#002b36">(4 values)</text>
</g>
<!-- train_model&#45;&gt;output_0 -->
<g id="edge2" class="edge">
<title>train_model&#45;&gt;output_0</title>
<path fill="none" stroke="#002b36" d="M172.32,-285.69C177.49,-280.08 183.05,-273.87 188,-268 196.56,-257.84 205.59,-246.3 213.23,-236.27"/>
<polygon fill="#002b36" stroke="#002b36" points="216.05,-238.35 219.28,-228.26 210.46,-234.13 216.05,-238.35"/>
<text text-anchor="middle" x="227" y="-260" font-family="RobotoMono" font-size="10.00" fill="#002b36">output_0</text>
<text text-anchor="middle" x="227" y="-249" font-family="RobotoMono" font-size="10.00" fill="#002b36">(4 values)</text>
</g>
<!-- generate_dataset&#45;&gt;y_train -->
<g id="edge8" class="edge">
<title>generate_dataset&#45;&gt;y_train</title>
<path fill="none" stroke="#002b36" d="M174.02,-477.85C169.8,-472.43 165.74,-466.29 163,-460 158.95,-450.69 156.69,-439.82 155.45,-430.08"/>
<polygon fill="#002b36" stroke="#002b36" points="158.93,-429.69 154.46,-420.09 151.96,-430.38 158.93,-429.69"/>
<text text-anchor="middle" x="185" y="-452" font-family="RobotoMono" font-size="10.00" fill="#002b36">output_2</text>
<text text-anchor="middle" x="185" y="-441" font-family="RobotoMono" font-size="10.00" fill="#002b36">(1 values)</text>
</g>
<!-- generate_dataset&#45;&gt;X_train -->
<g id="edge7" class="edge">
<title>generate_dataset&#45;&gt;X_train</title>
<path fill="none" stroke="#002b36" d="M200.09,-477.98C206.01,-464.07 214.12,-445.03 220.68,-429.61"/>
<polygon fill="#002b36" stroke="#002b36" points="224.03,-430.67 224.72,-420.1 217.59,-427.93 224.03,-430.67"/>
<text text-anchor="middle" x="238" y="-452" font-family="RobotoMono" font-size="10.00" fill="#002b36">output_0</text>
<text text-anchor="middle" x="238" y="-441" font-family="RobotoMono" font-size="10.00" fill="#002b36">(1 values)</text>
</g>
</g>
</svg>
