<?xml version="1.0" encoding="UTF-8" standalone="no"?>
<!DOCTYPE svg PUBLIC "-//W3C//DTD SVG 1.1//EN"
 "http://www.w3.org/Graphics/SVG/1.1/DTD/svg11.dtd">
<!-- Generated by graphviz version 2.50.0 (0)
 -->
<!-- Title: G Pages: 1 -->
<svg width="396pt" height="648pt"
 viewBox="0.00 0.00 396.00 648.00" xmlns="http://www.w3.org/2000/svg" xmlns:xlink="http://www.w3.org/1999/xlink">
<g id="graph0" class="graph" transform="scale(1 1) rotate(0) translate(4 644)">
<title>G</title>
<polygon fill="white" stroke="transparent" points="-4,4 -4,-644 392,-644 392,4 -4,4"/>
<!-- v -->
<g id="node1" class="node">
<title>v</title>
<path fill="none" stroke="#268bd2" d="M307.5,-36C307.5,-36 238.5,-36 238.5,-36 232.5,-36 226.5,-30 226.5,-24 226.5,-24 226.5,-12 226.5,-12 226.5,-6 232.5,0 238.5,0 238.5,0 307.5,0 307.5,0 313.5,0 319.5,-6 319.5,-12 319.5,-12 319.5,-24 319.5,-24 319.5,-30 313.5,-36 307.5,-36"/>
<text text-anchor="start" x="269.5" y="-20.4" font-family="RobotoMono" font-weight="bold" font-size="12.00" fill="#002b36">v</text>
<text text-anchor="start" x="234.5" y="-10" font-family="RobotoMono" font-size="10.00" fill="#268bd2">1 values (1 sinks)</text>
</g>
<!-- random_seed -->
<g id="node2" class="node">
<title>random_seed</title>
<path fill="none" stroke="#268bd2" d="M285,-640C285,-640 203,-640 203,-640 197,-640 191,-634 191,-628 191,-628 191,-616 191,-616 191,-610 197,-604 203,-604 203,-604 285,-604 285,-604 291,-604 297,-610 297,-616 297,-616 297,-628 297,-628 297,-634 291,-640 285,-640"/>
<text text-anchor="start" x="203.5" y="-624.4" font-family="RobotoMono" font-weight="bold" font-size="12.00" fill="#002b36">random_seed</text>
<text text-anchor="start" x="199" y="-614" font-family="RobotoMono" font-size="10.00" fill="#268bd2">1 values (1 sources)</text>
</g>
<!-- generate_dataset -->
<g id="node9" class="node">
<title>generate_dataset</title>
<path fill="none" stroke="#dc322f" d="M293,-546C293,-546 195,-546 195,-546 189,-546 183,-540 183,-534 183,-534 183,-518 183,-518 183,-512 189,-506 195,-506 195,-506 293,-506 293,-506 299,-506 305,-512 305,-518 305,-518 305,-534 305,-534 305,-540 299,-546 293,-546"/>
<text text-anchor="start" x="191" y="-533.4" font-family="RobotoMono" font-weight="bold" font-size="12.00" fill="#002b36">generate_dataset</text>
<text text-anchor="start" x="191" y="-523" font-family="RobotoMono" font-size="10.00" fill="#002b36">@op:generate_dataset</text>
<text text-anchor="start" x="230" y="-513" font-family="RobotoMono" font-size="10.00" fill="#dc322f">1 calls</text>
</g>
<!-- random_seed&#45;&gt;generate_dataset -->
<g id="edge9" class="edge">
<title>random_seed&#45;&gt;generate_dataset</title>
<path fill="none" stroke="#002b36" d="M244,-603.76C244,-590.5 244,-571.86 244,-556.27"/>
<polygon fill="#002b36" stroke="#002b36" points="247.5,-556.07 244,-546.07 240.5,-556.07 247.5,-556.07"/>
<text text-anchor="middle" x="276" y="-578" font-family="RobotoMono" font-size="10.00" fill="#002b36">random_seed</text>
<text text-anchor="middle" x="276" y="-567" font-family="RobotoMono" font-size="10.00" fill="#002b36">(1 values)</text>
</g>
<!-- X_train -->
<g id="node3" class="node">
<title>X_train</title>
<path fill="none" stroke="#268bd2" d="M48,-448C48,-448 12,-448 12,-448 6,-448 0,-442 0,-436 0,-436 0,-424 0,-424 0,-418 6,-412 12,-412 12,-412 48,-412 48,-412 54,-412 60,-418 60,-424 60,-424 60,-436 60,-436 60,-442 54,-448 48,-448"/>
<text text-anchor="start" x="8" y="-432.4" font-family="RobotoMono" font-weight="bold" font-size="12.00" fill="#002b36">X_train</text>
<text text-anchor="start" x="11" y="-422" font-family="RobotoMono" font-size="10.00" fill="#268bd2">1 values</text>
</g>
<!-- train_model -->
<g id="node10" class="node">
<title>train_model</title>
<path fill="none" stroke="#dc322f" d="M195.5,-340C195.5,-340 124.5,-340 124.5,-340 118.5,-340 112.5,-334 112.5,-328 112.5,-328 112.5,-312 112.5,-312 112.5,-306 118.5,-300 124.5,-300 124.5,-300 195.5,-300 195.5,-300 201.5,-300 207.5,-306 207.5,-312 207.5,-312 207.5,-328 207.5,-328 207.5,-334 201.5,-340 195.5,-340"/>
<text text-anchor="start" x="123.5" y="-327.4" font-family="RobotoMono" font-weight="bold" font-size="12.00" fill="#002b36">train_model</text>
<text text-anchor="start" x="120.5" y="-317" font-family="RobotoMono" font-size="10.00" fill="#002b36">@op:train_model</text>
<text text-anchor="start" x="146" y="-307" font-family="RobotoMono" font-size="10.00" fill="#dc322f">1 calls</text>
</g>
<!-- X_train&#45;&gt;train_model -->
<g id="edge13" class="edge">
<title>X_train&#45;&gt;train_model</title>
<path fill="none" stroke="#002b36" d="M34.79,-411.91C40.05,-396 49.95,-372.6 66,-358 76.44,-348.5 89.6,-341.32 102.75,-335.93"/>
<polygon fill="#002b36" stroke="#002b36" points="104.16,-339.14 112.28,-332.32 101.68,-332.59 104.16,-339.14"/>
<text text-anchor="middle" x="88" y="-379" font-family="RobotoMono" font-size="10.00" fill="#002b36">X_train</text>
<text text-anchor="middle" x="88" y="-368" font-family="RobotoMono" font-size="10.00" fill="#002b36">(1 values)</text>
</g>
<!-- y_train -->
<g id="node4" class="node">
<title>y_train</title>
<path fill="none" stroke="#268bd2" d="M125.5,-448C125.5,-448 90.5,-448 90.5,-448 84.5,-448 78.5,-442 78.5,-436 78.5,-436 78.5,-424 78.5,-424 78.5,-418 84.5,-412 90.5,-412 90.5,-412 125.5,-412 125.5,-412 131.5,-412 137.5,-418 137.5,-424 137.5,-424 137.5,-436 137.5,-436 137.5,-442 131.5,-448 125.5,-448"/>
<text text-anchor="start" x="86.5" y="-432.4" font-family="RobotoMono" font-weight="bold" font-size="12.00" fill="#002b36">y_train</text>
<text text-anchor="start" x="89" y="-422" font-family="RobotoMono" font-size="10.00" fill="#268bd2">1 values</text>
</g>
<!-- y_train&#45;&gt;train_model -->
<g id="edge11" class="edge">
<title>y_train&#45;&gt;train_model</title>
<path fill="none" stroke="#002b36" d="M110.65,-411.85C113.45,-396.96 118.77,-375.14 128,-358 129.8,-354.66 131.94,-351.36 134.25,-348.19"/>
<polygon fill="#002b36" stroke="#002b36" points="137.16,-350.16 140.65,-340.16 131.69,-345.8 137.16,-350.16"/>
<text text-anchor="middle" x="150" y="-379" font-family="RobotoMono" font-size="10.00" fill="#002b36">y_train</text>
<text text-anchor="middle" x="150" y="-368" font-family="RobotoMono" font-size="10.00" fill="#002b36">(1 values)</text>
</g>
<!-- model -->
<g id="node5" class="node">
<title>model</title>
<path fill="none" stroke="#268bd2" d="M223,-228C223,-228 193,-228 193,-228 187,-228 181,-222 181,-216 181,-216 181,-204 181,-204 181,-198 187,-192 193,-192 193,-192 223,-192 223,-192 229,-192 235,-198 235,-204 235,-204 235,-216 235,-216 235,-222 229,-228 223,-228"/>
<text text-anchor="start" x="189" y="-212.4" font-family="RobotoMono" font-weight="bold" font-size="12.00" fill="#002b36">model</text>
<text text-anchor="start" x="189" y="-202" font-family="RobotoMono" font-size="10.00" fill="#268bd2">1 values</text>
</g>
<!-- eval_model -->
<g id="node11" class="node">
<title>eval_model</title>
<path fill="none" stroke="#dc322f" d="M307,-134C307,-134 239,-134 239,-134 233,-134 227,-128 227,-122 227,-122 227,-106 227,-106 227,-100 233,-94 239,-94 239,-94 307,-94 307,-94 313,-94 319,-100 319,-106 319,-106 319,-122 319,-122 319,-128 313,-134 307,-134"/>
<text text-anchor="start" x="239" y="-121.4" font-family="RobotoMono" font-weight="bold" font-size="12.00" fill="#002b36">eval_model</text>
<text text-anchor="start" x="235" y="-111" font-family="RobotoMono" font-size="10.00" fill="#002b36">@op:eval_model</text>
<text text-anchor="start" x="259" y="-101" font-family="RobotoMono" font-size="10.00" fill="#dc322f">1 calls</text>
</g>
<!-- model&#45;&gt;eval_model -->
<g id="edge4" class="edge">
<title>model&#45;&gt;eval_model</title>
<path fill="none" stroke="#002b36" d="M206.42,-191.77C206.16,-179.75 207.56,-163.81 215,-152 217.65,-147.8 220.96,-143.99 224.66,-140.55"/>
<polygon fill="#002b36" stroke="#002b36" points="227.15,-143.04 232.7,-134.01 222.73,-137.61 227.15,-143.04"/>
<text text-anchor="middle" x="237" y="-166" font-family="RobotoMono" font-size="10.00" fill="#002b36">model</text>
<text text-anchor="middle" x="237" y="-155" font-family="RobotoMono" font-size="10.00" fill="#002b36">(1 values)</text>
</g>
<!-- n_estimators -->
<g id="node6" class="node">
<title>n_estimators</title>
<path fill="none" stroke="#268bd2" d="M250,-448C250,-448 168,-448 168,-448 162,-448 156,-442 156,-436 156,-436 156,-424 156,-424 156,-418 162,-412 168,-412 168,-412 250,-412 250,-412 256,-412 262,-418 262,-424 262,-424 262,-436 262,-436 262,-442 256,-448 250,-448"/>
<text text-anchor="start" x="169.5" y="-432.4" font-family="RobotoMono" font-weight="bold" font-size="12.00" fill="#002b36">n_estimators</text>
<text text-anchor="start" x="164" y="-422" font-family="RobotoMono" font-size="10.00" fill="#268bd2">1 values (1 sources)</text>
</g>
<!-- n_estimators&#45;&gt;train_model -->
<g id="edge12" class="edge">
<title>n_estimators&#45;&gt;train_model</title>
<path fill="none" stroke="#002b36" d="M201.17,-411.92C198.57,-406.22 195.65,-399.84 193,-394 186.33,-379.33 178.94,-362.98 172.84,-349.48"/>
<polygon fill="#002b36" stroke="#002b36" points="175.97,-347.9 168.66,-340.22 169.59,-350.78 175.97,-347.9"/>
<text text-anchor="middle" x="223.5" y="-379" font-family="RobotoMono" font-size="10.00" fill="#002b36">n_estimators</text>
<text text-anchor="middle" x="223.5" y="-368" font-family="RobotoMono" font-size="10.00" fill="#002b36">(1 values)</text>
</g>
<!-- X_test -->
<g id="node7" class="node">
<title>X_test</title>
<path fill="none" stroke="#268bd2" d="M305,-394C305,-394 275,-394 275,-394 269,-394 263,-388 263,-382 263,-382 263,-370 263,-370 263,-364 269,-358 275,-358 275,-358 305,-358 305,-358 311,-358 317,-364 317,-370 317,-370 317,-382 317,-382 317,-388 311,-394 305,-394"/>
<text text-anchor="start" x="271.5" y="-378.4" font-family="RobotoMono" font-weight="bold" font-size="12.00" fill="#002b36">X_test</text>
<text text-anchor="start" x="271" y="-368" font-family="RobotoMono" font-size="10.00" fill="#268bd2">1 values</text>
</g>
<!-- X_test&#45;&gt;eval_model -->
<g id="edge2" class="edge">
<title>X_test&#45;&gt;eval_model</title>
<path fill="none" stroke="#002b36" d="M284.88,-357.71C279.69,-339.19 271.99,-308.81 269,-282 263.64,-233.89 266.97,-177.51 269.94,-144.11"/>
<polygon fill="#002b36" stroke="#002b36" points="273.42,-144.39 270.88,-134.11 266.46,-143.74 273.42,-144.39"/>
<text text-anchor="middle" x="291" y="-267" font-family="RobotoMono" font-size="10.00" fill="#002b36">X_test</text>
<text text-anchor="middle" x="291" y="-256" font-family="RobotoMono" font-size="10.00" fill="#002b36">(1 values)</text>
</g>
<!-- y_test -->
<g id="node8" class="node">
<title>y_test</title>
<path fill="none" stroke="#268bd2" d="M364,-282C364,-282 334,-282 334,-282 328,-282 322,-276 322,-270 322,-270 322,-258 322,-258 322,-252 328,-246 334,-246 334,-246 364,-246 364,-246 370,-246 376,-252 376,-258 376,-258 376,-270 376,-270 376,-276 370,-282 364,-282"/>
<text text-anchor="start" x="331" y="-266.4" font-family="RobotoMono" font-weight="bold" font-size="12.00" fill="#002b36">y_test</text>
<text text-anchor="start" x="330" y="-256" font-family="RobotoMono" font-size="10.00" fill="#268bd2">1 values</text>
</g>
<!-- y_test&#45;&gt;eval_model -->
<g id="edge3" class="edge">
<title>y_test&#45;&gt;eval_model</title>
<path fill="none" stroke="#002b36" d="M340.13,-245.73C327.2,-220.55 303.02,-173.46 287.48,-143.2"/>
<polygon fill="#002b36" stroke="#002b36" points="290.45,-141.32 282.77,-134.02 284.22,-144.52 290.45,-141.32"/>
<text text-anchor="middle" x="351" y="-213" font-family="RobotoMono" font-size="10.00" fill="#002b36">y_test</text>
<text text-anchor="middle" x="351" y="-202" font-family="RobotoMono" font-size="10.00" fill="#002b36">(1 values)</text>
</g>
<!-- generate_dataset&#45;&gt;X_train -->
<g id="edge7" class="edge">
<title>generate_dataset&#45;&gt;X_train</title>
<path fill="none" stroke="#002b36" d="M182.84,-512.64C159.7,-506.77 133.53,-498.67 111,-488 92.29,-479.14 73.27,-466.01 58.36,-454.58"/>
<polygon fill="#002b36" stroke="#002b36" points="60.12,-451.52 50.1,-448.1 55.8,-457.02 60.12,-451.52"/>
<text text-anchor="middle" x="133" y="-480" font-family="RobotoMono" font-size="10.00" fill="#002b36">output_0</text>
<text text-anchor="middle" x="133" y="-469" font-family="RobotoMono" font-size="10.00" fill="#002b36">(1 values)</text>
</g>
<!-- generate_dataset&#45;&gt;y_train -->
<g id="edge8" class="edge">
<title>generate_dataset&#45;&gt;y_train</title>
<path fill="none" stroke="#002b36" d="M216.48,-505.98C194.73,-490.95 164.3,-469.91 141.2,-453.95"/>
<polygon fill="#002b36" stroke="#002b36" points="142.95,-450.9 132.74,-448.1 138.97,-456.66 142.95,-450.9"/>
<text text-anchor="middle" x="210" y="-480" font-family="RobotoMono" font-size="10.00" fill="#002b36">output_2</text>
<text text-anchor="middle" x="210" y="-469" font-family="RobotoMono" font-size="10.00" fill="#002b36">(1 values)</text>
</g>
<!-- generate_dataset&#45;&gt;X_test -->
<g id="edge5" class="edge">
<title>generate_dataset&#45;&gt;X_test</title>
<path fill="none" stroke="#002b36" d="M251.18,-505.83C256.87,-490.33 264.86,-467.9 271,-448 275.45,-433.57 279.85,-417.31 283.29,-403.99"/>
<polygon fill="#002b36" stroke="#002b36" points="286.75,-404.59 285.83,-394.03 279.97,-402.86 286.75,-404.59"/>
<text text-anchor="middle" x="287" y="-480" font-family="RobotoMono" font-size="10.00" fill="#002b36">output_1</text>
<text text-anchor="middle" x="287" y="-469" font-family="RobotoMono" font-size="10.00" fill="#002b36">(1 values)</text>
</g>
<!-- generate_dataset&#45;&gt;y_test -->
<g id="edge6" class="edge">
<title>generate_dataset&#45;&gt;y_test</title>
<path fill="none" stroke="#002b36" d="M293.35,-505.96C300.9,-501.12 307.87,-495.19 313,-488 355.38,-428.56 355.16,-337.65 351.89,-292.47"/>
<polygon fill="#002b36" stroke="#002b36" points="355.35,-291.94 351.04,-282.27 348.38,-292.52 355.35,-291.94"/>
<text text-anchor="middle" x="366" y="-433" font-family="RobotoMono" font-size="10.00" fill="#002b36">output_3</text>
<text text-anchor="middle" x="366" y="-422" font-family="RobotoMono" font-size="10.00" fill="#002b36">(1 values)</text>
</g>
<!-- train_model&#45;&gt;model -->
<g id="edge10" class="edge">
<title>train_model&#45;&gt;model</title>
<path fill="none" stroke="#002b36" d="M168.47,-299.94C176.21,-282.53 187.72,-256.64 196.32,-237.27"/>
<polygon fill="#002b36" stroke="#002b36" points="199.54,-238.65 200.4,-228.09 193.14,-235.81 199.54,-238.65"/>
<text text-anchor="middle" x="213" y="-267" font-family="RobotoMono" font-size="10.00" fill="#002b36">output_0</text>
<text text-anchor="middle" x="213" y="-256" font-family="RobotoMono" font-size="10.00" fill="#002b36">(1 values)</text>
</g>
<!-- eval_model&#45;&gt;v -->
<g id="edge1" class="edge">
<title>eval_model&#45;&gt;v</title>
<path fill="none" stroke="#002b36" d="M273,-93.98C273,-80.34 273,-61.75 273,-46.5"/>
<polygon fill="#002b36" stroke="#002b36" points="276.5,-46.1 273,-36.1 269.5,-46.1 276.5,-46.1"/>
<text text-anchor="middle" x="295" y="-68" font-family="RobotoMono" font-size="10.00" fill="#002b36">output_0</text>
<text text-anchor="middle" x="295" y="-57" font-family="RobotoMono" font-size="10.00" fill="#002b36">(1 values)</text>
</g>
</g>
</svg>
