<?xml version="1.0" encoding="UTF-8" standalone="no"?>
<!DOCTYPE svg PUBLIC "-//W3C//DTD SVG 1.1//EN"
 "http://www.w3.org/Graphics/SVG/1.1/DTD/svg11.dtd">
<!-- Generated by graphviz version 2.50.0 (0)
 -->
<!-- Title: G Pages: 1 -->
<svg width="344pt" height="428pt"
 viewBox="0.00 0.00 344.00 428.00" xmlns="http://www.w3.org/2000/svg" xmlns:xlink="http://www.w3.org/1999/xlink">
<g id="graph0" class="graph" transform="scale(1 1) rotate(0) translate(4 424)">
<title>G</title>
<polygon fill="white" stroke="transparent" points="-4,4 -4,-424 340,-424 340,4 -4,4"/>
<!-- random_seed -->
<g id="node1" class="node">
<title>random_seed</title>
<path fill="none" stroke="#268bd2" d="M102,-420C102,-420 20,-420 20,-420 14,-420 8,-414 8,-408 8,-408 8,-396 8,-396 8,-390 14,-384 20,-384 20,-384 102,-384 102,-384 108,-384 114,-390 114,-396 114,-396 114,-408 114,-408 114,-414 108,-420 102,-420"/>
<text text-anchor="start" x="20.5" y="-404.4" font-family="RobotoMono" font-weight="bold" font-size="12.00" fill="#002b36">random_seed</text>
<text text-anchor="start" x="16" y="-394" font-family="RobotoMono" font-size="10.00" fill="#268bd2">1 values (1 sources)</text>
</g>
<!-- generate_dataset -->
<g id="node6" class="node">
<title>generate_dataset</title>
<path fill="none" stroke="#dc322f" d="M110,-326C110,-326 12,-326 12,-326 6,-326 0,-320 0,-314 0,-314 0,-298 0,-298 0,-292 6,-286 12,-286 12,-286 110,-286 110,-286 116,-286 122,-292 122,-298 122,-298 122,-314 122,-314 122,-320 116,-326 110,-326"/>
<text text-anchor="start" x="8" y="-313.4" font-family="RobotoMono" font-weight="bold" font-size="12.00" fill="#002b36">generate_dataset</text>
<text text-anchor="start" x="8" y="-303" font-family="RobotoMono" font-size="10.00" fill="#002b36">@op:generate_dataset</text>
<text text-anchor="start" x="47" y="-293" font-family="RobotoMono" font-size="10.00" fill="#dc322f">1 calls</text>
</g>
<!-- random_seed&#45;&gt;generate_dataset -->
<g id="edge6" class="edge">
<title>random_seed&#45;&gt;generate_dataset</title>
<path fill="none" stroke="#002b36" d="M61,-383.76C61,-370.5 61,-351.86 61,-336.27"/>
<polygon fill="#002b36" stroke="#002b36" points="64.5,-336.07 61,-326.07 57.5,-336.07 64.5,-336.07"/>
<text text-anchor="middle" x="93" y="-358" font-family="RobotoMono" font-size="10.00" fill="#002b36">random_seed</text>
<text text-anchor="middle" x="93" y="-347" font-family="RobotoMono" font-size="10.00" fill="#002b36">(1 values)</text>
</g>
<!-- v -->
<g id="node2" class="node">
<title>v</title>
<path fill="none" stroke="#268bd2" d="M193.5,-36C193.5,-36 124.5,-36 124.5,-36 118.5,-36 112.5,-30 112.5,-24 112.5,-24 112.5,-12 112.5,-12 112.5,-6 118.5,0 124.5,0 124.5,0 193.5,0 193.5,0 199.5,0 205.5,-6 205.5,-12 205.5,-12 205.5,-24 205.5,-24 205.5,-30 199.5,-36 193.5,-36"/>
<text text-anchor="start" x="155.5" y="-20.4" font-family="RobotoMono" font-weight="bold" font-size="12.00" fill="#002b36">v</text>
<text text-anchor="start" x="120.5" y="-10" font-family="RobotoMono" font-size="10.00" fill="#268bd2">1 values (1 sinks)</text>
</g>
<!-- model -->
<g id="node3" class="node">
<title>model</title>
<path fill="none" stroke="#268bd2" d="M200,-228C200,-228 118,-228 118,-228 112,-228 106,-222 106,-216 106,-216 106,-204 106,-204 106,-198 112,-192 118,-192 118,-192 200,-192 200,-192 206,-192 212,-198 212,-204 212,-204 212,-216 212,-216 212,-222 206,-228 200,-228"/>
<text text-anchor="start" x="140" y="-212.4" font-family="RobotoMono" font-weight="bold" font-size="12.00" fill="#002b36">model</text>
<text text-anchor="start" x="114" y="-202" font-family="RobotoMono" font-size="10.00" fill="#268bd2">1 values (1 sources)</text>
</g>
<!-- eval_model -->
<g id="node7" class="node">
<title>eval_model</title>
<path fill="none" stroke="#dc322f" d="M193,-134C193,-134 125,-134 125,-134 119,-134 113,-128 113,-122 113,-122 113,-106 113,-106 113,-100 119,-94 125,-94 125,-94 193,-94 193,-94 199,-94 205,-100 205,-106 205,-106 205,-122 205,-122 205,-128 199,-134 193,-134"/>
<text text-anchor="start" x="125" y="-121.4" font-family="RobotoMono" font-weight="bold" font-size="12.00" fill="#002b36">eval_model</text>
<text text-anchor="start" x="121" y="-111" font-family="RobotoMono" font-size="10.00" fill="#002b36">@op:eval_model</text>
<text text-anchor="start" x="145" y="-101" font-family="RobotoMono" font-size="10.00" fill="#dc322f">1 calls</text>
</g>
<!-- model&#45;&gt;eval_model -->
<g id="edge4" class="edge">
<title>model&#45;&gt;eval_model</title>
<path fill="none" stroke="#002b36" d="M159,-191.76C159,-178.5 159,-159.86 159,-144.27"/>
<polygon fill="#002b36" stroke="#002b36" points="162.5,-144.07 159,-134.07 155.5,-144.07 162.5,-144.07"/>
<text text-anchor="middle" x="181" y="-166" font-family="RobotoMono" font-size="10.00" fill="#002b36">model</text>
<text text-anchor="middle" x="181" y="-155" font-family="RobotoMono" font-size="10.00" fill="#002b36">(1 values)</text>
</g>
<!-- y_test -->
<g id="node4" class="node">
<title>y_test</title>
<path fill="none" stroke="#268bd2" d="M324,-228C324,-228 242,-228 242,-228 236,-228 230,-222 230,-216 230,-216 230,-204 230,-204 230,-198 236,-192 242,-192 242,-192 324,-192 324,-192 330,-192 336,-198 336,-204 336,-204 336,-216 336,-216 336,-222 330,-228 324,-228"/>
<text text-anchor="start" x="265" y="-212.4" font-family="RobotoMono" font-weight="bold" font-size="12.00" fill="#002b36">y_test</text>
<text text-anchor="start" x="238" y="-202" font-family="RobotoMono" font-size="10.00" fill="#268bd2">1 values (1 sources)</text>
</g>
<!-- y_test&#45;&gt;eval_model -->
<g id="edge2" class="edge">
<title>y_test&#45;&gt;eval_model</title>
<path fill="none" stroke="#002b36" d="M260.54,-191.98C241.57,-177.59 214.11,-156.78 192.53,-140.42"/>
<polygon fill="#002b36" stroke="#002b36" points="194.36,-137.41 184.28,-134.16 190.13,-142.99 194.36,-137.41"/>
<text text-anchor="middle" x="257" y="-166" font-family="RobotoMono" font-size="10.00" fill="#002b36">y_test</text>
<text text-anchor="middle" x="257" y="-155" font-family="RobotoMono" font-size="10.00" fill="#002b36">(1 values)</text>
</g>
<!-- X_test -->
<g id="node5" class="node">
<title>X_test</title>
<path fill="none" stroke="#268bd2" d="M76,-228C76,-228 46,-228 46,-228 40,-228 34,-222 34,-216 34,-216 34,-204 34,-204 34,-198 40,-192 46,-192 46,-192 76,-192 76,-192 82,-192 88,-198 88,-204 88,-204 88,-216 88,-216 88,-222 82,-228 76,-228"/>
<text text-anchor="start" x="42.5" y="-212.4" font-family="RobotoMono" font-weight="bold" font-size="12.00" fill="#002b36">X_test</text>
<text text-anchor="start" x="42" y="-202" font-family="RobotoMono" font-size="10.00" fill="#268bd2">1 values</text>
</g>
<!-- X_test&#45;&gt;eval_model -->
<g id="edge3" class="edge">
<title>X_test&#45;&gt;eval_model</title>
<path fill="none" stroke="#002b36" d="M74.63,-191.76C84.26,-180.02 97.75,-164.43 111,-152 115.12,-148.13 119.63,-144.25 124.18,-140.54"/>
<polygon fill="#002b36" stroke="#002b36" points="126.67,-143.04 132.34,-134.09 122.33,-137.55 126.67,-143.04"/>
<text text-anchor="middle" x="133" y="-166" font-family="RobotoMono" font-size="10.00" fill="#002b36">X_test</text>
<text text-anchor="middle" x="133" y="-155" font-family="RobotoMono" font-size="10.00" fill="#002b36">(1 values)</text>
</g>
<!-- generate_dataset&#45;&gt;X_test -->
<g id="edge5" class="edge">
<title>generate_dataset&#45;&gt;X_test</title>
<path fill="none" stroke="#002b36" d="M61,-285.98C61,-272.34 61,-253.75 61,-238.5"/>
<polygon fill="#002b36" stroke="#002b36" points="64.5,-238.1 61,-228.1 57.5,-238.1 64.5,-238.1"/>
<text text-anchor="middle" x="83" y="-260" font-family="RobotoMono" font-size="10.00" fill="#002b36">output_1</text>
<text text-anchor="middle" x="83" y="-249" font-family="RobotoMono" font-size="10.00" fill="#002b36">(1 values)</text>
</g>
<!-- eval_model&#45;&gt;v -->
<g id="edge1" class="edge">
<title>eval_model&#45;&gt;v</title>
<path fill="none" stroke="#002b36" d="M159,-93.98C159,-80.34 159,-61.75 159,-46.5"/>
<polygon fill="#002b36" stroke="#002b36" points="162.5,-46.1 159,-36.1 155.5,-46.1 162.5,-46.1"/>
<text text-anchor="middle" x="181" y="-68" font-family="RobotoMono" font-size="10.00" fill="#002b36">output_0</text>
<text text-anchor="middle" x="181" y="-57" font-family="RobotoMono" font-size="10.00" fill="#002b36">(1 values)</text>
</g>
</g>
</svg>
