<?xml version="1.0" encoding="UTF-8" standalone="no"?>
<!DOCTYPE svg PUBLIC "-//W3C//DTD SVG 1.1//EN"
 "http://www.w3.org/Graphics/SVG/1.1/DTD/svg11.dtd">
<!-- Generated by graphviz version 2.50.0 (0)
 -->
<!-- Title: G Pages: 1 -->
<svg width="486pt" height="428pt"
 viewBox="0.00 0.00 486.00 428.00" xmlns="http://www.w3.org/2000/svg" xmlns:xlink="http://www.w3.org/1999/xlink">
<g id="graph0" class="graph" transform="scale(1 1) rotate(0) translate(4 424)">
<title>G</title>
<polygon fill="white" stroke="transparent" points="-4,4 -4,-424 482,-424 482,4 -4,4"/>
<!-- random_seed -->
<g id="node1" class="node">
<title>random_seed</title>
<path fill="none" stroke="#268bd2" d="M94,-420C94,-420 12,-420 12,-420 6,-420 0,-414 0,-408 0,-408 0,-396 0,-396 0,-390 6,-384 12,-384 12,-384 94,-384 94,-384 100,-384 106,-390 106,-396 106,-396 106,-408 106,-408 106,-414 100,-420 94,-420"/>
<text text-anchor="start" x="12.5" y="-404.4" font-family="RobotoMono" font-weight="bold" font-size="12.00" fill="#002b36">random_seed</text>
<text text-anchor="start" x="8" y="-394" font-family="RobotoMono" font-size="10.00" fill="#268bd2">1 values (1 sources)</text>
</g>
<!-- generate_dataset -->
<g id="node9" class="node">
<title>generate_dataset</title>
<path fill="none" stroke="#dc322f" d="M162,-326C162,-326 64,-326 64,-326 58,-326 52,-320 52,-314 52,-314 52,-298 52,-298 52,-292 58,-286 64,-286 64,-286 162,-286 162,-286 168,-286 174,-292 174,-298 174,-298 174,-314 174,-314 174,-320 168,-326 162,-326"/>
<text text-anchor="start" x="60" y="-313.4" font-family="RobotoMono" font-weight="bold" font-size="12.00" fill="#002b36">generate_dataset</text>
<text text-anchor="start" x="60" y="-303" font-family="RobotoMono" font-size="10.00" fill="#002b36">@op:generate_dataset</text>
<text text-anchor="start" x="99" y="-293" font-family="RobotoMono" font-size="10.00" fill="#dc322f">1 calls</text>
</g>
<!-- random_seed&#45;&gt;generate_dataset -->
<g id="edge6" class="edge">
<title>random_seed&#45;&gt;generate_dataset</title>
<path fill="none" stroke="#002b36" d="M64,-383.76C72.72,-370.11 85.06,-350.78 95.17,-334.93"/>
<polygon fill="#002b36" stroke="#002b36" points="98.4,-336.38 100.83,-326.07 92.5,-332.62 98.4,-336.38"/>
<text text-anchor="middle" x="121" y="-358" font-family="RobotoMono" font-size="10.00" fill="#002b36">random_seed</text>
<text text-anchor="middle" x="121" y="-347" font-family="RobotoMono" font-size="10.00" fill="#002b36">(1 values)</text>
</g>
<!-- v -->
<g id="node2" class="node">
<title>v</title>
<path fill="none" stroke="#268bd2" d="M282.5,-36C282.5,-36 213.5,-36 213.5,-36 207.5,-36 201.5,-30 201.5,-24 201.5,-24 201.5,-12 201.5,-12 201.5,-6 207.5,0 213.5,0 213.5,0 282.5,0 282.5,0 288.5,0 294.5,-6 294.5,-12 294.5,-12 294.5,-24 294.5,-24 294.5,-30 288.5,-36 282.5,-36"/>
<text text-anchor="start" x="244.5" y="-20.4" font-family="RobotoMono" font-weight="bold" font-size="12.00" fill="#002b36">v</text>
<text text-anchor="start" x="209.5" y="-10" font-family="RobotoMono" font-size="10.00" fill="#268bd2">1 values (1 sinks)</text>
</g>
<!-- X_train -->
<g id="node3" class="node">
<title>X_train</title>
<path fill="none" stroke="#268bd2" d="M218,-420C218,-420 136,-420 136,-420 130,-420 124,-414 124,-408 124,-408 124,-396 124,-396 124,-390 130,-384 136,-384 136,-384 218,-384 218,-384 224,-384 230,-390 230,-396 230,-396 230,-408 230,-408 230,-414 224,-420 218,-420"/>
<text text-anchor="start" x="155" y="-404.4" font-family="RobotoMono" font-weight="bold" font-size="12.00" fill="#002b36">X_train</text>
<text text-anchor="start" x="132" y="-394" font-family="RobotoMono" font-size="10.00" fill="#268bd2">1 values (1 sources)</text>
</g>
<!-- train_model -->
<g id="node11" class="node">
<title>train_model</title>
<path fill="none" stroke="#dc322f" d="M305.5,-326C305.5,-326 234.5,-326 234.5,-326 228.5,-326 222.5,-320 222.5,-314 222.5,-314 222.5,-298 222.5,-298 222.5,-292 228.5,-286 234.5,-286 234.5,-286 305.5,-286 305.5,-286 311.5,-286 317.5,-292 317.5,-298 317.5,-298 317.5,-314 317.5,-314 317.5,-320 311.5,-326 305.5,-326"/>
<text text-anchor="start" x="233.5" y="-313.4" font-family="RobotoMono" font-weight="bold" font-size="12.00" fill="#002b36">train_model</text>
<text text-anchor="start" x="230.5" y="-303" font-family="RobotoMono" font-size="10.00" fill="#002b36">@op:train_model</text>
<text text-anchor="start" x="256" y="-293" font-family="RobotoMono" font-size="10.00" fill="#dc322f">1 calls</text>
</g>
<!-- X_train&#45;&gt;train_model -->
<g id="edge9" class="edge">
<title>X_train&#45;&gt;train_model</title>
<path fill="none" stroke="#002b36" d="M194.06,-383.76C207.94,-369.73 227.76,-349.69 243.68,-333.61"/>
<polygon fill="#002b36" stroke="#002b36" points="246.59,-335.64 251.13,-326.07 241.61,-330.72 246.59,-335.64"/>
<text text-anchor="middle" x="253" y="-358" font-family="RobotoMono" font-size="10.00" fill="#002b36">X_train</text>
<text text-anchor="middle" x="253" y="-347" font-family="RobotoMono" font-size="10.00" fill="#002b36">(1 values)</text>
</g>
<!-- n_estimators -->
<g id="node4" class="node">
<title>n_estimators</title>
<path fill="none" stroke="#268bd2" d="M342,-420C342,-420 260,-420 260,-420 254,-420 248,-414 248,-408 248,-408 248,-396 248,-396 248,-390 254,-384 260,-384 260,-384 342,-384 342,-384 348,-384 354,-390 354,-396 354,-396 354,-408 354,-408 354,-414 348,-420 342,-420"/>
<text text-anchor="start" x="261.5" y="-404.4" font-family="RobotoMono" font-weight="bold" font-size="12.00" fill="#002b36">n_estimators</text>
<text text-anchor="start" x="256" y="-394" font-family="RobotoMono" font-size="10.00" fill="#268bd2">1 values (1 sources)</text>
</g>
<!-- n_estimators&#45;&gt;train_model -->
<g id="edge8" class="edge">
<title>n_estimators&#45;&gt;train_model</title>
<path fill="none" stroke="#002b36" d="M295.31,-383.76C290.9,-370.37 284.68,-351.5 279.51,-335.82"/>
<polygon fill="#002b36" stroke="#002b36" points="282.75,-334.47 276.29,-326.07 276.1,-336.66 282.75,-334.47"/>
<text text-anchor="middle" x="319.5" y="-358" font-family="RobotoMono" font-size="10.00" fill="#002b36">n_estimators</text>
<text text-anchor="middle" x="319.5" y="-347" font-family="RobotoMono" font-size="10.00" fill="#002b36">(1 values)</text>
</g>
<!-- X_test -->
<g id="node5" class="node">
<title>X_test</title>
<path fill="none" stroke="#268bd2" d="M169,-228C169,-228 139,-228 139,-228 133,-228 127,-222 127,-216 127,-216 127,-204 127,-204 127,-198 133,-192 139,-192 139,-192 169,-192 169,-192 175,-192 181,-198 181,-204 181,-204 181,-216 181,-216 181,-222 175,-228 169,-228"/>
<text text-anchor="start" x="135.5" y="-212.4" font-family="RobotoMono" font-weight="bold" font-size="12.00" fill="#002b36">X_test</text>
<text text-anchor="start" x="135" y="-202" font-family="RobotoMono" font-size="10.00" fill="#268bd2">1 values</text>
</g>
<!-- eval_model -->
<g id="node10" class="node">
<title>eval_model</title>
<path fill="none" stroke="#dc322f" d="M282,-134C282,-134 214,-134 214,-134 208,-134 202,-128 202,-122 202,-122 202,-106 202,-106 202,-100 208,-94 214,-94 214,-94 282,-94 282,-94 288,-94 294,-100 294,-106 294,-106 294,-122 294,-122 294,-128 288,-134 282,-134"/>
<text text-anchor="start" x="214" y="-121.4" font-family="RobotoMono" font-weight="bold" font-size="12.00" fill="#002b36">eval_model</text>
<text text-anchor="start" x="210" y="-111" font-family="RobotoMono" font-size="10.00" fill="#002b36">@op:eval_model</text>
<text text-anchor="start" x="234" y="-101" font-family="RobotoMono" font-size="10.00" fill="#dc322f">1 calls</text>
</g>
<!-- X_test&#45;&gt;eval_model -->
<g id="edge4" class="edge">
<title>X_test&#45;&gt;eval_model</title>
<path fill="none" stroke="#002b36" d="M166.12,-191.91C174.89,-180.1 187.36,-164.36 200,-152 204,-148.09 208.4,-144.21 212.87,-140.52"/>
<polygon fill="#002b36" stroke="#002b36" points="215.28,-143.07 220.92,-134.1 210.92,-137.6 215.28,-143.07"/>
<text text-anchor="middle" x="222" y="-166" font-family="RobotoMono" font-size="10.00" fill="#002b36">X_test</text>
<text text-anchor="middle" x="222" y="-155" font-family="RobotoMono" font-size="10.00" fill="#002b36">(1 values)</text>
</g>
<!-- model -->
<g id="node6" class="node">
<title>model</title>
<path fill="none" stroke="#268bd2" d="M263,-228C263,-228 233,-228 233,-228 227,-228 221,-222 221,-216 221,-216 221,-204 221,-204 221,-198 227,-192 233,-192 233,-192 263,-192 263,-192 269,-192 275,-198 275,-204 275,-204 275,-216 275,-216 275,-222 269,-228 263,-228"/>
<text text-anchor="start" x="229" y="-212.4" font-family="RobotoMono" font-weight="bold" font-size="12.00" fill="#002b36">model</text>
<text text-anchor="start" x="229" y="-202" font-family="RobotoMono" font-size="10.00" fill="#268bd2">1 values</text>
</g>
<!-- model&#45;&gt;eval_model -->
<g id="edge2" class="edge">
<title>model&#45;&gt;eval_model</title>
<path fill="none" stroke="#002b36" d="M248,-191.76C248,-178.5 248,-159.86 248,-144.27"/>
<polygon fill="#002b36" stroke="#002b36" points="251.5,-144.07 248,-134.07 244.5,-144.07 251.5,-144.07"/>
<text text-anchor="middle" x="270" y="-166" font-family="RobotoMono" font-size="10.00" fill="#002b36">model</text>
<text text-anchor="middle" x="270" y="-155" font-family="RobotoMono" font-size="10.00" fill="#002b36">(1 values)</text>
</g>
<!-- y_train -->
<g id="node7" class="node">
<title>y_train</title>
<path fill="none" stroke="#268bd2" d="M466,-420C466,-420 384,-420 384,-420 378,-420 372,-414 372,-408 372,-408 372,-396 372,-396 372,-390 378,-384 384,-384 384,-384 466,-384 466,-384 472,-384 478,-390 478,-396 478,-396 478,-408 478,-408 478,-414 472,-420 466,-420"/>
<text text-anchor="start" x="403.5" y="-404.4" font-family="RobotoMono" font-weight="bold" font-size="12.00" fill="#002b36">y_train</text>
<text text-anchor="start" x="380" y="-394" font-family="RobotoMono" font-size="10.00" fill="#268bd2">1 values (1 sources)</text>
</g>
<!-- y_train&#45;&gt;train_model -->
<g id="edge10" class="edge">
<title>y_train&#45;&gt;train_model</title>
<path fill="none" stroke="#002b36" d="M406.42,-383.83C392.65,-371.68 373.05,-355.57 354,-344 345.52,-338.85 336.2,-334.02 326.94,-329.65"/>
<polygon fill="#002b36" stroke="#002b36" points="328.3,-326.42 317.75,-325.45 325.39,-332.79 328.3,-326.42"/>
<text text-anchor="middle" x="406" y="-358" font-family="RobotoMono" font-size="10.00" fill="#002b36">y_train</text>
<text text-anchor="middle" x="406" y="-347" font-family="RobotoMono" font-size="10.00" fill="#002b36">(1 values)</text>
</g>
<!-- y_test -->
<g id="node8" class="node">
<title>y_test</title>
<path fill="none" stroke="#268bd2" d="M387,-228C387,-228 305,-228 305,-228 299,-228 293,-222 293,-216 293,-216 293,-204 293,-204 293,-198 299,-192 305,-192 305,-192 387,-192 387,-192 393,-192 399,-198 399,-204 399,-204 399,-216 399,-216 399,-222 393,-228 387,-228"/>
<text text-anchor="start" x="328" y="-212.4" font-family="RobotoMono" font-weight="bold" font-size="12.00" fill="#002b36">y_test</text>
<text text-anchor="start" x="301" y="-202" font-family="RobotoMono" font-size="10.00" fill="#268bd2">1 values (1 sources)</text>
</g>
<!-- y_test&#45;&gt;eval_model -->
<g id="edge3" class="edge">
<title>y_test&#45;&gt;eval_model</title>
<path fill="none" stroke="#002b36" d="M332.37,-191.76C322.74,-180.02 309.25,-164.43 296,-152 291.88,-148.13 287.37,-144.25 282.82,-140.54"/>
<polygon fill="#002b36" stroke="#002b36" points="284.67,-137.55 274.66,-134.09 280.33,-143.04 284.67,-137.55"/>
<text text-anchor="middle" x="338" y="-166" font-family="RobotoMono" font-size="10.00" fill="#002b36">y_test</text>
<text text-anchor="middle" x="338" y="-155" font-family="RobotoMono" font-size="10.00" fill="#002b36">(1 values)</text>
</g>
<!-- generate_dataset&#45;&gt;X_test -->
<g id="edge5" class="edge">
<title>generate_dataset&#45;&gt;X_test</title>
<path fill="none" stroke="#002b36" d="M121.3,-285.98C127.36,-272.07 135.67,-253.03 142.39,-237.61"/>
<polygon fill="#002b36" stroke="#002b36" points="145.75,-238.66 146.54,-228.1 139.34,-235.86 145.75,-238.66"/>
<text text-anchor="middle" x="161" y="-260" font-family="RobotoMono" font-size="10.00" fill="#002b36">output_1</text>
<text text-anchor="middle" x="161" y="-249" font-family="RobotoMono" font-size="10.00" fill="#002b36">(1 values)</text>
</g>
<!-- eval_model&#45;&gt;v -->
<g id="edge1" class="edge">
<title>eval_model&#45;&gt;v</title>
<path fill="none" stroke="#002b36" d="M248,-93.98C248,-80.34 248,-61.75 248,-46.5"/>
<polygon fill="#002b36" stroke="#002b36" points="251.5,-46.1 248,-36.1 244.5,-46.1 251.5,-46.1"/>
<text text-anchor="middle" x="270" y="-68" font-family="RobotoMono" font-size="10.00" fill="#002b36">output_0</text>
<text text-anchor="middle" x="270" y="-57" font-family="RobotoMono" font-size="10.00" fill="#002b36">(1 values)</text>
</g>
<!-- train_model&#45;&gt;model -->
<g id="edge7" class="edge">
<title>train_model&#45;&gt;model</title>
<path fill="none" stroke="#002b36" d="M265.55,-285.98C262.32,-272.2 257.92,-253.39 254.33,-238.05"/>
<polygon fill="#002b36" stroke="#002b36" points="257.69,-237.04 252,-228.1 250.87,-238.63 257.69,-237.04"/>
<text text-anchor="middle" x="282" y="-260" font-family="RobotoMono" font-size="10.00" fill="#002b36">output_0</text>
<text text-anchor="middle" x="282" y="-249" font-family="RobotoMono" font-size="10.00" fill="#002b36">(1 values)</text>
</g>
</g>
</svg>
