<?xml version="1.0" encoding="UTF-8" standalone="no"?>
<!DOCTYPE svg PUBLIC "-//W3C//DTD SVG 1.1//EN"
 "http://www.w3.org/Graphics/SVG/1.1/DTD/svg11.dtd">
<!-- Generated by graphviz version 2.50.0 (0)
 -->
<!-- Title: G Pages: 1 -->
<svg width="372pt" height="634pt"
 viewBox="0.00 0.00 372.00 634.00" xmlns="http://www.w3.org/2000/svg" xmlns:xlink="http://www.w3.org/1999/xlink">
<g id="graph0" class="graph" transform="scale(1 1) rotate(0) translate(4 630)">
<title>G</title>
<polygon fill="white" stroke="transparent" points="-4,4 -4,-630 368,-630 368,4 -4,4"/>
<!-- random_seed -->
<g id="node1" class="node">
<title>random_seed</title>
<path fill="none" stroke="#268bd2" d="M102,-626C102,-626 20,-626 20,-626 14,-626 8,-620 8,-614 8,-614 8,-602 8,-602 8,-596 14,-590 20,-590 20,-590 102,-590 102,-590 108,-590 114,-596 114,-602 114,-602 114,-614 114,-614 114,-620 108,-626 102,-626"/>
<text text-anchor="start" x="20.5" y="-610.4" font-family="RobotoMono" font-weight="bold" font-size="12.00" fill="#002b36">random_seed</text>
<text text-anchor="start" x="16" y="-600" font-family="RobotoMono" font-size="10.00" fill="#268bd2">1 values (1 sources)</text>
</g>
<!-- generate_dataset -->
<g id="node9" class="node">
<title>generate_dataset</title>
<path fill="none" stroke="#dc322f" d="M110,-532C110,-532 12,-532 12,-532 6,-532 0,-526 0,-520 0,-520 0,-504 0,-504 0,-498 6,-492 12,-492 12,-492 110,-492 110,-492 116,-492 122,-498 122,-504 122,-504 122,-520 122,-520 122,-526 116,-532 110,-532"/>
<text text-anchor="start" x="8" y="-519.4" font-family="RobotoMono" font-weight="bold" font-size="12.00" fill="#002b36">generate_dataset</text>
<text text-anchor="start" x="8" y="-509" font-family="RobotoMono" font-size="10.00" fill="#002b36">@op:generate_dataset</text>
<text text-anchor="start" x="47" y="-499" font-family="RobotoMono" font-size="10.00" fill="#dc322f">1 calls</text>
</g>
<!-- random_seed&#45;&gt;generate_dataset -->
<g id="edge7" class="edge">
<title>random_seed&#45;&gt;generate_dataset</title>
<path fill="none" stroke="#002b36" d="M61,-589.76C61,-576.5 61,-557.86 61,-542.27"/>
<polygon fill="#002b36" stroke="#002b36" points="64.5,-542.07 61,-532.07 57.5,-542.07 64.5,-542.07"/>
<text text-anchor="middle" x="93" y="-564" font-family="RobotoMono" font-size="10.00" fill="#002b36">random_seed</text>
<text text-anchor="middle" x="93" y="-553" font-family="RobotoMono" font-size="10.00" fill="#002b36">(1 values)</text>
</g>
<!-- v -->
<g id="node2" class="node">
<title>v</title>
<path fill="none" stroke="#268bd2" d="M198.5,-36C198.5,-36 129.5,-36 129.5,-36 123.5,-36 117.5,-30 117.5,-24 117.5,-24 117.5,-12 117.5,-12 117.5,-6 123.5,0 129.5,0 129.5,0 198.5,0 198.5,0 204.5,0 210.5,-6 210.5,-12 210.5,-12 210.5,-24 210.5,-24 210.5,-30 204.5,-36 198.5,-36"/>
<text text-anchor="start" x="160.5" y="-20.4" font-family="RobotoMono" font-weight="bold" font-size="12.00" fill="#002b36">v</text>
<text text-anchor="start" x="125.5" y="-10" font-family="RobotoMono" font-size="10.00" fill="#268bd2">1 values (1 sinks)</text>
</g>
<!-- X_train -->
<g id="node3" class="node">
<title>X_train</title>
<path fill="none" stroke="#268bd2" d="M352,-434C352,-434 316,-434 316,-434 310,-434 304,-428 304,-422 304,-422 304,-410 304,-410 304,-404 310,-398 316,-398 316,-398 352,-398 352,-398 358,-398 364,-404 364,-410 364,-410 364,-422 364,-422 364,-428 358,-434 352,-434"/>
<text text-anchor="start" x="312" y="-418.4" font-family="RobotoMono" font-weight="bold" font-size="12.00" fill="#002b36">X_train</text>
<text text-anchor="start" x="315" y="-408" font-family="RobotoMono" font-size="10.00" fill="#268bd2">1 values</text>
</g>
<!-- train_model -->
<g id="node11" class="node">
<title>train_model</title>
<path fill="none" stroke="#dc322f" d="M236.5,-326C236.5,-326 165.5,-326 165.5,-326 159.5,-326 153.5,-320 153.5,-314 153.5,-314 153.5,-298 153.5,-298 153.5,-292 159.5,-286 165.5,-286 165.5,-286 236.5,-286 236.5,-286 242.5,-286 248.5,-292 248.5,-298 248.5,-298 248.5,-314 248.5,-314 248.5,-320 242.5,-326 236.5,-326"/>
<text text-anchor="start" x="164.5" y="-313.4" font-family="RobotoMono" font-weight="bold" font-size="12.00" fill="#002b36">train_model</text>
<text text-anchor="start" x="161.5" y="-303" font-family="RobotoMono" font-size="10.00" fill="#002b36">@op:train_model</text>
<text text-anchor="start" x="187" y="-293" font-family="RobotoMono" font-size="10.00" fill="#dc322f">1 calls</text>
</g>
<!-- X_train&#45;&gt;train_model -->
<g id="edge10" class="edge">
<title>X_train&#45;&gt;train_model</title>
<path fill="none" stroke="#002b36" d="M320.92,-397.72C308.67,-382.33 289.27,-359.86 269,-344 263.18,-339.45 256.72,-335.14 250.17,-331.19"/>
<polygon fill="#002b36" stroke="#002b36" points="251.63,-327.99 241.22,-326.02 248.13,-334.05 251.63,-327.99"/>
<text text-anchor="middle" x="326" y="-365" font-family="RobotoMono" font-size="10.00" fill="#002b36">X_train</text>
<text text-anchor="middle" x="326" y="-354" font-family="RobotoMono" font-size="10.00" fill="#002b36">(1 values)</text>
</g>
<!-- n_estimators -->
<g id="node4" class="node">
<title>n_estimators</title>
<path fill="none" stroke="#268bd2" d="M150,-434C150,-434 68,-434 68,-434 62,-434 56,-428 56,-422 56,-422 56,-410 56,-410 56,-404 62,-398 68,-398 68,-398 150,-398 150,-398 156,-398 162,-404 162,-410 162,-410 162,-422 162,-422 162,-428 156,-434 150,-434"/>
<text text-anchor="start" x="69.5" y="-418.4" font-family="RobotoMono" font-weight="bold" font-size="12.00" fill="#002b36">n_estimators</text>
<text text-anchor="start" x="64" y="-408" font-family="RobotoMono" font-size="10.00" fill="#268bd2">1 values (1 sources)</text>
</g>
<!-- n_estimators&#45;&gt;train_model -->
<g id="edge9" class="edge">
<title>n_estimators&#45;&gt;train_model</title>
<path fill="none" stroke="#002b36" d="M115.45,-397.8C121.8,-382.47 132.63,-360.03 147,-344 150.75,-339.82 155.05,-335.88 159.57,-332.24"/>
<polygon fill="#002b36" stroke="#002b36" points="161.96,-334.82 167.85,-326.02 157.75,-329.23 161.96,-334.82"/>
<text text-anchor="middle" x="177.5" y="-365" font-family="RobotoMono" font-size="10.00" fill="#002b36">n_estimators</text>
<text text-anchor="middle" x="177.5" y="-354" font-family="RobotoMono" font-size="10.00" fill="#002b36">(1 values)</text>
</g>
<!-- X_test -->
<g id="node5" class="node">
<title>X_test</title>
<path fill="none" stroke="#268bd2" d="M59,-380C59,-380 29,-380 29,-380 23,-380 17,-374 17,-368 17,-368 17,-356 17,-356 17,-350 23,-344 29,-344 29,-344 59,-344 59,-344 65,-344 71,-350 71,-356 71,-356 71,-368 71,-368 71,-374 65,-380 59,-380"/>
<text text-anchor="start" x="25.5" y="-364.4" font-family="RobotoMono" font-weight="bold" font-size="12.00" fill="#002b36">X_test</text>
<text text-anchor="start" x="25" y="-354" font-family="RobotoMono" font-size="10.00" fill="#268bd2">1 values</text>
</g>
<!-- eval_model -->
<g id="node10" class="node">
<title>eval_model</title>
<path fill="none" stroke="#dc322f" d="M198,-134C198,-134 130,-134 130,-134 124,-134 118,-128 118,-122 118,-122 118,-106 118,-106 118,-100 124,-94 130,-94 130,-94 198,-94 198,-94 204,-94 210,-100 210,-106 210,-106 210,-122 210,-122 210,-128 204,-134 198,-134"/>
<text text-anchor="start" x="130" y="-121.4" font-family="RobotoMono" font-weight="bold" font-size="12.00" fill="#002b36">eval_model</text>
<text text-anchor="start" x="126" y="-111" font-family="RobotoMono" font-size="10.00" fill="#002b36">@op:eval_model</text>
<text text-anchor="start" x="150" y="-101" font-family="RobotoMono" font-size="10.00" fill="#dc322f">1 calls</text>
</g>
<!-- X_test&#45;&gt;eval_model -->
<g id="edge4" class="edge">
<title>X_test&#45;&gt;eval_model</title>
<path fill="none" stroke="#002b36" d="M52.44,-343.7C72.84,-301.89 124.99,-194.98 150.09,-143.52"/>
<polygon fill="#002b36" stroke="#002b36" points="153.35,-144.82 154.59,-134.29 147.06,-141.75 153.35,-144.82"/>
<text text-anchor="middle" x="122" y="-260" font-family="RobotoMono" font-size="10.00" fill="#002b36">X_test</text>
<text text-anchor="middle" x="122" y="-249" font-family="RobotoMono" font-size="10.00" fill="#002b36">(1 values)</text>
</g>
<!-- model -->
<g id="node6" class="node">
<title>model</title>
<path fill="none" stroke="#268bd2" d="M179,-228C179,-228 149,-228 149,-228 143,-228 137,-222 137,-216 137,-216 137,-204 137,-204 137,-198 143,-192 149,-192 149,-192 179,-192 179,-192 185,-192 191,-198 191,-204 191,-204 191,-216 191,-216 191,-222 185,-228 179,-228"/>
<text text-anchor="start" x="145" y="-212.4" font-family="RobotoMono" font-weight="bold" font-size="12.00" fill="#002b36">model</text>
<text text-anchor="start" x="145" y="-202" font-family="RobotoMono" font-size="10.00" fill="#268bd2">1 values</text>
</g>
<!-- model&#45;&gt;eval_model -->
<g id="edge2" class="edge">
<title>model&#45;&gt;eval_model</title>
<path fill="none" stroke="#002b36" d="M164,-191.76C164,-178.5 164,-159.86 164,-144.27"/>
<polygon fill="#002b36" stroke="#002b36" points="167.5,-144.07 164,-134.07 160.5,-144.07 167.5,-144.07"/>
<text text-anchor="middle" x="186" y="-166" font-family="RobotoMono" font-size="10.00" fill="#002b36">model</text>
<text text-anchor="middle" x="186" y="-155" font-family="RobotoMono" font-size="10.00" fill="#002b36">(1 values)</text>
</g>
<!-- y_train -->
<g id="node7" class="node">
<title>y_train</title>
<path fill="none" stroke="#268bd2" d="M274,-434C274,-434 192,-434 192,-434 186,-434 180,-428 180,-422 180,-422 180,-410 180,-410 180,-404 186,-398 192,-398 192,-398 274,-398 274,-398 280,-398 286,-404 286,-410 286,-410 286,-422 286,-422 286,-428 280,-434 274,-434"/>
<text text-anchor="start" x="211.5" y="-418.4" font-family="RobotoMono" font-weight="bold" font-size="12.00" fill="#002b36">y_train</text>
<text text-anchor="start" x="188" y="-408" font-family="RobotoMono" font-size="10.00" fill="#268bd2">1 values (1 sources)</text>
</g>
<!-- y_train&#45;&gt;train_model -->
<g id="edge11" class="edge">
<title>y_train&#45;&gt;train_model</title>
<path fill="none" stroke="#002b36" d="M227.86,-397.65C222.92,-380.99 215.38,-355.53 209.54,-335.83"/>
<polygon fill="#002b36" stroke="#002b36" points="212.86,-334.72 206.67,-326.13 206.15,-336.71 212.86,-334.72"/>
<text text-anchor="middle" x="243" y="-365" font-family="RobotoMono" font-size="10.00" fill="#002b36">y_train</text>
<text text-anchor="middle" x="243" y="-354" font-family="RobotoMono" font-size="10.00" fill="#002b36">(1 values)</text>
</g>
<!-- y_test -->
<g id="node8" class="node">
<title>y_test</title>
<path fill="none" stroke="#268bd2" d="M303,-228C303,-228 221,-228 221,-228 215,-228 209,-222 209,-216 209,-216 209,-204 209,-204 209,-198 215,-192 221,-192 221,-192 303,-192 303,-192 309,-192 315,-198 315,-204 315,-204 315,-216 315,-216 315,-222 309,-228 303,-228"/>
<text text-anchor="start" x="244" y="-212.4" font-family="RobotoMono" font-weight="bold" font-size="12.00" fill="#002b36">y_test</text>
<text text-anchor="start" x="217" y="-202" font-family="RobotoMono" font-size="10.00" fill="#268bd2">1 values (1 sources)</text>
</g>
<!-- y_test&#45;&gt;eval_model -->
<g id="edge3" class="edge">
<title>y_test&#45;&gt;eval_model</title>
<path fill="none" stroke="#002b36" d="M248.37,-191.76C238.74,-180.02 225.25,-164.43 212,-152 207.88,-148.13 203.37,-144.25 198.82,-140.54"/>
<polygon fill="#002b36" stroke="#002b36" points="200.67,-137.55 190.66,-134.09 196.33,-143.04 200.67,-137.55"/>
<text text-anchor="middle" x="254" y="-166" font-family="RobotoMono" font-size="10.00" fill="#002b36">y_test</text>
<text text-anchor="middle" x="254" y="-155" font-family="RobotoMono" font-size="10.00" fill="#002b36">(1 values)</text>
</g>
<!-- generate_dataset&#45;&gt;X_train -->
<g id="edge6" class="edge">
<title>generate_dataset&#45;&gt;X_train</title>
<path fill="none" stroke="#002b36" d="M122.15,-492.59C167.46,-478.56 230.79,-458.13 294.48,-434.04"/>
<polygon fill="#002b36" stroke="#002b36" points="295.78,-437.29 303.88,-430.46 293.29,-430.75 295.78,-437.29"/>
<text text-anchor="middle" x="266" y="-466" font-family="RobotoMono" font-size="10.00" fill="#002b36">output_0</text>
<text text-anchor="middle" x="266" y="-455" font-family="RobotoMono" font-size="10.00" fill="#002b36">(1 values)</text>
</g>
<!-- generate_dataset&#45;&gt;X_test -->
<g id="edge5" class="edge">
<title>generate_dataset&#45;&gt;X_test</title>
<path fill="none" stroke="#002b36" d="M56.75,-491.81C53.5,-476.29 49.21,-453.85 47,-434 45.41,-419.73 44.64,-403.75 44.28,-390.58"/>
<polygon fill="#002b36" stroke="#002b36" points="47.78,-390.19 44.07,-380.27 40.78,-390.34 47.78,-390.19"/>
<text text-anchor="middle" x="76" y="-466" font-family="RobotoMono" font-size="10.00" fill="#002b36">output_1</text>
<text text-anchor="middle" x="76" y="-455" font-family="RobotoMono" font-size="10.00" fill="#002b36">(1 values)</text>
</g>
<!-- eval_model&#45;&gt;v -->
<g id="edge1" class="edge">
<title>eval_model&#45;&gt;v</title>
<path fill="none" stroke="#002b36" d="M164,-93.98C164,-80.34 164,-61.75 164,-46.5"/>
<polygon fill="#002b36" stroke="#002b36" points="167.5,-46.1 164,-36.1 160.5,-46.1 167.5,-46.1"/>
<text text-anchor="middle" x="186" y="-68" font-family="RobotoMono" font-size="10.00" fill="#002b36">output_0</text>
<text text-anchor="middle" x="186" y="-57" font-family="RobotoMono" font-size="10.00" fill="#002b36">(1 values)</text>
</g>
<!-- train_model&#45;&gt;model -->
<g id="edge8" class="edge">
<title>train_model&#45;&gt;model</title>
<path fill="none" stroke="#002b36" d="M193.51,-285.98C188.04,-272.07 180.54,-253.03 174.48,-237.61"/>
<polygon fill="#002b36" stroke="#002b36" points="177.65,-236.12 170.73,-228.1 171.14,-238.68 177.65,-236.12"/>
<text text-anchor="middle" x="207" y="-260" font-family="RobotoMono" font-size="10.00" fill="#002b36">output_0</text>
<text text-anchor="middle" x="207" y="-249" font-family="RobotoMono" font-size="10.00" fill="#002b36">(1 values)</text>
</g>
</g>
</svg>
