<?xml version="1.0" encoding="UTF-8" standalone="no"?>
<!DOCTYPE svg PUBLIC "-//W3C//DTD SVG 1.1//EN"
 "http://www.w3.org/Graphics/SVG/1.1/DTD/svg11.dtd">
<!-- Generated by graphviz version 2.50.0 (0)
 -->
<!-- Title: G Pages: 1 -->
<svg width="396pt" height="648pt"
 viewBox="0.00 0.00 395.50 648.00" xmlns="http://www.w3.org/2000/svg" xmlns:xlink="http://www.w3.org/1999/xlink">
<g id="graph0" class="graph" transform="scale(1 1) rotate(0) translate(4 644)">
<title>G</title>
<polygon fill="white" stroke="transparent" points="-4,4 -4,-644 391.5,-644 391.5,4 -4,4"/>
<!-- y_train -->
<g id="node1" class="node">
<title>y_train</title>
<path fill="none" stroke="#268bd2" d="M47,-448C47,-448 12,-448 12,-448 6,-448 0,-442 0,-436 0,-436 0,-424 0,-424 0,-418 6,-412 12,-412 12,-412 47,-412 47,-412 53,-412 59,-418 59,-424 59,-424 59,-436 59,-436 59,-442 53,-448 47,-448"/>
<text text-anchor="start" x="8" y="-432.4" font-family="RobotoMono" font-weight="bold" font-size="12.00" fill="#002b36">y_train</text>
<text text-anchor="start" x="10.5" y="-422" font-family="RobotoMono" font-size="10.00" fill="#268bd2">1 values</text>
</g>
<!-- train_model -->
<g id="node9" class="node">
<title>train_model</title>
<path fill="none" stroke="#dc322f" d="M195,-340C195,-340 124,-340 124,-340 118,-340 112,-334 112,-328 112,-328 112,-312 112,-312 112,-306 118,-300 124,-300 124,-300 195,-300 195,-300 201,-300 207,-306 207,-312 207,-312 207,-328 207,-328 207,-334 201,-340 195,-340"/>
<text text-anchor="start" x="123" y="-327.4" font-family="RobotoMono" font-weight="bold" font-size="12.00" fill="#002b36">train_model</text>
<text text-anchor="start" x="120" y="-317" font-family="RobotoMono" font-size="10.00" fill="#002b36">@op:train_model</text>
<text text-anchor="start" x="145.5" y="-307" font-family="RobotoMono" font-size="10.00" fill="#dc322f">1 calls</text>
</g>
<!-- y_train&#45;&gt;train_model -->
<g id="edge11" class="edge">
<title>y_train&#45;&gt;train_model</title>
<path fill="none" stroke="#002b36" d="M34.29,-411.91C39.55,-396 49.45,-372.6 65.5,-358 75.94,-348.5 89.1,-341.32 102.25,-335.93"/>
<polygon fill="#002b36" stroke="#002b36" points="103.66,-339.14 111.78,-332.32 101.18,-332.59 103.66,-339.14"/>
<text text-anchor="middle" x="87.5" y="-379" font-family="RobotoMono" font-size="10.00" fill="#002b36">y_train</text>
<text text-anchor="middle" x="87.5" y="-368" font-family="RobotoMono" font-size="10.00" fill="#002b36">(1 values)</text>
</g>
<!-- X_train -->
<g id="node2" class="node">
<title>X_train</title>
<path fill="none" stroke="#268bd2" d="M125.5,-448C125.5,-448 89.5,-448 89.5,-448 83.5,-448 77.5,-442 77.5,-436 77.5,-436 77.5,-424 77.5,-424 77.5,-418 83.5,-412 89.5,-412 89.5,-412 125.5,-412 125.5,-412 131.5,-412 137.5,-418 137.5,-424 137.5,-424 137.5,-436 137.5,-436 137.5,-442 131.5,-448 125.5,-448"/>
<text text-anchor="start" x="85.5" y="-432.4" font-family="RobotoMono" font-weight="bold" font-size="12.00" fill="#002b36">X_train</text>
<text text-anchor="start" x="88.5" y="-422" font-family="RobotoMono" font-size="10.00" fill="#268bd2">1 values</text>
</g>
<!-- X_train&#45;&gt;train_model -->
<g id="edge12" class="edge">
<title>X_train&#45;&gt;train_model</title>
<path fill="none" stroke="#002b36" d="M110.15,-411.85C112.95,-396.96 118.27,-375.14 127.5,-358 129.3,-354.66 131.44,-351.36 133.75,-348.19"/>
<polygon fill="#002b36" stroke="#002b36" points="136.66,-350.16 140.15,-340.16 131.19,-345.8 136.66,-350.16"/>
<text text-anchor="middle" x="149.5" y="-379" font-family="RobotoMono" font-size="10.00" fill="#002b36">X_train</text>
<text text-anchor="middle" x="149.5" y="-368" font-family="RobotoMono" font-size="10.00" fill="#002b36">(1 values)</text>
</g>
<!-- y_test -->
<g id="node3" class="node">
<title>y_test</title>
<path fill="none" stroke="#268bd2" d="M304.5,-394C304.5,-394 274.5,-394 274.5,-394 268.5,-394 262.5,-388 262.5,-382 262.5,-382 262.5,-370 262.5,-370 262.5,-364 268.5,-358 274.5,-358 274.5,-358 304.5,-358 304.5,-358 310.5,-358 316.5,-364 316.5,-370 316.5,-370 316.5,-382 316.5,-382 316.5,-388 310.5,-394 304.5,-394"/>
<text text-anchor="start" x="271.5" y="-378.4" font-family="RobotoMono" font-weight="bold" font-size="12.00" fill="#002b36">y_test</text>
<text text-anchor="start" x="270.5" y="-368" font-family="RobotoMono" font-size="10.00" fill="#268bd2">1 values</text>
</g>
<!-- eval_model -->
<g id="node11" class="node">
<title>eval_model</title>
<path fill="none" stroke="#dc322f" d="M306.5,-134C306.5,-134 238.5,-134 238.5,-134 232.5,-134 226.5,-128 226.5,-122 226.5,-122 226.5,-106 226.5,-106 226.5,-100 232.5,-94 238.5,-94 238.5,-94 306.5,-94 306.5,-94 312.5,-94 318.5,-100 318.5,-106 318.5,-106 318.5,-122 318.5,-122 318.5,-128 312.5,-134 306.5,-134"/>
<text text-anchor="start" x="238.5" y="-121.4" font-family="RobotoMono" font-weight="bold" font-size="12.00" fill="#002b36">eval_model</text>
<text text-anchor="start" x="234.5" y="-111" font-family="RobotoMono" font-size="10.00" fill="#002b36">@op:eval_model</text>
<text text-anchor="start" x="258.5" y="-101" font-family="RobotoMono" font-size="10.00" fill="#dc322f">1 calls</text>
</g>
<!-- y_test&#45;&gt;eval_model -->
<g id="edge2" class="edge">
<title>y_test&#45;&gt;eval_model</title>
<path fill="none" stroke="#002b36" d="M284.38,-357.71C279.19,-339.19 271.49,-308.81 268.5,-282 263.14,-233.89 266.47,-177.51 269.44,-144.11"/>
<polygon fill="#002b36" stroke="#002b36" points="272.92,-144.39 270.38,-134.11 265.96,-143.74 272.92,-144.39"/>
<text text-anchor="middle" x="290.5" y="-267" font-family="RobotoMono" font-size="10.00" fill="#002b36">y_test</text>
<text text-anchor="middle" x="290.5" y="-256" font-family="RobotoMono" font-size="10.00" fill="#002b36">(1 values)</text>
</g>
<!-- X_test -->
<g id="node4" class="node">
<title>X_test</title>
<path fill="none" stroke="#268bd2" d="M363.5,-282C363.5,-282 333.5,-282 333.5,-282 327.5,-282 321.5,-276 321.5,-270 321.5,-270 321.5,-258 321.5,-258 321.5,-252 327.5,-246 333.5,-246 333.5,-246 363.5,-246 363.5,-246 369.5,-246 375.5,-252 375.5,-258 375.5,-258 375.5,-270 375.5,-270 375.5,-276 369.5,-282 363.5,-282"/>
<text text-anchor="start" x="330" y="-266.4" font-family="RobotoMono" font-weight="bold" font-size="12.00" fill="#002b36">X_test</text>
<text text-anchor="start" x="329.5" y="-256" font-family="RobotoMono" font-size="10.00" fill="#268bd2">1 values</text>
</g>
<!-- X_test&#45;&gt;eval_model -->
<g id="edge3" class="edge">
<title>X_test&#45;&gt;eval_model</title>
<path fill="none" stroke="#002b36" d="M339.63,-245.73C326.7,-220.55 302.52,-173.46 286.98,-143.2"/>
<polygon fill="#002b36" stroke="#002b36" points="289.95,-141.32 282.27,-134.02 283.72,-144.52 289.95,-141.32"/>
<text text-anchor="middle" x="350.5" y="-213" font-family="RobotoMono" font-size="10.00" fill="#002b36">X_test</text>
<text text-anchor="middle" x="350.5" y="-202" font-family="RobotoMono" font-size="10.00" fill="#002b36">(1 values)</text>
</g>
<!-- random_seed -->
<g id="node5" class="node">
<title>random_seed</title>
<path fill="none" stroke="#268bd2" d="M284.5,-640C284.5,-640 202.5,-640 202.5,-640 196.5,-640 190.5,-634 190.5,-628 190.5,-628 190.5,-616 190.5,-616 190.5,-610 196.5,-604 202.5,-604 202.5,-604 284.5,-604 284.5,-604 290.5,-604 296.5,-610 296.5,-616 296.5,-616 296.5,-628 296.5,-628 296.5,-634 290.5,-640 284.5,-640"/>
<text text-anchor="start" x="203" y="-624.4" font-family="RobotoMono" font-weight="bold" font-size="12.00" fill="#002b36">random_seed</text>
<text text-anchor="start" x="198.5" y="-614" font-family="RobotoMono" font-size="10.00" fill="#268bd2">1 values (1 sources)</text>
</g>
<!-- generate_dataset -->
<g id="node10" class="node">
<title>generate_dataset</title>
<path fill="none" stroke="#dc322f" d="M292.5,-546C292.5,-546 194.5,-546 194.5,-546 188.5,-546 182.5,-540 182.5,-534 182.5,-534 182.5,-518 182.5,-518 182.5,-512 188.5,-506 194.5,-506 194.5,-506 292.5,-506 292.5,-506 298.5,-506 304.5,-512 304.5,-518 304.5,-518 304.5,-534 304.5,-534 304.5,-540 298.5,-546 292.5,-546"/>
<text text-anchor="start" x="190.5" y="-533.4" font-family="RobotoMono" font-weight="bold" font-size="12.00" fill="#002b36">generate_dataset</text>
<text text-anchor="start" x="190.5" y="-523" font-family="RobotoMono" font-size="10.00" fill="#002b36">@op:generate_dataset</text>
<text text-anchor="start" x="229.5" y="-513" font-family="RobotoMono" font-size="10.00" fill="#dc322f">1 calls</text>
</g>
<!-- random_seed&#45;&gt;generate_dataset -->
<g id="edge9" class="edge">
<title>random_seed&#45;&gt;generate_dataset</title>
<path fill="none" stroke="#002b36" d="M243.5,-603.76C243.5,-590.5 243.5,-571.86 243.5,-556.27"/>
<polygon fill="#002b36" stroke="#002b36" points="247,-556.07 243.5,-546.07 240,-556.07 247,-556.07"/>
<text text-anchor="middle" x="275.5" y="-578" font-family="RobotoMono" font-size="10.00" fill="#002b36">random_seed</text>
<text text-anchor="middle" x="275.5" y="-567" font-family="RobotoMono" font-size="10.00" fill="#002b36">(1 values)</text>
</g>
<!-- n_estimators -->
<g id="node6" class="node">
<title>n_estimators</title>
<path fill="none" stroke="#268bd2" d="M249.5,-448C249.5,-448 167.5,-448 167.5,-448 161.5,-448 155.5,-442 155.5,-436 155.5,-436 155.5,-424 155.5,-424 155.5,-418 161.5,-412 167.5,-412 167.5,-412 249.5,-412 249.5,-412 255.5,-412 261.5,-418 261.5,-424 261.5,-424 261.5,-436 261.5,-436 261.5,-442 255.5,-448 249.5,-448"/>
<text text-anchor="start" x="169" y="-432.4" font-family="RobotoMono" font-weight="bold" font-size="12.00" fill="#002b36">n_estimators</text>
<text text-anchor="start" x="163.5" y="-422" font-family="RobotoMono" font-size="10.00" fill="#268bd2">1 values (1 sources)</text>
</g>
<!-- n_estimators&#45;&gt;train_model -->
<g id="edge13" class="edge">
<title>n_estimators&#45;&gt;train_model</title>
<path fill="none" stroke="#002b36" d="M200.67,-411.92C198.07,-406.22 195.15,-399.84 192.5,-394 185.83,-379.33 178.44,-362.98 172.34,-349.48"/>
<polygon fill="#002b36" stroke="#002b36" points="175.47,-347.9 168.16,-340.22 169.09,-350.78 175.47,-347.9"/>
<text text-anchor="middle" x="223" y="-379" font-family="RobotoMono" font-size="10.00" fill="#002b36">n_estimators</text>
<text text-anchor="middle" x="223" y="-368" font-family="RobotoMono" font-size="10.00" fill="#002b36">(1 values)</text>
</g>
<!-- v -->
<g id="node7" class="node">
<title>v</title>
<path fill="none" stroke="#268bd2" d="M307,-36C307,-36 238,-36 238,-36 232,-36 226,-30 226,-24 226,-24 226,-12 226,-12 226,-6 232,0 238,0 238,0 307,0 307,0 313,0 319,-6 319,-12 319,-12 319,-24 319,-24 319,-30 313,-36 307,-36"/>
<text text-anchor="start" x="269" y="-20.4" font-family="RobotoMono" font-weight="bold" font-size="12.00" fill="#002b36">v</text>
<text text-anchor="start" x="234" y="-10" font-family="RobotoMono" font-size="10.00" fill="#268bd2">1 values (1 sinks)</text>
</g>
<!-- model -->
<g id="node8" class="node">
<title>model</title>
<path fill="none" stroke="#268bd2" d="M222.5,-228C222.5,-228 192.5,-228 192.5,-228 186.5,-228 180.5,-222 180.5,-216 180.5,-216 180.5,-204 180.5,-204 180.5,-198 186.5,-192 192.5,-192 192.5,-192 222.5,-192 222.5,-192 228.5,-192 234.5,-198 234.5,-204 234.5,-204 234.5,-216 234.5,-216 234.5,-222 228.5,-228 222.5,-228"/>
<text text-anchor="start" x="188.5" y="-212.4" font-family="RobotoMono" font-weight="bold" font-size="12.00" fill="#002b36">model</text>
<text text-anchor="start" x="188.5" y="-202" font-family="RobotoMono" font-size="10.00" fill="#268bd2">1 values</text>
</g>
<!-- model&#45;&gt;eval_model -->
<g id="edge4" class="edge">
<title>model&#45;&gt;eval_model</title>
<path fill="none" stroke="#002b36" d="M205.92,-191.77C205.66,-179.75 207.06,-163.81 214.5,-152 217.15,-147.8 220.46,-143.99 224.16,-140.55"/>
<polygon fill="#002b36" stroke="#002b36" points="226.65,-143.04 232.2,-134.01 222.23,-137.61 226.65,-143.04"/>
<text text-anchor="middle" x="236.5" y="-166" font-family="RobotoMono" font-size="10.00" fill="#002b36">model</text>
<text text-anchor="middle" x="236.5" y="-155" font-family="RobotoMono" font-size="10.00" fill="#002b36">(1 values)</text>
</g>
<!-- train_model&#45;&gt;model -->
<g id="edge10" class="edge">
<title>train_model&#45;&gt;model</title>
<path fill="none" stroke="#002b36" d="M167.97,-299.94C175.71,-282.53 187.22,-256.64 195.82,-237.27"/>
<polygon fill="#002b36" stroke="#002b36" points="199.04,-238.65 199.9,-228.09 192.64,-235.81 199.04,-238.65"/>
<text text-anchor="middle" x="212.5" y="-267" font-family="RobotoMono" font-size="10.00" fill="#002b36">output_0</text>
<text text-anchor="middle" x="212.5" y="-256" font-family="RobotoMono" font-size="10.00" fill="#002b36">(1 values)</text>
</g>
<!-- generate_dataset&#45;&gt;y_train -->
<g id="edge8" class="edge">
<title>generate_dataset&#45;&gt;y_train</title>
<path fill="none" stroke="#002b36" d="M182.34,-512.64C159.2,-506.77 133.03,-498.67 110.5,-488 91.79,-479.14 72.77,-466.01 57.86,-454.58"/>
<polygon fill="#002b36" stroke="#002b36" points="59.62,-451.52 49.6,-448.1 55.3,-457.02 59.62,-451.52"/>
<text text-anchor="middle" x="132.5" y="-480" font-family="RobotoMono" font-size="10.00" fill="#002b36">output_2</text>
<text text-anchor="middle" x="132.5" y="-469" font-family="RobotoMono" font-size="10.00" fill="#002b36">(1 values)</text>
</g>
<!-- generate_dataset&#45;&gt;X_train -->
<g id="edge7" class="edge">
<title>generate_dataset&#45;&gt;X_train</title>
<path fill="none" stroke="#002b36" d="M215.98,-505.98C194.23,-490.95 163.8,-469.91 140.7,-453.95"/>
<polygon fill="#002b36" stroke="#002b36" points="142.45,-450.9 132.24,-448.1 138.47,-456.66 142.45,-450.9"/>
<text text-anchor="middle" x="209.5" y="-480" font-family="RobotoMono" font-size="10.00" fill="#002b36">output_0</text>
<text text-anchor="middle" x="209.5" y="-469" font-family="RobotoMono" font-size="10.00" fill="#002b36">(1 values)</text>
</g>
<!-- generate_dataset&#45;&gt;y_test -->
<g id="edge6" class="edge">
<title>generate_dataset&#45;&gt;y_test</title>
<path fill="none" stroke="#002b36" d="M250.68,-505.83C256.37,-490.33 264.36,-467.9 270.5,-448 274.95,-433.57 279.35,-417.31 282.79,-403.99"/>
<polygon fill="#002b36" stroke="#002b36" points="286.25,-404.59 285.33,-394.03 279.47,-402.86 286.25,-404.59"/>
<text text-anchor="middle" x="286.5" y="-480" font-family="RobotoMono" font-size="10.00" fill="#002b36">output_3</text>
<text text-anchor="middle" x="286.5" y="-469" font-family="RobotoMono" font-size="10.00" fill="#002b36">(1 values)</text>
</g>
<!-- generate_dataset&#45;&gt;X_test -->
<g id="edge5" class="edge">
<title>generate_dataset&#45;&gt;X_test</title>
<path fill="none" stroke="#002b36" d="M292.85,-505.96C300.4,-501.12 307.37,-495.19 312.5,-488 354.88,-428.56 354.66,-337.65 351.39,-292.47"/>
<polygon fill="#002b36" stroke="#002b36" points="354.85,-291.94 350.54,-282.27 347.88,-292.52 354.85,-291.94"/>
<text text-anchor="middle" x="365.5" y="-433" font-family="RobotoMono" font-size="10.00" fill="#002b36">output_1</text>
<text text-anchor="middle" x="365.5" y="-422" font-family="RobotoMono" font-size="10.00" fill="#002b36">(1 values)</text>
</g>
<!-- eval_model&#45;&gt;v -->
<g id="edge1" class="edge">
<title>eval_model&#45;&gt;v</title>
<path fill="none" stroke="#002b36" d="M272.5,-93.98C272.5,-80.34 272.5,-61.75 272.5,-46.5"/>
<polygon fill="#002b36" stroke="#002b36" points="276,-46.1 272.5,-36.1 269,-46.1 276,-46.1"/>
<text text-anchor="middle" x="294.5" y="-68" font-family="RobotoMono" font-size="10.00" fill="#002b36">output_0</text>
<text text-anchor="middle" x="294.5" y="-57" font-family="RobotoMono" font-size="10.00" fill="#002b36">(1 values)</text>
</g>
</g>
</svg>
