<?xml version="1.0" encoding="UTF-8" standalone="no"?>
<!DOCTYPE svg PUBLIC "-//W3C//DTD SVG 1.1//EN"
 "http://www.w3.org/Graphics/SVG/1.1/DTD/svg11.dtd">
<!-- Generated by graphviz version 2.50.0 (0)
 -->
<!-- Title: G Pages: 1 -->
<svg width="362pt" height="236pt"
 viewBox="0.00 0.00 362.00 236.00" xmlns="http://www.w3.org/2000/svg" xmlns:xlink="http://www.w3.org/1999/xlink">
<g id="graph0" class="graph" transform="scale(1 1) rotate(0) translate(4 232)">
<title>G</title>
<polygon fill="white" stroke="transparent" points="-4,4 -4,-232 358,-232 358,4 -4,4"/>
<!-- model -->
<g id="node1" class="node">
<title>model</title>
<path fill="none" stroke="#268bd2" d="M94,-228C94,-228 12,-228 12,-228 6,-228 0,-222 0,-216 0,-216 0,-204 0,-204 0,-198 6,-192 12,-192 12,-192 94,-192 94,-192 100,-192 106,-198 106,-204 106,-204 106,-216 106,-216 106,-222 100,-228 94,-228"/>
<text text-anchor="start" x="34" y="-212.4" font-family="RobotoMono" font-weight="bold" font-size="12.00" fill="#002b36">model</text>
<text text-anchor="start" x="8" y="-202" font-family="RobotoMono" font-size="10.00" fill="#268bd2">1 values (1 sources)</text>
</g>
<!-- eval_model -->
<g id="node5" class="node">
<title>eval_model</title>
<path fill="none" stroke="#dc322f" d="M211,-134C211,-134 143,-134 143,-134 137,-134 131,-128 131,-122 131,-122 131,-106 131,-106 131,-100 137,-94 143,-94 143,-94 211,-94 211,-94 217,-94 223,-100 223,-106 223,-106 223,-122 223,-122 223,-128 217,-134 211,-134"/>
<text text-anchor="start" x="143" y="-121.4" font-family="RobotoMono" font-weight="bold" font-size="12.00" fill="#002b36">eval_model</text>
<text text-anchor="start" x="139" y="-111" font-family="RobotoMono" font-size="10.00" fill="#002b36">@op:eval_model</text>
<text text-anchor="start" x="163" y="-101" font-family="RobotoMono" font-size="10.00" fill="#dc322f">1 calls</text>
</g>
<!-- model&#45;&gt;eval_model -->
<g id="edge2" class="edge">
<title>model&#45;&gt;eval_model</title>
<path fill="none" stroke="#002b36" d="M75.46,-191.98C94.43,-177.59 121.89,-156.78 143.47,-140.42"/>
<polygon fill="#002b36" stroke="#002b36" points="145.87,-142.99 151.72,-134.16 141.64,-137.41 145.87,-142.99"/>
<text text-anchor="middle" x="149" y="-166" font-family="RobotoMono" font-size="10.00" fill="#002b36">model</text>
<text text-anchor="middle" x="149" y="-155" font-family="RobotoMono" font-size="10.00" fill="#002b36">(1 values)</text>
</g>
<!-- v -->
<g id="node2" class="node">
<title>v</title>
<path fill="none" stroke="#268bd2" d="M211.5,-36C211.5,-36 142.5,-36 142.5,-36 136.5,-36 130.5,-30 130.5,-24 130.5,-24 130.5,-12 130.5,-12 130.5,-6 136.5,0 142.5,0 142.5,0 211.5,0 211.5,0 217.5,0 223.5,-6 223.5,-12 223.5,-12 223.5,-24 223.5,-24 223.5,-30 217.5,-36 211.5,-36"/>
<text text-anchor="start" x="173.5" y="-20.4" font-family="RobotoMono" font-weight="bold" font-size="12.00" fill="#002b36">v</text>
<text text-anchor="start" x="138.5" y="-10" font-family="RobotoMono" font-size="10.00" fill="#268bd2">1 values (1 sinks)</text>
</g>
<!-- X_test -->
<g id="node3" class="node">
<title>X_test</title>
<path fill="none" stroke="#268bd2" d="M218,-228C218,-228 136,-228 136,-228 130,-228 124,-222 124,-216 124,-216 124,-204 124,-204 124,-198 130,-192 136,-192 136,-192 218,-192 218,-192 224,-192 230,-198 230,-204 230,-204 230,-216 230,-216 230,-222 224,-228 218,-228"/>
<text text-anchor="start" x="158.5" y="-212.4" font-family="RobotoMono" font-weight="bold" font-size="12.00" fill="#002b36">X_test</text>
<text text-anchor="start" x="132" y="-202" font-family="RobotoMono" font-size="10.00" fill="#268bd2">1 values (1 sources)</text>
</g>
<!-- X_test&#45;&gt;eval_model -->
<g id="edge4" class="edge">
<title>X_test&#45;&gt;eval_model</title>
<path fill="none" stroke="#002b36" d="M177,-191.76C177,-178.5 177,-159.86 177,-144.27"/>
<polygon fill="#002b36" stroke="#002b36" points="180.5,-144.07 177,-134.07 173.5,-144.07 180.5,-144.07"/>
<text text-anchor="middle" x="199" y="-166" font-family="RobotoMono" font-size="10.00" fill="#002b36">X_test</text>
<text text-anchor="middle" x="199" y="-155" font-family="RobotoMono" font-size="10.00" fill="#002b36">(1 values)</text>
</g>
<!-- y_test -->
<g id="node4" class="node">
<title>y_test</title>
<path fill="none" stroke="#268bd2" d="M342,-228C342,-228 260,-228 260,-228 254,-228 248,-222 248,-216 248,-216 248,-204 248,-204 248,-198 254,-192 260,-192 260,-192 342,-192 342,-192 348,-192 354,-198 354,-204 354,-204 354,-216 354,-216 354,-222 348,-228 342,-228"/>
<text text-anchor="start" x="283" y="-212.4" font-family="RobotoMono" font-weight="bold" font-size="12.00" fill="#002b36">y_test</text>
<text text-anchor="start" x="256" y="-202" font-family="RobotoMono" font-size="10.00" fill="#268bd2">1 values (1 sources)</text>
</g>
<!-- y_test&#45;&gt;eval_model -->
<g id="edge3" class="edge">
<title>y_test&#45;&gt;eval_model</title>
<path fill="none" stroke="#002b36" d="M278.54,-191.98C259.57,-177.59 232.11,-156.78 210.53,-140.42"/>
<polygon fill="#002b36" stroke="#002b36" points="212.36,-137.41 202.28,-134.16 208.13,-142.99 212.36,-137.41"/>
<text text-anchor="middle" x="275" y="-166" font-family="RobotoMono" font-size="10.00" fill="#002b36">y_test</text>
<text text-anchor="middle" x="275" y="-155" font-family="RobotoMono" font-size="10.00" fill="#002b36">(1 values)</text>
</g>
<!-- eval_model&#45;&gt;v -->
<g id="edge1" class="edge">
<title>eval_model&#45;&gt;v</title>
<path fill="none" stroke="#002b36" d="M177,-93.98C177,-80.34 177,-61.75 177,-46.5"/>
<polygon fill="#002b36" stroke="#002b36" points="180.5,-46.1 177,-36.1 173.5,-46.1 180.5,-46.1"/>
<text text-anchor="middle" x="199" y="-68" font-family="RobotoMono" font-size="10.00" fill="#002b36">output_0</text>
<text text-anchor="middle" x="199" y="-57" font-family="RobotoMono" font-size="10.00" fill="#002b36">(1 values)</text>
</g>
</g>
</svg>
