<?xml version="1.0" encoding="UTF-8" standalone="no"?>
<!DOCTYPE svg PUBLIC "-//W3C//DTD SVG 1.1//EN"
 "http://www.w3.org/Graphics/SVG/1.1/DTD/svg11.dtd">
<!-- Generated by graphviz version 2.50.0 (0)
 -->
<!-- Title: G Pages: 1 -->
<svg width="441pt" height="634pt"
 viewBox="0.00 0.00 441.00 634.00" xmlns="http://www.w3.org/2000/svg" xmlns:xlink="http://www.w3.org/1999/xlink">
<g id="graph0" class="graph" transform="scale(1 1) rotate(0) translate(4 630)">
<title>G</title>
<polygon fill="white" stroke="transparent" points="-4,4 -4,-630 437,-630 437,4 -4,4"/>
<!-- y_train -->
<g id="node1" class="node">
<title>y_train</title>
<path fill="none" stroke="#268bd2" d="M172,-434C172,-434 90,-434 90,-434 84,-434 78,-428 78,-422 78,-422 78,-410 78,-410 78,-404 84,-398 90,-398 90,-398 172,-398 172,-398 178,-398 184,-404 184,-410 184,-410 184,-422 184,-422 184,-428 178,-434 172,-434"/>
<text text-anchor="start" x="109.5" y="-418.4" font-family="RobotoMono" font-weight="bold" font-size="12.00" fill="#002b36">y_train</text>
<text text-anchor="start" x="86" y="-408" font-family="RobotoMono" font-size="10.00" fill="#268bd2">1 values (1 sources)</text>
</g>
<!-- train_model -->
<g id="node10" class="node">
<title>train_model</title>
<path fill="none" stroke="#dc322f" d="M222.5,-326C222.5,-326 151.5,-326 151.5,-326 145.5,-326 139.5,-320 139.5,-314 139.5,-314 139.5,-298 139.5,-298 139.5,-292 145.5,-286 151.5,-286 151.5,-286 222.5,-286 222.5,-286 228.5,-286 234.5,-292 234.5,-298 234.5,-298 234.5,-314 234.5,-314 234.5,-320 228.5,-326 222.5,-326"/>
<text text-anchor="start" x="150.5" y="-313.4" font-family="RobotoMono" font-weight="bold" font-size="12.00" fill="#002b36">train_model</text>
<text text-anchor="start" x="147.5" y="-303" font-family="RobotoMono" font-size="10.00" fill="#002b36">@op:train_model</text>
<text text-anchor="start" x="173" y="-293" font-family="RobotoMono" font-size="10.00" fill="#dc322f">1 calls</text>
</g>
<!-- y_train&#45;&gt;train_model -->
<g id="edge10" class="edge">
<title>y_train&#45;&gt;train_model</title>
<path fill="none" stroke="#002b36" d="M140,-397.65C148.75,-380.76 162.2,-354.83 172.47,-335.02"/>
<polygon fill="#002b36" stroke="#002b36" points="175.58,-336.62 177.08,-326.13 169.37,-333.4 175.58,-336.62"/>
<text text-anchor="middle" x="189" y="-365" font-family="RobotoMono" font-size="10.00" fill="#002b36">y_train</text>
<text text-anchor="middle" x="189" y="-354" font-family="RobotoMono" font-size="10.00" fill="#002b36">(1 values)</text>
</g>
<!-- X_train -->
<g id="node2" class="node">
<title>X_train</title>
<path fill="none" stroke="#268bd2" d="M48,-434C48,-434 12,-434 12,-434 6,-434 0,-428 0,-422 0,-422 0,-410 0,-410 0,-404 6,-398 12,-398 12,-398 48,-398 48,-398 54,-398 60,-404 60,-410 60,-410 60,-422 60,-422 60,-428 54,-434 48,-434"/>
<text text-anchor="start" x="8" y="-418.4" font-family="RobotoMono" font-weight="bold" font-size="12.00" fill="#002b36">X_train</text>
<text text-anchor="start" x="11" y="-408" font-family="RobotoMono" font-size="10.00" fill="#268bd2">1 values</text>
</g>
<!-- X_train&#45;&gt;train_model -->
<g id="edge9" class="edge">
<title>X_train&#45;&gt;train_model</title>
<path fill="none" stroke="#002b36" d="M43.99,-397.98C57.54,-382.35 79.31,-359.34 102,-344 110.59,-338.19 120.24,-332.97 129.87,-328.4"/>
<polygon fill="#002b36" stroke="#002b36" points="131.41,-331.54 139.06,-324.22 128.51,-325.17 131.41,-331.54"/>
<text text-anchor="middle" x="124" y="-365" font-family="RobotoMono" font-size="10.00" fill="#002b36">X_train</text>
<text text-anchor="middle" x="124" y="-354" font-family="RobotoMono" font-size="10.00" fill="#002b36">(1 values)</text>
</g>
<!-- v -->
<g id="node3" class="node">
<title>v</title>
<path fill="none" stroke="#268bd2" d="M333.5,-36C333.5,-36 264.5,-36 264.5,-36 258.5,-36 252.5,-30 252.5,-24 252.5,-24 252.5,-12 252.5,-12 252.5,-6 258.5,0 264.5,0 264.5,0 333.5,0 333.5,0 339.5,0 345.5,-6 345.5,-12 345.5,-12 345.5,-24 345.5,-24 345.5,-30 339.5,-36 333.5,-36"/>
<text text-anchor="start" x="295.5" y="-20.4" font-family="RobotoMono" font-weight="bold" font-size="12.00" fill="#002b36">v</text>
<text text-anchor="start" x="260.5" y="-10" font-family="RobotoMono" font-size="10.00" fill="#268bd2">1 values (1 sinks)</text>
</g>
<!-- random_seed -->
<g id="node4" class="node">
<title>random_seed</title>
<path fill="none" stroke="#268bd2" d="M224,-626C224,-626 142,-626 142,-626 136,-626 130,-620 130,-614 130,-614 130,-602 130,-602 130,-596 136,-590 142,-590 142,-590 224,-590 224,-590 230,-590 236,-596 236,-602 236,-602 236,-614 236,-614 236,-620 230,-626 224,-626"/>
<text text-anchor="start" x="142.5" y="-610.4" font-family="RobotoMono" font-weight="bold" font-size="12.00" fill="#002b36">random_seed</text>
<text text-anchor="start" x="138" y="-600" font-family="RobotoMono" font-size="10.00" fill="#268bd2">1 values (1 sources)</text>
</g>
<!-- generate_dataset -->
<g id="node11" class="node">
<title>generate_dataset</title>
<path fill="none" stroke="#dc322f" d="M232,-532C232,-532 134,-532 134,-532 128,-532 122,-526 122,-520 122,-520 122,-504 122,-504 122,-498 128,-492 134,-492 134,-492 232,-492 232,-492 238,-492 244,-498 244,-504 244,-504 244,-520 244,-520 244,-526 238,-532 232,-532"/>
<text text-anchor="start" x="130" y="-519.4" font-family="RobotoMono" font-weight="bold" font-size="12.00" fill="#002b36">generate_dataset</text>
<text text-anchor="start" x="130" y="-509" font-family="RobotoMono" font-size="10.00" fill="#002b36">@op:generate_dataset</text>
<text text-anchor="start" x="169" y="-499" font-family="RobotoMono" font-size="10.00" fill="#dc322f">1 calls</text>
</g>
<!-- random_seed&#45;&gt;generate_dataset -->
<g id="edge7" class="edge">
<title>random_seed&#45;&gt;generate_dataset</title>
<path fill="none" stroke="#002b36" d="M183,-589.76C183,-576.5 183,-557.86 183,-542.27"/>
<polygon fill="#002b36" stroke="#002b36" points="186.5,-542.07 183,-532.07 179.5,-542.07 186.5,-542.07"/>
<text text-anchor="middle" x="215" y="-564" font-family="RobotoMono" font-size="10.00" fill="#002b36">random_seed</text>
<text text-anchor="middle" x="215" y="-553" font-family="RobotoMono" font-size="10.00" fill="#002b36">(1 values)</text>
</g>
<!-- X_test -->
<g id="node5" class="node">
<title>X_test</title>
<path fill="none" stroke="#268bd2" d="M351,-380C351,-380 321,-380 321,-380 315,-380 309,-374 309,-368 309,-368 309,-356 309,-356 309,-350 315,-344 321,-344 321,-344 351,-344 351,-344 357,-344 363,-350 363,-356 363,-356 363,-368 363,-368 363,-374 357,-380 351,-380"/>
<text text-anchor="start" x="317.5" y="-364.4" font-family="RobotoMono" font-weight="bold" font-size="12.00" fill="#002b36">X_test</text>
<text text-anchor="start" x="317" y="-354" font-family="RobotoMono" font-size="10.00" fill="#268bd2">1 values</text>
</g>
<!-- eval_model -->
<g id="node9" class="node">
<title>eval_model</title>
<path fill="none" stroke="#dc322f" d="M333,-134C333,-134 265,-134 265,-134 259,-134 253,-128 253,-122 253,-122 253,-106 253,-106 253,-100 259,-94 265,-94 265,-94 333,-94 333,-94 339,-94 345,-100 345,-106 345,-106 345,-122 345,-122 345,-128 339,-134 333,-134"/>
<text text-anchor="start" x="265" y="-121.4" font-family="RobotoMono" font-weight="bold" font-size="12.00" fill="#002b36">eval_model</text>
<text text-anchor="start" x="261" y="-111" font-family="RobotoMono" font-size="10.00" fill="#002b36">@op:eval_model</text>
<text text-anchor="start" x="285" y="-101" font-family="RobotoMono" font-size="10.00" fill="#dc322f">1 calls</text>
</g>
<!-- X_test&#45;&gt;eval_model -->
<g id="edge2" class="edge">
<title>X_test&#45;&gt;eval_model</title>
<path fill="none" stroke="#002b36" d="M333.4,-343.7C327.15,-302.15 311.23,-196.31 303.44,-144.49"/>
<polygon fill="#002b36" stroke="#002b36" points="306.85,-143.66 301.9,-134.29 299.93,-144.7 306.85,-143.66"/>
<text text-anchor="middle" x="344" y="-260" font-family="RobotoMono" font-size="10.00" fill="#002b36">X_test</text>
<text text-anchor="middle" x="344" y="-249" font-family="RobotoMono" font-size="10.00" fill="#002b36">(1 values)</text>
</g>
<!-- n_estimators -->
<g id="node6" class="node">
<title>n_estimators</title>
<path fill="none" stroke="#268bd2" d="M296,-434C296,-434 214,-434 214,-434 208,-434 202,-428 202,-422 202,-422 202,-410 202,-410 202,-404 208,-398 214,-398 214,-398 296,-398 296,-398 302,-398 308,-404 308,-410 308,-410 308,-422 308,-422 308,-428 302,-434 296,-434"/>
<text text-anchor="start" x="215.5" y="-418.4" font-family="RobotoMono" font-weight="bold" font-size="12.00" fill="#002b36">n_estimators</text>
<text text-anchor="start" x="210" y="-408" font-family="RobotoMono" font-size="10.00" fill="#268bd2">1 values (1 sources)</text>
</g>
<!-- n_estimators&#45;&gt;train_model -->
<g id="edge11" class="edge">
<title>n_estimators&#45;&gt;train_model</title>
<path fill="none" stroke="#002b36" d="M246.25,-397.98C238.53,-383.36 226.72,-361.86 215,-344 212.93,-340.85 210.69,-337.62 208.4,-334.44"/>
<polygon fill="#002b36" stroke="#002b36" points="211.09,-332.19 202.33,-326.23 205.46,-336.35 211.09,-332.19"/>
<text text-anchor="middle" x="265.5" y="-365" font-family="RobotoMono" font-size="10.00" fill="#002b36">n_estimators</text>
<text text-anchor="middle" x="265.5" y="-354" font-family="RobotoMono" font-size="10.00" fill="#002b36">(1 values)</text>
</g>
<!-- y_test -->
<g id="node7" class="node">
<title>y_test</title>
<path fill="none" stroke="#268bd2" d="M421,-228C421,-228 339,-228 339,-228 333,-228 327,-222 327,-216 327,-216 327,-204 327,-204 327,-198 333,-192 339,-192 339,-192 421,-192 421,-192 427,-192 433,-198 433,-204 433,-204 433,-216 433,-216 433,-222 427,-228 421,-228"/>
<text text-anchor="start" x="362" y="-212.4" font-family="RobotoMono" font-weight="bold" font-size="12.00" fill="#002b36">y_test</text>
<text text-anchor="start" x="335" y="-202" font-family="RobotoMono" font-size="10.00" fill="#268bd2">1 values (1 sources)</text>
</g>
<!-- y_test&#45;&gt;eval_model -->
<g id="edge3" class="edge">
<title>y_test&#45;&gt;eval_model</title>
<path fill="none" stroke="#002b36" d="M365.14,-191.76C353.16,-177.86 336.1,-158.06 322.31,-142.05"/>
<polygon fill="#002b36" stroke="#002b36" points="324.61,-139.36 315.43,-134.07 319.31,-143.93 324.61,-139.36"/>
<text text-anchor="middle" x="371" y="-166" font-family="RobotoMono" font-size="10.00" fill="#002b36">y_test</text>
<text text-anchor="middle" x="371" y="-155" font-family="RobotoMono" font-size="10.00" fill="#002b36">(1 values)</text>
</g>
<!-- model -->
<g id="node8" class="node">
<title>model</title>
<path fill="none" stroke="#268bd2" d="M249,-228C249,-228 219,-228 219,-228 213,-228 207,-222 207,-216 207,-216 207,-204 207,-204 207,-198 213,-192 219,-192 219,-192 249,-192 249,-192 255,-192 261,-198 261,-204 261,-204 261,-216 261,-216 261,-222 255,-228 249,-228"/>
<text text-anchor="start" x="215" y="-212.4" font-family="RobotoMono" font-weight="bold" font-size="12.00" fill="#002b36">model</text>
<text text-anchor="start" x="215" y="-202" font-family="RobotoMono" font-size="10.00" fill="#268bd2">1 values</text>
</g>
<!-- model&#45;&gt;eval_model -->
<g id="edge4" class="edge">
<title>model&#45;&gt;eval_model</title>
<path fill="none" stroke="#002b36" d="M232.42,-191.77C232.16,-179.75 233.56,-163.81 241,-152 243.65,-147.8 246.96,-143.99 250.66,-140.55"/>
<polygon fill="#002b36" stroke="#002b36" points="253.15,-143.04 258.7,-134.01 248.73,-137.61 253.15,-143.04"/>
<text text-anchor="middle" x="263" y="-166" font-family="RobotoMono" font-size="10.00" fill="#002b36">model</text>
<text text-anchor="middle" x="263" y="-155" font-family="RobotoMono" font-size="10.00" fill="#002b36">(1 values)</text>
</g>
<!-- eval_model&#45;&gt;v -->
<g id="edge1" class="edge">
<title>eval_model&#45;&gt;v</title>
<path fill="none" stroke="#002b36" d="M299,-93.98C299,-80.34 299,-61.75 299,-46.5"/>
<polygon fill="#002b36" stroke="#002b36" points="302.5,-46.1 299,-36.1 295.5,-46.1 302.5,-46.1"/>
<text text-anchor="middle" x="321" y="-68" font-family="RobotoMono" font-size="10.00" fill="#002b36">output_0</text>
<text text-anchor="middle" x="321" y="-57" font-family="RobotoMono" font-size="10.00" fill="#002b36">(1 values)</text>
</g>
<!-- train_model&#45;&gt;model -->
<g id="edge8" class="edge">
<title>train_model&#45;&gt;model</title>
<path fill="none" stroke="#002b36" d="M196.51,-285.98C203.53,-271.94 213.17,-252.66 220.91,-237.17"/>
<polygon fill="#002b36" stroke="#002b36" points="224.11,-238.61 225.45,-228.1 217.85,-235.48 224.11,-238.61"/>
<text text-anchor="middle" x="238" y="-260" font-family="RobotoMono" font-size="10.00" fill="#002b36">output_0</text>
<text text-anchor="middle" x="238" y="-249" font-family="RobotoMono" font-size="10.00" fill="#002b36">(1 values)</text>
</g>
<!-- generate_dataset&#45;&gt;X_train -->
<g id="edge6" class="edge">
<title>generate_dataset&#45;&gt;X_train</title>
<path fill="none" stroke="#002b36" d="M152.04,-491.98C127.36,-476.81 92.73,-455.54 66.66,-439.52"/>
<polygon fill="#002b36" stroke="#002b36" points="68.18,-436.35 57.83,-434.1 64.52,-442.31 68.18,-436.35"/>
<text text-anchor="middle" x="142" y="-466" font-family="RobotoMono" font-size="10.00" fill="#002b36">output_0</text>
<text text-anchor="middle" x="142" y="-455" font-family="RobotoMono" font-size="10.00" fill="#002b36">(1 values)</text>
</g>
<!-- generate_dataset&#45;&gt;X_test -->
<g id="edge5" class="edge">
<title>generate_dataset&#45;&gt;X_test</title>
<path fill="none" stroke="#002b36" d="M236.63,-491.89C264.39,-479.42 296.64,-460.48 317,-434 326.61,-421.5 331.36,-404.54 333.72,-390.32"/>
<polygon fill="#002b36" stroke="#002b36" points="337.23,-390.49 335.09,-380.11 330.29,-389.56 337.23,-390.49"/>
<text text-anchor="middle" x="320" y="-466" font-family="RobotoMono" font-size="10.00" fill="#002b36">output_1</text>
<text text-anchor="middle" x="320" y="-455" font-family="RobotoMono" font-size="10.00" fill="#002b36">(1 values)</text>
</g>
</g>
</svg>
