<?xml version="1.0" encoding="UTF-8" standalone="no"?>
<!DOCTYPE svg PUBLIC "-//W3C//DTD SVG 1.1//EN"
 "http://www.w3.org/Graphics/SVG/1.1/DTD/svg11.dtd">
<!-- Generated by graphviz version 2.50.0 (0)
 -->
<!-- Title: G Pages: 1 -->
<svg width="310pt" height="428pt"
 viewBox="0.00 0.00 310.00 428.00" xmlns="http://www.w3.org/2000/svg" xmlns:xlink="http://www.w3.org/1999/xlink">
<g id="graph0" class="graph" transform="scale(1 1) rotate(0) translate(4 424)">
<title>G</title>
<polygon fill="white" stroke="transparent" points="-4,4 -4,-424 306,-424 306,4 -4,4"/>
<!-- v -->
<g id="node1" class="node">
<title>v</title>
<path fill="none" stroke="#268bd2" d="M185.5,-36C185.5,-36 116.5,-36 116.5,-36 110.5,-36 104.5,-30 104.5,-24 104.5,-24 104.5,-12 104.5,-12 104.5,-6 110.5,0 116.5,0 116.5,0 185.5,0 185.5,0 191.5,0 197.5,-6 197.5,-12 197.5,-12 197.5,-24 197.5,-24 197.5,-30 191.5,-36 185.5,-36"/>
<text text-anchor="start" x="147.5" y="-20.4" font-family="RobotoMono" font-weight="bold" font-size="12.00" fill="#002b36">v</text>
<text text-anchor="start" x="112.5" y="-10" font-family="RobotoMono" font-size="10.00" fill="#268bd2">1 values (1 sinks)</text>
</g>
<!-- random_seed -->
<g id="node2" class="node">
<title>random_seed</title>
<path fill="none" stroke="#268bd2" d="M192,-420C192,-420 110,-420 110,-420 104,-420 98,-414 98,-408 98,-408 98,-396 98,-396 98,-390 104,-384 110,-384 110,-384 192,-384 192,-384 198,-384 204,-390 204,-396 204,-396 204,-408 204,-408 204,-414 198,-420 192,-420"/>
<text text-anchor="start" x="110.5" y="-404.4" font-family="RobotoMono" font-weight="bold" font-size="12.00" fill="#002b36">random_seed</text>
<text text-anchor="start" x="106" y="-394" font-family="RobotoMono" font-size="10.00" fill="#268bd2">1 values (1 sources)</text>
</g>
<!-- generate_dataset -->
<g id="node6" class="node">
<title>generate_dataset</title>
<path fill="none" stroke="#dc322f" d="M200,-326C200,-326 102,-326 102,-326 96,-326 90,-320 90,-314 90,-314 90,-298 90,-298 90,-292 96,-286 102,-286 102,-286 200,-286 200,-286 206,-286 212,-292 212,-298 212,-298 212,-314 212,-314 212,-320 206,-326 200,-326"/>
<text text-anchor="start" x="98" y="-313.4" font-family="RobotoMono" font-weight="bold" font-size="12.00" fill="#002b36">generate_dataset</text>
<text text-anchor="start" x="98" y="-303" font-family="RobotoMono" font-size="10.00" fill="#002b36">@op:generate_dataset</text>
<text text-anchor="start" x="137" y="-293" font-family="RobotoMono" font-size="10.00" fill="#dc322f">1 calls</text>
</g>
<!-- random_seed&#45;&gt;generate_dataset -->
<g id="edge6" class="edge">
<title>random_seed&#45;&gt;generate_dataset</title>
<path fill="none" stroke="#002b36" d="M151,-383.76C151,-370.5 151,-351.86 151,-336.27"/>
<polygon fill="#002b36" stroke="#002b36" points="154.5,-336.07 151,-326.07 147.5,-336.07 154.5,-336.07"/>
<text text-anchor="middle" x="183" y="-358" font-family="RobotoMono" font-size="10.00" fill="#002b36">random_seed</text>
<text text-anchor="middle" x="183" y="-347" font-family="RobotoMono" font-size="10.00" fill="#002b36">(1 values)</text>
</g>
<!-- model -->
<g id="node3" class="node">
<title>model</title>
<path fill="none" stroke="#268bd2" d="M94,-228C94,-228 12,-228 12,-228 6,-228 0,-222 0,-216 0,-216 0,-204 0,-204 0,-198 6,-192 12,-192 12,-192 94,-192 94,-192 100,-192 106,-198 106,-204 106,-204 106,-216 106,-216 106,-222 100,-228 94,-228"/>
<text text-anchor="start" x="34" y="-212.4" font-family="RobotoMono" font-weight="bold" font-size="12.00" fill="#002b36">model</text>
<text text-anchor="start" x="8" y="-202" font-family="RobotoMono" font-size="10.00" fill="#268bd2">1 values (1 sources)</text>
</g>
<!-- eval_model -->
<g id="node7" class="node">
<title>eval_model</title>
<path fill="none" stroke="#dc322f" d="M185,-134C185,-134 117,-134 117,-134 111,-134 105,-128 105,-122 105,-122 105,-106 105,-106 105,-100 111,-94 117,-94 117,-94 185,-94 185,-94 191,-94 197,-100 197,-106 197,-106 197,-122 197,-122 197,-128 191,-134 185,-134"/>
<text text-anchor="start" x="117" y="-121.4" font-family="RobotoMono" font-weight="bold" font-size="12.00" fill="#002b36">eval_model</text>
<text text-anchor="start" x="113" y="-111" font-family="RobotoMono" font-size="10.00" fill="#002b36">@op:eval_model</text>
<text text-anchor="start" x="137" y="-101" font-family="RobotoMono" font-size="10.00" fill="#dc322f">1 calls</text>
</g>
<!-- model&#45;&gt;eval_model -->
<g id="edge4" class="edge">
<title>model&#45;&gt;eval_model</title>
<path fill="none" stroke="#002b36" d="M66.63,-191.76C76.26,-180.02 89.75,-164.43 103,-152 107.12,-148.13 111.63,-144.25 116.18,-140.54"/>
<polygon fill="#002b36" stroke="#002b36" points="118.67,-143.04 124.34,-134.09 114.33,-137.55 118.67,-143.04"/>
<text text-anchor="middle" x="125" y="-166" font-family="RobotoMono" font-size="10.00" fill="#002b36">model</text>
<text text-anchor="middle" x="125" y="-155" font-family="RobotoMono" font-size="10.00" fill="#002b36">(1 values)</text>
</g>
<!-- X_test -->
<g id="node4" class="node">
<title>X_test</title>
<path fill="none" stroke="#268bd2" d="M166,-228C166,-228 136,-228 136,-228 130,-228 124,-222 124,-216 124,-216 124,-204 124,-204 124,-198 130,-192 136,-192 136,-192 166,-192 166,-192 172,-192 178,-198 178,-204 178,-204 178,-216 178,-216 178,-222 172,-228 166,-228"/>
<text text-anchor="start" x="132.5" y="-212.4" font-family="RobotoMono" font-weight="bold" font-size="12.00" fill="#002b36">X_test</text>
<text text-anchor="start" x="132" y="-202" font-family="RobotoMono" font-size="10.00" fill="#268bd2">1 values</text>
</g>
<!-- X_test&#45;&gt;eval_model -->
<g id="edge2" class="edge">
<title>X_test&#45;&gt;eval_model</title>
<path fill="none" stroke="#002b36" d="M151,-191.76C151,-178.5 151,-159.86 151,-144.27"/>
<polygon fill="#002b36" stroke="#002b36" points="154.5,-144.07 151,-134.07 147.5,-144.07 154.5,-144.07"/>
<text text-anchor="middle" x="173" y="-166" font-family="RobotoMono" font-size="10.00" fill="#002b36">X_test</text>
<text text-anchor="middle" x="173" y="-155" font-family="RobotoMono" font-size="10.00" fill="#002b36">(1 values)</text>
</g>
<!-- y_test -->
<g id="node5" class="node">
<title>y_test</title>
<path fill="none" stroke="#268bd2" d="M290,-228C290,-228 208,-228 208,-228 202,-228 196,-222 196,-216 196,-216 196,-204 196,-204 196,-198 202,-192 208,-192 208,-192 290,-192 290,-192 296,-192 302,-198 302,-204 302,-204 302,-216 302,-216 302,-222 296,-228 290,-228"/>
<text text-anchor="start" x="231" y="-212.4" font-family="RobotoMono" font-weight="bold" font-size="12.00" fill="#002b36">y_test</text>
<text text-anchor="start" x="204" y="-202" font-family="RobotoMono" font-size="10.00" fill="#268bd2">1 values (1 sources)</text>
</g>
<!-- y_test&#45;&gt;eval_model -->
<g id="edge3" class="edge">
<title>y_test&#45;&gt;eval_model</title>
<path fill="none" stroke="#002b36" d="M235.37,-191.76C225.74,-180.02 212.25,-164.43 199,-152 194.88,-148.13 190.37,-144.25 185.82,-140.54"/>
<polygon fill="#002b36" stroke="#002b36" points="187.67,-137.55 177.66,-134.09 183.33,-143.04 187.67,-137.55"/>
<text text-anchor="middle" x="241" y="-166" font-family="RobotoMono" font-size="10.00" fill="#002b36">y_test</text>
<text text-anchor="middle" x="241" y="-155" font-family="RobotoMono" font-size="10.00" fill="#002b36">(1 values)</text>
</g>
<!-- generate_dataset&#45;&gt;X_test -->
<g id="edge5" class="edge">
<title>generate_dataset&#45;&gt;X_test</title>
<path fill="none" stroke="#002b36" d="M151,-285.98C151,-272.34 151,-253.75 151,-238.5"/>
<polygon fill="#002b36" stroke="#002b36" points="154.5,-238.1 151,-228.1 147.5,-238.1 154.5,-238.1"/>
<text text-anchor="middle" x="173" y="-260" font-family="RobotoMono" font-size="10.00" fill="#002b36">output_1</text>
<text text-anchor="middle" x="173" y="-249" font-family="RobotoMono" font-size="10.00" fill="#002b36">(1 values)</text>
</g>
<!-- eval_model&#45;&gt;v -->
<g id="edge1" class="edge">
<title>eval_model&#45;&gt;v</title>
<path fill="none" stroke="#002b36" d="M151,-93.98C151,-80.34 151,-61.75 151,-46.5"/>
<polygon fill="#002b36" stroke="#002b36" points="154.5,-46.1 151,-36.1 147.5,-46.1 154.5,-46.1"/>
<text text-anchor="middle" x="173" y="-68" font-family="RobotoMono" font-size="10.00" fill="#002b36">output_0</text>
<text text-anchor="middle" x="173" y="-57" font-family="RobotoMono" font-size="10.00" fill="#002b36">(1 values)</text>
</g>
</g>
</svg>
