<?xml version="1.0" encoding="UTF-8" standalone="no"?>
<!DOCTYPE svg PUBLIC "-//W3C//DTD SVG 1.1//EN"
 "http://www.w3.org/Graphics/SVG/1.1/DTD/svg11.dtd">
<!-- Generated by graphviz version 2.50.0 (0)
 -->
<!-- Title: G Pages: 1 -->
<svg width="493pt" height="428pt"
 viewBox="0.00 0.00 493.00 428.00" xmlns="http://www.w3.org/2000/svg" xmlns:xlink="http://www.w3.org/1999/xlink">
<g id="graph0" class="graph" transform="scale(1 1) rotate(0) translate(4 424)">
<title>G</title>
<polygon fill="white" stroke="transparent" points="-4,4 -4,-424 489,-424 489,4 -4,4"/>
<!-- n_estimators -->
<g id="node1" class="node">
<title>n_estimators</title>
<path fill="none" stroke="#268bd2" d="M473,-420C473,-420 391,-420 391,-420 385,-420 379,-414 379,-408 379,-408 379,-396 379,-396 379,-390 385,-384 391,-384 391,-384 473,-384 473,-384 479,-384 485,-390 485,-396 485,-396 485,-408 485,-408 485,-414 479,-420 473,-420"/>
<text text-anchor="start" x="392.5" y="-404.4" font-family="RobotoMono" font-weight="bold" font-size="12.00" fill="#002b36">n_estimators</text>
<text text-anchor="start" x="387" y="-394" font-family="RobotoMono" font-size="10.00" fill="#268bd2">1 values (1 sources)</text>
</g>
<!-- train_model -->
<g id="node9" class="node">
<title>train_model</title>
<path fill="none" stroke="#dc322f" d="M342.5,-326C342.5,-326 271.5,-326 271.5,-326 265.5,-326 259.5,-320 259.5,-314 259.5,-314 259.5,-298 259.5,-298 259.5,-292 265.5,-286 271.5,-286 271.5,-286 342.5,-286 342.5,-286 348.5,-286 354.5,-292 354.5,-298 354.5,-298 354.5,-314 354.5,-314 354.5,-320 348.5,-326 342.5,-326"/>
<text text-anchor="start" x="270.5" y="-313.4" font-family="RobotoMono" font-weight="bold" font-size="12.00" fill="#002b36">train_model</text>
<text text-anchor="start" x="267.5" y="-303" font-family="RobotoMono" font-size="10.00" fill="#002b36">@op:train_model</text>
<text text-anchor="start" x="293" y="-293" font-family="RobotoMono" font-size="10.00" fill="#dc322f">1 calls</text>
</g>
<!-- n_estimators&#45;&gt;train_model -->
<g id="edge9" class="edge">
<title>n_estimators&#45;&gt;train_model</title>
<path fill="none" stroke="#002b36" d="M409.36,-383.98C390.15,-369.53 362.31,-348.59 340.51,-332.2"/>
<polygon fill="#002b36" stroke="#002b36" points="342.58,-329.38 332.48,-326.16 338.37,-334.97 342.58,-329.38"/>
<text text-anchor="middle" x="414.5" y="-358" font-family="RobotoMono" font-size="10.00" fill="#002b36">n_estimators</text>
<text text-anchor="middle" x="414.5" y="-347" font-family="RobotoMono" font-size="10.00" fill="#002b36">(1 values)</text>
</g>
<!-- X_train -->
<g id="node2" class="node">
<title>X_train</title>
<path fill="none" stroke="#268bd2" d="M225,-420C225,-420 143,-420 143,-420 137,-420 131,-414 131,-408 131,-408 131,-396 131,-396 131,-390 137,-384 143,-384 143,-384 225,-384 225,-384 231,-384 237,-390 237,-396 237,-396 237,-408 237,-408 237,-414 231,-420 225,-420"/>
<text text-anchor="start" x="162" y="-404.4" font-family="RobotoMono" font-weight="bold" font-size="12.00" fill="#002b36">X_train</text>
<text text-anchor="start" x="139" y="-394" font-family="RobotoMono" font-size="10.00" fill="#268bd2">1 values (1 sources)</text>
</g>
<!-- X_train&#45;&gt;train_model -->
<g id="edge8" class="edge">
<title>X_train&#45;&gt;train_model</title>
<path fill="none" stroke="#002b36" d="M206.27,-383.98C225.1,-369.59 252.34,-348.78 273.74,-332.42"/>
<polygon fill="#002b36" stroke="#002b36" points="276.11,-335.02 281.93,-326.16 271.86,-329.45 276.11,-335.02"/>
<text text-anchor="middle" x="279" y="-358" font-family="RobotoMono" font-size="10.00" fill="#002b36">X_train</text>
<text text-anchor="middle" x="279" y="-347" font-family="RobotoMono" font-size="10.00" fill="#002b36">(1 values)</text>
</g>
<!-- random_seed -->
<g id="node3" class="node">
<title>random_seed</title>
<path fill="none" stroke="#268bd2" d="M101,-420C101,-420 19,-420 19,-420 13,-420 7,-414 7,-408 7,-408 7,-396 7,-396 7,-390 13,-384 19,-384 19,-384 101,-384 101,-384 107,-384 113,-390 113,-396 113,-396 113,-408 113,-408 113,-414 107,-420 101,-420"/>
<text text-anchor="start" x="19.5" y="-404.4" font-family="RobotoMono" font-weight="bold" font-size="12.00" fill="#002b36">random_seed</text>
<text text-anchor="start" x="15" y="-394" font-family="RobotoMono" font-size="10.00" fill="#268bd2">1 values (1 sources)</text>
</g>
<!-- generate_dataset -->
<g id="node10" class="node">
<title>generate_dataset</title>
<path fill="none" stroke="#dc322f" d="M110,-326C110,-326 12,-326 12,-326 6,-326 0,-320 0,-314 0,-314 0,-298 0,-298 0,-292 6,-286 12,-286 12,-286 110,-286 110,-286 116,-286 122,-292 122,-298 122,-298 122,-314 122,-314 122,-320 116,-326 110,-326"/>
<text text-anchor="start" x="8" y="-313.4" font-family="RobotoMono" font-weight="bold" font-size="12.00" fill="#002b36">generate_dataset</text>
<text text-anchor="start" x="8" y="-303" font-family="RobotoMono" font-size="10.00" fill="#002b36">@op:generate_dataset</text>
<text text-anchor="start" x="47" y="-293" font-family="RobotoMono" font-size="10.00" fill="#dc322f">1 calls</text>
</g>
<!-- random_seed&#45;&gt;generate_dataset -->
<g id="edge6" class="edge">
<title>random_seed&#45;&gt;generate_dataset</title>
<path fill="none" stroke="#002b36" d="M60.18,-383.76C60.32,-370.5 60.52,-351.86 60.69,-336.27"/>
<polygon fill="#002b36" stroke="#002b36" points="64.19,-336.11 60.8,-326.07 57.19,-336.03 64.19,-336.11"/>
<text text-anchor="middle" x="93" y="-358" font-family="RobotoMono" font-size="10.00" fill="#002b36">random_seed</text>
<text text-anchor="middle" x="93" y="-347" font-family="RobotoMono" font-size="10.00" fill="#002b36">(1 values)</text>
</g>
<!-- v -->
<g id="node4" class="node">
<title>v</title>
<path fill="none" stroke="#268bd2" d="M238.5,-36C238.5,-36 169.5,-36 169.5,-36 163.5,-36 157.5,-30 157.5,-24 157.5,-24 157.5,-12 157.5,-12 157.5,-6 163.5,0 169.5,0 169.5,0 238.5,0 238.5,0 244.5,0 250.5,-6 250.5,-12 250.5,-12 250.5,-24 250.5,-24 250.5,-30 244.5,-36 238.5,-36"/>
<text text-anchor="start" x="200.5" y="-20.4" font-family="RobotoMono" font-weight="bold" font-size="12.00" fill="#002b36">v</text>
<text text-anchor="start" x="165.5" y="-10" font-family="RobotoMono" font-size="10.00" fill="#268bd2">1 values (1 sinks)</text>
</g>
<!-- model -->
<g id="node5" class="node">
<title>model</title>
<path fill="none" stroke="#268bd2" d="M320,-228C320,-228 290,-228 290,-228 284,-228 278,-222 278,-216 278,-216 278,-204 278,-204 278,-198 284,-192 290,-192 290,-192 320,-192 320,-192 326,-192 332,-198 332,-204 332,-204 332,-216 332,-216 332,-222 326,-228 320,-228"/>
<text text-anchor="start" x="286" y="-212.4" font-family="RobotoMono" font-weight="bold" font-size="12.00" fill="#002b36">model</text>
<text text-anchor="start" x="286" y="-202" font-family="RobotoMono" font-size="10.00" fill="#268bd2">1 values</text>
</g>
<!-- eval_model -->
<g id="node11" class="node">
<title>eval_model</title>
<path fill="none" stroke="#dc322f" d="M238,-134C238,-134 170,-134 170,-134 164,-134 158,-128 158,-122 158,-122 158,-106 158,-106 158,-100 164,-94 170,-94 170,-94 238,-94 238,-94 244,-94 250,-100 250,-106 250,-106 250,-122 250,-122 250,-128 244,-134 238,-134"/>
<text text-anchor="start" x="170" y="-121.4" font-family="RobotoMono" font-weight="bold" font-size="12.00" fill="#002b36">eval_model</text>
<text text-anchor="start" x="166" y="-111" font-family="RobotoMono" font-size="10.00" fill="#002b36">@op:eval_model</text>
<text text-anchor="start" x="190" y="-101" font-family="RobotoMono" font-size="10.00" fill="#dc322f">1 calls</text>
</g>
<!-- model&#45;&gt;eval_model -->
<g id="edge4" class="edge">
<title>model&#45;&gt;eval_model</title>
<path fill="none" stroke="#002b36" d="M290.38,-191.84C280.1,-180.15 265.78,-164.56 252,-152 247.67,-148.05 242.94,-144.06 238.21,-140.25"/>
<polygon fill="#002b36" stroke="#002b36" points="240.32,-137.45 230.29,-134.02 235.99,-142.96 240.32,-137.45"/>
<text text-anchor="middle" x="296" y="-166" font-family="RobotoMono" font-size="10.00" fill="#002b36">model</text>
<text text-anchor="middle" x="296" y="-155" font-family="RobotoMono" font-size="10.00" fill="#002b36">(1 values)</text>
</g>
<!-- y_test -->
<g id="node6" class="node">
<title>y_test</title>
<path fill="none" stroke="#268bd2" d="M245,-228C245,-228 163,-228 163,-228 157,-228 151,-222 151,-216 151,-216 151,-204 151,-204 151,-198 157,-192 163,-192 163,-192 245,-192 245,-192 251,-192 257,-198 257,-204 257,-204 257,-216 257,-216 257,-222 251,-228 245,-228"/>
<text text-anchor="start" x="186" y="-212.4" font-family="RobotoMono" font-weight="bold" font-size="12.00" fill="#002b36">y_test</text>
<text text-anchor="start" x="159" y="-202" font-family="RobotoMono" font-size="10.00" fill="#268bd2">1 values (1 sources)</text>
</g>
<!-- y_test&#45;&gt;eval_model -->
<g id="edge2" class="edge">
<title>y_test&#45;&gt;eval_model</title>
<path fill="none" stroke="#002b36" d="M204,-191.76C204,-178.5 204,-159.86 204,-144.27"/>
<polygon fill="#002b36" stroke="#002b36" points="207.5,-144.07 204,-134.07 200.5,-144.07 207.5,-144.07"/>
<text text-anchor="middle" x="226" y="-166" font-family="RobotoMono" font-size="10.00" fill="#002b36">y_test</text>
<text text-anchor="middle" x="226" y="-155" font-family="RobotoMono" font-size="10.00" fill="#002b36">(1 values)</text>
</g>
<!-- X_test -->
<g id="node7" class="node">
<title>X_test</title>
<path fill="none" stroke="#268bd2" d="M115,-228C115,-228 85,-228 85,-228 79,-228 73,-222 73,-216 73,-216 73,-204 73,-204 73,-198 79,-192 85,-192 85,-192 115,-192 115,-192 121,-192 127,-198 127,-204 127,-204 127,-216 127,-216 127,-222 121,-228 115,-228"/>
<text text-anchor="start" x="81.5" y="-212.4" font-family="RobotoMono" font-weight="bold" font-size="12.00" fill="#002b36">X_test</text>
<text text-anchor="start" x="81" y="-202" font-family="RobotoMono" font-size="10.00" fill="#268bd2">1 values</text>
</g>
<!-- X_test&#45;&gt;eval_model -->
<g id="edge3" class="edge">
<title>X_test&#45;&gt;eval_model</title>
<path fill="none" stroke="#002b36" d="M115.6,-191.93C126.52,-180.27 141.68,-164.7 156,-152 160.39,-148.11 165.14,-144.16 169.89,-140.36"/>
<polygon fill="#002b36" stroke="#002b36" points="172.11,-143.07 177.82,-134.14 167.79,-137.56 172.11,-143.07"/>
<text text-anchor="middle" x="178" y="-166" font-family="RobotoMono" font-size="10.00" fill="#002b36">X_test</text>
<text text-anchor="middle" x="178" y="-155" font-family="RobotoMono" font-size="10.00" fill="#002b36">(1 values)</text>
</g>
<!-- y_train -->
<g id="node8" class="node">
<title>y_train</title>
<path fill="none" stroke="#268bd2" d="M349,-420C349,-420 267,-420 267,-420 261,-420 255,-414 255,-408 255,-408 255,-396 255,-396 255,-390 261,-384 267,-384 267,-384 349,-384 349,-384 355,-384 361,-390 361,-396 361,-396 361,-408 361,-408 361,-414 355,-420 349,-420"/>
<text text-anchor="start" x="286.5" y="-404.4" font-family="RobotoMono" font-weight="bold" font-size="12.00" fill="#002b36">y_train</text>
<text text-anchor="start" x="263" y="-394" font-family="RobotoMono" font-size="10.00" fill="#268bd2">1 values (1 sources)</text>
</g>
<!-- y_train&#45;&gt;train_model -->
<g id="edge10" class="edge">
<title>y_train&#45;&gt;train_model</title>
<path fill="none" stroke="#002b36" d="M307.82,-383.76C307.68,-370.5 307.48,-351.86 307.31,-336.27"/>
<polygon fill="#002b36" stroke="#002b36" points="310.81,-336.03 307.2,-326.07 303.81,-336.11 310.81,-336.03"/>
<text text-anchor="middle" x="329" y="-358" font-family="RobotoMono" font-size="10.00" fill="#002b36">y_train</text>
<text text-anchor="middle" x="329" y="-347" font-family="RobotoMono" font-size="10.00" fill="#002b36">(1 values)</text>
</g>
<!-- train_model&#45;&gt;model -->
<g id="edge7" class="edge">
<title>train_model&#45;&gt;model</title>
<path fill="none" stroke="#002b36" d="M306.6,-285.98C306.31,-272.34 305.91,-253.75 305.59,-238.5"/>
<polygon fill="#002b36" stroke="#002b36" points="309.08,-238.02 305.36,-228.1 302.08,-238.17 309.08,-238.02"/>
<text text-anchor="middle" x="328" y="-260" font-family="RobotoMono" font-size="10.00" fill="#002b36">output_0</text>
<text text-anchor="middle" x="328" y="-249" font-family="RobotoMono" font-size="10.00" fill="#002b36">(1 values)</text>
</g>
<!-- generate_dataset&#45;&gt;X_test -->
<g id="edge5" class="edge">
<title>generate_dataset&#45;&gt;X_test</title>
<path fill="none" stroke="#002b36" d="M68.89,-285.98C74.66,-272.07 82.56,-253.03 88.96,-237.61"/>
<polygon fill="#002b36" stroke="#002b36" points="92.31,-238.68 92.91,-228.1 85.84,-235.99 92.31,-238.68"/>
<text text-anchor="middle" x="108" y="-260" font-family="RobotoMono" font-size="10.00" fill="#002b36">output_1</text>
<text text-anchor="middle" x="108" y="-249" font-family="RobotoMono" font-size="10.00" fill="#002b36">(1 values)</text>
</g>
<!-- eval_model&#45;&gt;v -->
<g id="edge1" class="edge">
<title>eval_model&#45;&gt;v</title>
<path fill="none" stroke="#002b36" d="M204,-93.98C204,-80.34 204,-61.75 204,-46.5"/>
<polygon fill="#002b36" stroke="#002b36" points="207.5,-46.1 204,-36.1 200.5,-46.1 207.5,-46.1"/>
<text text-anchor="middle" x="226" y="-68" font-family="RobotoMono" font-size="10.00" fill="#002b36">output_0</text>
<text text-anchor="middle" x="226" y="-57" font-family="RobotoMono" font-size="10.00" fill="#002b36">(1 values)</text>
</g>
</g>
</svg>
