<?xml version="1.0" encoding="UTF-8" standalone="no"?>
<!DOCTYPE svg PUBLIC "-//W3C//DTD SVG 1.1//EN"
 "http://www.w3.org/Graphics/SVG/1.1/DTD/svg11.dtd">
<!-- Generated by graphviz version 2.50.0 (0)
 -->
<!-- Title: G Pages: 1 -->
<svg width="270pt" height="620pt"
 viewBox="0.00 0.00 269.50 620.00" xmlns="http://www.w3.org/2000/svg" xmlns:xlink="http://www.w3.org/1999/xlink">
<g id="graph0" class="graph" transform="scale(1 1) rotate(0) translate(4 616)">
<title>G</title>
<polygon fill="white" stroke="transparent" points="-4,4 -4,-616 265.5,-616 265.5,4 -4,4"/>
<!-- y_train -->
<g id="node1" class="node">
<title>y_train</title>
<path fill="none" stroke="#268bd2" d="M47,-420C47,-420 12,-420 12,-420 6,-420 0,-414 0,-408 0,-408 0,-396 0,-396 0,-390 6,-384 12,-384 12,-384 47,-384 47,-384 53,-384 59,-390 59,-396 59,-396 59,-408 59,-408 59,-414 53,-420 47,-420"/>
<text text-anchor="start" x="8" y="-404.4" font-family="RobotoMono" font-weight="bold" font-size="12.00" fill="#002b36">y_train</text>
<text text-anchor="start" x="10.5" y="-394" font-family="RobotoMono" font-size="10.00" fill="#268bd2">1 values</text>
</g>
<!-- train_model -->
<g id="node10" class="node">
<title>train_model</title>
<path fill="none" stroke="#dc322f" d="M143,-326C143,-326 72,-326 72,-326 66,-326 60,-320 60,-314 60,-314 60,-298 60,-298 60,-292 66,-286 72,-286 72,-286 143,-286 143,-286 149,-286 155,-292 155,-298 155,-298 155,-314 155,-314 155,-320 149,-326 143,-326"/>
<text text-anchor="start" x="71" y="-313.4" font-family="RobotoMono" font-weight="bold" font-size="12.00" fill="#002b36">train_model</text>
<text text-anchor="start" x="68" y="-303" font-family="RobotoMono" font-size="10.00" fill="#002b36">@op:train_model</text>
<text text-anchor="start" x="93.5" y="-293" font-family="RobotoMono" font-size="10.00" fill="#dc322f">4 calls</text>
</g>
<!-- y_train&#45;&gt;train_model -->
<g id="edge3" class="edge">
<title>y_train&#45;&gt;train_model</title>
<path fill="none" stroke="#002b36" d="M36.19,-383.88C41.4,-371.91 49.42,-355.98 59.5,-344 62.84,-340.03 66.68,-336.21 70.7,-332.63"/>
<polygon fill="#002b36" stroke="#002b36" points="73.12,-335.18 78.57,-326.09 68.64,-329.79 73.12,-335.18"/>
<text text-anchor="middle" x="81.5" y="-358" font-family="RobotoMono" font-size="10.00" fill="#002b36">y_train</text>
<text text-anchor="middle" x="81.5" y="-347" font-family="RobotoMono" font-size="10.00" fill="#002b36">(1 values)</text>
</g>
<!-- X_train -->
<g id="node2" class="node">
<title>X_train</title>
<path fill="none" stroke="#268bd2" d="M125.5,-420C125.5,-420 89.5,-420 89.5,-420 83.5,-420 77.5,-414 77.5,-408 77.5,-408 77.5,-396 77.5,-396 77.5,-390 83.5,-384 89.5,-384 89.5,-384 125.5,-384 125.5,-384 131.5,-384 137.5,-390 137.5,-396 137.5,-396 137.5,-408 137.5,-408 137.5,-414 131.5,-420 125.5,-420"/>
<text text-anchor="start" x="85.5" y="-404.4" font-family="RobotoMono" font-weight="bold" font-size="12.00" fill="#002b36">X_train</text>
<text text-anchor="start" x="88.5" y="-394" font-family="RobotoMono" font-size="10.00" fill="#268bd2">1 values</text>
</g>
<!-- X_train&#45;&gt;train_model -->
<g id="edge4" class="edge">
<title>X_train&#45;&gt;train_model</title>
<path fill="none" stroke="#002b36" d="M107.5,-383.76C107.5,-370.5 107.5,-351.86 107.5,-336.27"/>
<polygon fill="#002b36" stroke="#002b36" points="111,-336.07 107.5,-326.07 104,-336.07 111,-336.07"/>
<text text-anchor="middle" x="129.5" y="-358" font-family="RobotoMono" font-size="10.00" fill="#002b36">X_train</text>
<text text-anchor="middle" x="129.5" y="-347" font-family="RobotoMono" font-size="10.00" fill="#002b36">(1 values)</text>
</g>
<!-- output_0 -->
<g id="node3" class="node">
<title>output_0</title>
<path fill="none" stroke="#268bd2" d="M87,-228C87,-228 18,-228 18,-228 12,-228 6,-222 6,-216 6,-216 6,-204 6,-204 6,-198 12,-192 18,-192 18,-192 87,-192 87,-192 93,-192 99,-198 99,-204 99,-204 99,-216 99,-216 99,-222 93,-228 87,-228"/>
<text text-anchor="start" x="25" y="-212.4" font-family="RobotoMono" font-weight="bold" font-size="12.00" fill="#002b36">output_0</text>
<text text-anchor="start" x="14" y="-202" font-family="RobotoMono" font-size="10.00" fill="#268bd2">4 values (2 sinks)</text>
</g>
<!-- eval_model -->
<g id="node9" class="node">
<title>eval_model</title>
<path fill="none" stroke="#dc322f" d="M86.5,-134C86.5,-134 18.5,-134 18.5,-134 12.5,-134 6.5,-128 6.5,-122 6.5,-122 6.5,-106 6.5,-106 6.5,-100 12.5,-94 18.5,-94 18.5,-94 86.5,-94 86.5,-94 92.5,-94 98.5,-100 98.5,-106 98.5,-106 98.5,-122 98.5,-122 98.5,-128 92.5,-134 86.5,-134"/>
<text text-anchor="start" x="18.5" y="-121.4" font-family="RobotoMono" font-weight="bold" font-size="12.00" fill="#002b36">eval_model</text>
<text text-anchor="start" x="14.5" y="-111" font-family="RobotoMono" font-size="10.00" fill="#002b36">@op:eval_model</text>
<text text-anchor="start" x="38.5" y="-101" font-family="RobotoMono" font-size="10.00" fill="#dc322f">2 calls</text>
</g>
<!-- output_0&#45;&gt;eval_model -->
<g id="edge6" class="edge">
<title>output_0&#45;&gt;eval_model</title>
<path fill="none" stroke="#002b36" d="M52.5,-191.76C52.5,-178.5 52.5,-159.86 52.5,-144.27"/>
<polygon fill="#002b36" stroke="#002b36" points="56,-144.07 52.5,-134.07 49,-144.07 56,-144.07"/>
<text text-anchor="middle" x="74.5" y="-166" font-family="RobotoMono" font-size="10.00" fill="#002b36">model</text>
<text text-anchor="middle" x="74.5" y="-155" font-family="RobotoMono" font-size="10.00" fill="#002b36">(2 values)</text>
</g>
<!-- output_0_0 -->
<g id="node4" class="node">
<title>output_0_0</title>
<path fill="none" stroke="#268bd2" d="M87,-36C87,-36 18,-36 18,-36 12,-36 6,-30 6,-24 6,-24 6,-12 6,-12 6,-6 12,0 18,0 18,0 87,0 87,0 93,0 99,-6 99,-12 99,-12 99,-24 99,-24 99,-30 93,-36 87,-36"/>
<text text-anchor="start" x="19" y="-20.4" font-family="RobotoMono" font-weight="bold" font-size="12.00" fill="#002b36">output_0_0</text>
<text text-anchor="start" x="14" y="-10" font-family="RobotoMono" font-size="10.00" fill="#268bd2">2 values (2 sinks)</text>
</g>
<!-- random_seed -->
<g id="node5" class="node">
<title>random_seed</title>
<path fill="none" stroke="#268bd2" d="M108.5,-612C108.5,-612 26.5,-612 26.5,-612 20.5,-612 14.5,-606 14.5,-600 14.5,-600 14.5,-588 14.5,-588 14.5,-582 20.5,-576 26.5,-576 26.5,-576 108.5,-576 108.5,-576 114.5,-576 120.5,-582 120.5,-588 120.5,-588 120.5,-600 120.5,-600 120.5,-606 114.5,-612 108.5,-612"/>
<text text-anchor="start" x="27" y="-596.4" font-family="RobotoMono" font-weight="bold" font-size="12.00" fill="#002b36">random_seed</text>
<text text-anchor="start" x="22.5" y="-586" font-family="RobotoMono" font-size="10.00" fill="#268bd2">1 values (1 sources)</text>
</g>
<!-- generate_dataset -->
<g id="node8" class="node">
<title>generate_dataset</title>
<path fill="none" stroke="#dc322f" d="M116.5,-518C116.5,-518 18.5,-518 18.5,-518 12.5,-518 6.5,-512 6.5,-506 6.5,-506 6.5,-490 6.5,-490 6.5,-484 12.5,-478 18.5,-478 18.5,-478 116.5,-478 116.5,-478 122.5,-478 128.5,-484 128.5,-490 128.5,-490 128.5,-506 128.5,-506 128.5,-512 122.5,-518 116.5,-518"/>
<text text-anchor="start" x="14.5" y="-505.4" font-family="RobotoMono" font-weight="bold" font-size="12.00" fill="#002b36">generate_dataset</text>
<text text-anchor="start" x="14.5" y="-495" font-family="RobotoMono" font-size="10.00" fill="#002b36">@op:generate_dataset</text>
<text text-anchor="start" x="53.5" y="-485" font-family="RobotoMono" font-size="10.00" fill="#dc322f">1 calls</text>
</g>
<!-- random_seed&#45;&gt;generate_dataset -->
<g id="edge9" class="edge">
<title>random_seed&#45;&gt;generate_dataset</title>
<path fill="none" stroke="#002b36" d="M67.5,-575.76C67.5,-562.5 67.5,-543.86 67.5,-528.27"/>
<polygon fill="#002b36" stroke="#002b36" points="71,-528.07 67.5,-518.07 64,-528.07 71,-528.07"/>
<text text-anchor="middle" x="99.5" y="-550" font-family="RobotoMono" font-size="10.00" fill="#002b36">random_seed</text>
<text text-anchor="middle" x="99.5" y="-539" font-family="RobotoMono" font-size="10.00" fill="#002b36">(1 values)</text>
</g>
<!-- n_estimators -->
<g id="node6" class="node">
<title>n_estimators</title>
<path fill="none" stroke="#268bd2" d="M249.5,-420C249.5,-420 167.5,-420 167.5,-420 161.5,-420 155.5,-414 155.5,-408 155.5,-408 155.5,-396 155.5,-396 155.5,-390 161.5,-384 167.5,-384 167.5,-384 249.5,-384 249.5,-384 255.5,-384 261.5,-390 261.5,-396 261.5,-396 261.5,-408 261.5,-408 261.5,-414 255.5,-420 249.5,-420"/>
<text text-anchor="start" x="169" y="-404.4" font-family="RobotoMono" font-weight="bold" font-size="12.00" fill="#002b36">n_estimators</text>
<text text-anchor="start" x="163.5" y="-394" font-family="RobotoMono" font-size="10.00" fill="#268bd2">4 values (4 sources)</text>
</g>
<!-- n_estimators&#45;&gt;train_model -->
<g id="edge5" class="edge">
<title>n_estimators&#45;&gt;train_model</title>
<path fill="none" stroke="#002b36" d="M193.88,-383.84C183.6,-372.15 169.28,-356.56 155.5,-344 151.17,-340.05 146.44,-336.06 141.71,-332.25"/>
<polygon fill="#002b36" stroke="#002b36" points="143.82,-329.45 133.79,-326.02 139.49,-334.96 143.82,-329.45"/>
<text text-anchor="middle" x="207" y="-358" font-family="RobotoMono" font-size="10.00" fill="#002b36">n_estimators</text>
<text text-anchor="middle" x="207" y="-347" font-family="RobotoMono" font-size="10.00" fill="#002b36">(4 values)</text>
</g>
<!-- output_1 -->
<g id="node7" class="node">
<title>output_1</title>
<path fill="none" stroke="#268bd2" d="M198,-228C198,-228 129,-228 129,-228 123,-228 117,-222 117,-216 117,-216 117,-204 117,-204 117,-198 123,-192 129,-192 129,-192 198,-192 198,-192 204,-192 210,-198 210,-204 210,-204 210,-216 210,-216 210,-222 204,-228 198,-228"/>
<text text-anchor="start" x="136" y="-212.4" font-family="RobotoMono" font-weight="bold" font-size="12.00" fill="#002b36">output_1</text>
<text text-anchor="start" x="125" y="-202" font-family="RobotoMono" font-size="10.00" fill="#268bd2">4 values (4 sinks)</text>
</g>
<!-- generate_dataset&#45;&gt;y_train -->
<g id="edge8" class="edge">
<title>generate_dataset&#45;&gt;y_train</title>
<path fill="none" stroke="#002b36" d="M49.52,-477.85C45.3,-472.43 41.24,-466.29 38.5,-460 34.45,-450.69 32.19,-439.82 30.95,-430.08"/>
<polygon fill="#002b36" stroke="#002b36" points="34.43,-429.69 29.96,-420.09 27.46,-430.38 34.43,-429.69"/>
<text text-anchor="middle" x="60.5" y="-452" font-family="RobotoMono" font-size="10.00" fill="#002b36">output_2</text>
<text text-anchor="middle" x="60.5" y="-441" font-family="RobotoMono" font-size="10.00" fill="#002b36">(1 values)</text>
</g>
<!-- generate_dataset&#45;&gt;X_train -->
<g id="edge7" class="edge">
<title>generate_dataset&#45;&gt;X_train</title>
<path fill="none" stroke="#002b36" d="M75.59,-477.98C81.51,-464.07 89.62,-445.03 96.18,-429.61"/>
<polygon fill="#002b36" stroke="#002b36" points="99.53,-430.67 100.22,-420.1 93.09,-427.93 99.53,-430.67"/>
<text text-anchor="middle" x="113.5" y="-452" font-family="RobotoMono" font-size="10.00" fill="#002b36">output_0</text>
<text text-anchor="middle" x="113.5" y="-441" font-family="RobotoMono" font-size="10.00" fill="#002b36">(1 values)</text>
</g>
<!-- eval_model&#45;&gt;output_0_0 -->
<g id="edge10" class="edge">
<title>eval_model&#45;&gt;output_0_0</title>
<path fill="none" stroke="#002b36" d="M52.5,-93.98C52.5,-80.34 52.5,-61.75 52.5,-46.5"/>
<polygon fill="#002b36" stroke="#002b36" points="56,-46.1 52.5,-36.1 49,-46.1 56,-46.1"/>
<text text-anchor="middle" x="74.5" y="-68" font-family="RobotoMono" font-size="10.00" fill="#002b36">output_0</text>
<text text-anchor="middle" x="74.5" y="-57" font-family="RobotoMono" font-size="10.00" fill="#002b36">(2 values)</text>
</g>
<!-- train_model&#45;&gt;output_0 -->
<g id="edge2" class="edge">
<title>train_model&#45;&gt;output_0</title>
<path fill="none" stroke="#002b36" d="M96.37,-285.98C88.08,-271.81 76.67,-252.3 67.56,-236.74"/>
<polygon fill="#002b36" stroke="#002b36" points="70.58,-234.96 62.5,-228.1 64.53,-238.5 70.58,-234.96"/>
<text text-anchor="middle" x="106.5" y="-260" font-family="RobotoMono" font-size="10.00" fill="#002b36">output_0</text>
<text text-anchor="middle" x="106.5" y="-249" font-family="RobotoMono" font-size="10.00" fill="#002b36">(4 values)</text>
</g>
<!-- train_model&#45;&gt;output_1 -->
<g id="edge1" class="edge">
<title>train_model&#45;&gt;output_1</title>
<path fill="none" stroke="#002b36" d="M121.09,-285.64C124.9,-280.02 128.96,-273.83 132.5,-268 138.53,-258.08 144.73,-246.91 149.98,-237.1"/>
<polygon fill="#002b36" stroke="#002b36" points="153.11,-238.68 154.7,-228.2 146.92,-235.4 153.11,-238.68"/>
<text text-anchor="middle" x="166.5" y="-260" font-family="RobotoMono" font-size="10.00" fill="#002b36">output_1</text>
<text text-anchor="middle" x="166.5" y="-249" font-family="RobotoMono" font-size="10.00" fill="#002b36">(4 values)</text>
</g>
</g>
</svg>
