<?xml version="1.0" encoding="UTF-8" standalone="no"?>
<!DOCTYPE svg PUBLIC "-//W3C//DTD SVG 1.1//EN"
 "http://www.w3.org/Graphics/SVG/1.1/DTD/svg11.dtd">
<!-- Generated by graphviz version 2.50.0 (0)
 -->
<!-- Title: G Pages: 1 -->
<svg width="531pt" height="428pt"
 viewBox="0.00 0.00 531.00 428.00" xmlns="http://www.w3.org/2000/svg" xmlns:xlink="http://www.w3.org/1999/xlink">
<g id="graph0" class="graph" transform="scale(1 1) rotate(0) translate(4 424)">
<title>G</title>
<polygon fill="white" stroke="transparent" points="-4,4 -4,-424 527,-424 527,4 -4,4"/>
<!-- v -->
<g id="node1" class="node">
<title>v</title>
<path fill="none" stroke="#268bd2" d="M406.5,-36C406.5,-36 337.5,-36 337.5,-36 331.5,-36 325.5,-30 325.5,-24 325.5,-24 325.5,-12 325.5,-12 325.5,-6 331.5,0 337.5,0 337.5,0 406.5,0 406.5,0 412.5,0 418.5,-6 418.5,-12 418.5,-12 418.5,-24 418.5,-24 418.5,-30 412.5,-36 406.5,-36"/>
<text text-anchor="start" x="368.5" y="-20.4" font-family="RobotoMono" font-weight="bold" font-size="12.00" fill="#002b36">v</text>
<text text-anchor="start" x="333.5" y="-10" font-family="RobotoMono" font-size="10.00" fill="#268bd2">1 values (1 sinks)</text>
</g>
<!-- random_seed -->
<g id="node2" class="node">
<title>random_seed</title>
<path fill="none" stroke="#268bd2" d="M466,-420C466,-420 384,-420 384,-420 378,-420 372,-414 372,-408 372,-408 372,-396 372,-396 372,-390 378,-384 384,-384 384,-384 466,-384 466,-384 472,-384 478,-390 478,-396 478,-396 478,-408 478,-408 478,-414 472,-420 466,-420"/>
<text text-anchor="start" x="384.5" y="-404.4" font-family="RobotoMono" font-weight="bold" font-size="12.00" fill="#002b36">random_seed</text>
<text text-anchor="start" x="380" y="-394" font-family="RobotoMono" font-size="10.00" fill="#268bd2">1 values (1 sources)</text>
</g>
<!-- generate_dataset -->
<g id="node9" class="node">
<title>generate_dataset</title>
<path fill="none" stroke="#dc322f" d="M443,-326C443,-326 345,-326 345,-326 339,-326 333,-320 333,-314 333,-314 333,-298 333,-298 333,-292 339,-286 345,-286 345,-286 443,-286 443,-286 449,-286 455,-292 455,-298 455,-298 455,-314 455,-314 455,-320 449,-326 443,-326"/>
<text text-anchor="start" x="341" y="-313.4" font-family="RobotoMono" font-weight="bold" font-size="12.00" fill="#002b36">generate_dataset</text>
<text text-anchor="start" x="341" y="-303" font-family="RobotoMono" font-size="10.00" fill="#002b36">@op:generate_dataset</text>
<text text-anchor="start" x="380" y="-293" font-family="RobotoMono" font-size="10.00" fill="#dc322f">1 calls</text>
</g>
<!-- random_seed&#45;&gt;generate_dataset -->
<g id="edge6" class="edge">
<title>random_seed&#45;&gt;generate_dataset</title>
<path fill="none" stroke="#002b36" d="M419.31,-383.76C414.9,-370.37 408.68,-351.5 403.51,-335.82"/>
<polygon fill="#002b36" stroke="#002b36" points="406.75,-334.47 400.29,-326.07 400.1,-336.66 406.75,-334.47"/>
<text text-anchor="middle" x="445" y="-358" font-family="RobotoMono" font-size="10.00" fill="#002b36">random_seed</text>
<text text-anchor="middle" x="445" y="-347" font-family="RobotoMono" font-size="10.00" fill="#002b36">(1 values)</text>
</g>
<!-- X_train -->
<g id="node3" class="node">
<title>X_train</title>
<path fill="none" stroke="#268bd2" d="M94,-420C94,-420 12,-420 12,-420 6,-420 0,-414 0,-408 0,-408 0,-396 0,-396 0,-390 6,-384 12,-384 12,-384 94,-384 94,-384 100,-384 106,-390 106,-396 106,-396 106,-408 106,-408 106,-414 100,-420 94,-420"/>
<text text-anchor="start" x="31" y="-404.4" font-family="RobotoMono" font-weight="bold" font-size="12.00" fill="#002b36">X_train</text>
<text text-anchor="start" x="8" y="-394" font-family="RobotoMono" font-size="10.00" fill="#268bd2">1 values (1 sources)</text>
</g>
<!-- train_model -->
<g id="node10" class="node">
<title>train_model</title>
<path fill="none" stroke="#dc322f" d="M272.5,-326C272.5,-326 201.5,-326 201.5,-326 195.5,-326 189.5,-320 189.5,-314 189.5,-314 189.5,-298 189.5,-298 189.5,-292 195.5,-286 201.5,-286 201.5,-286 272.5,-286 272.5,-286 278.5,-286 284.5,-292 284.5,-298 284.5,-298 284.5,-314 284.5,-314 284.5,-320 278.5,-326 272.5,-326"/>
<text text-anchor="start" x="200.5" y="-313.4" font-family="RobotoMono" font-weight="bold" font-size="12.00" fill="#002b36">train_model</text>
<text text-anchor="start" x="197.5" y="-303" font-family="RobotoMono" font-size="10.00" fill="#002b36">@op:train_model</text>
<text text-anchor="start" x="223" y="-293" font-family="RobotoMono" font-size="10.00" fill="#dc322f">1 calls</text>
</g>
<!-- X_train&#45;&gt;train_model -->
<g id="edge10" class="edge">
<title>X_train&#45;&gt;train_model</title>
<path fill="none" stroke="#002b36" d="M80.71,-383.93C100.31,-372.14 127.38,-356.4 152,-344 161.37,-339.28 171.48,-334.57 181.34,-330.16"/>
<polygon fill="#002b36" stroke="#002b36" points="182.95,-333.28 190.69,-326.04 180.13,-326.87 182.95,-333.28"/>
<text text-anchor="middle" x="174" y="-358" font-family="RobotoMono" font-size="10.00" fill="#002b36">X_train</text>
<text text-anchor="middle" x="174" y="-347" font-family="RobotoMono" font-size="10.00" fill="#002b36">(1 values)</text>
</g>
<!-- y_train -->
<g id="node4" class="node">
<title>y_train</title>
<path fill="none" stroke="#268bd2" d="M218,-420C218,-420 136,-420 136,-420 130,-420 124,-414 124,-408 124,-408 124,-396 124,-396 124,-390 130,-384 136,-384 136,-384 218,-384 218,-384 224,-384 230,-390 230,-396 230,-396 230,-408 230,-408 230,-414 224,-420 218,-420"/>
<text text-anchor="start" x="155.5" y="-404.4" font-family="RobotoMono" font-weight="bold" font-size="12.00" fill="#002b36">y_train</text>
<text text-anchor="start" x="132" y="-394" font-family="RobotoMono" font-size="10.00" fill="#268bd2">1 values (1 sources)</text>
</g>
<!-- y_train&#45;&gt;train_model -->
<g id="edge8" class="edge">
<title>y_train&#45;&gt;train_model</title>
<path fill="none" stroke="#002b36" d="M188,-383.76C196.72,-370.11 209.06,-350.78 219.17,-334.93"/>
<polygon fill="#002b36" stroke="#002b36" points="222.4,-336.38 224.83,-326.07 216.5,-332.62 222.4,-336.38"/>
<text text-anchor="middle" x="235" y="-358" font-family="RobotoMono" font-size="10.00" fill="#002b36">y_train</text>
<text text-anchor="middle" x="235" y="-347" font-family="RobotoMono" font-size="10.00" fill="#002b36">(1 values)</text>
</g>
<!-- model -->
<g id="node5" class="node">
<title>model</title>
<path fill="none" stroke="#268bd2" d="M293,-228C293,-228 263,-228 263,-228 257,-228 251,-222 251,-216 251,-216 251,-204 251,-204 251,-198 257,-192 263,-192 263,-192 293,-192 293,-192 299,-192 305,-198 305,-204 305,-204 305,-216 305,-216 305,-222 299,-228 293,-228"/>
<text text-anchor="start" x="259" y="-212.4" font-family="RobotoMono" font-weight="bold" font-size="12.00" fill="#002b36">model</text>
<text text-anchor="start" x="259" y="-202" font-family="RobotoMono" font-size="10.00" fill="#268bd2">1 values</text>
</g>
<!-- eval_model -->
<g id="node11" class="node">
<title>eval_model</title>
<path fill="none" stroke="#dc322f" d="M406,-134C406,-134 338,-134 338,-134 332,-134 326,-128 326,-122 326,-122 326,-106 326,-106 326,-100 332,-94 338,-94 338,-94 406,-94 406,-94 412,-94 418,-100 418,-106 418,-106 418,-122 418,-122 418,-128 412,-134 406,-134"/>
<text text-anchor="start" x="338" y="-121.4" font-family="RobotoMono" font-weight="bold" font-size="12.00" fill="#002b36">eval_model</text>
<text text-anchor="start" x="334" y="-111" font-family="RobotoMono" font-size="10.00" fill="#002b36">@op:eval_model</text>
<text text-anchor="start" x="358" y="-101" font-family="RobotoMono" font-size="10.00" fill="#dc322f">1 calls</text>
</g>
<!-- model&#45;&gt;eval_model -->
<g id="edge4" class="edge">
<title>model&#45;&gt;eval_model</title>
<path fill="none" stroke="#002b36" d="M290.12,-191.91C298.89,-180.1 311.36,-164.36 324,-152 328,-148.09 332.4,-144.21 336.87,-140.52"/>
<polygon fill="#002b36" stroke="#002b36" points="339.28,-143.07 344.92,-134.1 334.92,-137.6 339.28,-143.07"/>
<text text-anchor="middle" x="346" y="-166" font-family="RobotoMono" font-size="10.00" fill="#002b36">model</text>
<text text-anchor="middle" x="346" y="-155" font-family="RobotoMono" font-size="10.00" fill="#002b36">(1 values)</text>
</g>
<!-- n_estimators -->
<g id="node6" class="node">
<title>n_estimators</title>
<path fill="none" stroke="#268bd2" d="M342,-420C342,-420 260,-420 260,-420 254,-420 248,-414 248,-408 248,-408 248,-396 248,-396 248,-390 254,-384 260,-384 260,-384 342,-384 342,-384 348,-384 354,-390 354,-396 354,-396 354,-408 354,-408 354,-414 348,-420 342,-420"/>
<text text-anchor="start" x="261.5" y="-404.4" font-family="RobotoMono" font-weight="bold" font-size="12.00" fill="#002b36">n_estimators</text>
<text text-anchor="start" x="256" y="-394" font-family="RobotoMono" font-size="10.00" fill="#268bd2">1 values (1 sources)</text>
</g>
<!-- n_estimators&#45;&gt;train_model -->
<g id="edge9" class="edge">
<title>n_estimators&#45;&gt;train_model</title>
<path fill="none" stroke="#002b36" d="M289.26,-383.76C279.88,-369.99 266.56,-350.42 255.72,-334.49"/>
<polygon fill="#002b36" stroke="#002b36" points="258.51,-332.37 249.99,-326.07 252.72,-336.31 258.51,-332.37"/>
<text text-anchor="middle" x="307.5" y="-358" font-family="RobotoMono" font-size="10.00" fill="#002b36">n_estimators</text>
<text text-anchor="middle" x="307.5" y="-347" font-family="RobotoMono" font-size="10.00" fill="#002b36">(1 values)</text>
</g>
<!-- X_test -->
<g id="node7" class="node">
<title>X_test</title>
<path fill="none" stroke="#268bd2" d="M387,-228C387,-228 357,-228 357,-228 351,-228 345,-222 345,-216 345,-216 345,-204 345,-204 345,-198 351,-192 357,-192 357,-192 387,-192 387,-192 393,-192 399,-198 399,-204 399,-204 399,-216 399,-216 399,-222 393,-228 387,-228"/>
<text text-anchor="start" x="353.5" y="-212.4" font-family="RobotoMono" font-weight="bold" font-size="12.00" fill="#002b36">X_test</text>
<text text-anchor="start" x="353" y="-202" font-family="RobotoMono" font-size="10.00" fill="#268bd2">1 values</text>
</g>
<!-- X_test&#45;&gt;eval_model -->
<g id="edge2" class="edge">
<title>X_test&#45;&gt;eval_model</title>
<path fill="none" stroke="#002b36" d="M372,-191.76C372,-178.5 372,-159.86 372,-144.27"/>
<polygon fill="#002b36" stroke="#002b36" points="375.5,-144.07 372,-134.07 368.5,-144.07 375.5,-144.07"/>
<text text-anchor="middle" x="394" y="-166" font-family="RobotoMono" font-size="10.00" fill="#002b36">X_test</text>
<text text-anchor="middle" x="394" y="-155" font-family="RobotoMono" font-size="10.00" fill="#002b36">(1 values)</text>
</g>
<!-- y_test -->
<g id="node8" class="node">
<title>y_test</title>
<path fill="none" stroke="#268bd2" d="M511,-228C511,-228 429,-228 429,-228 423,-228 417,-222 417,-216 417,-216 417,-204 417,-204 417,-198 423,-192 429,-192 429,-192 511,-192 511,-192 517,-192 523,-198 523,-204 523,-204 523,-216 523,-216 523,-222 517,-228 511,-228"/>
<text text-anchor="start" x="452" y="-212.4" font-family="RobotoMono" font-weight="bold" font-size="12.00" fill="#002b36">y_test</text>
<text text-anchor="start" x="425" y="-202" font-family="RobotoMono" font-size="10.00" fill="#268bd2">1 values (1 sources)</text>
</g>
<!-- y_test&#45;&gt;eval_model -->
<g id="edge3" class="edge">
<title>y_test&#45;&gt;eval_model</title>
<path fill="none" stroke="#002b36" d="M456.37,-191.76C446.74,-180.02 433.25,-164.43 420,-152 415.88,-148.13 411.37,-144.25 406.82,-140.54"/>
<polygon fill="#002b36" stroke="#002b36" points="408.67,-137.55 398.66,-134.09 404.33,-143.04 408.67,-137.55"/>
<text text-anchor="middle" x="462" y="-166" font-family="RobotoMono" font-size="10.00" fill="#002b36">y_test</text>
<text text-anchor="middle" x="462" y="-155" font-family="RobotoMono" font-size="10.00" fill="#002b36">(1 values)</text>
</g>
<!-- generate_dataset&#45;&gt;X_test -->
<g id="edge5" class="edge">
<title>generate_dataset&#45;&gt;X_test</title>
<path fill="none" stroke="#002b36" d="M389.55,-285.98C386.32,-272.2 381.92,-253.39 378.33,-238.05"/>
<polygon fill="#002b36" stroke="#002b36" points="381.69,-237.04 376,-228.1 374.87,-238.63 381.69,-237.04"/>
<text text-anchor="middle" x="406" y="-260" font-family="RobotoMono" font-size="10.00" fill="#002b36">output_1</text>
<text text-anchor="middle" x="406" y="-249" font-family="RobotoMono" font-size="10.00" fill="#002b36">(1 values)</text>
</g>
<!-- train_model&#45;&gt;model -->
<g id="edge7" class="edge">
<title>train_model&#45;&gt;model</title>
<path fill="none" stroke="#002b36" d="M245.3,-285.98C251.36,-272.07 259.67,-253.03 266.39,-237.61"/>
<polygon fill="#002b36" stroke="#002b36" points="269.75,-238.66 270.54,-228.1 263.34,-235.86 269.75,-238.66"/>
<text text-anchor="middle" x="285" y="-260" font-family="RobotoMono" font-size="10.00" fill="#002b36">output_0</text>
<text text-anchor="middle" x="285" y="-249" font-family="RobotoMono" font-size="10.00" fill="#002b36">(1 values)</text>
</g>
<!-- eval_model&#45;&gt;v -->
<g id="edge1" class="edge">
<title>eval_model&#45;&gt;v</title>
<path fill="none" stroke="#002b36" d="M372,-93.98C372,-80.34 372,-61.75 372,-46.5"/>
<polygon fill="#002b36" stroke="#002b36" points="375.5,-46.1 372,-36.1 368.5,-46.1 375.5,-46.1"/>
<text text-anchor="middle" x="394" y="-68" font-family="RobotoMono" font-size="10.00" fill="#002b36">output_0</text>
<text text-anchor="middle" x="394" y="-57" font-family="RobotoMono" font-size="10.00" fill="#002b36">(1 values)</text>
</g>
</g>
</svg>
