<?xml version="1.0" encoding="UTF-8" standalone="no"?>
<!DOCTYPE svg PUBLIC "-//W3C//DTD SVG 1.1//EN"
 "http://www.w3.org/Graphics/SVG/1.1/DTD/svg11.dtd">
<!-- Generated by graphviz version 2.50.0 (0)
 -->
<!-- Title: G Pages: 1 -->
<svg width="270pt" height="620pt"
 viewBox="0.00 0.00 270.00 620.00" xmlns="http://www.w3.org/2000/svg" xmlns:xlink="http://www.w3.org/1999/xlink">
<g id="graph0" class="graph" transform="scale(1 1) rotate(0) translate(4 616)">
<title>G</title>
<polygon fill="white" stroke="transparent" points="-4,4 -4,-616 266,-616 266,4 -4,4"/>
<!-- random_seed -->
<g id="node1" class="node">
<title>random_seed</title>
<path fill="none" stroke="#268bd2" d="M109,-612C109,-612 27,-612 27,-612 21,-612 15,-606 15,-600 15,-600 15,-588 15,-588 15,-582 21,-576 27,-576 27,-576 109,-576 109,-576 115,-576 121,-582 121,-588 121,-588 121,-600 121,-600 121,-606 115,-612 109,-612"/>
<text text-anchor="start" x="27.5" y="-596.4" font-family="RobotoMono" font-weight="bold" font-size="12.00" fill="#002b36">random_seed</text>
<text text-anchor="start" x="23" y="-586" font-family="RobotoMono" font-size="10.00" fill="#268bd2">1 values (1 sources)</text>
</g>
<!-- generate_dataset -->
<g id="node8" class="node">
<title>generate_dataset</title>
<path fill="none" stroke="#dc322f" d="M117,-518C117,-518 19,-518 19,-518 13,-518 7,-512 7,-506 7,-506 7,-490 7,-490 7,-484 13,-478 19,-478 19,-478 117,-478 117,-478 123,-478 129,-484 129,-490 129,-490 129,-506 129,-506 129,-512 123,-518 117,-518"/>
<text text-anchor="start" x="15" y="-505.4" font-family="RobotoMono" font-weight="bold" font-size="12.00" fill="#002b36">generate_dataset</text>
<text text-anchor="start" x="15" y="-495" font-family="RobotoMono" font-size="10.00" fill="#002b36">@op:generate_dataset</text>
<text text-anchor="start" x="54" y="-485" font-family="RobotoMono" font-size="10.00" fill="#dc322f">1 calls</text>
</g>
<!-- random_seed&#45;&gt;generate_dataset -->
<g id="edge9" class="edge">
<title>random_seed&#45;&gt;generate_dataset</title>
<path fill="none" stroke="#002b36" d="M68,-575.76C68,-562.5 68,-543.86 68,-528.27"/>
<polygon fill="#002b36" stroke="#002b36" points="71.5,-528.07 68,-518.07 64.5,-528.07 71.5,-528.07"/>
<text text-anchor="middle" x="100" y="-550" font-family="RobotoMono" font-size="10.00" fill="#002b36">random_seed</text>
<text text-anchor="middle" x="100" y="-539" font-family="RobotoMono" font-size="10.00" fill="#002b36">(1 values)</text>
</g>
<!-- X_train -->
<g id="node2" class="node">
<title>X_train</title>
<path fill="none" stroke="#268bd2" d="M48,-420C48,-420 12,-420 12,-420 6,-420 0,-414 0,-408 0,-408 0,-396 0,-396 0,-390 6,-384 12,-384 12,-384 48,-384 48,-384 54,-384 60,-390 60,-396 60,-396 60,-408 60,-408 60,-414 54,-420 48,-420"/>
<text text-anchor="start" x="8" y="-404.4" font-family="RobotoMono" font-weight="bold" font-size="12.00" fill="#002b36">X_train</text>
<text text-anchor="start" x="11" y="-394" font-family="RobotoMono" font-size="10.00" fill="#268bd2">1 values</text>
</g>
<!-- train_model -->
<g id="node9" class="node">
<title>train_model</title>
<path fill="none" stroke="#dc322f" d="M143.5,-326C143.5,-326 72.5,-326 72.5,-326 66.5,-326 60.5,-320 60.5,-314 60.5,-314 60.5,-298 60.5,-298 60.5,-292 66.5,-286 72.5,-286 72.5,-286 143.5,-286 143.5,-286 149.5,-286 155.5,-292 155.5,-298 155.5,-298 155.5,-314 155.5,-314 155.5,-320 149.5,-326 143.5,-326"/>
<text text-anchor="start" x="71.5" y="-313.4" font-family="RobotoMono" font-weight="bold" font-size="12.00" fill="#002b36">train_model</text>
<text text-anchor="start" x="68.5" y="-303" font-family="RobotoMono" font-size="10.00" fill="#002b36">@op:train_model</text>
<text text-anchor="start" x="94" y="-293" font-family="RobotoMono" font-size="10.00" fill="#dc322f">4 calls</text>
</g>
<!-- X_train&#45;&gt;train_model -->
<g id="edge4" class="edge">
<title>X_train&#45;&gt;train_model</title>
<path fill="none" stroke="#002b36" d="M36.69,-383.88C41.9,-371.91 49.92,-355.98 60,-344 63.34,-340.03 67.18,-336.21 71.2,-332.63"/>
<polygon fill="#002b36" stroke="#002b36" points="73.62,-335.18 79.07,-326.09 69.14,-329.79 73.62,-335.18"/>
<text text-anchor="middle" x="82" y="-358" font-family="RobotoMono" font-size="10.00" fill="#002b36">X_train</text>
<text text-anchor="middle" x="82" y="-347" font-family="RobotoMono" font-size="10.00" fill="#002b36">(1 values)</text>
</g>
<!-- n_estimators -->
<g id="node3" class="node">
<title>n_estimators</title>
<path fill="none" stroke="#268bd2" d="M250,-420C250,-420 168,-420 168,-420 162,-420 156,-414 156,-408 156,-408 156,-396 156,-396 156,-390 162,-384 168,-384 168,-384 250,-384 250,-384 256,-384 262,-390 262,-396 262,-396 262,-408 262,-408 262,-414 256,-420 250,-420"/>
<text text-anchor="start" x="169.5" y="-404.4" font-family="RobotoMono" font-weight="bold" font-size="12.00" fill="#002b36">n_estimators</text>
<text text-anchor="start" x="164" y="-394" font-family="RobotoMono" font-size="10.00" fill="#268bd2">4 values (4 sources)</text>
</g>
<!-- n_estimators&#45;&gt;train_model -->
<g id="edge3" class="edge">
<title>n_estimators&#45;&gt;train_model</title>
<path fill="none" stroke="#002b36" d="M194.38,-383.84C184.1,-372.15 169.78,-356.56 156,-344 151.67,-340.05 146.94,-336.06 142.21,-332.25"/>
<polygon fill="#002b36" stroke="#002b36" points="144.32,-329.45 134.29,-326.02 139.99,-334.96 144.32,-329.45"/>
<text text-anchor="middle" x="207.5" y="-358" font-family="RobotoMono" font-size="10.00" fill="#002b36">n_estimators</text>
<text text-anchor="middle" x="207.5" y="-347" font-family="RobotoMono" font-size="10.00" fill="#002b36">(4 values)</text>
</g>
<!-- output_0 -->
<g id="node4" class="node">
<title>output_0</title>
<path fill="none" stroke="#268bd2" d="M87.5,-228C87.5,-228 18.5,-228 18.5,-228 12.5,-228 6.5,-222 6.5,-216 6.5,-216 6.5,-204 6.5,-204 6.5,-198 12.5,-192 18.5,-192 18.5,-192 87.5,-192 87.5,-192 93.5,-192 99.5,-198 99.5,-204 99.5,-204 99.5,-216 99.5,-216 99.5,-222 93.5,-228 87.5,-228"/>
<text text-anchor="start" x="25.5" y="-212.4" font-family="RobotoMono" font-weight="bold" font-size="12.00" fill="#002b36">output_0</text>
<text text-anchor="start" x="14.5" y="-202" font-family="RobotoMono" font-size="10.00" fill="#268bd2">4 values (2 sinks)</text>
</g>
<!-- eval_model -->
<g id="node10" class="node">
<title>eval_model</title>
<path fill="none" stroke="#dc322f" d="M87,-134C87,-134 19,-134 19,-134 13,-134 7,-128 7,-122 7,-122 7,-106 7,-106 7,-100 13,-94 19,-94 19,-94 87,-94 87,-94 93,-94 99,-100 99,-106 99,-106 99,-122 99,-122 99,-128 93,-134 87,-134"/>
<text text-anchor="start" x="19" y="-121.4" font-family="RobotoMono" font-weight="bold" font-size="12.00" fill="#002b36">eval_model</text>
<text text-anchor="start" x="15" y="-111" font-family="RobotoMono" font-size="10.00" fill="#002b36">@op:eval_model</text>
<text text-anchor="start" x="39" y="-101" font-family="RobotoMono" font-size="10.00" fill="#dc322f">2 calls</text>
</g>
<!-- output_0&#45;&gt;eval_model -->
<g id="edge6" class="edge">
<title>output_0&#45;&gt;eval_model</title>
<path fill="none" stroke="#002b36" d="M53,-191.76C53,-178.5 53,-159.86 53,-144.27"/>
<polygon fill="#002b36" stroke="#002b36" points="56.5,-144.07 53,-134.07 49.5,-144.07 56.5,-144.07"/>
<text text-anchor="middle" x="75" y="-166" font-family="RobotoMono" font-size="10.00" fill="#002b36">model</text>
<text text-anchor="middle" x="75" y="-155" font-family="RobotoMono" font-size="10.00" fill="#002b36">(2 values)</text>
</g>
<!-- output_1 -->
<g id="node5" class="node">
<title>output_1</title>
<path fill="none" stroke="#268bd2" d="M198.5,-228C198.5,-228 129.5,-228 129.5,-228 123.5,-228 117.5,-222 117.5,-216 117.5,-216 117.5,-204 117.5,-204 117.5,-198 123.5,-192 129.5,-192 129.5,-192 198.5,-192 198.5,-192 204.5,-192 210.5,-198 210.5,-204 210.5,-204 210.5,-216 210.5,-216 210.5,-222 204.5,-228 198.5,-228"/>
<text text-anchor="start" x="136.5" y="-212.4" font-family="RobotoMono" font-weight="bold" font-size="12.00" fill="#002b36">output_1</text>
<text text-anchor="start" x="125.5" y="-202" font-family="RobotoMono" font-size="10.00" fill="#268bd2">4 values (4 sinks)</text>
</g>
<!-- y_train -->
<g id="node6" class="node">
<title>y_train</title>
<path fill="none" stroke="#268bd2" d="M125.5,-420C125.5,-420 90.5,-420 90.5,-420 84.5,-420 78.5,-414 78.5,-408 78.5,-408 78.5,-396 78.5,-396 78.5,-390 84.5,-384 90.5,-384 90.5,-384 125.5,-384 125.5,-384 131.5,-384 137.5,-390 137.5,-396 137.5,-396 137.5,-408 137.5,-408 137.5,-414 131.5,-420 125.5,-420"/>
<text text-anchor="start" x="86.5" y="-404.4" font-family="RobotoMono" font-weight="bold" font-size="12.00" fill="#002b36">y_train</text>
<text text-anchor="start" x="89" y="-394" font-family="RobotoMono" font-size="10.00" fill="#268bd2">1 values</text>
</g>
<!-- y_train&#45;&gt;train_model -->
<g id="edge5" class="edge">
<title>y_train&#45;&gt;train_model</title>
<path fill="none" stroke="#002b36" d="M108,-383.76C108,-370.5 108,-351.86 108,-336.27"/>
<polygon fill="#002b36" stroke="#002b36" points="111.5,-336.07 108,-326.07 104.5,-336.07 111.5,-336.07"/>
<text text-anchor="middle" x="130" y="-358" font-family="RobotoMono" font-size="10.00" fill="#002b36">y_train</text>
<text text-anchor="middle" x="130" y="-347" font-family="RobotoMono" font-size="10.00" fill="#002b36">(1 values)</text>
</g>
<!-- output_0_0 -->
<g id="node7" class="node">
<title>output_0_0</title>
<path fill="none" stroke="#268bd2" d="M87.5,-36C87.5,-36 18.5,-36 18.5,-36 12.5,-36 6.5,-30 6.5,-24 6.5,-24 6.5,-12 6.5,-12 6.5,-6 12.5,0 18.5,0 18.5,0 87.5,0 87.5,0 93.5,0 99.5,-6 99.5,-12 99.5,-12 99.5,-24 99.5,-24 99.5,-30 93.5,-36 87.5,-36"/>
<text text-anchor="start" x="19.5" y="-20.4" font-family="RobotoMono" font-weight="bold" font-size="12.00" fill="#002b36">output_0_0</text>
<text text-anchor="start" x="14.5" y="-10" font-family="RobotoMono" font-size="10.00" fill="#268bd2">2 values (2 sinks)</text>
</g>
<!-- generate_dataset&#45;&gt;X_train -->
<g id="edge7" class="edge">
<title>generate_dataset&#45;&gt;X_train</title>
<path fill="none" stroke="#002b36" d="M50.02,-477.85C45.8,-472.43 41.74,-466.29 39,-460 34.95,-450.69 32.69,-439.82 31.45,-430.08"/>
<polygon fill="#002b36" stroke="#002b36" points="34.93,-429.69 30.46,-420.09 27.96,-430.38 34.93,-429.69"/>
<text text-anchor="middle" x="61" y="-452" font-family="RobotoMono" font-size="10.00" fill="#002b36">output_0</text>
<text text-anchor="middle" x="61" y="-441" font-family="RobotoMono" font-size="10.00" fill="#002b36">(1 values)</text>
</g>
<!-- generate_dataset&#45;&gt;y_train -->
<g id="edge8" class="edge">
<title>generate_dataset&#45;&gt;y_train</title>
<path fill="none" stroke="#002b36" d="M76.09,-477.98C82.01,-464.07 90.12,-445.03 96.68,-429.61"/>
<polygon fill="#002b36" stroke="#002b36" points="100.03,-430.67 100.72,-420.1 93.59,-427.93 100.03,-430.67"/>
<text text-anchor="middle" x="115" y="-452" font-family="RobotoMono" font-size="10.00" fill="#002b36">output_2</text>
<text text-anchor="middle" x="115" y="-441" font-family="RobotoMono" font-size="10.00" fill="#002b36">(1 values)</text>
</g>
<!-- train_model&#45;&gt;output_0 -->
<g id="edge1" class="edge">
<title>train_model&#45;&gt;output_0</title>
<path fill="none" stroke="#002b36" d="M96.87,-285.98C88.58,-271.81 77.17,-252.3 68.06,-236.74"/>
<polygon fill="#002b36" stroke="#002b36" points="71.08,-234.96 63,-228.1 65.03,-238.5 71.08,-234.96"/>
<text text-anchor="middle" x="108" y="-260" font-family="RobotoMono" font-size="10.00" fill="#002b36">output_0</text>
<text text-anchor="middle" x="108" y="-249" font-family="RobotoMono" font-size="10.00" fill="#002b36">(4 values)</text>
</g>
<!-- train_model&#45;&gt;output_1 -->
<g id="edge2" class="edge">
<title>train_model&#45;&gt;output_1</title>
<path fill="none" stroke="#002b36" d="M122.24,-285.73C126.2,-280.11 130.4,-273.9 134,-268 139.95,-258.27 145.92,-247.24 150.95,-237.5"/>
<polygon fill="#002b36" stroke="#002b36" points="154.22,-238.78 155.63,-228.28 147.98,-235.61 154.22,-238.78"/>
<text text-anchor="middle" x="168" y="-260" font-family="RobotoMono" font-size="10.00" fill="#002b36">output_1</text>
<text text-anchor="middle" x="168" y="-249" font-family="RobotoMono" font-size="10.00" fill="#002b36">(4 values)</text>
</g>
<!-- eval_model&#45;&gt;output_0_0 -->
<g id="edge10" class="edge">
<title>eval_model&#45;&gt;output_0_0</title>
<path fill="none" stroke="#002b36" d="M53,-93.98C53,-80.34 53,-61.75 53,-46.5"/>
<polygon fill="#002b36" stroke="#002b36" points="56.5,-46.1 53,-36.1 49.5,-46.1 56.5,-46.1"/>
<text text-anchor="middle" x="75" y="-68" font-family="RobotoMono" font-size="10.00" fill="#002b36">output_0</text>
<text text-anchor="middle" x="75" y="-57" font-family="RobotoMono" font-size="10.00" fill="#002b36">(2 values)</text>
</g>
</g>
</svg>
