<?xml version="1.0" encoding="UTF-8" standalone="no"?>
<!DOCTYPE svg PUBLIC "-//W3C//DTD SVG 1.1//EN"
 "http://www.w3.org/Graphics/SVG/1.1/DTD/svg11.dtd">
<!-- Generated by graphviz version 2.50.0 (0)
 -->
<!-- Title: G Pages: 1 -->
<svg width="756pt" height="50pt"
 viewBox="0.00 0.00 756.00 50.00" xmlns="http://www.w3.org/2000/svg" xmlns:xlink="http://www.w3.org/1999/xlink">
<g id="graph0" class="graph" transform="scale(1 1) rotate(0) translate(4 46)">
<title>G</title>
<polygon fill="white" stroke="transparent" points="-4,4 -4,-46 752,-46 752,4 -4,4"/>
<!-- var_0 -->
<g id="node1" class="node">
<title>var_0</title>
<path fill="none" stroke="#268bd2" stroke-width="1.5" d="M736,-38C736,-38 666,-38 666,-38 660,-38 654,-32 654,-26 654,-26 654,-14 654,-14 654,-8 660,-2 666,-2 666,-2 736,-2 736,-2 742,-2 748,-8 748,-14 748,-14 748,-26 748,-26 748,-32 742,-38 736,-38"/>
<text text-anchor="start" x="685" y="-22.4" font-family="Liberation Sans,Helvetica,Arial,sans-serif" font-weight="bold" font-size="12.00" fill="#002b36">var_0</text>
<text text-anchor="start" x="662" y="-12" font-family="Liberation Sans,Helvetica,Arial,sans-serif" font-size="10.00" fill="#268bd2">1 values (1 sinks)</text>
</g>
<!-- nums -->
<g id="node2" class="node">
<title>nums</title>
<path fill="none" stroke="#268bd2" stroke-width="1.5" d="M409,-38C409,-38 379,-38 379,-38 373,-38 367,-32 367,-26 367,-26 367,-14 367,-14 367,-8 373,-2 379,-2 379,-2 409,-2 409,-2 415,-2 421,-8 421,-14 421,-14 421,-26 421,-26 421,-32 415,-38 409,-38"/>
<text text-anchor="start" x="377.5" y="-22.4" font-family="Liberation Sans,Helvetica,Arial,sans-serif" font-weight="bold" font-size="12.00" fill="#002b36">nums</text>
<text text-anchor="start" x="375.5" y="-12" font-family="Liberation Sans,Helvetica,Arial,sans-serif" font-size="10.00" fill="#268bd2">1 values</text>
</g>
<!-- average -->
<g id="node5" class="node">
<title>average</title>
<path fill="none" stroke="#dc322f" stroke-width="1.5" d="M563,-40C563,-40 512,-40 512,-40 506,-40 500,-34 500,-28 500,-28 500,-12 500,-12 500,-6 506,0 512,0 512,0 563,0 563,0 569,0 575,-6 575,-12 575,-12 575,-28 575,-28 575,-34 569,-40 563,-40"/>
<text text-anchor="start" x="514.5" y="-27.4" font-family="Liberation Sans,Helvetica,Arial,sans-serif" font-weight="bold" font-size="12.00" fill="#002b36">average</text>
<text text-anchor="start" x="508" y="-17" font-family="Liberation Sans,Helvetica,Arial,sans-serif" font-size="10.00" fill="#002b36">@op:average</text>
<text text-anchor="start" x="523" y="-7" font-family="Liberation Sans,Helvetica,Arial,sans-serif" font-size="10.00" fill="#dc322f">1 calls</text>
</g>
<!-- nums&#45;&gt;average -->
<g id="edge2" class="edge">
<title>nums&#45;&gt;average</title>
<path fill="none" stroke="#002b36" d="M421.28,-20C440.48,-20 467.03,-20 489.8,-20"/>
<polygon fill="#002b36" stroke="#002b36" points="489.96,-23.5 499.96,-20 489.96,-16.5 489.96,-23.5"/>
<text text-anchor="middle" x="460.5" y="-34" font-family="Liberation Sans,Helvetica,Arial,sans-serif" font-size="10.00" fill="#002b36">nums</text>
<text text-anchor="middle" x="460.5" y="-23" font-family="Liberation Sans,Helvetica,Arial,sans-serif" font-size="10.00" fill="#002b36">(1 values)</text>
</g>
<!-- elts -->
<g id="node3" class="node">
<title>elts</title>
<path fill="none" stroke="#268bd2" stroke-width="1.5" d="M93,-38C93,-38 12,-38 12,-38 6,-38 0,-32 0,-26 0,-26 0,-14 0,-14 0,-8 6,-2 12,-2 12,-2 93,-2 93,-2 99,-2 105,-8 105,-14 105,-14 105,-26 105,-26 105,-32 99,-38 93,-38"/>
<text text-anchor="start" x="42" y="-22.4" font-family="Liberation Sans,Helvetica,Arial,sans-serif" font-weight="bold" font-size="12.00" fill="#002b36">elts</text>
<text text-anchor="start" x="8" y="-12" font-family="Liberation Sans,Helvetica,Arial,sans-serif" font-size="10.00" fill="#268bd2">5 values (5 sources)</text>
</g>
<!-- __make_list__ -->
<g id="node4" class="node">
<title>__make_list__</title>
<path fill="none" stroke="#dc322f" stroke-width="1.5" d="M276,-40C276,-40 196,-40 196,-40 190,-40 184,-34 184,-28 184,-28 184,-12 184,-12 184,-6 190,0 196,0 196,0 276,0 276,0 282,0 288,-6 288,-12 288,-12 288,-28 288,-28 288,-34 282,-40 276,-40"/>
<text text-anchor="start" x="195" y="-27.4" font-family="Liberation Sans,Helvetica,Arial,sans-serif" font-weight="bold" font-size="12.00" fill="#002b36">__make_list__</text>
<text text-anchor="start" x="192" y="-17" font-family="Liberation Sans,Helvetica,Arial,sans-serif" font-size="10.00" fill="#002b36">@op:__make_list__</text>
<text text-anchor="start" x="221.5" y="-7" font-family="Liberation Sans,Helvetica,Arial,sans-serif" font-size="10.00" fill="#dc322f">1 calls</text>
</g>
<!-- elts&#45;&gt;__make_list__ -->
<g id="edge4" class="edge">
<title>elts&#45;&gt;__make_list__</title>
<path fill="none" stroke="#002b36" d="M105.03,-20C126.47,-20 151.54,-20 173.91,-20"/>
<polygon fill="#002b36" stroke="#002b36" points="173.97,-23.5 183.97,-20 173.97,-16.5 173.97,-23.5"/>
<text text-anchor="middle" x="144.5" y="-34" font-family="Liberation Sans,Helvetica,Arial,sans-serif" font-size="10.00" fill="#002b36">*elts</text>
<text text-anchor="middle" x="144.5" y="-23" font-family="Liberation Sans,Helvetica,Arial,sans-serif" font-size="10.00" fill="#002b36">(5 values)</text>
</g>
<!-- __make_list__&#45;&gt;nums -->
<g id="edge3" class="edge">
<title>__make_list__&#45;&gt;nums</title>
<path fill="none" stroke="#002b36" d="M288.08,-20C310.48,-20 336.25,-20 356.65,-20"/>
<polygon fill="#002b36" stroke="#002b36" points="356.78,-23.5 366.78,-20 356.78,-16.5 356.78,-23.5"/>
<text text-anchor="middle" x="327.5" y="-34" font-family="Liberation Sans,Helvetica,Arial,sans-serif" font-size="10.00" fill="#002b36">list</text>
<text text-anchor="middle" x="327.5" y="-23" font-family="Liberation Sans,Helvetica,Arial,sans-serif" font-size="10.00" fill="#002b36">(1 values)</text>
</g>
<!-- average&#45;&gt;var_0 -->
<g id="edge1" class="edge">
<title>average&#45;&gt;var_0</title>
<path fill="none" stroke="#002b36" d="M575.15,-20C595.4,-20 621,-20 643.74,-20"/>
<polygon fill="#002b36" stroke="#002b36" points="643.96,-23.5 653.96,-20 643.96,-16.5 643.96,-23.5"/>
<text text-anchor="middle" x="614.5" y="-34" font-family="Liberation Sans,Helvetica,Arial,sans-serif" font-size="10.00" fill="#002b36">output_0</text>
<text text-anchor="middle" x="614.5" y="-23" font-family="Liberation Sans,Helvetica,Arial,sans-serif" font-size="10.00" fill="#002b36">(1 values)</text>
</g>
</g>
</svg>
