<?xml version="1.0" encoding="UTF-8" standalone="no"?>
<!DOCTYPE svg PUBLIC "-//W3C//DTD SVG 1.1//EN"
 "http://www.w3.org/Graphics/SVG/1.1/DTD/svg11.dtd">
<!-- Generated by graphviz version 2.50.0 (0)
 -->
<!-- Title: G Pages: 1 -->
<svg width="727pt" height="81pt"
 viewBox="0.00 0.00 727.00 81.00" xmlns="http://www.w3.org/2000/svg" xmlns:xlink="http://www.w3.org/1999/xlink">
<g id="graph0" class="graph" transform="scale(1 1) rotate(0) translate(4 77)">
<title>G</title>
<polygon fill="white" stroke="transparent" points="-4,4 -4,-77 723,-77 723,4 -4,4"/>
<!-- var_0 -->
<g id="node1" class="node">
<title>var_0</title>
<path fill="none" stroke="#268bd2" stroke-width="1.5" d="M399,-68C399,-68 329,-68 329,-68 323,-68 317,-62 317,-56 317,-56 317,-44 317,-44 317,-38 323,-32 329,-32 329,-32 399,-32 399,-32 405,-32 411,-38 411,-44 411,-44 411,-56 411,-56 411,-62 405,-68 399,-68"/>
<text text-anchor="start" x="348" y="-52.4" font-family="Liberation Sans,Helvetica,Arial,sans-serif" font-weight="bold" font-size="12.00" fill="#002b36">var_0</text>
<text text-anchor="start" x="325" y="-42" font-family="Liberation Sans,Helvetica,Arial,sans-serif" font-size="10.00" fill="#268bd2">5 values (2 sinks)</text>
</g>
<!-- add -->
<g id="node5" class="node">
<title>add</title>
<path fill="none" stroke="#dc322f" stroke-width="1.5" d="M534,-40C534,-40 502,-40 502,-40 496,-40 490,-34 490,-28 490,-28 490,-12 490,-12 490,-6 496,0 502,0 502,0 534,0 534,0 540,0 546,-6 546,-12 546,-12 546,-28 546,-28 546,-34 540,-40 534,-40"/>
<text text-anchor="start" x="507" y="-27.4" font-family="Liberation Sans,Helvetica,Arial,sans-serif" font-weight="bold" font-size="12.00" fill="#002b36">add</text>
<text text-anchor="start" x="498" y="-17" font-family="Liberation Sans,Helvetica,Arial,sans-serif" font-size="10.00" fill="#002b36">@op:add</text>
<text text-anchor="start" x="503.5" y="-7" font-family="Liberation Sans,Helvetica,Arial,sans-serif" font-size="10.00" fill="#dc322f">3 calls</text>
</g>
<!-- var_0&#45;&gt;add -->
<g id="edge4" class="edge">
<title>var_0&#45;&gt;add</title>
<path fill="none" stroke="#002b36" d="M411.02,-40.92C432.99,-36.58 458.95,-31.46 479.68,-27.37"/>
<polygon fill="#002b36" stroke="#002b36" points="480.56,-30.76 489.69,-25.39 479.2,-23.89 480.56,-30.76"/>
<text text-anchor="middle" x="450.5" y="-50" font-family="Liberation Sans,Helvetica,Arial,sans-serif" font-size="10.00" fill="#002b36">y</text>
<text text-anchor="middle" x="450.5" y="-39" font-family="Liberation Sans,Helvetica,Arial,sans-serif" font-size="10.00" fill="#002b36">(3 values)</text>
</g>
<!-- x -->
<g id="node2" class="node">
<title>x</title>
<path fill="none" stroke="#268bd2" stroke-width="1.5" d="M93,-38C93,-38 12,-38 12,-38 6,-38 0,-32 0,-26 0,-26 0,-14 0,-14 0,-8 6,-2 12,-2 12,-2 93,-2 93,-2 99,-2 105,-8 105,-14 105,-14 105,-26 105,-26 105,-32 99,-38 93,-38"/>
<text text-anchor="start" x="49" y="-22.4" font-family="Liberation Sans,Helvetica,Arial,sans-serif" font-weight="bold" font-size="12.00" fill="#002b36">x</text>
<text text-anchor="start" x="8" y="-12" font-family="Liberation Sans,Helvetica,Arial,sans-serif" font-size="10.00" fill="#268bd2">5 values (5 sources)</text>
</g>
<!-- inc -->
<g id="node4" class="node">
<title>inc</title>
<path fill="none" stroke="#dc322f" stroke-width="1.5" d="M226,-72C226,-72 196,-72 196,-72 190,-72 184,-66 184,-60 184,-60 184,-44 184,-44 184,-38 190,-32 196,-32 196,-32 226,-32 226,-32 232,-32 238,-38 238,-44 238,-44 238,-60 238,-60 238,-66 232,-72 226,-72"/>
<text text-anchor="start" x="202" y="-59.4" font-family="Liberation Sans,Helvetica,Arial,sans-serif" font-weight="bold" font-size="12.00" fill="#002b36">inc</text>
<text text-anchor="start" x="192.5" y="-49" font-family="Liberation Sans,Helvetica,Arial,sans-serif" font-size="10.00" fill="#002b36">@op:inc</text>
<text text-anchor="start" x="196.5" y="-39" font-family="Liberation Sans,Helvetica,Arial,sans-serif" font-size="10.00" fill="#dc322f">5 calls</text>
</g>
<!-- x&#45;&gt;inc -->
<g id="edge2" class="edge">
<title>x&#45;&gt;inc</title>
<path fill="none" stroke="#002b36" d="M105.18,-30.57C127.72,-35.18 153.61,-40.47 174.01,-44.64"/>
<polygon fill="#002b36" stroke="#002b36" points="173.35,-48.08 183.84,-46.65 174.75,-41.22 173.35,-48.08"/>
<text text-anchor="middle" x="144.5" y="-56" font-family="Liberation Sans,Helvetica,Arial,sans-serif" font-size="10.00" fill="#002b36">x</text>
<text text-anchor="middle" x="144.5" y="-45" font-family="Liberation Sans,Helvetica,Arial,sans-serif" font-size="10.00" fill="#002b36">(5 values)</text>
</g>
<!-- x&#45;&gt;add -->
<g id="edge3" class="edge">
<title>x&#45;&gt;add</title>
<path fill="none" stroke="#002b36" d="M105.32,-20C199.69,-20 397.42,-20 479.77,-20"/>
<polygon fill="#002b36" stroke="#002b36" points="479.91,-23.5 489.91,-20 479.91,-16.5 479.91,-23.5"/>
<text text-anchor="middle" x="277.5" y="-34" font-family="Liberation Sans,Helvetica,Arial,sans-serif" font-size="10.00" fill="#002b36">x</text>
<text text-anchor="middle" x="277.5" y="-23" font-family="Liberation Sans,Helvetica,Arial,sans-serif" font-size="10.00" fill="#002b36">(3 values)</text>
</g>
<!-- var_1 -->
<g id="node3" class="node">
<title>var_1</title>
<path fill="none" stroke="#268bd2" stroke-width="1.5" d="M707,-38C707,-38 637,-38 637,-38 631,-38 625,-32 625,-26 625,-26 625,-14 625,-14 625,-8 631,-2 637,-2 637,-2 707,-2 707,-2 713,-2 719,-8 719,-14 719,-14 719,-26 719,-26 719,-32 713,-38 707,-38"/>
<text text-anchor="start" x="656" y="-22.4" font-family="Liberation Sans,Helvetica,Arial,sans-serif" font-weight="bold" font-size="12.00" fill="#002b36">var_1</text>
<text text-anchor="start" x="633" y="-12" font-family="Liberation Sans,Helvetica,Arial,sans-serif" font-size="10.00" fill="#268bd2">3 values (3 sinks)</text>
</g>
<!-- inc&#45;&gt;var_0 -->
<g id="edge1" class="edge">
<title>inc&#45;&gt;var_0</title>
<path fill="none" stroke="#002b36" d="M238.3,-51.65C257.15,-51.4 283.23,-51.06 306.67,-50.75"/>
<polygon fill="#002b36" stroke="#002b36" points="306.92,-54.24 316.87,-50.61 306.83,-47.24 306.92,-54.24"/>
<text text-anchor="middle" x="277.5" y="-65" font-family="Liberation Sans,Helvetica,Arial,sans-serif" font-size="10.00" fill="#002b36">output_0</text>
<text text-anchor="middle" x="277.5" y="-54" font-family="Liberation Sans,Helvetica,Arial,sans-serif" font-size="10.00" fill="#002b36">(5 values)</text>
</g>
<!-- add&#45;&gt;var_1 -->
<g id="edge5" class="edge">
<title>add&#45;&gt;var_1</title>
<path fill="none" stroke="#002b36" d="M546.17,-20C565.22,-20 591.35,-20 614.79,-20"/>
<polygon fill="#002b36" stroke="#002b36" points="614.98,-23.5 624.98,-20 614.98,-16.5 614.98,-23.5"/>
<text text-anchor="middle" x="585.5" y="-34" font-family="Liberation Sans,Helvetica,Arial,sans-serif" font-size="10.00" fill="#002b36">output_0</text>
<text text-anchor="middle" x="585.5" y="-23" font-family="Liberation Sans,Helvetica,Arial,sans-serif" font-size="10.00" fill="#002b36">(3 values)</text>
</g>
</g>
</svg>
